<?xml version="1.0" encoding="UTF-8" standalone="no"?>
<svg
   xmlns:dc="http://purl.org/dc/elements/1.1/"
   xmlns:cc="http://creativecommons.org/ns#"
   xmlns:rdf="http://www.w3.org/1999/02/22-rdf-syntax-ns#"
   xmlns:svg="http://www.w3.org/2000/svg"
   xmlns="http://www.w3.org/2000/svg"
   viewBox="0 0 793.70081 1122.5197"
   height="1122.5197"
   width="793.70081"
   xml:space="preserve"
   id="svg2"
   version="1.1"><metadata
     id="metadata8"><rdf:RDF><cc:Work
         rdf:about=""><dc:format>image/svg+xml</dc:format><dc:type
           rdf:resource="http://purl.org/dc/dcmitype/StillImage" /></cc:Work></rdf:RDF></metadata><defs
     id="defs6" /><g
     transform="matrix(1.3333333,0,0,-1.3333333,0,1122.5197)"
     id="g10"><path
       id="path12"
       style="fill:#ed3237;fill-opacity:1;fill-rule:evenodd;stroke:none"
       d="m 44.7137,685.9593 -21.8262,-69.336 -7.7854,-0.005 7.403,23.6599 c 4.3971,14.8788 9.3421,29.5983 14.004,44.396 1.1432,3.6294 2.2331,7.2802 3.3664,10.9139 0.7725,2.4772 1.5503,4.9558 2.3664,7.4194 0.286,0.8634 0.576,1.7294 0.8895,2.5838 0.1559,0.4246 0.4062,1.1545 0.6871,1.5029 l 1.2538,1.5537 0.7364,-1.8556 c 1.2067,-3.0407 2.0483,-6.2756 3.0274,-9.3988 0.9933,-3.1691 1.9831,-6.3391 3.0093,-9.498 2.0577,-6.3352 4.0334,-12.6959 6.0446,-19.046 l 9.0453,-28.5616 c 0.6693,-2.1124 1.4091,-4.2169 2.0724,-6.3394 l 17.1003,53.8506 c 2.0206,6.3635 3.7446,12.8613 6.0806,19.1177 l 1.1829,3.1677 29.5631,-93.4583 -1.5616,-0.0278 c -1.224,-0.0218 -2.4556,-0.104 -3.676,-0.1116 -0.8169,-0.005 -1.6704,0.0382 -2.3402,0.5666 -0.5882,0.4638 -0.8439,1.1455 -1.054,1.8377 -0.2755,0.9074 -0.5042,1.8235 -0.7903,2.7315 L 97.99,670.9011 c -1.5658,4.9711 -3.0484,9.9723 -4.6658,14.9278 -0.1633,-0.5097 -0.3257,-1.0196 -0.4918,-1.5287 -0.5168,-1.5849 -1.0185,-3.1737 -1.5112,-4.7662 -0.981,-3.17 -2.0296,-6.3187 -3.0211,-9.485 -1.9925,-6.3632 -3.9759,-12.7293 -6.0322,-19.0721 -0.7517,-2.319 -1.4675,-4.6556 -2.1951,-6.9825 -1.2376,-3.9583 -2.4752,-7.9166 -3.7199,-11.8727 -1.364,-4.3344 -2.7315,-8.6694 -4.1378,-12.9903 -0.4776,-1.4675 -0.9578,-2.9364 -1.4635,-4.3943 -0.1763,-0.5077 -0.5927,-1.8345 -0.9391,-2.2263 l -1.3598,-1.5389 -12.7358,39.9432 c -2.9386,9.546 -6.2172,18.9902 -9.0456,28.5696 -0.4584,1.5522 -0.8963,3.1068 -1.3748,4.6539 -0.1882,0.6075 -0.3801,1.2161 -0.5828,1.8207" /><path
       id="path14"
       style="fill:#ed3237;fill-opacity:1;fill-rule:evenodd;stroke:none"
       d="m 44.5482,689.315 c 0.7741,-0.7308 2.7328,-7.7803 3.2408,-9.5004 2.6946,-9.1264 6.2221,-19.3966 9.0417,-28.5567 l 12.1087,-37.9755 c 0.6429,0.7274 10.8839,33.933 12.2199,38.054 2.0531,6.3331 4.0521,12.7488 6.0287,19.0607 0.9967,3.183 2.073,6.4216 3.0198,9.4813 0.5111,1.6512 0.9708,3.1085 1.5168,4.7829 0.2716,0.8326 0.5298,1.6557 0.7963,2.4721 0.3149,0.9661 0.3103,1.5421 0.8586,2.2139 1.9973,-5.8504 3.8571,-12.1196 5.722,-18.0961 l 15.5225,-49.2783 c 1.6044,-5.12 0.2591,-4.324 6.7283,-4.2092 l -28.0718,88.7454 c -2.2107,-5.9199 -4.1541,-13.1006 -6.0619,-19.0625 l -17.403,-54.805 c -0.1332,-0.4167 -0.1925,-0.7662 -0.3226,-1.1551 -0.081,-0.2424 -0.1581,-0.4351 -0.2899,-0.6491 -0.0502,-0.0814 0.028,-0.7784 -0.2461,-0.3079 -0.0221,0.0383 -0.0881,-0.104 -0.1378,-0.1508 -0.7679,3.0175 -2.0086,6.467 -2.9948,9.5576 l -9.0453,28.5616 c -2.0163,6.3363 -3.9787,12.685 -6.0421,19.0378 -1.0292,3.1691 -2.0128,6.3195 -3.0129,9.5096 -0.9139,2.9157 -1.9057,6.5642 -2.9985,9.3172 -0.6783,-0.8405 -6.2544,-19.3376 -7.1053,-22.0385 -4.4972,-14.2753 -9.79,-30.138 -13.9975,-44.3758 l -6.9347,-22.1633 5.3445,0.003 22.5156,71.5267 z" /><path
       id="path16"
       style="fill:#ed3237;fill-opacity:1;fill-rule:evenodd;stroke:none"
       d="m 239.7368,669.1042 c 0.8263,0.7773 2.6943,3.3897 3.2465,4.0728 7.3559,9.1004 14.286,18.5369 21.6079,27.6639 0.2832,0.3529 0.6795,0.9632 1.0656,1.1874 0.5051,0.2937 1.5338,0.2095 2.1058,0.203 1.3632,-0.0156 2.7267,0.0434 4.0887,-0.0394 l 0.4479,-0.0269 -0.091,-0.4394 c -0.1012,-0.4887 -0.8022,-1.5982 -1.0707,-2.0401 -0.6726,-1.1075 -1.3779,-2.1994 -2.0857,-3.2845 -1.059,-1.6245 -2.1504,-3.2289 -3.2065,-4.854 -2.1861,-3.365 -4.3453,-6.7473 -6.5362,-10.1092 -2.1812,-3.3469 -4.3591,-6.6958 -6.5253,-10.0525 -1.4321,-2.2193 -2.8622,-4.4411 -4.2718,-6.6748 -0.4882,-0.7733 -0.9757,-1.5483 -1.4502,-2.3301 -0.1372,-0.2256 -0.4057,-0.6327 -0.548,-0.9221 l 14.0494,-21.6122 c 2.429,-3.5753 4.6502,-7.2867 7.0775,-10.8739 l 7.3324,-11.3823 -0.6157,-0.0748 c -1.3756,-0.1667 -2.8318,-0.0468 -4.2196,-0.0598 -0.6333,-0.006 -1.7167,-0.0774 -2.2575,0.3027 -0.3657,0.2574 -0.7586,0.9278 -1.0443,1.2963 l -11.704,15.0919 c -1.3144,1.6458 -2.5682,3.3353 -3.873,4.9876 -1.3065,1.6543 -2.6013,3.3168 -3.886,4.9881 -2.5109,3.267 -5.0839,6.486 -7.5642,9.7761 -0.8672,-0.8064 -2.6476,-3.2978 -3.2208,-4.0368 -7.143,-9.2089 -14.1585,-18.5207 -21.4475,-27.6151 -1.2223,-1.525 -2.3181,-3.1399 -3.5988,-4.6207 l -0.1154,-0.1333 -6.8431,-0.0334 0.2883,0.5675 c 0.8912,1.7549 2.1279,3.4061 3.2031,5.0581 l 17.0396,26.1819 c 2.2405,3.5175 4.4873,7.0325 6.8123,10.495 0.2174,0.3237 1.025,1.4063 1.0119,1.8006 -0.009,0.2665 -0.3163,0.6911 -0.4615,0.9025 -0.519,0.7558 -1.0269,1.4857 -1.4998,2.2627 l -10.1661,15.7575 c -2.3111,3.465 -4.5581,7.0049 -6.8083,10.5106 -1.4476,2.256 -2.8922,4.5153 -4.3174,6.7858 -0.5171,0.824 -1.033,1.6498 -1.5376,2.4817 -0.2718,0.4479 -0.5799,0.9343 -0.8112,1.4032 l -0.2764,0.5601 0.6245,3e-4 c 1.4658,3e-4 2.9313,0.0539 4.3937,0.0522 0.6015,-9e-4 1.3515,0.003 1.8748,-0.334 0.502,-0.3242 1.076,-1.2543 1.4576,-1.7413 0.54,-0.6891 1.1012,-1.3606 1.6279,-2.0608 5.3379,-7.0962 11.0166,-13.9306 16.3576,-21.0138 z" /><path
       id="path18"
       style="fill:#ed3237;fill-opacity:1;fill-rule:evenodd;stroke:none"
       d="m 207.6849,701.8376 c 0.9158,-1.8576 12.236,-19.3184 13.4492,-21.1374 l 10.1693,-15.7623 c 2.2674,-3.7236 2.6969,-2.7848 0.9456,-5.3932 -2.3275,-3.4662 -4.6253,-7.0611 -6.8071,-10.4871 L 208.4003,622.872 c -1.0539,-1.6166 -2.3726,-3.4271 -3.1824,-5.0219 l 6.0301,0.0295 c 1.3147,1.5202 2.3576,3.0722 3.5892,4.6094 7.1482,8.9184 14.434,18.5729 21.4441,27.6103 0.6489,0.8365 2.8899,3.9374 3.6017,4.3461 2.5555,-3.403 5.1786,-6.6787 7.7979,-10.0865 1.3733,-1.7867 2.5545,-3.3024 3.8828,-4.9844 1.3193,-1.6702 2.3199,-3.0433 3.8719,-4.9862 l 11.7074,-15.0959 c 1.0661,-1.3881 0.6355,-1.4712 2.9914,-1.4488 1.2934,0.0119 2.9372,-0.0932 4.1765,0.0573 l -6.997,10.8612 c -2.4353,3.5986 -4.6502,7.3012 -7.0722,10.8661 l -14.163,21.7868 c -0.047,0.3928 12.3939,19.4507 12.905,20.2351 2.2025,3.3797 4.3452,6.7368 6.5359,10.1083 0.9725,1.4967 6.1055,9.0675 6.3082,10.0463 -1.3519,0.0819 -2.7145,0.023 -4.0697,0.0383 -2.1609,0.0246 -1.8037,0.0759 -2.8639,-1.2453 -7.082,-8.8277 -14.4456,-18.8028 -21.6088,-27.6647 -0.6851,-0.8479 -2.9468,-4.0184 -3.6178,-4.3676 l -6.5761,8.3225 c -5.2716,6.9905 -11.1353,14.0709 -16.3633,21.0209 -0.5505,0.7321 -1.0831,1.3657 -1.6234,2.0548 -1.8918,2.4145 -0.5295,1.8751 -7.4199,1.874" /><path
       id="path20"
       style="fill:#ed3237;fill-opacity:1;fill-rule:evenodd;stroke:none"
       d="m 320.1131,661.4583 14.0491,-21.6119 c 2.429,-3.5753 4.6502,-7.287 7.0778,-10.874 l 7.3327,-11.3822 -0.6157,-0.0748 c -1.3754,-0.167 -2.8321,-0.0474 -4.2196,-0.0604 -0.6336,-0.006 -1.717,-0.0771 -2.2578,0.3033 -0.3657,0.2571 -0.7586,0.9275 -1.0443,1.296 l -11.704,15.0917 c -1.3147,1.6457 -2.5682,3.3355 -3.873,4.9878 -1.3065,1.6543 -2.6013,3.3168 -3.886,4.9881 -2.5109,3.267 -5.0839,6.486 -7.564,9.7761 -0.8671,-0.8064 -2.6475,-3.2978 -3.221,-4.0368 -7.143,-9.2089 -14.1584,-18.5207 -21.4475,-27.6154 -1.2223,-1.5247 -2.3181,-3.1396 -3.5985,-4.6204 l -0.1157,-0.1333 -6.8428,-0.0337 0.288,0.5675 c 0.8912,1.7552 2.1279,3.4061 3.2031,5.0581 l 17.0396,26.1822 c 2.2405,3.5178 4.4873,7.0325 6.8123,10.495 0.2177,0.3237 1.025,1.4063 1.0119,1.8006 -0.009,0.2665 -0.3163,0.6911 -0.4614,0.9025 -0.5191,0.7558 -1.027,1.486 -1.4999,2.2629 L 294.41,680.4845 c -2.3108,3.465 -4.5578,7.0047 -6.8077,10.5106 -1.4479,2.2558 -2.8925,4.515 -4.3174,6.7855 -0.5174,0.8241 -1.033,1.6498 -1.5376,2.4818 -0.2718,0.4478 -0.5802,0.9343 -0.8115,1.4034 l -0.2761,0.5601 h 0.6245 c 1.4655,6e-4 2.931,0.0542 4.3934,0.0525 0.6015,-9e-4 1.3515,0.003 1.8748,-0.334 0.502,-0.3242 1.076,-1.2543 1.4576,-1.7413 0.5403,-0.6891 1.1012,-1.3606 1.6279,-2.0608 5.3379,-7.0962 11.0166,-13.9306 16.3579,-21.0138 l 6.3405,-8.0243 c 0.8261,0.7773 2.6941,3.39 3.2463,4.0731 7.3556,9.1001 14.286,18.5366 21.6079,27.6633 0.2832,0.3532 0.6795,0.9635 1.0656,1.188 0.5054,0.2934 1.5338,0.2095 2.1058,0.203 1.3632,-0.0156 2.7267,0.0434 4.0887,-0.0394 l 0.4476,-0.0269 -0.0907,-0.4394 c -0.1012,-0.4887 -0.8022,-1.5982 -1.0706,-2.0404 -0.6727,-1.1072 -1.378,-2.1991 -2.0858,-3.2845 -1.059,-1.6245 -2.1503,-3.2289 -3.2062,-4.854 -2.1864,-3.365 -4.3456,-6.7473 -6.5367,-10.1092 -2.181,-3.3469 -4.3592,-6.6958 -6.5251,-10.0525 -1.4321,-2.2193 -2.8619,-4.4411 -4.2718,-6.6748 -0.4882,-0.7733 -0.9757,-1.5483 -1.4502,-2.3301 -0.1372,-0.2259 -0.4057,-0.6329 -0.548,-0.9221" /><path
       id="path22"
       style="fill:#ed3237;fill-opacity:1;fill-rule:evenodd;stroke:none"
       d="m 281.2842,701.8376 c 0.9158,-1.8576 12.2357,-19.3184 13.4492,-21.1374 l 10.1693,-15.7623 c 2.2674,-3.7236 2.6969,-2.7848 0.9456,-5.3932 -2.3275,-3.4662 -4.6252,-7.0611 -6.8071,-10.4871 L 281.9996,622.872 c -1.0539,-1.6166 -2.3726,-3.4271 -3.1824,-5.0219 l 6.0301,0.0295 c 1.3147,1.5202 2.3576,3.0722 3.5892,4.6094 7.1482,8.9184 14.4341,18.5729 21.4441,27.6103 0.6489,0.8365 2.89,3.9374 3.6017,4.3461 2.5555,-3.403 5.1786,-6.6787 7.7979,-10.0865 1.3733,-1.7867 2.5545,-3.3024 3.8829,-4.9844 1.3192,-1.6702 2.3198,-3.0433 3.8718,-4.9862 l 11.7074,-15.0959 c 1.0661,-1.3881 0.6355,-1.4712 2.9914,-1.4488 1.2931,0.0119 2.9372,-0.0932 4.1765,0.0573 l -6.997,10.8612 c -2.4352,3.5986 -4.6502,7.3012 -7.0722,10.8661 l -14.163,21.7868 c -0.047,0.3928 12.3939,19.4507 12.905,20.2351 2.2025,3.3797 4.3453,6.7368 6.5359,10.1083 0.9722,1.4967 6.1055,9.0675 6.3082,10.0463 -1.3521,0.0819 -2.7148,0.023 -4.0697,0.0383 -2.1609,0.0246 -1.8037,0.0759 -2.8639,-1.2453 -7.082,-8.8277 -14.4456,-18.8028 -21.6087,-27.6647 -0.6852,-0.8479 -2.9469,-4.0184 -3.6179,-4.3676 l -6.5761,8.3225 c -5.2716,6.9905 -11.1353,14.0709 -16.3633,21.0209 -0.5505,0.7321 -1.0831,1.3657 -1.6234,2.0548 -1.8921,2.4145 -0.5295,1.8751 -7.4199,1.874" /><path
       id="path24"
       style="fill:#ed3237;fill-opacity:1;fill-rule:evenodd;stroke:none"
       d="m 163.7827,689.1395 -25.931,-62.7463 c -0.6466,-1.5131 -1.2632,-3.0387 -1.8783,-4.5646 -0.5165,-1.281 -1.55,-4.474 -2.7295,-5.1075 l -0.2639,-0.1417 -7.183,0.0711 37.8338,91.5483 1.2024,-1.9018 c 0.2359,-0.373 0.4626,-0.9479 0.6424,-1.3552 0.4127,-0.9354 0.8144,-1.8763 1.2149,-2.8168 1.3453,-3.1601 2.6691,-6.33 3.9915,-9.4997 3.9084,-9.3697 7.785,-18.7532 11.66,-28.1367 3.5183,-8.5204 7.0313,-17.0428 10.5469,-25.564 2.0885,-5.0618 4.1626,-10.135 6.2846,-15.1829 0.7603,-1.808 1.7425,-3.7392 2.255,-5.6211 l 0.3954,-1.4519 -6.7906,-0.0879 -0.1273,0.0272 c -1.3805,0.294 -1.5851,1.6526 -2.0262,2.7445 z" /><path
       id="path26"
       style="fill:#ed3237;fill-opacity:1;fill-rule:evenodd;stroke:none"
       d="m 132.6923,617.7475 c 0.6812,0.366 1.8374,3.6176 2.2003,4.5168 0.6216,1.5417 1.2381,3.0668 1.8876,4.5867 l 26.9977,65.3284 30.1773,-72.3785 c 0.4743,-1.1732 0.5457,-1.9153 1.1934,-2.0534 l 5.1557,0.0669 c -0.4249,1.5596 -1.5596,3.9402 -2.2051,5.4757 -3.8874,9.2466 -33.2081,80.735 -34.251,82.3842 l -36.3158,-87.8757 z" /><path
       id="path28"
       style="fill:#fefefe;fill-opacity:1;fill-rule:evenodd;stroke:#373435;stroke-width:0.56690001;stroke-linecap:butt;stroke-linejoin:miter;stroke-miterlimit:22.92558479;stroke-dasharray:none;stroke-opacity:1"
       d="m 361.9826,701.6272 v -83.7836 h 5.2789 v 42.8981 h 23.9343 v 5.0358 h -23.9343 v 30.814 h 29.4667 v 5.0357 z" /><path
       id="path30"
       style="fill:#fefefe;fill-opacity:1;fill-rule:evenodd;stroke:#373435;stroke-width:0.56690001;stroke-linecap:butt;stroke-linejoin:miter;stroke-miterlimit:22.92558479;stroke-dasharray:none;stroke-opacity:1"
       d="m 419.6869,701.6272 v -83.7836 h 5.2786 v 83.7836 z" /><path
       id="path32"
       style="fill:#fefefe;fill-opacity:1;fill-rule:evenodd;stroke:#373435;stroke-width:0.56690001;stroke-linecap:butt;stroke-linejoin:miter;stroke-miterlimit:22.92558479;stroke-dasharray:none;stroke-opacity:1"
       d="m 448.488,617.8436 h 5.5219 v 69.0452 l 59.6687,-68.4261 v 83.1645 h -5.2787 v -69.6429 l -59.9119,68.904 z" /><path
       id="path34"
       style="fill:#fefefe;fill-opacity:1;fill-rule:evenodd;stroke:#373435;stroke-width:0.56690001;stroke-linecap:butt;stroke-linejoin:miter;stroke-miterlimit:22.92558479;stroke-dasharray:none;stroke-opacity:1"
       d="m 538.376,701.6272 v -83.7836 h 31.2044 v 5.0355 H 543.655 v 37.8626 h 22.2369 v 5.0358 H 543.655 v 30.814 h 26.2899 v 5.0357 z" /></g></svg>