<svg version="1.1" xmlns="http://www.w3.org/2000/svg" xmlns:xlink="http://www.w3.org/1999/xlink" width="716.000000pt" height="624.000000pt" viewBox="0,0,256,223.10001"><g fill="#ffffff" fill-rule="nonzero" stroke="none" stroke-width="1" stroke-linecap="butt" stroke-linejoin="miter" stroke-miterlimit="10" stroke-dasharray="" stroke-dashoffset="0" font-family="none" font-weight="none" font-size="none" text-anchor="none" style="mix-blend-mode: normal"><g transform="translate(-9.61788,-2.41709) scale(0.35754,0.35754)"><g transform="translate(0,624) scale(0.1,-0.1)"><path d="M4000,5360c-740,-26 -1422,-117 -1852,-246c-247,-74 -551,-217 -773,-365c-193,-129 -357,-292 -432,-429c-67,-122 -129,-270 -197,-473c-53,-155 -128,-408 -123,-413c1,-1 611,-4 1354,-5l1353,-4l33,66c101,196 245,347 413,432c123,62 332,113 584,143c185,22 640,25 780,5c319,-45 484,-136 570,-315c43,-91 68,-196 72,-305l3,-73l-45,-14c-124,-39 -395,-113 -605,-165c-398,-99 -787,-167 -2157,-379c-251,-39 -515,-81 -585,-95c-643,-121 -1078,-270 -1388,-473c-162,-107 -345,-300 -440,-464l-27,-48h1600h1599l37,59c20,32 69,90 109,128c164,152 425,254 877,342c85,16 229,46 320,66c91,20 215,47 275,60c312,68 442,96 457,101c17,5 18,-19 20,-373l3,-378l663,-3l662,-2v1684v1684l-147,41c-384,107 -888,169 -1638,201c-329,14 -1111,20 -1375,10z"></path><path d="M2090,1421v-80l-37,-3l-38,-3v-60v-60l38,-3l37,-3l1,-102c0,-121 13,-165 54,-188c39,-23 121,-35 213,-31l72,3v59v60h-48c-26,0 -53,5 -60,12c-8,8 -12,45 -12,100v87l58,3l57,3v60v60l-57,3l-58,3v79v80h-110h-110z"></path><path d="M4030,1445v-56l113,3l112,3v50v50l-112,3l-113,3z"></path><path d="M5150,1200v-300h110h110v300v300h-110h-110z"></path><path d="M6990,1445v-55h85h85v55v55h-85h-85z"></path><path d="M753,1341c-80,-13 -124,-40 -151,-92l-22,-44l106,-3c85,-2 109,0 118,12c38,50 176,43 176,-9c0,-13 -94,-38 -195,-50c-147,-19 -216,-60 -218,-129c-1,-45 27,-85 79,-111c31,-15 58,-19 129,-19c80,1 117,9 186,38c12,5 18,1 22,-14c5,-20 11,-21 109,-18l103,3l3,130c2,72 0,149 -3,172c-8,54 -55,106 -110,122c-52,15 -265,22 -332,12zM980,1072c0,-54 -15,-75 -62,-86c-29,-7 -78,8 -90,27c-13,20 -9,54 7,67c15,12 97,38 128,39c14,1 17,-8 17,-47z"></path><path d="M1690,1340c-54,-7 -113,-30 -125,-50c-14,-22 -35,-10 -35,20v30h-100h-100v-220v-220h110h110v130c0,126 1,132 25,155c17,18 35,25 63,25c66,0 72,-15 72,-173v-137h110h110v169c0,158 -1,170 -23,202c-38,58 -112,81 -217,69z"></path><path d="M2777,1339c-146,-16 -247,-105 -247,-216c0,-94 42,-152 145,-200c54,-25 71,-27 175,-27c138,-1 197,16 264,75c108,95 90,250 -37,323c-74,43 -181,59 -300,45zM2937,1195c23,-26 30,-83 17,-130c-9,-33 -53,-58 -102,-58c-38,0 -50,5 -74,31c-46,53 -36,139 20,175c40,26 110,17 139,-18z"></path><path d="M3639,1340c-47,-8 -103,-32 -114,-50c-11,-18 -24,-10 -27,18l-3,27h-100h-100l-3,-217l-2,-218h109h109l4,136c3,129 4,137 27,155c29,23 93,25 115,3c13,-12 16,-40 17,-127c1,-62 2,-123 3,-137l1,-25h110h110v165c0,147 -2,169 -20,198c-35,57 -135,88 -236,72z"></path><path d="M4617,1339c-153,-17 -247,-100 -247,-219c0,-96 63,-173 169,-207c76,-24 246,-24 317,0c58,20 127,75 150,119c22,43 21,129 -3,175c-53,101 -203,153 -386,132zM4777,1195c35,-40 32,-114 -5,-157c-25,-27 -36,-31 -77,-31c-41,0 -52,4 -77,31c-46,53 -35,145 23,179c38,21 109,10 136,-22z"></path><path d="M6589,1339c-47,-7 -103,-31 -114,-49c-12,-20 -25,-9 -25,20v31l-97,-3l-98,-3l-3,-297l-2,-298h110h110v100v100l40,-20c97,-50 243,-31 311,40c90,94 72,267 -37,343c-46,32 -123,46 -195,36zM6623,1200c29,-23 42,-66 32,-110c-10,-46 -42,-70 -89,-70c-44,1 -66,13 -84,47c-24,44 -11,111 27,140c25,19 85,15 114,-7z"></path><path d="M4035,1328c-3,-8 -4,-106 -3,-218l3,-205h110h110v215v215l-108,3c-81,2 -109,0 -112,-10z"></path><path d="M5510,1176c0,-187 7,-215 68,-256c31,-22 46,-25 127,-25c86,0 95,2 144,33c29,17 54,32 57,32c2,0 4,-14 4,-30v-31l103,3l102,3v215v215h-110h-110l-5,-138c-4,-124 -7,-140 -25,-153c-31,-23 -63,-27 -95,-14c-37,15 -40,25 -43,180l-2,125l-107,3l-108,3z"></path><path d="M6997,1333c-4,-3 -7,-102 -7,-220v-213h85h85v220v220h-78c-43,0 -82,-3 -85,-7z"></path></g></g></g></svg>