<?xml version="1.0" standalone="no"?>
<!DOCTYPE svg PUBLIC "-//W3C//DTD SVG 20010904//EN"
 "http://www.w3.org/TR/2001/REC-SVG-20010904/DTD/svg10.dtd">
<svg version="1.0" xmlns="http://www.w3.org/2000/svg"
 width="512.000000pt" height="512.000000pt" viewBox="0 0 512.000000 512.000000"
 preserveAspectRatio="xMidYMid meet">

<g transform="translate(0.000000,512.000000) scale(0.100000,-0.100000)"
fill="#000000" stroke="none">
<path d="M2535 3883 c-311 -19 -632 -86 -788 -164 -184 -92 -354 -240 -419
-364 -20 -39 -49 -113 -66 -165 -33 -107 -97 -368 -91 -374 2 -2 261 -6 574
-9 l570 -5 38 82 c88 191 208 262 482 286 214 19 379 -18 448 -99 37 -44 66
-132 74 -217 l6 -74 -35 -15 c-194 -81 -453 -151 -878 -240 -173 -36 -380 -79
-460 -96 -367 -78 -616 -203 -747 -374 -52 -69 -106 -167 -118 -217 l-7 -28
681 0 c538 0 681 3 681 13 0 29 53 121 95 166 68 73 172 120 410 185 110 31
238 67 284 81 47 14 90 25 98 25 10 0 13 -47 13 -235 l0 -235 315 0 315 0 0
949 c0 761 -3 951 -13 959 -27 23 -174 75 -276 97 -223 50 -552 76 -916 73
-121 -1 -242 -3 -270 -5z"/>
<path d="M1780 1624 c0 -37 -4 -47 -20 -51 -15 -4 -20 -14 -20 -39 0 -27 4
-34 20 -34 18 0 20 -7 20 -73 0 -92 13 -107 88 -107 l52 0 0 34 c0 28 -4 35
-22 38 -20 3 -23 10 -26 56 -3 50 -2 52 22 52 23 0 26 4 26 34 0 28 -4 35 -22
38 -20 3 -23 10 -26 51 l-3 47 -45 0 -44 0 0 -46z"/>
<path d="M2622 1638 c3 -32 5 -33 51 -36 l47 -3 0 35 0 36 -51 0 -50 0 3 -32z"/>
<path d="M3110 1495 l0 -175 50 0 50 0 0 175 0 175 -50 0 -50 0 0 -175z"/>
<path d="M3910 1635 l0 -35 50 0 50 0 0 35 0 35 -50 0 -50 0 0 -35z"/>
<path d="M1165 1568 c-56 -30 -58 -64 -4 -73 33 -6 44 -4 51 9 10 18 63 22 74
5 9 -16 -10 -25 -78 -39 -68 -13 -98 -37 -98 -79 0 -47 42 -74 105 -67 27 3
79 5 114 5 l63 0 -4 102 c-4 96 -5 103 -31 125 -24 21 -38 24 -100 24 -40 0
-81 -6 -92 -12z m125 -147 c0 -36 -25 -59 -48 -44 -25 15 -21 46 8 60 36 18
40 16 40 -16z"/>
<path d="M1580 1573 c-8 -3 -23 -12 -32 -21 -16 -14 -18 -13 -18 1 0 13 -10
17 -45 17 l-45 0 0 -125 0 -125 50 0 49 0 3 81 c3 86 16 110 52 96 13 -5 16
-22 16 -92 l0 -86 48 3 47 3 3 85 c3 99 -1 123 -28 150 -19 19 -66 25 -100 13z"/>
<path d="M2044 1570 c-41 -16 -74 -68 -74 -116 0 -85 51 -134 140 -134 88 0
140 49 140 130 0 55 -22 94 -64 114 -36 17 -107 20 -142 6z m102 -85 c30 -45
-6 -116 -51 -99 -35 14 -45 65 -19 102 20 29 50 28 70 -3z"/>
<path d="M2416 1559 c-21 -17 -26 -18 -26 -5 0 12 -11 16 -45 16 l-45 0 0
-125 0 -125 45 0 45 0 1 58 c2 90 10 116 38 120 34 5 41 -12 41 -100 l0 -78
45 0 45 0 0 109 c0 106 -1 110 -26 130 -15 12 -41 21 -59 21 -18 0 -44 -9 -59
-21z"/>
<path d="M2844 1566 c-99 -45 -101 -181 -4 -231 45 -23 121 -19 161 8 69 46
73 162 7 210 -34 26 -121 33 -164 13z m110 -87 c20 -59 -26 -119 -65 -83 -22
20 -26 83 -7 102 21 21 62 10 72 -19z"/>
<path d="M3703 1563 c-14 -9 -23 -11 -23 -4 0 6 -18 11 -45 11 l-45 0 0 -170
0 -170 50 0 50 0 0 55 c0 52 1 55 19 45 39 -20 91 -12 122 19 26 26 29 36 29
91 0 35 -6 73 -15 91 -25 48 -97 64 -142 32z m51 -69 c31 -30 11 -104 -28
-104 -22 0 -36 23 -36 60 0 55 32 77 64 44z"/>
<path d="M2622 1448 l3 -123 48 -3 47 -3 0 125 0 126 -50 0 -51 0 3 -122z"/>
<path d="M3270 1467 c0 -95 2 -105 23 -125 28 -26 75 -29 117 -7 27 14 30 14
30 0 0 -11 11 -15 45 -15 l45 0 0 125 0 125 -45 0 -45 0 0 -59 c0 -68 -11
-106 -34 -114 -31 -12 -46 20 -46 99 l0 74 -45 0 -45 0 0 -103z"/>
<path d="M3910 1445 l0 -125 50 0 50 0 0 125 0 125 -50 0 -50 0 0 -125z"/>
</g>
</svg>
