<?xml version="1.0" encoding="UTF-8"?>
<svg version="1.1" xmlns="http://www.w3.org/2000/svg" width="900" height="450">
<path d="M0 0 C297 0 594 0 900 0 C900 148.5 900 297 900 450 C603 450 306 450 0 450 C0 301.5 0 153 0 0 Z " fill="#FEFEFE" transform="translate(0,0)"/>
<path d="M0 0 C4.49965437 -0.14612187 8.99869238 -0.2343523 13.5 -0.3125 C15.40265625 -0.3753418 15.40265625 -0.3753418 17.34375 -0.43945312 C24.87911011 -0.53756979 30.26117281 -0.18013693 36 5 C39.80658328 9.1749623 40.24013383 13.08621981 40.2578125 18.53125 C39.97758652 21.21462609 39.19694076 23.16038031 38.125 25.625 C37.19525044 27.79736492 37.19525044 27.79736492 37 30 C38.53936735 32.86584346 40.63932559 34.80359933 43 37 C44.51578428 40.03156857 44.24971927 42.87966614 44.3125 46.25 C44.36857422 48.20679688 44.36857422 48.20679688 44.42578125 50.203125 C43.79189939 55.85572291 41.22987621 58.79807552 37.25 62.6875 C29.98023369 67.86021834 23.59869926 68.42887455 14.9375 68.29296875 C13.90560547 68.28872391 12.87371094 68.28447906 11.81054688 68.28010559 C8.54009033 68.26341801 5.27026783 68.22578395 2 68.1875 C-0.22785563 68.17244036 -2.455721 68.1587542 -4.68359375 68.14648438 C-10.1226093 68.1135471 -15.56125933 68.0634475 -21 68 C-21.15241544 61.41664369 -21.25732557 54.83374392 -21.32958984 48.24902344 C-21.35972103 46.01024371 -21.40063465 43.77158163 -21.45263672 41.53320312 C-21.52561067 38.31090245 -21.55949368 35.09016508 -21.5859375 31.8671875 C-21.61690521 30.87008759 -21.64787292 29.87298767 -21.67977905 28.84567261 C-21.68211784 23.99185329 -21.54673886 20.92161094 -18.08837891 17.32080078 C-15 15 -15 15 -13 15 C-12.34 13.68 -11.68 12.36 -11 11 C-10.67 11 -10.34 11 -10 11 C-10 15.62 -10 20.24 -10 25 C-5.06989247 24.93117243 -0.14063713 24.84323172 4.78881836 24.73754883 C6.46580559 24.70429137 8.14290497 24.67626192 9.82006836 24.65356445 C12.23079225 24.62003263 14.64048762 24.56772022 17.05078125 24.51171875 C17.80087967 24.50532883 18.55097809 24.4989389 19.32380676 24.49235535 C23.37777549 24.37962568 23.37777549 24.37962568 26.98120117 22.69067383 C28.67733844 19.87597203 28.2319799 17.18972366 28 14 C27.505 13.01 27.505 13.01 27 12 C23.52482871 10.84160957 20.3272998 10.77198782 16.70703125 10.68359375 C15.64798836 10.6524221 15.64798836 10.6524221 14.56755066 10.62062073 C12.31596449 10.55532509 10.06426338 10.49633353 7.8125 10.4375 C6.2844934 10.39429575 4.75649836 10.35068084 3.22851562 10.30664062 C-0.51420562 10.19966426 -4.2570423 10.09834078 -8 10 C-5.375 5.125 -5.375 5.125 -2 4 C-0.79117904 1.99983534 -0.79117904 1.99983534 0 0 Z " fill="#525252" transform="translate(250,169)"/>
<path d="M0 0 C1.48971313 0.01426025 1.48971313 0.01426025 3.00952148 0.02880859 C11.08065598 0.25889943 17.03332891 1.46658388 23.03125 7.125 C27.41713814 11.99820904 27.72265658 16.42770333 27.65625 22.703125 C27.11061275 28.250437 24.94127787 32.07654407 20.9375 35.875 C18.45482059 37.50993522 15.92814684 39.04084153 13.375 40.5625 C13.79386475 41.26858398 14.21272949 41.97466797 14.64428711 42.70214844 C16.53890066 45.90254828 18.42577183 49.10744573 20.3125 52.3125 C20.97185547 53.42367187 21.63121094 54.53484375 22.31054688 55.6796875 C22.93896484 56.74960938 23.56738281 57.81953125 24.21484375 58.921875 C24.79613037 59.90639648 25.37741699 60.89091797 25.97631836 61.90527344 C27.375 64.5625 27.375 64.5625 28.375 68.5625 C24.415 68.5625 20.455 68.5625 16.375 68.5625 C15.62734375 67.18835938 14.8796875 65.81421875 14.109375 64.3984375 C13.11472805 62.57804592 12.11992832 60.75773781 11.125 58.9375 C10.38830078 57.58205078 10.38830078 57.58205078 9.63671875 56.19921875 C7.5493668 52.38632253 5.484392 48.62029857 3.015625 45.0390625 C1.375 42.5625 1.375 42.5625 1.375 40.5625 C-6.545 40.5625 -14.465 40.5625 -22.625 40.5625 C-22.625 49.8025 -22.625 59.0425 -22.625 68.5625 C-26.255 68.5625 -29.885 68.5625 -33.625 68.5625 C-33.87370566 62.33720613 -34.05434131 56.11484944 -34.17431641 49.88574219 C-34.2243606 47.77097159 -34.29242293 45.65654275 -34.37939453 43.54296875 C-35.12278933 25.00182787 -35.12278933 25.00182787 -31.38964844 19.88574219 C-28.92259644 17.39408119 -26.61752268 15.37996523 -23.625 13.5625 C-23.295 13.5625 -22.965 13.5625 -22.625 13.5625 C-22.625 18.8425 -22.625 24.1225 -22.625 29.5625 C-17.99836283 29.44249341 -13.37196069 29.31979287 -8.74560547 29.19018555 C-7.17240626 29.14692662 -5.59916283 29.10524526 -4.02587891 29.06518555 C-1.76190885 29.00726338 0.50184051 28.94363286 2.765625 28.87890625 C3.81740936 28.85383751 3.81740936 28.85383751 4.89044189 28.82826233 C8.17733821 28.72898978 11.22642005 28.55437328 14.375 27.5625 C15.87094333 22.88767708 15.92299337 18.20648011 14.375 13.5625 C10.89982871 12.40410957 7.7022998 12.33448782 4.08203125 12.24609375 C3.02298836 12.2149221 3.02298836 12.2149221 1.94255066 12.18312073 C-0.30903551 12.11782509 -2.56073662 12.05883353 -4.8125 12 C-6.3405066 11.95679575 -7.86850164 11.91318084 -9.39648438 11.86914062 C-13.13920562 11.76216426 -16.8820423 11.66084078 -20.625 11.5625 C-19.15926722 9.82316377 -17.68441746 8.09507291 -16.18505859 6.38452148 C-14.53721175 4.51474646 -14.53721175 4.51474646 -12.9140625 2.16015625 C-9.00001616 -0.57166107 -4.64693638 -0.06983258 0 0 Z " fill="#525252" transform="translate(394.625,167.4375)"/>
<path d="M0 0 C12.04327345 3.69223953 19.44650799 10.81790277 25.4765625 21.61328125 C29.11039356 29.56335296 28.52634202 39.40972838 25.87109375 47.55859375 C21.6586922 57.57409395 15.00236508 64.05945974 5.31640625 68.77734375 C-2.67748803 71.93976346 -11.81738752 72.08525218 -19.87890625 69.12109375 C-30.35238903 64.28326135 -37.62076928 57.10452109 -41.8046875 46.37109375 C-42.78760252 42.98381737 -43.54316784 40.30544283 -43.56640625 36.74609375 C-41.96551896 34.17766997 -39.88460792 32.30392586 -37.62890625 30.30859375 C-37.05205078 29.76783203 -36.47519531 29.22707031 -35.88085938 28.66992188 C-34.46010543 27.34310208 -33.01546172 26.04194512 -31.56640625 24.74609375 C-31.23640625 25.40609375 -30.90640625 26.06609375 -30.56640625 26.74609375 C-30.89640625 27.73609375 -31.22640625 28.72609375 -31.56640625 29.74609375 C-32.38142113 37.02778405 -31.36730814 43.42537389 -27.56640625 49.74609375 C-23.06398137 54.83129597 -18.39527529 58.32447693 -11.515625 59.08203125 C-2.74592723 59.18705757 2.42332302 58.02722435 9.18359375 52.49609375 C14.78831647 45.6458771 16.16628481 40.10720866 15.87890625 31.16015625 C15.11930516 25.3365479 13.01915272 21.18734245 8.75390625 17.16015625 C2.1075172 12.04982156 -4.39049775 11.28305686 -12.56640625 11.74609375 C-14.57497728 12.02313803 -16.58231093 12.32838947 -18.56640625 12.74609375 C-17.15085652 11.04944195 -15.72122518 9.36960488 -14.265625 7.70703125 C-13.19325985 6.46949721 -12.14937842 5.20614036 -11.1484375 3.91015625 C-7.70990945 -0.19296126 -5.27362453 -1.00492339 0 0 Z " fill="#4F4F4F" transform="translate(511.56640625,167.25390625)"/>
<path d="M0 0 C0.74306396 -0.00128906 1.48612793 -0.00257813 2.25170898 -0.00390625 C8.64352702 0.11782949 14.0398715 1.58219485 19.8125 4.375 C18.1847197 7.73672019 16.91908668 10.16768841 13.8125 12.375 C10.25 12.125 10.25 12.125 8.15234375 11.75390625 C1.2803153 10.6410736 -5.26711808 10.47410151 -11.40625 14.046875 C-16.71364919 18.00414633 -20.28308632 23.02695439 -22.1875 29.375 C-23.17990025 37.21618714 -21.98066378 44.40977528 -18.1875 51.375 C-14.14197271 56.16827878 -9.44425335 59.05391164 -3.13671875 59.67578125 C7.67444218 59.74258713 7.67444218 59.74258713 16.81640625 54.6171875 C18.06211945 53.37399089 19.28112369 52.10314296 20.46484375 50.80078125 C20.90957031 50.33027344 21.35429688 49.85976562 21.8125 49.375 C22.1425 49.375 22.4725 49.375 22.8125 49.375 C22.8125 54.325 22.8125 59.275 22.8125 64.375 C12.8819778 70.27124756 3.59042911 73.47978954 -8.0546875 70.6875 C-18.7442707 67.13417595 -26.31314607 60.96728985 -31.4453125 50.91015625 C-35.29079008 41.75361697 -35.68338237 32.02892162 -32.625 22.5625 C-28.4096204 12.53991913 -21.50400722 5.38220848 -11.421875 1.23828125 C-7.58459769 0.21408042 -3.94473619 -0.00709565 0 0 Z " fill="#515151" transform="translate(577.1875,166.625)"/>
<path d="M0 0 C-1.6277803 3.36172019 -2.89341332 5.79268841 -6 8 C-9.5625 7.75 -9.5625 7.75 -11.66015625 7.37890625 C-18.5321847 6.2660736 -25.07961808 6.09910151 -31.21875 9.671875 C-36.52614919 13.62914633 -40.09558632 18.65195439 -42 25 C-43.13172973 34.06780982 -40.94419716 41.16310467 -36.25 48.875 C-29.74361339 55.01992069 -23.41671273 55.69921098 -14.56640625 55.453125 C-9.62699381 54.82555453 -6.69380527 53.23098806 -3 50 C-2.40316406 49.52304688 -1.80632813 49.04609375 -1.19140625 48.5546875 C0.233294 47.40308222 1.62133259 46.20633398 3 45 C3.16249454 47.41936317 3.28097817 49.82781859 3.375 52.25 C3.42527344 52.93191406 3.47554687 53.61382812 3.52734375 54.31640625 C3.5859375 56.328125 3.5859375 56.328125 3 60 C-4.51844047 66.85972515 -14.65425359 66.68452951 -24.25 66.43359375 C-32.92885923 65.88170908 -39.38137621 62.01605387 -45.4375 55.9375 C-52.19832362 47.49705631 -54.86650361 38.0830856 -54.4140625 27.35546875 C-53.28576067 18.21196621 -49.61240483 10.46155149 -43 4 C-29.66249338 -5.99240849 -15.12693389 -6.2059216 0 0 Z " fill="#505050" transform="translate(656,171)"/>
<path d="M0 0 C0 4.62 0 9.24 0 14 C8.58 14 17.16 14 26 14 C26 17.3 26 20.6 26 24 C17.42 24 8.84 24 0 24 C0 30.93 0 37.86 0 45 C15.18 45 30.36 45 46 45 C46 48.3 46 51.6 46 55 C27.52 55 9.04 55 -10 55 C-10.185625 47.41 -10.37125 39.82 -10.5625 32 C-10.64443604 29.61910156 -10.72637207 27.23820312 -10.81079102 24.78515625 C-11.10812248 9.81265451 -11.10812248 9.81265451 -7.99169922 4.71484375 C-2.74570795 0 -2.74570795 0 0 0 Z " fill="#4B4B4B" transform="translate(310,181)"/>
<path d="M0 0 C0.97040726 0.00666183 1.94081451 0.01332367 2.94062805 0.02018738 C4.04154282 0.02041397 5.14245758 0.02064056 6.2767334 0.02087402 C7.4643074 0.03635788 8.65188141 0.05184174 9.8754425 0.0677948 C11.09198013 0.07203964 12.30851776 0.07628448 13.56192017 0.08065796 C17.45441146 0.09747504 21.34638846 0.13513396 25.23872375 0.17326355 C27.874784 0.18830642 30.51085234 0.20199551 33.14692688 0.21427917 C39.61520185 0.24738856 46.08317607 0.2976185 52.55122375 0.36076355 C52.55122375 3.66076355 52.55122375 6.96076355 52.55122375 10.36076355 C43.64122375 10.36076355 34.73122375 10.36076355 25.55122375 10.36076355 C25.55122375 29.17076355 25.55122375 47.98076355 25.55122375 67.36076355 C21.92122375 67.36076355 18.29122375 67.36076355 14.55122375 67.36076355 C14.55122375 48.55076355 14.55122375 29.74076355 14.55122375 10.36076355 C5.97122375 10.36076355 -2.60877625 10.36076355 -11.44877625 10.36076355 C-2.93928844 0.43302778 -2.93928844 0.43302778 0 0 Z " fill="#515151" transform="translate(433.4487762451172,168.6392364501953)"/>
<path d="M0 0 C5.01801728 -0.09207371 10.03307904 -0.17163196 15.05126953 -0.21972656 C16.75644894 -0.23978369 18.46156006 -0.26703657 20.16650391 -0.30175781 C22.62419524 -0.35053861 25.08097366 -0.37302719 27.5390625 -0.390625 C28.29555084 -0.41127014 29.05203918 -0.43191528 29.83145142 -0.45318604 C34.99620714 -0.45535237 37.89614715 0.5976537 42 4 C43.22485812 6.44971624 43.16722808 8.14234461 43.1875 10.875 C43.20167969 11.73867187 43.21585937 12.60234375 43.23046875 13.4921875 C42.97998826 16.21775485 42.54598753 17.74685729 41 20 C37.20704131 22.69822594 32.96974311 22.2536095 28.515625 22.1953125 C27.70003113 22.1924826 26.88443726 22.18965271 26.04412842 22.18673706 C23.44593472 22.17556558 20.84808905 22.15046675 18.25 22.125 C16.48568207 22.11496627 14.72135872 22.10584111 12.95703125 22.09765625 C8.63777973 22.07733992 4.31927824 22.03818615 0 22 C0 14.74 0 7.48 0 0 Z " fill="#FBFBFB" transform="translate(240,204)"/>
<path d="M0 0 C0 22.44 0 44.88 0 68 C-3.63 68 -7.26 68 -11 68 C-11.22681155 60.4632267 -11.40987697 52.92774152 -11.51812172 45.38837528 C-11.5701042 41.88644234 -11.6404684 38.3869834 -11.75439453 34.88647461 C-11.88484685 30.85247501 -11.93252788 26.82103149 -11.9765625 22.78515625 C-12.02817535 21.54105484 -12.07978821 20.29695343 -12.13296509 19.01515198 C-12.13633137 13.75368046 -12.0783623 10.36405295 -8.74237061 6.14425659 C-2.0217088 0 -2.0217088 0 0 0 Z " fill="#4F4F4F" transform="translate(676,168)"/>
<path d="M0 0 C1.38070635 0.0004737 2.76147088 0.01734834 4.1418457 0.04760742 C4.87007034 0.05185226 5.59829498 0.05609711 6.34858704 0.06047058 C8.67197822 0.07724884 10.99449845 0.11489763 13.31762695 0.15307617 C14.89378629 0.1681242 16.46995924 0.1818124 18.04614258 0.1940918 C21.90780573 0.22714932 25.76881873 0.27892424 29.63012695 0.34057617 C29.63012695 3.64057617 29.63012695 6.94057617 29.63012695 10.34057617 C15.77012695 10.34057617 1.91012695 10.34057617 -12.36987305 10.34057617 C-3.83909153 0.38799773 -3.83909153 0.38799773 0 0 Z " fill="#4D4D4D" transform="translate(324.369873046875,168.659423828125)"/>
<path d="M0 0 C2 2 2 2 2 5 C2.66 5 3.32 5 4 5 C4.309375 4.360625 4.61875 3.72125 4.9375 3.0625 C6 1 6 1 7 0 C9.67058851 -0.14115161 12.32432238 -0.04247107 15 0 C15.33 0.99 15.66 1.98 16 3 C13.69 2.67 11.38 2.34 9 2 C9 2.99 9 3.98 9 5 C10.7015625 5.4640625 10.7015625 5.4640625 12.4375 5.9375 C16 7 16 7 17 8 C17.25 10.4375 17.25 10.4375 17 13 C13.4913604 15.33909307 12.12910567 15.41291057 8 15 C5.125 13.5 5.125 13.5 3 12 C2.46375 12.495 1.9275 12.99 1.375 13.5 C-1.70110743 15.44280469 -3.41889189 15.52224493 -7 15 C-9.375 13.4375 -9.375 13.4375 -11 11 C-11.45310904 7.37512765 -11.38885542 4.94783509 -10 1.5625 C-6.73859795 -0.98547035 -4.06005224 -0.38667164 0 0 Z " fill="#EEEEEE" transform="translate(497,253)"/>
<path d="M0 0 C9.1796875 -0.29296875 9.1796875 -0.29296875 12 0 C14 3 14 3 13.625 5.6875 C13.41875 6.450625 13.2125 7.21375 13 8 C12.34 8 11.68 8 11 8 C11 8.66 11 9.32 11 10 C11.99 10.33 12.98 10.66 14 11 C14.36453202 16.4679803 14.36453202 16.4679803 12.84375 18.6875 C9.17973565 21.2957814 4.30042403 20.15177967 0 20 C0 13.4 0 6.8 0 0 Z " fill="#525252" transform="translate(316,248)"/>
<path d="M0 0 C0.66 1.32 1.32 2.64 2 4 C2.66 4 3.32 4 4 4 C4.66 2.68 5.32 1.36 6 0 C9.375 -0.125 9.375 -0.125 13 0 C15 2 15 2 15 5 C14.34 5 13.68 5 13 5 C12.67 4.34 12.34 3.68 12 3 C9.47266765 2.34444881 9.47266765 2.34444881 7 2 C7 4.97 7 7.94 7 11 C9.475 11.495 9.475 11.495 12 12 C12.33 11.34 12.66 10.68 13 10 C13.66 10 14.32 10 15 10 C14.67 11.32 14.34 12.64 14 14 C10.6875 14.6875 10.6875 14.6875 7 15 C5.0625 13.6875 5.0625 13.6875 4 12 C4 11.34 4 10.68 4 10 C3.34 10 2.68 10 2 10 C1.690625 10.639375 1.38125 11.27875 1.0625 11.9375 C0 14 0 14 -1 15 C-6.28229665 15.57416268 -6.28229665 15.57416268 -8.875 13.5 C-10.56377991 9.74715576 -10.39174433 7.11331542 -10 3 C-7.8202924 -1.102979 -4.20798751 -0.23818797 0 0 Z " fill="#F1F1F1" transform="translate(469,253)"/>
<path d="M0 0 C1.9375 1 1.9375 1 3 3 C3.75912409 9.83211679 3.75912409 9.83211679 1.375 13.5 C-1.70309234 15.44405832 -3.42402849 15.608676 -7 15 C-9.2288277 13.21693784 -9.87382488 11.8709588 -10.28125 9.05859375 C-10.41239843 6.09136059 -10.34650111 3.65223739 -8.9375 1 C-5.86784865 -0.58433618 -3.38318857 -0.36248449 0 0 Z " fill="#575757" transform="translate(541,253)"/>
<path d="M0 0 C1.9375 1 1.9375 1 3 3 C3.75912409 9.83211679 3.75912409 9.83211679 1.375 13.5 C-1.7237231 15.45708828 -3.40434445 15.68852979 -7 15 C-9.59582599 12.14459142 -9.97795464 10.21310514 -10.375 6.375 C-10 3 -10 3 -8.9375 1.0625 C-5.88023824 -0.6140629 -3.4093712 -0.36528977 0 0 Z " fill="#555555" transform="translate(391,253)"/>
<path d="M0 0 C1.299375 0.144375 2.59875 0.28875 3.9375 0.4375 C6.60384271 4.43701406 6.64669077 7.73582785 5.9375 12.4375 C3.87416028 14.95935965 2.59181822 15.30663636 -0.5625 15.9375 C-3.0625 15.4375 -3.0625 15.4375 -5.375 13.3125 C-7.34819575 9.95075909 -7.63354749 8.27167603 -7.0625 4.4375 C-5.48976962 0.70226534 -3.84662795 0.16056705 0 0 Z " fill="#595959" transform="translate(403.0625,252.5625)"/>
<path d="M0 0 C1.65 0.33 3.3 0.66 5 1 C5.83857688 3.60258324 6.67103344 6.20685647 7.5 8.8125 C7.73847656 9.55048828 7.97695313 10.28847656 8.22265625 11.04882812 C9.19940136 14.13255196 10 16.74495809 10 20 C9.01 19.67 8.02 19.34 7 19 C6.67 17.35 6.34 15.7 6 14 C3.36 14 0.72 14 -2 14 C-2.66 15.98 -3.32 17.96 -4 20 C-4.97812873 16.94371936 -5.00835683 15.14722553 -4.00390625 12.109375 C-3.77509766 11.40039062 -3.54628906 10.69140625 -3.31054688 9.9609375 C-3.06369141 9.23132813 -2.81683594 8.50171875 -2.5625 7.75 C-2.19801758 6.63238281 -2.19801758 6.63238281 -1.82617188 5.4921875 C-1.22667019 3.65841765 -0.61455513 1.82877996 0 0 Z " fill="#646464" transform="translate(448,248)"/>
<path d="M0 0 C3.3 0 6.6 0 10 0 C10 0.66 10 1.32 10 2 C10.99 1.34 11.98 0.68 13 0 C16.125 -0.1875 16.125 -0.1875 19 0 C20 1 20 1 20.09765625 4.16015625 C20.08605469 5.44792969 20.07445312 6.73570312 20.0625 8.0625 C20.05347656 9.35285156 20.04445313 10.64320313 20.03515625 11.97265625 C20.02355469 12.97167969 20.01195312 13.97070312 20 15 C19.34 15 18.68 15 18 15 C17.67 10.38 17.34 5.76 17 1 C15.02 1.99 15.02 1.99 13 3 C12.29464389 5.8786935 12.29464389 5.8786935 12.25 9.125 C12.19328125 10.22070312 12.1365625 11.31640625 12.078125 12.4453125 C12.05234375 13.28835938 12.0265625 14.13140625 12 15 C11.01 15 10.02 15 9 15 C9 10.71 9 6.42 9 2 C7.35 2.33 5.7 2.66 4 3 C3.67 6.96 3.34 10.92 3 15 C2.01 15 1.02 15 0 15 C0 10.05 0 5.1 0 0 Z " fill="#6F6F6F" transform="translate(412,253)"/>
<path d="M0 0 C1.47906892 -0.02689216 2.95827483 -0.04634621 4.4375 -0.0625 C5.26121094 -0.07410156 6.08492188 -0.08570313 6.93359375 -0.09765625 C9 0 9 0 10 1 C10.07271741 3.35313555 10.08370868 5.70833668 10.0625 8.0625 C10.05347656 9.35285156 10.04445313 10.64320313 10.03515625 11.97265625 C10.02355469 12.97167969 10.01195312 13.97070312 10 15 C8.68 15 7.36 15 6 15 C4.453125 15.061875 4.453125 15.061875 2.875 15.125 C0 15 0 15 -2 13 C-2.25 10.5 -2.25 10.5 -2 8 C0 6 0 6 1.9453125 5.8046875 C3.96354167 5.86979167 5.98177083 5.93489583 8 6 C8 4.68 8 3.36 8 2 C4.05272412 1.82057837 1.4019487 1.90649311 -2 4 C-1.34 2.68 -0.68 1.36 0 0 Z " fill="#4D4D4D" transform="translate(335,253)"/>
<path d="M0 0 C2 2 2 2 2 7 C-1.3 7 -4.6 7 -8 7 C-7.34 8.65 -6.68 10.3 -6 12 C-3.23723823 11.47731534 -0.6739124 10.89130413 2 10 C0.125 13.875 0.125 13.875 -1 15 C-4.52371092 15.39152344 -6.37616451 15.41041808 -9.375 13.4375 C-11.6085569 10.08716465 -11.49398209 7.9518567 -11 4 C-8.82892982 -1.29198356 -5.04033393 -0.4800318 0 0 Z " fill="#585858" transform="translate(497,253)"/>
<path d="M0 0 C2 2 2 2 2 7 C-1.3 7 -4.6 7 -8 7 C-7.34 8.65 -6.68 10.3 -6 12 C-4.02 12 -2.04 12 0 12 C0 11.34 0 10.68 0 10 C0.66 10 1.32 10 2 10 C1.625 11.9375 1.625 11.9375 1 14 C-1.87470493 15.43735246 -3.81894588 15.38172649 -7 15 C-9.90672632 12.39924487 -10.88481128 10.80632104 -11.4375 6.9375 C-10.32697859 -0.51885802 -6.71380625 -0.63941012 0 0 Z " fill="#5E5E5E" transform="translate(572,253)"/>
<path d="M0 0 C0.99 0 1.98 0 3 0 C3.33 1.98 3.66 3.96 4 6 C4.94875 5.95875 5.8975 5.9175 6.875 5.875 C10 6 10 6 12 8 C12.1953125 11.0390625 12.1953125 11.0390625 12.125 14.625 C12.10695313 15.81351562 12.08890625 17.00203125 12.0703125 18.2265625 C12.04710937 19.14179688 12.02390625 20.05703125 12 21 C11.34 21 10.68 21 10 21 C9.67 17.04 9.34 13.08 9 9 C7.68 8.67 6.36 8.34 5 8 C3.18884044 9.81115956 3.61800552 12.61278227 3.4375 15.0625 C3.35371094 16.16722656 3.26992188 17.27195312 3.18359375 18.41015625 C3.12300781 19.26480469 3.06242187 20.11945313 3 21 C2.01 21 1.02 21 0 21 C0 14.07 0 7.14 0 0 Z " fill="#666666" transform="translate(357,247)"/>
<path d="M0 0 C1.65 0 3.3 0 5 0 C5.33 0.99 5.66 1.98 6 3 C6.66 3 7.32 3 8 3 C8.33 2.34 8.66 1.68 9 1 C9.33 1.33 9.66 1.66 10 2 C9.82364548 4.69082872 9.38164079 7.32851446 9 10 C8.67 9.34 8.34 8.68 8 8 C7.34 8 6.68 8 6 8 C5.67 8.99 5.34 9.98 5 11 C0.125 10.125 0.125 10.125 -1 9 C-1.23728814 2.47457627 -1.23728814 2.47457627 0 0 Z " fill="#F7F7F7" transform="translate(476,255)"/>
<path d="M0 0 C2.05078125 0.03255208 4.1015625 0.06510417 6.15234375 0.09765625 C6.48234375 1.08765625 6.81234375 2.07765625 7.15234375 3.09765625 C4.84234375 2.76765625 2.53234375 2.43765625 0.15234375 2.09765625 C0.15234375 3.08765625 0.15234375 4.07765625 0.15234375 5.09765625 C1.85390625 5.56171875 1.85390625 5.56171875 3.58984375 6.03515625 C7.15234375 7.09765625 7.15234375 7.09765625 8.15234375 8.09765625 C8.40234375 10.53515625 8.40234375 10.53515625 8.15234375 13.09765625 C4.68235646 15.41098111 3.22725127 15.43723188 -0.84765625 15.09765625 C-1.83765625 14.43765625 -2.82765625 13.77765625 -3.84765625 13.09765625 C-3.84765625 12.43765625 -3.84765625 11.77765625 -3.84765625 11.09765625 C0.60734375 12.08765625 0.60734375 12.08765625 5.15234375 13.09765625 C5.15234375 11.77765625 5.15234375 10.45765625 5.15234375 9.09765625 C4.03859375 8.97390625 2.92484375 8.85015625 1.77734375 8.72265625 C-1.84765625 8.09765625 -1.84765625 8.09765625 -3.84765625 6.09765625 C-3.12417691 0.16512563 -3.12417691 0.16512563 0 0 Z " fill="#686868" transform="translate(505.84765625,252.90234375)"/>
<path d="M0 0 C2.05078125 0.03255208 4.1015625 0.06510417 6.15234375 0.09765625 C6.81234375 1.41765625 7.47234375 2.73765625 8.15234375 4.09765625 C7.57484375 3.76765625 6.99734375 3.43765625 6.40234375 3.09765625 C3.95350513 1.82689727 3.95350513 1.82689727 0.15234375 2.09765625 C0.15234375 3.08765625 0.15234375 4.07765625 0.15234375 5.09765625 C2.79234375 5.75765625 5.43234375 6.41765625 8.15234375 7.09765625 C8.83984375 9.41015625 8.83984375 9.41015625 9.15234375 12.09765625 C8.15234375 13.91015625 8.15234375 13.91015625 6.15234375 15.09765625 C2.65234375 15.53515625 2.65234375 15.53515625 -0.84765625 15.09765625 C-2.78515625 13.09765625 -2.78515625 13.09765625 -3.84765625 11.09765625 C-0.87765625 11.42765625 2.09234375 11.75765625 5.15234375 12.09765625 C5.48234375 11.10765625 5.81234375 10.11765625 6.15234375 9.09765625 C5.03859375 8.97390625 3.92484375 8.85015625 2.77734375 8.72265625 C-0.84765625 8.09765625 -0.84765625 8.09765625 -2.84765625 6.09765625 C-3.03515625 3.53515625 -3.03515625 3.53515625 -2.84765625 1.09765625 C-1.84765625 0.09765625 -1.84765625 0.09765625 0 0 Z " fill="#5F5F5F" transform="translate(519.84765625,252.90234375)"/>
<path d="M0 0 C2.5625 0.25 2.5625 0.25 5 1 C6.38550197 3.77100394 6.1877467 5.9334706 6 9 C5.01 10.485 5.01 10.485 4 12 C-0.875 11.125 -0.875 11.125 -2 10 C-2.27314815 4.26388889 -2.27314815 4.26388889 -2 2 C-1.34 1.34 -0.68 0.68 0 0 Z " fill="#F4F4F4" transform="translate(401,254)"/>
<path d="M0 0 C2.01822917 0.06510417 4.03645833 0.13020833 6.0546875 0.1953125 C6.3846875 1.1853125 6.7146875 2.1753125 7.0546875 3.1953125 C4.7446875 2.8653125 2.4346875 2.5353125 0.0546875 2.1953125 C0.0546875 3.1853125 0.0546875 4.1753125 0.0546875 5.1953125 C1.75625 5.659375 1.75625 5.659375 3.4921875 6.1328125 C7.0546875 7.1953125 7.0546875 7.1953125 8.0546875 8.1953125 C8.3046875 10.6328125 8.3046875 10.6328125 8.0546875 13.1953125 C4.58470021 15.50863736 3.12959502 15.53488813 -0.9453125 15.1953125 C-1.9353125 14.5353125 -2.9253125 13.8753125 -3.9453125 13.1953125 C-3.9453125 12.5353125 -3.9453125 11.8753125 -3.9453125 11.1953125 C-0.9753125 11.5253125 1.9946875 11.8553125 5.0546875 12.1953125 C4.7246875 11.2053125 4.3946875 10.2153125 4.0546875 9.1953125 C0.54277941 7.96561372 0.54277941 7.96561372 -2.9453125 7.1953125 C-3.5703125 4.8203125 -3.5703125 4.8203125 -3.9453125 2.1953125 C-1.9453125 0.1953125 -1.9453125 0.1953125 0 0 Z " fill="#545454" transform="translate(580.9453125,252.8046875)"/>
<path d="M0 0 C1.875 0.75 1.875 0.75 2.875 1.75 C3.14814815 7.48611111 3.14814815 7.48611111 2.875 9.75 C2.215 10.41 1.555 11.07 0.875 11.75 C-1.6875 11.5 -1.6875 11.5 -4.125 10.75 C-5.52435013 7.95129973 -5.37765405 5.84501208 -5.125 2.75 C-3.53345125 0.28309944 -2.95833673 -0.34803962 0 0 Z " fill="#F2F2F2" transform="translate(538.125,254.25)"/>
<path d="M0 0 C2 0.1875 2 0.1875 4 1 C6.56687367 4.8503105 5.83288724 6.58569763 5 11 C0.25 12.125 0.25 12.125 -2 11 C-2.05399736 9.54207116 -2.09279177 8.08357288 -2.125 6.625 C-2.15980469 5.40683594 -2.15980469 5.40683594 -2.1953125 4.1640625 C-2 2 -2 2 0 0 Z " fill="#F3F3F3" transform="translate(386,254)"/>
<path d="M0 0 C3.4375 0.375 3.4375 0.375 5.4375 2.375 C5.4375 3.365 5.4375 4.355 5.4375 5.375 C4.7775 5.375 4.1175 5.375 3.4375 5.375 C3.1075 4.715 2.7775 4.055 2.4375 3.375 C-0.08983235 2.71944881 -0.08983235 2.71944881 -2.5625 2.375 C-2.5625 5.345 -2.5625 8.315 -2.5625 11.375 C-0.9125 11.705 0.7375 12.035 2.4375 12.375 C2.7675 11.715 3.0975 11.055 3.4375 10.375 C4.0975 10.375 4.7575 10.375 5.4375 10.375 C5.1075 11.695 4.7775 13.015 4.4375 14.375 C1.1875 15.1875 1.1875 15.1875 -2.5625 15.375 C-5.57347653 12.82725063 -6.44293764 11.21193651 -7 7.3125 C-6.24676536 2.25506739 -5.2350002 0.55105265 0 0 Z " fill="#616161" transform="translate(478.5625,252.625)"/>
<path d="M0 0 C6.0546875 -0.1953125 6.0546875 -0.1953125 8 0 C8.66 0.66 9.32 1.32 10 2 C9.44444444 6.55555556 9.44444444 6.55555556 8 8 C5.32941149 8.14115161 2.67567762 8.04247107 0 8 C0 5.36 0 2.72 0 0 Z " fill="#E4E4E4" transform="translate(318,258)"/>
<path d="M0 0 C2 2 2 2 2 5 C1.01 4.67 0.02 4.34 -1 4 C-1.33 3.34 -1.66 2.68 -2 2 C-4.75641416 2.49756092 -4.75641416 2.49756092 -7 4 C-7.24733137 8.14276875 -7.24733137 8.14276875 -6 12 C-4.68 12 -3.36 12 -2 12 C-1.67 11.34 -1.34 10.68 -1 10 C-0.01 10 0.98 10 2 10 C0.125 13.875 0.125 13.875 -1 15 C-6.28229665 15.57416268 -6.28229665 15.57416268 -8.875 13.5 C-10.56377991 9.74715576 -10.39174433 7.11331542 -10 3 C-7.8297183 -1.08523614 -4.19706062 -0.38155097 0 0 Z " fill="#5D5D5D" transform="translate(469,253)"/>
<path d="M0 0 C0.33 0.66 0.66 1.32 1 2 C2.98 2 4.96 2 7 2 C7 1.34 7 0.68 7 0 C7.99 0.33 8.98 0.66 10 1 C10.73046875 3.06640625 10.73046875 3.06640625 11.1875 5.5625 C11.34605469 6.38878906 11.50460937 7.21507812 11.66796875 8.06640625 C11.77753906 8.70449219 11.88710938 9.34257812 12 10 C11.01 9.67 10.02 9.34 9 9 C8.67 7.35 8.34 5.7 8 4 C5.36 4 2.72 4 0 4 C-0.66 5.98 -1.32 7.96 -2 10 C-3.01136941 7.26930259 -3.04557718 6.13998707 -2.125 3.3125 C-1 1 -1 1 0 0 Z " fill="#595959" transform="translate(446,258)"/>
<path d="M0 0 C2.64 0 5.28 0 8 0 C8 0.66 8 1.32 8 2 C7.03320312 2.32097656 7.03320312 2.32097656 6.046875 2.6484375 C3.72160885 3.8473523 3.72160885 3.8473523 3.390625 6.6015625 C3.34421875 7.59929687 3.2978125 8.59703125 3.25 9.625 C3.19328125 10.62789063 3.1365625 11.63078125 3.078125 12.6640625 C3.05234375 13.43492187 3.0265625 14.20578125 3 15 C2.01 15 1.02 15 0 15 C0 10.05 0 5.1 0 0 Z " fill="#6F6F6F" transform="translate(372,253)"/>
<path d="M0 0 C0.66 0 1.32 0 2 0 C2 1.32 2 2.64 2 4 C3.32 4.33 4.64 4.66 6 5 C4.68 5 3.36 5 2 5 C2.33 8.63 2.66 12.26 3 16 C4.32 16.33 5.64 16.66 7 17 C7 17.66 7 18.32 7 19 C4.625 19.125 4.625 19.125 2 19 C0 17 0 17 -0.1953125 14.1796875 C-0.17210937 13.08914063 -0.14890625 11.99859375 -0.125 10.875 C-0.10695313 9.77929688 -0.08890625 8.68359375 -0.0703125 7.5546875 C-0.04710937 6.71164063 -0.02390625 5.86859375 0 5 C-0.66 4.67 -1.32 4.34 -2 4 C-1.34 4 -0.68 4 0 4 C0 2.68 0 1.36 0 0 Z " fill="#5A5A5A" transform="translate(349,249)"/>
<path d="M0 0 C2.31 0 4.62 0 7 0 C7.38218767 1.65614657 7.71395102 3.32457024 8 5 C7 6 7 6 3.4375 6.0625 C2.303125 6.041875 1.16875 6.02125 0 6 C0 4.02 0 2.04 0 0 Z " fill="#FBFBFB" transform="translate(319,250)"/>
<path d="M0 0 C0.94875 0.04125 1.8975 0.0825 2.875 0.125 C2 5 2 5 0.875 6.125 C-0.79117115 6.16563832 -2.45888095 6.167721 -4.125 6.125 C-4.75 4.25 -4.75 4.25 -5.125 2.125 C-3.125 0.125 -3.125 0.125 0 0 Z " fill="#EBEBEB" transform="translate(340.125,259.875)"/>
<path d="M0 0 C2.33333333 0 4.66666667 0 7 0 C7 0.66 7 1.32 7 2 C6.01 2.33 5.02 2.66 4 3 C2.78306124 5.43387753 2.68040104 7.41838846 2.4375 10.125 C2.31181641 11.49011719 2.31181641 11.49011719 2.18359375 12.8828125 C2.12300781 13.58148438 2.06242188 14.28015625 2 15 C1.34 15 0.68 15 0 15 C0 10.05 0 5.1 0 0 Z " fill="#515151" transform="translate(547,253)"/>
<path d="M0 0 C0.66 0 1.32 0 2 0 C1.67 1.98 1.34 3.96 1 6 C1.763125 6 2.52625 6 3.3125 6 C5.20833333 6 7.10416667 6 9 6 C9.33 6.99 9.66 7.98 10 9 C8.68 9 7.36 9 6 9 C4.453125 9.061875 4.453125 9.061875 2.875 9.125 C0 9 0 9 -2 7 C-2.25 4.5 -2.25 4.5 -2 2 C-1.34 1.34 -0.68 0.68 0 0 Z " fill="#5B5B5B" transform="translate(335,259)"/>
<path d="M0 0 C1.99954746 -0.04254356 4.00041636 -0.04080783 6 0 C7 1 7 1 7.09765625 4.16015625 C7.08605469 5.44792969 7.07445312 6.73570312 7.0625 8.0625 C7.05347656 9.35285156 7.04445313 10.64320313 7.03515625 11.97265625 C7.02355469 12.97167969 7.01195312 13.97070312 7 15 C6.34 15 5.68 15 5 15 C4.67 10.38 4.34 5.76 4 1 C2.35 1.33 0.7 1.66 -1 2 C-0.67 1.34 -0.34 0.68 0 0 Z " fill="#525252" transform="translate(425,253)"/>
<path d="M0 0 C0.99 0.33 1.98 0.66 3 1 C2.67 3.97 2.34 6.94 2 10 C2.66 10 3.32 10 4 10 C4 10.99 4 11.98 4 13 C2.0625 12.1875 2.0625 12.1875 0 11 C-1.16461426 7.50615721 -1.13568319 4.66344611 -1 1 C-0.67 0.67 -0.34 0.34 0 0 Z " fill="#686868" transform="translate(382,255)"/>
<path d="M0 0 C0.3403125 0.9590625 0.3403125 0.9590625 0.6875 1.9375 C1.84414904 4.21503486 1.84414904 4.21503486 4.375 4.875 C7.26487742 5.01261321 8.58278807 4.52194825 11 3 C9.125 6.875 9.125 6.875 8 8 C2.74549098 8.45691383 2.74549098 8.45691383 0.0625 6.8125 C-1 5 -1 5 -0.6875 2.3125 C-0.460625 1.549375 -0.23375 0.78625 0 0 Z " fill="#626262" transform="translate(488,260)"/>
<path d="M0 0 C2.05078125 0.03255208 4.1015625 0.06510417 6.15234375 0.09765625 C6.48234375 1.08765625 6.81234375 2.07765625 7.15234375 3.09765625 C4.84234375 2.76765625 2.53234375 2.43765625 0.15234375 2.09765625 C0.48234375 4.07765625 0.81234375 6.05765625 1.15234375 8.09765625 C-1.32265625 7.10765625 -1.32265625 7.10765625 -3.84765625 6.09765625 C-2.77957394 0.14691194 -2.77957394 0.14691194 0 0 Z " fill="#606060" transform="translate(580.84765625,252.90234375)"/>
<path d="M0 0 C1.67542976 0.28604898 3.34385343 0.61781233 5 1 C5.33 2.32 5.66 3.64 6 5 C3.36 5 0.72 5 -2 5 C-1.125 1.125 -1.125 1.125 0 0 Z " fill="#E5E5E5" transform="translate(491,254)"/>
<path d="M0 0 C1.65 0.33 3.3 0.66 5 1 C5.33 2.32 5.66 3.64 6 5 C3.36 5 0.72 5 -2 5 C-1.34 3.35 -0.68 1.7 0 0 Z " fill="#E6E6E6" transform="translate(566,254)"/>
<path d="M0 0 C0.66 0 1.32 0 2 0 C2.48801743 7.4422658 2.48801743 7.4422658 0.25 10 C-2 11 -2 11 -6 11 C-6 10.34 -6 9.68 -6 9 C-4.68 8.67 -3.36 8.34 -2 8 C-1.34 5.36 -0.68 2.72 0 0 Z " fill="#545454" transform="translate(407,257)"/>
<path d="M0 0 C0.33 0 0.66 0 1 0 C1.66 2.64 2.32 5.28 3 8 C4.32 8.33 5.64 8.66 7 9 C7 9.66 7 10.32 7 11 C4.6875 11.25 4.6875 11.25 2 11 C-0.61353342 8.65683211 -0.9742861 7.32785226 -1.25 3.8125 C-1 1 -1 1 0 0 Z " fill="#545454" transform="translate(532,257)"/>
<path d="M0 0 C0.66 0 1.32 0 2 0 C2.66 2.64 3.32 5.28 4 8 C2.02 8 0.04 8 -2 8 C-1.34 5.36 -0.68 2.72 0 0 Z " fill="#EAEAEA" transform="translate(449,252)"/>
<path d="M0 0 C0.33 1.65 0.66 3.3 1 5 C0.01 5 -0.98 5 -2 5 C-2.33 4.01 -2.66 3.02 -3 2 C-5.31 1.67 -7.62 1.34 -10 1 C-10 2.98 -10 4.96 -10 7 C-10.33 7 -10.66 7 -11 7 C-11 4.69 -11 2.38 -11 0 C-3.375 -1.125 -3.375 -1.125 0 0 Z " fill="#818181" transform="translate(329,249)"/>
<path d="M0 0 C0.66 0 1.32 0 2 0 C1.625 1.9375 1.625 1.9375 1 4 C-1.77100394 5.38550197 -3.9334706 5.1877467 -7 5 C-7.99 4.34 -8.98 3.68 -10 3 C-10 2.34 -10 1.68 -10 1 C-7.03 1.33 -4.06 1.66 -1 2 C-0.67 1.34 -0.34 0.68 0 0 Z " fill="#565656" transform="translate(512,263)"/>
<path d="M0 0 C2.97 0.495 2.97 0.495 6 1 C6 2.32 6 3.64 6 5 C4.02 5 2.04 5 0 5 C0 3.33333333 0 1.66666667 0 0 Z " fill="#E2E2E2" transform="translate(337,254)"/>
<path d="M0 0 C0.33 0.99 0.66 1.98 1 3 C0.34 3 -0.32 3 -1 3 C-1 3.66 -1 4.32 -1 5 C-0.01 5.33 0.98 5.66 2 6 C2 7.98 2 9.96 2 12 C1.01 11.67 0.02 11.34 -1 11 C-1.22174933 9.54364629 -1.42698698 8.08477044 -1.625 6.625 C-1.74101562 5.81289063 -1.85703125 5.00078125 -1.9765625 4.1640625 C-1.98429687 3.44992187 -1.99203125 2.73578125 -2 2 C-1.34 1.34 -0.68 0.68 0 0 Z " fill="#585858" transform="translate(328,253)"/>
<path d="M0 0 C3 2 3 2 3.73046875 4.1640625 C3.88128906 4.97617187 4.03210938 5.78828125 4.1875 6.625 C4.34605469 7.44226563 4.50460937 8.25953125 4.66796875 9.1015625 C4.83232422 10.04128906 4.83232422 10.04128906 5 11 C0.07692308 6.81538462 0.07692308 6.81538462 -0.3125 2.6875 C-0.209375 1.800625 -0.10625 0.91375 0 0 Z " fill="#606060" transform="translate(396,257)"/>
<path d="M0 0 C2.97 0 5.94 0 9 0 C9 0.99 9 1.98 9 3 C7.9275 2.79375 6.855 2.5875 5.75 2.375 C2.12380904 2.0123809 0.91708924 2.01637931 -2 4 C-1.34 2.68 -0.68 1.36 0 0 Z " fill="#5F5F5F" transform="translate(335,253)"/>
<path d="M0 0 C2.875 -0.125 2.875 -0.125 6 0 C8 2 8 2 8.125 4.625 C8.08375 5.40875 8.0425 6.1925 8 7 C7.34 7 6.68 7 6 7 C5.7525 6.21625 5.505 5.4325 5.25 4.625 C3.84610901 1.67682892 2.99324263 1.0975223 0 0 Z " fill="#565656" transform="translate(566,253)"/>
<path d="M0 0 C2.64 0 5.28 0 8 0 C8.33 0.99 8.66 1.98 9 3 C7.9275 2.79375 6.855 2.5875 5.75 2.375 C2.12380904 2.0123809 0.91708924 2.01637931 -2 4 C-1.34 2.68 -0.68 1.36 0 0 Z " fill="#595959" transform="translate(504,253)"/>
<path d="M0 0 C4.455 0.99 4.455 0.99 9 2 C9 2.66 9 3.32 9 4 C6.1875 4.25 6.1875 4.25 3 4 C1.125 2 1.125 2 0 0 Z " fill="#585858" transform="translate(516,264)"/>
<path d="M0 0 C0.33 0 0.66 0 1 0 C1 1.65 1 3.3 1 5 C1.66 5.33 2.32 5.66 3 6 C1.68 7.32 0.36 8.64 -1 10 C-2.31223496 6.06329512 -1.24296256 3.87511856 0 0 Z " fill="#767676" transform="translate(541,258)"/>
<path d="M0 0 C0.66 0 1.32 0 2 0 C2 1.32 2 2.64 2 4 C3.32 4.33 4.64 4.66 6 5 C3.125 5.625 3.125 5.625 0 6 C-0.66 5.34 -1.32 4.68 -2 4 C-1.34 4 -0.68 4 0 4 C0 2.68 0 1.36 0 0 Z " fill="#515151" transform="translate(349,249)"/>
</svg>
