<?xml version="1.0" encoding="UTF-8" standalone="no"?>
<svg
   xmlns:dc="http://purl.org/dc/elements/1.1/"
   xmlns:cc="http://creativecommons.org/ns#"
   xmlns:rdf="http://www.w3.org/1999/02/22-rdf-syntax-ns#"
   xmlns:svg="http://www.w3.org/2000/svg"
   xmlns="http://www.w3.org/2000/svg"
   viewBox="0 0 1122.5197 793.70081"
   height="793.70081"
   width="1122.5197"
   xml:space="preserve"
   id="svg2"
   version="1.1"><metadata
     id="metadata8"><rdf:RDF><cc:Work
         rdf:about=""><dc:format>image/svg+xml</dc:format><dc:type
           rdf:resource="http://purl.org/dc/dcmitype/StillImage" /></cc:Work></rdf:RDF></metadata><defs
     id="defs6" /><g
     transform="matrix(1.3333333,0,0,-1.3333333,0,793.7008)"
     id="g10"><path
       id="path12"
       style="fill:#231f20;fill-opacity:1;fill-rule:evenodd;stroke:none"
       d="m 287.7639,359.3239 -18.5732,-18.9096 c -5.4927,6.9177 -11.6047,8.585 -17.943,8.352 -13.7977,-0.0814 -21.8237,-9.3713 -22.193,-30.8863 0.4873,-18.1443 5.3277,-31.7109 22.193,-32.6191 7.399,0.5255 13.3279,3.5731 17.7857,9.1394 l 18.4158,-18.5941 c -6.2529,-8.1632 -16.2975,-14.4269 -36.8305,-15.4431 -32.1645,1.5131 -49.3645,21.1294 -49.1086,57.0441 1.192,34.3029 15.0761,55.7337 49.4232,56.4145 15.8448,0.0766 27.7027,-5.3336 36.8306,-14.4978" /><path
       id="path14"
       style="fill:#231f20;fill-opacity:1;fill-rule:evenodd;stroke:none"
       d="m 309.3276,371.3006 h 27.7018 v -109.362 h -27.7018 z" /><path
       id="path16"
       style="fill:#231f20;fill-opacity:1;fill-rule:evenodd;stroke:none"
       d="m 389.1784,308.8491 c 1.5948,-15.1804 8.3849,-24.3984 22.614,-25.1646 14.796,0.6838 22.4575,5.1495 26.9155,10.7158 l 16.6842,-16.3887 c -7.3551,-8.3203 -18.5023,-17.7359 -44.2287,-17.6485 -32.1645,1.5131 -49.3645,21.1294 -49.1086,57.0441 1.192,34.3029 15.0761,55.7337 49.4232,56.4145 15.8448,0.0766 51.1546,-8.801 46.9038,-64.7665 z m 0.2225,18.7466 42.0665,0.0545 c -0.6129,15.427 -9.0868,22.7684 -19.675,23.1653 -13.7659,-0.0681 -20.6711,-6.9971 -22.3915,-23.2198" /><path
       id="path18"
       style="fill:#231f20;fill-opacity:1;fill-rule:evenodd;stroke:none"
       d="m 485.769,413.3744 h 27.7018 V 261.9386 c -17.4194,2.4681 -26.6547,12.7111 -27.7018,30.7289 z" /><path
       id="path20"
       style="fill:#231f20;fill-opacity:1;fill-rule:evenodd;stroke:none"
       d="m 309.3276,413.5329 h 27.7018 v -22.5343 h -27.7018 z" /><path
       id="path22"
       style="fill:#231f20;fill-opacity:1;fill-rule:evenodd;stroke:none"
       d="m 583.2984,260.3631 c -32.6124,1.5131 -47.2768,21.1294 -47.0209,57.0441 0.2974,35.3491 13.8677,56.0883 47.0209,56.4145 33.1531,-0.3262 46.7237,-21.0654 47.0208,-56.4145 0.2562,-35.9147 -14.4085,-55.531 -47.0208,-57.0441 z m 0,24.8978 c -16.6839,0.9082 -19.1379,14.4748 -19.6249,32.6191 0.3691,21.515 6.0084,30.8049 19.6249,30.8863 13.6165,-0.0814 19.2557,-9.3713 19.6251,-30.8863 -0.4873,-18.1443 -2.941,-31.7109 -19.6251,-32.6191" /></g></svg>