<?xml version="1.0" standalone="no"?>
<!DOCTYPE svg PUBLIC "-//W3C//DTD SVG 20010904//EN"
 "http://www.w3.org/TR/2001/REC-SVG-20010904/DTD/svg10.dtd">
<svg version="1.0" xmlns="http://www.w3.org/2000/svg"
 width="300.000000pt" height="67.000000pt" viewBox="0 0 300.000000 67.000000"
 preserveAspectRatio="xMidYMid meet">

<g transform="translate(0.000000,67.000000) scale(0.100000,-0.100000)"
fill="#000000" stroke="none">
<path d="M400 605 c-47 -30 -93 -60 -102 -67 -16 -12 -18 -37 -19 -268 l0
-255 110 -3 111 -3 0 326 c0 179 -3 325 -7 324 -5 0 -46 -24 -93 -54z"/>
<path d="M550 336 l0 -326 110 0 110 0 0 259 0 260 -60 36 c-33 20 -64 33 -70
30 -6 -4 -9 -2 -8 4 2 6 -16 22 -39 36 l-43 26 0 -325z"/>
<path d="M2180 310 l0 -300 55 0 54 0 3 75 3 75 60 -75 60 -75 79 0 c91 0 92
-11 -16 111 -38 42 -68 81 -68 86 0 5 34 46 76 91 l76 82 -75 0 -75 0 -61 -67
-61 -68 0 183 0 182 -55 0 -55 0 0 -300z"/>
<path d="M1520 475 c0 -69 -1 -125 -3 -125 -1 0 -20 9 -42 20 -22 11 -51 20
-65 20 -46 -1 -107 -36 -137 -81 -24 -37 -28 -52 -28 -114 0 -61 4 -77 27
-113 47 -70 139 -101 197 -66 17 10 31 22 31 26 0 4 5 8 10 8 6 0 10 -9 10
-20 0 -18 7 -20 60 -20 l60 0 0 295 0 295 -60 0 -60 0 0 -125z m-26 -221 c35
-35 35 -86 1 -119 -44 -45 -117 -25 -130 36 -19 85 70 142 129 83z"/>
<path d="M180 481 c-25 -15 -66 -40 -93 -55 -28 -16 -45 -32 -41 -38 4 -6 3
-8 -4 -5 -5 4 -17 4 -26 1 -14 -5 -16 -31 -16 -190 l0 -184 110 0 c80 0 112 3
116 13 2 7 3 119 2 249 l-3 237 -45 -28z"/>
<path d="M820 259 l0 -249 110 0 110 0 0 183 0 182 -110 67 -110 66 0 -249z
m175 111 c-3 -5 -12 -10 -18 -10 -7 0 -6 4 3 10 19 12 23 12 15 0z"/>
<path d="M2728 380 c-79 -24 -135 -114 -125 -201 12 -100 69 -163 158 -175 37
-5 50 -2 82 20 35 24 37 24 37 6 0 -18 7 -20 60 -20 l60 0 0 185 0 185 -60 0
c-47 0 -60 -3 -60 -15 0 -19 -3 -19 -42 5 -35 21 -65 24 -110 10z m127 -125
c36 -35 35 -96 -1 -124 -15 -12 -40 -21 -55 -21 -70 0 -98 98 -43 148 33 29
69 28 99 -3z"/>
<path d="M1725 370 c-9 -15 -4 -199 7 -250 18 -88 98 -130 216 -115 47 6 63
13 93 44 43 43 52 89 47 236 l-3 90 -57 3 -56 3 -4 -126 c-3 -112 -5 -128 -22
-141 -25 -18 -57 -18 -82 0 -17 13 -19 30 -23 140 l-3 126 -53 0 c-30 0 -57
-4 -60 -10z"/>
</g>
</svg>
