<?xml version="1.0" encoding="UTF-8"?>
<svg version="1.1" xmlns="http://www.w3.org/2000/svg" width="1190" height="1190">
<path d="M0 0 C392.7 0 785.4 0 1190 0 C1190 392.7 1190 785.4 1190 1190 C797.3 1190 404.6 1190 0 1190 C0 797.3 0 404.6 0 0 Z " fill="#FEFEFE" transform="translate(0,0)"/>
<path d="M0 0 C1.93659942 1.4396607 3.75744642 2.94791386 5.5703125 4.5390625 C6.4159375 5.1578125 7.2615625 5.7765625 8.1328125 6.4140625 C10.23694129 8.24843119 11.94480856 10.05591839 13.7578125 12.1640625 C22.65017762 22.48074585 31.35894616 32.00735755 45.3203125 34.1015625 C52.97673986 34.1015625 60.04344094 29.10809169 66.5703125 25.5390625 C72.32426951 22.66208399 80.45042204 24.18050744 86.3203125 26.1015625 C100.58391347 32.02770044 107.79646842 46.79473186 115.03271484 59.62646484 C116.93643722 62.9629099 118.8564016 66.00196108 121.3671875 68.91796875 C123.5703125 71.5390625 123.5703125 71.5390625 123.5703125 73.5390625 C124.15167969 73.81878906 124.73304688 74.09851563 125.33203125 74.38671875 C127.5703125 75.5390625 127.5703125 75.5390625 129.40234375 76.72265625 C134.19352248 79.75612444 138.63390683 81.07150311 144.1953125 81.9765625 C150.71837899 83.16257459 154.41825736 84.38296733 158.5703125 89.5390625 C164.02747024 97.61819549 167.68641669 106.38914358 171.42578125 115.34960938 C176.00543145 126.07701349 181.17370982 136.25292668 192.2578125 141.2265625 C196.37841504 143.51170734 197.24867046 146.75063831 198.62109375 151.09375 C199.32189074 153.63738352 200.00593191 156.18262275 200.67578125 158.734375 C205.18932423 175.85310722 211.21319833 194.63368235 227.37109375 204.12109375 C231.75189478 206.06276747 236.1865823 207.09833792 240.8527832 208.125 C250.46768225 210.28965316 257.02228135 215.3782545 262.44140625 223.6315918 C264.83203576 227.67094913 266.71839639 231.97441423 268.6953125 236.2265625 C272.2305952 243.72974034 275.85908062 251.15531458 279.7578125 258.4765625 C280.16749268 259.24935547 280.57717285 260.02214844 280.99926758 260.81835938 C282.56216683 263.76455745 284.12658315 266.70989841 285.70019531 269.65039062 C294.84096001 286.82493515 301.37726696 303.7880719 296.0078125 323.3515625 C294.45086081 327.86503616 292.36902159 331.63679195 289.8203125 335.6640625 C286.27628085 341.48421793 285.24050061 345.82351247 286.5703125 352.5390625 C289.2179568 361.14390649 293.810354 369.16907087 297.8984375 377.16796875 C301.74025655 384.91444035 301.95985234 394.8329048 299.91015625 403.25 C298.68599548 405.9031241 297.24854197 408.14062119 295.5703125 410.5390625 C295.13493164 411.16329102 294.69955078 411.78751953 294.25097656 412.43066406 C291.56821981 416.25284282 288.83177153 420.03205483 286.05859375 423.7890625 C282.69797337 428.34342759 279.43950629 432.9638999 276.1953125 437.6015625 C266.27962982 451.6918458 266.27962982 451.6918458 263.5703125 454.5390625 C262.9103125 454.5390625 262.2503125 454.5390625 261.5703125 454.5390625 C261.61671875 455.24289062 261.663125 455.94671875 261.7109375 456.671875 C262.44296538 476.6980663 252.13896991 491.96819416 239.5703125 506.5390625 C237.5590693 508.68017655 235.50397242 510.7381785 233.3828125 512.76953125 C230.9653238 515.12970879 228.79843172 517.66676004 226.60546875 520.234375 C224.5674117 522.54234748 222.44387899 524.75386544 220.30981445 526.97265625 C210.84565865 536.90577682 203.18367111 547.98286561 197.5703125 560.5390625 C195.21484375 560.23046875 195.21484375 560.23046875 192.5703125 559.5390625 C190.2578125 556.4765625 190.2578125 556.4765625 188.5703125 553.5390625 C185.58742792 553.87049412 183.85589534 554.31800023 181.4609375 556.171875 C179.02987965 559.21572017 178.91229287 561.30823381 178.5703125 565.1640625 C176.99312246 577.96713461 172.3805738 586.40949034 162.1015625 594.4765625 C150.89908248 602.03486227 137.81435466 606.58098641 125.19140625 611.1796875 C122.66731419 612.12724309 120.24684431 613.1128973 117.79296875 614.2109375 C114.5703125 615.5390625 114.5703125 615.5390625 111.5703125 615.5390625 C106.72086188 609.58479752 100.5703125 601.52980015 100.5703125 593.5390625 C104.56632704 594.87106735 107.46934359 596.82909429 110.7265625 599.41796875 C112.96458585 600.77880075 115.00941063 601.07737657 117.5703125 601.5390625 C117.5796582 600.51546631 117.58900391 599.49187012 117.59863281 598.43725586 C117.63871418 594.61439603 117.70452142 590.79232572 117.77783203 586.9699707 C117.80593706 585.32033484 117.82720341 583.67056692 117.84130859 582.02075195 C117.86288483 579.63945425 117.90960495 577.25972662 117.9609375 574.87890625 C117.96216614 574.14945297 117.96339478 573.41999969 117.96466064 572.66844177 C118.1171475 567.25371779 119.51420583 564.0248332 122.5703125 559.5390625 C123.90139275 558.53606541 125.23417151 557.53530797 126.5703125 556.5390625 C129.468693 545.88325182 122.57095821 531.24875155 119.3046875 521.1484375 C118.5703125 518.5390625 118.5703125 518.5390625 118.5703125 515.5390625 C117.9103125 515.5390625 117.2503125 515.5390625 116.5703125 515.5390625 C116.36019531 516.66699219 116.15007813 517.79492188 115.93359375 518.95703125 C114.37666807 525.95977952 111.90031848 532.6901985 109.57537842 539.46591187 C105.5354228 551.25446917 101.56569226 562.97164465 98.91479492 575.16723633 C98.51736833 576.96978447 98.05212764 578.75721462 97.5703125 580.5390625 C96.9103125 580.8690625 96.2503125 581.1990625 95.5703125 581.5390625 C94.45468094 573.89579945 93.57918755 566.30959579 93.16796875 558.59375 C93.09884277 557.37075195 93.0297168 556.14775391 92.95849609 554.88769531 C92.82700268 552.44786858 92.71338247 550.00699788 92.61962891 547.56542969 C92.12448312 538.65779434 90.36056421 530.78237339 83.5703125 524.5390625 C83.82554687 526.20388672 83.82554687 526.20388672 84.0859375 527.90234375 C85.39227851 536.64033399 86.57801035 545.38306876 87.5546875 554.1640625 C87.63881897 554.91817917 87.72295044 555.67229584 87.80963135 556.44926453 C88.22782073 560.21498961 88.63730533 563.98144455 89.03613281 567.74926758 C91.59235303 591.39367954 96.21079964 610.26039105 112 628.5546875 C119.30518995 637.03670136 119.30518995 637.03670136 120.1328125 641.7265625 C119.42586433 645.26130333 118.4260187 646.37798754 115.5703125 648.5390625 C111.12289094 650.7668989 106.81601645 651.01379321 101.9453125 651.4140625 C90.20682577 652.57954422 78.22756332 655.88181168 69.5703125 664.5390625 C68.07287306 664.78860421 66.56658037 664.98530688 65.05859375 665.16015625 C48.33807739 667.32716844 33.27072244 671.85505682 17.49511719 677.57104492 C12.28747765 679.29460843 7.67875587 679.6751851 2.1953125 679.6640625 C0.92945313 679.66664063 -0.33640625 679.66921875 -1.640625 679.671875 C-5.4296875 679.5390625 -5.4296875 679.5390625 -8.78515625 678.62890625 C-14.50880336 678.48780884 -17.8729293 681.68650548 -22.3671875 684.9765625 C-38.7414121 696.43135062 -55.77872156 706.26202748 -76.4296875 704.5390625 C-84.55143311 702.91666807 -91.06425647 699.73603378 -98.05078125 695.41015625 C-104.16436531 692.0247149 -110.74342431 689.72306123 -117.29492188 687.32617188 C-118.72780638 686.79785307 -120.15623016 686.25728801 -121.58007812 685.70507812 C-126.17357389 683.9270896 -130.25504306 682.48484699 -135.25 682.609375 C-152.76920558 682.89929093 -170.48612635 673.10649828 -185.58569336 664.91381836 C-189.19517136 662.98184694 -192.33727147 661.88157351 -196.4296875 661.5390625 C-197.0896875 661.8690625 -197.7496875 662.1990625 -198.4296875 662.5390625 C-208.26746827 663.33243192 -217.6047838 660.62509871 -225.4296875 654.5390625 C-224.99950783 646.15055886 -219.50987141 640.30033824 -213.5546875 634.9140625 C-211.13135317 632.81456714 -208.68326787 630.75008079 -206.21875 628.69921875 C-199.63621938 623.1381153 -194.64269545 618.2962189 -193.4296875 609.5390625 C-193.29589561 607.59452735 -193.19836243 605.6472404 -193.13256836 603.69921875 C-193.09260239 602.56943604 -193.05263641 601.43965332 -193.01145935 600.27563477 C-192.97287308 599.06319092 -192.9342868 597.85074707 -192.89453125 596.6015625 C-192.85155411 595.33046631 -192.80857697 594.05937012 -192.76429749 592.74975586 C-192.6741623 590.05326579 -192.58562383 587.35677991 -192.49975586 584.66015625 C-192.41302252 581.94127923 -192.32295743 579.22255177 -192.22924805 576.50390625 C-191.66763162 560.17613069 -191.28503922 543.8768179 -191.4296875 527.5390625 C-191.93781982 528.33481689 -192.44595215 529.13057129 -192.96948242 529.95043945 C-194.18147786 531.84847005 -195.39347331 533.74650065 -196.60546875 535.64453125 C-202.48638244 546.92441815 -202.24334029 560.68716676 -202.9921875 573.1015625 C-205.31238971 610.42176471 -205.31238971 610.42176471 -216.4296875 621.5390625 C-224.13014833 627.5390625 -224.13014833 627.5390625 -229.4296875 627.5390625 C-231.01093485 625.74401269 -232.1372718 623.81854466 -233.37890625 621.77734375 C-239.22964009 615.39168567 -247.67315962 613.31921577 -255.8046875 611.2890625 C-257.75009629 610.78422509 -259.69541307 610.27903294 -261.640625 609.7734375 C-262.48931152 609.55913086 -263.33799805 609.34482422 -264.21240234 609.12402344 C-269.28070889 607.78691019 -269.28070889 607.78691019 -270.5612793 605.65649414 C-270.91359619 604.84559326 -271.26591309 604.03469238 -271.62890625 603.19921875 C-272.02940186 602.30533447 -272.42989746 601.4114502 -272.8425293 600.49047852 C-273.2631665 599.53713623 -273.68380371 598.58379395 -274.1171875 597.6015625 C-278.93868336 587.09195341 -284.39717012 577.01242491 -294.4296875 570.5390625 C-296.45041949 569.73765271 -296.45041949 569.73765271 -298.4296875 569.5390625 C-299.76818421 570.53214071 -301.10120059 571.53263302 -302.4296875 572.5390625 C-304.9296875 573.0390625 -304.9296875 573.0390625 -307.4296875 572.5390625 C-311.22873159 568.43364388 -313.44388409 563.71420404 -315.78515625 558.7109375 C-318.42346124 553.21944296 -321.46285313 549.31019563 -326.0625 545.37329102 C-332.83741038 539.48442319 -339.169811 533.1387568 -345.54736328 526.82641602 C-347.12932649 525.26601471 -348.71751903 523.71190249 -350.31201172 522.16430664 C-372.32923869 500.78608409 -372.32923869 500.78608409 -374.4921875 487.2890625 C-376.1090564 480.76804819 -382.26055353 478.11246362 -387.63671875 474.84375 C-388.29236816 474.45026367 -388.94801758 474.05677734 -389.62353516 473.65136719 C-409.97360009 461.11894007 -426.38348622 441.62576062 -431.98974609 418.19873047 C-432.87254072 412.86179112 -432.65715464 407.43568295 -432.6796875 402.0390625 C-432.7003125 400.83507812 -432.7209375 399.63109375 -432.7421875 398.390625 C-432.77350952 391.10825447 -431.94428183 384.73498256 -430.13378906 377.69287109 C-428.98169741 372.5324273 -428.89576986 367.36901946 -428.6796875 362.1015625 C-426.47269903 324.50101812 -413.46465082 280.39288351 -390.2734375 250.0234375 C-386.82364946 245.37499429 -383.99090068 240.32042382 -381.16015625 235.27734375 C-380.75410156 234.57996094 -380.34804688 233.88257813 -379.9296875 233.1640625 C-379.589375 232.55820312 -379.2490625 231.95234375 -378.8984375 231.328125 C-375.11810044 226.72335272 -370.30282725 224.98190337 -364.6796875 223.6015625 C-352.85493737 220.41891644 -352.85493737 220.41891644 -343.9921875 212.4140625 C-338.38640577 202.54030292 -337.47330855 191.02014544 -336.05664062 179.94726562 C-334.7632503 170.73118309 -332.95532422 164.23024375 -325.6796875 158.1015625 C-316.23614611 149.00521013 -312.53978457 136.28205794 -308.64086914 124.078125 C-304.05719892 109.96220678 -297.12759049 96.97913956 -284.2265625 88.8359375 C-279.82169677 86.79345786 -275.17541271 85.56787173 -270.45703125 84.44995117 C-265.50792063 83.1996674 -262.63465227 81.74008579 -259.4296875 77.5390625 C-257.98346915 74.07119422 -257.98346915 74.07119422 -256.9921875 70.2890625 C-253.04395706 57.4171766 -245.14611687 47.88819159 -233.2355957 41.34936523 C-230.3634671 40.06065429 -227.61206305 39.77127387 -224.4921875 39.4765625 C-223.08588846 39.32597814 -221.67964182 39.17490387 -220.2734375 39.0234375 C-217.8515625 38.78125 -217.8515625 38.78125 -215.4296875 38.5390625 C-183.05604463 35.28488372 -183.05604463 35.28488372 -156.25390625 17.9296875 C-154.03830895 15.02616384 -152.62147012 11.92982104 -150.9921875 8.6640625 C-148.58289859 4.62009943 -147.43689358 2.82547929 -142.83460999 1.51673889 C-141.44470045 1.37396691 -140.05122623 1.26332678 -138.65649414 1.17993164 C-137.90700784 1.11446923 -137.15752153 1.04900682 -136.38532352 0.98156071 C-128.68172955 0.35905511 -120.96362336 0.20719971 -113.23828125 0.16015625 C-111.75390116 0.1438941 -110.26953096 0.12670588 -108.78517151 0.10865784 C-104.92657148 0.06362502 -101.06795582 0.02850852 -97.20922852 -0.00354004 C-91.03481908 -0.05599645 -84.86055995 -0.12181834 -78.68632698 -0.19175529 C-76.56640543 -0.21402313 -74.4465008 -0.23064763 -72.32652283 -0.24647522 C-53.28108367 -0.41110969 -53.28108367 -0.41110969 -34.5546875 -3.5234375 C-22.28372624 -6.27819329 -11.30805796 -6.7993789 0 0 Z " fill="#010101" transform="translate(660.4296875,149.4609375)"/>
<path d="M0 0 C392.7 0 785.4 0 1190 0 C1190 392.7 1190 785.4 1190 1190 C797.3 1190 404.6 1190 0 1190 C0 797.3 0 404.6 0 0 Z M14 14 C14 397.46 14 780.92 14 1176 C397.46 1176 780.92 1176 1176 1176 C1176 792.54 1176 409.08 1176 14 C792.54 14 409.08 14 14 14 Z " fill="#050606" transform="translate(0,0)"/>
<path d="M0 0 C4.6304626 2.06937484 9.32282697 3.98206207 14.02148438 5.89013672 C15.44074219 6.4981311 15.44074219 6.4981311 16.88867188 7.1184082 C24.46070094 10.19322676 31.33880144 11.2451855 39.35742188 9.24560547 C40.1128125 8.90142578 40.86820313 8.55724609 41.64648438 8.20263672 C42.46632813 7.84041016 43.28617188 7.47818359 44.13085938 7.10498047 C46.40695027 5.99864676 46.40695027 5.99864676 48.89648438 4.26513672 C52.4457505 2.39710192 55.42574276 2.2134186 59.27148438 3.01513672 C69.56084608 7.30449842 69.56084608 7.30449842 72.27148438 10.01513672 C78.23122619 10.26317997 83.83225033 9.64118571 89.70898438 8.70263672 C91.02866211 8.50287231 91.02866211 8.50287231 92.375 8.29907227 C96.3976185 7.67934214 100.3926269 7.01802739 104.36914062 6.14794922 C113.51763987 4.22484127 122.35405917 3.70027552 131.70898438 3.64013672 C132.89427734 3.62635986 134.07957031 3.61258301 135.30078125 3.59838867 C147.45470423 3.66258193 157.08463261 6.36627206 166.14648438 14.64013672 C169.93547733 18.87489355 170.58034293 21.10401641 170.47460938 26.55810547 C170.21502453 29.69808374 169.47931365 32.61689771 168.72070312 35.66748047 C167.94166594 39.73879652 167.91948488 43.88937521 168.27148438 48.01513672 C168.60148437 48.34513672 168.93148438 48.67513672 169.27148438 49.01513672 C171.56376681 48.98221882 173.85555218 48.91291287 176.14648438 48.82763672 C183.12065699 48.68907147 188.98667351 49.77212697 195.27148438 53.01513672 C197.27148438 55.01513672 197.27148438 55.01513672 197.31835938 57.07373047 C197.22039062 57.85876953 197.12242187 58.64380859 197.02148438 59.45263672 C196.89 60.62632812 196.89 60.62632812 196.75585938 61.82373047 C196.27148438 64.01513672 196.27148438 64.01513672 194.27148438 67.01513672 C188.69651069 66.48919581 183.6314667 65.3693298 178.27539062 63.73388672 C147.32274829 56.32779285 111.89989683 63.8592077 82.90820312 75.06982422 C80.36317075 75.98226545 77.92263187 76.51456459 75.27148438 77.01513672 C77.75660162 108.93025841 77.75660162 108.93025841 93.27148438 136.01513672 C96.10315871 136.2484029 98.87311716 136.38281315 101.70898438 136.45263672 C112.02226755 136.88142101 122.13561981 138.01590029 130.27148438 145.01513672 C133.76312866 149.8161476 133.61358839 154.3134031 133.27148438 160.01513672 C132.5728125 159.98033203 131.87414062 159.94552734 131.15429688 159.90966797 C130.24421875 159.88259766 129.33414062 159.85552734 128.39648438 159.82763672 C127.4915625 159.79283203 126.58664062 159.75802734 125.65429688 159.72216797 C124.86796875 159.81884766 124.08164062 159.91552734 123.27148438 160.01513672 C119.5401403 165.61215283 121.05513846 172.4053852 122.27148438 178.76513672 C122.45453125 179.67392578 122.63757813 180.58271484 122.82617188 181.51904297 C123.33718184 184.38338832 123.42842879 187.11166513 123.27148438 190.01513672 C124.57085938 190.35544922 124.57085938 190.35544922 125.89648438 190.70263672 C133.35364192 193.60264243 136.40714004 198.03848971 139.76367188 205.08544922 C142.15770909 210.906674 143.60641135 217.08106907 145.09179688 223.18481445 C146.8200658 230.11323347 149.0827655 235.21844038 153.52148438 240.89013672 C155.87121981 245.08609286 156.06640106 248.30922997 155.27148438 253.01513672 C153.9497849 256.89931476 152.16355801 260.00001845 149.45898438 263.07763672 C146.10865321 264.51349293 143.74942672 263.88462231 140.27148438 263.01513672 C138.93558281 262.01857023 137.60238244 261.01837553 136.27148438 260.01513672 C127.34716061 256.0522819 117.55106688 256.32427552 107.97070312 256.01904297 C99.33362621 255.59397217 91.68591256 254.41508772 85.3359375 248.0859375 C84.32761622 246.91239504 83.3543462 245.70733567 82.42773438 244.46826172 C81.31626661 242.86192661 81.31626661 242.86192661 79.27148438 242.01513672 C78.94148437 243.00513672 78.61148438 243.99513672 78.27148438 245.01513672 C72.23616386 249.06269057 64.51399927 252.13897524 57.27148438 251.01513672 C49.93663663 246.84210684 46.19183922 239.68485758 43.27148438 232.01513672 C41.88897616 225.28919183 40.78205322 218.9050358 44.39648438 212.76513672 C51.77019463 202.39264736 63.21095409 198.40882975 75.27148438 196.01513672 C77.27000275 195.6932974 79.27003691 195.38072798 81.27148438 195.07763672 C89.15591966 193.82400115 98.6877634 192.15722979 104.27148438 186.01513672 C106.03752649 182.37072471 106.52068235 179.48544081 106.45898438 175.45263672 C106.45253906 174.52322266 106.44609375 173.59380859 106.43945312 172.63623047 C106.28838944 170.27893433 105.87670174 168.28538102 105.27148438 166.01513672 C96.65235032 163.34813905 88.03101483 161.88673887 79.08398438 160.82763672 C78.36227051 160.74142059 77.64055664 160.65520447 76.89697266 160.56637573 C41.49186841 156.46152672 6.19381128 158.25210902 -28.27856445 167.3984375 C-30.74972176 168.02047471 -33.22611721 168.5358529 -35.72851562 169.01513672 C-34.59973418 180.46576143 -34.59973418 180.46576143 -28.72851562 190.01513672 C-21.56088389 195.44200793 -13.68142664 197.83943873 -5.10351562 200.14013672 C14.9134495 205.60529496 14.9134495 205.60529496 20.14648438 212.01513672 C20.70078125 212.67513672 21.25507812 213.33513672 21.82617188 214.01513672 C26.33947734 220.26057563 26.04325341 226.49241959 25.27148438 234.01513672 C23.11075883 241.55255141 18.90831521 246.04475889 12.27148438 250.01513672 C5.50040325 253.40067728 -2.65591323 250.05925179 -9.29882812 247.89013672 C-14.05148154 246.67761466 -18.0457413 246.07591384 -22.41601562 248.51513672 C-25.35644074 251.69397468 -27.0140883 255.06908054 -28.72851562 259.01513672 C-29.623125 258.94552734 -30.51773438 258.87591797 -31.43945312 258.80419922 C-40.30830908 258.40708627 -45.8797404 259.25867014 -52.72851562 265.01513672 C-55.6943154 267.78206658 -58.50959909 270.66492258 -61.28320312 273.62451172 C-64.33324256 276.60633941 -66.48283281 277.74433611 -70.60351562 278.64013672 C-74.92178325 277.77648319 -76.09255629 275.65425645 -78.47070312 272.09326172 C-82.01963405 266.22981063 -82.74256731 260.57581371 -81.24414062 253.83666992 C-80.57156656 251.66062098 -79.8275218 249.5275885 -79.04101562 247.39013672 C-78.49013004 245.81725659 -77.93935054 244.24433931 -77.38867188 242.67138672 C-76.97125732 241.50349609 -76.97125732 241.50349609 -76.54541016 240.31201172 C-70.91084058 224.94784049 -70.91084058 224.94784049 -68.41601562 208.89013672 C-67.83959055 201.2332903 -64.11338344 198.2026362 -58.54101562 193.39013672 C-57.86683594 192.84099609 -57.19265625 192.29185547 -56.49804688 191.72607422 C-53.94819647 189.26065595 -52.75966756 187.19891022 -52.66601562 183.64013672 C-54.04828046 180.22512948 -56.11342512 178.8189488 -58.94726562 176.55419922 C-63.96037681 172.22269526 -66.332038 166.65832086 -67.29101562 160.26513672 C-67.10813035 154.56341936 -63.68457715 150.82991033 -59.72851562 147.01513672 C-49.57502909 139.33322256 -40.26049971 137.49216366 -27.72851562 138.01513672 C-27.65761719 137.37189453 -27.58671875 136.72865234 -27.51367188 136.06591797 C-26.39985315 131.73809498 -24.29679272 128.1113534 -22.16601562 124.20263672 C-21.25873486 122.50396811 -20.35250189 120.80473949 -19.44726562 119.10498047 C-18.99222656 118.25403809 -18.5371875 117.4030957 -18.06835938 116.52636719 C-16.07300969 112.78654086 -14.10138886 109.03634456 -12.16601562 105.26513672 C-11.83206787 104.63502686 -11.49812012 104.00491699 -11.15405273 103.35571289 C-7.75864554 96.68887056 -7.60084774 90.44160771 -7.66601562 83.07763672 C-7.67052734 82.39378906 -7.67503906 81.70994141 -7.6796875 81.00537109 C-7.69132002 79.34192068 -7.70924868 77.67851622 -7.72851562 76.01513672 C-8.61410156 75.90556641 -9.4996875 75.79599609 -10.41210938 75.68310547 C-17.21352161 74.81258132 -23.97833655 73.84740677 -30.72851562 72.64013672 C-31.42356201 72.51751465 -32.1186084 72.39489258 -32.8347168 72.26855469 C-36.95984513 71.5339113 -41.07216627 70.7508363 -45.18164062 69.93310547 C-66.57279909 65.7818491 -85.90979591 64.86142808 -106.22851562 73.76513672 C-111.1508057 75.91947235 -114.38332862 76.84456229 -119.72851562 76.01513672 C-122.38534752 74.51764965 -124.57504314 73.16860921 -126.72851562 71.01513672 C-127.25647689 67.53680369 -126.81792968 66.15788888 -124.92773438 63.14013672 C-124.10371967 62.08797736 -123.26550422 61.04683856 -122.41601562 60.01513672 C-121.96597168 59.45189697 -121.51592773 58.88865723 -121.05224609 58.30834961 C-119.62441786 56.5325653 -118.17804926 54.77322719 -116.72851562 53.01513672 C-116.27976074 52.46196777 -115.83100586 51.90879883 -115.36865234 51.33886719 C-104.49854227 37.94953836 -92.97365305 26.78069654 -78.72851562 17.01513672 C-77.80425781 16.36802734 -76.88 15.72091797 -75.92773438 15.05419922 C-53.70189044 0.14703227 -25.73542736 -11.6702842 0 0 Z " fill="#FDFDFD" transform="translate(559.728515625,289.98486328125)"/>
<path d="M0 0 C392.7 0 785.4 0 1190 0 C1190 392.7 1190 785.4 1190 1190 C797.3 1190 404.6 1190 0 1190 C0 797.3 0 404.6 0 0 Z M2 2 C2 393.38 2 784.76 2 1188 C393.38 1188 784.76 1188 1188 1188 C1188 796.62 1188 405.24 1188 2 C796.62 2 405.24 2 2 2 Z " fill="#FEFEFE" transform="translate(0,0)"/>
<path d="M0 0 C10.68024814 7.3283574 17.79167851 19.31643883 20.75390625 31.75 C22.47638569 47.61164011 19.15468984 63.03745287 9.1640625 75.77734375 C1.34297398 84.18731423 -8.15005702 88.60558201 -19.49609375 89.125 C-29.97015091 88.87838093 -38.7696747 85.01033758 -46.24609375 77.75 C-55.94106636 67.56538231 -60.67323526 53.95151716 -60.61181641 40.02075195 C-60.30516606 27.72519842 -55.42404921 15.00003093 -46.99609375 5.9375 C-33.44389113 -6.56297958 -16.27010609 -9.05466774 0 0 Z " fill="#FDFDFD" transform="translate(391.24609375,1002.25)"/>
<path d="M0 0 C2.76943287 2.59215766 4.62261855 5.04567104 6.62109375 8.2578125 C12.0899711 16.72375823 18.4423591 24.24402982 25.05859375 31.8203125 C63.58127547 75.97015269 63.58127547 75.97015269 63.09375 95.9375 C62.15581453 105.73839873 58.33569666 115.91911008 50.60546875 122.3515625 C45.62309282 125.80872131 39.95186916 129.5703125 33.74609375 129.5703125 C33.11208004 121.20938255 34.52481524 115.33278388 38.12109375 107.8203125 C44.10701996 95.25597312 44.10701996 95.25597312 44.74609375 81.5703125 C43.64357603 78.6845922 42.30850076 76.25569954 40.74609375 73.5703125 C37.7475904 73.21736537 37.7475904 73.21736537 36.24731445 75.06396484 C35.72741943 75.75441895 35.20752441 76.44487305 34.671875 77.15625 C34.09058838 77.91768311 33.50930176 78.67911621 32.91040039 79.46362305 C32.2993042 80.28258057 31.68820801 81.10153809 31.05859375 81.9453125 C29.79329775 83.60571951 28.527675 85.26587758 27.26171875 86.92578125 C26.65392578 87.72935059 26.04613281 88.53291992 25.41992188 89.36083984 C15.04358419 103.05772667 15.04358419 103.05772667 8.74609375 108.5703125 C8.41609375 108.5703125 8.08609375 108.5703125 7.74609375 108.5703125 C7.40035741 89.82371971 7.40035741 89.82371971 8.74609375 80.5078125 C11.47439451 61.23431641 10.91023396 42.09079791 -0.578125 25.69921875 C-8.39619978 15.76716571 -20.27240331 10.79528031 -32.25390625 7.5703125 C-32.98738281 7.36535156 -33.72085938 7.16039062 -34.4765625 6.94921875 C-51.9094474 2.94324678 -70.0778188 5.79468615 -87.25390625 9.5703125 C-89.5360433 5.51219332 -89.45411217 3.13109498 -88.25390625 -1.4296875 C-82.4868749 -9.50353139 -70.56060083 -12.50864036 -61.25390625 -14.4296875 C-39.16217007 -17.67980918 -17.91194085 -14.10845216 0 0 Z " fill="#FBFBFB" transform="translate(866.25390625,357.4296875)"/>
<path d="M0 0 C1.28488815 -0.00287018 1.28488815 -0.00287018 2.59573364 -0.00579834 C4.39927465 -0.00715298 6.20282565 -0.00350716 8.00634766 0.00488281 C10.74273999 0.01556615 13.47847195 0.00497658 16.21484375 -0.0078125 C17.97656393 -0.00649026 19.7382837 -0.00392654 21.5 0 C22.30654022 -0.00404846 23.11308044 -0.00809692 23.94406128 -0.01226807 C31.30679621 0.04742798 38.60823164 0.79311911 44.7578125 5.140625 C45.83675781 5.87925781 45.83675781 5.87925781 46.9375 6.6328125 C48.96310563 8.33301963 50.38758667 10.09331577 51.8828125 12.265625 C44.75989925 16.06451206 37.03487153 14.39288879 29.5078125 12.765625 C12.76876408 9.24958367 0.65543086 12.82424551 -13.50390625 21.84765625 C-28.53224759 31.7517094 -40.73515721 44.72798975 -44.75390625 62.71484375 C-46.29378337 70.27067306 -46.59830584 77.57293588 -46.5546875 85.265625 C-46.57466797 86.51601563 -46.59464844 87.76640625 -46.61523438 89.0546875 C-46.61056663 98.07277979 -44.9146907 105.7300355 -42.1171875 114.265625 C-41.43183675 116.59407091 -40.77351167 118.9287495 -40.1171875 121.265625 C-41.1171875 122.265625 -41.1171875 122.265625 -44.3046875 122.515625 C-49.67015018 122.16379138 -52.68089809 120.75565312 -56.4140625 116.8828125 C-60.16891674 112.25551921 -62.59878297 106.82221016 -65.2421875 101.515625 C-66.279235 99.43388592 -67.32319392 97.35557135 -68.375 95.28125 C-68.8302002 94.36633789 -69.28540039 93.45142578 -69.75439453 92.50878906 C-71.06522159 89.99470275 -71.06522159 89.99470275 -74.1171875 88.265625 C-78.71670465 93.70291135 -79.87772982 98.41102496 -79.62109375 105.47265625 C-78.71523023 112.29121033 -76.74663416 118.81492562 -74.68969727 125.36547852 C-73.59776055 128.98959085 -72.97962967 132.15438127 -72.9921875 135.953125 C-72.98832031 137.13455078 -72.98832031 137.13455078 -72.984375 138.33984375 C-73.1171875 140.265625 -73.1171875 140.265625 -74.1171875 141.265625 C-80.11665374 142.18458044 -84.40460977 141.24917933 -89.33203125 137.7421875 C-95.53502809 132.61148114 -98.29973166 126.88812616 -99.4375 119.0625 C-100.05561876 106.94737221 -95.39593067 94.46860226 -91.26806641 83.25341797 C-89.454091 78.32149123 -87.97652501 73.38656132 -86.7578125 68.26953125 C-86.1171875 66.265625 -86.1171875 66.265625 -84.1171875 64.265625 C-80.59619872 63.18394192 -77.06771734 62.21629173 -73.50195312 61.296875 C-68.9243937 60.0401341 -65.36300358 58.91420658 -62.1171875 55.265625 C-60.82713129 52.3021134 -60.00881511 49.25965233 -59.1796875 46.140625 C-54.30131214 29.5768751 -44.8061583 17.57646992 -29.84765625 8.7265625 C-19.95275426 3.43229448 -11.25407638 -0.05620816 0 0 Z " fill="#FAFBFB" transform="translate(358.1171875,354.734375)"/>
<path d="M0 0 C37.22547332 0 37.22547332 0 48 10 C56.64925834 19.99509729 59.17946924 31.44896442 59.1875 44.25 C59.19974609 45.26191406 59.21199219 46.27382812 59.22460938 47.31640625 C59.24866718 59.68211574 55.86147252 71.08470008 47.375 80.4375 C34.34195019 92.44491633 16.53097767 90 0 90 C0 60.3 0 30.6 0 0 Z " fill="#FEFEFE" transform="translate(68,999)"/>
<path d="M0 0 C1.16140306 1.04764376 2.30050846 2.1204503 3.41796875 3.21484375 C5.50367273 4.98944483 7.42704709 5.85172044 9.96484375 6.859375 C13.92153693 8.52037589 16.25305933 9.83631853 18.27734375 13.796875 C19.24356412 19.19753835 18.58501704 23.67111028 15.515625 28.23828125 C10.29440439 34.81010151 3.50355164 37.55489394 -4.72265625 38.796875 C-13.79170334 39.47941337 -22.7371768 39.10105316 -31.72265625 37.796875 C-42.08029453 37.11619357 -52.44723847 36.89217061 -61.53515625 42.546875 C-63.72265625 43.796875 -63.72265625 43.796875 -66.16015625 43.609375 C-67.95714378 43.03959847 -69.74012175 42.42460327 -71.51049805 41.77685547 C-74.69084145 40.80658121 -77.36883539 40.46304535 -80.6796875 40.3046875 C-81.79279297 40.23894531 -82.90589844 40.17320312 -84.05273438 40.10546875 C-86.3622631 39.98371008 -88.67217772 39.86905021 -90.98242188 39.76171875 C-97.81398857 39.34386181 -103.86873005 38.58392139 -109.72265625 34.796875 C-112.55031101 31.02666865 -113.35004728 27.3789931 -113.12109375 22.73828125 C-111.81768344 16.38735061 -105.25290765 12.7325659 -100.2421875 9.39453125 C-99.41074219 8.86730469 -98.57929687 8.34007812 -97.72265625 7.796875 C-97.10777344 7.40371094 -96.49289062 7.01054688 -95.859375 6.60546875 C-81.40129889 -1.56927495 -62.70031437 -1.90830125 -46.640625 0.3046875 C-42.07923179 0.877704 -37.62701336 0.98791673 -33.03515625 0.984375 C-32.15956055 0.98501953 -31.28396484 0.98566406 -30.38183594 0.98632812 C-24.26984249 0.9368747 -18.44437713 0.31369602 -12.41796875 -0.734375 C-3.31759296 -2.31704905 -3.31759296 -2.31704905 0 0 Z " fill="#FCFCFC" transform="translate(644.72265625,641.203125)"/>
<path d="M0 0 C3.3 0 6.6 0 10 0 C14.14952032 12.83100522 17.78567515 25.78940871 21.38568115 38.78356934 C23.4361289 46.18147886 25.49215189 53.57783522 27.55075073 60.97348022 C28.36897771 63.91584369 29.18465753 66.85890569 30.00024414 69.80200195 C30.5078581 71.62714848 31.0155842 73.45226381 31.5234375 75.27734375 C31.75855545 76.1282962 31.9936734 76.97924866 32.23591614 77.85598755 C33.35619134 82.02398664 33.35619134 82.02398664 35 86 C39.08832775 69.95895846 43.09069932 53.90921358 46.6875 37.75 C53.26946313 8.1916106 53.26946313 8.1916106 56 0 C58.97 0 61.94 0 65 0 C68.71353313 12.32140025 71.55727327 24.79552275 74.26074219 37.36914062 C76.3548263 47.10131991 78.54068206 56.80775791 80.8125 66.5 C81.10237793 67.73911133 81.39225586 68.97822266 81.69091797 70.25488281 C83.08353156 76.18149175 84.50281995 82.09891961 86 88 C86.16081055 87.36610352 86.32162109 86.73220703 86.48730469 86.07910156 C87.23699314 83.13489 87.99347109 80.19246098 88.75 77.25 C89.12898437 75.75533203 89.12898437 75.75533203 89.515625 74.23046875 C91.10885238 68.05671264 92.96158363 62.03922714 95.01806641 56.00537109 C96.6672873 50.95765624 97.97618922 45.8251532 99.3125 40.6875 C102.37787968 29.08417098 105.76727677 17.6045163 109.35498047 6.15283203 C109.96429512 4.11916943 110.4851015 2.059594 111 0 C114.63 0 118.26 0 122 0 C120.33975677 8.00823205 118.2169841 15.66846798 115.6875 23.4375 C113.28202277 30.83071217 111.05699759 38.235433 109.0625 45.75 C106.62093237 54.93180894 103.87801685 63.99717258 101.046875 73.06567383 C97.68003871 83.90672482 94.62614896 94.82883878 91.62915039 105.77709961 C91.13249667 107.53186567 90.57670346 109.26988961 90 111 C87.03 111 84.06 111 81 111 C76.84003113 94.77155002 73.016528 78.48307992 69.36978149 62.13217163 C67.77262299 54.97145616 66.15478453 47.81544024 64.53659058 40.65945435 C63.78541634 37.33692876 63.0353296 34.01415796 62.28515625 30.69140625 C62.03644775 29.58998291 61.78773926 28.48855957 61.53149414 27.35375977 C61.35610107 26.57701904 61.18070801 25.80027832 61 25 C60.67 25 60.34 25 60 25 C59.8548999 25.69633545 59.7097998 26.3926709 59.56030273 27.11010742 C56.48040062 41.8305278 53.21294547 56.47127051 49.62036133 71.07592773 C47.15922861 81.15377698 44.96173279 91.27251592 42.86523438 101.43164062 C42.63384766 102.54216797 42.40246094 103.65269531 42.1640625 104.796875 C41.86169678 106.27172363 41.86169678 106.27172363 41.55322266 107.77636719 C41 110 41 110 40 111 C38.48071962 111.07179964 36.95832518 111.08392007 35.4375 111.0625 C34.19806641 111.04896484 34.19806641 111.04896484 32.93359375 111.03515625 C31.97646484 111.01775391 31.97646484 111.01775391 31 111 C27.36839888 100.85829366 24.48505481 90.58594139 21.72827148 80.17651367 C19.7512098 72.73236344 17.67818305 65.32523197 15.5 57.9375 C12.7518323 48.61655412 10.09874815 39.27280155 7.49975586 29.90917969 C6.18669638 25.19071189 4.85793844 20.47996317 3.44921875 15.7890625 C3.21348145 15.00394287 2.97774414 14.21882324 2.73486328 13.40991211 C2.30210817 11.9794946 1.86465281 10.55048631 1.42138672 9.12329102 C0.43604692 5.87250827 0 3.44817642 0 0 Z " fill="#060808" transform="translate(544,989)"/>
<path d="M0 0 C1.79244141 0.01740234 1.79244141 0.01740234 3.62109375 0.03515625 C5.41740234 0.04869141 5.41740234 0.04869141 7.25 0.0625 C8.17683594 0.07410156 9.10367188 0.08570313 10.05859375 0.09765625 C10.27362549 0.69787598 10.48865723 1.2980957 10.71020508 1.91650391 C16.29832807 17.50342267 21.96532945 33.06025447 27.67480469 48.60307312 C30.78867808 57.08210866 33.89159393 65.56515597 36.99481201 74.0480957 C38.28491004 77.574652 39.57525831 81.10111667 40.86590576 84.62747192 C41.46286305 86.26002104 42.05895689 87.8928862 42.65411377 89.52609253 C43.88126779 92.89246015 45.11758052 96.25332843 46.38720703 99.60400391 C46.75442871 100.57772949 47.12165039 101.55145508 47.5 102.5546875 C47.96128296 103.75508667 47.96128296 103.75508667 48.43188477 104.97973633 C49.05859375 107.09765625 49.05859375 107.09765625 49.05859375 111.09765625 C45.42859375 111.09765625 41.79859375 111.09765625 38.05859375 111.09765625 C35.06398443 103.41103233 32.13365871 95.70007761 29.24609375 87.97265625 C28.93212646 87.14338623 28.61815918 86.31411621 28.29467773 85.4597168 C27.85877319 84.28662964 27.85877319 84.28662964 27.4140625 83.08984375 C27.15262451 82.3922998 26.89118652 81.69475586 26.62182617 80.97607422 C26.05859375 79.09765625 26.05859375 79.09765625 26.05859375 76.09765625 C10.87859375 76.42765625 -4.30140625 76.75765625 -19.94140625 77.09765625 C-22.25140625 83.69765625 -24.56140625 90.29765625 -26.94140625 97.09765625 C-28.60363713 101.76604935 -30.2659114 106.4340669 -31.94140625 111.09765625 C-35.57140625 111.09765625 -39.20140625 111.09765625 -42.94140625 111.09765625 C-41.36967546 104.13833488 -39.06156256 97.54894492 -36.62890625 90.84765625 C-36.19739258 89.64906982 -35.76587891 88.4504834 -35.32128906 87.21557617 C-34.125325 83.89406875 -32.92439889 80.57437576 -31.72235107 77.25506592 C-30.0600812 72.66293984 -28.40230471 68.06918871 -26.74369812 63.47573853 C-25.35894951 59.64112965 -23.97324175 55.80687604 -22.5847168 51.97363281 C-19.69234607 43.98348181 -16.82735153 35.98478413 -14.02032471 27.96418762 C-12.3895476 23.31736315 -10.68262137 18.70430712 -8.94140625 14.09765625 C-8.27238281 12.32068359 -8.27238281 12.32068359 -7.58984375 10.5078125 C-7.16960938 9.40308594 -6.749375 8.29835938 -6.31640625 7.16015625 C-5.89101563 6.03738281 -5.465625 4.91460938 -5.02734375 3.7578125 C-3.54131373 0.1175735 -3.54131373 0.1175735 0 0 Z " fill="#050707" transform="translate(710.94140625,988.90234375)"/>
<path d="M0 0 C11.20023414 9.26786544 18.59686926 21.67565951 20.6875 36.0625 C20.82085343 37.70622593 20.91965035 39.35283213 21 41 C21.06445312 42.25941406 21.12890625 43.51882813 21.1953125 44.81640625 C21.82136152 62.82623497 16.7007778 76.9012836 5.125 90.9375 C-2.84949257 99.42497163 -15.13133041 105.23911555 -26.77734375 106.23828125 C-39.71470917 106.54212543 -50.03847576 103.3155581 -60 95 C-60.69738281 94.42636719 -61.39476562 93.85273437 -62.11328125 93.26171875 C-72.14951436 84.16090154 -79.17366531 70.0105852 -80.18652344 56.51464844 C-81.01838654 37.65679323 -78.78832594 21.03880904 -65.75 6.5625 C-48.02366064 -12.19899878 -21.10209618 -15.97883683 0 0 Z M-60.58984375 16.85546875 C-68.66216543 29.13165878 -72.48043428 43.4775651 -69.59716797 58.03369141 C-66.07043044 71.8385437 -59.5616565 82.7856738 -47.51171875 90.6171875 C-38.56852543 95.54081181 -28.70253307 96.43076711 -18.875 93.875 C-7.92455392 90.13244248 0.41133763 82.28240984 5.8125 72.125 C11.56301219 59.41947645 13.49643207 45.05893255 9.4375 31.5 C7.17393614 25.69206569 3.81279587 20.89052202 0 16 C-0.598125 15.113125 -1.19625 14.22625 -1.8125 13.3125 C-9.82333547 4.84390251 -18.98636528 0.99443002 -30.5 0.5625 C-42.8028888 0.90906025 -52.92270696 7.39435009 -60.58984375 16.85546875 Z " fill="#040606" transform="translate(401,996)"/>
<path d="M0 0 C2.64961557 2.64961557 2.3840623 4.30577178 2.75 8 C4.35534304 19.12711054 10.44309017 26.93694579 19 34 C25.34503074 38.40983918 31.43769115 41.30505046 38.87890625 43.26953125 C42.17505975 44.40467067 43.86861079 46.30441953 46 49 C47.1446875 50.2375 47.1446875 50.2375 48.3125 51.5 C51.21491476 57.5198232 50.91012453 63.98776087 49.4453125 70.4453125 C47.40031653 75.56754049 43.90685891 77.73408919 39.12109375 80.1875 C29.59086496 82.66846069 20.23859968 80.25536874 10.875 78.0625 C8.45669351 77.50749995 6.03743684 76.95662169 3.6171875 76.41015625 C2.48313477 76.15282715 1.34908203 75.89549805 0.18066406 75.63037109 C-2.64186491 75.07097826 -5.34562943 74.74862114 -8.2109375 74.54296875 C-12 74 -12 74 -13.43408203 72.21899414 C-16.34710655 66.83797199 -17.12580984 61.35236322 -17.1328125 55.2890625 C-17.13410156 54.20882812 -17.13539063 53.12859375 -17.13671875 52.015625 C-17.13285156 50.89671875 -17.12898438 49.7778125 -17.125 48.625 C-17.12886719 47.51382813 -17.13273437 46.40265625 -17.13671875 45.2578125 C-17.13155216 40.91787547 -17.10532012 36.73402498 -16.48828125 32.43359375 C-16.04941273 29.34747029 -15.98210785 26.60202546 -16.03515625 23.49609375 C-16.19615566 7.60519225 -16.19615566 7.60519225 -12.88671875 3.1640625 C-8.68232721 0.61028394 -4.93319457 -0.47821784 0 0 Z " fill="#FBFCFC" transform="translate(434,407)"/>
<path d="M0 0 C50.27314232 0 50.27314232 0 65.203125 13.11328125 C77.92597601 26.47227481 80.79873029 44.14502621 80.37890625 61.84375 C79.58658584 77.01995177 73.38443752 90.60756893 62.33984375 101.02734375 C45.4871649 115.23536181 20.05019178 112 0 112 C0 75.04 0 38.08 0 0 Z M10 11 C10 40.7 10 70.4 10 101 C35.75441985 101.99198211 35.75441985 101.99198211 57.6875 91.0625 C69.36082359 78.4741653 69.71105138 62.84965995 69.17919922 46.68505859 C68.82005623 41.30378531 67.40254181 36.79011452 65 32 C64.36384766 30.6696875 64.36384766 30.6696875 63.71484375 29.3125 C59.68201994 21.76359304 53.98526006 17.65684004 47 13 C33.5999537 10.22482977 33.5999537 10.22482977 10 11 Z " fill="#060808" transform="translate(58,988)"/>
<path d="M0 0 C47.91684783 0 47.91684783 0 57.2109375 8.796875 C65.53207468 19.04386489 66.951421 29.97502339 66.26953125 42.64599609 C65.36411571 50.55361987 60.58594154 57.41291807 54.796875 62.6640625 C50.71418979 65.6994502 47.16305893 67 42 67 C43.93565753 70.43854044 45.87368293 73.87574013 47.8125 77.3125 C48.39475342 78.34528076 48.97700684 79.37806152 49.5769043 80.44213867 C52.45811154 85.54224714 55.35562907 90.63082218 58.3125 95.6875 C58.81934326 96.55463623 59.32618652 97.42177246 59.84838867 98.31518555 C60.81088935 99.95690965 61.77709446 101.59646857 62.74731445 103.23364258 C63.39253052 104.33421997 63.39253052 104.33421997 64.05078125 105.45703125 C64.61792847 106.4157312 64.61792847 106.4157312 65.1965332 107.39379883 C66 109 66 109 66 111 C62.04 111 58.08 111 54 111 C53.58862793 110.27748047 53.17725586 109.55496094 52.75341797 108.81054688 C51.15631998 106.00688053 49.55831627 103.20373323 47.95947266 100.40106201 C47.23794126 99.13622983 46.51658637 97.87129694 45.79541016 96.60626221 C41.84060041 89.67137291 37.86871495 82.74794672 33.8203125 75.8671875 C32.85375732 74.22266602 32.85375732 74.22266602 31.86767578 72.54492188 C30.63810486 70.4580266 29.40480012 68.37332602 28.16748047 66.29101562 C27.34207764 64.89012695 27.34207764 64.89012695 26.5 63.4609375 C26.0153125 62.64415527 25.530625 61.82737305 25.03125 60.98583984 C24 59 24 59 24 57 C25.37671875 56.94392578 25.37671875 56.94392578 26.78125 56.88671875 C39.78116789 56.31920888 39.78116789 56.31920888 49.9375 49.0625 C55.17364042 42.87216542 54.52446067 35.80016044 54 28 C52.70586169 22.27318322 48.91169326 16.97243737 44.0625 13.6875 C34.00474139 10.3349138 20.11422645 11.36456906 11 11 C11 44 11 77 11 111 C7.37 111 3.74 111 0 111 C0 74.37 0 37.74 0 0 Z " fill="#0A0D0D" transform="translate(1075,989)"/>
<path d="M0 0 C43.6557377 0 43.6557377 0 53 8.90625 C61.15037589 17.4162013 63.58162977 25.17825482 63.40283203 36.7421875 C63.02222671 46.40999274 60.5037139 54.62134701 54 62 C49.99854903 65.21685274 45.74564091 67.12195447 41 69 C47.17749881 80.96150598 53.36730728 92.90136533 60.05224609 104.58935547 C63 109.79206197 63 109.79206197 63 112 C58.97924178 113.16953614 55.99803951 113.34289194 52 112 C48.32278728 107.71671735 45.95555025 102.8939795 43.4453125 97.86035156 C41.24400599 93.503847 38.8910295 89.2317442 36.55786133 84.94482422 C34.20335911 80.60831119 31.88357702 76.25368426 29.56396484 71.8984375 C27.71687784 68.4753003 25.80331411 65.09314837 23.85864258 61.72460938 C23 60 23 60 23 58 C24.37671875 57.96132812 24.37671875 57.96132812 25.78125 57.921875 C34.19482158 57.53301245 40.54947143 57.18196219 46.8125 51.296875 C51.63860404 45.44298954 51.74727556 39.12889819 51.50390625 31.8671875 C50.78031712 26.31406163 49.25119364 21.84631805 45 18 C45 17.34 45 16.68 45 16 C44.05125 15.690625 43.1025 15.38125 42.125 15.0625 C39 14 39 14 37 13 C28.09 12.67 19.18 12.34 10 12 C10 45 10 78 10 112 C6.7 112 3.4 112 0 112 C0 75.04 0 38.08 0 0 Z " fill="#060808" transform="translate(434,988)"/>
<path d="M0 0 C2.62404357 3.52605854 2.74839798 5.67327072 2.56640625 10.01171875 C1.52526946 16.76833751 -0.50119805 23.26732497 -2.4921875 29.796875 C-2.87890625 31.06748779 -2.87890625 31.06748779 -3.2734375 32.36376953 C-3.87487618 34.2873224 -4.52148127 36.19668752 -5.1796875 38.1015625 C-6.55583775 44.11730502 -6.28455875 50.26365011 -6.21484375 56.4140625 C-6.33894894 63.7458153 -6.33894894 63.7458153 -8.22436523 66.43164062 C-10.98231868 68.81074228 -14.2184784 70.52571271 -17.5625 71.9375 C-18.28566406 72.25203125 -19.00882813 72.5665625 -19.75390625 72.890625 C-29.96441497 76.51313592 -43.44712882 76.52578666 -54 74.6875 C-58.71425679 72.38979501 -60.83377358 68.30362535 -63 63.6875 C-63.54785156 62.97851562 -64.09570312 62.26953125 -64.66015625 61.5390625 C-66.81355809 58.56322439 -66.42998404 56.25022489 -66 52.6875 C-60.73836431 42.16422862 -49.22784137 36.59680342 -39.48828125 30.9375 C-26.85651526 23.57955402 -26.85651526 23.57955402 -19 11.6875 C-18.57218569 9.05723424 -18.31838205 6.48474231 -18.17578125 3.82421875 C-18 1.6875 -18 1.6875 -17 -0.3125 C-11.32711088 -1.69613149 -5.43582787 -2.37817469 0 0 Z " fill="#FBFCFC" transform="translate(775,413.3125)"/>
<path d="M0 0 C6.88484424 5.51320216 11.78305188 11.85245479 16.01953125 19.6171875 C16.01953125 20.2771875 16.01953125 20.9371875 16.01953125 21.6171875 C11.80177598 22.41215708 8.22021802 22.58807794 4.01953125 21.6171875 C1.33952799 19.30609157 -0.74615963 16.98713229 -2.96289062 14.25927734 C-6.95361884 9.39214825 -11.0326274 6.77826897 -16.98046875 4.6171875 C-17.92664063 4.25625 -18.8728125 3.8953125 -19.84765625 3.5234375 C-27.75289931 1.23663402 -36.64242894 1.4766747 -43.96875 5.36328125 C-55.27109134 12.40804158 -63.9626575 21.4818562 -67.56152344 34.54248047 C-70.35754141 48.38896109 -68.6755259 63.82294087 -61.55859375 76.0625 C-60.14421738 78.06239777 -58.65061169 79.82774864 -56.98046875 81.6171875 C-56.45710938 82.22949219 -55.93375 82.84179688 -55.39453125 83.47265625 C-49.97941846 89.43436493 -42.20546195 94.19278725 -34.046875 94.85546875 C-21.20265651 95.12753135 -12.40641759 92.85133426 -3.00390625 83.87890625 C-1.26412594 81.93424833 -0.2174557 80.37224446 0.89453125 78.0546875 C3.01953125 75.6171875 3.01953125 75.6171875 5.91796875 75.25390625 C8.976207 75.24321311 11.97311791 75.35852976 15.01953125 75.6171875 C13.96875138 83.47038444 7.64659755 89.41215117 2.01953125 94.6171875 C1.55546875 95.09800781 1.09140625 95.57882812 0.61328125 96.07421875 C-7.90078027 104.3169989 -19.99895223 106.96528435 -31.4765625 106.82421875 C-44.55462866 106.0514902 -56.2445537 100.47244199 -65.171875 90.83984375 C-77.43122401 75.77381873 -81.19368042 58.68735851 -79.98046875 39.6171875 C-77.56649787 23.66234875 -69.52541791 9.06116322 -56.5703125 -0.66015625 C-39.66336307 -11.90595519 -16.66566436 -12.07134608 0 0 Z " fill="#050707" transform="translate(295.98046875,995.3828125)"/>
<path d="M0 0 C2.97 0 5.94 0 9 0 C9 16.5 9 33 9 50 C25.17 50 41.34 50 58 50 C58 33.5 58 17 58 0 C61.63 0 65.26 0 69 0 C69 36.63 69 73.26 69 111 C65.37 111 61.74 111 58 111 C58 94.17 58 77.34 58 60 C41.83 60 25.66 60 9 60 C9 76.5 9 93 9 110 C6.03 110 3.06 110 0 110 C0 73.7 0 37.4 0 0 Z " fill="#040505" transform="translate(900,989)"/>
<path d="M0 0 C17.16 0 34.32 0 52 0 C52 3.96 52 7.92 52 12 C38.47 12 24.94 12 11 12 C11 24.54 11 37.08 11 50 C24.53 50 38.06 50 52 50 C52 53.63 52 57.26 52 61 C38.47 61 24.94 61 11 61 C11 73.87 11 86.74 11 100 C24.53 100 38.06 100 52 100 C52 103.96 52 107.92 52 112 C34.84 112 17.68 112 0 112 C0 75.04 0 38.08 0 0 Z " fill="#080A0A" transform="translate(151,988)"/>
<path d="M0 0 C17.49 0 34.98 0 53 0 C53 3.63 53 7.26 53 11 C39.14 11 25.28 11 11 11 C11 23.54 11 36.08 11 49 C24.86 49 38.72 49 53 49 C53 52.96 53 56.92 53 61 C39.14 61 25.28 61 11 61 C11 73.87 11 86.74 11 100 C24.86 100 38.72 100 53 100 C53 103.63 53 107.26 53 111 C35.51 111 18.02 111 0 111 C0 74.37 0 37.74 0 0 Z " fill="#080A0A" transform="translate(996,989)"/>
<path d="M0 0 C3.63 0 7.26 0 11 0 C11 33 11 66 11 100 C22.88 100 34.76 100 47 100 C47 103.63 47 107.26 47 111 C31.49 111 15.98 111 0 111 C0 74.37 0 37.74 0 0 Z " fill="#090C0C" transform="translate(775,989)"/>
<path d="M0 0 C10.10939029 7.91307569 17.66867169 24.15708521 19.24389648 36.78076172 C19.80594121 43.29445864 19.2773365 47.96666835 16.24389648 53.78076172 C12.88257038 49.8617268 10.52742718 45.8032116 8.11889648 41.28076172 C-0.99106994 24.67486691 -13.58451143 8.63610194 -31.74145508 1.59716797 C-37.76841578 -0.03501187 -43.98860559 0.17366721 -50.19360352 0.15576172 C-52.88025326 0.13419494 -55.56569602 0.09686326 -58.25219727 0.05419922 C-59.42967529 0.0482373 -60.60715332 0.04227539 -61.8203125 0.03613281 C-64.75610352 -0.21923828 -64.75610352 -0.21923828 -67.75610352 -2.21923828 C-67.63110352 -4.46923828 -67.63110352 -4.46923828 -66.75610352 -7.21923828 C-48.36019729 -23.67873333 -17.3022293 -12.0126975 0 0 Z " fill="#F8F9F9" transform="translate(498.756103515625,208.21923828125)"/>
<path d="M0 0 C9.82180908 2.60846265 17.07613486 11.01103139 22.4375 19.3125 C27.46689981 28.13232431 32.03424927 37.65750734 31 48 C28.69921875 48.23828125 28.69921875 48.23828125 26 48 C24.26953125 46.35546875 24.26953125 46.35546875 22.8125 44.1875 C22.32394531 43.47980469 21.83539062 42.77210938 21.33203125 42.04296875 C20.89246094 41.36878906 20.45289063 40.69460938 20 40 C18.33045181 36.77595022 18.33045181 36.77595022 15.375 36.3125 C14.59125 36.209375 13.8075 36.10625 13 36 C12.87882813 37.08796875 12.75765625 38.1759375 12.6328125 39.296875 C12.19929535 43.13628519 11.74152137 46.97232529 11.26904297 50.80712891 C11.03840212 52.68699832 10.81709523 54.56800883 10.59765625 56.44921875 C9.58463077 63.82983299 7.76846326 71.61136209 2.0234375 76.77734375 C0 78 0 78 -3 78 C-3.33 77.01 -3.66 76.02 -4 75 C-3.01 74.01 -3.01 74.01 -2 73 C-1.41597867 70.58582128 -1.41597867 70.58582128 -2 68 C-2.82105225 67.46205811 -3.64210449 66.92411621 -4.48803711 66.36987305 C-7 64 -7 64 -7.63110352 60.14379883 C-7.65735843 58.58176343 -7.65476205 57.01907331 -7.62890625 55.45703125 C-7.63131821 54.61516769 -7.63373016 53.77330414 -7.63621521 52.90592957 C-7.63523576 51.11798412 -7.62181869 49.33000872 -7.59692383 47.54223633 C-7.56317767 44.86623757 -7.57611544 42.19365301 -7.59570312 39.51757812 C-7.58454272 25.58146574 -5.77531307 12.78457913 0 0 Z " fill="#F9FAFA" transform="translate(681,732)"/>
<path d="M0 0 C17.16 0 34.32 0 52 0 C52 3.63 52 7.26 52 11 C45.07 11 38.14 11 31 11 C31 44 31 77 31 111 C27.7 111 24.4 111 21 111 C21 78 21 45 21 11 C14.07 11 7.14 11 0 11 C0 7.37 0 3.74 0 0 Z " fill="#060808" transform="translate(829,989)"/>
<path d="M0 0 C5.63137336 4.20805921 5.63137336 4.20805921 7.05078125 7.046875 C5.88289062 6.93859375 5.88289062 6.93859375 4.69140625 6.828125 C-24.94975389 3.91845517 -24.94975389 3.91845517 -51.69921875 14.4375 C-56.30834209 18.67624735 -59.52405089 23.74114227 -62.89453125 28.98046875 C-64.87841413 31.94120651 -66.99723905 34.67214965 -69.26171875 37.421875 C-74.47826327 43.85561324 -76.42105669 48.85125687 -76.94921875 57.046875 C-80.74990235 56.5039202 -82.57578581 55.03047153 -84.94921875 52.046875 C-87.98274649 40.86190461 -81.28779421 27.28641138 -76.1015625 17.59375 C-68.20751594 4.89387729 -57.60788786 -4.75910088 -42.84375 -8.484375 C-26.84968177 -11.07450751 -13.5076535 -8.9454659 0 0 Z " fill="#FAFBFB" transform="translate(745.94921875,198.953125)"/>
<path d="M0 0 C0.66 0.33 1.32 0.66 2 1 C2.21643677 6.43496775 2.0031806 11.51999372 1 16.875 C-0.50507509 25.36013346 -1.59081163 33.21323699 2.84375 40.89453125 C8.07560182 50.42145062 9.90547613 60.88081683 7.08203125 71.4296875 C4.86994693 77.62925066 2.15903795 84.63263028 -3 89 C-4.32 89 -5.64 89 -7 89 C-16.13591332 77.28729061 -18.97526426 61.49574102 -20 47 C-20.12375 46.09378906 -20.2475 45.18757812 -20.375 44.25390625 C-21.04074402 36.25457575 -18.9103383 30.10909374 -15.9375 22.75 C-15.5677002 21.82735352 -15.19790039 20.90470703 -14.81689453 19.95410156 C-11.44062605 12.06906363 -7.12299905 4.98444305 0 0 Z " fill="#F9FAFA" transform="translate(875,514)"/>
<path d="M0 0 C5.27862644 0.13196566 8.27549418 2.1234451 11.9921875 5.62109375 C17.13184596 11.71068909 20.11669937 19.26316626 22.640625 26.74609375 C23.19770807 28.39329973 23.75500177 30.04043449 24.3125 31.6875 C24.58852051 32.51386963 24.86454102 33.34023926 25.14892578 34.19165039 C27.05453877 39.49406375 29.07646952 42.45298376 33.4375 46.1875 C38.15959463 50.74428538 38.67340157 54.52273058 38.88305664 60.82739258 C38.85800865 70.88529735 38.46890997 80.47958181 31.875 88.625 C30 90 30 90 28 90 C23.48396743 79.79088381 20.89088904 69.11885236 18.5 58.25 C15.71201047 46.21296585 12.18825456 37.59086466 2.1875 29.8125 C-1.58897798 26.68341824 -2.86801906 23.19947384 -3.3984375 18.37890625 C-3.32040341 5.67235583 -3.32040341 5.67235583 0 0 Z " fill="#F9FAFA" transform="translate(362,578)"/>
<path d="M0 0 C2.5433381 6.79071273 2.30633414 13.74841156 2.26074219 20.92651367 C2.25004273 22.92950063 2.26169555 24.93256575 2.2734375 26.93554688 C2.25950323 33.89919763 2.14091412 40.34015314 0 47 C-1.69885351 48.56017159 -3.35500381 49.70138315 -5.33984375 50.87109375 C-7.28184412 52.0034886 -7.28184412 52.0034886 -8.5 54.8125 C-8.995 55.534375 -9.49 56.25625 -10 57 C-15.28925596 57.45964567 -19.87682496 56.48445933 -24.875 54.875 C-25.92554565 54.53940063 -25.92554565 54.53940063 -26.99731445 54.19702148 C-35.3908618 51.37519544 -41.8318725 47.2676793 -47 40 C-48.44341773 35.66974681 -48.53977239 31.52521512 -48 27 C-46.25 24.3125 -46.25 24.3125 -44 23 C-37.57680831 23.7533373 -32.73759413 29.96167764 -28.9375 34.75 C-28.53402344 35.30171875 -28.13054688 35.8534375 -27.71484375 36.421875 C-25.13558108 38.7955017 -22.25549567 39.72694398 -19 41 C-16.25313589 31.39236366 -14.53488677 22.43124377 -14.2734375 12.42578125 C-14.00953765 9.11949317 -13.54833852 6.91421291 -12 4 C-4.72258065 -1.57419355 -4.72258065 -1.57419355 0 0 Z " fill="#FAFBFB" transform="translate(597,773)"/>
<path d="M0 0 C7.1410461 1.64793372 12.24570014 6.38694629 17.4375 11.3125 C24.86179575 24.08228868 21.53099591 42.90611667 18.07128906 56.39648438 C17.39514834 58.93511147 16.69870554 61.4675059 16 64 C15.58994766 65.55272729 15.18227529 67.10608566 14.77734375 68.66015625 C13.87430669 72.11313041 12.94625931 75.55857647 12 79 C10.68 79 9.36 79 8 79 C-1.72387795 67.61594777 -2.33196957 53.25748653 -2.20581055 38.89501953 C-2.18764621 36.76712851 -2.18530121 34.63967913 -2.18554688 32.51171875 C-2.12733993 9.49103728 -2.12733993 9.49103728 0 0 Z " fill="#FAFBFB" transform="translate(313,527)"/>
<path d="M0 0 C0.02578125 1.10859375 0.0515625 2.2171875 0.078125 3.359375 C0.13441656 4.82295547 0.19176367 6.28649562 0.25 7.75 C0.26417969 8.47960937 0.27835937 9.20921875 0.29296875 9.9609375 C0.45416565 13.5072692 0.6912756 15.60523766 2.90625 18.4375 C4.87725809 19.90840156 6.7420545 21.03230907 9 22 C8.70867694 25.5776516 8.45124496 27.50195273 6.00390625 30.203125 C5.19824219 30.87859375 4.39257812 31.5540625 3.5625 32.25 C-0.53704437 36.1426273 -1.92911367 38.59104154 -2.62890625 44.12890625 C-3.77161996 52.96990177 -5.81962701 65.04406956 -13 71 C-16.69921875 71.7265625 -16.69921875 71.7265625 -20 72 C-25.41431187 57.07196871 -28.39111353 40.77413396 -22.25390625 25.52734375 C-19.00316237 18.97522135 -8.16816486 0 0 0 Z " fill="#F9FAFA" transform="translate(457,614)"/>
<path d="M0 0 C2 2 2 2 2.3125 5.0625 C1.93743811 9.78827979 1.5830025 13.93330857 -1 18 C-3.43485839 19.59364864 -5.87956719 20.68944405 -8.5546875 21.828125 C-13.03027238 23.97297398 -15.22771488 27.11551553 -17.109375 31.70703125 C-18.1196801 35.44250143 -18.30136747 38.91257473 -18.25 42.75 C-18.24613281 43.45954834 -18.24226562 44.16909668 -18.23828125 44.90014648 C-18.17530962 48.73835489 -17.87865074 52.32823437 -17 56.0625 C-14.91319213 65.01460334 -14.43904274 74.92426732 -18.85546875 83.1953125 C-22.94876487 89.64958829 -22.94876487 89.64958829 -27 91 C-27.04487549 90.44876465 -27.08975098 89.8975293 -27.13598633 89.32958984 C-28.0133171 78.72951119 -29.06115542 68.20968714 -30.625 57.6875 C-32.6951507 43.24746543 -34.99499443 25.46569967 -26.5 12.625 C-20.18372242 5.17179245 -9.95581037 -0.90507367 0 0 Z " fill="#F7F9F9" transform="translate(935,501)"/>
<path d="M0 0 C4.49873994 0.49542074 6.56992233 2.03433631 9.8125 5.125 C12.94098519 8.06698831 16.07952329 10.93408301 19.375 13.6875 C25.2799459 18.85432767 28.56062107 24.53979292 29.3359375 32.41015625 C29.47417023 45.3349169 26.98641744 55.6975215 19 66 C14.82730799 62.25267951 11.87795475 57.73514365 8.75 53.125 C8.17733398 52.28308105 7.60466797 51.44116211 7.01464844 50.57373047 C-5.97907693 31.28079345 -5.97907693 31.28079345 -7 24 C-6.36191406 23.80664062 -5.72382812 23.61328125 -5.06640625 23.4140625 C-3.82697266 23.02347656 -3.82697266 23.02347656 -2.5625 22.625 C-1.73878906 22.36976563 -0.91507813 22.11453125 -0.06640625 21.8515625 C2.17798016 21.19117773 2.17798016 21.19117773 3 19 C2.87702419 13.65528189 2.16365681 8.90428878 0 4 C0 2.68 0 1.36 0 0 Z " fill="#FAFBFB" transform="translate(738,606)"/>
<path d="M0 0 C4.7257339 15.50774815 6.90075489 30.85349033 8 47 C8.07089844 48.01852051 8.14179688 49.03704102 8.21484375 50.08642578 C8.40381608 53.18277601 8.52491524 56.27461299 8.625 59.375 C8.68445801 60.33124268 8.74391602 61.28748535 8.80517578 62.27270508 C8.87331301 66.31324245 8.81184931 68.932124 6.31542969 72.21582031 C2.68226952 75.57923309 1.09399699 77 -4 77 C-4.08636719 76.37738281 -4.17273438 75.75476563 -4.26171875 75.11328125 C-5.30717182 68.23631013 -6.7556826 61.512206 -8.375 54.75 C-8.59140137 53.84354736 -8.80780273 52.93709473 -9.03076172 52.00317383 C-10.03676797 47.83453076 -11.07258825 43.68039448 -12.21484375 39.546875 C-17.8104057 19.13697213 -17.8104057 19.13697213 -13 10.625 C-10.16637752 6.80894681 -5.04586206 0 0 0 Z " fill="#FAFBFB" transform="translate(423,670)"/>
<path d="M0 0 C1.03125 0.804375 2.0625 1.60875 3.125 2.4375 C28.11125991 21.00123535 52.78723802 23.46255431 83 24 C82.44124191 30.44485353 82.44124191 30.44485353 80.44140625 32.9609375 C79.82136719 33.42757812 79.20132813 33.89421875 78.5625 34.375 C77.94503906 34.85710937 77.32757812 35.33921875 76.69140625 35.8359375 C72.81878906 38.50115672 69.29125408 38.06929307 64.75 38 C47.00384584 37.01586202 47.00384584 37.01586202 31.6875 44.1875 C31.130625 44.785625 30.57375 45.38375 30 46 C29.34 46 28.68 46 28 46 C27.63261719 44.94425781 27.63261719 44.94425781 27.2578125 43.8671875 C24.14217213 35.63759948 19.7523673 28.98714096 14.51660156 22.02441406 C11.59746237 18.12784255 8.73878573 14.1873133 5.875 10.25 C5.29427734 9.46286621 4.71355469 8.67573242 4.11523438 7.86474609 C3.57962891 7.13078613 3.04402344 6.39682617 2.4921875 5.640625 C2.01120605 4.98610352 1.53022461 4.33158203 1.03466797 3.65722656 C0 2 0 2 0 0 Z " fill="#040505" transform="translate(539,299)"/>
<path d="M0 0 C7.03175995 2.25064981 11.87416405 6.99017264 16 13 C20.34012327 22.13259742 23.0174713 29.88390037 19.5625 39.625 C16.97834354 45.5528141 13.51126319 50.98502064 10.12890625 56.48046875 C7.84132822 60.21535105 5.86104943 64.03515556 4 68 C3.34 68 2.68 68 2 68 C1.19905541 63.04410511 0.84304228 58.2178146 0.7890625 53.1953125 C0.76099631 51.70962435 0.73233186 50.22394741 0.703125 48.73828125 C0.66197582 46.43245744 0.6250211 44.12684347 0.59863281 41.82080078 C0.61688526 26.2064012 0.61688526 26.2064012 -7 13.0625 C-7.680625 12.33160156 -8.36125 11.60070312 -9.0625 10.84765625 C-11.06361194 8.83279739 -11.06361194 8.83279739 -14 7 C-13.6875 4.625 -13.6875 4.625 -13 2 C-8.71575363 -0.85616425 -5.02846541 -0.60431112 0 0 Z " fill="#F8FAFA" transform="translate(839,401)"/>
<path d="M0 0 C2.84280583 2.42624425 3.81030003 4.6880214 4.98046875 8.20703125 C5.33633057 9.25882568 5.69219238 10.31062012 6.05883789 11.39428711 C6.61752563 13.08630249 6.61752563 13.08630249 7.1875 14.8125 C7.98008876 17.16462997 8.77439192 19.51618287 9.5703125 21.8671875 C9.9715332 23.05538086 10.37275391 24.24357422 10.78613281 25.46777344 C12.94951052 31.76297629 15.27148055 38.0004873 17.61206055 44.23168945 C17.92699463 45.08206787 18.24192871 45.93244629 18.56640625 46.80859375 C18.84427979 47.54907959 19.12215332 48.28956543 19.40844727 49.05249023 C20 51 20 51 20 54 C7.46 54 -5.08 54 -18 54 C-17.29955206 50.4977603 -16.57115827 47.48410929 -15.43359375 44.1496582 C-15.11656494 43.2155159 -14.79953613 42.2813736 -14.47290039 41.31892395 C-14.13121826 40.32293686 -13.78953613 39.32694977 -13.4375 38.30078125 C-13.0861499 37.26938522 -12.7347998 36.2379892 -12.37280273 35.17533875 C-11.63120596 33.00041847 -10.88808854 30.82601619 -10.14355469 28.65209961 C-9.00102248 25.31548602 -7.86340568 21.97722756 -6.7265625 18.63867188 C-6.00549601 16.52594346 -5.28415144 14.41330993 -4.5625 12.30078125 C-4.22081787 11.29872147 -3.87913574 10.29666168 -3.52709961 9.26423645 C-3.2100708 8.33955063 -2.89304199 7.41486481 -2.56640625 6.4621582 C-2.28740479 5.6467305 -2.00840332 4.8313028 -1.72094727 3.99116516 C-1 2 -1 2 0 0 Z " fill="#F8F9F9" transform="translate(713,1001)"/>
<path d="M0 0 C2.125 0.9375 2.125 0.9375 4 2 C4.74150677 16.33579752 3.04540089 29.75409975 -5 42 C-5.54914063 42.92683594 -6.09828125 43.85367188 -6.6640625 44.80859375 C-9.86886411 50.12404664 -12.66119383 54.705843 -18 58 C-21.375 58.3125 -21.375 58.3125 -24 58 C-27.75904034 46.72287898 -24.92896552 34.32970122 -19.97998047 23.92871094 C-15.29029079 14.69887824 -9.58735296 4.79367648 0 0 Z " fill="#FAFBFB" transform="translate(507,719)"/>
<path d="M0 0 C7.35617085 2.40978011 11.10020291 10.20020285 14.9375 16.5625 C17.46829011 21.12322806 17.46829011 21.12322806 20.625 25.1875 C20.73868161 27.54500811 20.78919033 29.87196379 20.79296875 32.23046875 C20.79629715 32.9505159 20.79962555 33.67056305 20.80305481 34.41242981 C20.80813463 35.94836793 20.81046281 37.48431716 20.81030273 39.02026367 C20.812449 41.32034971 20.83047792 43.6199235 20.84960938 45.91992188 C20.88390824 55.20511371 20.24633502 64.02075656 18.625 73.1875 C13.13057441 71.24558409 10.18685765 68.22683636 7.49975586 62.99780273 C6.35968626 59.33513426 6.32734814 55.83317675 6.31640625 52.03515625 C6.29125023 50.43814733 6.26585215 48.84114221 6.24023438 47.24414062 C6.21150727 44.74488275 6.18746764 42.24569063 6.16870117 39.74633789 C6.14696713 37.32143949 6.10753101 34.89729223 6.06640625 32.47265625 C6.06629044 31.73185318 6.06617462 30.99105011 6.0660553 30.22779846 C5.97567166 25.45643655 4.99115054 22.30295349 2.625 18.1875 C2.295 17.1975 1.965 16.2075 1.625 15.1875 C-0.09019747 14.16098627 -0.09019747 14.16098627 -2.375 13.1875 C-4.72455148 11.88163341 -7.04652857 10.5308489 -9.375 9.1875 C-7.61055279 3.89415838 -5.94978525 0.33054363 0 0 Z " fill="#F9FAFA" transform="translate(269.375,524.8125)"/>
<path d="M0 0 C4.84978434 2.02396929 9.43275243 4.39317192 14 7 C15.05445313 7.58652344 16.10890625 8.17304687 17.1953125 8.77734375 C20.61075694 11.48401211 22.09538019 14.39345919 23.75 18.3125 C24.04003906 18.95123047 24.33007812 19.58996094 24.62890625 20.24804688 C28.02030397 27.89030611 29.28961573 34.61174265 29.125 42.9375 C29.11597656 43.81212891 29.10695313 44.68675781 29.09765625 45.58789062 C29.0742957 47.72538064 29.03843247 49.86272786 29 52 C25.10233125 50.20873315 22.63137045 47.73223621 19.8125 44.5625 C19.32910156 44.02681396 18.84570312 43.49112793 18.34765625 42.93920898 C14.54067908 38.6870409 10.90598554 34.30672981 7.32421875 29.86328125 C4.69423774 26.62332145 2.01040407 23.43338107 -0.6875 20.25 C-1.15317383 19.69715332 -1.61884766 19.14430664 -2.09863281 18.57470703 C-4.04932208 16.26497382 -6.0154646 13.98324912 -8.06640625 11.76171875 C-9.75 9.9375 -9.75 9.9375 -12 7 C-11.67588479 4.70526431 -11.13929542 3.22942775 -9.9375 1.25 C-6.61154993 -0.89577424 -3.72999513 -0.80130001 0 0 Z " fill="#F9FAFA" transform="translate(362,670)"/>
<path d="M0 0 C2.1796875 2.02734375 2.1796875 2.02734375 4 4 C3.40832031 4.4125 2.81664062 4.825 2.20703125 5.25 C-8.29987073 12.92877991 -10.95099979 20.26784269 -13 33 C-13.4744288 39.13217533 -13.48216496 45.26066092 -13.52734375 51.40820312 C-13.66582737 59.0533134 -14.56306211 65.73855853 -17 73 C-22.06131598 70.64368797 -24.63434366 67.44454321 -26.56640625 62.21875 C-30.27276573 50.60283424 -31.00617234 32.48027239 -25.71484375 21.24609375 C-23.20555131 16.83638768 -20.27340781 12.86649329 -17 9 C-16.5460083 8.43007324 -16.0920166 7.86014648 -15.62426758 7.27294922 C-11.36874345 1.9712721 -7.01844597 -1.06802439 0 0 Z " fill="#F9FBFB" transform="translate(601,182)"/>
<path d="M0 0 C0.94101562 -0.01675781 1.88203125 -0.03351562 2.8515625 -0.05078125 C5.375 0.3125 5.375 0.3125 7.15625 1.55078125 C9.19674939 4.50034928 9.2723793 6.9608434 9.1796875 10.48828125 C7.2510359 17.25728663 0.24129462 21.89676006 -4.9609375 26.28125 C-11.35535509 31.67118054 -15.37629076 37.13537549 -17.625 45.3125 C-24.62636939 36.31073935 -25.6137596 28.54946201 -24.625 17.3125 C-22.6995206 10.64376647 -18.68400233 7.07431306 -12.90625 3.50390625 C-8.49408312 1.19960677 -5.01592117 0.02072695 0 0 Z " fill="#F9FBFB" transform="translate(440.625,592.6875)"/>
<path d="M0 0 C2.93782921 2.43066712 3.14758313 2.94799878 3.8125 6.9375 C3.1875 10.1875 3.1875 10.1875 1.1875 12.1875 C-0.9140625 12.453125 -0.9140625 12.453125 -3.4375 12.4375 C-4.25476563 12.44265625 -5.07203125 12.4478125 -5.9140625 12.453125 C-8.8125 12.1875 -8.8125 12.1875 -12.296875 11.16796875 C-19.35037145 9.30023083 -26.85341734 10.14809207 -34.078125 10.35351562 C-45.14082192 10.53135277 -45.14082192 10.53135277 -49.8125 7.1875 C-51.25 5.3125 -51.25 5.3125 -51.8125 3.1875 C-51.51698006 1.51371481 -51.18729132 -0.15466395 -50.8125 -1.8125 C-47.37980144 -2.66647291 -43.9407646 -3.49168575 -40.5 -4.3125 C-39.54287109 -4.55097656 -38.58574219 -4.78945312 -37.59960938 -5.03515625 C-24.40808111 -8.14427066 -11.65601895 -7.68144005 0 0 Z " fill="#F8F9F9" transform="translate(818.8125,243.8125)"/>
<path d="M0 0 C5.08968025 5.37244027 5.2788245 8.99297284 5.21875 16.171875 C4.99500534 22.53181709 4.38372106 28.85739579 3.75 35.1875 C3.64075195 36.39398193 3.53150391 37.60046387 3.41894531 38.84350586 C3.29616211 39.98182861 3.17337891 41.12015137 3.046875 42.29296875 C2.94213867 43.3193042 2.83740234 44.34563965 2.72949219 45.40307617 C1.83814862 48.57617576 0.71262911 49.25758614 -2 51 C-3.10805199 53.2447661 -3.10805199 53.2447661 -3.75 55.6875 C-3.99234375 56.49574219 -4.2346875 57.30398437 -4.484375 58.13671875 C-4.65453125 58.75160156 -4.8246875 59.36648437 -5 60 C-7.475 60.495 -7.475 60.495 -10 61 C-15.81785069 50.81876129 -13.08637902 39.5089118 -10.43457031 28.7734375 C-8.34026905 19.92662421 -7.94127363 10.9211476 -10 2 C-6.54512804 0.42062996 -3.79976177 -0.68200852 0 0 Z " fill="#F5F7F7" transform="translate(625,193)"/>
<path d="M0 0 C1.32 0.66 2.64 1.32 4 2 C4.92160263 17.17230994 4.92160263 17.17230994 2.83984375 21.30078125 C1.3125 22.875 1.3125 22.875 -0.3515625 24.359375 C-5.96219274 29.94341458 -8.20673757 39.98698912 -10.88671875 47.25 C-12 50 -12 50 -14 53 C-15.859375 52.87890625 -15.859375 52.87890625 -18 52 C-21.53896681 44.56161606 -23.59717754 36.29832935 -21.1875 28.3046875 C-17.00167453 17.17155449 -10.40567436 6.20938062 0 0 Z " fill="#F8F9F9" transform="translate(544,751)"/>
<path d="M0 0 C4.13549101 3.69808331 6.96694274 8.1553687 10 12.75 C10.52078125 13.5234375 11.0415625 14.296875 11.578125 15.09375 C17.53648457 24.06138208 21.1487505 31.00039531 21.125 41.9375 C21.12886719 43.71447266 21.12886719 43.71447266 21.1328125 45.52734375 C21.0085915 48.77535743 20.61325697 51.81203717 20 55 C17.525 55.495 17.525 55.495 15 56 C3.59556204 41.80196773 -1.19039144 30.91280592 -1.125 12.625 C-1.12886719 11.52027344 -1.13273438 10.41554688 -1.13671875 9.27734375 C-1.13542969 8.22933594 -1.13414062 7.18132813 -1.1328125 6.1015625 C-1.13168457 5.14588379 -1.13055664 4.19020508 -1.12939453 3.20556641 C-1 1 -1 1 0 0 Z " fill="#FAFBFB" transform="translate(807,515)"/>
<path d="M0 0 C0.75 2.1875 0.75 2.1875 1 5 C-0.30368347 6.68996005 -1.64444707 8.35135455 -3 10 C-3.62314373 11.52600976 -4.20229977 13.07031728 -4.75 14.625 C-7.11527653 20.87342738 -10.88537072 25.79028347 -15 31 C-15.48339844 31.63808594 -15.96679688 32.27617188 -16.46484375 32.93359375 C-21.08238039 38.72893683 -27.35660217 44.67830109 -34 48 C-34.48596494 33.57057946 -29.29679158 19.99155269 -20 9.0625 C-13.97869652 2.65124544 -8.97125058 -0.25632145 0 0 Z " fill="#F7F8F8" transform="translate(839,672)"/>
<path d="M0 0 C5.92939584 1.60645259 10.04319102 3.61235219 13.78125 8.56640625 C16.00722739 12.72642957 15.82382375 16.69632104 15.734375 21.34765625 C10.04770409 20.97678641 5.98101396 19.18126464 0.96875 16.50390625 C-4.09580413 13.88308803 -9.18895585 14.05393612 -14.75390625 13.91796875 C-20.66968141 13.66756557 -25.22277553 12.40894137 -30.203125 9.03515625 C-31.85600511 6.40999372 -31.65051503 4.36262815 -31.265625 1.34765625 C-23.76770682 -3.65095587 -8.66028142 -1.60495265 0 0 Z " fill="#FAFBFB" transform="translate(498.265625,369.65234375)"/>
<path d="M0 0 C1.32 0 2.64 0 4 0 C5.600461 9.58847618 6.23703029 19.03254878 6.3125 28.75 C6.33860352 30.29192017 6.33860352 30.29192017 6.36523438 31.86499023 C6.36049451 39.2834744 5.09011484 45.89218609 3 53 C-2.67224434 50.89240977 -4.33107267 48.30863282 -7 43 C-10.80603459 33.57553339 -9.93062414 20.60747064 -7 11 C-4.99609375 9.35546875 -4.99609375 9.35546875 -3 8 C-1.7811879 4.44327821 -1.7811879 4.44327821 -1 1 C-0.67 0.67 -0.34 0.34 0 0 Z " fill="#F7F8F8" transform="translate(645,211)"/>
<path d="M0 0 C0.03867187 1.54107422 0.03867187 1.54107422 0.078125 3.11328125 C0.36796269 12.47586149 0.36796269 12.47586149 3.0625 21.375 C5.15573958 26.39419126 5.41106466 30.94450783 5.4375 36.3125 C5.44724854 37.07804199 5.45699707 37.84358398 5.46704102 38.63232422 C5.39444811 43.47432387 4.54548988 46.75301556 2 51 C-2.17659542 50.23157876 -4.05455952 48.6505506 -6.671875 45.37890625 C-9.48841082 40.33399357 -9.6875181 34.66894248 -10 29 C-10.04382813 28.21850586 -10.08765625 27.43701172 -10.1328125 26.63183594 C-10.25090851 24.12918466 -10.32267305 21.62984686 -10.375 19.125 C-10.40126465 18.34092773 -10.4275293 17.55685547 -10.45458984 16.74902344 C-10.4700798 11.12736239 -9.29282957 6.63223848 -6 2 C-3 0 -3 0 0 0 Z " fill="#F6F8F8" transform="translate(802,629)"/>
<path d="M0 0 C7.58337207 2.61245354 13.64167857 7.3481346 19.76171875 12.40625 C20.36757813 12.86515625 20.9734375 13.3240625 21.59765625 13.796875 C23.41708448 16.31232611 23.04736214 18.55130506 22.94921875 21.59375 C22.90861328 23.22376953 22.90861328 23.22376953 22.8671875 24.88671875 C22.83238281 25.71816406 22.79757812 26.54960937 22.76171875 27.40625 C20.07421875 28.28125 20.07421875 28.28125 16.76171875 28.40625 C15.57185614 26.94596407 14.38570421 25.48232324 13.2277832 23.99658203 C10.70022311 21.25477912 7.54912535 19.93676587 4.19921875 18.40625 C3.50046631 18.07012695 2.80171387 17.73400391 2.08178711 17.38769531 C-0.64619047 16.0770712 -3.3885126 14.79898919 -6.13574219 13.52929688 C-7.82045031 12.74833081 -9.49835087 11.95272774 -11.17578125 11.15625 C-12.13355469 10.71796875 -13.09132813 10.2796875 -14.078125 9.828125 C-16.23828125 8.40625 -16.23828125 8.40625 -17.0546875 6.234375 C-17.11527344 5.63109375 -17.17585937 5.0278125 -17.23828125 4.40625 C-11.38205613 0.14717719 -7.36340638 -1.95329454 0 0 Z " fill="#F7F9F9" transform="translate(835.23828125,307.59375)"/>
<path d="M0 0 C5.6640625 0.7265625 5.6640625 0.7265625 8.6875 3.1875 C15.36231081 12.27385537 15.02768585 27.20377336 14 38 C12.78369994 42.07146453 11.03006389 44.96993611 8 48 C7.01 48 6.02 48 5 48 C4.35004703 46.58521865 3.70521278 45.16808513 3.0625 43.75 C2.70285156 42.96109375 2.34320312 42.1721875 1.97265625 41.359375 C-0.01512809 36.53760094 -0.13353539 32.13162222 -0.09765625 26.953125 C-0.0962413 26.18192322 -0.09482635 25.41072144 -0.09336853 24.6161499 C-0.08778534 22.16072662 -0.07523595 19.70539558 -0.0625 17.25 C-0.05748283 15.58203257 -0.0529203 13.91406371 -0.04882812 12.24609375 C-0.03782141 8.16402713 -0.02056836 4.08202919 0 0 Z " fill="#FBFCFC" transform="translate(539,219)"/>
<path d="M0 0 C4.25278675 2.57145246 6.33002615 5.34165188 8 10 C9.31870728 16.87046491 7.1871442 21.27229603 3.5078125 27.03125 C2 29 2 29 0 30 C-1.64939939 29.93775851 -3.29658602 29.80330783 -4.9375 29.625 C-5.81277344 29.53476562 -6.68804688 29.44453125 -7.58984375 29.3515625 C-10 29 -10 29 -13 28 C-15.69035826 22.61928348 -14.81085887 14.46701462 -12.98828125 8.921875 C-9.95023714 2.68156819 -7.52344497 -0.9028134 0 0 Z " fill="#F9FAFA" transform="translate(761,540)"/>
<path d="M0 0 C2.74531514 1.37265757 4.08788847 2.38448353 5.875 4.9375 C8.25141994 15.22805242 1.26367892 25.60730667 -3.59765625 34.171875 C-4.10167969 34.75453125 -4.60570312 35.3371875 -5.125 35.9375 C-6.445 35.9375 -7.765 35.9375 -9.125 35.9375 C-12.70205248 32.22286858 -14.03027489 28.33469531 -14.375 23.25 C-14.15021531 15.81805634 -13.16529105 8.67783147 -8.125 2.9375 C-5.29975602 1.11286327 -3.39579759 -0.0998764 0 0 Z " fill="#F8F9F9" transform="translate(387.125,519.0625)"/>
<path d="M0 0 C-1.28182672 9.48551771 -3.39413231 20.39413231 -10.375 27.375 C-15.17319066 30.3453085 -19.36448654 31.39317536 -25 31 C-26 30 -26 30 -26.28515625 26.4140625 C-26.21912449 21.71218165 -24.72806011 18.41161719 -22.4375 14.375 C-22.07688477 13.72055908 -21.71626953 13.06611816 -21.34472656 12.3918457 C-16.35839294 3.69853793 -10.37431868 -1.99506128 0 0 Z " fill="#F7F9F9" transform="translate(647,774)"/>
<path d="M0 0 C2.79234706 0.31026078 5.12949649 1.05003273 7.75 2.0625 C11.90532802 3.26115231 15.70824562 3.17167018 20 3 C20.08117951 5.41734542 20.14056926 7.83194949 20.1875 10.25 C20.21263672 10.93191406 20.23777344 11.61382812 20.26367188 12.31640625 C20.31137459 15.59199289 20.21085076 17.65348556 18.48828125 20.484375 C17.99714844 20.98453125 17.50601563 21.4846875 17 22 C16.195625 21.855625 15.39125 21.71125 14.5625 21.5625 C13.386875 21.376875 12.21125 21.19125 11 21 C10.2884375 20.86980469 9.576875 20.73960937 8.84375 20.60546875 C3.14742893 19.71785708 0.13304262 20.43347869 -5 23 C-5.99 23 -6.98 23 -8 23 C-9.67334282 19.65331436 -9.72574537 16.58840765 -9 13 C-6.57214208 8.27775278 -3.76565405 3.76565405 0 0 Z " fill="#F9FAFA" transform="translate(693,248)"/>
<path d="M0 0 C1 1 1 1 1.265625 3.65234375 C0.94644787 7.67491431 -0.2790376 10.05534633 -2.25 13.5625 C-2.85328125 14.65691406 -3.4565625 15.75132812 -4.078125 16.87890625 C-6 20 -6 20 -8.140625 22.66796875 C-9.80842377 24.75972477 -10.66156424 26.25675681 -11.5 28.75 C-13 32 -13 32 -15.1875 32.9375 C-17 33 -17 33 -19.5 30.875 C-23.08261507 26.57586191 -22.68980113 21.78530991 -22.48046875 16.421875 C-21.80842189 11.63559005 -20.44586733 8.40300828 -17 5 C-14.71315469 3.32657886 -12.58879146 2.22112805 -10 1 C-6.74696956 -0.62651522 -3.60774398 -0.11453156 0 0 Z " fill="#F8F9F9" transform="translate(537,161)"/>
<path d="M0 0 C2.68426766 1.68200875 4.87865309 3.71459059 7.11328125 5.94921875 C7.11328125 7.26921875 7.11328125 8.58921875 7.11328125 9.94921875 C-4.10957367 15.27531939 -16.33103353 15.82045068 -28.06640625 11.703125 C-29.36099579 11.1669538 -30.63342177 10.57586724 -31.88671875 9.94921875 C-31.60020892 6.51110081 -31.15238648 5.20750682 -28.63671875 2.76171875 C-20.76399829 -2.42711974 -8.89831476 -3.23903474 0 0 Z " fill="#F7F9F9" transform="translate(608.88671875,614.05078125)"/>
<path d="M0 0 C4.32087313 1.66697792 7.01982088 5.7544855 9.03515625 9.78515625 C9.65379597 14.06864899 9.90781011 18.07306373 7.90625 22 C5.52609907 25.03888721 3.85460007 26.55850158 0.09765625 27.59765625 C-5.45207035 26.12527981 -8.79786614 22.55444488 -11.90234375 17.84765625 C-13.51979964 13.18557752 -13.77840174 9.57498382 -11.71484375 5.03515625 C-8.20988472 0.52878035 -5.97756208 -0.97205215 0 0 Z " fill="#F9FAFA" transform="translate(434.96484375,550.21484375)"/>
<path d="M0 0 C1.828125 1.38671875 1.828125 1.38671875 2.828125 4.38671875 C2.00199707 4.5067627 1.17586914 4.62680664 0.32470703 4.75048828 C-2.79072206 5.21398739 -5.90230405 5.69726024 -9.01269531 6.19335938 C-11.00097275 6.50453482 -12.99267807 6.79355134 -14.984375 7.08203125 C-26.15100387 8.88673895 -33.82039758 12.91434422 -42.171875 20.38671875 C-42.831875 19.72671875 -43.491875 19.06671875 -44.171875 18.38671875 C-43.81805257 11.72116075 -38.54977235 6.97834022 -34.171875 2.38671875 C-24.29602615 -5.64727552 -11.04516043 -5.93232004 0 0 Z " fill="#F4F6F6" transform="translate(722.171875,365.61328125)"/>
<path d="M0 0 C3.12120242 1.33440613 4.70292075 2.56271152 6.54296875 5.40625 C6.97673828 6.06753906 7.41050781 6.72882812 7.85742188 7.41015625 C8.29634766 8.09980469 8.73527344 8.78945313 9.1875 9.5 C9.63802734 10.18964844 10.08855469 10.87929688 10.55273438 11.58984375 C13.72778353 16.47380241 15.12556172 19.12979202 15.09765625 25.1015625 C15.09443359 26.31328125 15.09121094 27.525 15.08789062 28.7734375 C15.07951172 30.04445313 15.07113281 31.31546875 15.0625 32.625 C15.05798828 33.90375 15.05347656 35.1825 15.04882812 36.5 C15.03701203 39.66671292 15.02053815 42.83333356 15 46 C7.10714368 38.7153261 3.30627266 28.67524154 0.0625 18.625 C-0.14890625 17.98393311 -0.3603125 17.34286621 -0.578125 16.68237305 C-2.01939815 11.93021604 -2.3358399 7.90842924 -2 3 C-1.34 2.01 -0.68 1.02 0 0 Z " fill="#F9FAFA" transform="translate(700,674)"/>
<path d="M0 0 C16.40853659 4.875 16.40853659 4.875 21.125 10.5625 C22.57300188 16.25107882 23.13268729 22.68563424 21.20703125 28.3203125 C20 30 20 30 16.375 30.75 C14.704375 30.87375 14.704375 30.87375 13 31 C12.78085937 30.46632812 12.56171875 29.93265625 12.3359375 29.3828125 C10.47484304 25.00999707 8.42887749 20.92581826 5.9375 16.875 C-0.56832415 6.25156563 -0.56832415 6.25156563 0 0 Z " fill="#F8FAFA" transform="translate(648,160)"/>
<path d="M0 0 C6.96568578 2.57988362 10.34107985 9.92990379 13.3125 16.25 C13.66425293 16.99781738 14.01600586 17.74563477 14.37841797 18.51611328 C16.80002 23.93745285 18.50827679 29.04107037 17 35 C16.34 35.99 15.68 36.98 15 38 C7.53786027 34.959869 4.15890163 28.43142965 0.8125 21.5625 C-1.26077619 15.02370585 -1.45157948 7.81353743 -1 1 C-0.67 0.67 -0.34 0.34 0 0 Z " fill="#F5F7F7" transform="translate(780,567)"/>
<path d="M0 0 C1.8125 1.0625 1.8125 1.0625 3 3 C3.24713438 5.71847813 3.13479526 8.2591631 3 11 C2.071875 11.33 1.14375 11.66 0.1875 12 C-8.7508521 15.82814272 -16.42280745 23.01308243 -24 29 C-24.66 28.67 -25.32 28.34 -26 28 C-23.33249217 19.90972953 -19.26944722 13.65026576 -14 7 C-13.42378906 6.26910156 -12.84757813 5.53820312 -12.25390625 4.78515625 C-8.36488018 0.04267808 -6.05602456 -1.81680737 0 0 Z " fill="#F3F6F6" transform="translate(883,614)"/>
<path d="M0 0 C1.8125 0.875 1.8125 0.875 2.8125 2.875 C3.24100597 10.58810742 3.01524302 19.32218868 -1.125 26 C-3.1875 27.875 -3.1875 27.875 -6.1875 29.875 C-8.3125 29.625 -8.3125 29.625 -10.1875 28.875 C-12.6230918 24.00381639 -11.68281791 17.20792281 -11.1875 11.875 C-10.00240533 8.68472516 -8.44490329 6.39759966 -6.1875 3.875 C-5.506875 3.029375 -4.82625 2.18375 -4.125 1.3125 C-2.1875 -0.125 -2.1875 -0.125 0 0 Z " fill="#F6F8F8" transform="translate(835.1875,600.125)"/>
<path d="M0 0 C2.625 2.125 2.625 2.125 3.625 4.125 C2.944375 4.1765625 2.26375 4.228125 1.5625 4.28125 C-6.97748532 5.28060998 -13.53185077 8.35664739 -21.00390625 12.34765625 C-24.60860757 14.24816506 -27.34397013 15.28338568 -31.375 15.375 C-32.055625 15.40078125 -32.73625 15.4265625 -33.4375 15.453125 C-35.92462821 15.0319178 -36.69041173 13.93247254 -38.375 12.125 C-35.4041423 10.33994889 -32.42194586 8.57472306 -29.4375 6.8125 C-28.60669922 6.31298828 -27.77589844 5.81347656 -26.91992188 5.29882812 C-18.81893619 0.53910502 -9.07649867 -5.04249926 0 0 Z " fill="#F2F5F5" transform="translate(425.375,272.875)"/>
<path d="M0 0 C1.56535692 1.56535692 1.37482408 2.94977695 1.4375 5.125 C1.16796875 7.56640625 1.16796875 7.56640625 0 10 C-5.41686021 13.87119323 -12.14608829 17.79962303 -19 17 C-20 16 -20 16 -20.3125 12.75 C-19.93796423 8.25557071 -19.32822904 7.00352377 -16 4 C-10.70900059 0.87442892 -6.13135381 -0.63868269 0 0 Z " fill="#F6F8F8" transform="translate(753,232)"/>
<path d="M0 0 C4.796875 -0.1875 4.796875 -0.1875 6.625 1.5 C10.36137471 8.29340856 12.00673724 14.25586738 11 22 C9.5 25.625 9.5 25.625 8 28 C7.01 28 6.02 28 5 28 C0.61840704 18.24099751 -0.26886937 10.76971205 0 0 Z " fill="#F4F6F6" transform="translate(814,420)"/>
<path d="M0 0 C5.21052157 0.17915833 8.3931542 2.41772326 12.375 5.5 C17.2580268 9.10548665 20.84102518 11.12076421 27 11 C27 11.66 27 12.32 27 13 C17.70294525 16.09901825 13.20618092 17.50079956 4 13 C1.24615704 10.99043892 -1.26035248 8.95999728 -3 6 C-2.71039489 3.01483964 -2.15762281 2.15762281 0 0 Z " fill="#F5F7F7" transform="translate(463,402)"/>
<path d="M0 0 C5.3117664 0.41660913 8.25195824 1.15332556 12 5 C14.82439422 8.64914846 16.82677348 11.68842776 17.4375 16.3125 C17 19 17 19 15 22 C11.3671995 21.73318414 9.53762655 21.55404263 6.953125 18.890625 C6.39109375 18.01921875 5.8290625 17.1478125 5.25 16.25 C4.39148438 14.95835937 4.39148438 14.95835937 3.515625 13.640625 C0.7972414 8.90447212 -0.25520937 5.4870014 0 0 Z " fill="#F4F6F6" transform="translate(332,626)"/>
<path d="M0 0 C-1.25209293 3.7562788 -3.17004692 5.2464235 -6 8 C-8.51449972 10.91131921 -11.01635043 13.83183949 -13.5 16.76953125 C-16 19 -16 19 -18.6875 19.44921875 C-21 19 -21 19 -23 17 C-22.87956696 11.7009462 -20.687531 8.57259496 -17 5 C-16.49339844 4.50886719 -15.98679687 4.01773437 -15.46484375 3.51171875 C-10.58719987 -0.58181217 -6.1781057 -0.55938583 0 0 Z " fill="#F4F6F6" transform="translate(778,293)"/>
<path d="M0 0 C4.01478721 0.1515014 6.32867704 0.46294163 9.5 3 C11.62614441 7.25228881 11.25460492 10.4818342 10 15 C6.95652174 20.68115942 6.95652174 20.68115942 3 22 C-0.41411224 15.88902599 -1.54742443 7.93404278 -1 1 C-0.67 0.67 -0.34 0.34 0 0 Z " fill="#F4F6F6" transform="translate(611,720)"/>
<path d="M0 0 C2.1640625 -0.29296875 2.1640625 -0.29296875 4.625 -0.1875 C5.44226563 -0.16042969 6.25953125 -0.13335937 7.1015625 -0.10546875 C8.04128906 -0.05326172 8.04128906 -0.05326172 9 0 C9.33 1.32 9.66 2.64 10 4 C8.56542672 4.9834496 7.12722594 5.96160921 5.6875 6.9375 C4.88699219 7.48277344 4.08648438 8.02804687 3.26171875 8.58984375 C-0.17055442 10.72982754 -2.96864134 11.1783815 -6.9375 11.25 C-8.21947266 11.28867187 -8.21947266 11.28867187 -9.52734375 11.328125 C-12.5730754 10.92395208 -13.90000137 10.24129785 -16 8 C-16.25 5.3125 -16.25 5.3125 -16 3 C-15.01257813 3.03480469 -14.02515625 3.06960938 -13.0078125 3.10546875 C-11.08582031 3.14607422 -11.08582031 3.14607422 -9.125 3.1875 C-7.84882812 3.22230469 -6.57265625 3.25710938 -5.2578125 3.29296875 C-4.18273437 3.19628906 -3.10765625 3.09960938 -2 3 C-1.34 2.01 -0.68 1.02 0 0 Z " fill="#F4F6F6" transform="translate(710,399)"/>
<path d="M0 0 C-0.90099971 2.25249927 -1.5743861 3.70049392 -3.58203125 5.11328125 C-7.00959199 6.3702381 -10.33538828 6.32891801 -13.9375 6.3125 C-14.64068359 6.32861328 -15.34386719 6.34472656 -16.06835938 6.36132812 C-20.53568172 6.36551493 -23.48707706 5.82546248 -27 3 C-27 2.34 -27 1.68 -27 1 C-5.60385757 -3.73590504 -5.60385757 -3.73590504 0 0 Z " fill="#0E1212" transform="translate(610,367)"/>
<path d="M0 0 C7.22580645 0.36129032 7.22580645 0.36129032 10.5 3.0625 C12.54573521 7.06873145 12.36107456 9.52267542 12 14 C11.67 14.99 11.34 15.98 11 17 C9 17 9 17 6.5625 14.6875 C5.716875 13.800625 4.87125 12.91375 4 12 C3.1646875 11.2265625 3.1646875 11.2265625 2.3125 10.4375 C0.70617528 8.67819198 -0.2041464 7.25491852 -1 5 C-0.625 2.25 -0.625 2.25 0 0 Z " fill="#F7F8F8" transform="translate(465,257)"/>
<path d="M0 0 C2.375 0.3125 2.375 0.3125 5 1 C7.48038907 4.7205836 7.46337203 6.59796571 7 11 C5.3125 13.5 5.3125 13.5 3 15 C0.3125 14.875 0.3125 14.875 -2 14 C-3.23050689 11.53898622 -2.98600075 10.27573817 -2.6875 7.5625 C-2.60886719 6.78003906 -2.53023437 5.99757813 -2.44921875 5.19140625 C-2 3 -2 3 0 0 Z " fill="#EFF2F2" transform="translate(542,596)"/>
<path d="M0 0 C0.66 0 1.32 0 2 0 C4.45391569 3.68087353 4.22802759 6.44355588 4.125 10.6875 C4.11597656 11.38939453 4.10695313 12.09128906 4.09765625 12.81445312 C4.07413704 14.54311525 4.03826713 16.27160145 4 18 C-0.2836943 17.14693026 -2.29045955 15.48369486 -5 12 C-5.10525382 7.05307061 -3.00275732 3.82169114 0 0 Z " fill="#ECF0F0" transform="translate(562,721)"/>
<path d="M0 0 C2.84678259 2.84678259 2.95373148 4.97392748 3.1328125 8.9453125 C3.13023437 9.99460937 3.12765625 11.04390625 3.125 12.125 C3.12757813 13.17945313 3.13015625 14.23390625 3.1328125 15.3203125 C3 18 3 18 2 20 C-2.875 19.125 -2.875 19.125 -4 18 C-4.84876152 10.86205477 -3.63258569 6.12998834 0 0 Z " fill="#F4F6F6" transform="translate(589,718)"/>
<path d="M0 0 C3.55003269 0.98612019 4.93395893 1.91967978 7.3125 4.8125 C9.00423641 8.0080021 9.66586128 9.48044751 9 13 C7.5 14.8125 7.5 14.8125 6 16 C2.40375492 14.80125164 2.05897573 13.96359217 0.25 10.75 C-0.19859375 9.98171875 -0.6471875 9.2134375 -1.109375 8.421875 C-2.18313264 5.50200772 -1.91170761 3.93772452 -1 1 C-0.67 0.67 -0.34 0.34 0 0 Z " fill="#EFF2F2" transform="translate(634,716)"/>
<path d="M0 0 C1.9375 1.25 1.9375 1.25 3 3 C3.25 5.625 3.25 5.625 3 8 C2 9 2 9 -1.8125 9.1875 C-5.03540201 9.1585691 -7.25544723 8.82970185 -10 7 C-10.22111261 4.27294446 -10.30361625 2.53579338 -8.9375 0.125 C-5.79404449 -1.70023223 -3.41384459 -0.85346115 0 0 Z " fill="#EEF1F1" transform="translate(644,618)"/>
<path d="M0 0 C1.8125 0.9375 1.8125 0.9375 2.8125 3.9375 C2.98046875 5.875 2.98046875 5.875 3 7.9375 C3.01417969 8.618125 3.02835938 9.29875 3.04296875 10 C2.8125 11.9375 2.8125 11.9375 0.8125 14.9375 C-0.1775 14.9375 -1.1675 14.9375 -2.1875 14.9375 C-3.8125 12.5 -3.8125 12.5 -5.1875 9.9375 C-5.5175 9.6075 -5.8475 9.2775 -6.1875 8.9375 C-6.63982976 5.59025979 -6.46986751 4.32071304 -4.4375 1.5625 C-2.1875 -0.0625 -2.1875 -0.0625 0 0 Z " fill="#ECEFEF" transform="translate(646.1875,591.0625)"/>
<path d="M0 0 C3 1 3 1 4.1640625 2.75 C5.65413971 6.7606751 5.5869892 10.79324406 5 15 C3.125 17.625 3.125 17.625 1 19 C0.34 19 -0.32 19 -1 19 C-1.02683987 16.02077407 -1.04676037 13.04178705 -1.0625 10.0625 C-1.07087891 9.21236328 -1.07925781 8.36222656 -1.08789062 7.48632812 C-1.09111328 6.67744141 -1.09433594 5.86855469 -1.09765625 5.03515625 C-1.10289307 4.2862915 -1.10812988 3.53742676 -1.11352539 2.76586914 C-1 1 -1 1 0 0 Z " fill="#EFF3F3" transform="translate(651,711)"/>
<path d="M0 0 C0.33 1.32 0.66 2.64 1 4 C-1.50584896 6.31309135 -2.72285889 6.97826344 -6.1875 7.25 C-9 7 -9 7 -10 6 C-10.25 3.5625 -10.25 3.5625 -10 1 C-6.1496895 -1.56687367 -4.41430237 -0.83288724 0 0 Z " fill="#EFF3F3" transform="translate(560,624)"/>
</svg>
