<?xml version="1.0" standalone="no"?>
<!DOCTYPE svg PUBLIC "-//W3C//DTD SVG 20010904//EN"
 "http://www.w3.org/TR/2001/REC-SVG-20010904/DTD/svg10.dtd">
<svg version="1.0" xmlns="http://www.w3.org/2000/svg"
 width="1000.000000pt" height="235.000000pt" viewBox="0 0 1000.000000 235.000000"
 preserveAspectRatio="xMidYMid meet">

<g transform="translate(0.000000,235.000000) scale(0.100000,-0.100000)"
fill="#000000" stroke="none">
<path d="M1048 2325 c-20 -14 -45 -25 -55 -25 -10 0 -43 -12 -73 -26 -35 -16
-65 -24 -82 -20 -34 7 -54 -15 -39 -43 17 -32 13 -41 -24 -57 -41 -17 -44 -38
-13 -72 l23 -24 -33 -26 c-35 -29 -41 -62 -17 -82 21 -17 19 -44 -5 -65 -29
-26 -26 -63 5 -75 28 -11 32 -37 10 -66 -20 -27 -19 -31 17 -64 31 -28 31 -30
18 -69 -15 -48 -10 -65 27 -83 19 -10 27 -20 25 -33 -2 -11 -5 -33 -5 -50 -2
-27 1 -30 31 -33 56 -6 38 -41 -55 -109 -38 -27 -95 -64 -128 -83 -80 -45
-151 -114 -181 -172 -22 -44 -27 -48 -52 -42 -37 9 -89 49 -113 88 -33 51 -21
129 36 256 56 123 65 180 40 246 -36 95 -113 152 -217 161 -52 5 -58 4 -58
-13 0 -11 18 -44 40 -73 42 -56 56 -91 46 -116 -3 -8 -12 -12 -19 -9 -21 8
-26 -17 -15 -70 14 -68 8 -78 -49 -74 -43 3 -48 1 -51 -19 -2 -12 8 -44 22
-72 39 -77 36 -94 -29 -130 -78 -44 -101 -101 -40 -101 22 0 25 -4 25 -39 0
-49 10 -56 53 -35 34 16 34 16 85 -19 61 -41 107 -51 197 -42 l65 7 0 -49 c0
-93 24 -139 122 -232 80 -77 88 -88 88 -121 0 -21 -11 -62 -24 -91 -12 -30
-21 -61 -18 -69 3 -8 34 -48 69 -90 36 -41 82 -102 104 -135 21 -33 44 -68 51
-78 16 -22 115 -44 130 -29 18 18 -2 51 -113 189 -60 75 -109 143 -109 152 0
11 18 40 56 90 2 2 15 -4 30 -14 28 -18 49 -17 169 5 28 5 94 9 148 9 103 1
151 16 190 59 18 20 18 21 -8 38 -26 17 -37 17 -209 3 -99 -9 -187 -14 -193
-11 -21 7 -15 23 32 96 26 40 58 110 77 168 31 93 36 102 80 134 25 19 73 65
106 102 52 58 69 70 119 86 32 10 81 30 108 44 54 27 180 72 202 72 16 0 18
-53 2 -81 -12 -22 12 -109 35 -128 28 -23 76 59 76 130 0 21 5 39 10 39 24 0
119 -73 124 -95 8 -30 63 -73 104 -81 30 -6 32 -4 32 20 0 30 -27 87 -62 129
-13 15 -70 60 -128 100 l-105 72 -12 89 c-15 103 -27 126 -79 151 -36 17 -37
17 -98 -10 -33 -15 -83 -36 -110 -47 l-49 -19 -54 58 c-106 113 -186 254 -195
343 -3 29 1 35 22 41 40 11 116 10 166 -3 42 -12 47 -11 60 7 9 12 14 36 12
60 -3 38 -7 43 -85 95 -86 58 -117 90 -118 125 0 17 -8 21 -50 25 -42 4 -50 8
-50 25 0 29 -25 29 -67 0z m594 -890 c3 -28 1 -30 -42 -36 -25 -4 -47 -5 -49
-3 -3 3 13 22 34 44 42 43 52 42 57 -5z"/>
<path d="M2300 1480 l0 -820 110 0 110 0 0 370 0 370 400 0 400 0 0 100 0 100
-400 0 -400 0 0 250 0 250 455 0 455 0 0 100 0 100 -565 0 -565 0 0 -820z"/>
<path d="M3560 1493 c-167 -445 -305 -814 -308 -820 -3 -10 23 -13 111 -13
l114 0 84 235 84 235 330 0 330 0 79 -235 79 -235 122 0 122 0 -96 267 c-54
148 -187 517 -297 820 l-199 553 -126 0 -126 0 -303 -807z m540 202 c62 -187
115 -346 118 -352 3 -10 -50 -13 -247 -13 -138 0 -251 3 -251 7 0 21 256 711
261 705 4 -4 57 -160 119 -347z"/>
<path d="M4810 1480 l0 -820 110 0 110 0 2 657 3 657 412 -654 411 -655 126
-3 126 -3 0 821 0 820 -105 0 -105 0 0 -661 c0 -363 -3 -658 -8 -655 -4 2
-189 299 -412 660 l-405 656 -132 0 -133 0 0 -820z"/>
<path d="M6220 2200 l0 -100 275 0 275 0 0 -720 0 -720 115 0 115 0 0 720 0
720 275 0 275 0 0 100 0 100 -665 0 -665 0 0 -100z"/>
<path d="M7690 1480 l0 -820 110 0 110 0 0 820 0 820 -110 0 -110 0 0 -820z"/>
<path d="M8190 1480 l0 -820 110 0 110 0 2 657 3 657 412 -655 411 -654 126
-3 126 -3 0 821 0 820 -105 0 -105 0 0 -661 c0 -363 -4 -658 -8 -655 -4 2
-190 300 -412 660 l-405 655 -132 1 -133 0 0 -820z"/>
<path d="M9770 1480 l0 -820 115 0 115 0 0 820 0 820 -115 0 -115 0 0 -820z"/>
<path d="M2310 156 l0 -156 30 0 30 0 0 60 c0 56 2 60 23 60 19 0 29 -12 52
-60 27 -55 31 -60 62 -60 l33 0 -32 65 -32 64 27 25 c33 31 37 91 8 127 -17
21 -29 24 -110 27 l-91 4 0 -156z m155 59 c0 -29 -2 -30 -47 -33 l-48 -3 0 36
0 36 48 -3 c45 -3 47 -4 47 -33z"/>
<path d="M3270 195 c0 -137 11 -167 66 -185 46 -16 119 -8 144 15 29 26 40 78
40 188 l0 97 -35 0 -35 0 0 -108 c0 -114 -7 -135 -47 -147 -17 -4 -29 1 -48
19 -24 24 -25 31 -25 131 l0 105 -30 0 -30 0 0 -115z"/>
<path d="M4250 155 l0 -155 96 0 c92 0 97 1 125 29 35 36 39 84 9 116 -18 20
-19 23 -5 35 17 14 20 62 5 90 -14 27 -64 40 -151 40 l-79 0 0 -155z m175 85
c3 -6 3 -19 0 -30 -5 -17 -15 -20 -61 -20 -53 0 -54 0 -54 30 0 30 1 30 54 30
30 0 58 -5 61 -10z m4 -124 c27 -32 -13 -66 -78 -66 l-41 0 0 40 0 40 54 0
c33 0 58 -5 65 -14z"/>
<path d="M5230 156 l0 -156 35 0 36 0 -3 152 -3 153 -32 3 -33 3 0 -155z"/>
<path d="M6030 155 l0 -155 30 0 30 0 0 108 0 107 61 -108 c59 -103 62 -107
95 -107 l34 0 0 155 0 155 -30 0 -29 0 -3 -106 -3 -106 -60 106 c-57 100 -62
106 -92 106 l-33 0 0 -155z"/>
<path d="M7010 155 l0 -155 115 0 115 0 0 25 c0 24 -2 24 -82 27 l-83 3 0 35
0 35 63 3 c58 3 62 4 62 27 0 23 -4 24 -62 27 -63 3 -63 3 -66 36 l-3 32 80 0
81 0 0 30 0 30 -110 0 -110 0 0 -155z"/>
<path d="M7977 303 c-4 -3 -7 -17 -7 -30 0 -21 4 -23 50 -23 l50 0 0 -125 0
-125 30 0 30 0 0 125 0 125 45 0 c43 0 45 1 45 30 l0 30 -118 0 c-65 0 -122
-3 -125 -7z"/>
<path d="M8960 280 c0 -29 2 -30 45 -30 l45 0 0 -125 0 -125 30 0 30 0 0 125
0 125 45 0 c43 0 45 1 45 30 l0 30 -120 0 -120 0 0 -30z"/>
<path d="M9940 155 l0 -155 30 0 30 0 0 155 0 155 -30 0 -30 0 0 -155z"/>
</g>
</svg>
