<?xml version="1.0" standalone="no"?>
<!DOCTYPE svg PUBLIC "-//W3C//DTD SVG 20010904//EN"
 "http://www.w3.org/TR/2001/REC-SVG-20010904/DTD/svg10.dtd">
<svg version="1.0" xmlns="http://www.w3.org/2000/svg"
 width="460.000000pt" height="300.000000pt" viewBox="0 0 460.000000 300.000000"
 preserveAspectRatio="xMidYMid meet">

<g transform="translate(0.000000,300.000000) scale(0.100000,-0.100000)"
fill="#000000" stroke="none">
<path d="M3610 2075 c-17 -21 -8 -50 17 -53 26 -4 41 31 23 53 -16 19 -24 19
-40 0z"/>
<path d="M3933 2083 c-19 -7 -16 -53 3 -60 24 -9 46 24 33 48 -10 19 -15 21
-36 12z"/>
<path d="M4090 2013 c-58 -21 -68 -87 -20 -135 35 -34 32 -47 -5 -30 -24 11
-25 10 -25 -18 0 -23 6 -33 26 -40 44 -17 83 -12 109 15 34 33 31 67 -7 111
l-33 37 28 -6 c25 -7 27 -5 27 23 0 30 0 30 -70 45 -8 2 -22 1 -30 -2z"/>
<path d="M2310 1895 l0 -115 305 0 305 0 0 115 0 115 -305 0 -305 0 0 -115z"/>
<path d="M2950 1895 l0 -115 305 0 305 0 0 115 0 115 -305 0 -305 0 0 -115z"/>
<path d="M3580 1900 l0 -110 45 0 45 0 0 110 0 110 -45 0 -45 0 0 -110z"/>
<path d="M3690 1900 l0 -110 45 0 45 0 0 59 c0 63 15 87 48 77 15 -5 21 1 30
31 6 20 9 40 7 44 -3 4 -43 7 -90 8 l-85 0 0 -109z"/>
<path d="M400 1890 l0 -110 305 0 305 0 0 110 0 110 -305 0 -305 0 0 -110z"/>
<path d="M1040 1890 l0 -110 305 0 305 0 0 110 0 110 -305 0 -305 0 0 -110z"/>
<path d="M1670 1890 l0 -110 305 0 305 0 0 110 0 110 -305 0 -305 0 0 -110z"/>
<path d="M3894 1987 c-3 -8 -4 -51 -2 -98 3 -70 6 -84 20 -87 15 -3 17 2 11
29 -5 24 -3 30 6 24 9 -5 12 0 9 16 -2 16 -9 23 -20 21 -11 -2 -18 3 -18 13 0
8 5 15 11 15 8 0 7 5 -1 15 -11 13 -9 19 8 36 12 11 22 22 22 24 0 12 -41 4
-46 -8z"/>
<path d="M3969 1979 c26 -21 37 -19 28 6 -4 8 -17 15 -29 15 l-23 -1 24 -20z"/>
<path d="M3982 1935 c-11 -12 -10 -15 3 -15 8 0 15 7 15 15 0 18 -2 18 -18 0z"/>
<path d="M3956 1894 c-10 -25 -7 -41 5 -24 8 11 9 4 6 -28 -4 -36 -3 -43 11
-40 13 2 18 16 20 53 2 27 0 46 -4 42 -4 -4 -13 -2 -19 3 -9 8 -14 6 -19 -6z"/>
<path d="M1863 1726 c-97 -32 -160 -95 -199 -199 l-23 -62 0 133 -1 133 -121
-3 -122 -3 -75 -273 c-42 -150 -79 -267 -83 -260 -6 12 -149 522 -149 533 0 3
-155 5 -345 5 l-345 0 0 -405 0 -406 78 3 77 3 3 158 3 157 124 0 125 0 0 65
0 65 -125 0 -125 0 0 115 0 115 145 0 145 0 0 -340 0 -341 78 3 77 3 5 298 5
298 85 -301 84 -301 60 3 60 3 86 299 85 300 3 -302 2 -302 80 0 80 0 0 123 1
122 19 -49 c40 -102 103 -164 196 -192 99 -30 202 -9 266 53 l38 37 0 -47 0
-47 60 0 60 0 0 225 0 225 -155 0 -155 0 0 -65 0 -65 76 0 77 0 -7 -41 c-13
-80 -58 -135 -123 -149 -74 -17 -135 17 -179 100 -16 29 -19 58 -19 166 0 125
1 133 30 190 24 47 39 64 75 82 77 40 160 17 202 -54 23 -39 30 -40 109 -18
l58 16 -15 37 c-21 52 -89 116 -148 142 -63 27 -182 35 -243 15z"/>
<path d="M3194 1370 c-46 -19 -59 -146 -19 -190 32 -35 99 -20 107 24 4 26
-19 32 -27 7 -9 -30 -37 -35 -57 -11 -20 25 -24 100 -8 131 14 26 57 25 65 -1
7 -21 35 -28 35 -10 0 16 -47 60 -62 59 -7 0 -22 -4 -34 -9z"/>
<path d="M2422 1268 c2 -70 7 -103 16 -106 8 -2 12 11 12 47 l0 51 35 0 c19 0
35 5 35 10 0 6 -16 10 -35 10 -33 0 -35 2 -35 35 0 35 0 35 45 35 25 0 45 5
45 10 0 6 -27 10 -60 10 l-61 0 3 -102z"/>
<path d="M2536 1277 c-14 -51 -26 -99 -26 -106 0 -22 24 -6 30 20 4 18 13 25
38 27 22 2 32 -1 32 -10 0 -19 27 -55 35 -47 3 4 -6 52 -21 108 -36 135 -51
136 -88 8z m58 1 c5 -24 3 -28 -14 -28 -22 0 -23 3 -14 50 7 34 16 27 28 -22z"/>
<path d="M2660 1264 l0 -107 52 5 c55 6 78 24 78 64 0 12 -7 27 -15 34 -11 9
-13 16 -5 24 14 14 13 59 -2 74 -7 7 -34 12 -60 12 l-48 0 0 -106z m88 54 c3
-25 0 -28 -27 -28 -28 0 -31 3 -31 31 0 27 3 30 28 27 21 -2 28 -9 30 -30z m5
-79 c16 -26 1 -49 -33 -49 -28 0 -30 3 -30 36 0 32 2 35 26 32 15 -2 32 -10
37 -19z"/>
<path d="M2810 1264 l0 -107 52 5 c55 6 78 24 78 64 0 12 -7 27 -15 34 -11 9
-13 16 -5 24 14 14 13 59 -2 74 -7 7 -34 12 -60 12 l-48 0 0 -106z m88 54 c3
-25 0 -28 -27 -28 -28 0 -31 3 -31 31 0 27 3 30 28 27 21 -2 28 -9 30 -30z m5
-79 c16 -26 1 -49 -33 -49 -28 0 -30 3 -30 36 0 32 2 35 26 32 15 -2 32 -10
37 -19z"/>
<path d="M2960 1264 c0 -80 3 -105 13 -102 6 3 13 23 15 46 4 58 32 58 53 0
15 -42 39 -63 39 -35 0 8 -7 30 -15 50 -13 31 -13 36 0 47 18 15 20 71 3 88
-7 7 -34 12 -60 12 l-48 0 0 -106z m85 51 c0 -25 -4 -30 -27 -33 -26 -3 -28
-1 -28 33 0 34 2 36 28 33 23 -3 27 -8 27 -33z"/>
<path d="M3102 1268 c2 -70 7 -103 16 -106 9 -3 12 22 12 102 0 89 -3 106 -15
106 -13 0 -15 -16 -13 -102z"/>
<path d="M3330 1328 c-6 -24 -18 -65 -26 -92 -8 -27 -14 -56 -14 -64 0 -22 24
-8 30 19 4 18 13 25 37 27 28 3 32 0 38 -27 4 -18 13 -31 22 -31 8 0 13 6 11
13 -3 6 -15 54 -28 105 -19 73 -27 92 -41 92 -13 0 -22 -13 -29 -42z m44 -50
c5 -24 3 -28 -14 -28 -22 0 -23 3 -14 50 7 34 16 27 28 -22z"/>
<path d="M3444 1130 c-46 -19 -59 -146 -19 -190 20 -22 65 -26 83 -8 9 9 12 9
12 0 0 -7 5 -12 10 -12 6 0 10 25 10 55 l0 55 -35 0 c-38 0 -48 -19 -15 -27
26 -7 26 -39 0 -53 -45 -24 -82 80 -50 141 15 26 60 26 67 -1 6 -21 24 -23 31
-2 5 15 -34 52 -55 51 -10 0 -27 -4 -39 -9z"/>
<path d="M2422 1028 c2 -70 7 -103 16 -106 9 -3 12 17 13 75 l1 78 24 -77 c14
-43 29 -78 33 -78 5 0 19 33 31 73 11 39 23 77 25 82 2 6 4 -27 4 -73 1 -62 4
-83 14 -80 8 3 13 36 15 107 3 101 2 102 -20 99 -18 -2 -26 -15 -42 -70 -10
-38 -22 -68 -25 -68 -4 0 -15 32 -26 70 -17 61 -22 70 -42 70 -23 0 -24 -1
-21 -102z"/>
<path d="M2636 1037 c-14 -51 -26 -99 -26 -106 0 -22 24 -6 30 20 4 18 13 25
38 27 22 2 32 -1 32 -10 0 -18 27 -55 34 -47 3 3 -6 52 -21 107 -35 136 -50
137 -87 9z m58 1 c5 -24 3 -28 -14 -28 -22 0 -23 3 -14 50 7 34 16 27 28 -22z"/>
<path d="M2760 1024 c0 -80 3 -105 13 -102 6 3 13 23 15 46 4 60 33 58 56 -3
10 -25 21 -45 25 -45 18 0 18 15 1 55 -16 38 -17 44 -3 58 19 18 20 61 3 82
-8 10 -30 15 -61 15 l-49 0 0 -106z m91 70 c18 -21 0 -48 -35 -52 -24 -3 -26
0 -26 32 0 31 3 36 24 36 13 0 29 -7 37 -16z"/>
<path d="M2902 1028 c3 -121 21 -138 28 -28 l5 75 20 -73 c11 -40 25 -74 30
-75 6 -1 21 32 35 73 l25 75 3 -78 c2 -56 6 -77 15 -74 8 2 13 37 15 105 3
101 2 102 -21 102 -20 0 -25 -8 -41 -70 -10 -38 -22 -70 -25 -70 -4 0 -16 30
-27 68 -16 55 -23 68 -42 70 -23 3 -23 3 -20 -100z"/>
<path d="M3102 1028 c2 -70 7 -103 16 -106 9 -3 12 22 12 102 0 89 -3 106 -15
106 -13 0 -15 -16 -13 -102z"/>
<path d="M3222 1028 l3 -103 58 -3 c46 -2 57 0 57 13 0 11 -11 15 -45 15 -45
0 -45 0 -45 35 0 33 2 35 35 35 19 0 35 5 35 10 0 6 -16 10 -35 10 -33 0 -35
2 -35 35 0 35 0 35 45 35 25 0 45 5 45 10 0 6 -27 10 -60 10 l-61 0 3 -102z"/>
<path d="M3570 1025 c0 -81 3 -106 13 -103 6 3 13 23 15 46 4 56 27 55 52 -3
16 -37 24 -45 45 -45 20 0 27 6 32 30 5 26 10 30 38 30 29 0 34 -4 40 -31 4
-17 12 -28 18 -26 15 5 15 1 -14 115 -18 71 -28 92 -41 92 -12 0 -21 -16 -33
-57 -9 -32 -22 -76 -29 -98 l-13 -40 -16 38 c-15 34 -15 39 1 66 13 23 14 36
7 58 -9 25 -15 28 -63 31 l-52 3 0 -106z m78 76 c8 -4 12 -19 10 -32 -2 -18
-10 -25 -30 -27 -26 -3 -28 -1 -28 32 0 37 17 47 48 27z m130 -53 c10 -36 9
-38 -13 -38 -22 0 -22 2 -13 40 12 47 13 47 26 -2z"/>
<path d="M3850 1025 c0 -125 18 -143 22 -22 l3 82 40 -79 c57 -113 65 -110 65
18 0 120 -17 146 -22 34 l-3 -73 -34 73 c-24 52 -39 72 -52 72 -17 0 -19 -9
-19 -105z"/>
<path d="M4010 1024 c0 -80 3 -105 13 -102 8 3 13 34 15 96 3 90 3 92 27 92
25 0 25 -1 25 -96 0 -72 3 -95 13 -92 8 3 13 34 15 96 3 90 3 92 27 92 25 0
25 -1 25 -96 0 -72 3 -95 13 -92 8 3 13 36 15 106 l3 102 -96 0 -95 0 0 -106z"/>
</g>
</svg>
