<?xml version="1.0" encoding="utf-8"?>
<!-- Generator: Adobe Illustrator 19.2.1, SVG Export Plug-In . SVG Version: 6.00 Build 0)  -->
<svg version="1.1" id="layer" xmlns="http://www.w3.org/2000/svg" xmlns:xlink="http://www.w3.org/1999/xlink" x="0px" y="0px"
	 viewBox="0 0 652 652" style="enable-background:new 0 0 652 652;" xml:space="preserve">
<path d="M221.7,207.9h-16.4h-23c-68.2,0-118.7,47.9-118.7,117.5c0,62.1,46,121.8,111.1,121.7c1.6,0,10,0,10,0V346.7h-60.5v-35.9
	h97.8v172.2h-39.6c-86.4,0-155.7-70.8-155.7-157.4S96.2,168,182.3,168h23h16.4V207.9z M404.5,206.8c-39,0-28.4,36.1-16.9,56.3
	c26.8,47.1,73.7,102.7,46.6,160.5c-21.3,45.3-54.7,55.9-94.6,60.2v-36.1c25.7-2.8,48-9.7,61.9-39.4c24.5-52-54.1-115.7-60.8-164.6
	c-7.6-55.3,40.9-72.9,63.8-72.9h18.1v36.9L404.5,206.8z M493.5,207.5c-39,0-28.4,36.1-16.9,56.3c26.8,47.2,73.7,102.7,46.6,160.5
	c-21.2,45-54.3,55.8-93.9,60.1v-36.1c25.4-2.8,47.3-9.9,61.2-39.4c24.5-52-54.1-115.7-60.8-164.6c-7.6-55.3,40.9-72.9,63.8-72.9
	l18.1-0.8v36.9L493.5,207.5z M542,169.8h36.1v313.5H542V169.8z M235.9,170.6h-0.1h91.3v36.3h-53.7v21.7h28.9v36.1h-30.4v182.1h55.2
	V483h-91.3L235.9,170.6 M606.9,169.6c11.1,0.1,19.9,9.2,19.8,20.2c-0.1,11.1-9.2,19.9-20.2,19.8c-11-0.1-19.9-9.1-19.8-20.1
	c0-11,8.9-19.9,19.9-19.9C606.8,169.6,606.8,169.6,606.9,169.6z M606.9,206.7c9.3,0,16.5-7.4,16.5-17.2c0-9.6-7.2-17-16.5-17
	c-9.3,0-16.6,7.4-16.6,17C590.4,199.3,597.6,206.7,606.9,206.7z M599.1,177.9h9.1c5.6,0,8.2,2.2,8.2,6.7c0,4.2-2.7,6-6.2,6.4
	l6.7,10.3H613l-6.4-10.1h-3.9v10.1h-3.6L599.1,177.9z M602.8,188.3h3.8c3.2,0,6.2-0.2,6.2-3.9c0-3.1-2.7-3.6-5.1-3.6h-4.8
	L602.8,188.3z"/>
</svg>
