<?xml version="1.0" encoding="UTF-8" standalone="no"?>
<svg
   xmlns:dc="http://purl.org/dc/elements/1.1/"
   xmlns:cc="http://creativecommons.org/ns#"
   xmlns:rdf="http://www.w3.org/1999/02/22-rdf-syntax-ns#"
   xmlns:svg="http://www.w3.org/2000/svg"
   xmlns="http://www.w3.org/2000/svg"
   viewBox="0 0 793.33331 128"
   height="128"
   width="793.33331"
   xml:space="preserve"
   id="svg2"
   version="1.1"><metadata
     id="metadata8"><rdf:RDF><cc:Work
         rdf:about=""><dc:format>image/svg+xml</dc:format><dc:type
           rdf:resource="http://purl.org/dc/dcmitype/StillImage" /></cc:Work></rdf:RDF></metadata><defs
     id="defs6"><clipPath
       id="clipPath18"
       clipPathUnits="userSpaceOnUse"><path
         id="path16"
         d="M 0,96 H 595 V 0 H 0 Z" /></clipPath></defs><g
     transform="matrix(1.3333333,0,0,-1.3333333,0,128)"
     id="g10"><g
       id="g12"><g
         clip-path="url(#clipPath18)"
         id="g14"><g
           transform="translate(76.0226,48.1649)"
           id="g20"><path
             id="path22"
             style="fill:#231f20;fill-opacity:1;fill-rule:nonzero;stroke:none"
             d="m 0,0 c -3.348,0 -6.062,2.715 -6.062,6.064 0,3.349 2.714,6.063 6.062,6.063 3.348,0 6.062,-2.714 6.062,-6.063 C 6.062,2.715 3.348,0 0,0 m 17.507,31.178 c -13.035,0 -31.368,-4.71 -44.396,-13.485 C -37.883,10.288 -46.363,0.928 -51.774,-8.906 v -29.197 h 47.448 v 24.388 c 0,0.561 -0.054,1.051 -0.159,1.472 -0.105,0.42 -0.403,0.805 -0.892,1.156 -0.631,0.421 -1.495,0.841 -2.37,1.261 -0.789,0.379 -1.62,0.729 -2.494,1.051 -0.175,0.065 -0.291,0.23 -0.291,0.415 0,0.191 0.123,0.361 0.304,0.42 l 13.816,4.509 c 0.057,0.019 0.116,0.029 0.176,0.029 0.315,0 0.57,-0.255 0.57,-0.57 L 4.322,-38.103 h 13.185 z" /></g><g
           transform="translate(44.3884,72.9018)"
           id="g24"><path
             id="path26"
             style="fill:#231f20;fill-opacity:1;fill-rule:nonzero;stroke:none"
             d="m 0,0 c 3.601,2.425 7.039,4.577 10.85,6.441 h -30.99 v -24.248 c 0.203,0.255 0.408,0.509 0.615,0.761 C -14.053,-10.355 -7.484,-5.041 0,0" /></g><g
           transform="translate(148.1344,10.2189)"
           id="g28"><path
             id="path30"
             style="fill:#231f20;fill-opacity:1;fill-rule:nonzero;stroke:none"
             d="m 0,0 v 2.974 c 8.638,0.637 9.558,1.274 9.558,10.195 v 40.852 c 0,8.991 -0.121,11.424 -8.758,11.99 v 3.115 H 29.686 V 66.011 C 21.12,65.445 19.399,63.012 19.399,54.021 V 13.169 c 0,-8.921 0.921,-9.558 9.488,-10.195 V 0 Z" /></g><g
           transform="translate(265.4664,76.23)"
           id="g32"><path
             id="path34"
             style="fill:#231f20;fill-opacity:1;fill-rule:nonzero;stroke:none"
             d="m 0,0 c -5.876,-0.283 -9.225,-3.282 -9.721,-8.026 -0.354,-3.327 -0.637,-8 -0.637,-17.629 v -40.512 h -3.398 l -46.516,53.044 h -0.142 l -0.071,-25.276 c 0,-9.558 0.425,-14.443 0.708,-17.417 0.496,-5.381 2.903,-6.655 10.195,-7.221 v -2.974 h -25.346 v 2.974 c 6.089,0.424 8.779,1.77 9.275,6.938 0.425,3.257 0.849,8.142 0.849,17.7 v 22.231 c 0,7.576 0.446,9.639 -1.466,12.117 -2.194,2.549 -4.46,3.697 -9.416,4.051 v 3.115 h 16.284 l 44.3,-52.913 h 0.284 v 24.143 c 0,9.629 -0.425,14.302 -0.708,17.275 -0.496,4.886 -2.174,8.026 -9.75,8.38 V 3.115 L 0,3.115 Z" /></g><g
           transform="translate(304.1686,64.8767)"
           id="g36"><path
             id="path38"
             style="fill:#231f20;fill-opacity:1;fill-rule:nonzero;stroke:none"
             d="m 0,0 h -0.213 c -3.398,-8.567 -6.726,-17.417 -9.912,-25.771 H 9.274 Z m 10.407,-54.658 v 2.974 c 6.585,0.921 7.505,1.841 6.089,6.018 -1.486,4.106 -3.398,9.274 -5.664,15.222 h -22.727 c -1.77,-4.744 -3.186,-8.779 -4.531,-12.886 -2.265,-6.3 -1.416,-7.504 6.584,-8.354 v -2.974 h -23.364 v 2.974 c 6.868,1.061 8.354,1.77 12.106,10.974 l 22.233,54.258 3.681,0.921 c 6.797,-18.338 13.594,-36.984 20.603,-55.179 3.398,-9.133 4.886,-10.266 11.753,-10.974 v -2.974 z" /></g><g
           transform="translate(405.5494,26.9279)"
           id="g40"><path
             id="path42"
             style="fill:#231f20;fill-opacity:1;fill-rule:nonzero;stroke:none"
             d="m 0,0 c -0.707,-3.54 -2.902,-13.523 -3.965,-16.709 h -48.851 v 2.974 c 9.062,0.637 9.982,1.344 9.982,10.407 v 40.64 c 0,8.991 -0.708,11.424 -9.487,11.99 v 3.115 h 28.675 v -3.115 c -8.356,-0.566 -9.346,-2.928 -9.346,-11.99 V -2.974 c 0,-5.664 0.495,-7.646 2.477,-8.708 2.054,-1.132 5.664,-1.345 9.841,-1.345 5.594,0 9.346,0.636 11.754,3.328 1.983,1.982 3.965,5.381 5.734,10.336 z" /></g><g
           transform="translate(482.7164,29.6526)"
           id="g44"><path
             id="path46"
             style="fill:#231f20;fill-opacity:1;fill-rule:nonzero;stroke:none"
             d="m 0,0 c -1.416,-4.957 -4.319,-13.098 -6.159,-16.425 -3.115,-0.709 -12.461,-2.975 -20.32,-2.975 -27.33,0 -39.507,16.392 -39.507,32.747 0,21.806 17.63,36.108 42.197,36.108 9.062,0 16.709,-2.478 19.683,-2.974 0.849,-5.876 1.628,-10.336 2.265,-16.213 L -5.026,29.56 c -2.904,11.47 -9.984,16.001 -21.524,16.001 -18.054,0 -27.683,-14.585 -27.683,-30.02 0,-19.54 11.964,-30.905 28.603,-30.905 10.975,0 16.992,5.876 22.586,16.567 z" /></g><g
           transform="translate(531.3512,75.2136)"
           id="g48"><path
             id="path50"
             style="fill:#231f20;fill-opacity:1;fill-rule:nonzero;stroke:none"
             d="m 0,0 c -11.895,0 -23.223,-9.7 -23.223,-29.312 0,-19.044 11.257,-31.53 26.48,-31.53 11.894,0 22.798,7.6 22.798,27.636 C 26.055,-11.47 14.019,0 0.071,0 Z m 2.337,3.894 c 18.62,0 35.471,-13.594 35.471,-34.338 0,-22.373 -16.78,-34.293 -36.887,-34.293 -19.896,0 -35.755,12.77 -35.755,32.735 0,18.762 14.089,35.896 37.1,35.896 z" /></g></g></g></g></svg>