<?xml version="1.0" encoding="UTF-8" standalone="no"?>
<svg
   xmlns:dc="http://purl.org/dc/elements/1.1/"
   xmlns:cc="http://creativecommons.org/ns#"
   xmlns:rdf="http://www.w3.org/1999/02/22-rdf-syntax-ns#"
   xmlns:svg="http://www.w3.org/2000/svg"
   xmlns="http://www.w3.org/2000/svg"
   viewBox="0 0 1122.5197 793.70081"
   height="793.70081"
   width="1122.5197"
   xml:space="preserve"
   id="svg2"
   version="1.1"><metadata
     id="metadata8"><rdf:RDF><cc:Work
         rdf:about=""><dc:format>image/svg+xml</dc:format><dc:type
           rdf:resource="http://purl.org/dc/dcmitype/StillImage" /></cc:Work></rdf:RDF></metadata><defs
     id="defs6" /><g
     transform="matrix(1.3333333,0,0,-1.3333333,0,793.7008)"
     id="g10"><path
       id="path12"
       style="fill:#caa03a;fill-opacity:1;fill-rule:nonzero;stroke:none"
       d="M 75.6275,481.1352 H 60.0928 V 230.349 h 15.5347 z" /><path
       id="path14"
       style="fill:#caa03a;fill-opacity:1;fill-rule:nonzero;stroke:none"
       d="M 116.1527,481.1352 H 104.5015 V 230.349 h 11.6512 z" /><path
       id="path16"
       style="fill:#2b2b2a;fill-opacity:1;fill-rule:nonzero;stroke:none"
       d="m 152.7945,481.1352 h -7.7669 V 230.349 h 7.7669 z" /><path
       id="path18"
       style="fill:#2b2b2a;fill-opacity:1;fill-rule:nonzero;stroke:none"
       d="m 185.188,481.1352 h -3.8835 V 230.349 h 3.8835 z" /><path
       id="path20"
       style="fill:#2b2b2a;fill-opacity:1;fill-rule:nonzero;stroke:none"
       d="m 60.4806,174.882 v 24.4316 h 25.2819 v -3.6074 H 64.9616 V 189.322 H 75.422 v -3.5334 H 64.9616 v -7.3417 h 21.5767 v -3.5649 z" /><path
       id="path22"
       style="fill:#2b2b2a;fill-opacity:1;fill-rule:nonzero;stroke:none"
       d="m 122.2673,174.882 -9.4305,10.2793 -9.7518,-10.2793 h -5.7254 l 12.6008,13.2585 -10.1259,11.1731 h 5.4309 l 7.5714,-8.151 7.7051,8.151 h 5.5514 l -10.4077,-11.1731 12.2666,-13.2585 z" /><path
       id="path24"
       style="fill:#2b2b2a;fill-opacity:1;fill-rule:nonzero;stroke:none"
       d="m 153.9031,195.749 v -20.867 h -4.3744 v 20.867 H 138.587 v 3.5646 h 26.1377 v -3.5646 z" /><path
       id="path26"
       style="fill:#2b2b2a;fill-opacity:1;fill-rule:nonzero;stroke:none"
       d="m 198.6214,195.7808 h -13.7109 v -7.2142 h 13.7109 c 3.05,0 5.2299,1.1489 5.2299,3.7346 0,2.5535 -2.3006,3.4796 -5.2299,3.4796 z m 2.5951,-10.6518 6.3802,-10.247 h -5.0698 l -6.1667,10.1192 H 184.9105 V 174.882 h -4.4952 v 24.4313 h 18.2061 c 5.6049,0 9.6712,-2.5535 9.6712,-7.2037 0,-3.7029 -2.6354,-6.1293 -7.0761,-6.9806" /><path
       id="path28"
       style="fill:#2b2b2a;fill-opacity:1;fill-rule:nonzero;stroke:none"
       d="m 235.0191,194.9615 -4.8555,-8.5237 h 9.7245 z m 11.2901,-20.0797 -4.4144,7.9594 h -13.7914 l -4.5615,-7.9594 h -4.8688 l 13.9649,24.3995 h 4.9362 l 13.7509,-24.3995 z" /><path
       id="path30"
       style="fill:#2b2b2a;fill-opacity:1;fill-rule:nonzero;stroke:none"
       d="m 279.8175,196.4299 c -6.8355,0 -12.1062,-3.8942 -12.1062,-9.396 0,-5.2778 5.7254,-9.1403 12.1465,-9.1403 6.5945,0 12.0659,4.0649 12.0659,9.3639 0,5.374 -5.565,9.1724 -12.1062,9.1724 z m 0,-22.1437 c -9.3104,0 -16.5067,5.7991 -16.5067,13.1732 0,7.1722 7.7321,12.5779 16.547,12.5779 9.0961,0 16.5067,-5.6716 16.5067,-12.9714 0,-7.2039 -7.6513,-12.7797 -16.547,-12.7797" /><path
       id="path32"
       style="fill:#2b2b2a;fill-opacity:1;fill-rule:nonzero;stroke:none"
       d="m 331.6788,195.7808 h -13.7106 v -7.2142 h 13.7106 c 3.0503,0 5.2299,1.1489 5.2299,3.7346 0,2.5535 -2.3006,3.4796 -5.2299,3.4796 z m 2.5951,-10.6518 6.3805,-10.247 h -5.0698 l -6.1667,10.1192 H 317.9682 V 174.882 h -4.4952 v 24.4313 h 18.2058 c 5.6052,0 9.6715,-2.5535 9.6715,-7.2037 0,-3.7029 -2.6354,-6.1293 -7.0764,-6.9806" /><path
       id="path34"
       style="fill:#2b2b2a;fill-opacity:1;fill-rule:nonzero;stroke:none"
       d="M 372.1164,195.749 H 361.656 v -17.3024 h 10.5412 c 5.9652,0 9.845,3.9373 9.845,8.4807 0,4.7245 -3.585,8.8217 -9.9258,8.8217 z m 9.8856,-17.6321 c -2.8095,-2.3836 -5.7252,-3.2349 -9.8048,-3.2349 h -14.9426 v 24.4316 h 14.8216 c 8.3607,0 14.4873,-5.5018 14.4873,-12.1198 0,-3.3095 -1.7261,-6.6824 -4.5615,-9.0769" /><path
       id="path36"
       style="fill:#2b2b2a;fill-opacity:1;fill-rule:nonzero;stroke:none"
       d="m 402.0401,199.3136 h 4.4144 V 174.882 h -4.4144 z" /><path
       id="path38"
       style="fill:#2b2b2a;fill-opacity:1;fill-rule:nonzero;stroke:none"
       d="m 448.35,174.882 -18.5267,18.6001 V 174.882 h -4.4011 v 24.4316 h 4.3608 l 18.4867,-18.675 v 18.675 h 4.5346 V 174.882 Z" /><path
       id="path40"
       style="fill:#2b2b2a;fill-opacity:1;fill-rule:nonzero;stroke:none"
       d="m 482.8887,194.9615 -4.8558,-8.5237 h 9.7246 z m 11.2901,-20.0797 -4.4147,7.9594 h -13.7914 l -4.5615,-7.9594 h -4.8688 l 13.9649,24.3995 h 4.9363 l 13.7508,-24.3995 z" /><path
       id="path42"
       style="fill:#2b2b2a;fill-opacity:1;fill-rule:nonzero;stroke:none"
       d="m 531.3923,195.7808 h -13.7109 v -7.2142 h 13.7109 c 3.0504,0 5.2299,1.1489 5.2299,3.7346 0,2.5535 -2.3006,3.4796 -5.2299,3.4796 z m 2.5951,-10.6518 6.3803,-10.247 h -5.0695 l -6.1668,10.1192 h -11.45 V 174.882 h -4.4949 v 24.4313 h 18.2058 c 5.6052,0 9.6715,-2.5535 9.6715,-7.2037 0,-3.7029 -2.6356,-6.1293 -7.0764,-6.9806" /><path
       id="path44"
       style="fill:#2b2b2a;fill-opacity:1;fill-rule:nonzero;stroke:none"
       d="M 568.6597,185.4592 V 174.882 h -4.4408 v 10.5772 l -12.4803,13.8547 h 5.39 l 9.3909,-10.3542 9.2702,10.3542 h 5.5513 z" /><path
       id="path46"
       style="fill:#2b2b2a;fill-opacity:1;fill-rule:nonzero;stroke:none"
       d="m 629.0685,195.749 v -20.867 h -4.3741 v 20.867 h -10.9417 v 3.5646 h 26.1377 v -3.5646 z" /><path
       id="path48"
       style="fill:#2b2b2a;fill-opacity:1;fill-rule:nonzero;stroke:none"
       d="m 655.4341,199.3136 h 4.4144 V 174.882 h -4.4144 z" /><path
       id="path50"
       style="fill:#2b2b2a;fill-opacity:1;fill-rule:nonzero;stroke:none"
       d="m 679.0173,174.882 v 24.4316 h 4.4943 v -20.8667 h 18.6871 v -3.5649 z" /><path
       id="path52"
       style="fill:#2b2b2a;fill-opacity:1;fill-rule:nonzero;stroke:none"
       d="m 716.3379,174.882 v 24.4316 h 25.2822 v -3.6074 h -20.8012 v -6.3842 h 10.4607 v -3.5334 h -10.4607 v -7.3417 h 21.5771 v -3.5649 z" /><path
       id="path54"
       style="fill:#2b2b2a;fill-opacity:1;fill-rule:nonzero;stroke:none"
       d="m 769.4433,174.3182 c -6.26,0 -10.955,1.4474 -15.3564,5.012 l 3.13,2.3938 c 3.9464,-2.9154 7.4908,-3.7984 12.8418,-3.7984 3.4112,0 9.5108,0.8513 9.5108,4.3838 0,1.2129 -0.7889,2.139 -2.0602,2.7881 -1.6053,0.8195 -3.13,0.8833 -7.6513,0.9471 l -4.6151,0.0743 c -4.7749,0.0637 -9.1494,2.054 -9.1494,6.2461 0,3.5753 3.7588,5.9698 7.6649,6.9803 1.7255,0.4255 3.5447,0.6282 5.3105,0.6282 4.6145,0 9.0558,-1.1177 12.761,-3.3418 l -2.5147,-2.8514 c -3.3304,1.6385 -5.6715,2.5538 -9.6712,2.5538 -3.0101,0 -9.0159,-0.7555 -9.0159,-3.9266 0,-2.3941 2.7559,-2.8199 5.19,-2.8199 h 4.5748 c 3.4112,0 6.207,-0.032 9.2565,-1.4788 2.7556,-1.3088 4.3209,-3.5328 4.3209,-6.0868 0,-5.9267 -8.5207,-7.7038 -14.527,-7.7038" /><path
       id="path56"
       style="fill:#2b2b2a;fill-opacity:1;fill-rule:nonzero;stroke:none"
       d="m 223.1498,416.7539 v 64.3382 h 13.2891 v -51.1699 h 36.6367 v -13.1683 z" /><path
       id="path58"
       style="fill:#2b2b2a;fill-opacity:1;fill-rule:nonzero;stroke:none"
       d="M 315.9456,468.5457 303.5214,443.09 h 24.8488 z m 25.3347,-51.7918 -6.4474,13.5473 h -37.6382 l -6.4621,-13.5473 H 276.078 l 31.1746,64.3379 h 17.1431 l 31.5391,-64.3379 z" /><path
       id="path60"
       style="fill:#2b2b2a;fill-opacity:1;fill-rule:nonzero;stroke:none"
       d="M 236.6819,374.9743 V 363.172 h 23.3472 v -12.7888 h -23.3472 v -26.837 h -12.6672 v 64.3382 h 56.8888 v -12.9101 z" /><path
       id="path62"
       style="fill:#2b2b2a;fill-opacity:1;fill-rule:nonzero;stroke:none"
       d="m 315.9456,375.3386 -12.4242,-25.456 h 24.8488 z m 25.3347,-51.7919 -6.463,13.5474 h -37.6226 l -6.4621,-13.5474 H 276.078 l 31.1746,64.3377 h 17.1431 l 31.5391,-64.3377 z" /><path
       id="path64"
       style="fill:#2b2b2a;fill-opacity:1;fill-rule:nonzero;stroke:none"
       d="m 403.4186,351.1264 h -29.1878 v -14.6548 h 29.1878 c 5.2185,0 10.0578,1.2441 10.0578,7.4489 0,6.0831 -4.9609,7.2059 -10.0578,7.2059 z m 0,23.8479 h -29.1878 v -11.0591 h 29.1878 c 4.4753,0 6.4627,0.8796 6.4627,5.7192 0,4.3384 -2.6093,5.3399 -6.4627,5.3399 z m 0,-51.4281 H 361.442 v 64.3385 h 41.9766 c 5.5828,0 10.1794,-0.3645 14.4119,-4.46 3.4738,-3.3531 5.2185,-8.2075 5.2185,-12.9257 0,-5.3397 -0.8793,-7.6916 -4.354,-11.8024 5.2192,-4.2176 7.5855,-8.1921 7.5855,-15.0191 0,-13.6686 -10.0732,-20.1313 -22.8619,-20.1313" /><path
       id="path66"
       style="fill:#2b2b2a;fill-opacity:1;fill-rule:nonzero;stroke:none"
       d="m 482.578,351.1264 h -29.1878 v -14.6548 h 29.1878 c 5.2186,0 10.0582,1.2441 10.0582,7.4489 0,6.0831 -4.9609,7.2059 -10.0582,7.2059 z m 0,23.8479 h -29.1878 v -11.0591 h 29.1878 c 4.4754,0 6.463,0.8796 6.463,5.7192 0,4.3384 -2.6093,5.3399 -6.463,5.3399 z m 0,-51.4281 h -41.9766 v 64.3385 h 41.9766 c 5.5829,0 10.1795,-0.3645 14.4122,-4.46 3.4739,-3.3531 5.2183,-8.2075 5.2183,-12.9257 0,-5.3397 -0.8793,-7.6916 -4.3537,-11.8024 5.2188,-4.2176 7.5852,-8.1921 7.5852,-15.0191 0,-13.6686 -10.0732,-20.1313 -22.862,-20.1313" /><path
       id="path68"
       style="fill:#2b2b2a;fill-opacity:1;fill-rule:nonzero;stroke:none"
       d="m 564.4681,374.9743 h -28.6875 v -12.3029 h 30.9325 c 3.8381,0 7.1912,2.1234 7.1912,6.2197 0,5.7042 -4.9609,6.0832 -9.4362,6.0832 z m 8.0708,-51.4281 -16.2626,26.3364 h -20.4957 v -26.3364 h -13.0461 v 64.3382 h 43.9786 c 4.8396,0 8.3135,-0.6216 12.2885,-3.4738 5.097,-3.5952 7.9492,-9.6789 7.9492,-15.899 0,-9.6783 -5.4615,-15.7776 -14.4119,-18.629 l 16.2777,-26.3364 z" /><path
       id="path70"
       style="fill:#2b2b2a;fill-opacity:1;fill-rule:nonzero;stroke:none"
       d="m 600.6501,387.8844 h 12.6674 v -64.3382 h -12.6674 z" /><path
       id="path72"
       style="fill:#2b2b2a;fill-opacity:1;fill-rule:nonzero;stroke:none"
       d="m 668.4922,321.4378 c -20.253,0 -39.6255,11.3023 -39.6255,33.5418 0,21.4815 17.8863,35.0288 38.3811,35.0288 13.9116,0 21.9821,-4.3537 32.9202,-12.4251 l -7.585,-11.3014 c -7.6915,6.7047 -15.1557,10.5582 -25.5773,10.5582 -12.1821,0 -25.2289,-8.0706 -25.2289,-21.375 0,-13.7746 13.5471,-21.1019 25.8509,-21.1019 12.0455,0 17.871,2.6093 27.8223,9.0567 l 5.8255,-11.9242 c -12.0456,-7.5703 -18.3714,-10.0579 -32.7833,-10.0579" /><path
       id="path74"
       style="fill:#2b2b2a;fill-opacity:1;fill-rule:nonzero;stroke:none"
       d="m 744.0562,375.3386 -12.4242,-25.456 h 24.8488 z m 25.3347,-51.7919 -6.4627,13.5474 h -37.6229 l -6.4621,-13.5474 h -14.6546 l 31.1749,64.3377 h 17.1431 l 31.5388,-64.3377 z" /><path
       id="path76"
       style="fill:#2b2b2a;fill-opacity:1;fill-rule:nonzero;stroke:none"
       d="m 246.6187,282.1311 -12.4245,-25.4559 h 24.8488 z m 25.3344,-51.7918 -6.4627,13.5474 h -37.6229 l -6.4618,-13.5474 h -14.6549 l 31.1746,64.3377 h 17.1434 l 31.5391,-64.3377 z" /><path
       id="path78"
       style="fill:#2b2b2a;fill-opacity:1;fill-rule:nonzero;stroke:none"
       d="m 324.0241,230.3391 h -16.5206 l -30.4325,64.3385 h 14.3975 l 24.2268,-51.2915 24.7128,51.2915 h 14.5332 z" /><path
       id="path80"
       style="fill:#2b2b2a;fill-opacity:1;fill-rule:nonzero;stroke:none"
       d="m 382.3486,282.1311 -12.4245,-25.4559 h 24.8488 z m 25.3344,-51.7918 -6.4471,13.5474 h -37.6376 l -6.4627,-13.5474 h -14.6548 l 31.1754,64.3377 h 17.1425 l 31.5391,-64.3377 z" /></g></svg>