<?xml version="1.0" standalone="no"?>
<!DOCTYPE svg PUBLIC "-//W3C//DTD SVG 20010904//EN"
 "http://www.w3.org/TR/2001/REC-SVG-20010904/DTD/svg10.dtd">
<svg version="1.0" xmlns="http://www.w3.org/2000/svg"
 width="300.000000pt" height="73.000000pt" viewBox="0 0 300.000000 73.000000"
 preserveAspectRatio="xMidYMid meet">

<g transform="translate(0.000000,73.000000) scale(0.100000,-0.100000)"
fill="#000000" stroke="none">
<path d="M124 716 c-14 -37 -121 -692 -113 -696 4 -3 37 -6 71 -5 l63 0 32
205 c17 113 32 210 33 215 0 6 37 -87 81 -205 43 -117 85 -218 92 -222 29 -19
43 4 121 209 45 117 83 213 86 213 3 0 18 -91 33 -202 15 -111 30 -204 33
-207 6 -7 105 -11 125 -5 13 4 8 48 -38 342 -29 185 -54 344 -55 352 -4 18
-93 23 -106 6 -5 -6 -44 -107 -88 -223 -43 -117 -82 -213 -85 -213 -3 0 -45
99 -93 220 -48 121 -93 221 -99 221 -58 6 -89 5 -93 -5z"/>
<path d="M1745 708 c-18 -16 -26 -34 -27 -57 -3 -89 137 -97 158 -9 5 22 0 33
-24 58 -36 36 -71 39 -107 8z"/>
<path d="M1450 545 c0 -76 -4 -82 -42 -76 -5 0 -8 -23 -8 -53 0 -49 2 -55 23
-58 22 -3 22 -5 24 -173 l2 -169 65 -1 66 -1 0 173 0 173 45 0 45 0 0 50 c0
53 1 52 -60 54 -24 1 -25 4 -28 79 l-3 77 -64 0 -65 0 0 -75z"/>
<path d="M2185 465 c-16 -9 -36 -23 -42 -32 -12 -15 -13 -14 -13 9 0 26 -1 26
-67 24 l-68 -1 -3 -223 -2 -222 47 -1 c27 0 58 -2 71 -3 22 -3 22 -2 22 133 0
165 9 204 50 221 42 17 85 -1 99 -42 6 -17 11 -94 11 -172 l0 -141 65 0 65 0
0 167 c0 188 -10 233 -62 269 -39 28 -132 36 -173 14z"/>
<path d="M2645 461 c-73 -33 -124 -111 -132 -200 -10 -113 61 -225 159 -251
56 -16 123 -7 159 19 22 16 29 18 29 7 0 -10 15 -15 54 -18 94 -6 86 -25 86
228 l0 224 -54 0 c-63 0 -86 -7 -86 -25 0 -10 -13 -7 -42 10 -52 30 -116 32
-173 6z m193 -131 c74 -73 37 -197 -64 -215 -84 -16 -153 101 -109 185 21 41
53 60 101 60 34 0 49 -6 72 -30z"/>
<path d="M880 313 c0 -183 8 -220 55 -262 81 -71 247 -68 320 5 43 43 55 100
55 269 0 134 0 135 -24 141 -13 3 -44 4 -67 2 l-44 -4 -5 -156 c-4 -135 -8
-159 -24 -177 -41 -45 -124 -14 -128 48 -1 14 -2 35 -3 46 -1 11 -3 70 -4 130
l-1 110 -65 3 -65 3 0 -158z"/>
<path d="M1730 239 l0 -227 65 0 65 0 0 223 0 223 -65 4 -65 3 0 -226z"/>
</g>
</svg>
