<?xml version="1.0" standalone="no"?>
<!DOCTYPE svg PUBLIC "-//W3C//DTD SVG 20010904//EN"
 "http://www.w3.org/TR/2001/REC-SVG-20010904/DTD/svg10.dtd">
<svg version="1.0" xmlns="http://www.w3.org/2000/svg"
 width="900.000000pt" height="600.000000pt" viewBox="0 0 900.000000 600.000000"
 preserveAspectRatio="xMidYMid meet">

<g transform="translate(0.000000,600.000000) scale(0.100000,-0.100000)"
fill="#000000" stroke="none">
<path d="M0 3000 l0 -3000 2228 0 c1769 0 2231 3 2241 12 11 11 12 10 7 0 -6
-10 21 -12 133 -11 141 1 141 1 141 24 0 13 4 27 10 30 13 8 13 25 0 25 -5 0
-10 -8 -11 -17 0 -13 -3 -11 -10 7 -7 17 -7 26 0 28 22 7 10 23 -11 17 -39
-12 -41 -11 -45 24 -3 24 2 43 17 63 16 22 17 28 6 28 -16 0 -31 34 -21 50 3
5 12 10 20 10 17 0 25 23 14 41 -5 8 -9 28 -9 44 0 23 3 26 10 15 10 -17 62
-22 57 -5 -3 5 -14 9 -26 8 -13 -2 -20 1 -16 7 3 6 14 10 23 11 14 0 14 2 2 6
-8 4 -21 12 -28 20 -11 11 -11 14 1 19 9 3 18 12 21 20 3 8 2 12 -3 9 -5 -3
-13 0 -16 5 -8 14 -115 63 -122 57 -2 -3 -16 6 -30 19 -14 13 -30 24 -36 24
-6 0 -92 40 -191 89 -191 95 -212 103 -208 84 1 -7 -3 -13 -9 -13 -6 0 -9 9
-6 20 6 23 -11 31 -38 17 -17 -9 -18 -8 -8 5 11 12 -6 23 -108 72 -104 50
-122 56 -137 44 -15 -11 -16 -11 -4 3 11 15 0 23 -100 72 -156 76 -1006 496
-1510 744 -234 116 -414 211 -411 216 4 6 1 7 -6 3 -7 -5 -21 0 -33 11 -11 10
-21 17 -22 15 0 -2 -12 1 -26 7 -14 5 -20 10 -13 10 12 1 12 18 0 39 -5 7 -4
12 2 12 18 0 12 18 -6 23 -14 4 -13 5 4 6 12 0 25 6 29 12 4 7 0 9 -12 5 -11
-3 -26 -1 -34 4 -13 9 -13 11 -1 19 12 8 12 12 2 24 -10 13 -8 17 9 22 23 7
49 -9 36 -22 -4 -4 -11 -1 -16 7 -5 8 -12 11 -17 7 -4 -5 -1 -12 7 -18 13 -8
13 -10 0 -18 -8 -6 -11 -13 -7 -17 8 -9 57 46 57 64 0 7 -4 11 -9 8 -15 -10
-41 5 -39 22 1 10 0 33 -1 52 -2 28 -4 31 -10 15 -7 -16 -9 -13 -15 19 -4 21
-5 41 -2 44 3 3 6 -3 7 -14 0 -18 1 -18 8 1 5 11 4 25 -1 33 -6 6 -6 12 -1 12
5 0 10 12 11 28 1 15 9 32 17 38 8 6 15 15 15 19 0 4 -7 2 -16 -6 -13 -11 -15
-11 -14 2 6 40 -1 59 -25 65 -14 3 -25 10 -25 14 0 5 14 4 32 -1 17 -5 34 -6
37 -4 2 3 -1 5 -8 5 -7 0 -9 9 -5 25 4 17 2 25 -7 25 -9 0 -10 3 -4 8 12 8 14
32 3 32 -5 0 -13 0 -19 0 -5 0 -7 -6 -3 -12 4 -7 3 -9 -1 -5 -14 12 -15 38 -2
30 8 -5 8 -2 0 9 -7 8 -10 18 -6 21 3 4 -2 9 -11 13 -9 3 -16 10 -16 15 0 6 8
5 19 -1 28 -14 30 -13 23 13 -5 20 -4 21 11 8 15 -12 17 -11 17 7 0 23 -31 25
-42 2 -3 -8 -6 4 -5 27 1 39 17 52 17 14 0 -13 7 -18 23 -18 18 0 22 5 22 32
0 18 -3 36 -7 40 -4 4 -5 -1 -2 -12 4 -18 -11 -52 -19 -43 -3 3 -7 16 -11 30
-3 14 -3 19 0 13 3 -7 10 -13 16 -13 6 0 4 8 -5 18 -10 10 -17 26 -17 35 0 9
-5 17 -12 17 -6 0 -9 3 -5 6 3 3 48 -6 100 -21 51 -14 100 -27 108 -28 8 -2
20 -6 27 -10 7 -5 22 -5 35 -2 18 5 19 4 7 -5 -12 -10 -11 -11 7 -7 12 3 23 1
25 -5 2 -5 25 -12 52 -14 27 -3 54 -7 59 -11 6 -3 7 -1 3 5 -9 15 13 27 27 13
16 -16 30 -13 23 5 -5 14 -4 15 9 4 8 -7 12 -16 9 -21 -3 -5 2 -9 11 -9 9 0
14 4 10 10 -3 5 7 8 25 5 16 -2 30 0 30 3 0 9 51 14 145 14 111 1 123 -1 139
-18 15 -14 16 3 16 184 l0 200 45 4 c25 2 45 0 45 -3 0 -4 15 -9 33 -12 58
-10 436 -94 727 -161 l285 -66 130 15 c72 9 139 18 150 22 11 4 33 6 50 4 28
-2 29 -1 10 13 -11 8 -24 12 -29 9 -5 -4 -6 5 -2 21 4 15 2 26 -4 26 -5 0 -10
5 -10 11 0 6 -25 36 -56 66 -30 30 -52 58 -49 61 3 4 10 0 14 -7 5 -8 11 -9
15 -3 6 10 -21 27 -37 23 -4 -1 -3 8 3 20 11 19 10 20 -9 9 -13 -7 -21 -7 -21
-1 0 6 -10 20 -23 31 l-22 21 30 -6 c23 -5 26 -4 15 4 -9 6 -37 8 -67 5 -34
-3 -53 -1 -53 5 0 6 6 11 14 11 9 0 12 7 9 20 -4 14 0 20 11 20 9 0 16 5 16
11 0 7 -11 8 -31 4 -20 -5 -29 -3 -25 3 7 12 -28 44 -39 35 -5 -5 -3 0 4 9 7
9 10 22 6 27 -3 6 1 24 10 40 8 16 12 38 8 48 -6 14 -2 13 17 -5 27 -25 41
-22 16 3 -18 19 -20 27 -6 41 15 15 -4 34 -28 27 -12 -3 -20 -8 -18 -12 2 -3
-3 -12 -11 -20 -13 -12 -14 -11 -8 8 4 12 2 21 -4 21 -6 0 -11 5 -11 10 0 6 7
10 15 10 8 0 15 5 15 10 0 6 9 10 21 10 11 0 18 4 15 9 -3 5 -22 8 -41 6 -19
-2 -35 1 -35 6 0 5 8 8 18 7 33 -3 52 2 52 13 0 6 -7 9 -15 5 -8 -3 -15 -2
-15 3 0 5 9 11 20 14 16 4 20 0 21 -21 0 -26 1 -26 9 -5 6 15 4 32 -7 53 -15
31 -10 57 7 30 5 -8 12 -11 17 -7 4 5 1 12 -7 18 -13 8 -13 10 0 19 13 9 13
11 0 20 -8 5 -11 10 -6 10 11 0 -25 29 -36 30 -5 0 -8 -4 -8 -10 0 -5 8 -10
18 -10 15 -1 15 -2 -3 -16 -17 -12 -18 -16 -5 -24 8 -5 11 -12 7 -17 -5 -4
-12 -1 -17 7 -6 10 -10 11 -10 3 0 -7 6 -18 13 -25 17 -15 10 -48 -9 -48 -8 0
-14 5 -14 10 0 6 4 10 10 10 6 0 5 10 -2 25 -12 27 -24 32 -31 13 -3 -8 -6 -6
-6 5 -1 11 6 17 19 17 21 0 27 15 10 25 -6 3 -10 11 -10 18 0 6 6 2 14 -9 14
-18 15 -18 12 9 -1 15 -6 30 -9 34 -4 3 -7 18 -6 32 1 24 2 23 10 -6 10 -36
23 -41 45 -18 14 13 13 15 -7 13 -14 -2 -23 3 -24 15 -4 20 6 22 23 5 9 -9 12
-5 12 19 0 22 6 33 18 36 13 4 12 5 -5 6 -26 1 -37 16 -26 34 12 19 14 47 3
47 -6 0 -10 -7 -10 -15 0 -8 -7 -15 -15 -15 -9 0 -12 6 -9 15 4 8 2 15 -3 15
-5 0 -9 9 -9 20 0 11 4 20 8 20 4 0 8 -7 8 -15 0 -8 7 -15 16 -15 10 0 14 6
10 15 -3 8 -1 15 4 15 5 0 7 6 4 14 -3 8 0 17 6 21 7 4 8 10 4 14 -11 8 -44
70 -44 82 0 6 5 7 11 3 9 -5 10 1 5 22 -4 19 -3 24 3 15 8 -12 10 -12 14 0 2
8 3 1 1 -16 -3 -25 -2 -27 7 -12 6 10 8 29 5 43 -4 14 -2 24 4 24 6 0 9 4 5
10 -3 5 -12 7 -20 4 -18 -7 -9 33 13 59 15 16 14 17 -3 11 -15 -6 -17 -4 -10
12 17 42 19 68 3 62 -11 -5 -13 1 -10 25 4 28 6 29 18 12 13 -18 14 -17 14 6
0 20 2 21 11 9 9 -13 10 -13 6 0 -2 8 -12 14 -21 14 -9 -1 -16 3 -16 8 0 5 -9
6 -20 3 -17 -5 -20 -2 -19 22 1 23 2 24 7 8 9 -25 45 -31 38 -6 -11 37 -17
125 -8 113 7 -11 10 -11 15 3 4 9 3 14 -1 11 -5 -3 -21 3 -36 14 -27 17 -28
18 -7 25 27 8 27 21 -1 30 -19 7 -16 9 22 15 38 6 41 7 15 10 -16 2 -35 3 -42
3 -13 -1 -5 28 11 39 6 4 7 10 3 14 -4 4 -14 -1 -22 -12 -8 -10 -15 -14 -15
-8 0 17 24 64 34 64 5 0 4 6 -2 13 -7 7 -10 30 -9 50 2 20 0 37 -4 37 -4 0 -9
11 -11 25 -4 20 -3 23 8 14 7 -6 18 -8 25 -4 6 4 15 2 19 -6 7 -10 11 -10 24
0 14 12 16 9 16 -28 0 -23 -4 -40 -8 -37 -4 2 -9 -7 -10 -22 -4 -50 19 -7 27
51 l7 55 -25 -5 c-21 -3 -24 -2 -13 9 7 7 20 13 30 13 9 0 17 7 17 15 0 9 -9
15 -22 14 -13 0 -23 3 -23 8 0 4 5 8 10 8 6 0 10 5 10 11 0 6 -9 8 -20 4 -18
-6 -20 -3 -15 22 6 27 6 27 -9 9 -17 -21 -21 -42 -17 -88 1 -16 -3 -28 -8 -28
-6 0 -11 17 -12 38 -1 52 -8 92 -21 116 -8 15 -8 21 1 24 7 2 8 14 5 29 -5 19
-4 24 6 18 8 -5 10 -20 7 -43 -6 -32 -5 -33 8 -16 14 18 14 18 15 -2 0 -11 -5
-25 -12 -32 -6 -6 -8 -15 -4 -19 11 -11 46 38 45 62 -1 18 -2 18 -6 2 -4 -15
-8 -12 -23 15 -10 18 -15 37 -12 42 3 5 9 1 13 -10 7 -18 8 -18 8 3 1 12 7 23
13 26 9 3 5 12 -12 27 -18 16 -21 24 -11 28 23 8 71 64 71 83 0 12 -7 19 -18
19 -13 0 -18 -7 -18 -22 1 -14 -5 -23 -14 -23 -9 0 -15 10 -16 28 -1 21 5 29
22 33 13 4 24 12 24 19 0 8 8 16 18 18 10 3 6 5 -11 6 -29 1 -52 37 -36 57 4
5 6 20 2 32 -3 12 -1 28 5 35 5 6 12 23 14 37 3 22 -2 26 -32 32 -33 6 -32 6
9 5 l44 -2 0 -57 c-1 -32 3 -58 8 -58 10 0 13 21 10 57 -1 12 3 24 9 28 5 3
10 1 10 -5 0 -7 6 -10 14 -7 9 4 17 -1 19 -11 4 -15 5 -15 6 1 1 10 -9 21 -24
27 -29 11 -33 27 -7 33 10 3 6 5 -11 6 -20 1 -30 8 -37 27 -7 17 -15 24 -25
20 -12 -4 -14 0 -9 19 4 15 1 32 -6 40 -10 12 -9 15 4 15 18 0 22 15 6 25 -12
8 -13 35 -1 35 5 0 12 -12 15 -26 4 -15 9 -24 12 -21 3 3 -2 21 -10 41 -13 31
-13 36 0 36 7 0 14 -9 14 -21 0 -11 4 -18 9 -15 5 3 7 19 5 36 -2 18 1 30 8
30 7 0 4 6 -7 13 -13 10 -16 21 -11 41 6 24 4 26 -18 20 -13 -3 -27 -1 -30 5
-4 7 1 11 12 11 11 0 22 7 26 15 5 13 2 14 -15 4 -15 -8 -24 -8 -32 0 -8 8
-537 11 -1864 11 l-1853 0 0 -3000z m3760 2926 c0 -3 -4 -8 -10 -11 -5 -3 -10
-1 -10 4 0 6 5 11 10 11 6 0 10 -2 10 -4z m-70 -16 c0 -5 -10 -10 -22 -9 -22
0 -22 1 -3 9 11 5 21 9 23 9 1 1 2 -3 2 -9z m40 -72 c0 -4 -4 -8 -9 -8 -6 0
-12 4 -15 8 -3 5 1 9 9 9 8 0 15 -4 15 -9z m-20 -38 c0 -5 -4 -10 -10 -10 -5
0 -10 5 -10 10 0 6 5 10 10 10 6 0 10 -4 10 -10z m10 -91 c0 -5 -7 -9 -15 -9
-15 0 -20 12 -9 23 8 8 24 -1 24 -14z m40 -59 c0 -6 -11 -8 -27 -4 -40 10 -41
14 -5 14 18 0 32 -5 32 -10z m-83 -52 c-3 -8 -6 -5 -6 6 -1 11 2 17 5 13 3 -3
4 -12 1 -19z m71 -186 c4 -14 -34 -16 -42 -3 -6 10 13 21 28 17 6 -1 12 -8 14
-14z m-28 -192 c0 -5 -4 -10 -10 -10 -5 0 -10 5 -10 10 0 6 5 10 10 10 6 0 10
-4 10 -10z m-1699 -59 c-12 -21 -40 -23 -38 -2 0 11 9 17 23 17 17 0 21 -4 15
-15z m-40 -54 c-21 -21 -22 -21 -19 -2 2 11 10 23 18 26 25 11 25 0 1 -24z
m-116 -35 c-3 -3 -11 0 -18 7 -9 10 -8 11 6 5 10 -3 15 -9 12 -12z m98 -31
c-5 -18 -33 -38 -33 -24 0 6 30 43 36 43 1 0 0 -9 -3 -19z m1827 -41 c0 -5 -4
-10 -10 -10 -5 0 -10 5 -10 10 0 6 5 10 10 10 6 0 10 -4 10 -10z m-50 -10 c0
-5 -4 -10 -10 -10 -5 0 -10 5 -10 10 0 6 5 10 10 10 6 0 10 -4 10 -10z m-1740
-60 c-11 -21 -30 -19 -30 3 0 7 4 6 10 -3 8 -13 10 -12 10 3 0 9 5 17 10 17 7
0 7 -7 0 -20z m1677 -72 c-3 -8 -6 -5 -6 6 -1 11 2 17 5 13 3 -3 4 -12 1 -19z
m-1478 -89 c-55 -93 -60 -101 -65 -97 -7 8 27 98 38 98 5 0 7 3 4 8 -8 13 22
44 35 36 9 -5 10 -2 5 12 -5 14 -4 16 4 8 8 -9 3 -25 -21 -65z m451 37 c0 -2
-7 -7 -16 -10 -8 -3 -12 -2 -9 4 6 10 25 14 25 6z m-440 -95 c0 -12 -20 -25
-27 -18 -7 7 6 27 18 27 5 0 9 -4 9 -9z m-119 -48 c13 -17 13 -17 -6 -3 -11 8
-22 16 -24 17 -2 2 0 3 6 3 6 0 17 -8 24 -17z m1613 -86 c-4 -12 -2 -17 4 -13
6 4 8 -2 4 -16 -5 -19 -7 -20 -10 -5 -2 9 -8 17 -14 17 -7 0 -7 4 1 13 7 9 7
17 0 24 -5 5 -6 18 -3 28 7 17 8 16 16 -5 5 -13 6 -32 2 -43z m-1957 -32 c0
-8 -4 -12 -9 -9 -5 3 -6 10 -3 15 9 13 12 11 12 -6z m1973 -309 c0 -2 -7 -6
-15 -10 -8 -3 -15 -1 -15 4 0 6 7 10 15 10 8 0 15 -2 15 -4z m-33 -48 c-3 -8
-6 -5 -6 6 -1 11 2 17 5 13 3 -3 4 -12 1 -19z m23 -113 c0 -1 -6 -7 -13 -13
-10 -8 -13 -6 -13 7 0 11 6 17 13 14 7 -3 13 -6 13 -8z m-4 -173 c-10 -2 -22
0 -28 6 -6 6 0 7 19 4 21 -5 23 -7 9 -10z m14 -22 c0 -5 -7 -10 -16 -10 -8 0
-12 5 -9 10 3 6 10 10 16 10 5 0 9 -4 9 -10z m10 -140 c0 -5 -4 -10 -10 -10
-5 0 -10 5 -10 10 0 6 5 10 10 10 6 0 10 -4 10 -10z m-60 -100 c0 -5 -4 -10
-10 -10 -5 0 -10 5 -10 10 0 6 5 10 10 10 6 0 10 -4 10 -10z m11 -201 c-8 -22
-9 -22 -9 9 1 19 5 29 10 24 5 -5 5 -19 -1 -33z m-31 -84 c0 -8 -2 -15 -4 -15
-2 0 -6 7 -10 15 -3 8 -1 15 4 15 6 0 10 -7 10 -15z m67 -72 c-2 -2 -26 0 -53
4 -45 6 -46 8 -19 13 26 5 81 -7 72 -17z m-934 -130 c-7 -2 -19 -2 -25 0 -7 3
-2 5 12 5 14 0 19 -2 13 -5z m-96 -9 c-3 -3 -12 -4 -19 -1 -8 3 -5 6 6 6 11 1
17 -2 13 -5z m1283 -125 c0 -6 -4 -7 -10 -4 -5 3 -10 11 -10 16 0 6 5 7 10 4
6 -3 10 -11 10 -16z m-2287 -216 c-7 -17 -33 -25 -33 -9 0 8 -6 17 -12 19 -8
3 -6 6 5 6 11 1 17 9 17 24 0 22 1 22 13 -3 8 -14 12 -30 10 -37z m362 -33
c-3 -5 -12 -10 -18 -10 -7 0 -6 4 3 10 19 12 23 12 15 0z m-395 -92 c0 -4 -9
-8 -20 -8 -11 0 -20 4 -20 8 0 4 9 8 20 8 11 0 20 -4 20 -8z m20 -58 c0 -16
-2 -30 -4 -30 -2 0 -6 14 -8 30 -3 17 -1 30 4 30 4 0 8 -13 8 -30z m23 -196
c8 -8 -3 -34 -15 -34 -5 0 -6 5 -2 12 5 8 2 9 -9 5 -10 -3 -17 -2 -17 2 0 14
32 25 43 15z m-509 -1099 c28 -13 98 -33 156 -44 l105 -20 -120 3 c-66 2 -131
8 -145 14 -40 16 -90 67 -90 90 l0 22 21 -21 c12 -12 44 -32 73 -44z m2742
-499 c1 -10 0 -15 -3 -12 -4 3 -11 2 -18 -4 -8 -6 -11 -2 -11 14 0 28 28 29
32 2z m-99 -42 c-3 -3 -12 -4 -19 -1 -8 3 -5 6 6 6 11 1 17 -2 13 -5z m267
-26 c-5 -8 -1 -9 12 -5 16 6 16 5 -3 -10 -16 -13 -21 -27 -18 -50 2 -23 -4
-40 -21 -58 -13 -14 -26 -25 -30 -25 -11 0 -33 34 -33 50 0 10 3 8 9 -5 7 -16
9 -12 10 20 l2 40 13 -40 13 -40 1 38 c1 20 6 37 11 37 6 0 10 8 10 18 0 10 5
23 12 30 15 15 21 15 12 0z m-184 -18 c0 -5 -5 -10 -11 -10 -5 0 -7 5 -4 10 3
6 8 10 11 10 2 0 4 -4 4 -10z m25 -19 c-3 -6 -11 -11 -16 -11 -5 0 -4 6 3 14
14 16 24 13 13 -3z m56 4 c5 4 6 -1 3 -9 -8 -20 -24 -11 -23 12 0 11 2 12 6 4
2 -6 9 -10 14 -7z m119 -5 c0 -5 -5 -10 -11 -10 -5 0 -7 5 -4 10 3 6 8 10 11
10 2 0 4 -4 4 -10z m-109 -33 c-10 -9 -11 -8 -5 6 3 10 9 15 12 12 3 -3 0 -11
-7 -18z m129 13 c-13 -9 -13 -10 0 -10 13 0 13 -1 0 -10 -13 -8 -13 -10 -1
-10 11 0 9 -4 -5 -15 -23 -17 -34 -19 -34 -5 0 6 8 10 18 10 13 0 14 2 3 9
-11 7 -11 9 0 14 9 4 7 6 -6 7 l-20 1 20 9 c27 12 43 12 25 0z m-170 -71 c6
-10 5 -16 -3 -16 -7 0 -19 16 -29 34 -16 34 -16 34 4 16 11 -10 24 -25 28 -34z
m23 11 c2 -14 2 -19 0 -12 -3 6 -9 12 -14 12 -5 0 -9 10 -9 22 0 28 17 12 23
-22z m168 1 c-7 -5 -11 -17 -9 -27 2 -13 -4 -20 -19 -22 -13 -2 -23 -7 -23
-12 0 -5 6 -7 13 -4 8 3 20 -2 27 -11 11 -13 10 -22 -3 -55 -12 -31 -12 -40
-3 -40 7 0 18 10 24 23 9 19 10 18 8 -15 -1 -21 -6 -41 -10 -45 -5 -5 -6 1 -2
12 5 18 1 20 -36 20 -28 0 -42 5 -45 15 -4 13 -3 13 6 0 9 -13 11 -13 11 3 0
10 -8 17 -20 17 -11 0 -20 4 -20 10 0 5 7 7 15 4 8 -4 15 -2 15 4 0 6 -8 9
-17 7 -10 -2 -21 -4 -26 -4 -10 -1 0 -53 12 -61 12 -7 3 -50 -10 -50 -5 0 -9
6 -9 14 0 7 -9 16 -20 19 -11 3 -20 10 -20 17 0 6 4 9 8 6 12 -7 28 25 27 55
-1 20 4 25 20 23 11 -1 25 -3 31 -3 6 -1 15 -16 18 -33 l7 -33 19 35 c22 40
24 50 10 50 -5 0 -10 -8 -10 -18 0 -29 -12 -34 -24 -9 -7 13 -20 22 -34 21
-17 -1 -22 4 -22 22 0 17 6 24 20 24 11 0 20 5 20 10 0 6 7 10 15 10 8 0 15 3
15 8 0 8 43 30 50 24 2 -1 -1 -7 -9 -11z m-230 -38 c-9 -16 -10 -15 -9 9 2 16
6 24 11 19 5 -5 5 -17 -2 -28z m256 5 c-3 -7 -5 -2 -5 12 0 14 2 19 5 13 2 -7
2 -19 0 -25z m-210 -40 c-3 -8 -6 -5 -6 6 -1 11 2 17 5 13 3 -3 4 -12 1 -19z
m479 0 c-1 -14 4 -22 12 -20 7 1 15 -5 18 -13 4 -8 13 -15 21 -15 11 0 13 -5
8 -17 -16 -38 -16 -50 -1 -62 25 -21 56 -4 57 32 1 32 1 32 13 -8 l12 -40 8
29 c4 15 9 26 11 24 3 -2 0 -21 -6 -41 -7 -25 -14 -34 -24 -30 -8 3 -15 0 -15
-6 0 -6 3 -10 8 -10 19 3 33 -2 27 -11 -4 -6 5 -10 19 -10 14 0 26 -4 26 -10
0 -5 -19 -10 -42 -10 -23 0 -38 -3 -35 -6 3 -4 2 -15 -4 -25 -7 -15 -6 -19 5
-19 17 0 31 -34 20 -51 -4 -8 1 -9 16 -4 15 5 20 4 16 -4 -4 -6 -18 -11 -32
-11 -13 0 -24 -3 -24 -7 0 -5 -3 -18 -6 -30 -6 -21 -4 -22 27 -16 32 6 33 5
19 -13 -22 -29 -24 -30 -17 -12 4 10 3 18 -2 18 -5 0 -11 -9 -14 -20 -3 -12
-13 -20 -24 -19 -16 1 -16 2 0 6 19 5 23 21 5 20 -38 -1 -50 3 -41 15 12 15
23 68 14 68 -10 0 -30 50 -21 55 4 3 10 -5 13 -17 4 -12 9 -19 13 -15 10 10
13 87 3 93 -4 2 -6 11 -2 19 4 11 -3 15 -28 15 -32 -1 -33 -1 -15 -15 17 -13
15 -19 -5 -17 -4 1 -10 -14 -13 -33 -7 -34 -36 -51 -36 -21 0 15 -29 30 -39
21 -3 -3 1 -10 9 -15 7 -5 14 -17 15 -28 1 -15 -3 -18 -19 -14 -17 4 -19 2 -8
-9 15 -16 16 -33 1 -23 -8 4 -10 -7 -8 -39 3 -35 1 -43 -8 -35 -7 6 -11 26 -8
51 2 23 -1 47 -7 54 -8 10 -6 13 6 13 20 0 20 5 0 35 -15 23 -15 25 -1 25 12
0 15 7 11 33 -3 17 -6 39 -8 47 -1 9 -5 21 -10 28 -5 8 1 12 20 12 22 0 24 -3
15 -14 -10 -12 -8 -17 8 -25 25 -14 31 -14 31 -1 0 6 -7 10 -16 10 -13 0 -14
3 -5 13 8 10 7 19 -5 33 -8 10 -13 13 -9 7 13 -27 -15 -11 -32 17 -10 17 -23
28 -30 26 -15 -6 -15 -4 -7 18 3 9 11 13 18 9 14 -10 56 -11 56 -2 0 4 -6 9
-12 12 -7 2 3 9 22 15 19 6 35 11 36 11 0 1 0 -9 0 -21z m131 -45 c-3 -10 -5
-4 -5 12 0 17 2 24 5 18 2 -7 2 -21 0 -30z m127 -34 c-3 -5 -10 -9 -15 -9 -6
0 -7 5 -3 11 4 8 -1 9 -17 5 -13 -3 -18 -3 -11 0 6 3 10 10 6 15 -3 5 6 4 20
-2 14 -7 23 -16 20 -20z m-764 11 c0 -5 -4 -10 -10 -10 -5 0 -10 5 -10 10 0 6
5 10 10 10 6 0 10 -4 10 -10z m247 -12 c-3 -8 -6 -5 -6 6 -1 11 2 17 5 13 3
-3 4 -12 1 -19z m363 10 c0 -7 -5 -20 -10 -28 -7 -12 -12 -12 -22 -2 -9 9 -9
12 0 12 7 0 12 7 12 15 0 8 5 15 10 15 6 0 10 -6 10 -12z m-652 -10 c-2 -6
-10 -13 -16 -14 -7 -1 -8 0 -2 3 5 2 8 9 4 14 -3 5 0 9 6 9 7 0 10 -5 8 -12z
m455 -2 c4 -10 1 -13 -8 -9 -8 3 -12 9 -9 14 7 12 11 11 17 -5z m-86 -22 c-3
-3 -12 -4 -19 -1 -8 3 -5 6 6 6 11 1 17 -2 13 -5z m-291 -18 c15 -16 18 -26 6
-26 -4 0 -13 9 -20 20 -14 23 -7 26 14 6z m649 -44 c-3 -3 -5 1 -5 9 0 12 -2
11 -11 -1 -9 -12 -10 -12 -5 3 3 10 6 24 7 30 0 7 5 1 10 -12 5 -13 7 -26 4
-29z m65 28 c0 -11 -4 -20 -8 -20 -4 0 -8 9 -8 20 0 11 4 20 8 20 4 0 8 -9 8
-20z m-582 3 c-10 -2 -18 -9 -18 -14 0 -5 -5 -9 -11 -9 -8 0 -8 5 1 15 7 8 20
14 29 14 13 -1 13 -2 -1 -6z m-363 -13 c3 -6 -1 -7 -9 -4 -18 7 -21 14 -7 14
6 0 13 -4 16 -10z m220 -20 c-3 -5 -11 -10 -16 -10 -6 0 -7 5 -4 10 3 6 11 10
16 10 6 0 7 -4 4 -10z m150 0 c-3 -5 -11 -10 -16 -10 -6 0 -7 5 -4 10 3 6 11
10 16 10 6 0 7 -4 4 -10z m-289 -18 c16 4 55 -23 48 -33 -3 -6 -12 -2 -21 10
-8 12 -18 19 -23 16 -12 -7 -40 5 -40 17 0 6 5 6 14 -1 8 -6 18 -11 22 -9z
m858 3 c-4 -8 -8 -15 -10 -15 -2 0 -4 7 -4 15 0 8 4 15 10 15 5 0 7 -7 4 -15z
m-788 -11 c18 -14 18 -14 -6 -3 -31 14 -36 19 -24 19 6 0 19 -7 30 -16z m741
10 c-3 -3 -12 -4 -19 -1 -8 3 -5 6 6 6 11 1 17 -2 13 -5z m-627 -14 c0 -5 -2
-10 -4 -10 -3 0 -8 5 -11 10 -3 6 -1 10 4 10 6 0 11 -4 11 -10z m13 -25 c-3
-9 -8 -14 -10 -11 -3 3 -2 9 2 15 9 16 15 13 8 -4z m-108 -4 c3 -5 0 -13 -6
-17 -8 -5 -9 -3 -4 6 6 10 4 12 -9 7 -10 -4 -15 -3 -11 3 8 13 22 13 30 1z
m62 -12 c-4 -15 -2 -19 9 -15 9 3 12 1 9 -4 -3 -6 -2 -10 4 -10 5 0 13 5 16
10 3 6 12 10 18 10 7 0 1 -9 -13 -20 -34 -26 -16 -25 29 2 20 12 33 18 29 13
-4 -4 -2 -15 4 -24 10 -13 10 -14 -2 -3 -8 6 -18 12 -22 12 -4 0 -8 -6 -8 -12
0 -21 -62 -20 -94 1 -27 18 -27 19 -8 25 13 5 19 13 15 22 -3 7 0 14 7 14 8 0
10 -8 7 -21z m663 -3 c0 -20 -25 -37 -43 -30 -9 3 -15 14 -14 25 1 14 9 19 29
19 17 0 28 -5 28 -14z m-530 -6 c0 -5 -2 -10 -4 -10 -3 0 -8 5 -11 10 -3 6 -1
10 4 10 6 0 11 -4 11 -10z m373 -15 c-3 -9 -8 -14 -10 -11 -3 3 -2 9 2 15 9
16 15 13 8 -4z m-386 -60 c0 -8 -7 -11 -15 -7 -11 4 -13 1 -7 -8 5 -9 4 -11
-4 -6 -6 4 -9 12 -6 17 4 5 2 9 -4 9 -6 0 -8 7 -5 15 4 11 10 12 23 3 10 -6
18 -16 18 -23z m360 -7 c-3 -7 -5 -2 -5 12 0 14 2 19 5 13 2 -7 2 -19 0 -25z
m-342 -18 c-3 -5 12 -18 35 -30 22 -11 40 -23 40 -26 0 -3 -23 7 -50 22 -35
19 -47 30 -38 36 17 10 20 10 13 -2z m535 0 c0 -5 -2 -10 -4 -10 -3 0 -8 5
-11 10 -3 6 -1 10 4 10 6 0 11 -4 11 -10z m40 -10 c0 -5 -4 -10 -10 -10 -5 0
-10 5 -10 10 0 6 5 10 10 10 6 0 10 -4 10 -10z m-277 -20 c-3 -11 -9 -17 -14
-15 -10 7 -1 35 11 35 5 0 6 -9 3 -20z m227 4 c0 -2 -7 -4 -15 -4 -8 0 -15 4
-15 10 0 5 7 7 15 4 8 -4 15 -8 15 -10z m-443 0 c-3 -3 -12 -4 -19 -1 -8 3 -5
6 6 6 11 1 17 -2 13 -5z m461 -23 c-7 -11 -16 -17 -20 -14 -10 5 10 33 23 33
5 0 4 -9 -3 -19z m-255 -36 c-3 -9 -8 -14 -10 -11 -3 3 -2 9 2 15 9 16 15 13
8 -4z m-17 -61 c13 -10 13 -12 0 -17 -8 -3 -23 2 -33 11 -10 9 -14 14 -9 9 18
-13 23 -7 20 21 -2 15 -1 19 2 7 3 -11 12 -25 20 -31z m201 24 c-3 -8 -6 -5
-6 6 -1 11 2 17 5 13 3 -3 4 -12 1 -19z m-80 -4 c-3 -3 -12 -4 -19 -1 -8 3 -5
6 6 6 11 1 17 -2 13 -5z m222 -35 c15 -43 14 -48 -7 -42 -14 3 -17 12 -14 33
3 23 0 29 -19 33 -23 4 -22 4 3 6 21 1 28 -5 37 -30z m-279 11 c0 -5 -8 -10
-17 -10 -15 0 -16 2 -3 10 19 12 20 12 20 0z m40 -24 c0 -6 -5 -4 -10 4 -9 13
-14 8 -12 -12 1 -3 -4 -11 -12 -17 -9 -8 -18 -7 -32 3 -21 16 -23 14 32 31 9
3 12 10 8 17 -5 9 -3 9 9 -1 9 -7 17 -19 17 -25z m30 -26 c0 -5 -5 -10 -11
-10 -5 0 -7 5 -4 10 3 6 8 10 11 10 2 0 4 -4 4 -10z"/>
<path d="M1660 2809 c0 -5 5 -7 10 -4 6 3 10 8 10 11 0 2 -4 4 -10 4 -5 0 -10
-5 -10 -11z"/>
<path d="M4417 564 c-4 -4 -7 -19 -6 -33 l0 -26 10 24 c10 26 8 47 -4 35z"/>
<path d="M4440 507 c0 -14 4 -28 8 -31 9 -5 8 41 -1 51 -4 3 -7 -5 -7 -20z"/>
<path d="M4471 444 c0 -11 3 -14 6 -6 3 7 2 16 -1 19 -3 4 -6 -2 -5 -13z"/>
<path d="M4495 410 c-17 -7 -14 -9 13 -9 20 -1 31 3 27 9 -7 12 -13 12 -40 0z"/>
<path d="M4430 379 c0 -5 5 -7 10 -4 6 3 10 8 10 11 0 2 -4 4 -10 4 -5 0 -10
-5 -10 -11z"/>
<path d="M4553 261 c1 -15 4 -17 14 -9 7 5 10 14 7 19 -10 16 -23 9 -21 -10z"/>
<path d="M3950 304 c0 -2 9 -8 20 -14 11 -6 20 -7 20 -2 0 6 -9 12 -20 15 -11
3 -20 3 -20 1z"/>
<path d="M4610 320 c0 -5 5 -10 11 -10 5 0 7 5 4 10 -3 6 -8 10 -11 10 -2 0
-4 -4 -4 -10z"/>
<path d="M4420 36 c0 -9 30 -14 35 -6 4 6 -3 10 -14 10 -12 0 -21 -2 -21 -4z"/>
<path d="M4058 5898 c-31 -57 -59 -113 -63 -126 -3 -12 -11 -19 -17 -16 -7 4
-8 2 -4 -4 4 -7 3 -26 -3 -44 -83 -278 -103 -465 -77 -698 33 -287 114 -490
255 -642 52 -56 87 -82 138 -107 37 -18 79 -39 93 -46 69 -37 230 -34 316 6
27 13 51 26 54 30 3 3 14 9 25 13 56 17 252 250 256 304 1 9 5 1 9 -18 l7 -35
2 36 c0 19 19 83 41 141 22 59 48 139 57 180 10 40 20 75 23 78 3 3 6 16 7 30
1 14 7 84 13 155 22 251 -21 533 -110 723 -17 35 -31 83 -31 106 -1 36 -2 38
-8 12 l-6 -29 -14 26 c-15 28 -55 37 -64 15 -4 -10 -6 -10 -6 0 -1 9 -92 12
-419 12 l-419 0 -55 -102z m927 42 c9 -16 13 -30 11 -30 -3 0 -12 14 -21 30
-9 17 -13 30 -11 30 3 0 12 -13 21 -30z m100 -271 l5 -44 -14 50 c-17 58 -19
77 -6 54 5 -9 12 -36 15 -60z m12 -71 c-3 -8 -6 -5 -6 6 -1 11 2 17 5 13 3 -3
4 -12 1 -19z m10 -65 c-3 -10 -5 -2 -5 17 0 19 2 27 5 18 2 -10 2 -26 0 -35z
m10 -70 c-3 -10 -5 -2 -5 17 0 19 2 27 5 18 2 -10 2 -26 0 -35z m11 -145 c-2
-125 -5 -110 -10 40 -2 45 0 82 5 82 4 0 6 -55 5 -122z m-633 -68 c9 -16 11
-30 6 -30 -5 0 -14 14 -20 30 -5 17 -8 30 -6 30 3 0 11 -13 20 -30z m622 -142
c-3 -7 -5 -2 -5 12 0 14 2 19 5 13 2 -7 2 -19 0 -25z m0 -40 c-3 -8 -6 -5 -6
6 -1 11 2 17 5 13 3 -3 4 -12 1 -19z m-10 -40 c-3 -8 -6 -5 -6 6 -1 11 2 17 5
13 3 -3 4 -12 1 -19z m-20 -120 c-3 -8 -6 -5 -6 6 -1 11 2 17 5 13 3 -3 4 -12
1 -19z m-10 -50 c-3 -8 -6 -5 -6 6 -1 11 2 17 5 13 3 -3 4 -12 1 -19z m-527
-8 c0 -5 -4 -10 -10 -10 -5 0 -10 5 -10 10 0 6 5 10 10 10 6 0 10 -4 10 -10z
m394 -312 c-72 -121 -169 -230 -188 -211 -12 12 -6 23 42 76 27 29 68 86 93
125 34 55 48 70 62 66 10 -3 17 0 17 7 0 7 3 10 6 6 3 -3 -11 -34 -32 -69z"/>
<path d="M7532 5988 c-1 -9 -9 -24 -18 -32 -8 -9 -13 -20 -9 -25 3 -5 1 -12
-5 -16 -22 -14 -3 -235 20 -235 14 0 21 96 18 215 -2 61 -5 102 -6 93z m-25
-215 c-3 -10 -5 -2 -5 17 0 19 2 27 5 18 2 -10 2 -26 0 -35z"/>
<path d="M7589 5963 c-2 -106 4 -172 18 -211 12 -33 14 -49 5 -75 l-11 -32 6
39 c4 27 2 37 -5 32 -8 -5 -10 -31 -6 -79 8 -114 8 -118 0 -201 -6 -58 -6 -77
3 -72 7 5 11 -8 11 -41 0 -35 3 -44 10 -33 8 13 10 12 10 -2 0 -10 -4 -18 -10
-18 -14 0 -13 -27 2 -32 7 -3 9 -12 5 -22 -4 -9 -10 -15 -15 -12 -4 2 -9 -4
-9 -15 -2 -21 13 -26 20 -6 3 7 6 5 6 -5 1 -10 -3 -18 -9 -18 -5 0 -10 -9 -10
-20 0 -11 5 -20 10 -20 6 0 9 -15 9 -32 l-1 -33 -9 30 c-7 27 -8 26 -6 -12 2
-24 -2 -44 -7 -46 -23 -8 -28 -896 -5 -889 6 1 8 -2 4 -8 -3 -6 -11 -8 -16 -5
-5 4 -9 2 -9 -4 0 -5 6 -12 13 -14 8 -4 8 -6 0 -6 -15 -1 6 -48 25 -56 7 -2
11 -1 8 4 -3 5 7 11 23 13 18 3 27 0 25 -6 -6 -15 256 -12 284 3 12 6 32 9 44
6 13 -3 54 4 93 15 38 11 80 20 93 20 13 0 20 4 17 10 -4 6 -11 7 -17 4 -7 -4
-8 -2 -4 4 5 9 13 9 28 1 17 -9 20 -9 15 3 -3 10 1 15 11 15 27 0 62 15 57 23
-3 4 4 10 15 13 13 3 18 1 13 -6 -3 -7 5 -3 18 9 35 30 54 41 44 23 -5 -8 8 3
28 24 20 21 37 34 37 28 0 -6 -9 -16 -20 -23 -11 -7 -20 -17 -20 -22 0 -5 11
1 25 14 14 13 25 29 25 37 0 7 3 12 8 11 13 -2 92 38 86 45 -3 3 5 18 19 33
17 18 31 25 43 20 14 -5 15 -4 4 9 -10 12 -10 15 4 15 10 0 15 4 12 9 -6 10
24 25 32 16 3 -3 0 -5 -6 -5 -7 0 -12 -6 -12 -12 1 -7 9 -3 19 10 20 23 38 31
25 10 -4 -7 -3 -8 4 -4 6 4 8 14 5 23 -4 11 -3 14 5 9 7 -4 10 -2 6 7 -3 8 3
20 12 28 15 12 17 12 9 0 -6 -10 -4 -12 4 -7 7 5 10 10 7 13 -10 10 25 64 36
57 6 -4 8 -3 5 3 -4 6 0 16 8 23 8 7 12 17 8 23 -3 5 -2 8 3 5 5 -3 18 6 28
20 11 14 14 22 8 18 -8 -4 -10 -2 -6 7 3 9 13 13 25 10 15 -4 18 -2 12 13 -5
13 -3 16 10 11 9 -3 17 -2 17 4 0 6 4 8 9 5 4 -3 16 1 27 8 10 8 25 11 33 8
10 -4 12 -1 6 8 -6 10 -4 12 11 6 12 -5 16 -4 9 3 -12 12 -67 2 -59 -10 3 -5
-4 -9 -15 -9 -11 0 -23 5 -27 12 -5 7 -3 8 6 3 9 -5 10 -2 6 12 -4 12 -1 25 9
33 8 7 15 19 15 26 0 8 7 14 16 14 8 0 12 5 9 10 -3 6 2 10 12 11 13 0 14 2 4
6 -10 4 -8 9 10 20 13 8 16 12 7 9 -12 -3 -18 0 -18 10 0 8 4 13 9 10 17 -11
21 98 21 605 l0 519 -566 0 -567 0 4 -937 4 -937 -35 -7 c-63 -13 -155 -19
-167 -11 -10 6 -12 213 -10 950 l3 942 -38 0 c-37 0 -38 -1 -39 -37z m904
-1526 c7 3 3 -3 -7 -15 -18 -21 -20 -21 -33 -4 -8 9 -12 12 -9 5 4 -6 2 -14
-3 -17 -14 -9 -7 19 9 39 12 15 14 15 22 0 5 -8 15 -12 21 -8z"/>
<path d="M7432 5865 c0 -16 2 -22 5 -12 2 9 2 23 0 30 -3 6 -5 -1 -5 -18z"/>
<path d="M3821 5774 c0 -11 3 -14 6 -6 3 7 2 16 -1 19 -3 4 -6 -2 -5 -13z"/>
<path d="M3760 5730 c0 -5 5 -10 10 -10 6 0 10 5 10 10 0 6 -4 10 -10 10 -5 0
-10 -4 -10 -10z"/>
<path d="M7525 5523 c-6 -32 -9 -35 -15 -18 -7 15 -9 9 -11 -25 -5 -97 -4
-288 2 -284 11 6 16 -87 7 -131 -10 -56 -10 -165 1 -165 9 0 10 -7 11 -103 1
-66 -10 -96 -21 -57 -4 14 -7 -30 -8 -96 -1 -94 2 -123 12 -127 18 -7 28 -121
18 -212 -7 -63 -8 -65 -11 -25 l-3 45 -7 -50 c-5 -27 -9 -73 -9 -101 -1 -50 8
-64 40 -64 11 0 11 805 -1 887 -4 32 -5 63 -1 68 5 8 10 495 5 495 -1 0 -5
-17 -9 -37z m2 -395 c-3 -8 -6 -5 -6 6 -1 11 2 17 5 13 3 -3 4 -12 1 -19z"/>
<path d="M3801 5474 c0 -11 3 -14 6 -6 3 7 2 16 -1 19 -3 4 -6 -2 -5 -13z"/>
<path d="M3770 5450 c0 -5 5 -10 11 -10 5 0 7 5 4 10 -3 6 -8 10 -11 10 -2 0
-4 -4 -4 -10z"/>
<path d="M7431 5294 c0 -11 3 -14 6 -6 3 7 2 16 -1 19 -3 4 -6 -2 -5 -13z"/>
<path d="M3720 5260 c0 -5 5 -10 10 -10 6 0 10 5 10 10 0 6 -4 10 -10 10 -5 0
-10 -4 -10 -10z"/>
<path d="M6220 5216 c0 -2 8 -10 18 -17 15 -13 16 -12 3 4 -13 16 -21 21 -21
13z"/>
<path d="M3791 5124 c0 -11 3 -14 6 -6 3 7 2 16 -1 19 -3 4 -6 -2 -5 -13z"/>
<path d="M3751 5114 c0 -11 3 -14 6 -6 3 7 2 16 -1 19 -3 4 -6 -2 -5 -13z"/>
<path d="M7491 4864 c0 -11 3 -14 6 -6 3 7 2 16 -1 19 -3 4 -6 -2 -5 -13z"/>
<path d="M7750 4716 c0 -138 10 -192 24 -125 8 41 8 197 0 238 -14 70 -24 23
-24 -113z"/>
<path d="M3710 4800 c0 -5 5 -10 10 -10 6 0 10 5 10 10 0 6 -4 10 -10 10 -5 0
-10 -4 -10 -10z"/>
<path d="M8945 4770 c-3 -6 1 -7 9 -4 18 7 21 14 7 14 -6 0 -13 -4 -16 -10z"/>
<path d="M8944 4669 c-4 -7 -3 -9 4 -5 5 3 13 0 15 -6 4 -9 6 -10 6 -1 1 17
-16 25 -25 12z"/>
<path d="M7416 4568 c-9 -37 -7 -210 3 -204 5 4 12 0 14 -6 3 -7 6 42 6 110 1
113 -8 153 -23 100z"/>
<path d="M3741 4548 c0 -7 4 -22 8 -32 7 -18 8 -18 14 -2 4 10 1 24 -8 32 -11
12 -15 12 -14 2z"/>
<path d="M8769 4508 c0 -2 -2 -11 -4 -21 -3 -15 -1 -16 11 -6 7 6 11 15 8 20
-5 9 -13 12 -15 7z"/>
<path d="M8916 4427 c3 -10 9 -15 12 -12 3 3 0 11 -7 18 -10 9 -11 8 -5 -6z"/>
<path d="M8942 4377 c-8 -9 -8 -17 0 -27 8 -13 9 -12 5 1 -3 9 0 22 6 28 6 6
8 11 5 11 -3 0 -10 -6 -16 -13z"/>
<path d="M8876 4348 c3 -5 10 -6 15 -3 13 9 11 12 -6 12 -8 0 -12 -4 -9 -9z"/>
<path d="M8913 4325 c0 -8 4 -12 9 -9 5 3 6 10 3 15 -9 13 -12 11 -12 -6z"/>
<path d="M8783 4255 c0 -8 4 -12 9 -9 5 3 6 10 3 15 -9 13 -12 11 -12 -6z"/>
<path d="M7410 4181 c0 -41 3 -49 18 -47 9 2 16 6 15 9 -2 4 -3 25 -3 47 0 29
-4 40 -15 40 -11 0 -15 -12 -15 -49z"/>
<path d="M8800 4199 c0 -11 27 -12 34 -1 2 4 -4 9 -15 9 -10 1 -19 -2 -19 -8z"/>
<path d="M8930 4186 c0 -2 7 -7 16 -10 8 -3 12 -2 9 4 -6 10 -25 14 -25 6z"/>
<path d="M8939 4113 c-8 -9 -9 -14 -2 -10 6 4 13 1 16 -5 3 -7 4 -3 4 10 -1
26 -1 26 -18 5z"/>
<path d="M5044 3965 c0 -82 2 -115 3 -72 2 43 2 110 0 150 -1 40 -3 5 -3 -78z"/>
<path d="M3771 4014 c0 -11 3 -14 6 -6 3 7 2 16 -1 19 -3 4 -6 -2 -5 -13z"/>
<path d="M8920 3946 c0 -2 8 -10 18 -17 15 -13 16 -12 3 4 -13 16 -21 21 -21
13z"/>
<path d="M8710 3874 c0 -8 5 -12 10 -9 6 4 8 11 5 16 -9 14 -15 11 -15 -7z"/>
<path d="M3772 3860 c0 -14 2 -19 5 -12 2 6 2 18 0 25 -3 6 -5 1 -5 -13z"/>
<path d="M8915 3850 c-3 -6 1 -7 9 -4 18 7 21 14 7 14 -6 0 -13 -4 -16 -10z"/>
<path d="M8976 3832 c-3 -5 1 -9 9 -9 8 0 12 4 9 9 -3 4 -7 8 -9 8 -2 0 -6 -4
-9 -8z"/>
<path d="M5042 3750 c0 -19 2 -27 5 -17 2 9 2 25 0 35 -3 9 -5 1 -5 -18z"/>
<path d="M4230 3740 c0 -28 -2 -30 -42 -31 -24 -1 -33 -4 -20 -6 18 -4 30 -18
20 -24 -2 -1 -88 -7 -193 -13 l-190 -11 3 -25 c5 -32 0 -29 65 -42 43 -9 85
-9 169 -1 136 13 188 8 188 -17 0 -18 41 -30 110 -30 32 0 36 3 35 28 0 20 5
27 20 27 15 0 21 -8 23 -31 3 -34 -1 -32 110 -49 39 -6 42 -5 42 15 0 16 4 20
16 16 9 -3 19 -6 24 -6 4 0 10 -8 13 -19 3 -13 18 -20 58 -26 68 -10 90 -7
106 13 9 12 12 13 11 3 -2 -7 3 -16 11 -19 8 -3 11 0 7 7 -4 6 0 11 9 11 9 0
13 5 10 10 -3 6 -2 10 3 10 6 0 12 -7 16 -15 3 -8 11 -15 18 -14 9 0 10 2 1 5
-7 3 -10 11 -8 17 6 16 -21 51 -33 43 -21 -13 -51 39 -54 94 l-3 55 -69 8
c-38 4 -71 5 -73 3 -2 -2 -5 -18 -5 -35 -1 -27 -5 -31 -30 -31 -26 0 -28 3
-28 39 0 38 0 38 -46 45 -26 3 -60 6 -75 6 -26 0 -29 -3 -29 -35 0 -30 -3 -35
-24 -35 -21 0 -24 4 -23 35 1 19 -1 36 -4 38 -2 2 -34 7 -71 10 l-68 6 0 -29z"/>
<path d="M5042 3690 c0 -14 2 -19 5 -12 2 6 2 18 0 25 -3 6 -5 1 -5 -13z"/>
<path d="M8745 3671 c-3 -5 -2 -12 3 -15 5 -3 9 1 9 9 0 17 -3 19 -12 6z"/>
<path d="M5042 3620 c0 -14 2 -19 5 -12 2 6 2 18 0 25 -3 6 -5 1 -5 -13z"/>
<path d="M3690 3560 c0 -5 5 -10 10 -10 6 0 10 5 10 10 0 6 -4 10 -10 10 -5 0
-10 -4 -10 -10z"/>
<path d="M8780 3540 c0 -4 7 -7 15 -6 23 3 26 12 5 13 -11 1 -20 -2 -20 -7z"/>
<path d="M3735 3500 c-3 -5 -1 -10 4 -10 6 0 11 5 11 10 0 6 -2 10 -4 10 -3 0
-8 -4 -11 -10z"/>
<path d="M8880 3466 c0 -3 9 -10 20 -16 11 -6 20 -8 20 -6 0 3 -9 10 -20 16
-11 6 -20 8 -20 6z"/>
<path d="M7420 3423 l0 -38 -102 0 c-56 0 -94 1 -85 3 28 6 19 17 -14 18 -20
1 -26 -2 -17 -7 12 -8 -187 -4 -301 6 -68 6 -81 -4 -81 -65 0 -66 7 -80 40
-80 21 0 29 -6 34 -23 5 -20 16 -26 78 -38 90 -17 228 -15 333 5 114 21 115
21 115 -15 0 -30 -2 -31 -32 -26 -69 12 -163 19 -156 12 4 -5 18 -9 30 -9 13
-1 29 -5 36 -9 7 -5 20 -6 30 -3 9 3 40 2 69 -3 48 -7 52 -6 64 15 6 13 16 21
21 18 4 -3 8 2 8 11 0 9 5 13 10 10 6 -3 10 1 10 9 0 19 4 19 105 1 44 -8 98
-14 120 -15 39 0 41 -2 52 -40 10 -40 10 -40 -18 -40 -16 0 -29 3 -29 8 0 4
-37 8 -82 10 -46 2 -80 1 -78 -2 7 -6 161 -27 226 -31 46 -2 51 0 47 16 -4 13
0 19 11 19 10 0 15 4 11 9 -3 5 -1 12 4 15 5 4 12 -3 16 -14 4 -11 11 -18 16
-14 6 4 6 11 -1 19 -8 10 -8 15 0 20 7 4 10 21 8 37 -3 16 -1 31 4 34 4 3 8
-13 8 -35 0 -26 -5 -41 -12 -41 -8 0 -5 -7 6 -15 11 -8 14 -15 8 -15 -7 0 -12
-5 -12 -11 0 -5 5 -7 12 -3 7 5 9 2 5 -9 -4 -11 -2 -14 9 -10 10 4 12 0 8 -11
-4 -11 -1 -16 11 -16 10 0 13 -4 9 -12 -6 -10 -5 -10 8 -1 15 13 28 8 28 -9 0
-5 -4 -7 -8 -4 -5 3 -9 -2 -9 -11 0 -13 4 -12 17 5 l18 21 0 -24 c0 -15 -5
-22 -12 -18 -6 3 -7 2 -3 -3 5 -5 12 -9 15 -9 4 0 12 -4 18 -8 15 -9 28 23 14
37 -5 5 -10 15 -10 21 0 5 5 3 10 -5 7 -11 10 -11 10 -2 0 8 5 10 13 5 6 -4
26 -9 42 -9 64 -3 66 -4 59 -16 -5 -9 -2 -9 9 1 15 12 17 11 18 -5 0 -11 3
-14 6 -6 6 14 29 16 38 2 4 -6 -1 -7 -12 -4 -15 5 -16 4 -3 -5 11 -8 18 -7 27
6 10 13 12 10 9 -18 -2 -19 -1 -26 1 -16 5 20 29 23 36 5 4 -10 6 -10 6 0 1 6
6 12 12 12 6 0 9 -7 5 -15 -3 -8 0 -14 7 -12 7 1 11 -4 9 -11 -1 -8 2 -11 9
-7 8 5 8 10 0 18 -6 6 -11 16 -11 21 0 6 7 0 16 -12 8 -12 12 -28 8 -35 -6 -9
-4 -9 7 1 18 16 29 15 29 -4 0 -9 -5 -12 -12 -8 -7 4 -8 3 -4 -5 10 -15 26 -4
26 17 0 13 2 14 9 4 4 -7 17 -14 28 -15 14 -1 19 -6 15 -16 -3 -9 -1 -12 6 -7
7 4 12 2 12 -3 0 -6 5 -11 11 -11 8 0 8 4 -1 15 -12 15 -6 35 12 35 5 0 7 -7
4 -16 -3 -8 -2 -12 4 -9 6 3 10 0 10 -8 0 -7 6 -14 13 -14 7 0 13 8 13 18 0
10 -5 17 -11 16 -5 -1 -9 4 -7 12 2 8 -3 18 -10 22 -10 7 -9 9 5 9 9 0 17 -7
17 -15 0 -8 7 -15 15 -15 8 0 15 -4 15 -10 0 -5 7 -10 16 -10 9 0 22 -7 29
-17 8 -11 14 -13 19 -5 4 7 2 12 -4 12 -6 0 -9 4 -5 9 3 5 0 13 -6 17 -8 5
-10 2 -5 -7 5 -8 2 -8 -6 2 -7 9 -20 18 -28 22 -13 5 -13 6 0 6 8 1 30 -8 48
-19 40 -24 43 -25 36 -2 -5 14 -4 14 5 2 7 -10 6 -19 -5 -31 -13 -15 -13 -17
2 -23 9 -3 14 -13 11 -21 -4 -8 -1 -12 6 -9 7 2 13 17 13 32 1 15 -1 21 -3 15
-3 -7 -9 -13 -15 -13 -22 0 11 26 36 28 27 2 35 -11 14 -24 -7 -4 -8 -3 -4 4
4 7 2 12 -3 12 -17 0 -13 -30 4 -36 8 -4 15 -12 15 -20 0 -8 8 -14 18 -13 10
0 12 3 4 6 -6 2 -9 9 -6 15 4 6 0 14 -7 19 -11 7 -11 9 -1 9 7 0 11 4 8 9 -3
5 1 12 10 15 9 4 13 13 10 24 -7 20 29 66 44 57 5 -3 12 0 16 6 4 7 3 9 -3 6
-16 -10 -23 18 -10 34 7 7 2 5 -10 -5 -23 -19 -31 -32 -13 -21 6 3 10 1 10 -4
0 -6 -9 -11 -21 -11 -14 0 -19 -5 -16 -14 3 -8 -1 -17 -9 -20 -24 -9 -31 -7
-14 4 12 8 13 11 1 19 -11 7 -11 9 0 14 11 4 11 6 1 6 -7 1 -10 6 -7 11 5 8
12 7 23 -2 15 -12 16 -11 3 5 -11 14 -11 20 0 34 11 13 11 17 1 20 -6 3 -10 9
-6 14 3 5 0 9 -5 9 -13 0 -14 -13 -2 -26 5 -5 1 -17 -11 -29 l-21 -20 12 22
c16 31 14 38 -6 22 -14 -12 -16 -12 -8 0 6 11 4 13 -9 8 -11 -4 -15 -3 -11 4
4 6 13 8 20 5 10 -3 13 4 13 25 -1 30 -18 53 -18 25 0 -9 -6 -16 -12 -16 -9 0
-8 -4 2 -10 9 -6 10 -10 3 -10 -6 0 -15 5 -18 11 -5 7 -14 4 -26 -7 -11 -9
-19 -12 -19 -6 0 6 -7 9 -15 6 -9 -4 -18 1 -22 12 -6 16 -7 16 -15 -2 -6 -15
-7 -13 -3 7 6 34 -20 47 -46 23 -18 -16 -19 -16 -19 0 0 10 9 20 20 23 11 3
20 13 20 22 0 9 -3 12 -8 6 -8 -12 -52 -13 -70 -2 -7 5 -11 5 -10 0 2 -4 -1
-9 -6 -10 -5 -1 -13 -7 -17 -15 -7 -10 -9 -8 -10 7 l0 20 -9 -20 c-7 -16 -9
-17 -9 -3 -1 28 -81 46 -81 19 -1 -9 -7 -3 -14 14 -12 28 -13 29 -24 10 -11
-19 -12 -18 -8 6 4 22 1 25 -18 22 -19 -4 -23 0 -25 24 -6 84 -12 94 -57 89
-19 -3 -32 -1 -29 4 3 5 1 11 -5 15 -5 3 -10 1 -10 -5 0 -9 -24 -11 -84 -7
-56 4 -88 2 -96 -6 -10 -9 -11 -9 -6 0 5 9 2 11 -8 7 -9 -3 -16 -14 -17 -23 0
-9 -2 -25 -4 -37 -4 -19 3 -22 83 -34 l87 -13 -40 -12 c-22 -6 -35 -13 -29
-16 7 -2 14 -25 16 -51 5 -45 4 -46 -26 -51 -31 -4 -103 19 -92 30 3 3 0 13
-7 21 -7 10 -8 13 -1 9 11 -6 24 21 24 51 0 15 -34 16 -63 0 -19 -10 -20 -9
-10 4 16 19 5 32 -14 16 -11 -9 -12 -7 -6 8 6 16 4 17 -8 7 -14 -11 -16 -5
-18 50 -1 44 -7 66 -18 75 -26 19 -31 15 -29 -28 1 -22 -3 -41 -8 -42 -6 -1
-84 -2 -173 -2 l-163 -1 0 46 c0 42 -13 69 -32 69 -4 0 -8 -17 -8 -37z m-198
-55 c8 -7 18 -21 21 -30 5 -14 1 -18 -18 -18 -18 0 -25 5 -25 20 0 11 -5 20
-11 20 -5 0 -7 5 -4 10 8 13 18 13 37 -2z m-272 -97 c0 -4 12 -7 28 -5 16 2
19 1 7 -2 -11 -4 -25 -10 -30 -15 -6 -4 -17 -4 -25 1 -8 5 -17 7 -20 5 -4 -2
-7 2 -7 10 0 9 10 15 24 15 13 0 23 -4 23 -9z m1464 -73 c-3 -5 -9 -6 -14 -3
-4 3 -10 0 -12 -7 -3 -8 -6 -7 -10 3 -4 11 1 15 17 15 13 0 21 -4 19 -8z m116
-12 c-7 -7 -13 -7 -20 0 -6 6 -3 10 10 10 13 0 16 -4 10 -10z m-35 -15 c3 -5
2 -12 -3 -15 -5 -3 -9 1 -9 9 0 17 3 19 12 6z m230 -111 c-3 -5 -12 -7 -20 -3
-21 7 -19 13 6 13 11 0 18 -4 14 -10z m53 -111 c2 -9 1 -10 -5 -3 -4 6 -16 10
-26 8 -9 -1 -15 1 -12 6 8 13 38 5 43 -11z"/>
<path d="M3710 3446 c0 -2 6 -9 14 -15 11 -9 16 -9 22 0 4 8 3 9 -4 5 -7 -4
-12 -2 -12 3 0 6 -4 11 -10 11 -5 0 -10 -2 -10 -4z"/>
<path d="M8936 3432 c-3 -6 -1 -14 5 -17 14 -9 20 -2 10 14 -6 8 -11 9 -15 3z"/>
<path d="M3699 3423 c-1 -4 -2 -21 -3 -36 -2 -26 -1 -27 11 -10 12 15 15 16
23 3 7 -11 4 -17 -8 -22 -14 -6 -15 -7 -1 -7 25 -1 29 10 14 40 -16 29 -34 46
-36 32z"/>
<path d="M8405 3380 c3 -5 10 -10 16 -10 5 0 9 5 9 10 0 6 -7 10 -16 10 -8 0
-12 -4 -9 -10z"/>
<path d="M8837 3299 c7 -7 15 -10 18 -7 3 3 -2 9 -12 12 -14 6 -15 5 -6 -5z"/>
<path d="M8824 3238 c0 -10 1 -18 3 -18 1 0 7 8 12 18 7 13 6 19 -2 19 -7 0
-13 -9 -13 -19z"/>
<path d="M3905 3220 c17 -4 41 -8 55 -8 22 0 22 1 -5 8 -16 4 -41 8 -55 8 -22
0 -22 -1 5 -8z"/>
<path d="M4015 3200 c17 -4 41 -8 55 -8 23 -1 23 0 5 8 -11 5 -36 8 -55 8
l-35 0 30 -8z"/>
<path d="M4100 3189 c0 -5 9 -9 20 -9 11 0 20 2 20 4 0 2 -9 6 -20 9 -11 3
-20 1 -20 -4z"/>
<path d="M8600 3194 c1 -16 27 -44 41 -44 12 0 12 -2 0 -9 -9 -6 -5 -8 13 -8
15 0 29 4 32 8 3 5 9 7 14 4 4 -3 10 2 14 10 6 17 -12 16 -32 -3 -19 -17 -28
-7 -12 13 15 18 -1 20 -18 3 -9 -9 -12 -8 -12 4 0 9 -4 20 -10 23 -6 4 -7 -1
-4 -12 5 -16 4 -16 -10 1 -9 11 -16 16 -16 10z"/>
<path d="M4195 3170 c17 -4 44 -8 60 -8 25 0 24 2 -10 9 -51 10 -92 10 -50 -1z"/>
<path d="M8780 3176 c0 -2 7 -7 16 -10 8 -3 12 -2 9 4 -6 10 -25 14 -25 6z"/>
<path d="M4298 3153 c7 -3 16 -2 19 1 4 3 -2 6 -13 5 -11 0 -14 -3 -6 -6z"/>
<path d="M8886 3143 c-6 -14 -5 -15 5 -6 7 7 10 15 7 18 -3 3 -9 -2 -12 -12z"/>
<path d="M4415 3140 c-3 -5 -1 -10 4 -10 6 0 11 5 11 10 0 6 -2 10 -4 10 -3 0
-8 -4 -11 -10z"/>
<path d="M4467 3129 c7 -7 15 -10 18 -7 3 3 -2 9 -12 12 -14 6 -15 5 -6 -5z"/>
<path d="M4518 3113 c6 -2 18 -2 25 0 6 3 1 5 -13 5 -14 0 -19 -2 -12 -5z"/>
<path d="M4608 3103 c7 -3 16 -2 19 1 4 3 -2 6 -13 5 -11 0 -14 -3 -6 -6z"/>
<path d="M8814 3078 l-19 -23 22 19 c18 15 26 16 37 7 11 -9 16 -9 22 0 4 7 3
9 -4 5 -6 -3 -13 -2 -17 4 -9 15 -20 12 -41 -12z"/>
<path d="M8070 3046 c0 -2 7 -7 16 -10 8 -3 12 -2 9 4 -6 10 -25 14 -25 6z"/>
<path d="M8149 3048 c-6 -23 -7 -48 -1 -48 4 0 8 11 8 25 0 21 -4 33 -7 23z"/>
<path d="M4955 3024 c-11 -2 -105 -13 -210 -23 -403 -41 -1070 -113 -1073
-116 -2 -2 -4 -123 -5 -269 l-2 -266 55 -1 c30 -1 82 -2 115 -4 33 -1 86 -3
117 -4 50 -1 57 -3 60 -23 5 -35 86 -72 238 -108 19 -5 53 -14 75 -20 22 -6
50 -13 61 -15 12 -3 60 -16 107 -30 115 -33 198 -40 288 -25 41 8 81 14 89 16
8 1 43 8 78 14 l62 12 0 209 c0 132 4 209 10 209 17 0 353 50 356 53 6 6 -105
212 -118 219 -7 4 -57 15 -110 24 l-98 16 -2 57 -1 56 -7 -55 -7 -55 -1 68
c-2 66 -2 67 -29 66 -16 -1 -37 -3 -48 -5z m-459 -675 c4 -8 -55 -3 -63 5 -3
3 9 4 26 4 18 -1 34 -5 37 -9z"/>
<path d="M8090 3013 c-8 -3 -24 -13 -34 -22 -11 -9 -16 -10 -12 -3 4 6 2 12
-3 12 -6 0 -11 -5 -11 -11 0 -5 -5 -7 -12 -3 -7 4 -8 3 -4 -5 4 -6 12 -9 17
-6 5 4 9 1 9 -5 0 -6 5 -8 10 -5 6 4 17 2 25 -5 11 -9 13 -6 10 15 -1 18 1 23
8 16 5 -5 16 -7 23 -4 10 4 12 0 7 -13 -6 -17 -5 -18 11 -4 18 14 17 15 -8 25
-15 6 -23 14 -20 18 8 8 6 8 -16 0z"/>
<path d="M8175 3010 c-3 -5 -3 -10 2 -10 4 0 1 -5 -7 -11 -12 -8 -10 -9 9 -4
15 5 21 3 17 -3 -3 -6 -2 -13 4 -17 5 -3 10 1 10 10 0 8 -7 18 -16 22 -13 5
-13 7 -2 14 9 6 9 9 1 9 -6 0 -15 -4 -18 -10z"/>
<path d="M7976 2988 c3 -5 10 -6 15 -3 13 9 11 12 -6 12 -8 0 -12 -4 -9 -9z"/>
<path d="M8809 2988 c-6 -27 -5 -39 4 -45 7 -3 9 -3 5 2 -4 4 -3 14 3 21 7 8
7 14 -1 19 -5 3 -10 5 -11 3z"/>
<path d="M8238 2942 c-3 -11 0 -19 7 -19 7 0 10 8 7 19 -2 10 -6 18 -7 18 -1
0 -5 -8 -7 -18z"/>
<path d="M8830 2946 c0 -9 -4 -16 -10 -16 -5 0 -10 -5 -10 -12 0 -7 6 -6 18 4
9 9 24 13 32 10 16 -5 15 -4 -12 17 -15 12 -18 11 -18 -3z"/>
<path d="M8153 2935 c0 -8 4 -15 8 -15 4 0 9 7 13 15 3 9 0 15 -8 15 -7 0 -13
-7 -13 -15z"/>
<path d="M8335 2941 c-3 -5 -2 -12 3 -15 5 -3 9 1 9 9 0 17 -3 19 -12 6z"/>
<path d="M8185 2929 c-4 -6 -4 -13 -1 -16 3 -4 6 -1 6 7 0 10 3 10 15 0 13
-11 14 -10 9 4 -7 18 -20 21 -29 5z"/>
<path d="M8570 2911 c0 -25 6 -27 13 -6 4 8 2 17 -3 20 -6 4 -10 -3 -10 -14z"/>
<path d="M8791 2914 c0 -11 3 -14 6 -6 3 7 2 16 -1 19 -3 4 -6 -2 -5 -13z"/>
<path d="M8256 2888 c21 -31 39 -35 48 -13 3 8 9 15 13 14 20 -3 33 2 33 13 0
9 -3 9 -12 0 -9 -9 -15 -9 -25 0 -11 9 -15 7 -20 -11 l-6 -22 -25 23 -25 23
19 -27z"/>
<path d="M8900 2900 c0 -5 5 -10 10 -10 6 0 10 5 10 10 0 6 -4 10 -10 10 -5 0
-10 -4 -10 -10z"/>
<path d="M8205 2890 c-3 -5 -1 -10 4 -10 6 0 11 5 11 10 0 6 -2 10 -4 10 -3 0
-8 -4 -11 -10z"/>
<path d="M8445 2890 c-3 -5 -1 -10 4 -10 6 0 11 5 11 10 0 6 -2 10 -4 10 -3 0
-8 -4 -11 -10z"/>
<path d="M8636 2892 c-3 -5 1 -9 9 -9 8 0 12 4 9 9 -3 4 -7 8 -9 8 -2 0 -6 -4
-9 -8z"/>
<path d="M8815 2889 c-4 -6 -5 -12 -2 -15 2 -3 7 2 10 11 7 17 1 20 -8 4z"/>
<path d="M8847 2893 c-4 -3 -7 -11 -7 -17 0 -6 5 -5 12 2 6 6 9 14 7 17 -3 3
-9 2 -12 -2z"/>
<path d="M8507 2870 c-18 -18 -18 -19 5 -30 20 -10 21 -9 6 2 -15 13 -15 15 0
25 9 6 15 13 12 16 -3 2 -13 -4 -23 -13z"/>
<path d="M8416 2868 c5 -8 -2 -9 -24 -5 -19 4 -32 2 -32 -3 0 -6 3 -9 8 -9 21
4 42 -2 42 -12 0 -6 -7 -8 -17 -4 -14 5 -15 3 -6 -6 14 -14 33 -4 33 17 0 10
5 12 13 8 8 -5 8 -2 -2 9 -15 19 -26 23 -15 5z"/>
<path d="M8192 2848 c7 -15 15 -23 17 -17 2 6 -4 18 -13 27 -15 15 -15 15 -4
-10z"/>
<path d="M8620 2861 c0 -6 4 -13 10 -16 6 -3 7 1 4 9 -7 18 -14 21 -14 7z"/>
<path d="M8651 2864 c0 -5 4 -18 9 -29 7 -17 9 -17 9 -3 1 11 6 15 16 12 8 -4
15 -1 15 5 0 6 -4 11 -9 11 -5 0 -16 3 -25 6 -9 3 -16 2 -15 -2z"/>
<path d="M8590 2850 c-9 -6 -10 -10 -3 -10 6 0 15 5 18 10 8 12 4 12 -15 0z"/>
<path d="M8890 2850 c-9 -6 -10 -10 -3 -10 6 0 15 5 18 10 8 12 4 12 -15 0z"/>
<path d="M8237 2831 c-9 -12 -9 -13 1 -7 8 5 12 1 13 -11 0 -14 2 -13 10 6 6
15 14 21 25 17 8 -3 12 -2 9 3 -8 14 -44 9 -58 -8z"/>
<path d="M8163 2815 c0 -7 6 -11 14 -8 7 3 13 6 13 8 0 2 -6 5 -13 8 -8 3 -14
-1 -14 -8z"/>
<path d="M8270 2811 c0 -6 4 -13 10 -16 6 -3 7 1 4 9 -7 18 -14 21 -14 7z"/>
<path d="M8363 2794 c-3 -8 0 -21 7 -27 10 -10 11 -7 5 12 -5 18 -4 22 5 16 9
-5 11 -4 6 3 -10 16 -15 15 -23 -4z"/>
<path d="M8300 2796 c0 -2 7 -9 15 -16 13 -11 14 -10 9 4 -5 14 -24 23 -24 12z"/>
<path d="M8466 2788 c3 -5 10 -6 15 -3 13 9 11 12 -6 12 -8 0 -12 -4 -9 -9z"/>
<path d="M8669 2783 c-13 -16 -12 -17 4 -4 16 13 21 21 13 21 -2 0 -10 -8 -17
-17z"/>
<path d="M8418 2765 c-4 -16 -1 -22 9 -18 7 3 11 9 8 13 -3 5 -1 11 4 14 14 9
21 -20 8 -33 -13 -13 -19 -43 -6 -35 5 3 7 9 4 14 -3 4 2 13 10 20 10 8 12 17
6 28 -14 24 -39 23 -43 -3z"/>
<path d="M6478 2775 c-3 -3 -29 -7 -58 -10 -29 -2 -66 -7 -82 -10 -16 -4 -48
-9 -71 -11 -69 -8 -95 -12 -267 -39 -133 -21 -456 -66 -715 -101 -22 -3 -69
-10 -105 -16 l-65 -11 75 -18 c75 -17 291 -66 510 -115 63 -14 129 -30 145
-35 17 -4 44 -11 60 -14 17 -3 41 -8 55 -11 108 -22 260 -61 254 -66 -3 -4 4
-4 17 -1 17 5 20 3 14 -7 -5 -9 -4 -11 3 -6 15 9 103 -4 97 -14 -8 -13 27 -21
41 -9 11 9 14 9 14 0 0 -7 4 -10 9 -6 12 7 191 -33 208 -47 7 -5 10 -14 7 -19
-3 -5 2 -6 11 -2 13 5 14 7 3 14 -19 13 0 11 61 -6 30 -8 59 -11 65 -8 6 4 5
0 -1 -9 -7 -8 -10 -18 -6 -21 3 -4 11 1 18 10 9 13 14 13 20 3 6 -9 4 -11 -5
-5 -9 6 -11 4 -5 -5 6 -10 11 -9 21 4 11 16 13 16 19 -5 5 -15 9 -18 15 -9 6
9 13 9 28 1 25 -14 43 -14 22 -1 -13 8 -13 10 1 10 9 0 20 -7 23 -15 4 -12 10
-13 25 -6 10 6 22 7 26 3 3 -4 18 -7 33 -7 14 -1 27 -7 30 -15 3 -12 2 -13 -6
-1 -7 9 -12 10 -16 2 -4 -6 -4 -11 1 -12 4 0 15 -2 23 -4 85 -22 96 -23 105
-13 7 8 5 9 -7 5 -10 -4 -18 -4 -18 -1 0 3 13 10 30 15 23 9 32 20 41 52 9 36
18 58 37 101 3 5 0 6 -6 2 -6 -3 -13 -2 -17 4 -10 16 -39 -20 -43 -54 -5 -40
-12 -47 -12 -12 0 16 -4 25 -10 21 -5 -3 -10 -1 -10 4 0 6 5 11 11 11 5 0 7 5
4 10 -4 6 -10 8 -14 6 -4 -3 -13 -1 -21 5 -13 7 -12 9 2 9 11 0 15 6 11 20 -5
20 -5 20 -34 -1 l-29 -20 -1 23 c-1 19 -3 18 -8 -7 l-7 -30 -8 38 c-4 21 -11
35 -15 32 -5 -2 -8 3 -7 13 0 10 -6 16 -16 16 -10 -1 -18 4 -18 12 0 7 -5 16
-12 20 -6 4 -8 3 -4 -4 3 -6 2 -13 -4 -17 -5 -3 -10 -1 -10 5 0 6 -6 8 -12 4
-7 -4 -4 3 7 16 11 13 15 20 9 17 -7 -4 -14 0 -18 8 -6 17 10 30 19 15 3 -5
11 -10 18 -10 6 0 2 6 -8 14 -11 8 -24 12 -29 9 -5 -4 -7 4 -4 15 4 12 2 20
-3 16 -5 -3 -9 0 -9 5 0 6 5 11 10 11 6 0 10 5 10 11 0 8 -5 8 -15 -1 -18 -15
-19 -42 -3 -58 7 -7 9 -12 5 -12 -4 0 -3 -9 3 -20 6 -11 7 -20 2 -20 -9 0 -25
37 -23 53 1 4 -4 7 -10 7 -5 0 -8 4 -5 9 4 5 -9 21 -26 36 -18 15 -36 35 -40
44 -5 11 -7 7 -7 -12 -1 -16 2 -26 7 -23 4 2 16 -3 27 -11 19 -15 19 -15 -5
-8 -14 4 -33 7 -43 6 -10 0 -15 5 -11 11 5 7 2 9 -7 6 -10 -4 -15 1 -16 13 -1
12 3 17 9 13 7 -4 8 -2 4 5 -4 6 -11 9 -16 6 -4 -3 -11 1 -14 7 -3 7 -4 0 -1
-17 4 -20 3 -25 -3 -16 -8 11 -10 11 -15 0 -3 -8 -4 3 -2 24 2 20 -1 37 -6 37
-6 0 -8 4 -4 9 3 5 1 12 -4 15 -5 3 -8 -9 -6 -27 1 -17 0 -24 -2 -14 -3 9 -8
15 -13 12 -5 -3 -7 3 -5 13 2 11 -3 19 -10 19 -8 0 -12 -5 -8 -10 3 -5 -4 -4
-16 2 -11 7 -21 17 -21 24 0 9 2 9 8 0 5 -8 12 -7 27 4 14 11 15 14 3 10 -22
-8 -30 3 -16 22 8 10 4 9 -10 -3 -13 -12 -22 -14 -22 -7 0 7 -4 9 -10 6 -14
-9 -13 8 2 23 7 7 8 12 2 12 -5 0 -15 -5 -22 -12 -9 -9 -12 -9 -12 0 0 7 -4
12 -10 12 -5 0 -7 -8 -4 -17 5 -15 4 -15 -6 1 -10 14 -9 20 1 28 12 7 11 8 -1
6 -21 -3 -82 31 -75 42 7 11 2 13 -7 5z m399 -305 c2 -11 -2 -20 -7 -20 -6 0
-10 7 -10 16 0 8 -4 12 -10 9 -5 -3 -10 -2 -10 4 0 10 22 21 29 14 3 -2 6 -12
8 -23z m8 -39 c3 -5 0 -13 -6 -17 -8 -5 -9 -3 -4 6 6 10 4 12 -8 7 -10 -3 -17
-2 -17 3 0 13 27 13 35 1z m22 -48 c0 -9 -4 -10 -14 -2 -7 6 -13 12 -13 14 0
1 6 2 13 2 8 0 14 -6 14 -14z m278 -150 c-7 -26 -18 -49 -26 -52 -11 -3 -12
-1 -1 11 7 9 10 22 6 31 -6 17 11 57 25 57 4 0 3 -21 -4 -47z m-92 -103 c4 0
5 5 1 12 -5 7 -3 8 5 3 21 -13 -5 -28 -35 -21 -22 6 -25 9 -14 16 9 6 19 5 24
0 6 -6 14 -10 19 -10z"/>
<path d="M8390 2769 c0 -5 5 -7 10 -4 6 3 10 8 10 11 0 2 -4 4 -10 4 -5 0 -10
-5 -10 -11z"/>
<path d="M2348 2763 c7 -3 16 -2 19 1 4 3 -2 6 -13 5 -11 0 -14 -3 -6 -6z"/>
<path d="M8790 2759 c0 -5 5 -7 10 -4 6 3 10 8 10 11 0 2 -4 4 -10 4 -5 0 -10
-5 -10 -11z"/>
<path d="M6584 2752 c4 -3 14 -7 22 -8 9 -1 13 0 10 4 -4 3 -14 7 -22 8 -9 1
-13 0 -10 -4z"/>
<path d="M8295 2740 c-3 -5 -1 -10 4 -10 6 0 11 5 11 10 0 6 -2 10 -4 10 -3 0
-8 -4 -11 -10z"/>
<path d="M6736 2732 c-3 -5 1 -9 9 -9 8 0 12 4 9 9 -3 4 -7 8 -9 8 -2 0 -6 -4
-9 -8z"/>
<path d="M6825 2710 c3 -5 8 -10 11 -10 2 0 4 5 4 10 0 6 -5 10 -11 10 -5 0
-7 -4 -4 -10z"/>
<path d="M8783 2704 c0 -7 6 -10 14 -7 7 3 13 8 13 12 0 4 -6 8 -13 8 -8 0
-14 -6 -14 -13z"/>
<path d="M6905 2690 c-3 -5 -1 -10 4 -10 6 0 11 5 11 10 0 6 -2 10 -4 10 -3 0
-8 -4 -11 -10z"/>
<path d="M8806 2678 c3 -5 10 -6 15 -3 13 9 11 12 -6 12 -8 0 -12 -4 -9 -9z"/>
<path d="M1742 2660 c0 -14 2 -19 5 -12 2 6 2 18 0 25 -3 6 -5 1 -5 -13z"/>
<path d="M6696 2672 c-2 -4 -1 -14 4 -22 7 -11 9 -9 7 8 -1 24 -3 26 -11 14z"/>
<path d="M6761 2664 c0 -11 3 -14 6 -6 3 7 2 16 -1 19 -3 4 -6 -2 -5 -13z"/>
<path d="M8471 2677 c2 -1 12 -9 22 -16 15 -12 17 -12 11 3 -3 9 -13 16 -22
16 -8 0 -13 -1 -11 -3z"/>
<path d="M8396 2658 c3 -5 10 -6 15 -3 13 9 11 12 -6 12 -8 0 -12 -4 -9 -9z"/>
<path d="M8685 2650 c-4 -6 -1 -9 6 -8 6 2 14 -3 17 -11 3 -9 0 -11 -8 -6 -9
5 -11 4 -6 -4 6 -9 11 -9 22 0 8 6 13 12 12 13 -2 1 -10 7 -20 14 -11 9 -18
10 -23 2z"/>
<path d="M7268 2638 c-9 -5 -6 -7 9 -5 12 2 25 6 28 8 8 9 -23 6 -37 -3z"/>
<path d="M8495 2630 c-3 -6 1 -7 9 -4 18 7 21 14 7 14 -6 0 -13 -4 -16 -10z"/>
<path d="M7328 2623 c7 -3 16 -2 19 1 4 3 -2 6 -13 5 -11 0 -14 -3 -6 -6z"/>
<path d="M7430 2610 c0 -5 5 -10 11 -10 5 0 7 5 4 10 -3 6 -8 10 -11 10 -2 0
-4 -4 -4 -10z"/>
<path d="M8586 2607 c3 -10 9 -15 12 -12 3 3 0 11 -7 18 -10 9 -11 8 -5 -6z"/>
<path d="M7480 2600 c-9 -6 -10 -10 -3 -10 6 0 15 5 18 10 8 12 4 12 -15 0z"/>
<path d="M7510 2600 c0 -5 6 -10 13 -11 6 0 22 -2 35 -3 13 -2 25 0 27 4 3 4
-6 6 -18 5 -12 0 -30 3 -39 7 -11 5 -18 5 -18 -2z"/>
<path d="M8475 2591 c-3 -5 -2 -12 3 -15 5 -3 9 1 9 9 0 17 -3 19 -12 6z"/>
<path d="M8552 2591 c2 -19 -4 -22 -17 -11 -9 7 -17 11 -20 9 -2 -3 4 -10 14
-16 15 -10 22 -8 35 6 13 15 14 18 2 18 -8 0 -15 -3 -14 -6z"/>
<path d="M8680 2596 c0 -2 7 -7 16 -10 8 -3 12 -2 9 4 -6 10 -25 14 -25 6z"/>
<path d="M8749 2571 c6 -10 7 -22 3 -26 -4 -5 -1 -5 6 -1 9 5 9 12 2 27 -6 10
-13 19 -16 19 -2 0 0 -8 5 -19z"/>
<path d="M7908 2568 c18 -23 5 -41 -25 -35 -13 2 -21 1 -16 -4 4 -4 26 -10 48
-13 56 -7 145 -23 178 -31 23 -6 26 -5 20 11 -4 10 -8 13 -11 6 -2 -8 -11 -8
-30 -1 -15 6 -46 12 -69 14 -59 5 -83 14 -77 29 3 7 -3 19 -13 27 -16 13 -17
12 -5 -3z"/>
<path d="M8414 2572 c-9 -5 -8 -10 1 -19 11 -10 13 -9 12 7 -1 11 -1 20 -2 20
0 0 -5 -4 -11 -8z"/>
<path d="M8589 2571 c8 -5 10 -14 6 -22 -6 -11 -5 -11 5 -2 14 12 6 33 -13 33
-8 0 -7 -3 2 -9z"/>
<path d="M6870 2530 c6 -11 13 -20 16 -20 2 0 0 9 -6 20 -6 11 -13 20 -16 20
-2 0 0 -9 6 -20z"/>
<path d="M8345 2521 c-3 -5 -2 -12 3 -15 5 -3 9 1 9 9 0 17 -3 19 -12 6z"/>
<path d="M8623 2510 c-1 -9 4 -17 11 -17 6 0 12 8 12 17 0 9 -5 17 -11 17 -6
0 -12 -8 -12 -17z"/>
<path d="M7706 2504 c-5 -14 -4 -15 9 -4 17 14 19 20 6 20 -5 0 -12 -7 -15
-16z"/>
<path d="M8126 2508 c3 -5 10 -6 15 -3 13 9 11 12 -6 12 -8 0 -12 -4 -9 -9z"/>
<path d="M8545 2509 c-4 -6 -4 -13 -1 -16 3 -4 6 -1 6 5 0 7 5 12 11 12 5 0 7
-5 3 -12 -4 -7 -3 -8 5 -4 12 8 6 26 -9 26 -5 0 -12 -5 -15 -11z"/>
<path d="M8730 2516 c0 -2 8 -10 18 -17 15 -13 16 -12 3 4 -13 16 -21 21 -21
13z"/>
<path d="M8687 2481 c-4 -17 -3 -21 5 -13 5 5 8 16 6 23 -3 8 -7 3 -11 -10z"/>
<path d="M8719 2500 c-1 -3 -3 -15 -4 -27 -2 -16 2 -20 14 -16 9 4 4 -6 -11
-20 -16 -14 -28 -29 -28 -33 0 -4 12 5 26 19 15 15 29 25 33 23 4 -3 13 -1 21
5 13 7 12 9 -1 9 -9 0 -24 10 -32 23 -9 12 -17 20 -18 17z"/>
<path d="M8135 2481 c4 -8 82 -26 98 -22 4 0 7 -5 7 -13 0 -8 4 -17 9 -20 4
-3 6 6 3 19 -2 13 -12 27 -21 29 -32 10 -101 15 -96 7z"/>
<path d="M8351 2472 c-1 -9 -15 -11 -47 -8 -25 2 -42 0 -38 -4 9 -8 62 -19
129 -26 55 -5 72 -14 70 -37 -2 -16 -1 -17 2 -3 4 16 11 18 51 12 26 -4 56 -9
68 -10 30 -4 45 -16 38 -28 -4 -7 -2 -8 5 -4 6 4 8 12 5 18 -5 7 2 9 22 4 16
-5 44 -10 63 -12 19 -3 38 -7 42 -10 5 -3 9 -1 9 5 0 5 -6 11 -12 14 -7 2 -11
7 -8 10 10 11 33 -11 27 -26 -3 -9 -26 -17 -61 -21 -37 -5 -54 -11 -50 -18 4
-7 2 -8 -4 -4 -21 13 -53 16 -46 4 5 -7 2 -9 -9 -5 -9 3 -19 2 -22 -3 -4 -6
-18 -10 -32 -10 -14 0 -32 -8 -40 -17 -8 -10 -12 -13 -9 -7 3 7 -3 14 -14 17
-11 3 -18 1 -14 -4 4 -8 -17 -14 -38 -10 -13 2 -9 -17 5 -22 8 -4 9 -6 0 -6
-6 -1 -19 6 -27 15 -9 8 -16 11 -16 6 0 -6 -9 -8 -20 -5 -12 3 -20 0 -20 -8 0
-7 -3 -9 -7 -6 -3 4 -12 2 -20 -4 -9 -9 -17 -8 -27 0 -11 9 -16 9 -22 0 -5 -8
-3 -9 6 -4 8 5 11 4 6 -3 -4 -6 -12 -9 -19 -6 -7 2 -32 -2 -57 -10 -25 -8 -37
-14 -28 -15 9 -1 28 3 42 9 14 5 26 6 26 1 0 -8 -91 -30 -150 -37 -14 -2 -35
-5 -47 -8 -13 -3 -26 0 -29 6 -4 6 -2 8 4 4 6 -3 13 -2 16 3 9 14 -22 7 -37
-9 -10 -10 -9 -11 3 -5 9 5 12 4 7 -1 -5 -5 -13 -10 -18 -10 -5 -1 -10 -2 -11
-4 -2 -1 -11 -3 -21 -5 -15 -3 -16 -1 -5 13 7 9 -1 6 -16 -8 -26 -22 -28 -23
-23 -5 7 20 7 20 -8 1 -8 -11 -15 -15 -15 -10 0 6 -7 11 -15 11 -9 0 -14 -6
-11 -14 8 -19 -4 -16 -20 5 -12 16 -13 15 -14 -5 0 -13 -6 -23 -14 -23 -8 0
-21 -3 -30 -6 -12 -4 -16 0 -17 17 -1 19 -2 20 -6 6 -3 -13 -11 -17 -24 -14
-16 4 -18 3 -9 -8 10 -12 7 -13 -11 -10 -12 3 -27 9 -32 14 -10 10 -37 4 -37
-9 0 -5 8 -6 19 -3 10 3 21 1 24 -4 3 -5 -6 -8 -21 -8 -15 1 -35 -3 -46 -8
-13 -6 -16 -6 -12 2 4 6 2 11 -3 11 -6 0 -11 -6 -11 -14 0 -14 -16 -16 -35 -4
-5 3 -22 4 -38 2 -15 -1 -25 1 -22 6 3 5 0 12 -6 16 -7 4 -9 3 -6 -3 4 -6 0
-13 -8 -17 -8 -3 -15 -12 -15 -21 0 -19 -7 -19 -25 -1 -8 7 -11 17 -7 21 4 5
2 5 -5 2 -6 -4 -9 -16 -6 -27 4 -14 -1 -21 -21 -26 -21 -5 -26 -12 -27 -38 0
-17 0 -201 1 -409 l1 -378 -22 11 c-17 9 -20 9 -17 -1 2 -7 12 -13 23 -15 24
-4 37 -26 22 -37 -8 -6 -7 -7 3 -4 8 2 14 10 13 16 -4 14 69 10 79 -4 5 -6 8
-6 8 1 0 17 72 6 88 -14 11 -14 12 -14 12 2 0 11 4 14 13 9 6 -4 39 -9 72 -10
67 -2 91 -6 101 -15 3 -4 18 -2 32 3 14 6 28 6 31 1 10 -15 67 -22 81 -9 10 9
11 9 5 -2 -7 -11 -2 -13 24 -8 22 5 30 3 25 -4 -4 -7 1 -9 15 -4 12 4 21 2 21
-4 0 -6 -5 -11 -12 -11 -6 0 -8 -3 -5 -7 4 -3 16 2 28 12 17 17 22 17 29 5 8
-13 10 -13 10 0 0 13 2 13 9 0 12 -18 3 -33 -16 -26 -8 3 -11 1 -8 -4 3 -6 15
-10 25 -10 14 0 18 6 15 21 -4 21 -4 21 15 4 11 -10 17 -23 13 -29 -4 -6 0 -6
9 1 8 7 19 9 23 5 5 -4 5 -1 1 6 -4 6 -2 12 4 12 6 0 8 5 5 10 -3 6 -2 10 3
10 11 0 26 -30 23 -43 -1 -5 4 -5 11 -1 7 5 18 9 23 9 6 1 23 5 38 9 22 7 31
4 42 -10 8 -11 15 -14 15 -9 0 6 9 11 19 11 11 0 17 -4 15 -8 -7 -10 10 -10
20 0 14 13 31 8 54 -16 20 -21 26 -41 25 -79 -1 -7 4 -13 9 -13 5 0 7 12 4 28
-4 15 -8 37 -11 50 -2 12 -6 26 -10 31 -3 5 -1 13 5 16 6 4 10 3 9 -2 -1 -4
-1 -15 0 -23 1 -11 4 -11 13 -2 7 7 17 12 22 12 6 0 4 -5 -4 -10 -13 -8 -13
-11 -1 -22 10 -10 12 -10 7 0 -9 15 -1 15 25 2 11 -7 19 -7 19 -1 0 5 -5 11
-12 13 -8 3 -6 7 5 11 9 3 16 3 15 -1 -1 -4 3 -16 9 -28 10 -18 8 -25 -16 -48
-15 -14 -30 -24 -33 -20 -4 3 -5 -2 -3 -13 2 -10 4 -20 4 -23 1 -3 10 9 20 26
19 32 41 52 41 38 0 -4 -7 -16 -17 -26 -24 -27 -7 -35 20 -10 17 16 26 19 34
11 9 -9 11 -7 8 7 -2 11 -4 19 -5 19 -1 0 -3 14 -5 30 -2 17 -1 22 1 13 4 -14
10 -15 31 -7 14 5 28 7 31 4 3 -3 0 -5 -6 -5 -7 0 -10 -10 -8 -22 1 -13 -3
-27 -10 -33 -9 -7 -11 -15 -4 -25 8 -13 10 -12 10 3 0 10 4 16 9 13 5 -3 7 7
6 22 -1 15 4 33 10 39 10 9 15 6 20 -15 8 -33 24 -54 37 -46 5 3 6 14 3 24 -8
25 44 39 57 15 5 -8 13 -13 17 -10 5 2 14 -1 20 -9 6 -7 25 -12 41 -11 25 2
30 -1 30 -20 0 -13 -7 -26 -16 -29 -21 -8 -26 -8 -20 2 2 4 -4 9 -15 9 -12 1
-18 -3 -16 -10 3 -7 10 -11 16 -10 6 2 11 -1 11 -5 0 -20 -15 -20 -44 -1 l-31
21 28 -24 c31 -27 35 -40 10 -31 -10 3 -15 3 -11 -1 3 -4 12 -8 20 -10 7 -1
18 -5 25 -9 6 -4 14 -3 18 3 3 5 -1 10 -9 10 -21 0 -20 13 2 33 22 20 36 22
26 4 -4 -6 -4 -9 1 -5 4 4 14 3 22 -3 9 -9 13 -8 13 0 0 6 -7 14 -15 17 -14 6
-13 8 2 21 10 8 12 12 6 8 -19 -9 -16 25 3 46 15 17 17 17 38 -2 l21 -20 3
658 c2 479 -1 664 -9 680 -14 26 -49 38 -49 16 0 -8 -5 -11 -12 -7 -8 5 -9 2
-4 -11 5 -15 4 -16 -9 -5 -9 7 -14 19 -11 27 3 7 -1 13 -10 13 -8 0 -12 5 -9
10 3 6 -1 10 -9 10 -9 0 -16 -4 -16 -8 0 -19 -64 3 -90 30 -17 17 -31 25 -35
19 -15 -25 -43 -31 -61 -13 -17 16 -18 16 -11 -1 4 -11 3 -16 -3 -12 -6 3 -10
14 -11 23 0 14 -2 13 -9 -3 -6 -13 -9 -15 -9 -5 -1 13 -2 13 -11 0 -5 -8 -10
-10 -10 -5 0 6 -18 10 -39 10 -30 0 -37 3 -30 11 7 8 6 15 -2 20 -7 4 -9 3 -6
-3 4 -6 0 -14 -9 -17 -22 -8 -36 -7 -30 2 2 4 -5 8 -17 9 -20 1 -64 8 -77 13
-3 1 -13 2 -22 1 -9 -1 -18 6 -21 16 -3 10 -5 12 -6 5z m399 -66 c0 -3 -4 -8
-10 -11 -5 -3 -10 -1 -10 4 0 6 5 11 10 11 6 0 10 -2 10 -4z m-263 -132 c-3
-3 -12 -4 -19 -1 -8 3 -5 6 6 6 11 1 17 -2 13 -5z m-915 -195 c-4 -4 -22 -9
-39 -12 -24 -5 -33 -3 -33 7 0 8 13 12 39 12 22 -1 37 -4 33 -7z m577 -945 c7
5 9 1 5 -8 -5 -14 -24 -23 -24 -12 0 2 -3 13 -6 23 -4 14 -4 15 4 4 5 -7 15
-11 21 -7z m118 -20 c-10 -11 -56 -13 -62 -4 -3 5 6 7 19 4 14 -2 28 1 31 7 4
5 10 8 13 5 3 -3 2 -9 -1 -12z m347 -104 c5 -8 6 -12 1 -7 -4 4 -20 -3 -34
-15 l-26 -23 22 25 c16 18 19 30 13 40 -5 8 -9 24 -9 35 0 14 4 12 11 -10 6
-16 16 -37 22 -45z m140 49 c-3 -5 1 -9 8 -10 7 0 3 -4 -10 -10 -18 -7 -22
-14 -17 -30 5 -15 4 -19 -4 -15 -14 9 -14 56 0 56 8 0 8 4 0 14 -10 12 -8 13
8 9 12 -3 18 -9 15 -14z m41 -7 c-3 -3 -11 0 -18 7 -9 10 -8 11 6 5 10 -3 15
-9 12 -12z m49 -18 c6 2 8 1 3 -1 -13 -8 3 -22 18 -16 8 3 15 1 15 -5 0 -13
-24 -10 -42 6 -8 6 -17 10 -20 7 -2 -3 -5 2 -5 10 0 10 4 12 10 6 5 -5 15 -8
21 -7z m58 -26 c-7 -7 -12 -8 -12 -2 0 14 12 26 19 19 2 -3 -1 -11 -7 -17z"/>
<path d="M8590 2445 c-7 -9 -10 -18 -6 -22 3 -3 6 -2 6 4 0 6 8 10 18 8 9 -1
11 0 4 2 -7 3 -10 9 -7 14 10 15 -1 10 -15 -6z"/>
<path d="M8680 2439 c0 -5 5 -7 10 -4 6 3 10 8 10 11 0 2 -4 4 -10 4 -5 0 -10
-5 -10 -11z"/>
<path d="M8147 2409 c7 -7 15 -10 18 -7 3 3 -2 9 -12 12 -14 6 -15 5 -6 -5z"/>
<path d="M7000 2402 c0 -5 7 -9 15 -9 8 0 12 4 9 9 -3 4 -9 8 -15 8 -5 0 -9
-4 -9 -8z"/>
<path d="M1810 2354 c0 -8 5 -12 10 -9 6 3 10 10 10 16 0 5 -4 9 -10 9 -5 0
-10 -7 -10 -16z"/>
<path d="M8206 2292 c-3 -5 1 -9 9 -9 8 0 12 4 9 9 -3 4 -7 8 -9 8 -2 0 -6 -4
-9 -8z"/>
<path d="M7215 2250 c-16 -25 -14 -59 2 -70 17 -11 16 -11 -1 -5 -19 6 -36 -9
-36 -32 0 -7 5 -13 11 -13 5 0 7 5 4 10 -3 6 -2 10 4 10 5 0 14 -7 19 -16 8
-13 10 -10 14 16 3 21 0 34 -9 37 -7 3 -13 10 -13 15 0 6 6 8 13 5 8 -3 14 1
14 8 0 7 -7 11 -15 8 -12 -5 -12 -2 -3 15 12 22 8 31 -4 12z"/>
<path d="M7455 2231 c-3 -5 -1 -12 5 -16 6 -4 7 -11 4 -17 -4 -7 -2 -8 5 -4 8
6 9 12 2 20 -6 7 -8 16 -4 19 3 4 4 7 0 7 -3 0 -8 -4 -12 -9z"/>
<path d="M8161 2224 c0 -11 3 -14 6 -6 3 7 2 16 -1 19 -3 4 -6 -2 -5 -13z"/>
<path d="M7415 2179 c-4 -6 -5 -12 -2 -15 2 -3 7 2 10 11 7 17 1 20 -8 4z"/>
<path d="M7259 2167 c-14 -11 -15 -15 -4 -31 8 -10 18 -15 23 -12 6 3 13 0 15
-6 3 -7 5 1 5 17 0 17 -2 24 -5 18 -5 -15 -33 -18 -33 -3 0 5 8 14 18 19 9 6
13 10 7 10 -5 0 -17 -5 -26 -12z"/>
<path d="M6950 2150 c0 -5 5 -10 11 -10 5 0 7 5 4 10 -3 6 -8 10 -11 10 -2 0
-4 -4 -4 -10z"/>
<path d="M7800 2139 c0 -5 5 -7 10 -4 6 3 10 8 10 11 0 2 -4 4 -10 4 -5 0 -10
-5 -10 -11z"/>
<path d="M7147 2110 c-4 -15 0 -20 14 -20 10 0 19 5 19 11 0 5 -4 7 -10 4 -6
-3 -7 1 -4 9 3 9 2 16 -4 16 -5 0 -12 -9 -15 -20z"/>
<path d="M7190 2115 c0 -17 14 -30 47 -42 31 -11 32 -10 22 9 -6 12 -17 17
-26 14 -9 -4 -21 1 -29 11 -7 10 -13 14 -14 8z"/>
<path d="M7345 2088 c2 -10 -3 -18 -11 -18 -8 0 -11 6 -8 15 9 22 -9 18 -30
-6 -11 -13 -13 -19 -4 -16 7 2 21 0 30 -4 10 -6 19 -5 23 1 3 5 11 10 16 10 6
0 8 -4 4 -9 -9 -15 15 -25 28 -12 9 9 7 10 -7 5 -13 -5 -17 -4 -12 4 9 16 33
15 39 0 4 -10 7 -10 18 0 12 11 12 13 -1 10 -8 -2 -14 3 -15 11 0 8 -7 16 -15
18 -12 4 -12 3 -2 -5 11 -7 9 -10 -7 -15 -12 -3 -21 -1 -21 5 0 5 -4 7 -9 3
-5 -3 -11 0 -14 7 -2 7 -3 5 -2 -4z"/>
<path d="M7065 2071 c-3 -5 -2 -12 3 -15 5 -3 9 1 9 9 0 17 -3 19 -12 6z"/>
<path d="M7346 1975 c-9 -26 -7 -32 5 -12 6 10 9 21 6 23 -2 3 -7 -2 -11 -11z"/>
<path d="M7156 1941 c-14 -15 -15 -21 -4 -27 7 -4 10 -3 5 1 -4 5 0 17 10 27
9 10 14 18 11 18 -3 0 -13 -9 -22 -19z"/>
<path d="M7213 1863 c4 -3 1 -13 -6 -22 -11 -14 -10 -14 5 -2 16 12 16 31 1
31 -4 0 -3 -3 0 -7z"/>
<path d="M7232 1822 c-11 -25 -11 -25 4 -10 9 9 15 21 13 27 -2 6 -10 -2 -17
-17z"/>
<path d="M7070 1799 c0 -5 -4 -7 -10 -4 -14 9 -12 -1 3 -13 10 -8 13 -6 14 9
1 10 0 19 -3 19 -2 0 -4 -5 -4 -11z"/>
<path d="M6979 1723 c-13 -16 -12 -17 4 -4 16 13 21 21 13 21 -2 0 -10 -8 -17
-17z"/>
<path d="M7194 1728 c-4 -7 -3 -8 4 -4 12 7 15 -2 13 -39 l-1 -20 9 20 c5 11
5 28 -1 38 -10 20 -14 21 -24 5z"/>
<path d="M5878 1673 c7 -3 16 -2 19 1 4 3 -2 6 -13 5 -11 0 -14 -3 -6 -6z"/>
<path d="M5948 1653 c7 -3 16 -2 19 1 4 3 -2 6 -13 5 -11 0 -14 -3 -6 -6z"/>
<path d="M7016 1638 c3 -5 10 -6 15 -3 13 9 11 12 -6 12 -8 0 -12 -4 -9 -9z"/>
<path d="M6070 1615 c19 -7 42 -13 50 -13 8 0 -1 6 -20 13 -19 7 -42 13 -50
13 -8 0 1 -6 20 -13z"/>
<path d="M7340 1590 c-8 -5 -10 -10 -5 -10 6 0 17 5 25 10 8 5 11 10 5 10 -5
0 -17 -5 -25 -10z"/>
<path d="M6290 1550 c8 -5 22 -9 30 -9 10 0 8 3 -5 9 -27 12 -43 12 -25 0z"/>
<path d="M6340 1536 c0 -2 7 -7 16 -10 8 -3 12 -2 9 4 -6 10 -25 14 -25 6z"/>
<path d="M6455 1500 c27 -12 43 -12 25 0 -8 5 -22 9 -30 9 -10 0 -8 -3 5 -9z"/>
<path d="M6500 1486 c0 -2 9 -6 20 -9 11 -3 18 -1 14 4 -5 9 -34 13 -34 5z"/>
<path d="M6560 1470 c8 -5 20 -10 25 -10 6 0 3 5 -5 10 -8 5 -19 10 -25 10 -5
0 -3 -5 5 -10z"/>
<path d="M6600 1456 c0 -2 7 -6 15 -10 8 -3 15 -1 15 4 0 6 -7 10 -15 10 -8 0
-15 -2 -15 -4z"/>
<path d="M6640 1446 c0 -2 7 -7 16 -10 8 -3 12 -2 9 4 -6 10 -25 14 -25 6z"/>
<path d="M6690 1430 c8 -5 22 -9 30 -9 10 0 8 3 -5 9 -27 12 -43 12 -25 0z"/>
<path d="M6755 1410 c27 -12 43 -12 25 0 -8 5 -22 9 -30 9 -10 0 -8 -3 5 -9z"/>
<path d="M6830 1386 c0 -2 11 -6 25 -8 13 -3 22 -1 19 3 -5 9 -44 13 -44 5z"/>
<path d="M6980 1340 c30 -11 60 -19 65 -19 18 0 -51 27 -86 33 -22 4 -14 -1
21 -14z"/>
<path d="M6609 1333 c-13 -16 -12 -17 4 -4 16 13 21 21 13 21 -2 0 -10 -8 -17
-17z"/>
<path d="M6235 1329 c-4 -6 -5 -12 -2 -15 2 -3 7 2 10 11 7 17 1 20 -8 4z"/>
<path d="M7123 1296 c37 -12 66 -24 63 -26 -2 -3 8 -6 22 -7 15 -1 53 -11 85
-21 31 -11 57 -16 57 -12 0 4 -27 15 -60 24 -33 10 -58 21 -55 26 3 6 -1 7 -9
4 -8 -3 -44 4 -81 15 -37 12 -72 21 -79 20 -6 0 20 -11 57 -23z"/>
<path d="M6996 1288 c3 -5 10 -6 15 -3 13 9 11 12 -6 12 -8 0 -12 -4 -9 -9z"/>
<path d="M6933 1275 c0 -8 4 -12 9 -9 5 3 6 10 3 15 -9 13 -12 11 -12 -6z"/>
<path d="M7013 1185 c0 -8 4 -12 9 -9 5 3 6 10 3 15 -9 13 -12 11 -12 -6z"/>
<path d="M7270 1191 c0 -7 -6 -11 -13 -8 -8 3 -20 1 -28 -5 -11 -8 -10 -9 4
-4 9 3 17 1 17 -4 0 -6 -5 -10 -12 -10 -6 0 -8 -3 -5 -6 4 -4 13 -1 21 5 11
10 17 8 25 -6 6 -11 11 -13 11 -5 0 7 4 11 9 7 5 -3 12 -1 16 5 3 5 -1 10 -9
10 -8 0 -20 8 -25 18 -7 11 -10 12 -11 3z"/>
<path d="M7460 1164 c-7 -8 -19 -13 -27 -10 -8 4 -11 1 -8 -5 4 -6 13 -8 20
-5 7 2 18 0 24 -5 6 -5 9 -6 6 -3 -3 4 0 13 6 20 6 7 6 14 1 18 -6 3 -15 -1
-22 -10z"/>
<path d="M6965 1160 c-3 -6 1 -7 9 -4 18 7 21 14 7 14 -6 0 -13 -4 -16 -10z"/>
<path d="M7330 1155 c-7 -9 -11 -17 -9 -20 3 -2 10 5 17 15 14 24 10 26 -8 5z"/>
<path d="M7366 1155 c-9 -26 -7 -32 5 -12 6 10 9 21 6 23 -2 3 -7 -2 -11 -11z"/>
<path d="M7664 1158 c3 -15 26 -23 26 -8 0 6 -4 9 -9 6 -5 -4 -12 -1 -14 4 -3
6 -4 5 -3 -2z"/>
<path d="M6979 1133 c-13 -16 -12 -17 4 -4 9 7 17 15 17 17 0 8 -8 3 -21 -13z"/>
<path d="M7536 1133 c-6 -14 -5 -15 5 -6 7 7 10 15 7 18 -3 3 -9 -2 -12 -12z"/>
<path d="M7590 1139 c0 -5 5 -7 10 -4 6 3 10 8 10 11 0 2 -4 4 -10 4 -5 0 -10
-5 -10 -11z"/>
<path d="M7705 1139 c-11 -16 -1 -19 13 -3 7 8 8 14 3 14 -5 0 -13 -5 -16 -11z"/>
<path d="M7778 1143 c-3 -16 -6 -28 -8 -33 -1 -3 -3 -20 -5 -38 -4 -35 4 -38
10 -5 2 10 4 18 5 18 1 0 3 15 5 33 2 28 -2 45 -7 25z"/>
<path d="M7815 1140 c-16 -7 -17 -9 -3 -9 9 -1 20 4 23 9 7 11 7 11 -20 0z"/>
<path d="M7876 1129 c-4 -9 -6 -22 -4 -29 2 -7 -3 -15 -11 -17 -9 -4 -11 1 -7
18 3 13 3 18 0 11 -5 -10 -9 -10 -20 -1 -11 9 -18 9 -26 1 -7 -7 -8 -12 -4
-12 5 0 3 -7 -4 -15 -7 -9 -10 -18 -7 -22 4 -3 1 -13 -5 -22 -10 -13 -10 -14
2 -3 17 15 34 16 24 1 -4 -8 -1 -8 12 -1 20 10 47 5 40 -7 -7 -11 27 -10 42 2
6 5 12 14 12 20 0 6 -6 2 -14 -9 -12 -15 -17 -17 -27 -6 -11 10 -9 12 6 12 10
0 15 3 12 7 -4 3 -3 11 2 17 6 7 4 23 -4 41 -10 24 -14 27 -19 14z m-35 -41
c17 -33 18 -33 34 -12 8 10 15 14 15 8 0 -27 -65 -42 -86 -21 -9 9 6 28 17 22
5 -4 9 -2 9 4 0 5 -6 12 -12 14 -10 4 -10 6 -1 6 7 1 18 -9 24 -21z"/>
<path d="M7373 1118 c-13 -21 -12 -35 3 -35 9 0 11 4 4 12 -6 7 -5 16 2 23 7
7 9 12 6 12 -4 0 -10 -6 -15 -12z"/>
<path d="M7418 1123 c-22 -5 -24 -20 -3 -20 8 0 16 6 19 14 3 7 4 12 3 12 -1
-1 -10 -3 -19 -6z"/>
<path d="M7673 1117 c0 -8 6 -14 14 -14 9 0 10 4 2 14 -6 7 -12 13 -14 13 -1
0 -2 -6 -2 -13z"/>
<path d="M7723 1111 c1 -12 7 -21 15 -21 16 0 12 32 -5 37 -7 3 -11 -4 -10
-16z"/>
<path d="M7919 1113 c-7 -10 -9 -15 -5 -11 5 4 15 3 23 -3 9 -9 13 -8 13 0 0
6 -5 11 -11 11 -5 0 -7 5 -4 10 10 17 -2 11 -16 -7z"/>
<path d="M7959 1114 c6 -12 7 -25 3 -29 -4 -3 -2 -5 5 -3 6 2 10 -1 10 -7 -1
-5 -6 -9 -10 -7 -5 1 -6 -2 -2 -8 5 -8 11 -8 21 1 7 6 12 15 9 19 -3 5 1 11 7
13 10 4 10 6 1 6 -7 1 -15 0 -18 -1 -2 -2 -11 6 -20 17 -16 20 -16 20 -6 -1z"/>
<path d="M7630 1111 c0 -7 -5 -9 -12 -5 -7 4 -10 3 -5 -1 4 -5 0 -19 -8 -32
-15 -23 -15 -23 4 -11 11 7 18 14 16 17 -3 2 0 10 7 18 6 7 8 16 4 20 -3 3 -6
1 -6 -6z"/>
<path d="M7240 1100 c-9 -6 -10 -10 -3 -10 6 0 15 5 18 10 8 12 4 12 -15 0z"/>
<path d="M7470 1095 c0 -8 2 -15 4 -15 2 0 6 7 10 15 3 8 1 15 -4 15 -6 0 -10
-7 -10 -15z"/>
<path d="M7540 1101 c0 -5 5 -13 10 -16 6 -3 10 -2 10 4 0 5 -4 13 -10 16 -5
3 -10 2 -10 -4z"/>
<path d="M7035 1090 c-3 -5 -1 -10 4 -10 6 0 11 5 11 10 0 6 -2 10 -4 10 -3 0
-8 -4 -11 -10z"/>
<path d="M7326 1083 c-6 -14 -5 -15 5 -6 7 7 10 15 7 18 -3 3 -9 -2 -12 -12z"/>
<path d="M8255 1070 c-3 -11 -11 -20 -17 -20 -5 0 -7 7 -4 16 5 14 4 15 -9 4
-21 -18 -19 -28 8 -32 15 -2 22 -10 22 -25 0 -11 4 -25 9 -30 5 -4 6 -3 3 4
-10 16 3 45 17 40 7 -3 23 4 37 15 l24 19 -25 -12 c-30 -16 -59 -19 -66 -7 -3
4 -1 8 3 8 5 0 9 9 10 20 1 11 0 20 -2 20 -2 0 -7 -9 -10 -20z"/>
<path d="M7069 1063 c-13 -16 -12 -17 4 -4 16 13 21 21 13 21 -2 0 -10 -8 -17
-17z"/>
<path d="M8059 1078 c-1 -2 -2 -14 -3 -28 0 -14 -4 -29 -8 -35 -3 -6 9 -11 31
-11 31 -2 37 1 36 17 -1 21 -35 61 -35 42 0 -6 6 -13 13 -16 9 -3 9 -7 0 -17
-16 -18 -31 -5 -28 25 3 20 -1 34 -6 23z"/>
<path d="M8145 1071 c-3 -5 -2 -12 3 -15 5 -3 9 1 9 9 0 17 -3 19 -12 6z"/>
<path d="M8385 1071 c-3 -5 0 -13 6 -17 7 -4 9 -3 5 4 -3 5 0 13 6 15 9 4 10
6 1 6 -6 1 -14 -3 -18 -8z"/>
<path d="M6913 1055 c0 -8 4 -12 9 -9 5 3 6 10 3 15 -9 13 -12 11 -12 -6z"/>
<path d="M7637 1051 c-4 -17 -3 -21 5 -13 5 5 8 16 6 23 -3 8 -7 3 -11 -10z"/>
<path d="M8115 1060 c3 -5 8 -10 11 -10 2 0 4 5 4 10 0 6 -5 10 -11 10 -5 0
-7 -4 -4 -10z"/>
<path d="M6515 1050 c-3 -6 1 -7 9 -4 18 7 21 14 7 14 -6 0 -13 -4 -16 -10z"/>
<path d="M7669 1053 c-1 -4 -1 -11 0 -15 0 -5 -4 -8 -11 -8 -6 0 -8 -3 -5 -6
4 -4 13 -1 22 6 8 7 25 10 36 7 28 -8 11 9 -18 18 -13 3 -24 3 -24 -2z"/>
<path d="M6816 1033 c-6 -14 -5 -15 5 -6 7 7 10 15 7 18 -3 3 -9 -2 -12 -12z"/>
<path d="M6942 1030 c0 -14 2 -19 5 -12 2 6 2 18 0 25 -3 6 -5 1 -5 -13z"/>
<path d="M7532 1041 c4 -16 44 -25 52 -13 3 5 -5 8 -17 7 -12 -1 -26 3 -30 9
-6 7 -7 6 -5 -3z"/>
<path d="M8360 1035 c0 -8 4 -15 10 -15 5 0 7 7 4 15 -4 8 -8 15 -10 15 -2 0
-4 -7 -4 -15z"/>
<path d="M7503 1025 c0 -8 4 -12 8 -9 4 2 10 -2 12 -8 4 -8 6 -9 6 -2 1 6 -5
17 -12 23 -10 8 -14 7 -14 -4z"/>
<path d="M8174 1029 c-5 -8 -3 -9 6 -4 7 4 16 2 22 -6 8 -12 9 -12 6 0 -6 20
-24 25 -34 10z"/>
<path d="M7591 1016 c-9 -11 -9 -16 1 -22 7 -4 10 -4 6 1 -4 4 -3 14 3 22 6 7
9 13 6 13 -2 0 -10 -6 -16 -14z"/>
<path d="M7830 1026 c0 -2 8 -10 18 -17 15 -13 16 -12 3 4 -13 16 -21 21 -21
13z"/>
<path d="M8001 1016 c-10 -11 -9 -14 1 -12 14 2 23 15 15 22 -2 2 -10 -2 -16
-10z"/>
<path d="M8134 1021 c3 -4 -1 -17 -9 -27 -8 -10 -14 -26 -14 -34 0 -9 5 -6 11
8 6 13 16 21 23 19 6 -3 11 4 11 14 0 10 -6 21 -14 24 -7 2 -11 1 -8 -4z"/>
<path d="M8214 1005 c-10 -14 -24 -23 -29 -21 -6 2 -12 -6 -13 -17 -1 -15 1
-18 7 -9 4 7 14 12 22 10 8 -2 13 2 12 9 -2 7 4 10 13 6 13 -5 13 -7 2 -14 -7
-5 -9 -9 -5 -9 4 0 -4 -15 -18 -34 -22 -29 -23 -34 -8 -32 11 0 17 -5 15 -14
-3 -13 -1 -13 10 -1 10 11 10 14 1 18 -15 6 -17 32 -3 34 6 1 16 2 23 3 24 4
28 -6 12 -32 l-16 -27 20 23 c21 24 18 57 -5 48 -8 -3 -14 1 -14 10 0 9 5 13
13 9 6 -4 2 2 -10 13 -16 14 -19 22 -11 30 7 7 9 14 6 17 -3 3 -14 -6 -24 -20z"/>
<path d="M8307 1012 c-21 -23 -22 -39 -2 -22 12 10 15 10 15 0 0 -6 -9 -14
-20 -17 -11 -3 -20 -10 -20 -15 0 -6 11 -3 24 5 23 15 36 13 36 -5 0 -5 -5 -6
-12 -2 -7 4 -8 3 -4 -5 4 -6 12 -9 17 -6 5 4 9 2 9 -2 0 -5 -9 -14 -21 -21
-12 -7 -18 -16 -15 -19 8 -8 46 27 46 42 0 17 28 27 36 14 3 -6 15 -9 25 -6
18 5 25 -9 20 -37 -1 -5 4 -4 12 2 8 7 18 8 23 4 5 -4 -2 5 -15 20 -14 16 -29
24 -39 21 -9 -4 -13 -2 -9 4 7 11 -34 10 -52 -2 -6 -3 -11 -1 -11 4 0 6 5 11
10 11 6 0 10 8 10 18 -1 15 -2 15 -15 -2 -8 -11 -18 -17 -21 -13 -4 4 -2 13 4
20 11 13 7 27 -8 27 -4 0 -14 -8 -23 -18z"/>
<path d="M8691 1014 c0 -11 3 -14 6 -6 3 7 2 16 -1 19 -3 4 -6 -2 -5 -13z"/>
<path d="M8775 1020 c-3 -5 -1 -10 4 -10 6 0 11 5 11 10 0 6 -2 10 -4 10 -3 0
-8 -4 -11 -10z"/>
<path d="M7440 1010 c8 -5 20 -10 25 -10 6 0 3 5 -5 10 -8 5 -19 10 -25 10 -5
0 -3 -5 5 -10z"/>
<path d="M7695 1011 c-3 -5 -2 -12 3 -15 5 -3 9 1 9 9 0 17 -3 19 -12 6z"/>
<path d="M7806 1003 c-6 -14 -5 -15 5 -6 7 7 10 15 7 18 -3 3 -9 -2 -12 -12z"/>
<path d="M7870 1005 c0 -7 30 -13 34 -7 3 4 -4 9 -15 9 -10 1 -19 0 -19 -2z"/>
<path d="M8380 1000 c0 -6 7 -10 15 -10 8 0 15 2 15 4 0 2 -7 6 -15 10 -8 3
-15 1 -15 -4z"/>
<path d="M8420 1001 c0 -5 5 -13 10 -16 6 -3 10 -2 10 4 0 5 -4 13 -10 16 -5
3 -10 2 -10 -4z"/>
<path d="M8940 999 c0 -5 5 -7 10 -4 6 3 10 8 10 11 0 2 -4 4 -10 4 -5 0 -10
-5 -10 -11z"/>
<path d="M8790 996 c0 -2 7 -9 15 -16 13 -11 14 -10 9 4 -5 14 -24 23 -24 12z"/>
<path d="M6940 981 c0 -6 4 -13 10 -16 6 -3 7 1 4 9 -7 18 -14 21 -14 7z"/>
<path d="M7360 981 c0 -7 -5 -9 -12 -5 -7 5 -8 3 -3 -5 5 -9 10 -10 18 -2 6 6
8 14 4 18 -4 3 -7 1 -7 -6z"/>
<path d="M7500 986 c0 -2 7 -7 16 -10 8 -3 12 -2 9 4 -6 10 -25 14 -25 6z"/>
<path d="M7578 977 c7 -8 8 -18 4 -22 -4 -5 -1 -5 6 -1 17 10 15 23 -4 30 -13
5 -14 4 -6 -7z"/>
<path d="M7644 982 c4 -6 -1 -15 -10 -20 -10 -6 -12 -12 -6 -16 5 -3 13 2 16
11 6 14 9 15 15 4 6 -9 11 -10 15 -3 4 6 -3 16 -15 22 -13 8 -19 8 -15 2z"/>
<path d="M7990 975 c-7 -9 -11 -17 -9 -20 3 -2 10 5 17 15 14 24 10 26 -8 5z"/>
<path d="M8078 983 c7 -3 16 -2 19 1 4 3 -2 6 -13 5 -11 0 -14 -3 -6 -6z"/>
<path d="M8957 983 c-12 -12 -7 -22 8 -17 8 4 15 10 15 15 0 11 -14 12 -23 2z"/>
<path d="M7775 970 c-3 -5 -1 -10 4 -10 6 0 11 5 11 10 0 6 -2 10 -4 10 -3 0
-8 -4 -11 -10z"/>
<path d="M8480 970 c-9 -6 -10 -10 -3 -10 6 0 15 5 18 10 8 12 4 12 -15 0z"/>
<path d="M8690 965 c-7 -8 -10 -15 -6 -15 4 0 -12 -23 -34 -51 -34 -44 -38
-54 -29 -72 18 -33 19 -33 14 6 -3 24 0 37 10 40 7 3 16 1 18 -6 2 -7 2 0 0
16 -3 16 0 27 7 27 6 0 9 -4 6 -9 -4 -5 2 -8 11 -7 10 2 21 -2 25 -8 5 -8 8
-7 8 2 0 7 5 10 10 7 6 -4 7 -11 4 -17 -4 -7 -2 -8 5 -4 6 4 9 11 6 16 -3 4 1
10 7 13 7 2 9 8 5 13 -4 5 -12 3 -16 -4 -6 -10 -10 -10 -18 0 -8 9 -7 17 3 26
8 7 14 8 14 2 0 -5 6 -10 14 -10 8 0 16 -5 18 -12 3 -9 6 -9 12 0 4 7 2 12 -5
12 -7 0 -5 8 7 22 10 12 13 18 7 14 -7 -4 -13 -2 -13 3 0 6 -4 11 -9 11 -6 0
-8 -9 -6 -19 2 -14 -1 -18 -11 -14 -7 3 -11 10 -7 17 3 6 -3 3 -14 -6 -26 -23
-32 -23 -26 2 6 24 0 26 -17 5z m18 -47 c11 -14 11 -16 -2 -14 -21 3 -29 13
-21 26 4 6 8 10 9 8 1 -2 7 -11 14 -20z"/>
<path d="M8140 946 c0 -31 6 -34 13 -6 3 11 1 23 -4 26 -5 3 -9 -6 -9 -20z"/>
<path d="M8589 965 c-1 -3 -2 -8 -3 -12 -1 -5 -6 -15 -11 -23 -5 -8 -11 -24
-12 -35 -3 -16 -1 -17 7 -5 7 11 10 11 10 2 0 -7 4 -11 9 -8 4 3 7 -13 5 -35
-1 -23 0 -39 3 -35 3 3 7 23 8 45 3 32 0 40 -17 44 -13 4 -17 10 -12 18 5 9 9
9 11 2 2 -6 13 -8 25 -5 16 4 19 2 13 -8 -5 -8 -4 -11 3 -6 17 10 3 36 -15 29
-11 -4 -14 -2 -9 5 4 7 2 12 -4 12 -6 0 -8 5 -5 10 3 6 4 10 1 10 -3 0 -7 -2
-7 -5z"/>
<path d="M7510 950 c0 -5 5 -10 11 -10 5 0 7 5 4 10 -3 6 -8 10 -11 10 -2 0
-4 -4 -4 -10z"/>
<path d="M7860 950 c0 -5 5 -10 10 -10 6 0 10 5 10 10 0 6 -4 10 -10 10 -5 0
-10 -4 -10 -10z"/>
<path d="M8961 946 c-7 -8 -8 -17 -3 -20 6 -3 13 1 16 10 9 23 2 28 -13 10z"/>
<path d="M7716 941 c-3 -5 1 -14 8 -20 10 -9 16 -9 21 -1 4 6 4 14 1 17 -3 4
-6 1 -6 -6 0 -7 -5 -9 -10 -6 -6 4 -8 11 -5 16 4 5 4 9 1 9 -3 0 -7 -4 -10 -9z"/>
<path d="M7800 935 c-8 -9 -8 -15 -2 -15 12 0 26 19 19 26 -2 2 -10 -2 -17
-11z"/>
<path d="M7670 928 c0 -6 3 -8 7 -5 3 4 13 1 22 -6 14 -11 14 -10 2 6 -15 20
-31 22 -31 5z"/>
<path d="M7830 936 c0 -2 8 -10 18 -17 15 -13 16 -12 3 4 -13 16 -21 21 -21
13z"/>
<path d="M7939 938 c0 -2 -2 -14 -5 -28 -3 -17 -1 -21 5 -11 5 7 15 10 22 7 8
-4 6 -1 -3 7 -10 8 -15 17 -11 20 3 4 3 7 0 7 -4 0 -7 -1 -8 -2z"/>
<path d="M8169 923 c-13 -16 -12 -17 4 -4 16 13 21 21 13 21 -2 0 -10 -8 -17
-17z"/>
<path d="M8295 920 c-23 -26 -29 -71 -8 -63 9 4 13 13 9 27 -3 11 2 28 11 38
9 10 14 18 11 18 -3 0 -13 -9 -23 -20z"/>
<path d="M7890 910 c-9 -6 -10 -10 -3 -10 6 0 15 5 18 10 8 12 4 12 -15 0z"/>
<path d="M8976 905 c-3 -8 -10 -15 -16 -15 -6 0 -8 5 -5 10 3 6 4 10 2 10 -3
0 -13 -12 -22 -27 -10 -16 -12 -22 -4 -15 7 6 22 12 34 11 20 0 20 0 0 -9 -20
-8 -20 -9 1 -9 16 -1 21 5 21 29 0 34 -2 37 -11 15z"/>
<path d="M7815 900 c-4 -6 1 -7 11 -3 13 5 15 3 9 -7 -5 -9 -4 -11 4 -6 6 4 9
12 6 17 -8 12 -22 12 -30 -1z"/>
<path d="M8063 898 c-12 -15 -24 -48 -18 -48 2 0 10 14 19 30 15 32 15 38 -1
18z"/>
<path d="M8900 901 c0 -6 5 -13 10 -16 6 -3 10 1 10 9 0 9 -4 16 -10 16 -5 0
-10 -4 -10 -9z"/>
<path d="M7686 887 c3 -10 9 -15 12 -12 3 3 0 11 -7 18 -10 9 -11 8 -5 -6z"/>
<path d="M8332 885 c-17 -9 -19 -14 -9 -18 8 -3 21 3 30 14 19 22 13 23 -21 4z"/>
<path d="M7885 875 c4 -13 -1 -25 -17 -38 -19 -15 -19 -17 -3 -9 11 6 29 20
40 33 11 12 14 19 6 14 -8 -4 -17 -2 -23 6 -7 10 -8 9 -3 -6z"/>
<path d="M7960 875 c-7 -8 -9 -15 -6 -15 4 0 14 7 22 15 9 8 11 15 6 15 -5 0
-15 -7 -22 -15z"/>
<path d="M7711 864 c0 -11 3 -14 6 -6 3 7 2 16 -1 19 -3 4 -6 -2 -5 -13z"/>
<path d="M8015 869 c-4 -6 -5 -12 -2 -15 2 -3 7 2 10 11 7 17 1 20 -8 4z"/>
<path d="M8370 869 c0 -5 5 -9 10 -9 6 0 12 0 15 0 14 0 8 13 -7 16 -10 1 -18
-2 -18 -7z"/>
<path d="M8775 870 c6 -9 4 -12 -6 -8 -9 4 -14 -2 -15 -16 0 -11 -4 -30 -8
-41 -4 -14 -3 -13 5 3 7 13 18 21 25 18 16 -6 28 10 14 19 -6 4 -8 10 -5 15 3
5 0 12 -6 16 -8 5 -9 3 -4 -6z"/>
<path d="M7767 863 c-10 -10 -8 -43 2 -43 5 0 8 11 7 25 0 14 -1 25 -2 25 0 0
-4 -3 -7 -7z"/>
<path d="M8553 835 c-10 -21 -19 -31 -24 -24 -8 14 -31 -25 -33 -56 -1 -11 -8
-20 -17 -19 -9 1 -16 -5 -16 -12 0 -20 18 -12 46 19 20 23 22 30 10 37 -10 7
-8 9 9 7 28 -2 28 -6 -3 -47 -29 -40 -30 -41 -10 -34 8 3 13 11 12 16 -1 6 4
13 11 15 8 3 10 -1 6 -11 -3 -9 -2 -16 4 -16 6 0 8 13 6 29 -3 16 0 32 7 36 8
6 8 10 -2 16 -11 6 -10 14 4 43 9 20 14 36 12 36 -3 0 -13 -16 -22 -35z"/>
<path d="M8810 861 c0 -6 4 -13 10 -16 6 -3 7 1 4 9 -7 18 -14 21 -14 7z"/>
<path d="M7679 843 c-13 -16 -12 -17 4 -4 16 13 21 21 13 21 -2 0 -10 -8 -17
-17z"/>
<path d="M8696 847 c3 -10 9 -15 12 -12 3 3 0 11 -7 18 -10 9 -11 8 -5 -6z"/>
<path d="M6799 833 c-13 -16 -12 -17 4 -4 16 13 21 21 13 21 -2 0 -10 -8 -17
-17z"/>
<path d="M8295 840 c-3 -5 -11 -8 -18 -6 -7 1 -9 1 -4 -1 4 -3 4 -10 0 -16 -3
-7 3 -3 15 7 14 12 22 15 22 7 0 -14 20 -11 23 3 3 12 -31 17 -38 6z"/>
<path d="M8345 820 c-11 -16 -24 -26 -30 -22 -5 3 -4 -1 2 -10 7 -8 10 -18 6
-21 -3 -4 -1 -7 6 -7 7 0 11 6 8 14 -3 8 3 26 15 41 11 14 19 28 16 30 -2 2
-12 -9 -23 -25z"/>
<path d="M8482 841 c-10 -6 -10 -10 2 -20 11 -9 16 -9 22 0 5 8 3 9 -6 4 -10
-6 -12 -4 -7 8 7 19 7 20 -11 8z"/>
<path d="M8898 840 c6 -8 12 -17 12 -22 0 -4 -6 -6 -12 -4 -7 1 -10 1 -5 -1 4
-3 5 -9 2 -13 -3 -5 0 -12 6 -16 7 -4 9 -3 6 3 -3 5 3 17 14 26 10 9 19 13 19
7 0 -5 -5 -12 -10 -15 -8 -5 -7 -11 0 -20 7 -8 8 -20 4 -26 -4 -8 -3 -9 4 -5
15 9 36 47 25 45 -19 -3 -23 2 -13 20 12 23 1 34 -20 21 -9 -5 -20 -4 -30 3
-12 9 -13 9 -2 -3z"/>
<path d="M8379 823 c-13 -16 -12 -17 4 -4 9 7 17 15 17 17 0 8 -8 3 -21 -13z"/>
<path d="M8656 827 c3 -10 9 -15 12 -12 3 3 0 11 -7 18 -10 9 -11 8 -5 -6z"/>
<path d="M8855 817 c1 -12 -3 -25 -9 -29 -8 -5 -7 -8 2 -8 6 0 12 -5 12 -11 0
-5 -4 -7 -10 -4 -5 3 -19 0 -30 -8 -17 -12 -18 -16 -6 -26 11 -9 16 -9 22 0 5
8 3 9 -6 4 -8 -5 -11 -3 -8 6 8 23 48 19 58 -5 8 -19 9 -18 9 7 1 16 -3 26 -9
22 -10 -6 -13 5 -11 42 1 11 -2 24 -7 27 -5 3 -8 -5 -7 -17z"/>
<path d="M8440 819 c0 -5 5 -7 10 -4 6 3 10 8 10 11 0 2 -4 4 -10 4 -5 0 -10
-5 -10 -11z"/>
<path d="M8571 814 c0 -11 3 -14 6 -6 3 7 2 16 -1 19 -3 4 -6 -2 -5 -13z"/>
<path d="M7760 792 c6 -12 8 -28 4 -34 -4 -7 -3 -8 4 -4 16 10 15 18 -4 42
-14 18 -15 18 -4 -4z"/>
<path d="M8289 800 c-1 -5 -2 -18 -3 -28 0 -11 -8 -27 -16 -38 -14 -19 -14
-19 7 -1 21 18 21 18 26 0 4 -14 5 -14 6 5 0 12 -3 22 -8 22 -5 0 -8 11 -5 25
2 14 2 25 -1 25 -3 0 -6 -4 -6 -10z"/>
<path d="M8375 798 c-13 -8 -14 -13 -4 -24 9 -11 8 -14 -7 -15 -16 0 -15 -2 4
-10 13 -5 29 -6 35 -2 6 4 8 0 4 -10 -3 -9 -2 -19 2 -21 5 -3 8 5 7 17 -1 15
-7 21 -19 19 -16 -3 -17 0 -7 18 6 11 15 18 19 16 4 -3 8 1 8 8 0 15 -19 16
-42 4z"/>
<path d="M7278 793 c7 -3 16 -2 19 1 4 3 -2 6 -13 5 -11 0 -14 -3 -6 -6z"/>
<path d="M8201 777 c-13 -21 -12 -21 5 -5 10 10 16 20 13 22 -3 3 -11 -5 -18
-17z"/>
<path d="M8581 773 c-10 -26 -10 -27 4 -9 8 11 15 23 15 28 0 15 -7 8 -19 -19z"/>
<path d="M8691 787 c-8 -10 -7 -14 2 -14 8 0 14 6 14 14 0 7 -1 13 -2 13 -2 0
-8 -6 -14 -13z"/>
<path d="M7146 773 c-6 -14 -5 -15 5 -6 7 7 10 15 7 18 -3 3 -9 -2 -12 -12z"/>
<path d="M7470 779 c-12 -8 -10 -9 9 -4 16 5 21 4 17 -4 -5 -7 -1 -8 9 -4 13
5 14 7 3 14 -17 11 -20 11 -38 -2z"/>
<path d="M8120 779 c0 -5 5 -7 10 -4 6 3 10 8 10 11 0 2 -4 4 -10 4 -5 0 -10
-5 -10 -11z"/>
<path d="M8159 773 c-13 -16 -12 -17 4 -4 16 13 21 21 13 21 -2 0 -10 -8 -17
-17z"/>
<path d="M8765 780 c-3 -6 1 -7 9 -4 18 7 21 14 7 14 -6 0 -13 -4 -16 -10z"/>
<path d="M6909 763 c-13 -16 -12 -17 4 -4 9 7 17 15 17 17 0 8 -8 3 -21 -13z"/>
<path d="M8621 763 c7 -12 15 -20 18 -17 3 2 -3 12 -13 22 -17 16 -18 16 -5
-5z"/>
<path d="M8970 775 c0 -5 4 -16 9 -23 6 -11 10 -10 15 4 3 9 4 19 1 22 -3 3
-5 -1 -5 -9 0 -11 -2 -11 -10 1 -5 8 -10 11 -10 5z"/>
<path d="M7546 758 c3 -5 10 -6 15 -3 13 9 11 12 -6 12 -8 0 -12 -4 -9 -9z"/>
<path d="M8720 761 c0 -6 9 -16 19 -23 11 -7 17 -18 13 -27 -3 -9 -2 -13 2 -9
4 3 8 12 10 20 1 7 6 20 11 28 7 13 6 13 -7 2 -13 -10 -19 -10 -32 3 -9 9 -16
12 -16 6z"/>
<path d="M8900 759 c0 -5 5 -7 10 -4 6 3 10 8 10 11 0 2 -4 4 -10 4 -5 0 -10
-5 -10 -11z"/>
<path d="M7654 748 c-4 -7 -4 -10 1 -6 4 4 16 3 26 -3 11 -5 19 -7 19 -5 0 3
-9 10 -19 16 -15 7 -22 7 -27 -2z"/>
<path d="M8683 753 c-7 -2 -13 -9 -13 -15 0 -7 5 -7 13 1 8 6 18 7 22 3 5 -4
5 -1 1 6 -4 6 -8 12 -9 11 -1 0 -8 -3 -14 -6z"/>
<path d="M7977 729 c4 -13 8 -18 11 -10 2 7 -1 18 -6 23 -8 8 -9 4 -5 -13z"/>
<path d="M8950 740 c-9 -6 -10 -10 -3 -10 6 0 15 5 18 10 8 12 4 12 -15 0z"/>
<path d="M8850 725 c-15 -17 -8 -28 18 -30 9 0 24 -5 32 -10 13 -8 13 -7 1 9
-8 9 -20 15 -27 12 -18 -7 -26 5 -13 21 6 7 9 13 6 13 -2 0 -10 -7 -17 -15z"/>
<path d="M8915 730 c3 -5 8 -10 11 -10 2 0 4 5 4 10 0 6 -5 10 -11 10 -5 0 -7
-4 -4 -10z"/>
<path d="M8384 716 c5 -14 2 -17 -9 -12 -9 3 -13 2 -10 -3 3 -6 14 -9 25 -8
15 1 17 4 7 17 -19 25 -20 26 -13 6z"/>
<path d="M8594 715 c-18 -14 -18 -14 4 -8 12 3 22 9 22 14 0 12 -3 11 -26 -6z"/>
<path d="M8967 716 c-3 -6 1 -20 8 -29 11 -16 13 -16 19 -1 9 24 7 31 -8 37
-8 3 -16 0 -19 -7z"/>
<path d="M7942 715 c4 -4 3 -14 -4 -22 -6 -7 -8 -16 -4 -20 3 -3 6 -1 6 6 0 7
5 9 10 6 6 -3 10 1 10 9 0 8 -6 18 -12 22 -7 4 -10 4 -6 -1z"/>
<path d="M8933 712 c-8 -5 -9 -13 -3 -22 6 -8 10 -13 11 -10 0 3 2 13 4 23 4
19 4 19 -12 9z"/>
<path d="M7650 695 c-7 -9 -11 -17 -9 -20 3 -2 10 5 17 15 14 24 10 26 -8 5z"/>
<path d="M7896 693 c-6 -14 -5 -15 5 -6 7 7 10 15 7 18 -3 3 -9 -2 -12 -12z"/>
<path d="M8236 697 c3 -10 9 -15 12 -12 3 3 0 11 -7 18 -10 9 -11 8 -5 -6z"/>
<path d="M8275 684 l-30 -26 33 16 c17 9 32 21 32 26 0 13 -1 13 -35 -16z"/>
<path d="M8445 690 c-3 -5 1 -10 10 -10 9 0 13 5 10 10 -3 6 -8 10 -10 10 -2
0 -7 -4 -10 -10z"/>
<path d="M8517 693 c-10 -9 -8 -33 2 -33 5 0 11 9 14 20 5 20 -3 26 -16 13z"/>
<path d="M8715 690 c3 -5 11 -10 16 -10 6 0 7 5 4 10 -3 6 -11 10 -16 10 -6 0
-7 -4 -4 -10z"/>
<path d="M7470 679 c0 -5 5 -7 10 -4 6 3 10 8 10 11 0 2 -4 4 -10 4 -5 0 -10
-5 -10 -11z"/>
<path d="M8840 679 c0 -5 5 -7 10 -4 6 3 10 8 10 11 0 2 -4 4 -10 4 -5 0 -10
-5 -10 -11z"/>
<path d="M7797 662 c-10 -10 -17 -23 -17 -29 0 -6 -6 -14 -12 -17 -7 -2 -4 -4
7 -3 26 3 45 15 45 29 0 7 -6 6 -15 -2 -10 -8 -15 -9 -15 -2 0 6 8 15 17 21
10 5 15 12 12 15 -3 4 -13 -2 -22 -12z"/>
<path d="M7853 665 c-3 -9 -3 -18 -1 -21 3 -3 8 4 11 16 6 23 -1 27 -10 5z"/>
<path d="M8550 670 c-9 -6 -10 -10 -3 -10 6 0 15 5 18 10 8 12 4 12 -15 0z"/>
<path d="M8865 670 c-3 -6 1 -7 9 -4 18 7 21 14 7 14 -6 0 -13 -4 -16 -10z"/>
<path d="M7607 650 c-3 -11 -1 -20 4 -20 5 0 9 9 9 20 0 11 -2 20 -4 20 -2 0
-6 -9 -9 -20z"/>
<path d="M8703 658 c-20 -26 -26 -41 -15 -34 7 4 12 1 12 -8 0 -8 5 -18 12
-22 7 -4 8 -3 4 4 -4 7 -1 12 6 12 8 0 9 3 3 8 -6 4 -10 17 -9 30 1 25 0 27
-13 10z"/>
<path d="M7557 653 c-4 -3 -7 -11 -7 -17 0 -6 5 -5 12 2 6 6 9 14 7 17 -3 3
-9 2 -12 -2z"/>
<path d="M8386 633 c-6 -14 -5 -15 5 -6 7 7 10 15 7 18 -3 3 -9 -2 -12 -12z"/>
<path d="M8801 638 c-1 -21 15 -32 25 -17 4 7 3 9 -4 5 -6 -3 -13 2 -15 11 -4
16 -5 16 -6 1z"/>
<path d="M8964 634 c-18 -14 -18 -15 4 -4 12 6 22 13 22 15 0 8 -5 6 -26 -11z"/>
<path d="M7469 638 c-5 -18 -6 -38 -1 -34 7 8 12 36 6 36 -2 0 -4 -1 -5 -2z"/>
<path d="M7984 632 c4 -3 14 -7 22 -8 9 -1 13 0 10 4 -4 3 -14 7 -22 8 -9 1
-13 0 -10 -4z"/>
<path d="M8600 636 c0 -2 7 -9 15 -16 9 -7 15 -8 15 -2 0 5 -7 12 -15 16 -8 3
-15 4 -15 2z"/>
<path d="M8876 625 c-18 -14 -18 -14 1 -12 11 0 20 7 20 14 0 7 -1 13 -1 13
-1 0 -9 -7 -20 -15z"/>
<path d="M7110 621 c0 -6 4 -13 10 -16 6 -3 7 1 4 9 -7 18 -14 21 -14 7z"/>
<path d="M8565 619 c-4 -6 -5 -12 -2 -15 2 -3 7 2 10 11 7 17 1 20 -8 4z"/>
<path d="M8647 619 c7 -7 15 -10 18 -7 3 3 -2 9 -12 12 -14 6 -15 5 -6 -5z"/>
<path d="M8770 620 c-8 -5 -12 -11 -9 -14 2 -3 11 -1 19 4 8 5 12 11 9 14 -2
3 -11 1 -19 -4z"/>
<path d="M7840 606 c0 -2 8 -10 18 -17 15 -13 16 -12 3 4 -13 16 -21 21 -21
13z"/>
<path d="M8309 593 c-13 -16 -12 -17 4 -4 9 7 17 15 17 17 0 8 -8 3 -21 -13z"/>
<path d="M8586 601 c-7 -11 3 -41 13 -41 11 0 31 23 31 35 0 5 -5 2 -11 -8 -6
-9 -15 -15 -20 -11 -6 4 -6 11 2 20 7 9 8 14 1 14 -6 0 -13 -4 -16 -9z"/>
<path d="M8825 602 c-5 -4 -12 -16 -13 -27 -4 -23 0 -20 17 13 12 24 12 26 -4
14z"/>
<path d="M7550 589 c0 -5 5 -7 10 -4 6 3 10 8 10 11 0 2 -4 4 -10 4 -5 0 -10
-5 -10 -11z"/>
<path d="M8141 584 c0 -11 3 -14 6 -6 3 7 2 16 -1 19 -3 4 -6 -2 -5 -13z"/>
<path d="M8654 584 c-18 -14 -18 -15 4 -4 12 6 22 13 22 15 0 8 -5 6 -26 -11z"/>
<path d="M8755 568 c1 -12 7 -23 14 -24 7 -2 7 0 1 3 -8 3 -7 9 1 19 6 8 16
11 23 7 6 -3 8 -2 3 2 -4 5 -16 10 -26 12 -13 2 -17 -4 -16 -19z"/>
<path d="M6576 567 c3 -10 9 -15 12 -12 3 3 0 11 -7 18 -10 9 -11 8 -5 -6z"/>
<path d="M7453 565 c0 -8 4 -12 9 -9 5 3 6 10 3 15 -9 13 -12 11 -12 -6z"/>
<path d="M7511 564 c0 -11 3 -14 6 -6 3 7 2 16 -1 19 -3 4 -6 -2 -5 -13z"/>
<path d="M8360 571 c0 -10 19 -25 25 -20 1 2 -3 10 -11 17 -8 7 -14 8 -14 3z"/>
<path d="M8880 580 c-8 -26 -7 -41 2 -32 6 6 8 16 5 24 -3 7 -6 11 -7 8z"/>
<path d="M8300 551 c0 -6 4 -13 10 -16 6 -3 7 1 4 9 -7 18 -14 21 -14 7z"/>
<path d="M8650 550 c0 -5 5 -10 11 -10 5 0 7 5 4 10 -3 6 -8 10 -11 10 -2 0
-4 -4 -4 -10z"/>
<path d="M8711 546 c-9 -11 -9 -16 1 -22 7 -4 10 -4 6 1 -4 4 -3 14 3 22 6 7
9 13 6 13 -2 0 -10 -6 -16 -14z"/>
<path d="M8901 544 c0 -11 3 -14 6 -6 3 7 2 16 -1 19 -3 4 -6 -2 -5 -13z"/>
<path d="M7109 533 c-13 -16 -12 -17 4 -4 9 7 17 15 17 17 0 8 -8 3 -21 -13z"/>
<path d="M7410 531 c0 -7 -5 -9 -12 -5 -6 4 -8 3 -4 -4 3 -5 0 -13 -6 -15 -8
-4 -9 -6 -2 -6 15 -1 39 28 30 36 -3 3 -6 1 -6 -6z"/>
<path d="M8426 523 c-6 -14 -5 -15 5 -6 7 7 10 15 7 18 -3 3 -9 -2 -12 -12z"/>
<path d="M8517 525 c-12 -11 -17 -12 -20 -2 -3 7 -6 5 -6 -5 -1 -24 12 -23 34
2 21 23 14 27 -8 5z"/>
<path d="M8737 531 c6 -7 9 -19 7 -26 -3 -7 0 -16 7 -21 9 -5 10 -2 6 9 -6 16
3 22 26 18 5 -1 6 3 2 9 -3 6 -11 8 -16 4 -5 -3 -18 0 -27 7 -14 11 -15 11 -5
0z"/>
<path d="M7484 519 c-4 -7 -3 -9 4 -5 5 3 13 0 15 -6 4 -9 6 -10 6 -1 1 17
-16 25 -25 12z"/>
<path d="M7866 515 c-9 -26 -7 -32 5 -12 6 10 9 21 6 23 -2 3 -7 -2 -11 -11z"/>
<path d="M8811 523 c-1 -17 16 -25 25 -12 4 7 3 9 -4 5 -5 -3 -13 0 -15 6 -4
9 -6 10 -6 1z"/>
<path d="M7275 509 c-4 -6 -5 -12 -2 -15 2 -3 7 2 10 11 7 17 1 20 -8 4z"/>
<path d="M7949 503 c-13 -16 -12 -17 4 -4 9 7 17 15 17 17 0 8 -8 3 -21 -13z"/>
<path d="M8675 511 c-3 -5 -2 -12 3 -15 5 -3 9 1 9 9 0 17 -3 19 -12 6z"/>
<path d="M8915 510 c-3 -5 -2 -10 4 -10 5 0 13 5 16 10 3 6 2 10 -4 10 -5 0
-13 -4 -16 -10z"/>
<path d="M7985 500 c-3 -5 -1 -10 4 -10 6 0 11 5 11 10 0 6 -2 10 -4 10 -3 0
-8 -4 -11 -10z"/>
<path d="M8716 493 c-6 -14 -5 -15 5 -6 7 7 10 15 7 18 -3 3 -9 -2 -12 -12z"/>
<path d="M8962 494 c-12 -8 -28 -12 -35 -8 -6 4 -3 -2 7 -14 11 -12 14 -22 8
-22 -18 0 -32 -34 -20 -51 8 -11 9 -11 4 4 -3 9 -1 17 5 17 6 0 7 5 4 10 -3 6
1 10 10 10 11 0 15 6 11 18 -4 12 3 23 22 34 15 10 22 18 17 18 -6 0 -21 -7
-33 -16z"/>
<path d="M8650 471 c-8 -6 -18 -7 -24 -4 -5 3 -6 1 -2 -5 5 -9 13 -9 27 -2 10
6 19 13 19 15 0 7 -3 6 -20 -4z"/>
<path d="M8727 473 c-4 -3 -7 -11 -7 -17 0 -6 5 -5 12 2 6 6 9 14 7 17 -3 3
-9 2 -12 -2z"/>
<path d="M8980 469 c0 -5 5 -7 10 -4 6 3 10 8 10 11 0 2 -4 4 -10 4 -5 0 -10
-5 -10 -11z"/>
<path d="M4753 455 c-9 -24 1 -27 20 -5 14 17 15 20 2 20 -9 0 -18 -7 -22 -15z"/>
<path d="M8761 463 c-1 -17 16 -25 25 -12 4 7 3 9 -4 5 -5 -3 -13 0 -15 6 -4
9 -6 10 -6 1z"/>
<path d="M4803 445 c0 -7 6 -11 14 -8 7 3 13 6 13 8 0 2 -6 5 -13 8 -8 3 -14
-1 -14 -8z"/>
<path d="M7433 439 c-2 -23 3 -25 10 -4 4 8 3 16 -1 19 -4 3 -9 -4 -9 -15z"/>
<path d="M8370 449 c0 -5 5 -7 10 -4 6 3 10 8 10 11 0 2 -4 4 -10 4 -5 0 -10
-5 -10 -11z"/>
<path d="M7046 434 c-18 -17 -20 -24 -8 -24 4 0 13 9 20 20 15 24 9 26 -12 4z"/>
<path d="M8550 446 c0 -2 7 -7 16 -10 8 -3 12 -2 9 4 -6 10 -25 14 -25 6z"/>
<path d="M8655 439 c-4 -6 -5 -12 -2 -15 2 -3 7 2 10 11 7 17 1 20 -8 4z"/>
<path d="M8835 433 c-3 -9 -3 -18 0 -21 3 -3 5 0 5 7 0 6 6 11 14 9 8 -2 16 1
18 6 5 16 -30 15 -37 -1z"/>
<path d="M8889 428 c-1 -7 -1 -19 0 -26 1 -6 -10 -17 -24 -22 -14 -5 -25 -15
-25 -22 0 -10 2 -10 9 1 5 7 13 11 19 7 5 -3 13 1 16 10 3 8 11 12 16 9 7 -4
7 -11 2 -18 -11 -14 -12 -48 -2 -42 14 9 17 53 4 70 -7 9 -10 23 -7 31 3 8 2
14 -1 14 -3 0 -7 -6 -7 -12z"/>
<path d="M8670 415 c-7 -9 -11 -17 -9 -20 3 -2 10 5 17 15 14 24 10 26 -8 5z"/>
<path d="M4890 402 c0 -9 9 -23 20 -30 14 -8 20 -9 20 -1 0 6 7 9 15 5 26 -10
16 1 -20 23 -32 18 -35 19 -35 3z"/>
<path d="M6460 409 c0 -5 5 -7 10 -4 6 3 10 8 10 11 0 2 -4 4 -10 4 -5 0 -10
-5 -10 -11z"/>
<path d="M6490 411 c0 -6 4 -12 8 -15 5 -3 9 1 9 9 0 8 -4 15 -9 15 -4 0 -8
-4 -8 -9z"/>
<path d="M8026 411 c-4 -5 3 -7 14 -4 23 6 26 13 6 13 -8 0 -17 -4 -20 -9z"/>
<path d="M8462 408 c-14 -14 -16 -28 -3 -28 5 0 11 9 14 20 6 23 5 24 -11 8z"/>
<path d="M8586 408 c3 -4 9 -8 15 -8 5 0 9 4 9 8 0 5 -7 9 -15 9 -8 0 -12 -4
-9 -9z"/>
<path d="M8960 399 c-14 -4 -19 -7 -11 -8 8 -1 11 -7 6 -18 -4 -13 0 -11 15 5
26 27 24 31 -10 21z"/>
<path d="M8550 396 c0 -2 7 -9 15 -16 13 -11 14 -10 9 4 -5 14 -24 23 -24 12z"/>
<path d="M7875 370 c-3 -5 -1 -10 4 -10 6 0 11 5 11 10 0 6 -2 10 -4 10 -3 0
-8 -4 -11 -10z"/>
<path d="M8099 363 c-13 -16 -12 -17 4 -4 9 7 17 15 17 17 0 8 -8 3 -21 -13z"/>
<path d="M7903 355 c0 -8 4 -12 9 -9 5 3 6 10 3 15 -9 13 -12 11 -12 -6z"/>
<path d="M8417 363 c-4 -3 -7 -11 -7 -17 0 -6 5 -5 12 2 6 6 9 14 7 17 -3 3
-9 2 -12 -2z"/>
<path d="M4750 350 c0 -5 5 -10 10 -10 6 0 10 5 10 10 0 6 -4 10 -10 10 -5 0
-10 -4 -10 -10z"/>
<path d="M8440 345 c-7 -9 -11 -17 -9 -20 3 -2 10 5 17 15 14 24 10 26 -8 5z"/>
<path d="M8501 351 c-8 -6 -9 -11 -3 -15 6 -3 14 -1 17 5 9 14 2 20 -14 10z"/>
<path d="M8636 348 c3 -5 10 -6 15 -3 13 9 11 12 -6 12 -8 0 -12 -4 -9 -9z"/>
<path d="M5044 175 c0 -99 2 -138 3 -87 2 51 2 132 0 180 -1 48 -3 6 -3 -93z"/>
<path d="M6470 339 c0 -5 5 -7 10 -4 6 3 10 8 10 11 0 2 -4 4 -10 4 -5 0 -10
-5 -10 -11z"/>
<path d="M4734 292 c-1 -20 1 -26 3 -13 4 18 7 21 13 10 5 -7 13 -10 17 -5 4
5 2 11 -4 13 -7 3 -13 11 -13 19 0 33 -15 11 -16 -24z"/>
<path d="M7560 319 c0 -5 5 -7 10 -4 6 3 10 8 10 11 0 2 -4 4 -10 4 -5 0 -10
-5 -10 -11z"/>
<path d="M8187 319 c7 -7 15 -10 18 -7 3 3 -2 9 -12 12 -14 6 -15 5 -6 -5z"/>
<path d="M8509 313 c-13 -16 -12 -17 4 -4 9 7 17 15 17 17 0 8 -8 3 -21 -13z"/>
<path d="M8715 319 c-4 -6 -5 -12 -2 -15 2 -3 7 2 10 11 7 17 1 20 -8 4z"/>
<path d="M8936 321 c-3 -5 2 -15 12 -22 15 -12 16 -12 5 2 -7 9 -10 19 -6 22
3 4 4 7 0 7 -3 0 -8 -4 -11 -9z"/>
<path d="M7199 303 c-13 -16 -12 -17 4 -4 16 13 21 21 13 21 -2 0 -10 -8 -17
-17z"/>
<path d="M5823 295 c0 -8 4 -12 9 -9 5 3 6 10 3 15 -9 13 -12 11 -12 -6z"/>
<path d="M8029 293 c-13 -16 -12 -17 4 -4 9 7 17 15 17 17 0 8 -8 3 -21 -13z"/>
<path d="M8412 298 c-15 -15 -15 -35 0 -44 7 -4 8 -3 4 5 -4 6 -2 19 5 27 15
18 7 28 -9 12z"/>
<path d="M8896 302 c-3 -5 1 -9 9 -9 8 0 12 4 9 9 -3 4 -7 8 -9 8 -2 0 -6 -4
-9 -8z"/>
<path d="M4712 260 c0 -14 2 -19 5 -12 2 6 2 18 0 25 -3 6 -5 1 -5 -13z"/>
<path d="M6744 247 c1 -20 5 -38 9 -41 4 -4 5 -3 2 1 -3 3 -1 11 4 17 6 7 4
20 -3 35 -12 22 -13 22 -12 -12z"/>
<path d="M7549 278 c-5 -18 -6 -38 -1 -34 7 8 12 36 6 36 -2 0 -4 -1 -5 -2z"/>
<path d="M7660 263 c0 -11 -4 -23 -10 -29 -6 -6 -6 -15 1 -24 9 -13 10 -13 7
0 -1 8 3 25 10 37 8 14 9 24 2 28 -5 3 -10 -2 -10 -12z"/>
<path d="M8121 267 c0 -10 -5 -15 -11 -12 -5 3 -7 0 -4 -9 3 -8 12 -12 20 -9
9 3 13 0 11 -8 -2 -8 -2 -11 0 -6 3 4 8 5 12 3 4 -3 8 1 8 9 0 8 -6 15 -13 15
-7 0 -15 8 -17 18 -4 16 -5 16 -6 -1z"/>
<path d="M8500 270 c-12 -8 -12 -12 -2 -18 7 -5 14 -18 15 -30 0 -11 5 -18 11
-15 5 4 7 -1 2 -12 -7 -18 -6 -18 14 0 11 10 20 14 21 9 6 -48 5 -74 -2 -74
-5 0 -9 -5 -9 -12 0 -22 25 11 26 35 1 12 4 31 9 42 5 16 5 17 -4 5 -9 -13
-11 -13 -12 0 -1 8 -1 19 0 24 1 5 -5 3 -14 -4 -20 -17 -36 -2 -38 34 -1 14
-2 26 -2 26 0 0 -7 -5 -15 -10z"/>
<path d="M8536 263 c-6 -14 -5 -15 5 -6 7 7 10 15 7 18 -3 3 -9 -2 -12 -12z"/>
<path d="M8003 255 c0 -8 4 -12 9 -9 5 3 6 10 3 15 -9 13 -12 11 -12 -6z"/>
<path d="M8200 260 c0 -5 5 -10 11 -10 5 0 7 5 4 10 -3 6 -8 10 -11 10 -2 0
-4 -4 -4 -10z"/>
<path d="M7771 244 c0 -11 3 -14 6 -6 3 7 2 16 -1 19 -3 4 -6 -2 -5 -13z"/>
<path d="M8746 238 c3 -4 9 -8 15 -8 5 0 9 4 9 8 0 5 -7 9 -15 9 -8 0 -12 -4
-9 -9z"/>
<path d="M7133 225 c0 -8 4 -12 9 -9 5 3 6 10 3 15 -9 13 -12 11 -12 -6z"/>
<path d="M7200 230 c-8 -5 -10 -10 -5 -10 6 0 17 5 25 10 8 5 11 10 5 10 -5 0
-17 -5 -25 -10z"/>
<path d="M7456 228 c3 -5 10 -6 15 -3 13 9 11 12 -6 12 -8 0 -12 -4 -9 -9z"/>
<path d="M8075 229 c-4 -6 -5 -12 -2 -15 2 -3 7 2 10 11 7 17 1 20 -8 4z"/>
<path d="M8690 220 c-8 -5 -12 -12 -9 -15 4 -3 12 1 19 10 14 17 11 19 -10 5z"/>
<path d="M7547 199 c-4 -16 -3 -18 9 -8 7 6 11 15 8 20 -8 13 -11 11 -17 -12z"/>
<path d="M8096 203 c-6 -14 -5 -15 5 -6 7 7 10 15 7 18 -3 3 -9 -2 -12 -12z"/>
<path d="M8744 198 c-4 -7 -4 -10 1 -6 4 4 14 3 22 -4 11 -8 12 -7 7 6 -7 19
-20 21 -30 4z"/>
<path d="M8910 200 c0 -5 5 -10 11 -10 5 0 7 5 4 10 -3 6 -8 10 -11 10 -2 0
-4 -4 -4 -10z"/>
<path d="M8305 190 c-3 -6 1 -7 9 -4 18 7 21 14 7 14 -6 0 -13 -4 -16 -10z"/>
<path d="M7964 168 c1 -34 2 -34 17 -7 6 13 7 19 1 15 -6 -3 -12 0 -15 6 -2 7
-4 1 -3 -14z"/>
<path d="M6746 163 c-6 -14 -5 -15 5 -6 7 7 10 15 7 18 -3 3 -9 -2 -12 -12z"/>
<path d="M8255 169 c-4 -6 -5 -12 -2 -15 2 -3 7 2 10 11 7 17 1 20 -8 4z"/>
<path d="M8415 169 c-4 -6 -5 -12 -2 -15 2 -3 7 2 10 11 7 17 1 20 -8 4z"/>
<path d="M8195 160 c-3 -5 -1 -10 4 -10 6 0 11 5 11 10 0 6 -2 10 -4 10 -3 0
-8 -4 -11 -10z"/>
<path d="M8950 159 c0 -5 5 -7 10 -4 6 3 10 8 10 11 0 2 -4 4 -10 4 -5 0 -10
-5 -10 -11z"/>
<path d="M4712 140 c0 -14 2 -19 5 -12 2 6 2 18 0 25 -3 6 -5 1 -5 -13z"/>
<path d="M8296 143 c-6 -14 -5 -15 5 -6 7 7 10 15 7 18 -3 3 -9 -2 -12 -12z"/>
<path d="M4972 130 c0 -14 2 -19 5 -12 2 6 2 18 0 25 -3 6 -5 1 -5 -13z"/>
<path d="M8706 137 c3 -10 9 -15 12 -12 3 3 0 11 -7 18 -10 9 -11 8 -5 -6z"/>
<path d="M8909 133 c-13 -16 -12 -17 4 -4 9 7 17 15 17 17 0 8 -8 3 -21 -13z"/>
<path d="M7179 123 c-13 -16 -12 -17 4 -4 9 7 17 15 17 17 0 8 -8 3 -21 -13z"/>
<path d="M7855 131 c-3 -5 -2 -12 3 -15 5 -3 9 1 9 9 0 17 -3 19 -12 6z"/>
<path d="M7915 120 c10 -11 20 -20 23 -20 3 0 -3 9 -13 20 -10 11 -20 20 -23
20 -3 0 3 -9 13 -20z"/>
<path d="M8493 104 c-7 -7 -13 -19 -13 -26 0 -7 7 -2 16 10 18 26 16 37 -3 16z"/>
<path d="M8741 111 c-10 -6 -10 -10 -1 -16 8 -5 6 -11 -7 -22 -17 -14 -17 -14
1 -5 11 5 20 19 21 31 1 12 1 21 1 21 -1 0 -7 -4 -15 -9z"/>
<path d="M4861 94 c0 -11 3 -14 6 -6 3 7 2 16 -1 19 -3 4 -6 -2 -5 -13z"/>
<path d="M8045 100 c3 -5 8 -10 11 -10 2 0 4 5 4 10 0 6 -5 10 -11 10 -5 0 -7
-4 -4 -10z"/>
<path d="M8620 91 c0 -11 -4 -23 -10 -26 -5 -3 -10 -11 -10 -18 0 -6 6 -3 13
8 20 29 28 55 17 55 -6 0 -10 -9 -10 -19z"/>
<path d="M8668 99 c-10 -5 -18 -18 -17 -27 0 -14 2 -14 6 -2 4 8 13 20 22 27
19 15 13 16 -11 2z"/>
<path d="M8291 84 c0 -11 3 -14 6 -6 3 7 2 16 -1 19 -3 4 -6 -2 -5 -13z"/>
<path d="M8865 90 c-3 -6 1 -7 9 -4 18 7 21 14 7 14 -6 0 -13 -4 -16 -10z"/>
<path d="M7570 80 c0 -5 5 -10 11 -10 5 0 7 5 4 10 -3 6 -8 10 -11 10 -2 0 -4
-4 -4 -10z"/>
<path d="M8545 80 c-3 -5 -1 -10 4 -10 6 0 11 5 11 10 0 6 -2 10 -4 10 -3 0
-8 -4 -11 -10z"/>
<path d="M8675 70 c-3 -5 -2 -10 4 -10 5 0 13 5 16 10 3 6 2 10 -4 10 -5 0
-13 -4 -16 -10z"/>
<path d="M8505 60 c4 -7 3 -15 -3 -19 -6 -4 -5 -10 3 -18 10 -9 13 -6 13 13 0
13 -5 27 -11 31 -6 4 -7 1 -2 -7z"/>
<path d="M8977 55 c-4 -8 -3 -16 1 -19 4 -3 9 4 9 15 2 23 -3 25 -10 4z"/>
<path d="M8290 46 c0 -2 7 -9 15 -16 9 -7 15 -8 15 -2 0 5 -7 12 -15 16 -8 3
-15 4 -15 2z"/>
<path d="M4770 20 c0 -26 6 -26 13 0 3 11 1 20 -4 20 -5 0 -9 -9 -9 -20z"/>
<path d="M8265 21 c-3 -5 -2 -12 3 -15 5 -3 9 1 9 9 0 17 -3 19 -12 6z"/>
<path d="M8485 10 c-3 -5 -1 -10 4 -10 6 0 11 5 11 10 0 6 -2 10 -4 10 -3 0
-8 -4 -11 -10z"/>
<path d="M8675 10 c-3 -5 -1 -10 4 -10 6 0 11 5 11 10 0 6 -2 10 -4 10 -3 0
-8 -4 -11 -10z"/>
</g>
</svg>
