<?xml version="1.0" standalone="no"?>
<!DOCTYPE svg PUBLIC "-//W3C//DTD SVG 20010904//EN"
 "http://www.w3.org/TR/2001/REC-SVG-20010904/DTD/svg10.dtd">
<svg version="1.0" xmlns="http://www.w3.org/2000/svg"
 width="840.000000pt" height="630.000000pt" viewBox="0 0 840.000000 630.000000"
 preserveAspectRatio="xMidYMid meet">

<g transform="translate(0.000000,630.000000) scale(0.100000,-0.100000)"
fill="#000000" stroke="none">
<path d="M0 3150 l0 -3150 2170 0 c1194 0 2170 2 2170 4 0 5 -45 27 -190 95
-47 22 -138 65 -202 95 -64 31 -121 56 -127 56 -14 0 -112 51 -129 68 -7 6
-18 12 -24 12 -11 0 -163 69 -213 96 -72 40 -285 144 -294 144 -5 0 -14 6 -18
14 -10 18 -99 67 -107 59 -3 -3 -14 1 -24 10 -10 9 -27 18 -38 20 -10 1 -25 7
-33 12 -12 7 -11 10 5 15 15 6 11 10 -22 19 -27 7 -44 18 -47 31 -4 14 -14 20
-34 21 -20 0 -23 2 -11 7 23 9 7 35 -18 30 -15 -2 -18 2 -16 25 2 15 -1 27 -6
27 -14 0 -72 56 -72 69 0 6 -4 11 -10 11 -5 0 -9 6 -7 13 1 7 -8 12 -23 12
-15 0 -24 -5 -23 -12 2 -7 -2 -13 -7 -13 -6 0 -10 5 -10 10 0 13 -61 13 -94 0
-21 -8 -26 -7 -26 6 0 10 6 13 18 10 13 -4 18 -1 18 12 0 16 -4 17 -28 8 -15
-6 -28 -17 -29 -26 0 -10 -2 -11 -6 -2 -2 6 -11 12 -19 12 -9 0 -12 -5 -8 -12
5 -8 2 -9 -9 -5 -9 3 -19 2 -22 -3 -4 -6 -13 -10 -22 -10 -9 0 -14 2 -11 5 8
8 170 75 181 75 10 0 42 14 154 66 40 19 75 34 78 34 4 0 26 9 51 20 24 11 55
25 70 30 14 6 23 13 21 17 -3 5 7 8 21 9 24 1 180 62 322 127 30 13 66 28 80
32 14 4 53 21 88 36 34 16 67 29 71 29 5 0 22 6 38 14 86 44 228 97 247 93 11
-2 127 -44 256 -92 249 -92 329 -117 450 -140 89 -18 372 -31 352 -17 -11 7
-8 11 10 15 12 4 25 2 26 -3 2 -6 13 -10 25 -10 18 0 20 2 7 11 -11 8 -1 9 38
5 30 -3 52 -1 52 4 0 6 -21 10 -47 10 -67 0 -48 9 24 12 34 1 59 6 57 10 -3 5
-22 6 -42 3 -20 -3 -31 -2 -25 1 7 3 13 23 13 45 0 38 1 39 35 39 l35 0 0 120
c0 100 3 120 15 120 13 0 15 24 15 160 l0 160 25 0 25 0 0 160 0 160 -105 0
c-87 0 -105 -3 -105 -15 0 -12 -16 -15 -80 -15 -79 0 -80 0 -80 25 0 23 -4 25
-40 25 l-40 0 0 135 0 135 -40 0 c-29 0 -40 4 -40 15 0 12 -16 15 -80 15 l-80
0 0 40 0 40 -40 0 -40 0 0 280 0 280 40 0 40 0 0 50 0 50 -40 0 c-29 0 -40 4
-40 15 0 13 -20 15 -120 15 l-120 0 0 -25 c0 -25 -1 -25 -80 -25 l-80 0 0 40
0 40 -40 0 c-22 0 -40 5 -40 10 0 6 -18 10 -40 10 l-40 0 0 69 0 69 38 12 c44
15 64 30 37 30 -10 0 -16 2 -13 5 3 4 18 3 33 -1 20 -5 24 -9 13 -16 -9 -6 0
-8 26 -6 35 4 36 3 20 -10 -18 -14 -18 -14 1 -7 40 15 56 17 54 9 -1 -5 -1
-20 0 -33 1 -23 3 -23 52 -18 38 5 64 1 106 -15 46 -17 62 -19 92 -10 28 9 33
9 20 -1 -13 -10 -5 -12 42 -12 32 -1 64 -6 71 -13 7 -7 38 -12 69 -12 35 0 59
-5 61 -12 3 -8 15 -9 46 -1 39 10 68 2 40 -11 -7 -3 15 -3 49 1 66 6 133 -2
133 -17 0 -5 -8 -11 -17 -14 -10 -2 25 -3 77 -1 52 2 89 1 82 -2 -33 -13 -4
-23 68 -23 47 0 80 -4 80 -10 0 -6 42 -10 108 -9 60 1 96 4 82 8 -23 6 -20 8
22 19 26 7 73 12 105 12 32 0 81 6 110 14 28 8 54 12 57 9 2 -2 16 3 30 12 14
10 42 19 62 22 20 3 111 30 203 60 91 30 180 59 196 63 79 22 332 124 350 141
5 5 -33 -8 -85 -30 -101 -42 -349 -119 -465 -145 -70 -15 -278 -43 -325 -44
-14 0 -45 -5 -70 -11 -43 -10 -175 -14 -137 -4 32 8 20 32 -15 28 -18 -2 -96
-6 -173 -8 -77 -2 -121 -2 -97 0 23 3 42 8 42 13 0 5 -19 10 -42 12 -24 2 9 3
72 4 63 0 153 6 200 12 47 7 137 19 200 28 154 20 265 41 385 70 113 28 318
95 311 102 -3 2 -27 -3 -53 -13 -220 -76 -482 -123 -823 -146 -184 -12 -563
-6 -568 10 -2 5 -22 7 -45 5 -32 -3 -36 -2 -17 4 46 16 86 23 72 14 -21 -14
50 -25 82 -12 15 5 44 11 64 11 33 2 34 2 7 6 -16 2 -40 9 -52 15 -12 6 -38 8
-57 5 -19 -3 -37 -3 -40 1 -8 7 -21 9 -111 17 -38 4 -86 10 -106 16 -19 5 -62
13 -95 18 -166 28 -200 35 -489 107 -99 25 -198 49 -220 54 -22 4 -101 24
-175 44 -74 20 -153 36 -174 36 -52 0 -40 -10 15 -14 47 -4 157 -33 174 -46 6
-4 35 -10 65 -12 30 -3 56 -11 58 -17 2 -6 8 -8 14 -5 12 8 128 -27 128 -38 0
-5 17 -8 38 -9 28 0 32 -2 17 -8 -16 -7 -14 -9 14 -14 19 -4 45 -7 60 -7 20 0
23 -2 11 -10 -8 -5 -13 -10 -10 -10 59 -7 125 -11 165 -11 l50 0 -40 -14 -40
-13 50 1 c77 0 163 -6 136 -11 -18 -3 -8 -9 44 -27 74 -26 89 -35 57 -35 -11
0 -24 4 -27 10 -3 5 -20 7 -38 5 -28 -4 -29 -4 -7 4 24 8 24 8 -12 15 -20 5
-49 5 -65 2 -17 -4 -44 0 -66 9 -20 8 -48 15 -63 15 -14 0 -290 66 -613 146
-322 80 -597 148 -611 151 -133 23 -584 192 -565 211 7 7 -15 32 -27 32 -6 0
-4 -7 3 -17 13 -15 12 -15 -8 -2 -16 9 -19 16 -10 21 9 6 7 11 -5 19 -10 5
-18 14 -18 20 0 5 9 1 20 -9 24 -23 51 -35 107 -52 41 -12 49 -26 28 -43 -6
-5 -2 -6 8 -3 11 3 31 9 45 12 22 5 24 3 12 -6 -10 -8 -11 -10 -2 -8 25 7 13
21 -35 42 -156 68 -230 132 -240 206 -12 85 55 134 251 186 72 20 154 42 181
50 57 16 198 52 235 59 14 3 32 8 40 11 8 3 33 9 55 14 22 4 85 20 140 35 55
15 107 28 115 30 65 14 109 29 104 36 -3 5 3 8 13 7 10 0 31 0 46 0 25 2 28 5
24 30 -2 15 -2 21 0 15 3 -7 9 -13 14 -13 12 0 12 27 -1 35 -5 3 -10 14 -10
23 1 15 3 14 16 -3 9 -12 13 -31 10 -47 -5 -25 -4 -26 27 -17 17 5 32 9 33 9
1 0 -1 12 -3 28 l-4 27 15 -30 c8 -16 15 -24 15 -17 1 7 7 12 14 11 6 -1 29 1
50 5 44 10 49 33 14 68 -26 26 -63 105 -54 114 3 3 13 -11 21 -31 14 -32 20
-37 41 -33 13 3 22 1 19 -3 -3 -5 -11 -9 -19 -9 -8 0 -17 -5 -20 -10 -4 -6 -1
-9 6 -8 7 2 18 -7 24 -19 5 -13 13 -23 17 -23 4 0 5 -7 1 -16 -5 -12 0 -15 23
-12 19 2 28 8 26 17 -2 11 0 12 11 3 11 -9 33 -6 98 13 46 13 99 25 117 25 33
0 43 14 17 24 -8 3 -15 10 -15 15 0 6 8 7 18 4 15 -6 15 -5 3 10 -9 11 -10 17
-2 17 6 0 11 -4 11 -10 0 -18 2 -25 12 -44 7 -14 13 -15 21 -7 8 8 9 14 1 19
-13 8 -27 45 -15 38 17 -11 23 46 6 64 -14 16 -14 18 0 24 10 3 18 -1 22 -12
23 -64 56 -125 61 -112 3 7 0 16 -5 17 -6 2 -9 13 -6 23 3 11 1 20 -5 20 -5 0
-12 12 -15 28 -4 15 -18 41 -32 57 -15 17 -24 22 -21 13 2 -9 -2 -19 -10 -22
-16 -6 -20 19 -4 29 6 4 3 17 -10 35 -11 15 -20 33 -20 39 0 6 -5 11 -10 11
-22 0 -46 86 -31 109 8 12 12 12 25 -2 9 -8 16 -20 16 -25 0 -5 7 -15 15 -22
9 -7 14 -19 11 -27 -3 -7 -1 -13 4 -13 6 0 10 -8 10 -18 0 -23 33 -55 45 -45
4 5 5 3 2 -3 -3 -6 3 -21 14 -33 16 -17 20 -30 15 -52 -4 -20 1 -44 13 -70 11
-22 18 -48 16 -58 -3 -14 4 -20 27 -25 41 -8 48 1 13 14 -15 6 -25 13 -21 17
3 3 2 11 -3 17 -12 16 -23 69 -13 62 10 -6 26 -64 23 -81 -2 -5 3 -5 9 2 14
13 -6 82 -27 96 -7 4 -13 16 -13 25 0 15 2 15 10 2 8 -13 11 -13 27 2 9 10 13
21 9 25 -4 4 -11 1 -15 -6 -6 -9 -9 -5 -8 13 0 14 3 23 8 20 5 -3 9 6 9 20 0
29 -18 44 -26 22 -6 -16 -24 -12 -24 5 0 6 5 7 10 4 6 -3 10 -2 10 4 0 5 9 9
20 8 13 -1 20 -8 20 -22 0 -11 7 -33 15 -49 17 -33 19 -39 6 -31 -18 11 -22
-15 -6 -42 15 -26 15 -26 9 -3 -6 23 -6 24 17 9 37 -25 45 -44 26 -64 -12 -12
-17 -13 -17 -3 -1 7 -7 2 -14 -11 -21 -37 -3 -71 37 -71 14 0 16 4 8 18 -11
21 -10 54 4 64 13 10 14 60 1 73 -6 5 -18 10 -26 10 -8 0 -16 7 -18 16 -4 21
29 21 45 0 11 -14 12 -14 13 2 0 9 -4 17 -9 17 -8 0 -8 27 -1 65 4 20 -1 30
-9 17 -7 -11 -9 -10 -14 3 -4 9 -3 14 1 11 4 -3 8 11 8 30 0 18 -3 29 -6 24
-4 -6 -6 10 -5 35 2 41 15 79 15 43 0 -9 7 -19 16 -22 21 -8 24 -8 24 5 0 5
-4 8 -9 4 -6 -3 -15 3 -20 14 -6 11 -21 21 -33 23 -13 2 -23 10 -24 18 0 8 -4
23 -9 33 -10 23 -4 28 23 20 24 -6 30 -38 10 -46 -10 -4 -10 -6 -1 -6 7 -1 17
9 24 20 9 18 8 24 -6 31 -12 7 -15 17 -10 36 4 15 3 24 -1 19 -4 -4 -15 10
-25 30 -18 39 -26 32 -10 -9 4 -13 5 -32 0 -43 -7 -18 -8 -18 -9 5 -1 23 -2
23 -15 -8 -14 -31 -13 -37 9 -78 13 -24 27 -40 31 -36 4 4 0 -7 -9 -25 -11
-22 -13 -34 -5 -39 6 -3 15 0 20 7 6 10 9 10 9 2 0 -7 -9 -17 -19 -22 -24 -13
-54 15 -32 29 10 5 10 9 1 15 -6 4 -13 5 -15 3 -8 -8 -8 -63 0 -83 4 -11 -9 7
-29 40 -41 66 -74 104 -63 73 4 -10 2 -18 -3 -18 -11 0 -13 11 -4 34 9 22 21
20 36 -6 15 -27 50 -35 40 -9 -3 9 -14 22 -24 29 -20 14 -24 32 -8 32 6 0 10
-7 10 -16 0 -8 5 -12 10 -9 6 4 15 -8 21 -25 6 -17 14 -29 17 -26 3 3 11 1 19
-5 7 -6 13 -9 13 -6 0 7 -44 75 -62 96 -6 8 -12 32 -13 55 -1 30 -5 40 -16 38
-11 -3 -12 -1 -2 9 11 10 16 9 28 -7 8 -10 12 -26 9 -36 -3 -9 0 -19 6 -23 13
-8 13 30 0 56 -14 24 5 26 19 2 9 -16 10 -16 11 4 0 13 -5 22 -11 20 -6 -1
-14 4 -16 11 -3 8 1 10 12 6 10 -4 21 -1 26 7 7 11 10 9 15 -8 4 -13 10 -20
15 -17 5 3 9 -4 9 -15 0 -12 4 -21 10 -21 5 0 14 -18 20 -39 5 -21 17 -42 25
-45 8 -3 15 -11 15 -17 0 -8 -4 -8 -14 0 -12 10 -17 8 -26 -9 -9 -18 -9 -21 4
-18 10 2 26 -14 43 -42 16 -26 20 -39 11 -32 -15 12 -16 10 -15 -21 1 -24 6
-34 17 -32 15 2 30 -12 30 -30 0 -5 -5 -3 -10 5 -5 8 -10 11 -10 5 0 -5 4 -17
9 -24 8 -12 11 -9 16 12 5 19 2 34 -8 45 -8 9 -12 23 -10 30 9 24 21 12 28
-27 8 -47 28 -80 39 -63 4 7 2 12 -3 12 -6 0 -11 7 -11 15 0 8 7 15 16 15 12
0 15 -7 12 -30 -3 -17 1 -35 8 -41 9 -7 11 -1 7 28 -2 21 -11 43 -20 50 -8 6
-12 16 -9 21 3 5 -1 15 -9 22 -8 7 -15 21 -15 31 0 21 -16 34 -25 19 -3 -5 -1
-10 4 -10 6 0 11 -4 11 -10 0 -22 -22 -8 -31 20 -6 17 -15 30 -20 30 -5 0 -9
9 -9 20 0 12 -9 39 -21 61 -11 23 -19 43 -16 45 4 4 39 -64 56 -108 7 -19 15
-26 26 -22 9 4 23 -3 35 -17 23 -29 25 -22 5 17 -8 16 -12 37 -9 48 4 12 2 16
-5 12 -6 -4 -11 0 -11 9 0 9 -7 27 -16 41 -9 13 -14 27 -12 30 7 6 58 -84 58
-102 0 -7 6 -19 13 -26 6 -7 13 -36 14 -65 1 -37 8 -59 22 -75 23 -24 27 -13
9 27 -10 22 -9 28 6 43 17 16 18 16 12 -4 -10 -32 3 -58 20 -43 19 15 18 30
-1 23 -8 -4 -15 -2 -15 4 0 5 7 12 15 16 8 3 15 13 14 23 0 11 -3 13 -6 6 -9
-24 -23 -13 -18 15 l5 27 -13 -28 c-7 -15 -16 -24 -20 -21 -4 4 -7 0 -7 -9 0
-9 -4 -17 -10 -17 -19 0 -10 42 10 47 20 5 25 27 14 57 -6 14 -9 14 -24 -4
-15 -18 -19 -18 -24 -5 -3 9 -2 13 4 10 6 -3 10 1 10 9 0 9 -4 16 -10 16 -5 0
-6 8 -3 17 4 11 8 13 11 5 3 -10 7 -10 20 0 13 11 15 10 9 -5 -4 -11 -3 -16 3
-12 14 8 12 25 -4 58 -15 26 -14 27 7 15 21 -11 21 -10 7 7 -8 10 -10 16 -4
12 8 -5 11 8 11 43 0 28 -3 50 -6 50 -19 0 -71 -43 -70 -57 0 -15 2 -14 11 5
6 12 15 22 20 22 4 0 11 1 15 3 3 1 7 -8 8 -20 1 -13 -2 -23 -7 -23 -4 0 -8 5
-8 12 0 9 -3 9 -12 0 -10 -10 -10 -15 2 -22 12 -8 12 -10 1 -10 -8 0 -11 -6
-7 -17 5 -15 3 -14 -9 2 -22 28 -30 64 -16 78 6 6 11 15 11 21 0 5 -3 6 -7 3
-4 -4 -17 13 -30 39 -27 54 -27 54 -8 54 15 0 19 -11 15 -39 -1 -9 4 -12 14
-8 11 5 16 1 16 -13 0 -20 17 -36 27 -26 4 3 -3 20 -16 36 -12 17 -17 30 -11
30 6 0 9 4 5 9 -3 6 2 14 10 19 11 5 16 23 17 51 0 29 3 39 9 30 14 -22 11 18
-2 44 l-12 22 23 -20 22 -20 -6 30 c-19 88 -19 88 9 81 28 -7 28 -3 8 50 -2 7
0 15 6 19 7 4 11 -3 11 -17 0 -33 15 -54 26 -37 4 7 3 14 -4 17 -7 2 -12 8
-12 14 0 6 7 8 15 4 19 -7 19 3 1 18 -20 16 -31 57 -14 53 7 -2 10 -2 5 0 -4
3 -4 10 -1 15 4 6 2 8 -3 5 -6 -4 -10 4 -10 19 0 18 4 24 14 19 11 -4 13 -1 8
12 -4 10 -8 37 -8 61 0 41 -9 55 -21 30 -5 -10 -7 -10 -12 0 -8 17 -34 15 -34
-3 0 -8 5 -14 11 -12 6 1 13 -3 16 -9 2 -7 -4 -11 -14 -10 -10 0 -20 10 -23
21 -8 28 -76 35 -83 8 -4 -17 -5 -17 -6 0 -2 26 -51 23 -51 -3 0 -11 -6 -20
-14 -20 -7 0 -16 9 -19 20 -3 12 -14 20 -27 20 -17 0 -20 -3 -13 -12 6 -7 13
-22 17 -33 5 -16 2 -15 -14 5 -11 14 -20 28 -20 33 0 11 -48 9 -55 -3 -4 -6 1
-7 12 -3 17 5 17 5 2 -12 -14 -14 -15 -22 -5 -48 6 -18 14 -34 17 -37 3 -3 2
-16 -2 -30 -6 -21 -7 -22 -9 -5 -1 11 -2 23 -1 28 0 4 -3 7 -8 7 -5 0 -7 10
-4 23 3 14 2 18 -4 10 -6 -8 -13 -3 -25 18 -19 32 -13 39 9 12 8 -10 7 -4 -3
14 -16 28 -22 31 -60 30 -24 -1 -40 -5 -37 -11 4 -5 1 -6 -8 0 -19 12 -42 11
-51 -1 -5 -6 -8 -5 -8 2 0 9 -36 12 -139 12 l-139 -1 5 -42 c2 -22 9 -54 15
-69 6 -15 8 -30 6 -33 -10 -9 -31 60 -28 94 1 18 -3 32 -10 32 -6 0 -8 5 -5
10 3 6 1 10 -5 10 -7 0 -10 -6 -7 -12 2 -7 7 -24 11 -38 l7 -25 -21 24 c-11
13 -19 30 -16 37 4 11 -334 13 -1824 14 l-1830 0 0 -3150z m3620 3137 c0 -2
-9 -12 -20 -22 -24 -21 -27 -14 -4 9 15 15 24 20 24 13z m427 -79 c12 -16 24
-48 18 -48 -10 0 -45 81 -44 102 1 17 3 15 9 -9 4 -18 12 -39 17 -45z m353 62
c0 -5 -2 -10 -4 -10 -3 0 -8 5 -11 10 -3 6 -1 10 4 10 6 0 11 -4 11 -10z m34
-29 c8 -11 8 -13 -1 -8 -6 4 -14 1 -16 -5 -3 -7 -5 3 -5 22 0 19 2 28 5 20 3
-8 11 -21 17 -29z m-507 7 c-3 -8 -6 -5 -6 6 -1 11 2 17 5 13 3 -3 4 -12 1
-19z m83 12 c0 -5 -2 -10 -4 -10 -3 0 -8 5 -11 10 -3 6 -1 10 4 10 6 0 11 -4
11 -10z m-378 -24 c7 4 8 2 4 -4 -12 -20 -26 -13 -25 11 1 17 2 18 6 4 2 -9 9
-14 15 -11z m355 -16 c4 -30 -4 -24 -16 12 -9 26 -9 30 1 20 6 -6 13 -21 15
-32z m213 30 c0 -5 7 -7 15 -4 8 4 15 1 15 -6 0 -6 -4 -8 -10 -5 -5 3 -11 -4
-11 -17 l-2 -23 -4 23 c-2 12 -9 22 -14 22 -5 0 -9 5 -9 10 0 6 5 10 10 10 6
0 10 -4 10 -10z m194 -22 c-4 -6 -10 -5 -15 3 -14 22 -10 33 6 19 8 -7 12 -17
9 -22z m-1037 0 c-3 -8 -6 -5 -6 6 -1 11 2 17 5 13 3 -3 4 -12 1 -19z m741 -3
c14 -31 15 -35 4 -35 -8 0 -32 43 -32 55 0 15 19 1 28 -20z m-501 0 c0 -8 -4
-15 -9 -15 -10 0 -11 14 -1 23 9 10 10 9 10 -8z m733 -6 c0 -6 -4 -8 -10 -4
-5 3 -8 -7 -7 -24 1 -16 6 -27 11 -24 4 3 5 -3 2 -14 -4 -11 -2 -33 4 -49 6
-16 8 -25 4 -21 -4 4 -15 0 -25 -9 -23 -21 -53 -11 -44 15 3 11 1 22 -5 26
-14 8 -13 55 1 55 6 0 9 -9 6 -20 -3 -11 -2 -18 3 -15 4 3 11 -5 14 -18 7 -21
7 -21 15 -2 5 11 6 25 2 30 -3 6 -4 18 -2 29 1 11 -2 16 -8 12 -13 -8 -2 23
13 40 12 13 26 9 26 -7z m65 -10 c11 -2 26 0 34 5 9 6 12 5 9 -5 -6 -18 -56
-30 -62 -16 -2 7 -5 4 -5 -7 -2 -33 22 -96 36 -96 25 0 13 -16 -15 -18 -23 -2
-31 4 -44 33 -9 19 -12 37 -8 40 5 3 11 -1 14 -7 2 -7 3 14 0 47 -5 52 -3 58
8 43 8 -9 23 -17 33 -19z m105 12 c-5 -11 -10 -31 -10 -45 0 -14 -4 -26 -10
-26 -5 0 -9 10 -7 23 1 13 -3 21 -10 20 -7 -2 -10 4 -7 12 4 8 12 15 20 15 8
0 14 5 14 10 0 6 5 10 10 10 7 0 7 -6 0 -19z m-1078 -16 c3 -13 1 -22 -3 -19
-9 5 -13 44 -5 44 2 0 6 -11 8 -25z m68 -6 c0 -6 -4 -7 -10 -4 -5 3 -10 11
-10 16 0 6 5 7 10 4 6 -3 10 -11 10 -16z m320 -5 c0 -20 -7 -17 -20 6 -9 16
-8 18 5 14 8 -4 15 -12 15 -20z m-166 7 c3 -5 -3 -11 -13 -14 -14 -3 -18 -1
-14 9 6 16 19 18 27 5z m296 -26 c0 -5 -5 -3 -10 5 -5 8 -10 20 -10 25 0 6 5
3 10 -5 5 -8 10 -19 10 -25z m330 15 c0 -5 -2 -10 -4 -10 -3 0 -8 5 -11 10 -3
6 -1 10 4 10 6 0 11 -4 11 -10z m-460 -72 c1 -19 -18 -6 -24 16 -3 13 -8 32
-12 43 -3 10 4 2 15 -17 11 -19 20 -38 21 -42z m-202 37 c-3 -3 -9 2 -12 12
-6 14 -5 15 5 6 7 -7 10 -15 7 -18z m812 2 c0 -7 -4 -6 -10 3 -8 13 -10 12
-10 -4 0 -11 -3 -17 -6 -13 -4 3 -4 13 0 22 6 18 26 11 26 -8z m-673 -19 c-3
-7 -5 -2 -5 12 0 14 2 19 5 13 2 -7 2 -19 0 -25z m493 16 c0 -2 -7 -4 -15 -4
-8 0 -15 4 -15 10 0 5 7 7 15 4 8 -4 15 -8 15 -10z m-552 -63 c7 -19 12 -43
11 -55 -1 -12 -5 -6 -11 17 -6 20 -14 37 -20 37 -5 0 -6 5 -3 10 3 6 0 13 -9
16 -8 3 -14 14 -13 24 1 18 2 18 17 2 9 -10 22 -33 28 -51z m149 63 c-3 -3
-12 -4 -19 -1 -8 3 -5 6 6 6 11 1 17 -2 13 -5z m313 -17 c0 -7 -4 -6 -10 3 -8
12 -10 12 -10 1 0 -8 -3 -12 -6 -8 -9 9 6 28 17 22 5 -4 9 -12 9 -18z m-220
-33 c-11 -18 -11 -18 -6 0 4 10 1 26 -6 35 -11 14 -10 14 6 0 15 -14 16 -20 6
-35z m145 31 c-6 19 -5 19 14 -2 12 -12 21 -30 21 -40 -1 -14 -4 -13 -15 7 -8
14 -14 21 -15 16 0 -5 -6 -3 -14 3 -12 10 -16 8 -21 -10 -5 -15 -9 -18 -15 -9
-4 7 -1 19 9 29 14 15 17 15 29 1 12 -13 13 -13 7 5z m385 5 c0 -5 -7 -10 -15
-10 -9 0 -12 -6 -8 -16 5 -13 7 -13 14 -2 5 8 6 -1 2 -21 -4 -25 -3 -32 6 -27
6 4 9 12 6 17 -4 5 1 9 10 9 15 0 15 -2 1 -22 -20 -28 -20 -39 -1 -32 8 4 15
1 15 -6 0 -27 -35 -2 -45 32 -5 20 -13 40 -17 44 -14 13 -9 32 10 37 9 3 18 5
20 6 1 0 2 -3 2 -9z m-240 -22 c0 -18 -2 -20 -9 -8 -6 8 -7 18 -5 22 9 14 14
9 14 -14z m-320 -32 c0 -6 -7 -2 -15 8 -8 11 -15 25 -15 30 0 6 7 2 15 -8 8
-11 15 -25 15 -30z m-375 -4 c-3 -3 -11 0 -18 7 -9 10 -8 11 6 5 10 -3 15 -9
12 -12z m318 -15 c5 -16 6 -31 3 -34 -8 -9 -13 -2 -18 22 -1 11 -10 26 -18 33
-13 11 -13 12 4 10 11 -2 23 -15 29 -31z m36 -17 c0 -9 -6 -4 -14 10 -19 33
-19 49 0 24 8 -10 14 -26 14 -34z m145 34 c3 -8 2 -12 -4 -9 -6 3 -10 10 -10
16 0 14 7 11 14 -7z m-63 -21 c13 -16 12 -17 -3 -4 -10 7 -18 15 -18 17 0 8 8
3 21 -13z m-212 -42 c6 -19 10 -52 10 -75 l-2 -41 -7 40 c-4 22 -12 60 -18 84
-12 49 -1 44 17 -8z m281 4 c0 -5 -5 -3 -10 5 -5 8 -10 20 -10 25 0 6 5 3 10
-5 5 -8 10 -19 10 -25z m40 25 c0 -5 -2 -10 -4 -10 -3 0 -8 5 -11 10 -3 6 -1
10 4 10 6 0 11 -4 11 -10z m150 -11 c0 -6 -4 -7 -10 -4 -5 3 -10 11 -10 16 0
6 5 7 10 4 6 -3 10 -11 10 -16z m179 -26 c-1 -43 -2 -45 -8 -17 -4 17 -11 36
-14 42 -6 8 0 15 21 21 1 1 2 -20 1 -46z m35 -15 c-3 -5 0 -16 7 -24 6 -8 9
-17 5 -21 -3 -3 -6 -1 -6 6 0 7 -4 10 -9 7 -5 -3 -9 18 -8 47 0 44 1 48 8 23
4 -16 6 -33 3 -38z m-797 15 c-3 -10 -5 -4 -5 12 0 17 2 24 5 18 2 -7 2 -21 0
-30z m629 9 c-18 -16 -18 -16 -6 6 6 13 14 21 18 18 3 -4 -2 -14 -12 -24z
m-739 -19 c-3 -10 -5 -4 -5 12 0 17 2 24 5 18 2 -7 2 -21 0 -30z m527 21 c3
-8 2 -12 -4 -9 -6 3 -10 10 -10 16 0 14 7 11 14 -7z m-176 -19 c-3 -3 -9 2
-12 12 -6 14 -5 15 5 6 7 -7 10 -15 7 -18z m449 -1 c-5 -25 13 -82 33 -108 56
-68 62 -78 53 -87 -6 -6 -16 4 -29 28 -10 21 -26 45 -34 55 -20 22 -44 104
-36 123 9 25 19 17 13 -11z m-509 -9 c-3 -3 -9 2 -12 12 -6 14 -5 15 5 6 7 -7
10 -15 7 -18z m139 3 c-3 -8 -6 -5 -6 6 -1 11 2 17 5 13 3 -3 4 -12 1 -19z
m156 2 c3 -11 1 -20 -4 -20 -5 0 -9 2 -9 4 0 2 -3 11 -6 20 -3 9 -2 16 4 16 5
0 12 -9 15 -20z m186 -22 c1 -5 -3 -8 -9 -8 -5 0 -10 12 -9 28 0 24 1 25 9 7
5 -11 9 -23 9 -27z m-119 22 c0 -5 5 -10 11 -10 5 0 7 5 3 12 -4 6 -3 8 3 5 5
-3 7 -23 4 -44 -4 -37 -4 -38 -12 -10 -4 16 -13 35 -20 43 -8 10 -8 14 0 14 6
0 11 -4 11 -10z m-524 -29 c-1 -17 -5 -26 -9 -21 -5 4 -6 17 -2 29 9 29 12 26
11 -8z m433 -16 c6 -3 11 -21 10 -38 l-1 -32 -10 35 c-5 19 -14 39 -19 45 -5
5 -9 16 -8 25 0 9 3 7 9 -6 5 -12 13 -25 19 -29z m166 27 c-3 -3 -11 0 -18 7
-9 10 -8 11 6 5 10 -3 15 -9 12 -12z m-740 -18 c0 -10 4 -25 8 -31 5 -7 4 -13
-1 -13 -13 0 -24 29 -16 42 4 6 0 15 -7 20 -12 8 -11 9 1 5 8 -2 15 -12 15
-23z m210 16 c3 -5 -1 -10 -10 -10 -9 0 -13 5 -10 10 3 6 8 10 10 10 2 0 7 -4
10 -10z m285 4 c0 -8 -19 -13 -24 -6 -3 5 1 9 9 9 8 0 15 -2 15 -3z m390 -30
c0 5 6 3 14 -3 17 -14 27 -59 15 -67 -5 -3 -9 6 -9 20 0 14 -4 27 -9 30 -5 4
-7 -4 -4 -16 4 -18 0 -16 -21 11 -28 37 -30 44 -19 55 4 3 13 -4 20 -16 7 -13
12 -19 13 -14z m-840 16 c0 -5 -2 -10 -4 -10 -3 0 -8 5 -11 10 -3 6 -1 10 4
10 6 0 11 -4 11 -10z m590 1 c0 -6 -4 -12 -10 -16 -6 -4 -6 -15 0 -30 5 -14 6
-25 1 -25 -11 0 -21 49 -14 67 6 15 23 18 23 4z m85 -2 c11 -16 1 -19 -13 -3
-7 8 -8 14 -3 14 5 0 13 -5 16 -11z m-390 -9 c3 -5 1 -10 -4 -10 -6 0 -11 5
-11 10 0 6 2 10 4 10 3 0 8 -4 11 -10z m187 -13 c-4 -14 -7 -16 -13 -5 -12 19
-11 25 5 25 8 0 11 -8 8 -20z m-107 -9 c4 -13 7 -27 6 -31 -1 -4 3 -16 8 -25
6 -11 5 -21 -4 -29 -10 -10 -14 -9 -19 3 -4 9 -2 12 5 8 7 -4 9 1 7 12 -2 11
-10 18 -18 16 -11 -3 -11 0 -1 12 8 10 9 16 1 21 -12 8 -14 35 -1 35 5 0 12
-10 16 -22z m45 7 c0 -8 -2 -15 -4 -15 -2 0 -6 7 -10 15 -3 8 -1 15 4 15 6 0
10 -7 10 -15z m-415 -5 c3 -5 1 -10 -4 -10 -6 0 -11 5 -11 10 0 6 2 10 4 10 3
0 8 -4 11 -10z m181 -7 c3 -10 10 -26 15 -35 7 -14 5 -18 -7 -18 -8 0 -12 5
-9 10 3 6 2 10 -4 10 -6 0 -8 7 -5 15 4 8 1 15 -4 15 -6 0 -12 -7 -14 -15 -2
-10 -8 -12 -17 -6 -12 8 -12 11 0 25 19 20 38 20 45 -1z m319 -12 c0 -16 -3
-27 -7 -24 -5 2 -8 15 -8 29 0 13 3 24 8 24 4 0 7 -13 7 -29z m115 -16 c0 -12
4 -25 9 -30 14 -15 25 -59 13 -51 -6 3 -13 -4 -15 -16 -3 -15 -5 -10 -6 14 -1
48 -10 70 -25 61 -6 -4 -5 1 2 10 8 9 11 26 7 39 -5 18 -4 20 4 8 6 -8 11 -24
11 -35z m-365 24 c11 -16 1 -19 -13 -3 -7 8 -8 14 -3 14 5 0 13 -5 16 -11z
m65 -35 c0 -13 4 -24 9 -24 12 0 23 -29 15 -42 -6 -10 -26 21 -36 57 -3 11 -9
29 -14 40 -7 18 -6 18 9 6 9 -7 17 -24 17 -37z m390 36 c0 -5 -5 -10 -11 -10
-5 0 -7 5 -4 10 3 6 8 10 11 10 2 0 4 -4 4 -10z m-29 -31 c5 -3 11 -19 12 -36
2 -16 7 -35 11 -42 4 -6 3 -11 -2 -11 -12 0 -22 25 -22 55 0 13 -4 27 -10 30
-5 3 -10 14 -9 23 0 14 2 14 6 2 3 -8 10 -18 14 -21z m-653 -2 c3 -13 -1 -15
-14 -10 -13 5 -14 8 -5 11 11 4 11 6 0 14 -11 8 -11 9 1 5 8 -2 16 -11 18 -20z
m706 0 c-3 -8 2 -20 11 -27 13 -11 15 -9 16 11 0 20 4 17 19 -16 18 -37 18
-40 2 -47 -9 -4 -11 -7 -4 -7 14 -1 17 -21 3 -21 -5 0 -13 10 -17 22 -3 12
-15 31 -25 42 -20 21 -26 56 -9 56 5 0 7 -6 4 -13z m-588 -40 c-2 -7 -5 -4 -5
6 -1 9 -6 17 -12 17 -5 0 -7 5 -3 11 9 15 28 -16 20 -34z m148 28 c3 -8 1 -15
-4 -15 -6 0 -10 7 -10 15 0 8 2 15 4 15 2 0 6 -7 10 -15z m556 0 c7 -9 8 -15
2 -15 -5 0 -12 7 -16 15 -3 8 -4 15 -2 15 2 0 9 -7 16 -15z m-610 -24 c0 -11
9 -23 20 -26 23 -7 27 -25 5 -25 -8 0 -15 -4 -15 -10 0 -5 5 -10 11 -10 5 0 7
-5 4 -11 -5 -6 -12 -4 -20 8 -10 13 -10 20 -2 25 9 6 9 10 1 16 -16 10 -28 52
-15 52 6 0 11 -9 11 -19z m304 -6 c-4 -8 -1 -15 5 -15 6 0 11 -4 11 -10 0 -5
-7 -7 -15 -4 -16 7 -21 44 -5 44 5 0 7 -7 4 -15z m-511 -15 c3 -11 1 -18 -4
-14 -5 3 -9 12 -9 20 0 20 7 17 13 -6z m155 -20 c-4 -29 6 -42 14 -18 3 7 7 8
9 3 3 -6 -5 -20 -17 -31 l-22 -22 3 40 c3 34 2 38 -11 27 -12 -10 -17 -9 -27
1 -9 10 -9 11 1 6 6 -4 19 0 28 8 22 23 27 20 22 -14z m117 20 c3 -5 1 -10 -4
-10 -6 0 -11 5 -11 10 0 6 2 10 4 10 3 0 8 -4 11 -10z m209 -6 c3 -8 2 -12 -4
-9 -6 3 -10 10 -10 16 0 14 7 11 14 -7z m177 -44 c5 0 9 -16 9 -35 0 -29 -2
-34 -13 -23 -8 6 -12 22 -9 34 2 12 -1 25 -7 28 -6 4 -11 17 -10 29 0 19 2 19
11 -5 5 -16 14 -28 19 -28z m-684 18 c-3 -8 -6 -5 -6 6 -1 11 2 17 5 13 3 -3
4 -12 1 -19z m587 7 c3 -8 1 -15 -4 -15 -6 0 -10 7 -10 15 0 8 2 15 4 15 2 0
6 -7 10 -15z m226 -6 c0 -11 -4 -18 -10 -14 -5 3 -7 12 -3 20 7 21 13 19 13
-6z m-470 -34 c0 -5 -5 -3 -10 5 -5 8 -10 20 -10 25 0 6 5 3 10 -5 5 -8 10
-19 10 -25z m82 -39 c-17 -46 -16 -62 3 -46 8 7 15 22 15 33 0 20 0 20 19 1
12 -12 15 -23 9 -31 -5 -6 -6 -24 -3 -40 l6 -28 -15 30 -15 30 6 -30 c3 -16
10 -31 15 -33 13 -6 9 -22 -4 -18 -7 1 -10 1 -5 -1 12 -7 8 -21 -9 -27 -13 -5
-15 1 -14 32 3 55 -1 70 -10 42 -7 -23 -8 -23 -9 -3 -1 12 -5 24 -10 27 -10 7
-2 56 11 73 6 7 8 25 4 40 -5 27 -5 27 6 5 9 -18 9 -31 0 -56z m47 43 c-19
-12 -24 -2 -8 17 9 11 14 13 17 4 3 -7 -2 -16 -9 -21z m78 9 c-3 -8 -6 -5 -6
6 -1 11 2 17 5 13 3 -3 4 -12 1 -19z m-27 -3 c0 -8 5 -15 10 -15 6 0 10 -8 11
-17 0 -15 2 -15 9 2 7 16 8 12 8 -16 -1 -20 6 -50 15 -69 11 -22 14 -38 8 -49
-9 -15 -10 -14 -15 2 -3 9 -9 25 -13 35 -3 9 -8 27 -9 40 -3 24 -23 56 -31 48
-3 -2 1 -15 7 -28 11 -19 10 -21 -1 -10 -15 14 -21 92 -7 92 4 0 8 -7 8 -15z
m201 -65 c6 0 8 4 5 8 -2 4 0 14 5 22 7 11 8 7 5 -13 -3 -18 1 -34 13 -46 14
-14 15 -20 4 -29 -7 -7 -10 -19 -7 -27 7 -17 -11 -20 -22 -4 -3 6 -1 15 6 19
9 5 9 9 1 14 -6 4 -11 2 -11 -4 0 -6 -4 -8 -10 -5 -5 3 -10 3 -10 0 0 -8 44
-69 53 -73 4 -2 5 -7 2 -12 -3 -5 1 -15 9 -22 7 -8 16 -27 18 -44 3 -16 3 -23
1 -16 -3 6 -9 12 -14 12 -5 0 -9 6 -9 13 -1 22 -66 122 -80 122 -7 0 -15 6
-18 14 -3 8 0 11 5 8 11 -7 11 29 0 39 -4 4 -7 14 -7 23 0 12 6 9 21 -9 12
-15 19 -19 18 -10 -1 8 0 35 2 60 l2 45 4 -42 c2 -24 9 -43 14 -43z m-874 48
c-3 -8 -6 -5 -6 6 -1 11 2 17 5 13 3 -3 4 -12 1 -19z m223 2 c11 -21 5 -44
-10 -35 -4 3 -6 14 -3 25 4 16 2 19 -12 13 -13 -4 -16 -3 -11 5 11 18 24 15
36 -8z m320 4 c0 -2 -7 -4 -15 -4 -8 0 -15 4 -15 10 0 5 7 7 15 4 8 -4 15 -8
15 -10z m-284 -50 c-3 -8 -13 -14 -23 -14 -17 1 -17 1 0 11 9 5 18 20 18 32 1
18 2 19 6 4 3 -10 2 -25 -1 -33z m508 30 c3 -8 2 -12 -4 -9 -6 3 -10 10 -10
16 0 14 7 11 14 -7z m36 -5 c0 -6 -4 -7 -10 -4 -5 3 -10 11 -10 16 0 6 5 7 10
4 6 -3 10 -11 10 -16z m140 -24 c22 -26 31 -62 15 -62 -7 0 -10 8 -7 19 3 12
-4 27 -17 39 -11 11 -21 27 -20 37 0 14 2 14 6 2 3 -8 13 -24 23 -35z m-412 6
c0 -17 -7 -36 -19 -47 -23 -21 -23 -17 -4 29 8 19 11 37 8 41 -4 3 -2 6 4 6 5
0 10 -13 11 -29z m-188 4 c0 -8 -4 -15 -10 -15 -5 0 -7 7 -4 15 4 8 8 15 10
15 2 0 4 -7 4 -15z m107 -7 c2 -17 0 -19 -7 -8 -5 8 -6 18 -4 22 8 12 10 10
11 -14z m-329 -8 c-7 -11 -15 -15 -17 -9 -2 6 3 15 10 20 20 12 21 11 7 -11z
m640 -23 c20 -27 20 -57 0 -57 -6 0 -8 7 -4 15 3 9 0 15 -9 15 -8 0 -15 6 -15
13 0 6 -3 23 -6 37 -7 27 -1 23 34 -23z m52 -20 c0 -13 -25 16 -33 38 -6 16
-3 15 13 -5 11 -14 20 -29 20 -33z m-544 18 c-9 -9 -16 -13 -16 -8 0 12 22 34
28 28 2 -2 -3 -11 -12 -20z m177 -15 c3 -11 1 -18 -4 -14 -5 3 -9 12 -9 20 0
20 7 17 13 -6z m-450 -4 c4 -10 1 -13 -8 -9 -8 3 -12 9 -9 14 7 12 11 11 17
-5z m377 -8 c1 -22 1 -23 15 -4 9 11 15 14 15 7 0 -7 -6 -19 -14 -27 -12 -11
-16 -11 -22 -2 -11 18 -12 48 -2 48 4 0 8 -10 8 -22z m121 -28 c1 -21 2 -22 6
-5 3 11 9 25 15 30 9 10 9 6 -8 -69 -5 -20 -3 -27 4 -22 6 4 9 13 5 21 -3 8
-1 15 5 15 5 0 12 -9 15 -20 3 -11 1 -20 -5 -20 -6 0 -7 -8 -3 -17 7 -16 11
-38 14 -67 1 -4 10 -6 21 -3 21 5 28 -7 10 -18 -6 -4 -18 -1 -27 7 -14 11 -15
10 -9 -12 4 -14 -2 -8 -14 14 -12 24 -16 43 -11 50 6 7 3 16 -6 25 -13 12 -14
11 -9 -6 4 -14 1 -23 -9 -27 -9 -3 -13 -11 -9 -17 4 -7 3 -9 -3 -6 -12 8 -16
114 -7 165 7 38 23 26 25 -18z m-421 4 c0 -8 -5 -12 -10 -9 -6 4 -8 11 -5 16
9 14 15 11 15 -7z m231 -11 c10 -11 10 -14 2 -9 -16 9 -17 -6 -1 -22 9 -9 9
-12 0 -12 -7 0 -12 5 -12 11 0 8 -6 7 -17 -2 -10 -7 -15 -9 -11 -5 4 5 2 16
-5 25 -11 14 -10 15 7 1 18 -14 19 -13 14 2 -4 9 -4 19 -1 22 9 8 9 8 24 -11z
m36 -5 c-3 -8 -6 -5 -6 6 -1 11 2 17 5 13 3 -3 4 -12 1 -19z m108 -20 c-1 -21
-8 -45 -15 -53 -6 -8 -9 -20 -5 -27 4 -7 -1 -4 -9 6 -19 23 -20 32 -6 41 6 4
7 -1 3 -11 -4 -12 -3 -15 5 -10 7 4 11 24 11 44 -1 23 -3 29 -6 15 -5 -25 -23
-32 -23 -9 0 28 12 45 30 43 15 -1 18 -8 15 -39z m515 17 c0 -14 4 -25 9 -25
5 0 9 -12 9 -26 0 -28 -5 -24 -34 29 -15 27 -12 47 7 47 5 0 9 -11 9 -25z
m-317 -16 c-9 -9 -12 -7 -10 9 1 14 5 18 11 12 7 -7 6 -14 -1 -21z m-688 10
c11 -16 1 -19 -13 -3 -7 8 -8 14 -3 14 5 0 13 -5 16 -11z m266 -48 c-17 -17
-20 -17 -26 -4 -3 9 -1 21 5 27 8 8 9 5 5 -9 -6 -19 -5 -19 12 1 10 12 19 18
21 14 2 -5 -6 -18 -17 -29z m-221 -6 c0 -5 -5 -3 -10 5 -5 8 -10 20 -10 25 0
6 5 3 10 -5 5 -8 10 -19 10 -25z m573 -7 c13 -31 14 -44 6 -52 -9 -8 -10 -7
-5 2 11 18 -4 38 -16 21 -6 -10 -7 -7 -3 10 5 15 3 21 -3 17 -6 -3 -9 5 -8 19
2 35 8 31 29 -17z m57 6 c-7 -8 -10 -31 -6 -56 5 -43 5 -43 -10 -15 -8 15 -12
31 -9 36 3 5 -1 11 -7 14 -9 3 -7 10 7 24 22 22 43 20 25 -3z m42 -3 c2 -17 1
-28 -4 -25 -14 9 -9 -9 9 -28 9 -10 11 -18 6 -18 -15 0 -30 21 -38 53 -5 18
-3 27 5 27 6 0 8 5 5 10 -3 6 -2 10 3 10 5 0 12 -13 14 -29z m-607 9 c3 -6 -1
-7 -9 -4 -18 7 -21 14 -7 14 6 0 13 -4 16 -10z m243 -15 c-3 -3 -9 2 -12 12
-6 14 -5 15 5 6 7 -7 10 -15 7 -18z m52 -9 c0 -3 -7 -6 -15 -6 -9 0 -15 9 -15
21 0 18 2 19 15 5 8 -8 15 -17 15 -20z m-239 7 c13 -16 12 -17 -3 -4 -10 7
-18 15 -18 17 0 8 8 3 21 -13z m131 3 c7 4 8 2 4 -5 -9 -13 -26 -5 -25 12 0 9
2 8 6 -1 2 -6 10 -9 15 -6z m751 -21 c-7 -21 -13 -19 -13 6 0 11 4 18 10 14 5
-3 7 -12 3 -20z m37 15 c0 -5 -2 -10 -4 -10 -3 0 -8 5 -11 10 -3 6 -1 10 4 10
6 0 11 -4 11 -10z m-1025 -31 c10 -30 0 -33 -13 -4 -6 14 -7 25 -2 25 5 0 12
-9 15 -21z m325 6 c14 -16 10 -18 -14 -9 -9 3 -16 10 -16 15 0 14 16 11 30 -6z
m113 -45 c-8 -9 -21 24 -15 39 5 12 8 10 12 -9 4 -14 5 -27 3 -30z m-484 17
c0 -9 -2 -8 -6 1 -2 6 -10 9 -15 6 -7 -4 -8 -2 -4 5 9 13 26 5 25 -12z m171
-21 c0 -26 -6 -18 -14 19 -5 22 -4 26 4 15 5 -8 10 -24 10 -34z m250 18 c0 -8
-5 -12 -10 -9 -6 4 -8 11 -5 16 9 14 15 11 15 -7z m-233 -41 c-3 -10 -5 -4 -5
12 0 17 2 24 5 18 2 -7 2 -21 0 -30z m-40 5 c-3 -8 -6 -5 -6 6 -1 11 2 17 5
13 3 -3 4 -12 1 -19z m263 1 c0 -6 -4 -7 -10 -4 -5 3 -10 11 -10 16 0 6 5 7
10 4 6 -3 10 -11 10 -16z m40 9 c0 -17 -18 -44 -24 -37 -8 7 5 49 15 49 5 0 9
-6 9 -12z m239 -10 c-9 -16 -14 -19 -17 -9 -2 7 2 17 9 22 20 13 21 11 8 -13z
m-393 -30 c-19 -27 -21 -19 -4 18 7 14 14 21 16 15 2 -6 -4 -21 -12 -33z m214
32 c0 -5 -4 -10 -10 -10 -5 0 -10 5 -10 10 0 6 5 10 10 10 6 0 10 -4 10 -10z
m567 -12 c-3 -8 -6 -5 -6 6 -1 11 2 17 5 13 3 -3 4 -12 1 -19z m-542 -6 c0 -9
-5 -23 -9 -31 -7 -11 -11 -10 -18 3 -6 10 -7 20 -4 23 3 4 6 1 6 -5 0 -7 4
-12 9 -12 5 0 7 9 4 20 -3 11 -1 20 4 20 5 0 9 -8 8 -18z m-309 -20 c-18 -16
-18 -16 -6 6 6 13 14 21 18 18 3 -4 -2 -14 -12 -24z m237 0 c-3 -12 -12 -22
-19 -22 -8 0 -14 -8 -14 -17 0 -14 2 -15 9 -5 6 10 10 9 14 -7 3 -14 0 -21 -9
-21 -8 0 -17 14 -21 31 -4 21 -8 27 -14 17 -6 -9 -8 -6 -6 10 1 14 5 18 11 12
16 -16 34 -11 41 11 9 27 16 20 8 -9z m124 -4 c-3 -8 -6 -5 -6 6 -1 11 2 17 5
13 3 -3 4 -12 1 -19z m-832 2 c3 -6 -1 -7 -9 -4 -18 7 -21 14 -7 14 6 0 13 -4
16 -10z m106 -13 c-10 -9 -11 -8 -5 6 3 10 9 15 12 12 3 -3 0 -11 -7 -18z
m304 13 c3 -5 1 -10 -4 -10 -6 0 -11 5 -11 10 0 6 2 10 4 10 3 0 8 -4 11 -10z
m481 -11 c19 -22 19 -22 -3 -10 -13 6 -23 16 -23 21 0 15 5 12 26 -11z m-302
-20 c2 -13 5 -30 5 -37 1 -7 5 -10 11 -7 6 3 7 -1 4 -10 -12 -31 -41 33 -35
79 2 15 10 1 15 -25z m-88 -4 c0 -14 -7 -27 -13 -30 -16 -5 -16 -3 -1 30 14
31 16 31 14 0z m374 -6 c0 -6 -4 -7 -10 -4 -5 3 -10 11 -10 16 0 6 5 7 10 4 6
-3 10 -11 10 -16z m-540 -9 c-28 -8 -35 -6 -26 8 3 6 16 7 29 4 22 -6 22 -6
-3 -12z m298 -5 c-3 -3 -9 2 -12 12 -6 14 -5 15 5 6 7 -7 10 -15 7 -18z m332
-7 c0 -10 14 -30 30 -45 30 -26 44 -57 15 -33 -10 9 -15 9 -15 1 0 -24 -19 -9
-25 19 -4 18 -11 27 -17 24 -6 -4 -8 -2 -5 4 9 14 -3 43 -14 36 -5 -3 -9 -10
-9 -15 0 -6 4 -8 9 -5 5 4 4 -4 -2 -17 -11 -24 -37 -33 -37 -13 0 6 -3 22 -6
36 -4 21 -3 21 9 -5 8 -18 16 -25 20 -18 4 6 3 15 -3 18 -16 10 7 34 31 32 11
-1 19 -9 19 -19z m-306 -4 c3 -8 2 -12 -4 -9 -6 3 -10 10 -10 16 0 14 7 11 14
-7z m-137 -9 c0 -8 -4 -15 -9 -15 -10 0 -11 14 -1 23 9 10 10 9 10 -8z m247 6
c3 -5 -1 -11 -9 -14 -9 -4 -12 -1 -8 9 6 16 10 17 17 5z m-196 -26 c1 -14 -2
-25 -7 -25 -4 0 -8 -14 -9 -30 -1 -27 1 -28 14 -15 20 20 30 19 14 0 -17 -20
-5 -32 15 -15 12 10 15 10 15 -3 0 -10 -8 -14 -26 -12 -21 2 -25 -1 -20 -18 3
-11 1 -16 -4 -11 -4 5 -10 18 -12 29 -2 11 -10 19 -16 17 -18 -3 -24 20 -13
49 8 20 10 21 10 5 1 -25 14 -13 17 17 1 12 3 25 3 30 2 18 17 4 19 -18z
m-205 -7 c7 -27 -7 -30 -19 -4 -8 17 -7 23 2 23 7 0 15 -9 17 -19z m49 -1 c-7
-8 -8 -18 -4 -22 4 -5 1 -5 -6 -1 -9 5 -9 12 -1 27 6 12 13 18 16 15 3 -3 1
-12 -5 -19z m46 -2 c-3 -3 -9 2 -12 12 -6 14 -5 15 5 6 7 -7 10 -15 7 -18z
m626 -1 c9 -22 -3 -32 -14 -14 -12 19 -12 30 -1 30 5 0 12 -7 15 -16z m-850
-24 c-6 -6 -10 -3 -10 10 0 13 4 16 10 10 7 -7 7 -13 0 -20z m376 15 c-10 -12
-10 -18 1 -32 12 -17 12 -17 -6 -1 -15 14 -16 20 -5 32 7 9 15 16 17 16 3 0 0
-7 -7 -15z m442 -14 c-10 -6 -9 -10 7 -14 14 -3 21 -13 21 -28 0 -12 8 -31 18
-42 16 -19 16 -20 -5 -15 -14 4 -23 2 -23 -5 -1 -7 -9 12 -19 42 -19 55 -18
102 3 81 8 -8 7 -13 -2 -19z m-346 10 c-7 -11 -46 -21 -46 -12 0 13 13 21 32
21 11 0 17 -4 14 -9z m54 -51 c0 -6 -5 -8 -10 -5 -6 4 -8 10 -5 15 3 4 -2 10
-10 14 -8 3 -15 13 -15 22 0 13 5 11 20 -9 11 -14 20 -30 20 -37z m-118 26 c3
-14 2 -30 -2 -36 -4 -7 -9 3 -12 24 -4 40 7 50 14 12z m320 -23 c12 -27 24
-51 26 -55 2 -5 -1 -8 -7 -8 -10 0 -51 79 -51 99 0 21 9 10 32 -36z m-252 12
c0 -8 5 -15 10 -15 15 0 12 -17 -4 -23 -10 -4 -13 -1 -10 8 4 9 0 12 -14 8
-11 -2 -23 0 -26 6 -4 6 1 8 13 6 14 -2 18 1 14 11 -3 8 0 14 6 14 6 0 11 -7
11 -15z m97 -15 c-1 -14 -5 -16 -13 -9 -7 6 -10 17 -7 25 7 19 22 8 20 -16z
m-440 -2 c-3 -8 -6 -5 -6 6 -1 11 2 17 5 13 3 -3 4 -12 1 -19z m76 -19 c-4
-12 0 -25 8 -31 12 -8 11 -9 -1 -5 -9 3 -24 -10 -37 -32 -14 -21 -23 -29 -23
-19 0 9 -3 25 -6 35 -5 15 -4 15 5 3 8 -11 11 -12 11 -2 0 7 4 11 10 7 15 -9
29 57 16 75 -9 13 -9 13 5 2 10 -8 15 -21 12 -33z m-431 9 c-7 -7 -12 -8 -12
-2 0 14 12 26 19 19 2 -3 -1 -11 -7 -17z m255 0 c-3 -8 -6 -5 -6 6 -1 11 2 17
5 13 3 -3 4 -12 1 -19z m241 -2 c-2 -1 -12 -8 -23 -16 -14 -10 -17 -10 -8 -1
6 7 9 21 5 30 -5 14 -4 14 11 2 10 -8 16 -14 15 -15z m-113 -5 c3 -5 1 -12 -5
-16 -5 -3 -10 1 -10 9 0 18 6 21 15 7z m353 -32 c2 -22 -1 -28 -10 -22 -18 11
-42 10 -50 -2 -4 -6 -8 -2 -8 9 0 13 5 16 16 12 11 -4 22 1 31 14 18 26 18 26
21 -11z m52 10 c7 -11 9 -23 7 -26 -3 -2 -8 5 -12 16 -3 12 -11 19 -16 16 -5
-4 -9 -1 -9 4 0 18 19 12 30 -10z m-261 -8 c8 -14 7 -20 -2 -24 -7 -3 -12 5
-12 19 0 29 1 29 14 5z m-265 -21 c-6 -6 -10 -3 -10 10 0 13 4 16 10 10 7 -7
7 -13 0 -20z m214 5 c-6 -14 -13 -23 -15 -21 -5 5 15 46 22 46 3 0 -1 -11 -7
-25z m-141 2 c0 -7 -9 -13 -19 -13 -18 0 -18 1 -2 13 10 7 18 13 19 13 1 0 2
-6 2 -13z m428 -7 c-7 -11 5 -40 15 -40 5 0 11 8 13 18 4 14 5 13 6 -4 0 -11
8 -29 16 -40 18 -24 19 -40 2 -25 -8 6 -16 8 -19 5 -3 -3 -5 3 -4 13 0 10 -4
17 -11 16 -6 -2 -15 6 -18 17 -5 17 -10 18 -27 9 -11 -6 -22 -8 -25 -6 -2 3 5
8 16 12 12 4 21 15 21 26 0 11 5 17 10 14 6 -4 8 -10 5 -15z m-145 -21 c0 -5
-4 -9 -10 -9 -5 0 -10 7 -10 16 0 8 5 12 10 9 6 -3 10 -10 10 -16z m225 -30
c4 -10 13 -19 21 -19 8 0 14 -5 14 -10 0 -7 -6 -7 -20 0 -11 6 -20 15 -20 21
0 6 -4 7 -10 4 -5 -3 -10 -2 -10 4 0 5 -3 18 -7 28 -6 16 -5 16 10 5 9 -8 19
-22 22 -33z m-515 21 c0 -5 -2 -10 -4 -10 -3 0 -8 5 -11 10 -3 6 -1 10 4 10 6
0 11 -4 11 -10z m169 -30 c0 -10 -3 -8 -9 5 -5 11 -9 14 -9 7 -1 -7 -5 -10
-11 -7 -6 4 -5 11 3 19 13 15 27 3 26 -24z m68 8 c-3 -8 -6 -5 -6 6 -1 11 2
17 5 13 3 -3 4 -12 1 -19z m118 1 c4 -12 2 -26 -3 -31 -8 -8 -9 -4 -5 11 4 15
1 21 -11 21 -10 0 -14 5 -11 10 10 16 23 11 30 -11z m-135 1 c0 -5 -2 -10 -4
-10 -3 0 -8 5 -11 10 -3 6 -1 10 4 10 6 0 11 -4 11 -10z m103 -49 c-6 -3 -13
-13 -16 -21 -4 -11 -6 -9 -6 6 -1 11 -4 24 -8 28 -4 3 -8 16 -10 27 -3 18 0
17 23 -7 16 -15 23 -29 17 -33z m-66 17 c-3 -8 -6 -5 -6 6 -1 11 2 17 5 13 3
-3 4 -12 1 -19z m-37 -33 c0 -12 -20 6 -31 28 l-11 22 21 -22 c11 -12 21 -25
21 -28z m180 30 c0 -8 -2 -15 -4 -15 -2 0 -6 7 -10 15 -3 8 -1 15 4 15 6 0 10
-7 10 -15z m40 -10 c14 -19 14 -19 -2 -6 -10 7 -18 18 -18 24 0 6 1 8 3 6 1
-2 9 -13 17 -24z m-552 -10 c-3 -3 -9 2 -12 12 -6 14 -5 15 5 6 7 -7 10 -15 7
-18z m222 0 c0 -8 -4 -15 -10 -15 -5 0 -10 7 -10 15 0 8 5 15 10 15 6 0 10 -7
10 -15z m-96 -30 c5 -22 4 -26 -4 -15 -5 8 -10 24 -10 34 0 26 6 18 14 -19z
m226 -10 c-7 -8 -17 -15 -22 -15 -5 0 -2 7 6 16 9 8 17 23 17 32 1 15 2 15 6
-1 3 -10 -1 -24 -7 -32z m185 35 c3 -5 1 -10 -4 -10 -6 0 -11 5 -11 10 0 6 2
10 4 10 3 0 8 -4 11 -10z m-372 -31 c4 -16 3 -18 -9 -8 -16 13 -19 29 -5 29 5
0 11 -9 14 -21z m48 -11 c11 -21 11 -22 -4 -9 -10 7 -17 17 -17 22 0 15 9 10
21 -13z m161 -10 c-8 -8 -9 -4 -5 13 4 13 8 18 11 10 2 -7 -1 -18 -6 -23z m70
24 c-7 -5 -10 -16 -7 -24 4 -10 -1 -17 -14 -21 -14 -3 -21 0 -21 10 0 8 4 12
9 9 5 -3 11 3 14 14 3 11 11 20 19 20 10 0 10 -2 0 -8z m58 -18 c0 -8 -4 -12
-10 -9 -5 3 -10 10 -10 16 0 5 5 9 10 9 6 0 10 -7 10 -16z m50 8 c0 -5 -7 -9
-15 -9 -8 0 -15 4 -15 9 0 4 7 8 15 8 8 0 15 -4 15 -8z m314 -18 c4 -9 4 -19
2 -21 -8 -8 -26 8 -26 23 0 19 16 18 24 -2z m-662 -39 c4 -16 5 -31 3 -33 -2
-2 -7 9 -11 24 -4 16 -12 33 -18 37 -7 6 -6 7 3 5 8 -3 18 -17 23 -33z m25 3
c-3 -8 -6 -5 -6 6 -1 11 2 17 5 13 3 -3 4 -12 1 -19z m133 15 c0 -5 -5 -15
-10 -23 -8 -12 -10 -11 -10 8 0 12 5 22 10 22 6 0 10 -3 10 -7z m-473 -35 c-3
-8 -6 -5 -6 6 -1 11 2 17 5 13 3 -3 4 -12 1 -19z m57 -28 c-6 -5 -24 21 -24
34 0 6 6 1 14 -10 8 -10 12 -21 10 -24z m317 7 c-13 -13 -31 0 -24 19 4 11 8
12 20 3 9 -8 10 -16 4 -22z m-411 -78 c0 -5 -4 -9 -10 -9 -5 0 -10 7 -10 16 0
8 5 12 10 9 6 -3 10 -10 10 -16z m-960 -515 c0 -14 4 -23 9 -20 5 3 8 -2 7
-11 0 -9 9 -22 22 -28 20 -11 21 -14 7 -25 -23 -19 -19 -82 5 -100 11 -8 20
-18 20 -21 0 -19 -105 -41 -164 -36 -67 7 -388 81 -414 96 -15 8 -13 11 10 20
14 5 102 28 195 51 195 47 269 67 283 75 5 3 6 13 3 22 -4 11 -3 14 5 9 7 -4
12 -18 12 -32z m180 -203 c0 -5 14 -14 32 -20 29 -10 30 -13 17 -27 -12 -11
-21 -12 -40 -4 -24 10 -24 10 4 5 36 -7 35 10 -3 24 -28 9 -42 31 -20 31 6 0
10 -4 10 -9z m123 -48 c18 -9 39 -16 47 -14 12 2 12 -1 -2 -15 -13 -14 -21
-15 -29 -7 -6 6 -19 9 -28 6 -14 -4 -14 -3 -1 6 16 11 15 13 -15 29 -32 18 -7
14 28 -5z m-43 -13 c0 -5 -2 -10 -4 -10 -2 0 -12 -3 -22 -7 -16 -6 -17 -5 -4
10 17 19 30 22 30 7z m125 -30 c-4 -7 3 -9 22 -5 l28 6 -30 -16 -30 -15 30 6
c17 4 39 6 50 6 11 -1 35 -2 54 -3 22 -1 30 -4 21 -9 -17 -10 52 -25 75 -17 8
4 20 1 27 -6 7 -7 24 -13 38 -14 56 -3 192 -36 179 -43 -7 -5 7 -11 37 -14 27
-3 67 -11 89 -17 22 -6 48 -11 58 -12 9 -1 17 -5 17 -9 0 -4 8 -8 18 -8 28 -1
122 -36 115 -44 -4 -3 8 -3 25 0 18 4 38 2 44 -3 13 -10 43 -18 128 -31 36 -6
44 -11 42 -26 -2 -13 0 -16 10 -10 15 10 78 12 72 3 -6 -11 67 -39 103 -39 49
0 39 -6 -21 -13 -32 -3 -44 -2 -35 4 9 7 0 8 -26 5 -31 -4 -34 -4 -15 3 17 6
20 9 8 10 -10 1 -18 6 -18 11 0 16 -50 11 -68 -7 -16 -16 -16 -16 3 -9 36 15
61 17 31 2 l-30 -14 45 -7 c24 -4 39 -10 33 -12 -9 -3 -128 26 -314 78 -19 6
-69 18 -110 28 -87 21 -267 69 -427 113 -62 17 -113 35 -113 40 0 5 -9 7 -20
3 -11 -3 -28 -2 -37 4 -16 9 -16 11 7 20 33 13 9 14 -26 1 -21 -8 -34 -7 -63
8 -20 10 -43 17 -51 14 -9 -2 -7 2 5 12 12 9 15 15 7 16 -15 0 -6 20 9 20 6 0
7 -5 4 -10z m-65 -15 c14 -8 21 -14 15 -14 -5 0 -21 6 -35 14 -14 8 -20 14
-15 14 6 0 21 -6 35 -14z m257 -21 c-3 -3 -12 -4 -19 -1 -8 3 -5 6 6 6 11 1
17 -2 13 -5z m1176 -211 c-7 -2 -19 -2 -25 0 -7 3 -2 5 12 5 14 0 19 -2 13 -5z
m-443 -89 c0 -2 -11 -4 -25 -4 -14 0 -25 4 -25 9 0 4 11 6 25 3 14 -2 25 -6
25 -8z m-20 -24 c8 -5 11 -10 5 -10 -5 0 -17 5 -25 10 -8 5 -10 10 -5 10 6 0
17 -5 25 -10z m284 1 c3 -4 -6 -6 -19 -3 -14 2 -25 6 -25 8 0 8 39 4 44 -5z
m513 -7 c-3 -3 -12 -4 -19 -1 -8 3 -5 6 6 6 11 1 17 -2 13 -5z m-304 -11 c-7
-2 -21 -2 -30 0 -10 3 -4 5 12 5 17 0 24 -2 18 -5z m614 1 c-3 -3 -12 -4 -19
-1 -8 3 -5 6 6 6 11 1 17 -2 13 -5z m-112 -14 c-3 -5 -2 -10 4 -10 5 0 13 5
16 10 3 6 14 10 23 9 14 0 13 -2 -3 -8 -14 -6 0 -10 50 -16 39 -4 64 -10 57
-12 -7 -3 -59 1 -115 8 -74 9 -95 14 -77 20 37 10 52 10 45 -1z m213 1 c10 -6
7 -10 -11 -13 -18 -4 -24 -1 -20 9 6 15 13 16 31 4z m-913 -20 l40 -8 -30 -7
c-50 -13 -52 -16 -7 -12 23 2 42 0 42 -4 0 -8 -87 -30 -118 -30 -16 1 -16 1 1
11 20 12 23 55 5 62 -7 2 -4 2 7 0 11 -3 38 -8 60 -12z m852 13 c-3 -3 -12 -4
-19 -1 -8 3 -5 6 6 6 11 1 17 -2 13 -5z m193 -4 c8 -5 11 -10 5 -10 -5 0 -17
5 -25 10 -8 5 -10 10 -5 10 6 0 17 -5 25 -10z m-717 -17 c-7 -2 -21 -2 -30 0
-10 3 -4 5 12 5 17 0 24 -2 18 -5z m117 -3 c0 -5 -10 -10 -22 -10 -19 0 -20 2
-8 10 19 13 30 13 30 0z m-125 -17 c27 -4 57 -13 65 -22 13 -13 13 -14 -5 -7
-11 5 -42 13 -70 18 -27 5 -57 14 -65 20 -12 7 -10 8 5 3 11 -4 42 -9 70 -12z
m165 -13 c-8 -5 -19 -10 -25 -10 -5 0 -3 5 5 10 8 5 20 10 25 10 6 0 3 -5 -5
-10z m87 4 c-3 -3 -12 -4 -19 -1 -8 3 -5 6 6 6 11 1 17 -2 13 -5z m-130 -30
c-3 -3 -12 -4 -19 -1 -8 3 -5 6 6 6 11 1 17 -2 13 -5z m76 -11 c-7 -2 -19 -2
-25 0 -7 3 -2 5 12 5 14 0 19 -2 13 -5z m57 -3 c-14 -4 -19 -8 -11 -9 8 -1 12
-3 9 -6 -3 -3 -13 -2 -22 1 -14 5 -15 9 -4 15 7 5 22 8 33 8 16 -1 16 -2 -5
-9z m304 2 c3 -5 -8 -6 -25 -4 -16 2 -29 6 -29 8 0 8 49 4 54 -4z m-247 -8
c-3 -3 -12 -4 -19 -1 -8 3 -5 6 6 6 11 1 17 -2 13 -5z m56 -1 c-7 -2 -21 -2
-30 0 -10 3 -4 5 12 5 17 0 24 -2 18 -5z m54 1 c-3 -3 -12 -4 -19 -1 -8 3 -5
6 6 6 11 1 17 -2 13 -5z m86 -11 c-7 -2 -19 -2 -25 0 -7 3 -2 5 12 5 14 0 19
-2 13 -5z m-120 -10 c-7 -2 -19 -2 -25 0 -7 3 -2 5 12 5 14 0 19 -2 13 -5z
m407 -3 c0 -5 -5 -10 -11 -10 -5 0 -7 5 -4 10 3 6 8 10 11 10 2 0 4 -4 4 -10z
m-693 -6 c-3 -3 -12 -4 -19 -1 -8 3 -5 6 6 6 11 1 17 -2 13 -5z m390 -10 c-3
-3 -12 -4 -19 -1 -8 3 -5 6 6 6 11 1 17 -2 13 -5z m551 -21 c-65 -2 -171 -2
-235 0 -65 1 -12 3 117 3 129 0 182 -2 118 -3z m-248 -1288 c0 -12 -16 -15
-80 -15 -64 0 -80 3 -80 15 0 12 16 15 80 15 64 0 80 -3 80 -15z"/>
<path d="M4298 6098 c-20 -20 -22 -28 -8 -28 9 0 35 39 28 44 -2 2 -11 -6 -20
-16z"/>
<path d="M4360 6110 c0 -5 5 -10 11 -10 5 0 7 5 4 10 -3 6 -8 10 -11 10 -2 0
-4 -4 -4 -10z"/>
<path d="M4280 5696 c0 -2 8 -10 18 -17 15 -13 16 -12 3 4 -13 16 -21 21 -21
13z"/>
<path d="M3882 5580 c0 -14 2 -19 5 -12 2 6 2 18 0 25 -3 6 -5 1 -5 -13z"/>
<path d="M3670 5270 c-8 -5 -12 -12 -9 -15 4 -3 12 1 19 10 14 17 11 19 -10 5z"/>
<path d="M2690 4020 l-25 -6 23 -13 c12 -6 28 -8 36 -4 22 13 -4 30 -34 23z"/>
<path d="M2768 3973 c7 -3 16 -2 19 1 4 3 -2 6 -13 5 -11 0 -14 -3 -6 -6z"/>
<path d="M2875 3960 c-3 -6 1 -7 9 -4 18 7 21 14 7 14 -6 0 -13 -4 -16 -10z"/>
<path d="M3378 3813 c6 -2 18 -2 25 0 6 3 1 5 -13 5 -14 0 -19 -2 -12 -5z"/>
<path d="M3510 3790 c-9 -6 -10 -10 -3 -10 6 0 15 5 18 10 8 12 4 12 -15 0z"/>
<path d="M3648 3783 c6 -2 18 -2 25 0 6 3 1 5 -13 5 -14 0 -19 -2 -12 -5z"/>
<path d="M4543 6283 c8 -50 49 -61 45 -13 -3 38 -15 39 -21 3 l-4 -28 -2 28
c0 15 -5 27 -11 27 -5 0 -9 -8 -7 -17z"/>
<path d="M4600 6296 c0 -2 6 -19 14 -37 8 -19 13 -56 11 -84 -1 -27 0 -42 2
-32 3 9 8 17 13 17 5 0 8 20 7 45 -1 25 -5 45 -9 45 -5 0 -8 11 -8 25 0 16 -6
25 -15 25 -8 0 -15 -2 -15 -4z"/>
<path d="M4679 6293 c-3 -21 4 -59 13 -70 5 -7 7 -21 3 -33 -4 -11 -2 -20 4
-20 6 0 11 4 11 10 0 5 7 7 15 4 11 -4 15 0 15 16 0 15 -4 20 -15 16 -8 -3
-14 -2 -13 2 3 14 -14 72 -23 77 -5 4 -9 3 -10 -2z"/>
<path d="M4750 6276 c0 -14 4 -27 8 -30 5 -3 6 8 4 25 -5 35 -12 38 -12 5z"/>
<path d="M4822 6280 c0 -14 2 -19 5 -12 2 6 2 18 0 25 -3 6 -5 1 -5 -13z"/>
<path d="M4857 6293 c-4 -7 -5 -24 -1 -38 4 -15 2 -25 -5 -25 -6 0 -11 5 -11
12 0 6 -3 8 -7 5 -3 -4 3 -16 15 -27 12 -12 22 -27 22 -35 0 -8 5 -15 11 -15
6 0 9 -7 5 -15 -3 -8 -1 -15 4 -15 15 0 12 23 -5 46 -8 10 -14 28 -15 39 0 17
2 17 10 5 9 -13 10 -13 9 0 0 28 -25 75 -32 63z"/>
<path d="M5150 6291 c0 -5 5 -13 10 -16 6 -3 10 -2 10 4 0 5 -4 13 -10 16 -5
3 -10 2 -10 -4z"/>
<path d="M5200 6283 c0 -13 5 -23 10 -23 13 0 13 11 0 30 -8 12 -10 11 -10 -7z"/>
<path d="M5281 6284 c0 -11 3 -14 6 -6 3 7 2 16 -1 19 -3 4 -6 -2 -5 -13z"/>
<path d="M5631 6290 c0 -8 4 -24 9 -35 5 -13 9 -14 9 -5 0 8 -4 24 -9 35 -5
13 -9 14 -9 5z"/>
<path d="M5011 6274 c0 -11 3 -14 6 -6 3 7 2 16 -1 19 -3 4 -6 -2 -5 -13z"/>
<path d="M5054 6277 c3 -10 6 -29 6 -42 0 -12 7 -25 15 -29 10 -4 15 1 15 15
0 11 -4 17 -10 14 -5 -3 -10 2 -10 12 0 10 -5 25 -11 33 -9 12 -10 12 -5 -3z"/>
<path d="M4780 6266 c0 -8 5 -18 10 -21 6 -3 10 3 10 14 0 12 -4 21 -10 21 -5
0 -10 -6 -10 -14z"/>
<path d="M5030 6260 c0 -5 5 -10 11 -10 5 0 7 5 4 10 -3 6 -8 10 -11 10 -2 0
-4 -4 -4 -10z"/>
<path d="M5330 6260 c0 -5 5 -10 10 -10 6 0 10 5 10 10 0 6 -4 10 -10 10 -5 0
-10 -4 -10 -10z"/>
<path d="M4972 6240 c7 -10 14 -18 15 -16 6 6 -9 36 -18 36 -5 0 -4 -9 3 -20z"/>
<path d="M4911 6234 c0 -11 3 -14 6 -6 3 7 2 16 -1 19 -3 4 -6 -2 -5 -13z"/>
<path d="M4595 6230 c-9 -15 -13 -160 -4 -166 8 -5 11 22 10 86 0 29 3 57 9
60 5 3 5 12 1 19 -7 10 -10 10 -16 1z"/>
<path d="M4930 6230 c0 -7 -7 -21 -16 -31 -9 -10 -11 -20 -6 -23 11 -7 38 51
28 61 -3 3 -6 0 -6 -7z"/>
<path d="M5208 6233 c6 -2 12 -11 12 -19 0 -8 7 -14 15 -14 13 0 13 3 3 20 -7
11 -20 20 -28 19 -10 0 -11 -2 -2 -6z"/>
<path d="M5660 6222 c0 -13 7 -30 15 -38 19 -19 19 -15 0 27 -12 29 -14 31
-15 11z"/>
<path d="M4795 6219 c-4 -6 -5 -12 -2 -15 2 -3 7 2 10 11 7 17 1 20 -8 4z"/>
<path d="M5020 6221 c0 -6 4 -13 10 -16 6 -3 7 1 4 9 -7 18 -14 21 -14 7z"/>
<path d="M5190 6200 c0 -5 5 -10 10 -10 6 0 10 -7 10 -17 0 -9 3 -14 6 -10 8
8 -5 47 -17 47 -5 0 -9 -4 -9 -10z"/>
<path d="M4823 6150 c9 -49 26 -68 28 -32 0 10 3 12 6 5 2 -7 11 -13 19 -13 8
0 11 -6 8 -15 -5 -11 -2 -13 10 -9 17 7 22 -11 6 -21 -16 -10 -12 -22 11 -28
15 -4 19 -2 15 10 -3 8 -6 23 -6 33 0 10 -13 31 -30 47 -16 15 -30 34 -30 40
0 7 -5 13 -11 13 -6 0 -8 -9 -4 -20 4 -11 2 -20 -4 -20 -6 0 -11 11 -11 24 0
14 -4 27 -8 30 -5 3 -5 -17 1 -44z"/>
<path d="M4660 6180 c0 -5 5 -10 10 -10 6 0 10 5 10 10 0 6 -4 10 -10 10 -5 0
-10 -4 -10 -10z"/>
<path d="M4755 6180 c3 -5 8 -10 11 -10 2 0 4 5 4 10 0 6 -5 10 -11 10 -5 0
-7 -4 -4 -10z"/>
<path d="M4792 6160 c0 -14 2 -19 5 -12 2 6 2 18 0 25 -3 6 -5 1 -5 -13z"/>
<path d="M5183 6156 c0 -14 3 -26 8 -26 4 0 11 -9 14 -21 4 -11 9 -19 11 -16
5 5 -16 69 -26 80 -4 5 -7 -3 -7 -17z"/>
<path d="M4720 6161 c0 -5 5 -13 10 -16 6 -3 10 -2 10 4 0 5 -4 13 -10 16 -5
3 -10 2 -10 -4z"/>
<path d="M5070 6151 c0 -5 7 -11 15 -15 8 -3 15 -1 15 3 0 5 -7 11 -15 15 -8
3 -15 1 -15 -3z"/>
<path d="M4645 6128 c1 -13 3 -29 4 -35 0 -7 6 -13 11 -13 6 0 8 11 4 28 -9
35 -22 50 -19 20z"/>
<path d="M4750 6145 c0 -5 5 -17 10 -25 5 -8 10 -10 10 -5 0 6 -5 17 -10 25
-5 8 -10 11 -10 5z"/>
<path d="M4696 6123 c-4 -9 -2 -21 4 -27 7 -7 10 -2 10 17 0 31 -5 34 -14 10z"/>
<path d="M4986 6125 c-3 -8 -1 -15 4 -15 6 0 10 7 10 15 0 8 -2 15 -4 15 -2 0
-6 -7 -10 -15z"/>
<path d="M5125 6129 c-11 -17 1 -21 15 -4 8 9 8 15 2 15 -6 0 -14 -5 -17 -11z"/>
<path d="M4785 6110 c-3 -5 -1 -10 4 -10 6 0 11 5 11 10 0 6 -2 10 -4 10 -3 0
-8 -4 -11 -10z"/>
<path d="M4731 6093 c-18 -19 -9 -26 14 -9 10 7 14 15 9 18 -5 3 -15 -1 -23
-9z"/>
<path d="M4790 6080 c0 -5 10 -15 23 -21 22 -12 22 -12 3 10 -21 23 -26 26
-26 11z"/>
<path d="M4840 6073 c0 -13 5 -23 10 -23 13 0 13 11 0 30 -8 12 -10 11 -10 -7z"/>
<path d="M4950 6080 c0 -5 5 -10 11 -10 5 0 7 5 4 10 -3 6 -8 10 -11 10 -2 0
-4 -4 -4 -10z"/>
<path d="M4990 6059 c0 -17 4 -28 10 -24 6 3 10 17 10 31 0 13 -4 24 -10 24
-5 0 -10 -14 -10 -31z"/>
<path d="M5077 6077 c-3 -8 -2 -20 3 -26 5 -9 8 -4 8 13 0 29 -3 32 -11 13z"/>
<path d="M4610 6070 c0 -5 5 -10 10 -10 6 0 10 5 10 10 0 6 -4 10 -10 10 -5 0
-10 -4 -10 -10z"/>
<path d="M4772 6060 c0 -14 2 -19 5 -12 2 6 2 18 0 25 -3 6 -5 1 -5 -13z"/>
<path d="M5190 6076 c0 -2 8 -10 18 -17 15 -13 16 -12 3 4 -13 16 -21 21 -21
13z"/>
<path d="M4662 6039 c6 -16 12 -28 14 -26 5 5 -13 57 -20 57 -3 0 0 -14 6 -31z"/>
<path d="M4745 6057 c-4 -10 -5 -21 -1 -24 10 -10 18 4 13 24 -4 17 -4 17 -12
0z"/>
<path d="M5031 6037 c16 -31 18 -32 16 -8 -1 11 -7 23 -14 26 -11 4 -11 0 -2
-18z"/>
<path d="M5130 6039 c0 -5 5 -7 10 -4 6 3 10 8 10 11 0 2 -4 4 -10 4 -5 0 -10
-5 -10 -11z"/>
<path d="M4850 6019 c0 -14 4 -29 9 -34 5 -6 12 -19 15 -30 3 -11 3 0 0 25 -6
50 -24 80 -24 39z"/>
<path d="M5160 6018 c0 -14 7 -31 15 -38 13 -11 13 -8 3 21 -15 44 -18 48 -18
17z"/>
<path d="M4572 6015 c-2 -27 13 -51 22 -36 4 6 3 11 -3 11 -5 0 -12 10 -14 23
-4 19 -4 19 -5 2z"/>
<path d="M4600 6020 c0 -5 5 -10 10 -10 6 0 10 5 10 10 0 6 -4 10 -10 10 -5 0
-10 -4 -10 -10z"/>
<path d="M4765 6020 c-3 -5 -1 -10 4 -10 6 0 11 5 11 10 0 6 -2 10 -4 10 -3 0
-8 -4 -11 -10z"/>
<path d="M4827 6023 c-4 -3 -7 -11 -7 -17 0 -6 5 -5 12 2 6 6 9 14 7 17 -3 3
-9 2 -12 -2z"/>
<path d="M4967 6023 c-4 -3 -7 -11 -7 -17 0 -6 5 -5 12 2 6 6 9 14 7 17 -3 3
-9 2 -12 -2z"/>
<path d="M5138 5997 c-3 -19 -2 -25 4 -19 6 6 8 18 6 28 -3 14 -5 12 -10 -9z"/>
<path d="M4542 5988 c-14 -14 -16 -42 -3 -34 7 5 23 46 17 46 -1 0 -7 -5 -14
-12z"/>
<path d="M4610 5990 c0 -5 5 -10 10 -10 6 0 10 5 10 10 0 6 -4 10 -10 10 -5 0
-10 -4 -10 -10z"/>
<path d="M4790 5984 c0 -8 5 -12 10 -9 6 3 10 10 10 16 0 5 -4 9 -10 9 -5 0
-10 -7 -10 -16z"/>
<path d="M5090 5984 c0 -8 5 -12 10 -9 6 3 10 10 10 16 0 5 -4 9 -10 9 -5 0
-10 -7 -10 -16z"/>
<path d="M5471 5984 c0 -11 3 -14 6 -6 3 7 2 16 -1 19 -3 4 -6 -2 -5 -13z"/>
<path d="M4758 5983 c6 -2 12 -11 12 -20 0 -15 28 -48 35 -41 7 7 -37 68 -48
67 -8 0 -8 -2 1 -6z"/>
<path d="M5027 5983 c-4 -3 -7 -24 -7 -46 0 -51 13 -40 16 13 2 42 1 44 -9 33z"/>
<path d="M4730 5965 c7 -9 15 -13 17 -11 7 7 -7 26 -19 26 -6 0 -6 -6 2 -15z"/>
<path d="M4557 5950 c-3 -11 -1 -23 4 -26 5 -3 9 6 9 20 0 31 -6 34 -13 6z"/>
<path d="M4658 5945 c-2 -42 -3 -49 -10 -60 -3 -5 -2 -19 2 -29 4 -14 9 -16
14 -8 4 7 5 16 2 20 -3 5 0 25 6 46 9 27 9 39 0 48 -9 9 -12 5 -14 -17z"/>
<path d="M4584 5946 c-8 -22 -2 -27 16 -16 12 7 12 12 3 21 -10 10 -14 9 -19
-5z"/>
<path d="M4900 5938 c0 -12 1 -19 3 -17 1 2 9 12 16 22 12 14 11 17 -3 17 -10
0 -16 -8 -16 -22z"/>
<path d="M5210 5938 c0 -19 2 -20 10 -8 13 19 13 30 0 30 -5 0 -10 -10 -10
-22z"/>
<path d="M5080 5921 c4 -16 6 -32 3 -34 -2 -3 0 -8 6 -12 10 -5 10 14 2 68 0
4 -5 7 -10 7 -6 0 -6 -12 -1 -29z"/>
<path d="M4510 5919 c0 -11 5 -17 10 -14 6 3 10 13 10 21 0 8 -4 14 -10 14 -5
0 -10 -9 -10 -21z"/>
<path d="M4691 5924 c0 -11 3 -14 6 -6 3 7 2 16 -1 19 -3 4 -6 -2 -5 -13z"/>
<path d="M5181 5924 c0 -11 3 -14 6 -6 3 7 2 16 -1 19 -3 4 -6 -2 -5 -13z"/>
<path d="M4711 5914 c0 -11 3 -14 6 -6 3 7 2 16 -1 19 -3 4 -6 -2 -5 -13z"/>
<path d="M4820 5922 c0 -7 -6 -12 -14 -12 -11 0 -11 -9 -3 -45 6 -25 14 -45
18 -45 5 0 7 -6 5 -12 -3 -7 -7 -26 -10 -43 -6 -29 -6 -29 10 -10 16 20 16 19
11 -5 -4 -14 -2 -32 4 -40 8 -11 9 -9 4 9 -5 15 -3 21 3 17 7 -4 8 9 5 36 -4
29 -3 39 5 34 7 -4 12 -1 12 9 0 11 -5 15 -15 11 -8 -3 -15 -1 -15 4 0 5 -7
15 -15 24 -12 11 -13 21 -5 42 6 15 8 29 5 32 -3 3 -5 0 -5 -6z"/>
<path d="M4866 5914 c-17 -12 -17 -14 -4 -14 9 0 20 5 23 11 11 17 2 18 -19 3z"/>
<path d="M5690 5910 c0 -5 5 -10 11 -10 5 0 7 5 4 10 -3 6 -8 10 -11 10 -2 0
-4 -4 -4 -10z"/>
<path d="M4737 5881 c-15 -29 -10 -56 8 -43 8 6 15 72 8 72 -1 0 -8 -13 -16
-29z"/>
<path d="M4895 5899 c-4 -6 -3 -15 3 -21 6 -6 11 -4 15 6 7 18 -9 31 -18 15z"/>
<path d="M4487 5881 c-4 -17 -3 -21 5 -13 5 5 8 16 6 23 -3 8 -7 3 -11 -10z"/>
<path d="M4620 5868 c0 -9 5 -20 10 -23 13 -8 13 5 0 25 -8 13 -10 13 -10 -2z"/>
<path d="M4770 5869 c0 -5 5 -7 10 -4 6 3 10 8 10 11 0 2 -4 4 -10 4 -5 0 -10
-5 -10 -11z"/>
<path d="M4847 5874 c-3 -3 -3 -12 0 -20 4 -11 7 -11 19 1 8 7 14 16 14 19 0
8 -25 8 -33 0z"/>
<path d="M5016 5872 c-3 -5 -1 -22 4 -38 8 -29 8 -29 9 9 1 36 -3 45 -13 29z"/>
<path d="M4683 5840 c0 -23 3 -26 14 -15 7 8 13 18 13 23 0 6 -6 12 -13 15 -9
3 -14 -4 -14 -23z"/>
<path d="M5405 5860 c3 -5 8 -10 11 -10 2 0 4 5 4 10 0 6 -5 10 -11 10 -5 0
-7 -4 -4 -10z"/>
<path d="M4930 5850 c0 -5 5 -10 11 -10 5 0 7 5 4 10 -3 6 -8 10 -11 10 -2 0
-4 -4 -4 -10z"/>
<path d="M5092 5823 c0 -24 1 -43 2 -43 8 0 12 48 6 66 -5 13 -8 5 -8 -23z"/>
<path d="M4880 5826 c6 -17 6 -26 0 -26 -13 0 -13 -47 0 -55 6 -3 10 1 10 9 0
9 6 16 13 16 9 0 8 3 -2 9 -11 7 -11 9 0 14 11 4 12 7 1 15 -7 5 -12 15 -10
22 2 7 -3 15 -10 17 -9 4 -10 -1 -2 -21z"/>
<path d="M5700 5819 c0 -11 5 -17 10 -14 6 3 10 13 10 21 0 8 -4 14 -10 14 -5
0 -10 -9 -10 -21z"/>
<path d="M4526 5823 c6 -4 14 -15 17 -23 5 -11 6 -9 4 4 -1 11 -9 21 -17 23
-10 3 -11 2 -4 -4z"/>
<path d="M4601 5814 c0 -11 3 -14 6 -6 3 7 2 16 -1 19 -3 4 -6 -2 -5 -13z"/>
<path d="M5236 5803 c9 -38 14 -42 14 -10 0 14 -5 29 -10 32 -7 4 -8 -3 -4
-22z"/>
<path d="M4479 5818 c0 -2 -2 -17 -3 -33 -2 -17 -7 -41 -10 -53 -5 -13 -3 -22
3 -22 6 0 11 3 12 8 4 34 6 102 3 102 -2 0 -4 -1 -5 -2z"/>
<path d="M4640 5803 c0 -10 4 -14 8 -8 4 6 11 13 16 18 5 4 2 7 -7 7 -10 0
-17 -8 -17 -17z"/>
<path d="M4710 5791 c-13 -25 -13 -28 3 -34 7 -3 13 6 14 24 3 34 -2 37 -17
10z"/>
<path d="M4760 5769 c0 -18 4 -28 10 -24 6 4 8 15 5 25 -4 12 0 20 12 23 14 4
13 5 -4 6 -19 1 -23 -4 -23 -30z"/>
<path d="M4447 5760 c-3 -11 -1 -23 4 -26 5 -3 9 6 9 20 0 31 -6 34 -13 6z"/>
<path d="M4562 5755 c0 -16 2 -22 5 -12 2 9 2 23 0 30 -3 6 -5 -1 -5 -18z"/>
<path d="M4741 5764 c0 -11 3 -14 6 -6 3 7 2 16 -1 19 -3 4 -6 -2 -5 -13z"/>
<path d="M5161 5763 c1 -10 5 -31 9 -48 6 -25 7 -23 7 18 -1 26 -5 47 -9 47
-4 0 -7 -8 -7 -17z"/>
<path d="M5213 5761 c1 -14 9 -26 17 -28 10 -3 11 -2 4 4 -7 4 -14 17 -17 28
-5 16 -5 15 -4 -4z"/>
<path d="M5680 5765 c0 -8 4 -15 10 -15 5 0 7 7 4 15 -4 8 -8 15 -10 15 -2 0
-4 -7 -4 -15z"/>
<path d="M4519 5758 c-1 -7 -2 -28 -4 -47 -2 -18 -8 -37 -14 -40 -8 -6 -7 -18
4 -44 8 -20 16 -37 18 -37 1 0 1 19 1 43 -1 24 2 65 6 90 4 26 3 47 -2 47 -4
0 -8 -6 -9 -12z"/>
<path d="M4640 5742 c0 -11 27 -42 37 -42 3 0 -2 10 -13 23 -10 12 -20 24 -21
26 -2 2 -3 -1 -3 -7z"/>
<path d="M5032 5730 c0 -14 2 -19 5 -12 2 6 2 18 0 25 -3 6 -5 1 -5 -13z"/>
<path d="M5350 5735 c0 -8 2 -15 4 -15 2 0 6 7 10 15 3 8 1 15 -4 15 -6 0 -10
-7 -10 -15z"/>
<path d="M4777 5720 c-13 -16 -14 -20 -3 -20 8 0 17 7 20 16 9 25 2 26 -17 4z"/>
<path d="M5086 5727 c3 -10 9 -15 12 -12 3 3 0 11 -7 18 -10 9 -11 8 -5 -6z"/>
<path d="M4887 5717 c-3 -8 1 -21 9 -27 15 -13 17 -6 5 24 -6 17 -8 17 -14 3z"/>
<path d="M4540 5710 c0 -5 7 -7 15 -4 8 4 15 8 15 10 0 2 -7 4 -15 4 -8 0 -15
-4 -15 -10z"/>
<path d="M4552 5688 c-14 -14 -16 -38 -3 -38 5 0 8 8 7 18 0 9 5 16 12 15 6
-2 12 2 12 7 0 14 -13 13 -28 -2z"/>
<path d="M4867 5670 c-3 -11 -1 -18 4 -14 5 3 9 -5 9 -17 0 -18 3 -20 12 -11
8 8 8 15 -3 28 -8 9 -12 19 -11 21 2 3 2 7 -1 9 -2 3 -7 -4 -10 -16z"/>
<path d="M4800 5676 c0 -2 7 -9 15 -16 12 -10 15 -10 15 4 0 9 -7 16 -15 16
-8 0 -15 -2 -15 -4z"/>
<path d="M5167 5663 c-9 -9 -9 -41 1 -46 4 -3 7 8 7 24 0 16 0 29 -1 29 0 0
-4 -3 -7 -7z"/>
<path d="M4665 5650 c-3 -5 -1 -10 4 -10 6 0 11 5 11 10 0 6 -2 10 -4 10 -3 0
-8 -4 -11 -10z"/>
<path d="M4771 5634 c0 -11 3 -14 6 -6 3 7 2 16 -1 19 -3 4 -6 -2 -5 -13z"/>
<path d="M4551 5624 c0 -11 3 -14 6 -6 3 7 2 16 -1 19 -3 4 -6 -2 -5 -13z"/>
<path d="M4790 5632 c0 -7 4 -12 9 -12 5 0 17 -7 25 -16 15 -14 16 -13 16 6 0
15 -5 20 -14 17 -7 -3 -19 0 -25 6 -8 8 -11 8 -11 -1z"/>
<path d="M4581 5618 c-1 -10 -5 -18 -11 -18 -5 0 -10 -7 -10 -15 0 -8 3 -14 8
-14 20 3 31 -2 26 -15 -3 -8 -1 -17 4 -20 11 -7 7 40 -7 74 -7 18 -10 20 -10
8z"/>
<path d="M4715 5617 c-7 -16 -20 -17 -45 -3 -8 4 -4 -2 9 -13 l24 -21 14 20
c8 12 12 24 9 27 -3 3 -8 -1 -11 -10z"/>
<path d="M5021 5594 c0 -11 3 -14 6 -6 3 7 2 16 -1 19 -3 4 -6 -2 -5 -13z"/>
<path d="M4637 5583 c-11 -10 -8 -20 6 -26 8 -3 13 3 13 14 0 19 -8 24 -19 12z"/>
<path d="M4715 5580 c-16 -26 -13 -36 11 -36 15 0 20 4 15 11 -5 5 -10 17 -13
25 -4 12 -5 12 -13 0z"/>
<path d="M4856 5574 c-8 -21 -8 -24 5 -24 5 0 8 4 5 9 -4 5 -1 11 6 13 8 3 9
6 1 11 -6 4 -14 0 -17 -9z"/>
<path d="M4935 5579 c-4 -6 -5 -12 -2 -15 2 -3 7 2 10 11 7 17 1 20 -8 4z"/>
<path d="M4497 5573 c-8 -14 -19 -68 -13 -62 8 8 26 69 21 69 -2 0 -6 -3 -8
-7z"/>
<path d="M4670 5560 c0 -11 5 -20 10 -20 6 0 10 9 10 20 0 11 -4 20 -10 20 -5
0 -10 -9 -10 -20z"/>
<path d="M4766 5547 c1 -18 -4 -41 -11 -52 -10 -17 -10 -23 1 -33 12 -11 14
-7 14 20 l0 33 20 -25 c11 -14 23 -38 27 -55 5 -25 7 -26 13 -10 4 12 0 26
-12 39 -10 11 -21 29 -24 40 -4 12 -11 24 -17 28 -7 4 -7 11 1 21 10 12 10 16
-1 20 -10 4 -13 -3 -11 -26z"/>
<path d="M4541 5559 c1 -8 4 -25 8 -39 l7 -25 6 27 c3 17 0 32 -8 39 -11 9
-14 8 -13 -2z"/>
<path d="M4977 5563 c-4 -3 -7 -20 -6 -37 l1 -31 9 34 c10 33 8 47 -4 34z"/>
<path d="M5012 5540 c0 -14 2 -19 5 -12 2 6 2 18 0 25 -3 6 -5 1 -5 -13z"/>
<path d="M4646 5515 c-11 -8 -15 -15 -9 -15 6 0 16 7 23 15 16 19 11 19 -14 0z"/>
<path d="M4710 5520 c0 -5 5 -10 11 -10 5 0 7 5 4 10 -3 6 -8 10 -11 10 -2 0
-4 -4 -4 -10z"/>
<path d="M4574 5502 c3 -6 -2 -15 -11 -21 -10 -6 -16 -11 -13 -11 35 -8 40 -7
40 10 0 10 -5 22 -12 26 -6 4 -8 3 -4 -4z"/>
<path d="M4668 5493 c-3 -13 -2 -26 4 -29 14 -9 16 -2 8 26 -6 25 -6 25 -12 3z"/>
<path d="M4850 5490 c0 -11 4 -20 10 -20 5 0 6 7 3 17 -5 12 -3 14 7 8 9 -5
11 -4 6 3 -11 19 -26 14 -26 -8z"/>
<path d="M4480 5490 c0 -5 5 -10 11 -10 5 0 7 5 4 10 -3 6 -8 10 -11 10 -2 0
-4 -4 -4 -10z"/>
<path d="M4520 5483 c0 -10 4 -24 9 -31 5 -9 8 -3 7 17 -1 32 -16 45 -16 14z"/>
<path d="M4620 5469 c0 -11 5 -17 10 -14 6 3 10 13 10 21 0 8 -4 14 -10 14 -5
0 -10 -9 -10 -21z"/>
<path d="M4962 5460 c-6 -10 -8 -21 -3 -24 5 -3 11 4 14 16 8 29 4 32 -11 8z"/>
<path d="M4490 5462 c0 -5 6 -17 14 -27 13 -18 14 -18 9 8 -5 24 -23 39 -23
19z"/>
<path d="M4650 5440 c0 -5 5 -10 10 -10 6 0 10 5 10 10 0 6 -4 10 -10 10 -5 0
-10 -4 -10 -10z"/>
<path d="M4860 5440 c0 -5 5 -10 11 -10 5 0 7 5 4 10 -3 6 -8 10 -11 10 -2 0
-4 -4 -4 -10z"/>
<path d="M4908 5422 c-3 -11 0 -19 7 -19 7 0 10 8 7 19 -2 10 -6 18 -7 18 -1
0 -5 -8 -7 -18z"/>
<path d="M4660 5404 c0 -8 5 -12 10 -9 6 4 8 11 5 16 -9 14 -15 11 -15 -7z"/>
<path d="M4841 5405 c1 -19 18 -51 18 -35 0 8 -4 22 -9 30 -5 8 -9 11 -9 5z"/>
<path d="M4120 5391 c0 -5 7 -15 17 -22 15 -13 15 -12 4 9 -12 23 -21 28 -21
13z"/>
<path d="M4581 5382 c14 -22 41 -25 37 -4 -2 8 -13 17 -26 18 -19 3 -21 1 -11
-14z"/>
<path d="M5392 5375 c0 -16 2 -22 5 -12 2 9 2 23 0 30 -3 6 -5 -1 -5 -18z"/>
<path d="M3940 5368 c0 -10 5 -18 10 -18 6 0 9 -3 9 -7 -5 -29 3 -53 17 -53
13 0 14 3 5 14 -10 11 -8 15 6 19 17 4 17 5 1 6 -10 0 -18 5 -18 9 0 5 -7 17
-15 28 -13 17 -14 17 -15 2z"/>
<path d="M4253 5361 c-1 -11 4 -24 10 -30 9 -7 12 -3 11 17 -1 30 -19 41 -21
13z"/>
<path d="M4647 5360 c-8 -11 -17 -17 -21 -13 -4 4 -4 0 0 -10 6 -16 8 -16 25
4 18 21 25 39 15 39 -3 0 -11 -9 -19 -20z"/>
<path d="M5038 5355 c2 -14 6 -25 8 -25 2 0 4 11 4 25 0 14 -4 25 -9 25 -4 0
-6 -11 -3 -25z"/>
<path d="M4560 5346 c14 -18 13 -19 -2 -13 -10 4 -18 2 -18 -4 0 -6 -7 -8 -17
-5 -16 6 -16 6 0 -12 19 -21 22 -48 7 -57 -17 -10 -11 -21 11 -21 15 0 19 5
15 21 -5 19 -4 19 9 2 7 -11 16 -14 19 -8 4 5 2 12 -4 16 -15 9 -12 28 3 19 7
-4 9 -3 4 2 -5 5 -13 10 -18 10 -5 1 -13 2 -19 3 -16 2 -12 21 4 21 23 0 27
16 8 31 -16 13 -16 13 -2 -5z"/>
<path d="M4767 5339 c-8 -28 -3 -34 11 -16 6 7 7 19 3 26 -6 9 -10 6 -14 -10z"/>
<path d="M4830 5330 c0 -11 4 -20 9 -20 5 0 7 9 4 20 -3 11 -7 20 -9 20 -2 0
-4 -9 -4 -20z"/>
<path d="M4720 5310 c6 -11 13 -20 16 -20 2 0 0 9 -6 20 -6 11 -13 20 -16 20
-2 0 0 -9 6 -20z"/>
<path d="M4260 5298 c0 -9 5 -20 10 -23 13 -8 13 5 0 25 -8 13 -10 13 -10 -2z"/>
<path d="M4971 5294 c0 -11 3 -14 6 -6 3 7 2 16 -1 19 -3 4 -6 -2 -5 -13z"/>
<path d="M4300 5278 c1 -13 -2 -38 -6 -57 -4 -23 -3 -32 4 -27 6 3 12 3 15 -1
5 -10 1 5 -8 32 l-7 20 18 -20 17 -20 -7 20 c-6 20 -6 20 9 1 22 -29 18 -3 -6
38 -25 42 -29 44 -29 14z"/>
<path d="M4680 5280 c0 -5 5 -10 11 -10 5 0 7 5 4 10 -3 6 -8 10 -11 10 -2 0
-4 -4 -4 -10z"/>
<path d="M4356 5263 c-4 -9 -3 -19 1 -22 11 -8 13 -42 2 -35 -5 3 -9 1 -9 -5
0 -5 4 -12 9 -15 14 -9 51 -85 51 -104 0 -12 -2 -14 -8 -4 -7 10 -13 8 -26 -7
-11 -12 -14 -21 -7 -26 6 -3 11 -2 11 3 0 5 7 9 15 9 9 0 15 -10 15 -24 0 -16
5 -23 13 -20 6 2 11 13 10 23 -2 10 -5 31 -7 47 -4 33 7 35 21 5 20 -41 23
-58 10 -58 -8 0 -7 -4 3 -9 18 -12 35 -2 21 12 -6 6 -11 18 -11 27 -1 8 -9 33
-19 54 -11 22 -16 46 -13 55 3 9 1 12 -6 7 -6 -3 -16 3 -22 14 -10 19 -7 24
13 21 5 -1 6 3 2 9 -3 6 -10 8 -15 5 -5 -3 -16 8 -25 25 -18 35 -21 36 -29 13z
m74 -134 c0 -22 -17 -5 -32 34 -25 60 -22 69 7 18 14 -23 25 -47 25 -52z"/>
<path d="M4633 5264 c-3 -8 -1 -20 5 -26 7 -7 10 -2 9 16 -2 30 -5 32 -14 10z"/>
<path d="M4960 5260 c-13 -8 -12 -10 3 -10 9 0 17 5 17 10 0 12 -1 12 -20 0z"/>
<path d="M4870 5247 c0 -16 24 -17 37 -1 4 5 4 6 -1 2 -5 -4 -15 -3 -23 3 -10
9 -13 8 -13 -4z"/>
<path d="M5160 5244 c0 -10 5 -26 10 -34 8 -11 9 -7 4 15 -8 37 -14 45 -14 19z"/>
<path d="M4014 5234 c1 -9 7 -19 12 -22 5 -4 22 -22 37 -40 34 -42 36 -31 2
13 -13 18 -22 34 -20 37 2 2 -4 9 -14 15 -16 10 -19 9 -17 -3z"/>
<path d="M4491 5242 c-1 -7 -5 -10 -11 -7 -6 3 -7 -1 -4 -9 3 -9 10 -16 14
-16 5 0 11 -8 13 -17 4 -15 5 -15 5 2 1 22 -16 68 -17 47z"/>
<path d="M5101 5234 c0 -11 3 -14 6 -6 3 7 2 16 -1 19 -3 4 -6 -2 -5 -13z"/>
<path d="M4271 5224 c0 -11 3 -14 6 -6 3 7 2 16 -1 19 -3 4 -6 -2 -5 -13z"/>
<path d="M4725 5229 c-4 -6 -5 -12 -2 -15 2 -3 7 2 10 11 7 17 1 20 -8 4z"/>
<path d="M4791 5224 c0 -11 3 -14 6 -6 3 7 2 16 -1 19 -3 4 -6 -2 -5 -13z"/>
<path d="M4436 5205 c-3 -9 0 -15 9 -15 16 0 20 16 6 24 -5 3 -11 -1 -15 -9z"/>
<path d="M4590 5209 c0 -5 5 -7 10 -4 6 3 10 8 10 11 0 2 -4 4 -10 4 -5 0 -10
-5 -10 -11z"/>
<path d="M4880 5211 c0 -6 5 -13 10 -16 6 -3 10 1 10 9 0 9 -4 16 -10 16 -5 0
-10 -4 -10 -9z"/>
<path d="M4330 5185 c0 -8 5 -15 10 -15 6 0 10 -4 10 -9 0 -12 -43 -1 -52 13
-5 6 -8 7 -8 1 1 -12 36 -55 45 -55 4 0 2 7 -5 15 -7 8 -8 15 -3 15 11 0 43
-37 37 -42 -2 -3 2 -5 10 -5 11 0 9 11 -10 49 -25 50 -34 58 -34 33z"/>
<path d="M4760 5186 c0 -2 9 -13 19 -25 19 -22 20 -22 18 -3 0 12 -9 23 -19
25 -10 3 -18 4 -18 3z"/>
<path d="M5150 5178 c0 -9 5 -20 10 -23 13 -8 13 5 0 25 -8 13 -10 13 -10 -2z"/>
<path d="M4621 5175 c1 -19 18 -51 18 -35 0 8 -4 22 -9 30 -5 8 -9 11 -9 5z"/>
<path d="M4881 5164 c0 -11 3 -14 6 -6 3 7 2 16 -1 19 -3 4 -6 -2 -5 -13z"/>
<path d="M4756 5135 c-9 -26 -7 -32 5 -12 6 10 9 21 6 23 -2 3 -7 -2 -11 -11z"/>
<path d="M4470 5131 c0 -5 7 -15 17 -22 15 -13 15 -12 4 9 -12 23 -21 28 -21
13z"/>
<path d="M4677 5120 c3 -11 7 -20 9 -20 2 0 4 9 4 20 0 11 -4 20 -9 20 -5 0
-7 -9 -4 -20z"/>
<path d="M4510 5125 c0 -15 21 -35 37 -35 7 0 12 10 12 23 -1 16 -2 18 -6 5
-2 -10 -8 -18 -13 -18 -5 0 -14 8 -19 18 -6 9 -11 12 -11 7z"/>
<path d="M4581 5114 c0 -11 3 -14 6 -6 3 7 2 16 -1 19 -3 4 -6 -2 -5 -13z"/>
<path d="M4616 5085 c8 -50 14 -58 14 -19 0 16 -5 36 -11 44 -7 11 -8 4 -3
-25z"/>
<path d="M4166 5097 c3 -10 9 -15 12 -12 3 3 0 11 -7 18 -10 9 -11 8 -5 -6z"/>
<path d="M4221 5094 c0 -11 3 -14 6 -6 3 7 2 16 -1 19 -3 4 -6 -2 -5 -13z"/>
<path d="M4318 5099 c-3 -9 0 -29 7 -45 30 -69 35 -78 32 -64 -1 8 3 15 8 15
6 0 9 -6 9 -13 -1 -7 1 -11 4 -7 3 3 14 -9 24 -27 9 -18 17 -26 17 -18 -1 25
-25 85 -35 85 -24 1 -47 25 -53 56 -5 23 -9 29 -13 18z"/>
<path d="M4285 5073 c3 -24 0 -35 -13 -42 -12 -7 -13 -10 -3 -11 8 0 27 -13
42 -30 16 -16 29 -24 29 -17 0 7 -5 18 -11 24 -6 6 -12 17 -13 24 -1 8 -10 30
-19 49 l-17 35 5 -32z"/>
<path d="M4477 5082 c3 -11 11 -23 19 -26 19 -7 18 1 -5 26 l-20 20 6 -20z"/>
<path d="M4641 5084 c0 -11 3 -14 6 -6 3 7 2 16 -1 19 -3 4 -6 -2 -5 -13z"/>
<path d="M4038 5070 c-5 -16 11 -60 22 -60 12 0 19 39 9 46 -5 3 -9 -1 -10 -8
-1 -7 -4 -2 -8 12 -5 18 -9 21 -13 10z"/>
<path d="M4762 5072 c-9 -6 -10 -16 -4 -32 9 -24 9 -23 14 8 2 18 4 32 4 32
-1 0 -7 -4 -14 -8z"/>
<path d="M4910 5060 c0 -17 2 -19 14 -8 14 13 12 28 -5 28 -5 0 -9 -9 -9 -20z"/>
<path d="M4567 5056 c-3 -8 0 -17 7 -19 10 -4 12 1 9 14 -6 23 -9 24 -16 5z"/>
<path d="M4650 5024 c0 -45 13 -73 25 -54 4 7 3 15 -2 19 -5 3 -10 19 -11 35
-3 45 -12 45 -12 0z"/>
<path d="M4270 4989 c7 -11 14 -19 16 -16 7 7 -7 37 -17 37 -6 0 -5 -9 1 -21z"/>
<path d="M4436 4983 c4 -16 11 -33 16 -40 6 -7 4 -13 -4 -15 -7 -3 -4 -7 8
-10 19 -5 19 -4 5 43 -16 51 -36 69 -25 22z"/>
<path d="M4483 4994 c-17 -18 -16 -24 3 -24 10 0 14 -6 10 -15 -3 -8 -1 -15 4
-15 11 0 11 14 2 46 -6 18 -9 20 -19 8z"/>
<path d="M4566 4995 c-3 -8 -1 -15 4 -15 6 0 10 7 10 15 0 8 -2 15 -4 15 -2 0
-6 -7 -10 -15z"/>
<path d="M5046 4955 c13 -56 23 -73 19 -31 -2 21 -9 44 -15 50 -8 8 -10 3 -4
-19z"/>
<path d="M4561 4954 c0 -11 3 -14 6 -6 3 7 2 16 -1 19 -3 4 -6 -2 -5 -13z"/>
<path d="M4660 4940 c0 -5 5 -10 11 -10 5 0 7 5 4 10 -3 6 -8 10 -11 10 -2 0
-4 -4 -4 -10z"/>
<path d="M4736 4933 c-6 -14 -5 -15 5 -6 7 7 10 15 7 18 -3 3 -9 -2 -12 -12z"/>
<path d="M5491 4938 c0 -9 -4 -25 -7 -35 -5 -17 -5 -17 6 0 6 10 9 25 7 35 -4
15 -5 15 -6 0z"/>
<path d="M4517 4910 c6 -22 23 -38 23 -21 0 17 -12 41 -20 41 -5 0 -6 -9 -3
-20z"/>
<path d="M4595 4897 c-9 -32 -5 -40 11 -23 6 6 8 21 4 31 -7 18 -8 17 -15 -8z"/>
<path d="M4695 4879 c-4 -12 0 -26 11 -36 13 -13 16 -14 12 -3 -3 8 -1 22 3
32 6 11 4 18 -6 21 -8 4 -16 -2 -20 -14z"/>
<path d="M4737 4835 c-4 -8 -2 -17 3 -20 6 -4 10 3 10 14 0 25 -6 27 -13 6z"/>
<path d="M5190 4839 c0 -8 5 -21 10 -29 8 -12 9 -10 7 7 -4 26 -17 43 -17 22z"/>
<path d="M4951 4804 c0 -11 3 -14 6 -6 3 7 2 16 -1 19 -3 4 -6 -2 -5 -13z"/>
<path d="M5101 4810 c0 -8 4 -24 9 -35 5 -13 9 -14 9 -5 0 8 -4 24 -9 35 -5
13 -9 14 -9 5z"/>
<path d="M5851 4734 c0 -11 3 -14 6 -6 3 7 2 16 -1 19 -3 4 -6 -2 -5 -13z"/>
<path d="M5816 4687 c3 -10 9 -15 12 -12 3 3 0 11 -7 18 -10 9 -11 8 -5 -6z"/>
<path d="M2574 4191 c4 -6 15 -11 25 -11 9 0 21 -4 27 -9 5 -5 27 -12 49 -15
22 -3 31 -3 20 1 -10 3 -28 11 -40 18 -28 18 -89 30 -81 16z"/>
<path d="M2716 4133 c-6 -14 -5 -15 5 -6 7 7 10 15 7 18 -3 3 -9 -2 -12 -12z"/>
<path d="M3268 4003 c7 -3 16 -2 19 1 4 3 -2 6 -13 5 -11 0 -14 -3 -6 -6z"/>
<path d="M3308 3993 c7 -3 16 -2 19 1 4 3 -2 6 -13 5 -11 0 -14 -3 -6 -6z"/>
<path d="M3408 3973 c7 -3 16 -2 19 1 4 3 -2 6 -13 5 -11 0 -14 -3 -6 -6z"/>
<path d="M3688 3873 c7 -3 16 -2 19 1 4 3 -2 6 -13 5 -11 0 -14 -3 -6 -6z"/>
<path d="M3678 3853 c12 -2 30 -2 40 0 9 3 -1 5 -23 4 -22 0 -30 -2 -17 -4z"/>
<path d="M3888 3803 c6 -2 18 -2 25 0 6 3 1 5 -13 5 -14 0 -19 -2 -12 -5z"/>
<path d="M3938 3783 c7 -3 16 -2 19 1 4 3 -2 6 -13 5 -11 0 -14 -3 -6 -6z"/>
<path d="M6270 3780 c-8 -5 -10 -10 -5 -10 6 0 17 5 25 10 8 5 11 10 5 10 -5
0 -17 -5 -25 -10z"/>
<path d="M6480 3765 c-14 -8 -20 -14 -15 -14 6 0 21 6 35 14 14 8 21 14 15 14
-5 0 -21 -6 -35 -14z"/>
<path d="M4100 3746 c19 -8 42 -15 50 -15 26 -1 -10 16 -50 23 l-35 6 35 -14z"/>
<path d="M4240 3720 c25 -8 87 -13 79 -6 -2 2 -26 6 -54 9 -34 4 -42 3 -25 -3z"/>
<path d="M5039 3647 c5 -5 26 -7 47 -5 l39 3 -47 5 c-26 3 -43 1 -39 -3z"/>
<path d="M4965 3625 c23 -8 83 -10 79 -3 -3 4 -24 8 -47 7 -23 0 -37 -2 -32
-4z"/>
<path d="M5133 3623 c15 -2 37 -2 50 0 12 2 0 4 -28 4 -27 0 -38 -2 -22 -4z"/>
<path d="M5498 3533 c7 -3 16 -2 19 1 4 3 -2 6 -13 5 -11 0 -14 -3 -6 -6z"/>
<path d="M5440 3520 c0 -5 5 -10 10 -10 6 0 10 5 10 10 0 6 -4 10 -10 10 -5 0
-10 -4 -10 -10z"/>
<path d="M4088 3503 c7 -3 16 -2 19 1 4 3 -2 6 -13 5 -11 0 -14 -3 -6 -6z"/>
<path d="M4753 3443 c9 -2 25 -2 35 0 9 3 1 5 -18 5 -19 0 -27 -2 -17 -5z"/>
</g>
</svg>
