<?xml version="1.0" standalone="no"?>
<!DOCTYPE svg PUBLIC "-//W3C//DTD SVG 20010904//EN"
 "http://www.w3.org/TR/2001/REC-SVG-20010904/DTD/svg10.dtd">
<svg version="1.0" xmlns="http://www.w3.org/2000/svg"
 width="600.000000pt" height="600.000000pt" viewBox="0 0 600.000000 600.000000"
 preserveAspectRatio="xMidYMid meet">

<g transform="translate(0.000000,600.000000) scale(0.100000,-0.100000)"
fill="#000000" stroke="none">
<path d="M3263 5240 l2 -45 39 0 c74 0 48 -21 -41 -34 -49 -7 -117 -20 -153
-30 -57 -15 -65 -20 -68 -43 l-3 -25 88 18 c48 10 95 18 103 18 21 -1 -119
-38 -150 -40 -16 -1 -19 -3 -8 -6 9 -2 53 3 98 11 45 9 86 13 91 10 5 -3 9
-27 9 -55 0 -44 2 -49 23 -50 l22 0 -22 -11 c-19 -9 -23 -20 -25 -76 -3 -64
-3 -65 -38 -79 l-35 -13 34 5 c32 5 61 -7 61 -26 0 -5 -12 -9 -27 -9 -15 0
-61 -7 -103 -15 -41 -9 -127 -24 -190 -35 -278 -47 -438 -97 -424 -134 3 -8 0
-17 -7 -22 -9 -5 -10 -2 -6 9 9 24 -3 21 -37 -8 -52 -45 -74 -28 -35 27 26 36
20 44 -19 24 -57 -29 -94 -86 -141 -213 -43 -117 -45 -133 -22 -133 10 0 22 8
26 18 6 15 8 15 25 -5 10 -13 25 -23 33 -23 7 0 19 10 25 23 7 12 11 15 11 7
-4 -48 11 -54 29 -12 10 24 11 25 5 2 -9 -40 -9 -42 3 -47 6 -2 17 14 24 36 7
22 16 38 21 36 4 -3 5 5 1 17 -4 15 -2 19 7 13 10 -6 11 -2 6 15 -5 15 -4 20
4 16 12 -8 13 -6 17 41 3 47 60 125 110 150 10 6 42 14 69 17 60 8 284 52 340
66 86 22 273 59 333 66 60 6 62 6 62 -17 0 -16 -3 -20 -11 -12 -7 7 -36 2 -97
-17 -48 -15 -114 -32 -147 -38 -206 -40 -371 -74 -375 -79 -3 -3 9 -3 25 1 30
6 349 61 413 72 l32 5 0 -547 c0 -301 2 -545 4 -543 3 2 6 61 7 131 2 106 5
125 17 116 15 -13 13 -79 -3 -90 -6 -5 -5 -8 3 -8 9 0 12 -131 12 -623 0 -586
5 -777 19 -777 11 0 16 296 26 1490 3 437 8 801 10 808 7 20 -23 45 -45 39
-11 -3 -20 -1 -20 4 0 5 16 9 35 9 28 0 37 -6 49 -28 17 -33 16 32 16 -1087
-1 -948 -7 -1169 -35 -1212 -9 -14 -14 -27 -11 -31 3 -3 6 1 6 8 0 7 3 11 6 8
7 -7 -16 -88 -30 -107 -6 -7 -15 -23 -21 -35 -6 -11 -21 -22 -33 -24 -12 -2
-22 -7 -22 -12 0 -16 61 -42 104 -46 23 -2 57 -6 76 -9 22 -4 57 1 95 13 50
17 55 20 29 21 -37 1 -84 35 -84 60 0 9 -5 22 -10 27 -6 6 -12 35 -14 65 -3
30 -10 74 -16 99 -11 46 -27 559 -17 550 3 -3 7 -25 8 -48 2 -23 6 -42 10 -42
4 0 5 19 2 42 -4 29 -3 39 5 34 8 -5 12 1 12 18 0 13 -6 27 -12 30 -10 5 -10
7 0 12 6 3 12 15 12 27 0 18 -2 19 -10 7 -8 -12 -10 -9 -10 13 0 15 5 27 11
27 6 0 10 10 9 23 -4 42 0 140 5 135 3 -2 8 -27 11 -54 3 -27 7 -50 8 -52 6
-5 16 679 17 1136 1 265 5 482 9 482 21 0 37 -365 27 -615 -12 -318 -19 -1765
-8 -1765 15 0 20 61 26 330 12 545 17 698 25 770 5 41 7 212 4 380 -2 168 -1
368 3 445 l8 140 6 -155 c4 -85 8 -258 9 -385 2 -160 5 -212 10 -170 4 33 8
236 9 452 1 215 5 394 9 397 4 2 8 -32 8 -77 -1 -171 16 -1092 20 -1096 2 -2
4 360 4 805 0 617 -3 813 -12 822 -7 7 -26 12 -42 12 l-31 0 4 132 c4 123 5
129 13 73 5 -33 7 -90 5 -127 -3 -52 0 -68 10 -68 10 0 13 32 13 151 0 82 3
148 8 146 4 -3 7 -69 7 -146 0 -106 3 -141 13 -141 9 0 12 38 12 155 0 85 -1
155 -3 155 -1 0 -18 -5 -37 -11 -19 -6 -80 -10 -134 -10 -83 0 -101 -2 -112
-17 -9 -13 -10 -20 -1 -31 9 -11 7 -13 -8 -9 -15 2 -20 11 -18 35 1 30 0 31
-47 35 l-49 3 2 -45z m267 -9 c0 -17 -18 -21 -24 -6 -3 9 0 15 9 15 8 0 15 -4
15 -9z m-4 -58 c-10 -10 -19 5 -10 18 6 11 8 11 12 0 2 -7 1 -15 -2 -18z m6
-141 c3 -66 1 -72 -17 -72 -19 0 -20 6 -17 87 2 49 9 94 15 102 13 16 14 10
19 -117z m-127 62 c-1 -16 4 -32 10 -37 6 -5 4 -12 -8 -21 -10 -8 -17 -18 -16
-22 5 -30 -3 -54 -18 -54 -13 0 -18 9 -19 33 -1 46 -13 89 -24 82 -5 -3 -11
-1 -14 4 -8 13 18 21 35 10 8 -5 21 -9 29 -9 11 0 11 3 2 12 -18 18 -15 37 6
34 12 -2 17 -12 17 -32z m-2 -171 c-7 -2 -21 -2 -30 0 -10 3 -4 5 12 5 17 0
24 -2 18 -5z m-2 -25 c0 -7 2 -21 4 -30 2 -13 -3 -18 -21 -18 -21 0 -24 4 -22
30 2 21 7 30 20 30 10 0 18 -6 19 -12z m236 -90 c-3 -8 -6 -5 -6 6 -1 11 2 17
5 13 3 -3 4 -12 1 -19z m-224 -173 c-3 -9 -8 -14 -10 -11 -3 3 -2 9 2 15 9 16
15 13 8 -4z m60 -2582 c-7 -2 -19 -2 -25 0 -7 3 -2 5 12 5 14 0 19 -2 13 -5z"/>
<path d="M2977 5123 c-13 -12 -7 -60 8 -73 9 -7 17 -11 19 -9 5 5 9 38 7 67
-1 21 -20 30 -34 15z"/>
<path d="M5456 4891 c-3 -5 -17 -6 -31 -3 -27 5 -33 -9 -12 -26 15 -13 64 -4
71 13 5 15 -20 29 -28 16z"/>
<path d="M5276 4824 c-4 -10 -13 -13 -26 -9 -11 3 -25 3 -32 -1 -7 -5 -29 -10
-50 -11 -31 -3 -37 -1 -32 12 5 11 2 14 -10 9 -24 -9 -19 -41 7 -50 12 -4 39
-7 60 -7 20 1 37 -2 37 -5 0 -4 16 -7 35 -7 37 0 47 10 18 19 -10 2 -4 4 12 3
23 -2 29 -6 27 -21 -2 -11 1 -17 10 -14 7 3 14 16 16 31 4 29 -25 51 -52 41
-12 -5 -15 -2 -10 10 3 9 4 16 1 16 -3 0 -8 -7 -11 -16z"/>
<path d="M5412 4787 c3 -7 14 -16 26 -22 12 -5 22 -13 22 -17 0 -5 10 -8 23
-8 33 0 67 -11 67 -21 0 -5 -7 -9 -16 -9 -29 0 -8 -25 24 -28 37 -4 42 -17 10
-25 -12 -4 -20 -8 -18 -10 10 -9 80 -15 75 -7 -3 4 4 6 15 3 29 -8 25 -23 -6
-23 -17 0 -28 -6 -31 -20 -4 -16 -9 -18 -24 -9 -11 5 -25 7 -31 3 -8 -5 -9 -2
-5 9 7 18 -8 24 -18 7 -11 -17 -28 -11 -23 8 4 15 1 18 -18 14 -13 -2 -24 -9
-24 -16 0 -6 -7 -2 -15 8 -12 16 -18 17 -27 8 -9 -9 -8 -12 8 -12 19 -1 19 -1
0 -15 -20 -15 -41 -11 -31 6 4 5 3 14 -1 20 -4 7 -11 2 -18 -13 -6 -12 -18
-23 -25 -23 -18 0 -22 -43 -4 -49 7 -3 13 1 13 10 0 14 2 14 15 0 34 -34 1
-52 -52 -27 -33 15 -44 31 -21 31 22 0 -2 13 -29 16 -16 1 -39 4 -53 6 -14 2
-24 -2 -23 -7 1 -6 -12 -12 -28 -13 -19 -2 -28 2 -24 8 3 5 1 10 -5 10 -6 0
-9 4 -6 9 4 5 -17 8 -49 6 -30 -1 -55 1 -55 6 0 6 -9 5 -21 -1 -17 -10 -21 -8
-26 8 -2 11 -16 25 -29 31 -39 17 -101 25 -108 12 -8 -12 22 -21 76 -24 28 -2
34 -5 26 -14 -6 -7 -18 -13 -27 -13 -9 0 -27 -7 -39 -16 -21 -14 -22 -14 -22
10 0 22 -5 26 -27 26 -26 -1 -27 -2 -10 -15 18 -13 17 -14 -12 -30 -34 -17
-33 -35 2 -35 19 -1 20 -2 5 -10 -9 -6 -27 -9 -39 -8 -13 2 -24 -1 -25 -7 0
-5 -6 -23 -12 -38 -16 -39 -16 -41 18 -77 17 -18 30 -40 30 -50 0 -10 7 -20
15 -24 8 -3 15 -10 15 -16 0 -18 -16 -10 -30 15 -7 14 -15 23 -17 21 -2 -2
-17 9 -33 25 -31 32 -57 37 -66 14 -4 -8 -10 -15 -16 -15 -5 0 -6 5 -3 10 3 6
-4 10 -17 10 l-23 0 23 -18 24 -18 -24 -17 c-19 -13 -20 -18 -9 -26 8 -5 20
-7 28 -4 7 3 13 1 13 -5 0 -14 -26 -22 -73 -22 -32 0 -38 -3 -29 -12 7 -7 12
-27 12 -46 0 -31 -2 -33 -30 -28 -17 2 -28 1 -25 -4 3 -5 -3 -10 -12 -13 -14
-3 -11 -7 12 -16 20 -8 25 -15 17 -20 -7 -4 -10 -15 -6 -24 3 -9 2 -17 -4 -17
-5 0 -10 -21 -10 -46 -1 -41 1 -46 18 -41 11 3 20 1 20 -4 0 -4 6 -6 14 -3 15
6 56 -40 56 -64 0 -27 73 -82 110 -82 11 0 20 -7 20 -15 0 -8 7 -15 15 -15 9
0 12 -6 9 -15 -4 -8 -1 -15 4 -15 6 0 23 -5 39 -11 15 -7 36 -13 46 -14 15 -1
46 -31 47 -46 0 -3 14 -4 30 -3 17 1 32 -2 35 -6 3 -5 19 -5 36 0 16 5 36 7
43 4 6 -2 29 2 49 11 23 9 37 11 37 5 0 -6 -21 -48 -47 -93 -79 -139 -175
-338 -208 -432 -32 -90 -32 -90 -103 -139 -40 -27 -70 -52 -67 -55 3 -2 32 14
65 37 32 23 61 42 64 42 2 0 -2 -21 -10 -47 -8 -25 -14 -49 -14 -54 0 -14 33
-19 48 -7 13 11 14 10 8 -10 -11 -33 8 -27 29 11 19 34 92 103 101 95 10 -10
13 -48 3 -48 -5 0 -9 -6 -9 -12 1 -7 12 1 26 17 16 18 24 23 20 12 -3 -11 -4
-23 -1 -28 10 -15 45 14 45 37 0 12 11 38 25 58 14 20 25 51 25 67 0 25 57
126 66 116 1 -1 4 -69 7 -151 3 -81 9 -151 13 -155 4 -3 4 27 1 68 -7 88 2 83
33 -19 12 -41 29 -88 38 -105 8 -16 17 -48 18 -69 4 -43 24 -64 37 -41 12 22
-3 119 -16 106 -6 -6 -14 -11 -18 -11 -11 0 -39 78 -65 184 -30 126 -34 301
-8 342 11 17 14 28 7 35 -12 12 5 109 18 109 12 0 11 -43 -1 -76 -7 -18 -7
-30 0 -39 5 -6 8 -14 6 -16 -13 -14 38 -339 51 -325 2 2 -5 51 -16 108 -22
109 -29 286 -13 348 8 33 9 30 15 -37 7 -69 53 -303 63 -312 7 -7 5 5 -22 127
-25 112 -36 293 -20 310 9 8 55 -47 60 -73 3 -11 16 -76 30 -145 14 -69 31
-144 38 -167 11 -39 10 -44 -16 -83 -34 -52 -29 -63 7 -13 l26 37 9 -25 c5
-13 17 -49 28 -79 10 -30 22 -61 27 -68 5 -7 9 -39 8 -72 0 -33 3 -60 9 -60 5
0 7 7 4 15 -4 8 -1 15 5 15 6 0 11 -8 11 -17 1 -10 10 -34 21 -53 11 -19 17
-26 13 -15 -45 126 -47 138 -33 161 21 34 33 29 40 -13 6 -34 6 -35 7 -8 2 36
-7 75 -17 75 -4 0 -14 -11 -21 -25 -7 -13 -16 -22 -20 -20 -4 2 -10 44 -14 92
-3 48 -13 116 -20 150 -13 59 -7 150 7 113 5 -14 48 -198 62 -269 7 -30 9 -32
18 -16 7 14 7 20 -1 23 -7 2 -12 13 -12 24 0 10 -11 65 -25 120 -14 55 -24
102 -22 105 5 5 33 -38 70 -109 15 -29 21 -51 16 -60 -12 -18 -11 -31 0 -23 6
3 15 -3 21 -12 8 -15 9 -12 4 12 -4 24 3 16 37 -35 23 -36 55 -90 71 -120 16
-30 41 -66 56 -80 26 -25 26 -25 7 -1 -17 21 -18 24 -3 18 10 -3 20 -2 23 3 3
4 1 10 -4 12 -9 3 -77 111 -100 158 -11 22 -9 22 14 -5 68 -77 162 -168 187
-181 40 -21 35 -11 -12 21 -22 15 -59 57 -83 94 -66 100 -64 102 12 22 39 -41
71 -70 71 -64 0 6 -7 16 -15 23 -17 14 -77 110 -69 110 3 0 30 -21 60 -46 30
-26 57 -45 59 -42 3 2 -15 20 -40 38 -25 19 -45 37 -45 41 0 4 -19 17 -43 28
-23 11 -60 39 -82 61 -21 22 -44 40 -50 40 -5 0 -19 21 -29 47 -23 56 -34 41
-13 -20 14 -41 13 -42 -8 -43 -18 -1 -21 3 -17 21 2 12 -1 26 -7 29 -6 4 -11
12 -11 17 0 6 5 7 10 4 9 -6 15 29 11 63 -3 22 6 13 57 -55 74 -100 138 -155
91 -78 -11 17 -19 24 -19 16 0 -14 -48 43 -110 131 -38 55 -34 75 6 32 30 -33
11 -2 -22 36 -12 14 -30 44 -39 67 -10 24 -21 41 -26 38 -12 -8 -89 110 -95
147 l-6 33 22 -32 c12 -18 24 -33 27 -33 5 0 -34 65 -60 101 l-18 24 7 -25 c4
-14 9 -32 11 -40 3 -9 -2 -7 -12 5 -10 13 -14 30 -11 48 3 15 -6 71 -19 125
l-26 96 23 18 c25 19 54 23 63 9 6 -10 77 -7 141 5 22 5 44 7 51 6 6 -2 14 2
18 8 3 5 17 10 31 10 13 0 43 15 67 33 61 47 147 135 147 151 0 7 6 19 13 25
22 17 21 111 0 127 -17 13 -17 13 0 14 30 0 18 20 -13 20 -16 0 -41 5 -55 12
-19 8 -31 8 -50 0 -21 -10 -27 -9 -31 3 -4 8 -15 15 -25 15 -16 0 -18 5 -14
31 5 25 3 30 -9 26 -10 -4 -19 4 -28 24 -7 16 -16 29 -20 29 -9 0 -47 39 -72
74 -10 14 -25 26 -32 26 -8 0 -14 4 -14 10 0 12 -55 41 -64 33 -3 -3 -14 1
-23 9 -23 20 -126 33 -121 15z m214 -204 c-10 -10 -19 5 -10 18 6 11 8 11 12
0 2 -7 1 -15 -2 -18z m-637 -14 c4 -12 2 -12 -13 0 -16 13 -17 12 -10 -15 4
-16 14 -39 22 -51 8 -13 10 -23 4 -23 -6 0 -12 6 -15 13 -3 9 -12 8 -35 -5
-39 -23 -48 -23 -55 4 -9 31 -1 38 33 28 18 -5 30 -5 30 1 0 5 -5 9 -11 9 -5
0 -7 5 -4 10 6 10 -6 14 -37 11 -11 -1 -18 4 -18 14 0 11 6 14 24 9 14 -3 33
-1 43 5 22 13 35 10 42 -10z m136 11 c3 -5 2 -10 -4 -10 -5 0 -13 5 -16 10 -3
6 -2 10 4 10 5 0 13 -4 16 -10z m326 -29 c-6 -4 -9 -15 -5 -24 5 -14 0 -17
-22 -16 l-29 1 25 8 c17 5 19 8 8 9 -19 1 -25 21 -7 21 8 0 8 4 0 14 -17 20 9
27 28 8 11 -10 11 -16 2 -21z m209 25 c0 -2 -8 -10 -17 -17 -16 -13 -17 -12
-4 4 13 16 21 21 21 13z m-640 -20 c0 -2 -7 -7 -16 -10 -8 -3 -12 -2 -9 4 6
10 25 14 25 6z m102 -18 c-4 -4 -21 -3 -37 1 -30 9 -30 9 7 8 20 -1 34 -5 30
-9z m-292 -85 c0 -20 -18 -16 -30 7 -15 28 -1 49 17 25 7 -11 13 -25 13 -32z
m237 41 c-3 -3 -12 -4 -19 -1 -8 3 -5 6 6 6 11 1 17 -2 13 -5z m-127 -74 c0
-5 -4 -10 -10 -10 -5 0 -10 5 -10 10 0 6 5 10 10 10 6 0 10 -4 10 -10z m65
-10 c3 -5 1 -10 -4 -10 -6 0 -11 5 -11 10 0 6 2 10 4 10 3 0 8 -4 11 -10z
m-150 -10 c-3 -5 -10 -10 -16 -10 -5 0 -9 5 -9 10 0 6 7 10 16 10 8 0 12 -4 9
-10z m-160 -39 c-3 -6 -11 -11 -17 -11 -6 0 -6 6 2 15 14 17 26 13 15 -4z
m135 -95 c0 -8 7 -17 16 -20 9 -4 14 -9 10 -13 -7 -7 -46 25 -46 39 0 4 5 8
10 8 6 0 10 -6 10 -14z m-235 -124 c-8 -8 -25 10 -25 26 0 13 2 13 14 -4 8
-10 13 -21 11 -22z m10 -32 c3 -6 -1 -7 -9 -4 -18 7 -21 14 -7 14 6 0 13 -4
16 -10z m819 -120 c17 -59 18 -65 8 -55 -14 15 -32 75 -22 75 5 0 11 -9 14
-20z m-39 -10 c3 -5 1 -10 -4 -10 -6 0 -11 5 -11 10 0 6 2 10 4 10 3 0 8 -4
11 -10z m-6 -143 c7 -21 11 -41 8 -44 -8 -8 -37 53 -37 79 0 28 12 14 29 -35z
m81 15 c0 -7 -4 -10 -10 -7 -5 3 -10 16 -10 28 0 18 2 19 10 7 5 -8 10 -21 10
-28z m-41 -72 c1 -13 0 -13 -9 0 -5 8 -9 24 -9 35 l0 20 9 -20 c5 -11 9 -27 9
-35z m-49 9 c0 -6 -4 -7 -10 -4 -5 3 -10 11 -10 16 0 6 5 7 10 4 6 -3 10 -11
10 -16z m-134 -39 c-9 -65 -47 -172 -64 -178 -8 -2 -5 14 10 50 12 29 22 65
21 81 0 15 4 27 8 27 5 0 9 16 9 35 0 19 5 35 11 35 8 0 10 -16 5 -50z m-62
-80 c-13 -52 -28 -103 -34 -112 -5 -10 -10 -25 -10 -33 0 -34 -103 -241 -138
-278 -67 -69 -96 -96 -100 -92 -11 10 73 215 87 215 5 0 11 13 14 29 10 51
192 381 202 369 2 -2 -8 -46 -21 -98z m285 45 c0 -5 -4 -3 -9 5 -5 8 -9 22 -9
30 0 16 17 -16 18 -35z m-81 2 c32 -48 28 -66 -8 -32 -16 16 -30 37 -30 47 0
27 12 22 38 -15z m-188 -44 c-11 -17 -11 -17 -6 0 3 10 6 24 7 30 0 9 2 9 5 0
3 -7 0 -20 -6 -30z m250 -19 c12 -19 20 -38 16 -41 -3 -4 -6 -2 -6 4 0 6 -7
10 -16 9 -9 0 -19 6 -22 14 -5 13 -3 13 13 0 17 -14 17 -14 1 18 -22 43 -13
41 14 -4z m95 -40 c20 -48 19 -54 -5 -25 -18 21 -28 61 -15 61 3 0 12 -16 20
-36z m-49 -98 c23 -74 33 -166 21 -199 -5 -16 -13 -25 -17 -20 -10 10 -56 200
-66 268 l-7 50 27 -24 c14 -14 33 -48 42 -75z m129 13 c38 -61 43 -93 7 -42
-21 30 -52 88 -52 98 0 14 12 0 45 -56z m25 0 c0 -18 -10 -8 -25 24 l-16 32
21 -24 c11 -13 20 -27 20 -32z m-430 2 c-16 -56 -109 -254 -109 -235 -2 26
102 264 114 264 2 0 0 -13 -5 -29z m-43 7 c-2 -7 -14 -41 -27 -75 -32 -89 -44
-78 -13 12 13 41 29 75 35 75 6 0 8 -6 5 -12z m413 -78 c12 -17 20 -34 18 -39
-2 -6 -16 8 -31 30 -16 21 -24 39 -18 39 5 0 19 -14 31 -30z m-50 -12 c0 -36
-4 -35 -14 5 -4 16 -2 27 4 27 5 0 10 -14 10 -32z m-448 -90 c-7 -7 -12 -8
-12 -2 0 6 3 14 7 17 3 4 9 5 12 2 2 -3 -1 -11 -7 -17z m113 -45 c-9 -15 -13
-19 -10 -8 4 11 10 29 13 40 3 11 7 14 9 8 3 -7 -3 -24 -12 -40z m-35 28 c0
-6 -4 -13 -10 -16 -5 -3 -10 1 -10 9 0 9 5 16 10 16 6 0 10 -4 10 -9z m-103
-53 c-16 -44 -18 -60 -8 -54 14 9 14 -6 -1 -58 -12 -44 -32 -72 -61 -88 -16
-8 -16 -5 3 32 35 70 15 56 -30 -19 -42 -71 -102 -124 -108 -96 -2 7 4 37 12
65 11 38 27 62 58 90 29 25 45 34 50 26 5 -6 8 -3 8 10 0 12 7 27 15 34 12 10
15 9 16 -6 0 -14 3 -12 8 7 10 32 30 69 37 69 4 0 4 -6 1 -12z m81 -30 c-11
-52 -28 -73 -28 -36 0 33 17 78 29 78 5 0 5 -17 -1 -42z m390 -48 l0 -35 -15
43 c-8 23 -12 50 -8 60 7 14 9 13 15 -8 5 -14 8 -41 8 -60z m-440 -37 c-7 -9
-13 -21 -13 -27 0 -6 -9 -27 -20 -46 -15 -28 -20 -31 -23 -17 -2 11 6 29 18
42 13 14 17 24 10 27 -7 2 -6 17 5 48 26 74 29 78 33 32 2 -26 -2 -50 -10 -59z
m712 12 c28 -42 50 -78 48 -81 -7 -7 -118 137 -118 153 0 23 14 8 70 -72z m51
-2 c13 -16 12 -17 -3 -4 -10 7 -18 15 -18 17 0 8 8 3 21 -13z m-728 -33 c-5
-19 -23 -39 -23 -25 0 9 20 45 24 45 2 0 2 -9 -1 -20z m434 -47 c-3 -10 -5 -2
-5 17 0 19 2 27 5 18 2 -10 2 -26 0 -35z"/>
<path d="M4972 3280 c0 -19 2 -27 5 -17 2 9 2 25 0 35 -3 9 -5 1 -5 -18z"/>
<path d="M4937 3113 c-4 -3 -7 -11 -7 -17 0 -6 5 -5 12 2 6 6 9 14 7 17 -3 3
-9 2 -12 -2z"/>
<path d="M5000 4719 c0 -5 5 -7 10 -4 6 3 10 8 10 11 0 2 -4 4 -10 4 -5 0 -10
-5 -10 -11z"/>
<path d="M5865 4720 c-3 -5 -4 -10 -1 -10 2 0 11 -3 20 -6 11 -4 16 -1 16 10
0 18 -25 22 -35 6z"/>
<path d="M4836 4703 c-6 -14 -5 -15 5 -6 7 7 10 15 7 18 -3 3 -9 -2 -12 -12z"/>
<path d="M5901 4637 c-87 -57 -84 -54 -64 -62 16 -7 15 -9 -7 -15 -17 -5 -19
-8 -7 -9 27 -2 106 39 123 63 12 18 16 19 24 6 13 -20 13 -4 0 21 -14 25 -27
24 -69 -4z"/>
<path d="M5955 4530 c-3 -5 -2 -10 4 -10 5 0 16 -3 25 -6 11 -4 16 -1 16 10 0
18 -35 22 -45 6z"/>
<path d="M2768 4523 c7 -3 16 -2 19 1 4 3 -2 6 -13 5 -11 0 -14 -3 -6 -6z"/>
<path d="M2608 4493 c7 -3 16 -2 19 1 4 3 -2 6 -13 5 -11 0 -14 -3 -6 -6z"/>
<path d="M2270 4243 c0 -25 153 -72 166 -51 3 5 4 10 3 12 -2 1 -16 10 -31 19
-32 20 -138 35 -138 20z"/>
<path d="M1148 4206 c-13 -31 -5 -54 24 -65 13 -4 105 -16 205 -26 l182 -18 5
-86 c7 -115 6 -175 -2 -183 -4 -4 -108 6 -232 22 -124 15 -250 31 -280 34 -30
4 -109 14 -175 22 -66 9 -176 17 -245 18 -106 1 -131 -2 -165 -19 -67 -32
-126 -103 -168 -201 -36 -83 -38 -90 -24 -114 22 -36 75 -61 122 -58 39 3 41
4 80 85 22 45 49 92 60 104 24 25 17 25 440 -22 149 -17 339 -38 424 -47 114
-13 156 -21 162 -32 5 -8 11 -194 15 -413 l6 -398 27 -14 c26 -14 26 -14 -9
-7 -35 7 -49 7 -130 -1 -35 -3 -60 2 -108 24 -66 30 -102 28 -129 -7 -6 -9
-18 -17 -27 -18 -9 -1 -26 -11 -39 -22 -13 -12 -45 -27 -71 -35 -27 -8 -51
-20 -53 -26 -3 -7 -9 -13 -14 -13 -4 0 -22 -13 -39 -30 -17 -17 -37 -30 -44
-30 -8 0 -19 -12 -25 -27 -14 -35 -32 -65 -51 -88 -8 -10 -20 -34 -25 -53 -6
-20 -16 -37 -24 -40 -8 -3 -11 0 -7 7 4 6 2 19 -3 28 -7 13 -10 14 -11 4 0 -8
-2 -12 -5 -9 -3 3 4 23 17 44 16 27 19 39 9 42 -9 3 -8 9 5 23 17 19 9 24 -20
13 -9 -3 -16 -12 -16 -20 0 -8 -4 -14 -10 -14 -13 0 -13 17 1 26 8 4 7 9 -2
15 -12 7 -12 10 0 21 8 7 11 8 8 2 -4 -7 -1 -14 7 -17 9 -4 14 2 14 19 0 37
-33 30 -52 -11 -9 -19 -21 -37 -26 -40 -6 -3 -10 -17 -10 -30 0 -13 -4 -26 -9
-29 -5 -3 -7 -15 -4 -25 3 -10 0 -22 -6 -25 -14 -9 -14 -76 0 -96 8 -12 9 -10
4 8 -5 18 -2 22 15 22 13 0 20 -5 17 -12 -2 -7 2 -17 9 -23 20 -14 6 -58 -16
-52 -15 4 -15 -1 -6 -44 6 -27 17 -54 24 -61 6 -6 12 -22 12 -35 0 -12 9 -39
21 -59 16 -30 18 -42 10 -61 -7 -14 -7 -23 -1 -23 6 0 10 -4 10 -10 0 -16 -77
-12 -93 5 -9 9 -46 17 -96 21 -64 5 -84 11 -92 25 -20 39 -170 50 -204 15 -22
-22 -36 -12 -29 22 4 22 -5 38 -47 85 -50 56 -52 57 -104 57 -32 0 -57 -5 -64
-14 -6 -7 -25 -16 -41 -20 l-30 -5 0 -871 0 -870 28 0 c15 0 33 -5 40 -12 9
-9 12 -9 12 0 0 18 31 14 75 -9 45 -25 215 -40 237 -21 7 5 33 13 58 17 25 4
61 17 80 30 19 13 54 28 77 35 24 6 43 14 43 18 0 5 29 23 65 41 36 18 82 46
101 63 34 30 35 32 15 40 -12 4 -21 16 -21 28 0 17 6 20 41 20 46 0 75 24 134
110 17 24 40 55 52 68 22 23 39 75 30 89 -12 19 24 178 43 193 4 3 9 24 13 48
4 30 2 40 -6 35 -32 -19 23 33 62 59 60 40 149 126 167 161 10 18 21 27 30 23
8 -3 26 -1 41 5 23 9 30 7 45 -13 15 -20 18 -21 18 -5 0 10 -5 27 -10 37 -6
11 -15 54 -20 96 -9 68 -8 78 8 90 9 7 24 14 33 14 9 0 22 7 29 15 22 26 38
16 55 -35 19 -59 29 -65 19 -14 -5 30 -4 35 7 29 8 -5 3 4 -10 18 -14 15 -22
29 -19 32 5 5 189 -101 198 -115 3 -4 16 -13 30 -20 35 -18 126 -90 184 -144
61 -59 125 -110 154 -125 34 -18 26 -5 -11 17 -38 22 -167 140 -167 153 0 4
24 -3 53 -16 32 -16 70 -25 100 -25 27 0 58 -5 69 -11 13 -7 18 -7 14 -1 -11
18 27 19 79 1 131 -43 315 -50 415 -15 25 9 79 20 120 26 l75 9 -70 -4 c-38
-2 -106 -13 -150 -24 -44 -12 -111 -21 -149 -21 -70 0 -241 34 -252 51 -3 5
22 21 56 35 86 38 69 39 -25 3 -68 -27 -84 -30 -114 -20 -19 5 -38 8 -42 5 -4
-2 -45 18 -91 46 -46 28 -90 54 -98 59 -93 57 -123 72 -107 53 10 -11 45 -34
77 -51 53 -28 82 -51 65 -51 -21 0 -231 103 -267 131 -73 58 -98 82 -98 96 0
15 26 18 35 3 3 -5 20 -19 38 -31 22 -15 18 -9 -12 18 -62 55 -37 59 73 11 49
-21 91 -37 93 -34 2 2 -43 23 -101 47 -58 24 -106 50 -106 57 0 7 4 11 9 8 27
-17 60 31 37 54 -8 8 -7 10 7 5 13 -6 17 -2 17 18 0 14 6 27 13 30 6 2 9 8 4
12 -4 5 -13 3 -19 -3 -7 -7 -17 -12 -23 -12 -23 1 32 24 60 26 54 2 200 35
224 51 l24 15 -8 892 c-4 490 -6 976 -6 1079 l2 188 -48 -8 c-59 -10 -249 -11
-320 -1 -48 6 -53 5 -53 -12 0 -24 13 -24 -200 0 -215 25 -198 25 -212 -4z
m686 -1428 c-10 -12 -13 -18 -6 -14 20 12 13 -8 -12 -32 l-24 -22 -11 31 c-9
25 -8 30 3 26 8 -3 22 3 32 14 9 10 22 19 27 19 6 0 2 -10 -9 -22z m-164 -81
c0 -4 -6 -2 -14 5 -8 7 -12 17 -9 22 5 8 23 -12 23 -27z m-869 -350 c-10 -9
-11 -8 -5 6 3 10 9 15 12 12 3 -3 0 -11 -7 -18z m1015 -36 c-3 -5 1 -23 10
-40 8 -17 12 -36 7 -43 -4 -7 -9 -17 -10 -23 -11 -46 -39 -109 -58 -129 -13
-14 -25 -30 -27 -36 -2 -7 -19 -18 -38 -26 -29 -11 -32 -11 -17 0 9 7 17 19
17 26 0 9 -5 8 -18 -3 -20 -18 -37 -23 -27 -8 9 16 -12 22 -42 11 -27 -11 -27
-10 8 22 20 18 42 48 50 66 8 17 17 32 21 32 5 0 8 6 8 13 0 7 14 21 30 30 20
12 30 26 30 43 0 13 5 24 10 24 6 0 15 11 20 25 5 14 14 25 20 25 6 0 9 -4 6
-9z m-991 -261 c3 -5 1 -10 -4 -10 -6 0 -11 5 -11 10 0 6 2 10 4 10 3 0 8 -4
11 -10z m800 -30 c-3 -5 -12 -10 -18 -10 -7 0 -6 4 3 10 19 12 23 12 15 0z
m-38 -22 c-3 -8 -6 -5 -6 6 -1 11 2 17 5 13 3 -3 4 -12 1 -19z m-621 -73 c1
-8 -1 -17 -5 -19 -4 -3 -7 6 -7 19 0 25 8 25 12 0z m34 -6 c0 -6 7 -17 15 -26
19 -19 11 -31 -9 -14 -17 14 -28 51 -15 51 5 0 9 -5 9 -11z m-88 -43 c19 -2
40 -6 47 -10 6 -4 16 -4 21 -1 6 4 17 1 25 -5 12 -10 18 -10 31 1 14 11 16 10
13 -6 -2 -11 3 -31 10 -44 13 -23 11 -27 -14 -47 -16 -12 -39 -28 -53 -35 -21
-12 -26 -11 -38 6 -8 11 -35 41 -61 68 -25 26 -43 47 -39 47 4 0 2 9 -4 20
-15 27 -1 49 15 26 7 -9 28 -18 47 -20z m288 -39 c0 -2 -9 -12 -20 -22 -24
-21 -27 -14 -4 9 15 15 24 20 24 13z m-90 -16 c0 -5 -7 -11 -14 -14 -10 -4
-13 -1 -9 9 6 15 23 19 23 5z m40 -35 c0 -3 -4 -8 -10 -11 -5 -3 -10 -1 -10 4
0 6 5 11 10 11 6 0 10 -2 10 -4z m-49 -55 c-12 -9 -42 -25 -67 -35 -39 -16
-47 -17 -55 -5 -6 10 0 18 19 28 15 7 34 20 43 28 9 8 30 18 45 22 37 10 46
-15 15 -38z m71 0 c-11 -6 -10 -11 3 -25 9 -9 21 -16 26 -16 21 0 6 -30 -25
-49 -39 -24 -166 -35 -173 -15 -4 13 110 99 142 107 32 8 41 7 27 -2z m232
-88 c11 -42 3 -70 -39 -131 -55 -81 -170 -180 -237 -205 -16 -6 -32 30 -53
118 -3 16 -12 33 -18 37 -7 4 -1 15 18 30 60 47 185 161 185 169 0 9 31 14 90
13 41 0 45 -3 54 -31z m21 27 c3 -5 1 -10 -4 -10 -6 0 -11 5 -11 10 0 6 2 10
4 10 3 0 8 -4 11 -10z m12 -72 c-3 -7 -5 -2 -5 12 0 14 2 19 5 13 2 -7 2 -19
0 -25z m-291 -13 c-32 -26 -103 -48 -111 -34 -3 4 14 14 37 20 24 7 52 19 63
26 33 22 42 14 11 -12z m819 -17 c111 -39 155 -59 155 -70 0 -5 -8 -7 -17 -4
-10 3 -37 10 -59 15 -60 16 -168 67 -185 87 -13 16 -12 17 6 9 11 -4 56 -21
100 -37z m-890 22 c-3 -5 -15 -10 -26 -10 -11 0 -17 5 -14 10 3 6 15 10 26 10
11 0 17 -4 14 -10z m357 -51 c4 -26 1 -32 -20 -40 -34 -13 -38 -5 -19 36 21
43 33 44 39 4z m-351 -19 c-26 -22 -41 -25 -41 -10 0 6 10 15 23 20 36 14 44
11 18 -10z m1074 -20 c3 -5 1 -10 -4 -10 -6 0 -11 5 -11 10 0 6 2 10 4 10 3 0
8 -4 11 -10z"/>
<path d="M1710 2040 c0 -5 5 -10 11 -10 5 0 7 5 4 10 -3 6 -8 10 -11 10 -2 0
-4 -4 -4 -10z"/>
<path d="M5990 3875 c0 -8 -4 -15 -10 -15 -14 0 -13 -43 2 -58 8 -8 8 -12 1
-12 -6 0 -13 -9 -16 -20 -3 -11 -7 -23 -9 -27 -1 -3 7 -9 19 -14 21 -7 21 -5
22 77 1 46 -1 84 -4 84 -3 0 -5 -7 -5 -15z"/>
<path d="M5958 3707 c0 -7 -2 -16 -2 -22 -1 -5 -4 -14 -7 -20 -9 -17 3 -92 20
-123 7 -13 10 -30 7 -37 -3 -8 1 -31 9 -52 13 -36 14 -28 14 108 1 139 0 147
-19 152 -11 3 -21 0 -22 -6z"/>
<path d="M5582 3665 c12 -24 23 -43 26 -41 4 5 -36 86 -43 86 -3 0 5 -20 17
-45z"/>
<path d="M3972 3468 l1 -73 7 65 7 65 3 -60 c2 -33 4 -98 4 -145 l1 -86 28 4
c23 4 40 22 20 22 -10 0 -9 153 1 168 4 7 2 12 -4 12 -11 0 -3 47 12 67 11 14
4 18 -44 27 l-38 7 2 -73z m58 -158 c0 -5 -5 -10 -11 -10 -5 0 -7 5 -4 10 3 6
8 10 11 10 2 0 4 -4 4 -10z"/>
<path d="M4205 3521 c-65 -4 -93 -9 -80 -14 16 -7 17 -10 5 -17 -12 -7 -10
-11 10 -19 24 -9 24 -10 3 -10 -24 -1 -31 -15 -13 -26 6 -3 10 -19 10 -36 0
-21 5 -29 18 -30 14 0 14 -2 2 -7 -16 -7 -20 -35 -7 -48 4 -4 7 -2 7 4 0 7 10
12 21 12 19 0 21 4 16 36 -4 20 -2 45 4 55 6 12 6 19 0 19 -5 0 -7 9 -4 20 7
25 53 28 53 4 0 -9 -5 -12 -12 -8 -10 6 -10 5 -1 -7 9 -11 9 -19 2 -26 -11
-11 -3 -53 10 -53 15 0 -1 -69 -18 -73 -12 -3 -10 -6 9 -15 24 -11 24 -12 -10
-9 -27 1 -34 6 -32 20 2 10 -3 17 -14 17 -11 0 -14 -5 -10 -16 4 -12 2 -15 -9
-11 -8 4 -17 2 -20 -3 -4 -6 -1 -10 6 -10 7 0 4 -7 -7 -15 -18 -13 -15 -15 31
-16 l50 -2 -50 -7 c-43 -6 -37 -7 40 -8 50 0 99 3 110 8 11 5 17 9 13 9 -4 1
-3 15 2 31 5 18 5 30 -1 30 -5 0 -9 7 -9 16 0 8 -4 13 -9 9 -5 -3 -19 7 -30
22 -11 16 -26 34 -31 41 -6 7 -8 17 -5 23 4 6 12 3 21 -8 12 -17 13 -17 14 0
0 20 20 24 20 4 0 -9 16 -14 48 -16 26 -1 76 -9 112 -17 36 -8 85 -18 110 -21
25 -3 65 -9 90 -13 30 -6 46 -5 49 2 2 6 10 -4 18 -23 14 -31 16 -32 23 -14 5
11 9 14 9 6 1 -11 4 -11 17 -1 8 8 14 25 12 39 -3 23 -7 26 -37 23 -18 -1
-117 11 -220 28 -248 40 -234 36 -221 60 6 11 17 20 24 20 8 0 14 11 14 25 0
21 -5 25 -27 23 -14 -1 -71 -4 -126 -7z m35 -21 c0 -5 -9 -10 -21 -10 -11 0
-17 5 -14 10 3 6 13 10 21 10 8 0 14 -4 14 -10z m-7 -247 c-7 -2 -21 -2 -30 0
-10 3 -4 5 12 5 17 0 24 -2 18 -5z"/>
<path d="M3611 3504 c0 -11 3 -14 6 -6 3 7 2 16 -1 19 -3 4 -6 -2 -5 -13z"/>
<path d="M4080 3503 c0 -13 5 -23 10 -23 13 0 13 11 0 30 -8 12 -10 11 -10 -7z"/>
<path d="M4075 3460 c3 -5 11 -10 16 -10 6 0 7 5 4 10 -3 6 -11 10 -16 10 -6
0 -7 -4 -4 -10z"/>
<path d="M5735 3406 c10 -14 19 -26 22 -26 7 0 -17 39 -28 46 -6 3 -3 -5 6
-20z"/>
<path d="M4075 3410 c-3 -5 -1 -10 4 -10 6 0 11 5 11 10 0 6 -2 10 -4 10 -3 0
-8 -4 -11 -10z"/>
<path d="M4077 3366 c-4 -10 -1 -13 8 -9 8 3 12 9 9 14 -7 12 -11 11 -17 -5z"/>
<path d="M4315 3369 c-10 -15 -8 -16 85 -22 l85 -5 -75 18 c-90 23 -87 23 -95
9z"/>
<path d="M4513 3333 c9 -2 23 -2 30 0 6 3 -1 5 -18 5 -16 0 -22 -2 -12 -5z"/>
<path d="M4076 3321 c-8 -12 4 -41 16 -41 6 0 6 6 -1 14 -9 11 -9 15 1 18 9 3
9 6 1 11 -7 4 -14 3 -17 -2z"/>
<path d="M4316 3213 c-2 -3 -74 -5 -158 -4 -84 0 -161 -2 -170 -5 -20 -6 -25
-34 -5 -34 8 0 11 -15 9 -50 -4 -44 -2 -49 14 -43 14 5 16 2 12 -20 -3 -15 -1
-27 4 -27 6 0 8 20 6 45 -2 31 1 46 10 50 8 3 11 12 8 20 -4 10 2 15 17 17 43
3 56 -2 87 -32 17 -16 34 -30 38 -30 12 0 38 20 27 20 -6 0 -11 9 -12 20 -1
14 4 20 18 20 21 0 26 -16 7 -23 -8 -4 -7 -6 4 -6 13 -1 15 -7 9 -28 -9 -33
-38 -54 -50 -35 -6 11 -10 10 -16 -5 -14 -31 -15 -52 -4 -58 6 -5 6 -12 -3
-23 -11 -13 -11 -14 0 -8 7 4 19 3 26 -3 18 -15 43 -5 49 20 3 10 10 19 16 19
15 0 14 -27 -1 -36 -14 -9 64 -34 107 -34 17 0 73 -10 125 -21 52 -11 118 -25
145 -30 114 -20 200 -87 249 -194 13 -27 30 -66 39 -85 9 -19 16 -27 16 -18 1
9 -3 20 -9 23 -5 3 -10 14 -10 24 0 10 -23 61 -50 114 -49 95 -52 119 -9 75
25 -27 66 -112 104 -221 23 -64 31 -76 46 -72 9 3 27 8 39 10 62 12 64 14 35
45 -17 17 -25 35 -22 44 4 9 1 15 -6 13 -7 -1 -13 11 -15 26 -2 15 -12 33 -23
40 -10 6 -19 19 -19 28 0 16 -43 69 -55 69 -4 0 -38 24 -76 54 -86 68 -145 87
-361 120 -91 15 -174 29 -182 32 -23 9 -20 44 5 70 12 13 23 38 25 55 2 18 9
36 15 40 7 4 -1 13 -19 22 -17 8 -33 13 -36 10z"/>
<path d="M5396 3124 c-23 -50 -16 -52 12 -3 12 21 19 39 14 39 -4 0 -16 -16
-26 -36z"/>
<path d="M5342 3120 c0 -8 5 -30 12 -49 10 -27 14 -31 19 -18 3 9 3 17 -2 17
-4 0 -13 15 -19 33 -5 17 -10 25 -10 17z"/>
<path d="M5721 3074 c0 -11 3 -14 6 -6 3 7 2 16 -1 19 -3 4 -6 -2 -5 -13z"/>
<path d="M5035 3009 c-4 -12 -23 -37 -43 -54 -19 -18 -32 -37 -28 -43 7 -12
46 20 46 37 0 4 12 20 27 35 19 19 23 30 16 37 -8 8 -13 4 -18 -12z"/>
<path d="M5370 3015 c1 -6 7 -21 16 -35 l15 -25 -7 25 c-7 26 -24 52 -24 35z"/>
<path d="M4015 2991 c-3 -5 -1 -12 5 -16 5 -3 10 1 10 9 0 18 -6 21 -15 7z"/>
<path d="M5515 2940 c-3 -5 -1 -10 4 -10 6 0 11 5 11 10 0 6 -2 10 -4 10 -3 0
-8 -4 -11 -10z"/>
<path d="M5491 2893 c-10 -26 -10 -27 4 -9 8 11 15 23 15 28 0 15 -7 8 -19
-19z"/>
<path d="M5563 2885 c0 -22 2 -30 4 -17 2 12 2 30 0 40 -3 9 -5 -1 -4 -23z"/>
<path d="M3475 2901 c-3 -5 -1 -12 5 -16 5 -3 10 1 10 9 0 18 -6 21 -15 7z"/>
<path d="M4295 2890 c-7 -12 13 -23 27 -14 7 4 8 3 4 -4 -8 -14 3 -15 22 -3
10 6 6 11 -17 19 -17 6 -33 7 -36 2z"/>
<path d="M4380 2869 c0 -5 11 -9 25 -9 14 0 25 2 25 4 0 2 -11 6 -25 8 -14 3
-25 1 -25 -3z"/>
<path d="M4448 2863 c7 -3 16 -2 19 1 4 3 -2 6 -13 5 -11 0 -14 -3 -6 -6z"/>
<path d="M4484 2859 c-3 -5 6 -9 20 -9 31 0 34 6 6 13 -11 3 -23 1 -26 -4z"/>
<path d="M4491 2817 c-6 -8 -29 -22 -51 -32 -22 -10 -38 -20 -36 -22 2 -3 19
3 37 12 31 16 32 16 24 -1 -26 -66 -45 -162 -26 -134 6 8 11 22 11 31 0 8 7
39 16 68 11 39 23 57 47 71 27 17 29 20 11 20 -12 0 -27 -6 -33 -13z"/>
<path d="M4256 2801 c-9 -14 -3 -175 6 -188 5 -7 7 -21 3 -33 -4 -13 -2 -20 7
-20 7 0 13 12 14 28 0 15 3 62 7 105 5 51 4 77 -3 77 -5 0 -10 9 -10 20 0 20
-14 27 -24 11z"/>
<path d="M5457 2771 c-3 -11 1 -25 8 -31 19 -15 30 20 12 38 -12 12 -15 11
-20 -7z"/>
<path d="M4714 2758 c-43 -50 -58 -71 -47 -65 6 4 26 25 43 47 34 43 37 55 4
18z"/>
<path d="M5590 2766 c0 -2 7 -9 15 -16 9 -7 15 -8 15 -2 0 5 -7 12 -15 16 -8
3 -15 4 -15 2z"/>
<path d="M5260 2725 c19 -22 36 -42 38 -44 1 -2 4 -2 8 1 6 6 -29 44 -61 68
-11 8 -4 -4 15 -25z"/>
<path d="M5506 2738 c-10 -39 -6 -44 15 -18 18 22 20 23 17 5 -1 -12 11 -33
28 -50 17 -17 33 -36 35 -42 2 -7 30 -14 62 -17 46 -3 69 0 110 19 47 21 50
23 27 29 -14 3 -36 5 -50 4 -51 -1 -54 1 -35 22 20 22 10 44 -25 53 -22 6 -24
-1 -10 -37 6 -16 6 -28 0 -31 -13 -8 -60 24 -60 41 0 8 -6 11 -15 7 -9 -3 -25
3 -35 12 -11 10 -20 14 -20 10 0 -5 -5 -4 -12 3 -17 17 -25 15 -32 -10z"/>
<path d="M5115 2680 c3 -5 8 -10 11 -10 2 0 4 5 4 10 0 6 -5 10 -11 10 -5 0
-7 -4 -4 -10z"/>
<path d="M4591 2630 c-15 -14 -21 -26 -16 -37 6 -17 7 -16 17 2 6 11 18 28 26
38 20 23 3 21 -27 -3z"/>
<path d="M4688 2617 c-15 -15 -31 -27 -37 -27 -5 0 -19 -13 -31 -29 -11 -17
-28 -32 -38 -36 -9 -3 -25 -17 -35 -30 l-18 -25 28 12 c15 7 30 15 33 19 12
16 77 49 95 49 12 0 27 13 37 30 9 17 13 30 8 30 -5 0 -10 8 -12 17 -3 14 -7
13 -30 -10z"/>
<path d="M4786 2632 c-2 -4 2 -16 10 -27 14 -19 14 -19 29 1 8 10 15 22 15 27
0 9 -47 9 -54 -1z"/>
<path d="M5936 2586 c10 -8 21 -12 24 -10 5 6 -21 24 -34 24 -6 0 -1 -6 10
-14z"/>
<path d="M5607 2583 c-15 -15 -7 -43 13 -43 11 0 20 4 20 9 0 6 12 6 30 1 36
-10 49 4 19 20 -17 10 -20 9 -13 -2 7 -11 5 -11 -9 0 -9 8 -21 11 -27 7 -5 -3
-10 -1 -10 4 0 12 -13 14 -23 4z"/>
<path d="M5976 2576 c9 -25 -195 -203 -376 -328 -16 -11 -20 -17 -10 -17 27
-1 200 131 307 233 98 93 121 126 88 126 -8 0 -12 -6 -9 -14z"/>
<path d="M4876 2543 c4 -12 15 -30 26 -40 20 -18 21 -17 10 2 -6 11 -17 29
-26 40 -15 20 -15 20 -10 -2z"/>
<path d="M5494 2547 c-4 -11 -13 -16 -21 -13 -9 4 -13 1 -10 -6 4 -13 36 -12
49 0 4 4 3 14 -2 22 -8 12 -10 12 -16 -3z"/>
<path d="M5028 2523 c-61 -23 -87 -43 -57 -43 17 0 113 42 129 57 20 18 6 15
-72 -14z"/>
<path d="M5968 2320 c-30 -41 -150 -109 -191 -109 -32 0 -114 -6 -195 -15 -43
-4 -43 -4 -25 17 l18 20 -28 -18 c-15 -10 -32 -26 -38 -36 -11 -21 -35 -25
-41 -8 -6 18 -97 0 -109 -22 -5 -11 -18 -19 -28 -19 -9 0 -28 -11 -41 -25 -14
-14 -30 -23 -39 -20 -21 8 -181 -51 -181 -67 0 -5 -8 -8 -19 -8 -10 0 -24 -7
-31 -15 -7 -8 -23 -15 -35 -15 -12 0 -33 -9 -47 -19 -13 -11 -43 -27 -66 -37
-24 -11 -41 -25 -40 -34 3 -46 -3 -70 -18 -70 -12 0 -15 -7 -12 -25 3 -14 -1
-30 -8 -36 -8 -6 -14 -17 -14 -25 0 -7 -9 -18 -20 -24 -12 -6 -20 -21 -20 -36
0 -13 -7 -27 -16 -31 -10 -4 -14 -13 -10 -29 3 -12 2 -26 -4 -29 -5 -3 -10
-15 -10 -26 0 -10 -4 -19 -10 -19 -5 0 -10 -6 -10 -14 0 -7 -7 -19 -15 -26 -9
-8 -13 -21 -9 -32 4 -13 -1 -25 -13 -34 -12 -10 -14 -17 -6 -20 15 -7 5 -73
-14 -96 -21 -24 -12 -42 22 -43 42 0 53 -39 18 -62 -25 -17 -26 -16 -48 9 -21
25 -22 25 -34 6 -8 -13 -9 -24 -3 -31 10 -12 16 -56 14 -89 -1 -11 -10 -18
-22 -18 -24 0 -25 -4 -4 -35 14 -21 14 -24 -3 -34 -11 -7 -14 -14 -8 -18 12
-9 32 -40 44 -69 15 -33 42 -55 61 -49 9 3 23 -1 30 -10 7 -8 24 -15 37 -15
14 0 38 -11 55 -25 16 -14 35 -25 43 -25 7 0 36 -23 65 -51 58 -57 96 -73 139
-58 17 6 49 6 87 1 89 -15 153 17 154 75 1 24 65 53 118 53 35 0 42 3 42 20 0
10 10 25 22 31 39 21 55 43 74 101 11 32 24 58 31 58 32 0 43 -143 17 -229
-19 -67 -12 -76 12 -17 11 25 24 46 31 46 15 0 26 -34 19 -58 -4 -13 -1 -18
12 -18 18 0 18 4 6 51 -17 66 -22 144 -9 146 12 1 41 -101 51 -178 6 -50 5
-55 -10 -50 -25 10 -19 -9 8 -27 19 -12 26 -28 32 -73 l8 -58 7 45 c3 25 3 52
-1 60 -14 29 -20 118 -7 123 7 2 4 19 -11 50 -29 61 -28 74 6 79 23 3 50 -11
133 -69 142 -101 135 -98 137 -59 2 29 -2 34 -45 55 -61 30 -203 129 -210 147
-8 22 16 44 58 50 21 4 40 13 43 20 3 8 12 14 21 14 8 0 35 16 61 35 25 19 52
35 60 35 12 0 14 70 14 460 l0 459 -25 27 c-19 21 -22 30 -14 40 15 19 27 17
32 -3 3 -10 5 2 6 26 l1 44 -25 -23 c-31 -29 -31 -24 -1 44 20 46 32 116 20
116 -2 0 -14 -14 -26 -30z m13 -23 c-10 -9 -11 -8 -5 6 3 10 9 15 12 12 3 -3
0 -11 -7 -18z m-36 -92 c-23 -53 -32 -65 -51 -65 -35 0 -37 16 -8 47 15 15 38
43 52 61 13 18 27 30 30 28 2 -3 -8 -35 -23 -71z m-64 8 c-27 -49 -36 -56 -59
-42 -12 8 -22 17 -22 21 0 5 54 28 88 37 1 1 -2 -7 -7 -16z m-18 -99 c-3 -8
-9 -14 -13 -14 -13 0 -22 19 -15 30 9 14 34 0 28 -16z m45 -147 c6 -5 12 -17
12 -28 0 -10 4 -19 10 -19 5 0 7 -6 4 -14 -4 -11 -16 -8 -55 16 -47 30 -55 39
-44 50 8 8 58 4 73 -5z m62 -97 c0 -5 -4 -10 -10 -10 -5 0 -10 5 -10 10 0 6 5
10 10 10 6 0 10 -4 10 -10z m-928 -492 c65 -32 73 -48 26 -48 -31 -1 -32 -1
-14 -15 11 -8 30 -15 42 -15 13 0 25 -4 28 -9 14 -22 -90 3 -242 57 -64 23
-66 25 -53 51 10 18 18 19 83 14 51 -4 90 -15 130 -35z m-247 1 c4 -6 5 -12 2
-15 -7 -7 -37 7 -37 17 0 13 27 11 35 -2z m360 0 c11 -17 2 -18 -25 -4 -24 14
-24 14 -3 15 12 0 25 -5 28 -11z m-285 -59 c-20 -13 -47 -13 -55 0 -4 6 9 10
32 10 28 0 34 -3 23 -10z m645 -50 c3 -5 2 -10 -4 -10 -5 0 -13 5 -16 10 -3 6
-2 10 4 10 5 0 13 -4 16 -10z"/>
<path d="M4151 2284 c0 -11 3 -14 6 -6 3 7 2 16 -1 19 -3 4 -6 -2 -5 -13z"/>
<path d="M4020 2260 c0 -5 5 -10 10 -10 6 0 10 5 10 10 0 6 -4 10 -10 10 -5 0
-10 -4 -10 -10z"/>
<path d="M4017 2234 c-3 -3 -3 -12 0 -20 3 -8 0 -14 -7 -14 -10 0 -10 -3 0
-15 9 -10 9 -15 1 -15 -6 0 -11 -13 -11 -30 0 -16 5 -30 10 -30 6 0 13 0 18 0
4 0 7 15 7 33 0 17 4 38 8 45 5 7 3 12 -4 12 -8 0 -9 3 0 13 15 19 -5 38 -22
21z"/>
<path d="M4143 2212 c-13 -2 -23 -10 -23 -17 0 -8 -13 -30 -30 -48 -16 -19
-30 -39 -30 -45 0 -6 -12 -12 -27 -14 -22 -2 -27 -8 -25 -23 12 -70 13 -98 3
-108 -6 -6 -11 -19 -11 -28 0 -10 -9 -21 -20 -24 -24 -8 -26 -23 -4 -32 10 -3
12 -8 5 -12 -10 -6 21 -25 82 -49 17 -8 27 -19 27 -32 0 -12 -4 -19 -9 -16 -5
4 -20 2 -33 -3 -23 -10 -22 -10 5 -10 16 -1 36 -5 45 -10 9 -5 37 -11 62 -14
25 -2 36 -2 25 0 -30 7 -41 21 -26 36 10 10 11 9 6 -5 -5 -13 -2 -18 10 -18
10 0 13 5 9 12 -5 8 3 9 27 5 32 -6 32 -5 -10 14 -24 11 -41 23 -37 27 4 4 48
23 98 43 l91 36 -52 5 c-77 8 -92 27 -97 124 -10 182 -19 213 -61 206z m100
-369 c-7 -2 -19 -2 -25 0 -7 3 -2 5 12 5 14 0 19 -2 13 -5z m-56 -19 c-3 -3
-12 -4 -19 -1 -8 3 -5 6 6 6 11 1 17 -2 13 -5z"/>
<path d="M3398 2023 c7 -3 16 -2 19 1 4 3 -2 6 -13 5 -11 0 -14 -3 -6 -6z"/>
<path d="M2792 1773 c-9 -20 -9 -24 0 -15 15 15 32 16 23 2 -3 -5 -1 -10 5
-10 14 0 9 42 -5 47 -5 1 -16 -9 -23 -24z"/>
<path d="M2742 1746 c7 -8 15 -12 17 -11 5 6 -10 25 -20 25 -5 0 -4 -6 3 -14z"/>
<path d="M1745 1735 c11 -9 29 -21 40 -26 l20 -10 -20 16 c-11 9 -29 21 -40
26 l-20 10 20 -16z"/>
<path d="M1908 1743 c7 -3 16 -2 19 1 4 3 -2 6 -13 5 -11 0 -14 -3 -6 -6z"/>
<path d="M4288 1743 c7 -3 16 -2 19 1 4 3 -2 6 -13 5 -11 0 -14 -3 -6 -6z"/>
<path d="M1958 1733 c7 -3 16 -2 19 1 4 3 -2 6 -13 5 -11 0 -14 -3 -6 -6z"/>
<path d="M2025 1720 c17 -5 91 -12 165 -14 111 -4 120 -3 50 3 -192 18 -246
21 -215 11z"/>
<path d="M4045 1714 c11 -3 40 -12 64 -20 24 -8 46 -12 49 -10 7 8 -44 25 -91
31 -23 2 -33 2 -22 -1z"/>
<path d="M2423 1693 c26 -2 68 -2 95 0 26 2 4 3 -48 3 -52 0 -74 -1 -47 -3z"/>
<path d="M1653 1634 c40 -56 105 -119 240 -232 29 -24 61 -48 72 -54 27 -15
20 -8 -54 52 -80 63 -213 190 -264 250 -35 41 -34 40 6 -16z"/>
<path d="M2695 1679 c22 -4 56 -8 75 -7 33 0 32 1 -10 9 -25 4 -58 7 -75 7
-26 0 -25 -1 10 -9z"/>
<path d="M4180 1680 c8 -5 26 -10 39 -10 32 0 24 6 -19 14 -25 4 -31 3 -20 -4z"/>
<path d="M1410 1461 c0 -6 4 -13 10 -16 6 -3 7 1 4 9 -7 18 -14 21 -14 7z"/>
<path d="M1480 1442 c0 -18 48 -92 60 -92 12 0 13 17 2 22 -5 2 -20 21 -35 43
-15 22 -27 34 -27 27z"/>
<path d="M2330 1386 c0 -2 7 -7 16 -10 8 -3 12 -2 9 4 -6 10 -25 14 -25 6z"/>
<path d="M1990 1336 c0 -17 196 -104 207 -92 3 2 -13 10 -34 16 -21 7 -68 28
-105 47 -38 18 -68 31 -68 29z"/>
<path d="M1560 1322 c0 -14 60 -62 107 -87 21 -11 41 -24 45 -29 3 -5 31 -11
61 -14 70 -6 85 14 18 23 -58 8 -152 50 -198 89 -18 15 -33 23 -33 18z"/>
<path d="M2240 1310 c33 -10 82 -11 96 -2 7 4 -18 7 -55 8 -44 1 -58 -1 -41
-6z"/>
<path d="M1271 1273 c-13 -15 -12 -16 10 -10 13 4 30 7 37 7 6 0 12 5 12 10 0
16 -44 11 -59 -7z"/>
<path d="M3700 1264 c0 -8 5 -12 10 -9 6 4 8 11 5 16 -9 14 -15 11 -15 -7z"/>
<path d="M1145 1250 c-3 -5 -1 -10 4 -10 6 0 11 5 11 10 0 6 -2 10 -4 10 -3 0
-8 -4 -11 -10z"/>
<path d="M1180 1250 c0 -12 8 -12 35 0 18 8 17 9 -7 9 -16 1 -28 -3 -28 -9z"/>
<path d="M2244 1225 c21 -8 80 -22 131 -31 83 -15 98 -15 151 -2 l59 15 -95
-5 c-64 -2 -118 1 -165 12 -38 8 -81 18 -95 21 -14 3 -8 -1 14 -10z"/>
<path d="M5523 688 c-20 -26 -23 -37 -13 -43 5 -3 15 6 20 21 12 30 8 41 -7
22z"/>
<path d="M5566 631 c-11 -12 -13 -21 -7 -25 5 -4 15 3 21 15 15 28 7 34 -14
10z"/>
<path d="M5855 630 c-3 -5 9 -17 27 -26 18 -9 40 -22 48 -29 12 -11 18 -11 34
1 19 13 19 14 -6 14 -14 0 -41 11 -61 25 -20 13 -39 20 -42 15z"/>
<path d="M5493 582 c-12 -16 -19 -32 -16 -36 8 -8 45 42 41 55 -2 5 -13 -3
-25 -19z"/>
<path d="M5369 533 c-12 -15 -12 -16 4 -10 10 4 23 7 28 7 5 0 9 5 9 10 0 16
-26 12 -41 -7z"/>
<path d="M5727 503 c-3 -16 -9 -39 -13 -53 -7 -25 -7 -25 14 -6 14 12 22 31
22 53 0 40 -16 44 -23 6z"/>
<path d="M5298 498 c9 -9 15 -9 24 0 9 9 7 12 -12 12 -19 0 -21 -3 -12 -12z"/>
<path d="M5446 474 c-9 -24 -7 -28 9 -14 17 14 20 30 6 30 -5 0 -12 -7 -15
-16z"/>
<path d="M4143 453 c9 -2 23 -2 30 0 6 3 -1 5 -18 5 -16 0 -22 -2 -12 -5z"/>
<path d="M4218 448 c9 -9 15 -9 24 0 9 9 7 12 -12 12 -19 0 -21 -3 -12 -12z"/>
<path d="M3483 443 c4 -3 22 -8 39 -10 24 -2 29 0 18 7 -17 11 -67 14 -57 3z"/>
<path d="M4073 443 c9 -2 23 -2 30 0 6 3 -1 5 -18 5 -16 0 -22 -2 -12 -5z"/>
<path d="M4492 441 c-11 -7 -10 -10 3 -15 25 -9 71 -7 60 3 -16 15 -49 21 -63
12z"/>
<path d="M4018 433 c6 -2 18 -2 25 0 6 3 1 5 -13 5 -14 0 -19 -2 -12 -5z"/>
<path d="M5391 429 c-19 -7 -22 -12 -13 -21 9 -9 17 -7 34 10 24 23 18 27 -21
11z"/>
<path d="M3968 423 c6 -2 18 -2 25 0 6 3 1 5 -13 5 -14 0 -19 -2 -12 -5z"/>
<path d="M3845 411 c-62 -5 -66 -7 -38 -14 20 -5 55 -4 88 3 52 11 75 22 38
18 -10 -1 -49 -4 -88 -7z"/>
<path d="M4595 410 c28 -11 245 -22 220 -12 -11 5 -69 12 -130 15 -60 3 -101
2 -90 -3z"/>
<path d="M5085 380 c-17 -7 -14 -9 13 -9 20 -1 31 3 27 9 -7 12 -13 12 -40 0z"/>
<path d="M5006 365 c7 -17 13 -18 32 -6 11 7 10 10 -3 15 -26 10 -35 7 -29 -9z"/>
<path d="M0 314 c0 -16 7 -39 15 -50 19 -26 20 -55 0 -48 -20 8 -19 -2 3 -34
11 -15 29 -48 42 -75 13 -26 26 -47 30 -47 3 0 14 -13 23 -30 10 -17 24 -30
32 -30 9 0 5 16 -16 53 -16 28 -29 60 -29 70 0 10 -6 28 -14 40 -8 12 -19 46
-26 75 -7 28 -16 52 -21 52 -4 0 -15 12 -23 28 l-15 27 -1 -31z"/>
<path d="M4875 310 c-3 -6 1 -7 9 -4 18 7 21 14 7 14 -6 0 -13 -4 -16 -10z"/>
<path d="M4487 238 c-59 -4 -122 -15 -140 -22 -28 -13 -6 -14 188 -9 216 6
303 13 152 13 -71 0 -102 12 -59 23 25 7 -18 5 -141 -5z"/>
<path d="M4808 223 c7 -3 16 -2 19 1 4 3 -2 6 -13 5 -11 0 -14 -3 -6 -6z"/>
<path d="M5583 188 c-64 -68 -116 -108 -191 -145 -73 -36 -75 -38 -44 -41 25
-3 47 6 89 34 63 42 141 115 168 157 23 36 15 34 -22 -5z"/>
<path d="M4120 180 c-36 -4 -55 -7 -42 -8 12 -1 22 -9 22 -17 0 -12 9 -11 53
6 55 22 69 30 46 27 -8 -1 -43 -4 -79 -8z"/>
<path d="M3948 163 c17 -2 47 -2 65 0 17 2 3 4 -33 4 -36 0 -50 -2 -32 -4z"/>
<path d="M3780 134 c-19 -8 -44 -13 -56 -10 -16 4 -23 0 -27 -16 -7 -25 0 -38
11 -21 11 17 32 18 82 3 53 -15 165 -17 198 -3 17 6 -7 9 -82 9 -120 -1 -154
13 -95 38 19 9 27 15 19 15 -8 0 -31 -7 -50 -15z"/>
<path d="M5745 140 c3 -5 11 -10 16 -10 6 0 7 5 4 10 -3 6 -11 10 -16 10 -6 0
-7 -4 -4 -10z"/>
<path d="M5781 111 c-11 -7 -5 -20 30 -60 24 -27 51 -50 59 -50 11 0 9 4 -6
17 -12 9 -31 36 -43 60 -12 23 -22 42 -24 42 -1 0 -8 -4 -16 -9z"/>
<path d="M297 93 c-4 -3 -7 -11 -7 -17 0 -6 5 -5 12 2 6 6 9 14 7 17 -3 3 -9
2 -12 -2z"/>
</g>
</svg>
