<?xml version="1.0" standalone="no"?>
<!DOCTYPE svg PUBLIC "-//W3C//DTD SVG 20010904//EN"
 "http://www.w3.org/TR/2001/REC-SVG-20010904/DTD/svg10.dtd">
<svg version="1.0" xmlns="http://www.w3.org/2000/svg"
 width="723.000000pt" height="358.000000pt" viewBox="0 0 723.000000 358.000000"
 preserveAspectRatio="xMidYMid meet">

<g transform="translate(0.000000,358.000000) scale(0.100000,-0.100000)"
fill="#000000" stroke="none">
<path d="M4380 2393 c-19 -6 -212 -84 -222 -89 -4 -3 -5 -10 -2 -17 3 -8 20
-11 47 -9 67 6 71 -5 75 -185 2 -84 1 -153 -3 -153 -4 0 -18 9 -32 19 -13 11
-48 25 -78 31 -169 35 -340 -88 -401 -289 -60 -198 12 -408 169 -485 40 -20
66 -26 119 -26 79 0 124 16 185 66 l43 35 0 -54 0 -55 39 9 c22 5 75 25 119
44 44 19 85 35 92 35 6 0 10 8 8 17 -2 14 -12 17 -45 15 -76 -6 -73 -28 -73
564 0 542 0 539 -40 527z m-196 -477 c24 -14 52 -42 66 -68 24 -42 25 -50 28
-266 4 -250 6 -244 -70 -283 -101 -52 -221 8 -282 140 -18 40 -21 65 -21 181
0 120 3 141 23 185 57 124 158 168 256 111z"/>
<path d="M1311 2364 c-12 -15 -21 -39 -21 -54 0 -15 9 -39 21 -54 16 -21 29
-26 64 -26 35 0 48 5 64 26 12 15 21 39 21 54 0 15 -9 39 -21 54 -16 21 -29
26 -64 26 -35 0 -48 -5 -64 -26z"/>
<path d="M6159 2380 c-9 -5 -22 -23 -29 -39 -23 -58 42 -134 98 -114 93 33 78
164 -19 163 -19 0 -41 -5 -50 -10z"/>
<path d="M20 2326 c0 -9 17 -15 51 -18 38 -4 58 -12 77 -32 l27 -26 0 -475 0
-475 -27 -26 c-19 -20 -39 -28 -77 -32 -34 -3 -51 -9 -51 -18 0 -12 43 -14
240 -14 207 0 240 2 240 15 0 10 -10 15 -34 15 -18 0 -46 5 -62 10 -55 19 -59
35 -62 273 l-3 217 59 0 59 0 106 -147 c58 -82 143 -200 190 -263 l83 -115
152 -3 c126 -2 152 0 152 12 0 9 -19 19 -52 26 -67 16 -101 37 -159 97 -64 67
-302 401 -294 413 3 5 14 10 24 10 35 0 141 62 176 103 67 78 82 205 37 293
-27 53 -87 109 -142 133 -71 31 -182 41 -456 41 -209 0 -254 -2 -254 -14z
m572 -77 c45 -23 95 -83 108 -129 27 -98 -5 -211 -77 -266 -48 -37 -141 -64
-219 -64 l-64 0 0 235 0 234 38 6 c20 4 44 8 52 10 31 7 127 -8 162 -26z"/>
<path d="M1297 1952 c-82 -33 -117 -51 -115 -62 2 -11 15 -14 51 -11 43 2 48
0 58 -26 14 -34 25 -426 14 -508 -8 -69 -37 -105 -85 -105 -20 0 -30 -5 -30
-15 0 -13 27 -15 185 -15 158 0 185 2 185 15 0 10 -10 15 -29 15 -45 0 -72 29
-82 86 -4 27 -8 190 -8 362 -1 243 -4 312 -13 311 -7 0 -66 -21 -131 -47z"/>
<path d="M1733 1952 c-62 -26 -113 -53 -113 -59 0 -9 16 -13 48 -13 71 0 72
-3 72 -318 0 -303 -1 -307 -71 -318 -23 -4 -39 -12 -39 -20 0 -11 36 -14 191
-14 148 0 190 3 187 13 -3 6 -15 13 -29 15 -48 6 -78 24 -88 54 -7 19 -11 125
-11 265 l0 234 28 25 c54 52 112 78 170 79 51 0 56 -2 87 -38 42 -48 48 -102
43 -374 -3 -219 -7 -229 -87 -240 -25 -4 -41 -11 -41 -19 0 -11 37 -14 195
-14 158 0 195 3 195 14 0 8 -16 15 -41 19 -78 10 -78 9 -80 297 l-1 255 34 28
c105 89 226 94 269 9 18 -35 26 -479 10 -533 -11 -37 -37 -55 -91 -61 -14 -2
-24 -7 -23 -13 2 -6 75 -11 188 -13 153 -2 185 0 185 12 0 8 -15 16 -40 20
-67 10 -68 17 -72 316 -3 261 -4 266 -29 321 -30 64 -67 94 -130 108 -86 19
-159 -8 -244 -90 l-63 -61 -20 45 c-48 109 -188 144 -302 74 -19 -12 -59 -43
-87 -71 l-53 -49 0 82 c0 71 -2 81 -17 80 -10 0 -69 -22 -130 -47z"/>
<path d="M3222 1989 c-122 -21 -202 -97 -202 -194 0 -24 7 -39 26 -54 35 -27
59 -26 89 4 21 20 25 34 25 80 0 49 4 60 29 86 25 25 37 29 84 29 92 0 137
-55 137 -167 l0 -58 -62 -24 c-199 -75 -323 -159 -349 -238 -14 -44 -7 -129
15 -172 9 -17 35 -43 58 -59 34 -22 52 -27 102 -26 67 1 93 12 175 73 30 23
58 41 63 41 4 0 8 -12 8 -28 0 -62 55 -99 122 -82 54 15 138 96 138 134 l0 28
-35 -31 c-37 -33 -68 -40 -82 -18 -4 6 -10 136 -13 289 l-5 276 -31 39 c-50
62 -172 92 -292 72z m186 -476 l-3 -148 -50 -32 c-60 -40 -105 -50 -146 -33
-88 37 -106 162 -32 236 30 31 200 124 225 124 5 0 7 -66 6 -147z"/>
<path d="M4883 1990 c-100 -21 -195 -98 -238 -193 -56 -124 -54 -309 4 -426
36 -71 114 -143 178 -165 70 -24 167 -21 228 8 86 40 182 169 188 252 3 42
-18 39 -38 -6 -40 -90 -141 -149 -232 -136 -123 17 -218 122 -243 270 -19 105
-35 99 233 96 322 -4 291 -9 284 45 -25 180 -186 293 -364 255z m114 -84 c43
-28 73 -84 73 -135 l0 -41 -176 0 -176 0 7 33 c32 144 164 214 272 143z"/>
<path d="M5557 1989 c-111 -26 -177 -109 -177 -222 0 -89 46 -140 200 -223
138 -73 176 -104 191 -153 26 -87 -30 -151 -131 -151 -96 0 -174 64 -211 172
-10 30 -24 54 -33 56 -14 3 -16 -14 -16 -132 0 -124 2 -136 18 -136 10 0 23 5
29 11 9 9 28 8 77 -5 88 -22 200 -21 251 3 93 42 144 115 145 204 0 106 -50
162 -228 251 -147 74 -182 105 -189 168 -5 41 -2 46 31 76 36 32 58 37 126 32
73 -5 135 -64 160 -154 7 -25 18 -47 26 -50 12 -4 14 19 14 129 0 74 -4 135
-9 135 -5 0 -14 -7 -21 -15 -16 -19 -37 -19 -125 0 -78 16 -76 16 -128 4z"/>
<path d="M6131 1952 c-62 -26 -114 -51 -115 -57 0 -5 20 -11 46 -13 27 -2 52
-10 60 -19 17 -21 25 -510 9 -564 -11 -38 -42 -59 -86 -59 -16 0 -25 -6 -25
-15 0 -13 28 -15 188 -15 161 0 189 2 189 15 0 9 -10 15 -24 15 -36 0 -80 26
-87 52 -3 13 -6 177 -6 366 0 319 -1 342 -17 341 -10 0 -69 -21 -132 -47z"/>
<path d="M6790 1986 c-114 -26 -196 -94 -250 -207 -80 -169 -53 -360 69 -488
76 -80 116 -96 246 -96 96 0 116 3 154 23 183 98 268 341 191 546 -31 81 -134
186 -205 209 -73 23 -143 28 -205 13z m127 -67 c58 -28 116 -116 137 -208 20
-87 21 -261 2 -324 -27 -92 -85 -139 -171 -139 -142 0 -243 187 -233 429 4 89
9 110 34 160 48 94 139 127 231 82z"/>
</g>
</svg>
