<?xml version="1.0" encoding="UTF-8"?>
<svg version="1.1" xmlns="http://www.w3.org/2000/svg" width="723" height="358">
<path d="M0 0 C238.59 0 477.18 0 723 0 C723 118.14 723 236.28 723 358 C484.41 358 245.82 358 0 358 C0 239.86 0 121.72 0 0 Z " fill="#FEFEFE" transform="translate(0,0)"/>
<path d="M0 0 C7.43405177 -0.05115413 14.86805733 -0.08592219 22.30224609 -0.10986328 C24.82570085 -0.11985525 27.34914422 -0.13345337 29.87255859 -0.15087891 C66.48138386 -0.39715909 66.48138386 -0.39715909 78 8 C78.928125 8.5775 79.85625 9.155 80.8125 9.75 C86.27414321 15.36769016 88.3287505 21.3444808 88.5625 29.125 C88.32632207 35.01668185 87.44527592 39.21549457 84 44 C83.59910156 44.60199219 83.19820313 45.20398438 82.78515625 45.82421875 C77.84927976 52.41969429 70.10102126 56.74016668 62 58 C63.04231332 61.33540263 64.54345611 63.8533695 66.6484375 66.59375 C68.93522155 69.59794303 71.2009115 72.61443919 73.4375 75.65625 C74.31535156 76.84927734 74.31535156 76.84927734 75.2109375 78.06640625 C76.40364583 79.68880208 77.59635417 81.31119792 78.7890625 82.93359375 C80.52359641 85.29087883 82.26089042 87.64608898 84 90 C84.55768066 90.75619629 85.11536133 91.51239258 85.68994141 92.29150391 C86.48150635 93.35763916 86.48150635 93.35763916 87.2890625 94.4453125 C87.75521973 95.07453613 88.22137695 95.70375977 88.70166016 96.35205078 C90.09918636 98.19247181 90.09918636 98.19247181 92.375 100.375 C92.91125 100.91125 93.4475 101.4475 94 102 C94 102.66 94 103.32 94 104 C97.87597574 105.62046443 101.79289449 106.90693772 105.8125 108.125 C106.97394531 108.47820312 108.13539062 108.83140625 109.33203125 109.1953125 C110.21246094 109.46085937 111.09289062 109.72640625 112 110 C112 110.99 112 111.98 112 113 C83.67735132 115.2514241 83.67735132 115.2514241 78.02734375 110.45703125 C75.35068 107.30577831 73.70551881 103.74545307 72 100 C70.89241576 98.34869259 69.74860134 96.72084543 68.5625 95.125 C68.01335937 94.32835937 67.46421875 93.53171875 66.8984375 92.7109375 C64.09022043 88.70084976 61.19191032 84.75724869 58.25585938 80.83984375 C55.85576821 77.62012962 53.5848336 74.38995171 51.4921875 70.9609375 C51.08266846 70.31672852 50.67314941 69.67251953 50.2512207 69.00878906 C49.48473266 67.7941204 48.74859378 66.55949882 48.05151367 65.30371094 C46.86181475 63.29659735 46.86181475 63.29659735 44 61 C39.99419103 60.19766022 36.07906627 60.00569759 32 60 C32.09392573 65.56872661 32.20010519 71.1370384 32.31738281 76.70532227 C32.35554025 78.59751071 32.39041567 80.48976842 32.421875 82.38208008 C32.46781423 85.11043972 32.52575965 87.83832793 32.5859375 90.56640625 C32.59748871 91.40522842 32.60903992 92.2440506 32.62094116 93.10829163 C32.74426523 98.07547636 33.27163071 102.32150943 35 107 C38.83251093 109.47986001 43.53656863 109.54609173 48 110 C48 110.99 48 111.98 48 113 C32.16 113 16.32 113 0 113 C0 112.01 0 111.02 0 110 C0.66386719 109.91363281 1.32773438 109.82726562 2.01171875 109.73828125 C2.89472656 109.59777344 3.77773437 109.45726562 4.6875 109.3125 C5.55761719 109.18488281 6.42773438 109.05726563 7.32421875 108.92578125 C11.02830638 107.64422101 12.56505804 106.08112604 15 103 C15.71588352 100.01829354 15.66379036 97.12123037 15.61523438 94.06640625 C15.62078339 93.17637909 15.6263324 92.28635193 15.63204956 91.36935425 C15.64384115 88.43318505 15.61957562 85.4985608 15.59375 82.5625 C15.5920387 80.5189623 15.59210478 78.47542241 15.59387207 76.43188477 C15.5922191 72.15131599 15.57352495 67.87127109 15.54199219 63.59082031 C15.50231491 58.10619941 15.49794715 52.62226465 15.50545502 47.13752747 C15.50852577 42.91843388 15.49640039 38.6994943 15.47932434 34.48043823 C15.47229716 32.45825161 15.46916947 30.43604753 15.47001648 28.41384888 C15.4682171 25.58677677 15.44682309 22.76052402 15.41992188 19.93359375 C15.42285248 19.09915741 15.42578308 18.26472107 15.42880249 17.40499878 C15.36091725 12.77705634 14.95767349 9.78276768 12 6 C8.49778204 3.40576447 4.2161802 3.42161802 0 3 C0 2.01 0 1.02 0 0 Z " fill="#050505" transform="translate(2,124)"/>
<path d="M0 0 C0.00496522 0.81529537 0.00496522 0.81529537 0.01003075 1.64706135 C0.09122012 14.86700464 0.18342491 28.08683147 0.28752708 41.30661488 C0.33753573 47.69958629 0.38386538 54.0925408 0.421875 60.4855957 C0.45867004 66.65184197 0.50501422 72.81794843 0.55806351 78.98407555 C0.57663823 81.34003949 0.59173472 83.69603344 0.60334396 86.05204201 C0.62015368 89.34449294 0.64917611 92.63662149 0.68115234 95.92895508 C0.68331253 96.90934753 0.68547272 97.88973999 0.68769836 98.89984131 C0.69886185 99.79586563 0.71002533 100.69188995 0.7215271 101.61506653 C0.72705786 102.3939816 0.73258862 103.17289667 0.73828697 103.97541523 C0.88830882 106.31287108 0.88830882 106.31287108 3 109 C5.20725073 109.36362818 5.20725073 109.36362818 7.625 109.1875 C8.44226563 109.16042969 9.25953125 109.13335937 10.1015625 109.10546875 C11.04128906 109.05326172 11.04128906 109.05326172 12 109 C12 110.32 12 111.64 12 113 C11.00033203 113.34611328 11.00033203 113.34611328 9.98046875 113.69921875 C3.94345498 115.83539285 -1.83590531 118.2334618 -7.58984375 121.046875 C-10 122 -10 122 -14 122 C-14.33 118.7 -14.66 115.4 -15 112 C-16.19625 112.928125 -17.3925 113.85625 -18.625 114.8125 C-24.66464395 119.49843065 -29.49823611 121.47678013 -37.1875 121.25 C-37.89841797 121.24484375 -38.60933594 121.2396875 -39.34179688 121.234375 C-42.47595766 121.18720043 -45.00909909 120.99696697 -48 120 C-48 119.34 -48 118.68 -48 118 C-48.7321875 117.92394531 -49.464375 117.84789062 -50.21875 117.76953125 C-55.64935631 116.26696181 -58.79680517 111.41019579 -62 107 C-68.52245986 94.57040668 -69.74728448 82.36670147 -65.98046875 68.8203125 C-64.48986567 64.53260164 -62.47015079 60.79577423 -60 57 C-59.55011719 56.30390625 -59.10023438 55.6078125 -58.63671875 54.890625 C-57.49667117 53.20913889 -56.25662086 51.59624811 -55 50 C-54.34 50 -53.68 50 -53 50 C-53 49.34 -53 48.68 -53 48 C-45.65554162 41.90566219 -38.28507388 39.38143764 -28.71875 39.63671875 C-23.13766211 40.38246756 -18.62486776 42.91675483 -14 46 C-14.11001624 41.43700932 -14.24061611 36.87483294 -14.375 32.3125 C-14.4059375 31.01892578 -14.436875 29.72535156 -14.46875 28.39257812 C-14.52675781 26.52182617 -14.52675781 26.52182617 -14.5859375 24.61328125 C-14.6173584 23.46641846 -14.6487793 22.31955566 -14.68115234 21.13793945 C-14.99423652 18.05672128 -15.69670803 15.7917886 -17 13 C-19.97 12.67 -22.94 12.34 -26 12 C-26 11.01 -26 10.02 -26 9 C-15.74609375 4.60546875 -15.74609375 4.60546875 -13.87060547 3.81005859 C-12.62175335 3.26924793 -11.38093847 2.70949342 -10.14892578 2.13134766 C-6.54427366 0.46924051 -3.93590077 -0.139684 0 0 Z " fill="#090909" transform="translate(442,118)"/>
<path d="M0 0 C0 4.62 0 9.24 0 14 C1.134375 12.96875 2.26875 11.9375 3.4375 10.875 C11.961569 3.41264778 18.29164363 -0.38331963 29.76171875 -0.28125 C35.43852098 0.21178952 38.34913768 2.34913768 42.375 6.375 C44.19055091 9.30781301 44.68266877 11.58868923 45 15 C45.61875 14.34 46.2375 13.68 46.875 13 C54.25715405 5.63893782 61.01328802 -0.21368768 71.75 -0.5 C77.70048987 -0.40020143 81.53446283 0.46320219 86.2265625 4.15234375 C91.69170117 9.84619967 93.10364134 16.70587629 93.15771484 24.40112305 C93.16797699 25.45538986 93.17823914 26.50965668 93.18881226 27.59587097 C93.19611359 28.72310074 93.20341492 29.85033051 93.2109375 31.01171875 C93.23898356 33.40169982 93.26764783 35.79167371 93.296875 38.18164062 C93.33828976 41.94767221 93.37518124 45.71356618 93.40136719 49.47973633 C93.42883506 53.11567748 93.47467918 56.7510094 93.5234375 60.38671875 C93.52669037 61.52002121 93.52994324 62.65332367 93.53329468 63.82096863 C93.54986115 64.86577896 93.56642761 65.91058929 93.58349609 66.98706055 C93.59158295 67.90907761 93.5996698 68.83109467 93.60800171 69.78105164 C93.73736115 70.5133046 93.86672058 71.24555756 94 72 C97.44450737 74.29633824 99.93812283 74.54016485 104 75 C104 75.99 104 76.98 104 78 C91.46 78 78.92 78 66 78 C66 77.01 66 76.02 66 75 C66.69867188 74.97421875 67.39734375 74.9484375 68.1171875 74.921875 C69.02726562 74.86515625 69.93734375 74.8084375 70.875 74.75 C71.77992188 74.70359375 72.68484375 74.6571875 73.6171875 74.609375 C76.10777803 74.25737734 76.10777803 74.25737734 77.13275146 72.27694702 C78.12087268 69.68265072 78.25376952 67.73245199 78.25878906 64.95947266 C78.26824554 63.45738754 78.26824554 63.45738754 78.27789307 61.92495728 C78.2738446 60.848862 78.26979614 59.77276672 78.265625 58.6640625 C78.26753845 57.55195404 78.2694519 56.43984558 78.27142334 55.29403687 C78.27278399 52.94211603 78.26909595 50.59018765 78.26074219 48.23828125 C78.25006142 44.64566062 78.2606314 41.05354235 78.2734375 37.4609375 C78.27211549 35.17447807 78.26955223 32.88801894 78.265625 30.6015625 C78.26967346 29.52951569 78.27372192 28.45746887 78.27789307 27.35293579 C78.24646385 19.97565583 78.24646385 19.97565583 76 13 C71.12219098 10.10666713 65.49543602 10.44401014 60 11 C56.54653852 12.34746524 56.54653852 12.34746524 54 14 C53.34 14 52.68 14 52 14 C52 14.66 52 15.32 52 16 C51.02601257 16.65096397 51.02601257 16.65096397 50.03234863 17.31507874 C47.79761786 18.81806188 47.79761786 18.81806188 47.49206543 21.27000427 C47.48888306 22.15728714 47.48570068 23.04457001 47.48242188 23.95874023 C47.46981323 24.96666122 47.45720459 25.97458221 47.44421387 27.01304626 C47.45231079 28.10057693 47.46040771 29.1881076 47.46875 30.30859375 C47.4649231 31.4268605 47.46109619 32.54512726 47.45715332 33.69728088 C47.45442982 36.06357726 47.46182145 38.42990352 47.47851562 40.79614258 C47.49989744 44.42011677 47.47873743 48.04210373 47.453125 51.66601562 C47.45576859 53.96354605 47.46089421 56.26107524 47.46875 58.55859375 C47.46065308 59.64410019 47.45255615 60.72960663 47.44421387 61.8480072 C47.45682251 62.85908035 47.46943115 63.8701535 47.48242188 64.91186523 C47.48560425 65.7999437 47.48878662 66.68802216 47.49206543 67.60301208 C48.17125871 70.80818493 49.45070409 71.99848333 52 74 C55.64721696 74.80765878 55.64721696 74.80765878 59 75 C59 75.99 59 76.98 59 78 C46.13 78 33.26 78 20 78 C20 77.01 20 76.02 20 75 C20.92232422 74.83564453 20.92232422 74.83564453 21.86328125 74.66796875 C22.67152344 74.50941406 23.47976562 74.35085937 24.3125 74.1875 C25.11300781 74.03667969 25.91351563 73.88585937 26.73828125 73.73046875 C29.35476762 72.88542047 30.30435938 72.14552889 32 70 C32.45337327 67.7747235 32.45337327 67.7747235 32.38818359 65.27246094 C32.39764008 64.31426453 32.40709656 63.35606812 32.4168396 62.36883545 C32.40773056 60.81727753 32.40773056 60.81727753 32.3984375 59.234375 C32.40274277 57.63423553 32.40274277 57.63423553 32.40713501 56.00177002 C32.40917793 53.7422228 32.40363225 51.48265799 32.39111328 49.22314453 C32.37512648 45.77726198 32.39092225 42.33256369 32.41015625 38.88671875 C32.40817262 36.69010159 32.40432648 34.49348516 32.3984375 32.296875 C32.40451019 31.27059998 32.41058289 30.24432495 32.4168396 29.18695068 C32.34836868 22.15770731 31.641988 17.03051565 26.875 11.5625 C22.77092492 9.33202441 19.56643672 9.02765149 15 10 C11.42174908 11.67369801 8.21719858 13.71628909 5 16 C4.3043544 16.42583878 3.6087088 16.85167755 2.89198303 17.29042053 C0.8061348 18.84561316 0.8061348 18.84561316 0.4853363 21.27000427 C0.47913773 22.15728714 0.47293915 23.04457001 0.46655273 23.95874023 C0.4507164 24.96666122 0.43488007 25.97458221 0.41856384 27.01304626 C0.42352371 28.10057693 0.42848358 29.1881076 0.43359375 30.30859375 C0.42739517 31.4268605 0.42119659 32.54512726 0.41481018 33.69728088 C0.40770232 36.06355925 0.41090275 38.42988752 0.42358398 40.79614258 C0.43743453 44.4203692 0.40340775 48.04200785 0.36523438 51.66601562 C0.36428308 53.9635423 0.36614253 56.26107221 0.37109375 58.55859375 C0.35783554 59.64410019 0.34457733 60.72960663 0.33091736 61.8480072 C0.28528097 67.79433107 0.28528097 67.79433107 3.33227539 72.66821289 C6.26118713 74.13039039 8.74992186 74.69766715 12 75 C12 75.99 12 76.98 12 78 C-0.21 78 -12.42 78 -25 78 C-25 77.01 -25 76.02 -25 75 C-20.545 74.01 -20.545 74.01 -16 73 C-15.14133706 69.56534824 -14.87354644 67.11633253 -14.87060547 63.63647461 C-14.86745331 62.5653392 -14.86430115 61.4942038 -14.86105347 60.39060974 C-14.8630777 59.23948196 -14.86510193 58.08835419 -14.8671875 56.90234375 C-14.86623077 55.71653214 -14.86527405 54.53072052 -14.86428833 53.30897522 C-14.86360803 50.80323229 -14.86545187 48.29748759 -14.86962891 45.79174805 C-14.87498395 41.94901591 -14.86967637 38.1064004 -14.86328125 34.26367188 C-14.86394197 31.83072891 -14.86522299 29.39778601 -14.8671875 26.96484375 C-14.86415115 25.23511574 -14.86415115 25.23511574 -14.86105347 23.47044373 C-14.86420563 22.40246048 -14.86735779 21.33447723 -14.87060547 20.23413086 C-14.87140106 19.29355331 -14.87219666 18.35297577 -14.87301636 17.38389587 C-14.90221411 14.85116126 -14.90221411 14.85116126 -16 12 C-19.3 11.67 -22.6 11.34 -26 11 C-23.83270329 6.66540658 -23.6005203 6.44848326 -19.375 4.9375 C-18.48039063 4.61136719 -17.58578125 4.28523437 -16.6640625 3.94921875 C-15.34535156 3.47935547 -15.34535156 3.47935547 -14 3 C-13.26523438 2.69707031 -12.53046875 2.39414063 -11.7734375 2.08203125 C-7.37597764 0.27380934 -4.96873959 0 0 0 Z " fill="#070707" transform="translate(188,159)"/>
<path d="M0 0 C6.16205787 4.90512069 9.52531541 10.76070936 11.48046875 18.375 C11.48046875 20.685 11.48046875 22.995 11.48046875 25.375 C-6.00953125 25.375 -23.49953125 25.375 -41.51953125 25.375 C-39.32572083 39.63476774 -37.37189239 50.03518879 -25.57421875 58.82421875 C-20.43437447 61.78951353 -15.33734695 62.24992732 -9.51953125 61.375 C-2.76221783 59.53605319 1.60257386 56.15455488 5.48046875 50.375 C7.31647984 47.12557506 7.31647984 47.12557506 8.48046875 44.375 C9.47046875 44.705 10.46046875 45.035 11.48046875 45.375 C9.79181126 55.84467641 4.92473765 64.77025026 -3.51953125 71.375 C-10.95933526 76.5766887 -19.83557993 76.37094613 -28.51953125 75.375 C-37.9265376 72.61398255 -44.06280337 66.24629942 -48.83203125 57.9375 C-54.92585982 45.91234496 -55.33125244 32.03379741 -51.55078125 19.1171875 C-47.95878481 9.56574241 -41.98859954 1.46548607 -32.625 -3.0078125 C-21.00619361 -7.27351035 -10.56020135 -6.81092056 0 0 Z " fill="#080808" transform="translate(513.51953125,163.625)"/>
<path d="M0 0 C7.40757907 4.52117757 10.87212759 12.02696227 13.375 20.0625 C14.67470616 25.92948344 14.63239065 31.83129837 14.6875 37.8125 C14.71650391 38.84632813 14.74550781 39.88015625 14.77539062 40.9453125 C14.8446806 49.40934974 13.38326096 56.45258684 7.875 63.0625 C2.50181176 67.36105059 -1.88531416 67.70539531 -8.625 67.0625 C-15.72016351 64.9756872 -19.32275023 58.53272039 -23.2265625 52.6484375 C-27.69850287 44.37909525 -27.93664796 34.45424997 -28.0625 25.25 C-28.08465576 24.37923828 -28.10681152 23.50847656 -28.12963867 22.61132812 C-28.1045603 15.07348519 -25.79624747 9.50654771 -21.8125 3.1875 C-15.54016966 -2.9056209 -7.61604821 -3.69301666 0 0 Z " fill="#FCFCFC" transform="translate(692.625,165.9375)"/>
<path d="M0 0 C0.80308594 -0.01160156 1.60617187 -0.02320313 2.43359375 -0.03515625 C11.17161527 0.00733008 17.39362815 2.47368564 23.6875 8.5 C24.2036084 8.98645996 24.7197168 9.47291992 25.25146484 9.97412109 C33.93623751 18.43769611 36.47133865 27.33808605 36.875 39.1875 C36.65469677 51.97885632 31.52269102 63.83585083 22.3125 72.75 C12.84623855 80.49227344 2.36609899 81.56986825 -9.4765625 80.63232422 C-17.84248616 79.56841453 -23.27109253 74.36099968 -28.5234375 68.125 C-36.21053937 57.42990175 -39.02856388 45.30424267 -37.03515625 32.35546875 C-34.97628071 22.86514896 -30.87473541 14.82789348 -23.5 8.375 C-22.571875 7.50875 -21.64375 6.6425 -20.6875 5.75 C-14.10538214 0.84567689 -7.97260412 -0.11517406 0 0 Z M-16.25 11.0625 C-21.19980253 17.68884854 -22.00335734 24.49196886 -21.875 32.5 C-21.86412354 33.42216309 -21.85324707 34.34432617 -21.84204102 35.29443359 C-21.53601864 48.53538666 -19.33928099 60.20832445 -9.81640625 70.12890625 C-5.14472655 74.21808224 -1.0506726 74.73561476 4.9296875 74.6484375 C9.13279344 74.20129857 11.14233729 72.99397692 14.5 70.375 C20.30747006 62.85623783 20.86162706 54.86938622 20.8125 45.75 C20.80686035 44.67347168 20.8012207 43.59694336 20.79541016 42.48779297 C20.6164179 30.79304128 18.9254254 20.7816874 11.5 11.375 C6.69119657 6.9439582 2.202198 5.04330829 -4.37890625 5.1640625 C-9.40641545 5.66403579 -12.69091684 7.58430509 -16.25 11.0625 Z " fill="#090909" transform="translate(686.5,158.625)"/>
<path d="M0 0 C5.47409614 1.92971734 8.50143979 6.42693838 10.94604492 11.48632812 C13.15750576 18.8588888 12.77198987 26.63990566 12.70678711 34.27856445 C12.6874308 37.32338584 12.72715552 40.3637168 12.77148438 43.40820312 C12.77177451 45.3515652 12.76864018 47.29493147 12.76171875 49.23828125 C12.77700119 50.14355057 12.79228363 51.04881989 12.80802917 51.98152161 C12.69457014 58.11737878 12.69457014 58.11737878 10.68611145 60.6696167 C5.42682827 65.1283882 1.28027542 66.47716914 -5.47265625 66.30859375 C-11.73309596 65.54418148 -15.80475794 61.77500016 -19.6484375 56.99609375 C-27.36620114 45.59789369 -27.48699789 31.34819695 -25.38671875 18.14453125 C-23.39264505 10.65138207 -20.15207381 5.74055904 -14 1 C-9.77625459 -1.11187271 -4.58758297 -0.4940474 0 0 Z " fill="#FBFBFB" transform="translate(416,164)"/>
<path d="M0 0 C11.55555556 0 11.55555556 0 16 4 C18.75755355 7.85098458 18.29543523 12.2822407 18.29052734 16.82006836 C18.30060318 18.15489006 18.30060318 18.15489006 18.31088257 19.51667786 C18.32987771 22.45778997 18.33378736 25.39867412 18.3359375 28.33984375 C18.34236375 30.38481236 18.34909198 32.42978004 18.35610962 34.4747467 C18.36808573 38.76109957 18.37179003 43.04737182 18.37060547 47.33374023 C18.37040212 52.82625994 18.39771931 58.31826314 18.43214989 63.81066036 C18.45438494 68.03400549 18.45844407 72.25722557 18.45738602 76.48062325 C18.45974651 78.50562891 18.46859521 80.5306378 18.48405075 82.55558586 C18.50364438 85.38760477 18.49789903 88.21850015 18.48583984 91.05053711 C18.49707886 91.88654449 18.50831787 92.72255188 18.51989746 93.58389282 C18.47767542 97.48547773 18.28540276 99.52960816 16.21963501 102.93434143 C10.97863864 107.81176904 7.64358013 107.23564199 0 108 C0 72.36 0 36.72 0 0 Z " fill="#FCFCFC" transform="translate(0,127)"/>
<path d="M0 0 C4.19743451 0.33990524 7.89149849 0.02712538 12 -1 C12 7.25 12 15.5 12 24 C11.01 24 10.02 24 9 24 C8.84144531 23.34773438 8.68289063 22.69546875 8.51953125 22.0234375 C6.66721209 15.08491601 4.65884849 10.8124482 -1.14453125 6.3515625 C-4.89103136 4.57825328 -8.2640986 4.6714029 -12.3125 4.8125 C-13.05306641 4.82603516 -13.79363281 4.83957031 -14.55664062 4.85351562 C-16.37141075 4.88864021 -18.18580288 4.94244028 -20 5 C-20.33 5.99 -20.66 6.98 -21 8 C-21.66 8 -22.32 8 -23 8 C-23.52717607 12.85197235 -23.99232044 17.51770666 -21 21.625 C-16.09119844 26.59237914 -9.10683979 29.19716087 -2.86914062 32.1171875 C4.79471609 35.7368983 11.82978655 39.70487211 16.9375 46.625 C19.04457565 53.31806382 19.09531273 60.62916797 16 67 C12.35527282 72.64036469 7.49349316 77.1025507 1 79 C-9.48789493 80.28811722 -19.98220958 79.35925906 -30 76 C-30.33 76.99 -30.66 77.98 -31 79 C-31.99 79 -32.98 79 -34 79 C-34 69.76 -34 60.52 -34 51 C-32.68 51 -31.36 51 -30 51 C-29.86464844 51.61746094 -29.72929688 52.23492187 -29.58984375 52.87109375 C-27.54269171 60.92485956 -23.95776341 66.96264669 -17.3125 72.0625 C-11.44616872 73.72278244 -4.84527567 74.38418816 0.74609375 71.6640625 C3.2244293 70.03159245 3.2244293 70.03159245 5 67 C5.61455676 60.75200628 5.03678852 58.06590402 1 53 C-1.96067995 50.86028775 -1.96067995 50.86028775 -5.375 49.125 C-5.98279297 48.79040771 -6.59058594 48.45581543 -7.21679688 48.11108398 C-9.76795703 46.70866694 -12.33602001 45.34278093 -14.92285156 44.00732422 C-22.7146042 39.98312259 -29.28262337 36.41550795 -33 28 C-35.09910006 21.07828399 -34.35086555 15.41744377 -31.18359375 9.0390625 C-24.30237661 -2.81570762 -11.81618415 -3.37605262 0 0 Z " fill="#090909" transform="translate(572,160)"/>
<path d="M0 0 C3.57495812 3.00390354 5.30145032 6.04888222 6.78515625 10.5 C6.90107073 12.29403055 6.96168496 14.09186356 6.99047852 15.8894043 C7.02039635 17.54077644 7.02039635 17.54077644 7.05091858 19.22550964 C7.06763107 20.41308365 7.08434357 21.60065765 7.1015625 22.82421875 C7.1223436 24.04075638 7.14312469 25.25729401 7.16453552 26.51069641 C7.23000342 30.40290596 7.2889034 34.29518385 7.34765625 38.1875 C7.39084407 40.82357482 7.43445845 43.45964269 7.47851562 46.09570312 C7.58568203 52.56372951 7.6874537 59.03182411 7.78515625 65.5 C12.73606414 64.20541631 15.9690056 62.96922786 19.78515625 59.5 C19.78515625 63.36732844 19.66849968 65.48930958 17.078125 68.453125 C11.18926237 73.65367901 7.02598298 76.05465744 -0.9296875 75.87890625 C-3.21484375 75.5 -3.21484375 75.5 -5.33984375 73.375 C-6.28884296 70.25685972 -6.44098931 67.7414197 -6.21484375 64.5 C-7.39046875 64.809375 -7.39046875 64.809375 -8.58984375 65.125 C-9.45609375 65.24875 -10.32234375 65.3725 -11.21484375 65.5 C-12.20484375 64.51 -12.20484375 64.51 -13.21484375 63.5 C-12.40442627 62.81139893 -11.59400879 62.12279785 -10.7590332 61.41333008 C-7.72145399 57.93502351 -7.57005654 56.4305334 -7.5078125 51.88671875 C-7.47880859 50.63955078 -7.44980469 49.39238281 -7.41992188 48.10742188 C-7.41412109 46.81384766 -7.40832031 45.52027344 -7.40234375 44.1875 C-7.37720703 42.87458984 -7.35207031 41.56167969 -7.32617188 40.20898438 C-7.26732407 36.97235511 -7.23102438 33.73707782 -7.21484375 30.5 C-10.18484375 31.16 -13.15484375 31.82 -16.21484375 32.5 C-16.21484375 31.84 -16.21484375 31.18 -16.21484375 30.5 C-16.87484375 30.17 -17.53484375 29.84 -18.21484375 29.5 C-16.94946006 28.65841464 -15.67730596 27.82700252 -14.40234375 27 C-13.69464844 26.5359375 -12.98695313 26.071875 -12.2578125 25.59375 C-10.21484375 24.5 -10.21484375 24.5 -7.21484375 24.5 C-7.87484375 18.23 -8.53484375 11.96 -9.21484375 5.5 C-10.20484375 5.17 -11.19484375 4.84 -12.21484375 4.5 C-12.21484375 3.84 -12.21484375 3.18 -12.21484375 2.5 C-14.44292534 2.39146017 -16.67254307 2.31416693 -18.90234375 2.25 C-20.14371094 2.20359375 -21.38507813 2.1571875 -22.6640625 2.109375 C-26.86877869 2.57194004 -28.44722065 3.31619298 -31.21484375 6.5 C-31.88408841 9.62798206 -31.88408841 9.62798206 -31.77734375 13 C-31.78416031 18.94404346 -31.78416031 18.94404346 -34.0546875 21.875 C-36.21484375 23.5 -36.21484375 23.5 -39.21484375 24 C-42.21484375 23.5 -42.21484375 23.5 -44.58984375 22.0625 C-47.01083376 18.24478498 -46.95938936 14.89819214 -46.21484375 10.5 C-43.27378576 4.5002417 -38.38404336 -0.33637157 -32.09765625 -2.64453125 C-21.98816024 -4.87187494 -9.04796637 -5.61707965 0 0 Z " fill="#090909" transform="translate(348.21484375,162.5)"/>
<path d="M0 0 C0 1.32 0 2.64 0 4 C0.556875 3.67 1.11375 3.34 1.6875 3 C4.31166778 1.86522475 6.17208611 1.92496414 9 2 C9.07421454 5.93260944 9.12863136 9.86494722 9.16479492 13.7980957 C9.18728333 15.79327701 9.22540198 17.78826213 9.26367188 19.78320312 C9.27333984 21.03681641 9.28300781 22.29042969 9.29296875 23.58203125 C9.3086792 24.73936768 9.32438965 25.8967041 9.34057617 27.08911133 C9 30 9 30 7.60668945 31.90112305 C6 33 6 33 4 33 C4.66 34.65 5.32 36.3 6 38 C4.71283353 39.00578589 3.42011342 40.00446798 2.125 41 C1.40570313 41.556875 0.68640625 42.11375 -0.0546875 42.6875 C-2 44 -2 44 -4 44 C-4.33 44.99 -4.66 45.98 -5 47 C-10.38248871 48.7941629 -16.68460136 48.93786953 -22.16796875 47.38671875 C-27.94291851 44.49286975 -31.02818909 38.91543272 -33 33 C-33.09377689 31.16859259 -33.12992957 29.33380013 -33.125 27.5 C-33.12757813 26.5409375 -33.13015625 25.581875 -33.1328125 24.59375 C-33 22 -33 22 -32 19 C-31.34 19 -30.68 19 -30 19 C-29.77828125 18.26652344 -29.5565625 17.53304687 -29.328125 16.77734375 C-25.12621573 7.99040996 -13.40778844 3.47477266 -4.8359375 -0.1015625 C-2 -1 -2 -1 0 0 Z " fill="#0D0D0D" transform="translate(332,191)"/>
<path d="M0 0 C6.42835062 2.35048894 10.51149439 7.0002928 14.07421875 12.7265625 C16.34153202 18.29439508 15.91524857 25.80899823 14.27734375 31.51953125 C11.21728206 37.99893313 6.17915239 42.48636433 0 46 C-7.69727823 48.74902794 -13.18045592 48 -22 48 C-22 32.49 -22 16.98 -22 1 C-16.08037797 -1.95981102 -6.42871967 -0.76484454 0 0 Z " fill="#FBFBFB" transform="translate(56,131)"/>
<path d="M0 0 C0.01030746 0.88283157 0.02061493 1.76566315 0.03123474 2.67524719 C0.12915137 10.98900061 0.23165755 19.30268198 0.33933926 27.61631489 C0.39453899 31.89058671 0.44795431 36.16486542 0.49731445 40.43920898 C0.54500147 44.56301541 0.5973459 48.68673866 0.65294075 52.81044579 C0.67334463 54.38490927 0.69206097 55.95939554 0.70907402 57.53389931 C0.73316158 59.736632 0.76321011 61.93920781 0.79467773 64.1418457 C0.81799416 66.02381401 0.81799416 66.02381401 0.84178162 67.94380188 C0.86595704 71.04246696 0.86595704 71.04246696 2 74 C5.3 74.66 8.6 75.32 12 76 C12 76.99 12 77.98 12 79 C-0.54 79 -13.08 79 -26 79 C-26 78.01 -26 77.02 -26 76 C-21.05 75.01 -21.05 75.01 -16 74 C-15.00157397 71.00472192 -14.86770435 69.00275184 -14.85473633 65.87353516 C-14.84835648 64.82880035 -14.84197662 63.78406555 -14.83540344 62.70767212 C-14.83429062 61.57953094 -14.8331778 60.45138977 -14.83203125 59.2890625 C-14.82870285 58.12877533 -14.82537445 56.96848816 -14.82194519 55.77304077 C-14.81687905 53.31679684 -14.81453677 50.86054602 -14.81469727 48.40429688 C-14.8125128 44.6470199 -14.79435904 40.89003743 -14.77539062 37.1328125 C-14.77245625 34.74739684 -14.77047175 32.36197978 -14.76953125 29.9765625 C-14.75875298 28.29042343 -14.75875298 28.29042343 -14.74775696 26.57022095 C-14.75083359 25.51918182 -14.75391022 24.4681427 -14.75708008 23.38525391 C-14.75565506 22.46386627 -14.75423004 21.54247864 -14.75276184 20.59317017 C-15.02368791 17.75154816 -15.82228606 15.58717154 -17 13 C-19.97 12.67 -22.94 12.34 -26 12 C-26 11.01 -26 10.02 -26 9 C-5.26213592 0 -5.26213592 0 0 0 Z " fill="#060606" transform="translate(628,158)"/>
<path d="M0 0 C0.01213028 1.24241707 0.01213028 1.24241707 0.02450562 2.50993347 C0.10250655 10.32278116 0.18981386 18.13545783 0.28752708 25.94808483 C0.33743325 29.96445969 0.38376367 33.98080898 0.421875 37.99731445 C0.45879974 41.87481706 0.50517897 45.7521027 0.55806351 49.62941933 C0.57656932 51.10731506 0.59169133 52.58525723 0.60334396 54.06322289 C0.62027209 56.13636783 0.64932174 58.20902002 0.68115234 60.28198242 C0.69447601 61.46112717 0.70779968 62.64027191 0.7215271 63.85514832 C1.10005657 68.12995946 1.95006199 70.95006199 5 74 C7.32275177 74.40047444 9.65739357 74.7397104 12 75 C12 75.99 12 76.98 12 78 C-0.21 78 -12.42 78 -25 78 C-25 77.01 -25 76.02 -25 75 C-23.906875 74.896875 -22.81375 74.79375 -21.6875 74.6875 C-18.16452291 74.26670395 -18.16452291 74.26670395 -16.125 72.8125 C-12.86605434 67.56197643 -13.83865232 60.05920454 -13.83203125 54.08984375 C-13.82870285 53.04478165 -13.82537445 51.99971954 -13.82194519 50.92298889 C-13.81689594 48.72006672 -13.81453624 46.51713694 -13.81469727 44.31420898 C-13.81250532 40.9456733 -13.79431328 37.57746242 -13.77539062 34.20898438 C-13.77245738 32.06510528 -13.77047212 29.92122464 -13.76953125 27.77734375 C-13.76234573 26.7720311 -13.75516022 25.76671844 -13.74775696 24.73094177 C-13.75083359 23.78968948 -13.75391022 22.84843719 -13.75708008 21.87866211 C-13.75494255 20.64339027 -13.75494255 20.64339027 -13.75276184 19.38316345 C-14.03667229 16.64651061 -14.87831305 14.50015525 -16 12 C-19.3 11.67 -22.6 11.34 -26 11 C-26 10.01 -26 9.02 -26 8 C-23.79296628 7.03857983 -21.58446467 6.08080463 -19.375 5.125 C-18.75753906 4.85558594 -18.14007813 4.58617187 -17.50390625 4.30859375 C-11.42657314 1.68574472 -6.6465048 -0.11862589 0 0 Z " fill="#030303" transform="translate(144,159)"/>
<path d="M0 0 C0.14505993 4.58300125 0.23399681 9.16541363 0.3125 13.75 C0.35439453 15.05195313 0.39628906 16.35390625 0.43945312 17.6953125 C0.45556641 18.94570312 0.47167969 20.19609375 0.48828125 21.484375 C0.51446533 22.63647461 0.54064941 23.78857422 0.56762695 24.97558594 C0 28 0 28 -2.41040039 30.32592773 C-3.26496826 30.87837158 -4.11953613 31.43081543 -5 32 C-5.63421875 32.42925781 -6.2684375 32.85851562 -6.921875 33.30078125 C-11.4632091 35.81404094 -14.87365616 36.49011711 -20.01953125 35.61328125 C-23.64589495 34.49032444 -25.22392751 32.33121923 -27.0703125 29.1640625 C-28.97520647 24.72998159 -28.95741756 19.55650859 -27.265625 15.0390625 C-22.07972361 6.73410448 -9.74067721 -0.28066358 0 0 Z " fill="#F9F9F9" transform="translate(341,193)"/>
<path d="M0 0 C4.46474481 1.69032671 7.20256115 3.90352158 10 7.75 C11 11 11 11 11 20 C-0.55 20 -12.1 20 -24 20 C-22.82945736 10.63565891 -22.82945736 10.63565891 -19 6 C-18.53851563 5.43796875 -18.07703125 4.8759375 -17.6015625 4.296875 C-12.52660906 -1.00088127 -7.01589676 -1.23755208 0 0 Z " fill="#F4F4F4" transform="translate(496,165)"/>
<path d="M0 0 C1.32 0 2.64 0 4 0 C4.13535156 0.61746094 4.27070312 1.23492187 4.41015625 1.87109375 C6.39845784 9.69333412 9.75267628 16.35961029 16.77734375 20.7265625 C21.49216046 22.58962947 25.93596505 22.41670831 30.953125 22.49609375 C31.95859375 22.66238281 32.9640625 22.82867187 34 23 C35.421875 25.03515625 35.421875 25.03515625 36 27 C33.62207531 29.37792469 26.94018842 28.24716955 23.59057617 28.25976562 C16.73712312 28.19279587 10.51962228 27.18622064 4 25 C3.67 25.99 3.34 26.98 3 28 C2.01 28 1.02 28 0 28 C0 18.76 0 9.52 0 0 Z " fill="#141414" transform="translate(538,211)"/>
<path d="M0 0 C4.19743451 0.33990524 7.89149849 0.02712538 12 -1 C12 7.25 12 15.5 12 24 C11.01 24 10.02 24 9 24 C8.84144531 23.34773438 8.68289063 22.69546875 8.51953125 22.0234375 C6.67429357 15.11144222 4.70922879 10.64306492 -1.26953125 6.3828125 C-4.42344162 4.78555317 -6.79684447 4.50566789 -10.3125 4.3125 C-11.91544922 4.21388672 -11.91544922 4.21388672 -13.55078125 4.11328125 C-14.35902344 4.07589844 -15.16726563 4.03851563 -16 4 C-16 3.34 -16 2.68 -16 2 C-16.66 1.67 -17.32 1.34 -18 1 C-18.33 0.34 -18.66 -0.32 -19 -1 C-12.32839358 -3.22386881 -6.51169405 -1.86048402 0 0 Z " fill="#121212" transform="translate(572,160)"/>
<path d="M0 0 C3 1.5 3 1.5 5 4 C5.70710353 6.82841411 5.70710353 9.17158589 5 12 C3 14.5 3 14.5 0 16 C-2.76152644 16.30626911 -5.20534076 16.18946842 -8 16 C-8.66 14.68 -9.32 13.36 -10 12 C-10.66 12 -11.32 12 -12 12 C-12.48 4.8 -12.48 4.8 -10.5 1.5 C-7.00882209 -0.59470675 -3.90902027 -0.74310088 0 0 Z " fill="#0C0C0C" transform="translate(141,119)"/>
<path d="M0 0 C2.1640625 0.34375 2.1640625 0.34375 4.7265625 1.90625 C6.75331708 5.34292081 6.7839301 7.41792186 6.1640625 11.34375 C4.16143708 14.28510609 2.70124993 15.94195051 -0.80859375 16.859375 C-2.8984375 17.03125 -2.8984375 17.03125 -6.8359375 16.34375 C-9.3984375 13.78125 -9.3984375 13.78125 -10.8359375 10.34375 C-10.77694354 6.86310609 -10.69981601 4.47627366 -8.5546875 1.6640625 C-5.80574379 -0.44762608 -3.35452839 -0.13112163 0 0 Z " fill="#0C0C0C" transform="translate(622.8359375,118.65625)"/>
<path d="M0 0 C-1.485 1.485 -1.485 1.485 -3 3 C-3.99 2.67 -4.98 2.34 -6 2 C-5.34 3.32 -4.68 4.64 -4 6 C-6.64 6 -9.28 6 -12 6 C-12 5.01 -12 4.02 -12 3 C-10.3789897 2.30314502 -8.75303934 1.61777139 -7.125 0.9375 C-6.22007813 0.55464844 -5.31515625 0.17179688 -4.3828125 -0.22265625 C-2 -1 -2 -1 0 0 Z " fill="#2E2E2E" transform="translate(130,164)"/>
<path d="M0 0 C-0.99 1.32 -1.98 2.64 -3 4 C-2.01 4.33 -1.02 4.66 0 5 C-2.97 5 -5.94 5 -9 5 C-7 1 -7 1 -4.5 -0.3125 C-2 -1 -2 -1 0 0 Z " fill="#292929" transform="translate(171,165)"/>
<path d="M0 0 C0.66 0.33 1.32 0.66 2 1 C-2.33333333 5.33333333 -6.66666667 9.66666667 -11 14 C-8.8527917 7.73730913 -5.24125182 3.93093886 0 0 Z " fill="#2E2E2E" transform="translate(666,164)"/>
<path d="M0 0 C-1.3125 1.5 -1.3125 1.5 -3 3 C-3.99 3 -4.98 3 -6 3 C-7.02019573 3.9793879 -8.02149805 4.97895449 -9 6 C-9.66 6 -10.32 6 -11 6 C-11 5.34 -11 4.68 -11 4 C-11.66 3.67 -12.32 3.34 -13 3 C-11.21189234 2.30329584 -9.41937948 1.61788811 -7.625 0.9375 C-6.62726562 0.55464844 -5.62953125 0.17179688 -4.6015625 -0.22265625 C-2 -1 -2 -1 0 0 Z " fill="#2A2A2A" transform="translate(621,161)"/>
<path d="M0 0 C0.66 0.33 1.32 0.66 2 1 C1 2 0 3 -1 4 C-1.99 5.0209375 -1.99 5.0209375 -3 6.0625 C-5 8 -5 8 -8 10 C-8.66 9.34 -9.32 8.68 -10 8 C-6.7 5.36 -3.4 2.72 0 0 Z " fill="#282828" transform="translate(248,161)"/>
<path d="M0 0 C4.455 0.99 4.455 0.99 9 2 C9 2.99 9 3.98 9 5 C7.02 5 5.04 5 3 5 C3 4.01 3 3.02 3 2 C2.01 2 1.02 2 0 2 C0 1.34 0 0.68 0 0 Z " fill="#2C2C2C" transform="translate(631,232)"/>
<path d="M0 0 C0.66 0.33 1.32 0.66 2 1 C-0.97 3.97 -3.94 6.94 -7 10 C-7 6.04435836 -5.59478606 4.89133304 -3 2 C-2.01 1.34 -1.02 0.68 0 0 Z " fill="#CCCCCC" transform="translate(676,165)"/>
<path d="M0 0 C2.31 0 4.62 0 7 0 C7 0.99 7 1.98 7 3 C4.69 3 2.38 3 0 3 C0 2.01 0 1.02 0 0 Z " fill="#141414" transform="translate(208,234)"/>
<path d="M0 0 C0 0.99 0 1.98 0 3 C-2.31 3 -4.62 3 -7 3 C-7.33 2.34 -7.66 1.68 -8 1 C-5.29120665 -0.35439668 -2.99066732 -0.06501451 0 0 Z " fill="#0A0A0A" transform="translate(200,234)"/>
<path d="M0 0 C2.31 0 4.62 0 7 0 C7.33 0.99 7.66 1.98 8 3 C5.36 3 2.72 3 0 3 C0 2.01 0 1.02 0 0 Z " fill="#0E0E0E" transform="translate(2,234)"/>
<path d="M0 0 C2.8125 -0.1875 2.8125 -0.1875 6 0 C6.99 0.99 7.98 1.98 9 3 C6.03 3 3.06 3 0 3 C0 2.01 0 1.02 0 0 Z " fill="#1F1F1F" transform="translate(254,234)"/>
<path d="M0 0 C0.66 0 1.32 0 2 0 C2.66 1.65 3.32 3.3 4 5 C3.01 5.66 2.02 6.32 1 7 C1 6.34 1 5.68 1 5 C0.34 5 -0.32 5 -1 5 C-0.67 3.35 -0.34 1.7 0 0 Z " fill="#1C1C1C" transform="translate(478,162)"/>
<path d="M0 0 C0 1.32 0 2.64 0 4 C-0.99 4 -1.98 4 -3 4 C-3 3.34 -3 2.68 -3 2 C-4.98 2 -6.96 2 -9 2 C-9 1.67 -9 1.34 -9 1 C-5.94152152 0.45627049 -3.11227195 0 0 0 Z " fill="#434343" transform="translate(454,227)"/>
<path d="M0 0 C0.99 0.33 1.98 0.66 3 1 C2.67 3.31 2.34 5.62 2 8 C0.23537317 4.91190305 0 3.76687864 0 0 Z " fill="#303030" transform="translate(522,208)"/>
</svg>
