<?xml version="1.0" standalone="no"?>
<!DOCTYPE svg PUBLIC "-//W3C//DTD SVG 20010904//EN"
 "http://www.w3.org/TR/2001/REC-SVG-20010904/DTD/svg10.dtd">
<svg version="1.0" xmlns="http://www.w3.org/2000/svg"
 width="471.000000pt" height="107.000000pt" viewBox="0 0 471.000000 107.000000"
 preserveAspectRatio="xMidYMid meet">

<g transform="translate(0.000000,107.000000) scale(0.100000,-0.100000)"
fill="#000000" stroke="none">
<path d="M1635 1064 c-77 -11 -175 -39 -226 -64 -68 -35 -158 -129 -193 -204
-122 -258 -35 -601 183 -720 172 -93 509 -93 668 0 226 132 310 463 183 721
-63 128 -168 210 -314 248 -60 15 -246 27 -301 19z m210 -143 c94 -43 142
-112 169 -244 29 -138 13 -305 -39 -408 -49 -95 -146 -145 -264 -137 -181 13
-271 147 -271 403 0 208 56 328 180 384 59 27 169 28 225 2z"/>
<path d="M4035 1064 c-154 -22 -257 -68 -333 -148 -155 -164 -186 -442 -74
-663 31 -60 113 -145 170 -176 168 -92 490 -95 662 -7 96 49 184 162 223 285
28 92 30 261 3 350 -55 183 -167 292 -351 340 -60 15 -243 27 -300 19z m220
-148 c121 -56 170 -166 170 -381 0 -172 -24 -255 -93 -324 -109 -108 -282
-109 -393 -2 -61 59 -89 143 -96 287 -15 287 89 444 292 444 52 0 83 -6 120
-24z"/>
<path d="M0 835 l0 -185 64 0 64 0 11 61 c22 130 88 189 209 189 l62 0 0 -360
c0 -417 12 -380 -119 -380 l-81 0 0 -60 0 -60 330 0 330 0 0 60 0 60 -89 0
c-82 0 -91 2 -105 22 -14 19 -16 72 -16 371 l0 349 78 -3 c68 -4 84 -8 115
-32 47 -36 77 -94 84 -163 l6 -54 63 0 64 0 0 185 0 185 -535 0 -535 0 0 -185z"/>
<path d="M2400 835 l0 -185 70 0 70 0 0 38 c0 58 18 109 53 149 42 47 82 63
162 63 l66 0 -3 -356 c-3 -417 7 -384 -125 -384 l-83 0 0 -60 0 -60 330 0 330
0 0 60 0 60 -89 0 c-82 0 -91 2 -105 22 -14 19 -16 72 -16 370 l0 348 65 0
c36 0 80 -6 99 -14 65 -27 116 -118 116 -205 l0 -31 70 0 70 0 0 185 0 185
-540 0 -540 0 0 -185z"/>
</g>
</svg>
