<?xml version="1.0" standalone="no"?>
<!DOCTYPE svg PUBLIC "-//W3C//DTD SVG 20010904//EN"
 "http://www.w3.org/TR/2001/REC-SVG-20010904/DTD/svg10.dtd">
<svg version="1.0" xmlns="http://www.w3.org/2000/svg"
 width="1200.000000pt" height="1200.000000pt" viewBox="0 0 1200.000000 1200.000000"
 preserveAspectRatio="xMidYMid meet">

<g transform="translate(0.000000,1200.000000) scale(0.100000,-0.100000)"
fill="#000000" stroke="none">
<path d="M0 6000 l0 -6000 6000 0 6000 0 0 2148 0 2149 -965 6 c-958 6 -965 6
-1012 28 -45 20 -596 295 -708 353 -27 14 -56 26 -62 26 -7 0 -13 4 -13 8 0 5
-18 15 -40 22 -22 7 -40 17 -40 21 0 4 25 -1 57 -12 68 -23 69 -23 53 -4 -11
13 -5 15 44 15 54 0 57 1 51 21 -9 27 15 21 30 -7 9 -18 22 -19 205 -17 115 1
211 6 237 14 27 7 66 9 103 5 38 -4 60 -3 60 3 0 5 -24 12 -52 14 -34 2 -19 4
40 5 51 1 102 -3 113 -9 15 -7 24 -7 35 1 18 16 651 17 784 1 52 -6 128 -13
168 -15 41 -3 77 -7 80 -10 3 -4 6 -33 6 -66 l1 -61 -30 6 c-38 7 -153 41
-226 66 -61 21 -100 24 -114 10 -6 -5 -68 -11 -139 -13 -93 -2 -131 -7 -134
-16 -5 -16 -55 -42 -82 -42 -11 0 -20 -4 -20 -10 0 -13 -12 -13 -46 0 l-27 11
32 33 33 34 -448 1 c-259 1 -455 6 -465 12 -23 12 -86 12 -94 -1 -3 -5 1 -10
9 -10 8 0 50 -16 92 -35 42 -20 85 -33 94 -30 22 7 70 -14 70 -31 0 -6 6 -14
14 -17 23 -9 1466 -20 1610 -12 130 7 135 8 125 26 -5 11 -13 18 -17 15 -4 -2
-22 2 -40 9 -29 13 -32 18 -32 57 0 24 5 50 10 58 8 13 10 13 10 -1 0 -12 17
-19 63 -28 34 -6 81 -16 105 -21 23 -6 73 -10 111 -10 38 0 84 -6 102 -14 19
-8 73 -17 122 -21 48 -4 90 -11 93 -16 3 -5 14 -9 25 -9 18 0 19 8 19 130 0
144 5 135 -70 131 -31 -2 -191 13 -382 36 -112 13 -141 20 -160 38 -13 12 -30
20 -38 18 -13 -4 -13 -3 -1 5 10 7 21 6 37 -5 13 -8 28 -12 35 -8 19 12 240
15 233 3 -4 -6 -21 -8 -39 -5 -36 6 -61 -5 -51 -22 9 -14 36 -15 36 -1 0 6 10
10 23 9 12 0 16 -3 10 -6 -24 -9 -13 -23 15 -18 73 13 132 13 132 -1 0 -14 57
-29 87 -21 10 3 1 5 -19 6 -21 0 -38 6 -38 11 0 15 64 12 96 -5 16 -8 45 -14
64 -14 32 1 33 2 10 9 -24 8 -24 8 -2 9 17 1 22 7 22 27 0 21 -4 24 -20 19
-11 -4 -20 -2 -20 4 0 6 9 11 21 11 17 0 20 5 17 33 -3 36 3 34 -145 37 -67 2
-83 5 -86 18 -4 14 -5 14 -6 -1 -1 -16 -8 -18 -53 -13 -29 4 -84 8 -123 11
-38 3 -72 9 -75 13 -3 4 -4 40 -2 80 3 68 5 72 27 72 13 0 27 -5 30 -11 4 -6
13 -8 19 -6 7 3 32 1 57 -3 24 -4 115 -11 202 -15 l157 -7 0 1248 0 1247 -23
-34 c-30 -45 -57 -50 -57 -12 0 18 -3 24 -9 15 -6 -10 -10 -10 -21 3 -8 10 -9
15 -1 15 6 0 11 5 11 11 0 6 -7 9 -15 5 -9 -3 -15 0 -15 9 0 18 -17 20 -23 3
-8 -22 -20 82 -14 128 5 48 48 113 79 122 14 3 18 12 16 31 -2 18 2 26 12 26
9 0 15 -9 14 -22 0 -18 5 -23 23 -23 13 0 23 4 23 10 0 5 -8 7 -17 3 -15 -5
-14 -3 2 10 18 15 18 16 3 17 -10 0 -18 5 -18 11 0 6 7 9 15 5 12 -4 15 4 15
39 0 40 -2 45 -22 44 -13 0 -17 -3 -10 -6 6 -2 10 -9 6 -14 -9 -16 -61 29 -92
80 -17 27 -40 84 -52 127 -11 44 -24 86 -27 94 -3 8 -5 31 -3 50 2 30 0 33
-14 21 -9 -8 -15 -25 -14 -39 2 -14 -3 -27 -11 -30 -10 -3 -12 1 -8 14 6 17 6
17 -8 -1 -46 -61 -82 -85 -129 -85 -19 0 -22 -5 -21 -30 1 -16 -2 -30 -8 -30
-5 0 -7 -7 -3 -15 3 -8 0 -27 -7 -42 -9 -21 -9 -27 1 -31 14 -4 16 -48 2 -57
-5 -3 -10 -15 -10 -25 0 -10 -3 -20 -7 -22 -14 -6 -45 -107 -37 -119 4 -7 3
-9 -3 -6 -5 4 -23 -7 -38 -23 -28 -29 -29 -29 -49 -12 -10 9 -16 11 -12 5 4
-7 3 -13 -1 -13 -5 0 -15 6 -22 13 -10 10 -11 8 -6 -8 6 -18 4 -17 -14 4 -12
13 -21 18 -21 12 0 -6 -5 -11 -11 -11 -6 0 -8 9 -4 20 3 11 2 20 -4 20 -5 0
-12 -8 -14 -17 -4 -17 -5 -17 -6 0 -2 27 -16 20 -32 -14 -8 -18 -17 -30 -20
-28 -3 2 -12 -1 -20 -8 -10 -8 -19 -9 -29 -2 -11 8 -12 12 -2 16 22 9 13 26
-10 18 -35 -11 -148 -14 -154 -4 -3 5 -18 0 -34 -11 l-28 -20 -25 29 c-14 17
-27 28 -30 25 -2 -3 -8 10 -12 28 -4 18 -9 27 -12 21 -8 -22 -45 5 -38 28 5
15 2 19 -20 19 -15 0 -40 9 -56 21 -16 11 -29 17 -29 13 0 -3 -6 -1 -14 5 -7
6 -21 8 -31 5 -40 -16 31 -174 78 -174 9 0 9 2 0 8 -7 4 -9 12 -5 19 9 14 64
25 79 15 18 -12 4 -50 -21 -55 -17 -3 -15 -5 12 -12 18 -4 31 -13 29 -19 -4
-14 -57 -21 -57 -8 0 5 -13 15 -29 22 -34 14 -70 50 -88 88 l-13 27 5 -34 c3
-21 17 -45 34 -60 16 -14 32 -39 36 -56 6 -28 6 -29 -13 -12 -10 9 -21 17 -24
17 -8 0 3 -50 13 -56 12 -7 12 -51 0 -58 -5 -3 -11 -23 -14 -43 -12 -97 -49
-169 -103 -201 -33 -19 -51 -22 -117 -20 -42 2 -78 -1 -80 -6 -5 -14 -72 12
-94 37 -11 12 -26 33 -33 47 l-13 25 23 -20 c13 -11 21 -15 18 -10 -15 31 -41
91 -53 123 l-14 37 0 -30 c-1 -17 3 -45 8 -63 6 -18 6 -30 1 -27 -11 6 -24 82
-21 115 4 33 32 121 45 141 6 9 35 42 64 73 l52 58 89 -1 c87 -1 89 0 83 21
-3 14 -2 19 6 14 7 -4 12 -13 12 -19 0 -7 10 -13 21 -14 12 -1 30 -10 42 -20
20 -17 20 -17 12 2 -5 11 -11 52 -13 90 -4 81 23 169 61 201 l22 19 -19 -23
c-11 -12 -17 -25 -14 -27 3 -3 35 24 70 60 35 36 69 65 75 65 6 0 19 23 29 51
17 46 100 147 112 135 2 -3 -12 -20 -32 -39 -38 -37 -69 -96 -84 -165 -12 -52
2 -65 18 -17 6 19 15 33 20 30 5 -3 11 1 14 7 3 7 5 -6 4 -29 -1 -23 1 -45 5
-49 4 -4 7 -27 7 -50 0 -24 5 -46 10 -49 6 -3 10 -14 10 -24 0 -9 9 -27 20
-39 11 -12 20 -26 20 -33 0 -6 11 -20 25 -30 14 -12 22 -26 18 -34 -3 -8 0
-15 6 -15 6 0 11 5 11 10 0 6 4 10 9 10 14 0 41 -30 40 -43 0 -8 -2 -8 -6 1
-2 6 -8 10 -12 8 -4 -3 -36 -8 -71 -11 -36 -3 -66 -7 -67 -9 -1 -1 0 -12 4
-24 5 -22 23 -31 23 -12 0 6 7 10 15 10 7 0 19 8 24 17 9 16 10 16 11 2 0 -24
42 -33 58 -12 10 14 12 14 12 2 0 -21 39 -18 46 3 3 10 2 22 -1 28 -10 15 18
7 31 -9 9 -12 12 -11 17 1 7 20 53 18 48 -2 -12 -44 -9 -60 4 -25 9 25 22 41
33 42 22 1 75 13 80 17 2 2 4 13 5 25 1 15 6 19 19 15 10 -3 18 -1 18 5 0 6 7
11 15 11 8 0 15 -5 15 -11 0 -6 6 -9 13 -6 6 2 11 14 9 25 -2 12 1 22 6 22 4
0 19 18 31 40 18 33 25 39 37 29 11 -9 14 -7 14 10 0 14 -4 20 -12 15 -8 -5
-9 -2 -4 12 5 10 10 44 13 75 3 45 0 59 -17 79 -11 12 -20 35 -20 50 0 14 -5
31 -12 38 -22 22 -27 12 -13 -22 14 -34 11 -95 -6 -106 -4 -3 -10 -23 -14 -44
-7 -34 -6 -38 9 -33 19 7 21 -6 5 -34 -8 -15 -14 -17 -23 -10 -9 8 -17 1 -30
-27 l-18 -37 26 24 c14 14 28 23 30 20 13 -12 -28 -71 -69 -99 l-48 -33 7 29
8 29 -26 -30 c-20 -23 -28 -27 -35 -17 -6 10 -12 7 -25 -12 -10 -16 -26 -26
-41 -26 -22 0 -24 3 -15 25 6 16 6 25 0 25 -6 0 -10 -4 -10 -10 0 -17 -18 -11
-23 8 -4 16 -5 16 -6 -1 -1 -14 -5 -16 -20 -7 -13 7 -22 7 -26 0 -23 -37 -114
35 -152 120 -32 72 -36 215 -7 237 16 12 12 17 -8 14 -5 0 -8 3 -8 9 0 5 6 10
14 10 8 0 23 16 35 36 23 39 26 48 11 39 -6 -3 -9 4 -8 19 1 13 7 24 12 23 6
-1 10 3 11 10 0 15 15 30 15 15 0 -9 5 -9 20 0 11 7 20 19 20 26 0 7 7 15 15
18 18 7 41 -6 27 -15 -6 -3 36 -6 93 -6 57 0 98 3 91 7 -6 4 -21 8 -32 8 -18
0 -34 17 -34 36 0 2 12 4 28 4 27 0 70 20 45 20 -7 0 -13 7 -13 15 0 18 16 20
26 4 4 -8 10 -6 17 6 8 15 4 24 -22 47 -38 34 -86 41 -103 15 -6 -9 -8 -9 -8
0 0 6 5 15 10 18 6 3 10 19 10 35 0 20 6 31 20 35 30 9 133 3 149 -9 12 -9 12
-8 3 11 -15 28 -15 33 2 33 7 0 16 -12 19 -27 3 -16 13 -37 22 -48 l17 -20 -7
20 c-23 69 -32 105 -25 105 4 0 11 -12 15 -27 6 -27 64 -152 75 -163 8 -8 8
-40 0 -40 -4 0 -10 10 -13 22 -10 35 -14 17 -9 -39 2 -34 9 -54 19 -57 10 -4
13 -2 10 8 -7 17 19 26 93 33 30 3 61 9 68 15 8 7 12 7 12 -1 0 -6 9 -11 20
-11 10 0 25 -10 32 -22 11 -21 13 -18 24 38 7 34 20 77 28 95 l15 34 -5 -50
-5 -50 35 75 c36 77 38 102 5 61 -14 -17 -19 -19 -19 -7 0 9 5 16 10 16 6 0 9
3 8 8 -3 10 10 49 33 99 10 24 19 55 20 70 0 24 2 25 8 9 10 -26 17 -12 26 47
7 48 20 61 28 30 2 -10 5 252 5 582 1 452 -1 595 -10 580 -32 -56 -122 -136
-153 -135 -5 1 6 9 26 20 43 23 111 102 126 146 6 17 11 96 12 175 1 139 0
145 -24 171 -13 16 -46 41 -73 57 -44 25 -49 27 -45 10 3 -10 14 -19 24 -19
20 0 49 -42 32 -47 -5 -2 -7 -30 -5 -63 2 -33 0 -66 -6 -73 -5 -6 -15 -36 -23
-66 -7 -29 -19 -56 -26 -58 -7 -3 -13 -11 -13 -19 0 -23 -86 -65 -152 -74 -80
-12 -118 -5 -156 28 -28 24 -32 37 -43 117 -13 93 -9 133 14 157 17 17 42 79
40 98 -2 11 -1 11 3 2 5 -10 10 -10 25 4 10 9 17 19 15 23 -2 3 6 7 17 8 82 7
127 17 127 28 0 7 7 15 14 18 10 4 13 1 9 -9 -4 -10 3 -14 30 -14 20 0 39 -5
42 -10 4 -6 12 -7 23 -1 11 6 25 2 46 -13 17 -11 33 -24 34 -28 2 -5 9 -8 15
-8 6 0 21 -10 34 -22 l23 -21 0 411 c0 268 -3 412 -10 412 -6 0 -9 -3 -9 -7 1
-5 0 -21 -1 -38 -2 -21 -5 -14 -10 25 -15 103 -12 155 10 183 16 20 20 40 20
103 0 76 0 77 -20 59 -20 -18 -20 -17 -20 54 0 58 4 78 20 98 11 14 20 32 20
39 0 12 -311 14 -1964 14 l-1965 0 -6 -21 c-5 -14 -2 -25 6 -30 11 -6 11 -11
1 -21 -6 -6 -12 -25 -12 -40 0 -15 -4 -28 -9 -28 -5 0 -13 -26 -16 -57 -4 -32
-14 -73 -22 -91 -24 -51 -8 -49 18 2 25 51 34 56 42 26 3 -11 1 -18 -3 -15 -4
3 -6 -4 -3 -15 4 -13 1 -20 -7 -18 -6 2 -15 -4 -19 -12 -48 -95 -60 -124 -54
-133 4 -6 1 -7 -7 -2 -9 6 -12 4 -8 -6 3 -8 -1 -21 -10 -28 -13 -13 -14 -12
-9 10 10 37 86 399 93 442 l7 37 -221 0 -220 0 -6 -37 c-4 -21 -15 -103 -26
-183 -21 -164 -41 -305 -70 -495 -10 -71 -22 -158 -26 -192 l-6 -62 185 -3
c178 -3 187 -2 197 17 9 17 10 17 5 1 -3 -10 -12 -57 -20 -104 -16 -88 -25
-115 -25 -70 0 30 -10 35 -82 44 -29 4 -57 7 -63 8 -5 1 -14 4 -20 8 -5 3 -39
9 -74 13 -36 4 -71 14 -79 21 -18 19 -43 18 -36 -1 4 -9 0 -15 -10 -15 -9 0
-16 -4 -16 -10 0 -5 -9 -10 -20 -10 -11 0 -20 5 -20 10 0 6 -9 10 -20 10 -11
0 -20 -6 -20 -14 0 -14 -21 -26 -46 -26 -10 0 -14 12 -14 39 l0 38 -57 6 c-31
3 -59 10 -62 14 -3 4 -13 8 -21 8 -11 0 -15 10 -14 38 1 30 -2 37 -18 37 -10
0 -30 -7 -43 -16 -22 -14 -25 -14 -25 -1 0 8 6 20 14 26 8 7 20 34 26 62 7 27
16 52 21 55 12 7 12 74 0 74 -5 0 -1 24 9 53 15 41 18 68 13 127 -4 59 -2 83
11 107 20 40 20 49 1 33 -25 -21 -20 74 7 121 23 41 19 61 -7 39 -13 -11 -15
-8 -15 15 0 16 -7 37 -17 47 -15 17 -15 18 0 18 12 0 17 9 17 29 0 17 5 33 11
36 7 5 5 13 -6 25 -17 18 -5 38 15 25 6 -3 10 3 10 14 l0 21 -3140 0 c-1727 0
-3140 -3 -3140 -8 0 -4 26 -32 58 -63 31 -30 80 -81 109 -114 l52 -58 -28 -26
c-15 -14 -33 -43 -40 -64 -8 -24 -19 -37 -30 -37 -24 0 -43 -39 -39 -79 3 -29
11 -37 61 -64 38 -21 57 -37 57 -50 0 -10 4 -16 9 -12 5 3 13 -5 17 -17 4 -13
11 -26 17 -30 10 -6 13 -235 9 -609 -2 -117 -4 -138 -18 -143 -16 -6 -103 32
-169 73 -16 10 -41 22 -55 26 -21 6 -19 3 10 -18 19 -14 69 -54 111 -89 86
-72 99 -99 88 -180 -13 -93 -11 -138 7 -138 14 0 15 -13 9 -107 -4 -60 -11
-109 -16 -111 -13 -5 -11 -82 2 -82 8 0 10 -18 6 -57 -4 -32 -3 -114 1 -183 5
-79 4 -169 -4 -245 -6 -66 -12 -120 -13 -120 -1 0 -4 -18 -6 -39 -3 -22 -8
-43 -13 -48 -9 -9 -151 43 -377 137 -35 15 -38 15 -26 1 7 -9 17 -16 22 -16 5
0 34 -12 66 -26 32 -14 74 -33 93 -42 63 -28 205 -115 222 -136 11 -14 13 -24
7 -33 -14 -16 -14 -122 0 -156 7 -19 11 -134 11 -332 0 -192 4 -306 10 -310
12 -8 14 -421 2 -429 -8 -5 -79 7 -222 36 -52 10 -172 68 -185 88 -3 5 32 6
86 3 l92 -6 -7 24 c-4 13 -12 48 -16 78 -14 86 -31 149 -44 160 -15 13 -135
45 -248 67 -71 13 -91 14 -103 4 -13 -11 -15 14 -17 221 -5 416 1 928 9 897 2
-10 9 -18 16 -18 6 0 48 -14 95 -31 46 -17 86 -28 89 -25 4 3 -4 17 -16 30
-28 30 -22 42 23 50 50 10 160 85 200 137 39 52 51 87 41 119 -10 32 -111 76
-251 109 -155 37 -194 43 -195 28 -1 -7 -5 8 -10 33 -4 25 -8 492 -8 1038 l-1
992 -220 0 -220 0 0 -6000z m11950 5836 c0 -50 -5 -69 -22 -92 -19 -25 -147
-172 -185 -212 -7 -7 -13 -18 -13 -23 0 -6 -4 -8 -9 -4 -6 3 -10 35 -10 71 l0
65 112 129 c62 71 115 129 120 130 4 0 7 -29 7 -64z m-3833 -2 c-3 -3 -12 -4
-19 -1 -8 3 -5 6 6 6 11 1 17 -2 13 -5z m15 -133 c13 -5 31 -12 41 -15 10 -3
15 -11 11 -17 -4 -8 -9 -7 -16 2 -6 10 -7 7 -3 -8 4 -15 2 -23 -5 -23 -7 0
-14 9 -17 21 -4 12 -17 22 -34 26 -16 3 -26 9 -23 14 7 11 17 11 46 0z m-2
-70 c0 -5 3 -17 7 -27 4 -12 3 -15 -5 -10 -7 4 -13 1 -13 -8 -2 -21 -3 -25
-21 -66 -24 -54 -30 -80 -20 -80 6 0 12 6 15 13 2 6 8 9 12 4 5 -4 1 -13 -9
-20 -10 -7 -17 -20 -16 -28 5 -31 -1 -47 -18 -52 -11 -2 -22 -15 -25 -28 -6
-23 -5 -23 8 -5 13 18 15 18 15 3 0 -10 -12 -22 -26 -27 -21 -8 -31 -6 -59 16
-33 25 -34 25 -44 5 -6 -11 -11 -27 -11 -36 0 -31 -43 -205 -51 -205 -4 0 -4
12 1 28 10 28 47 216 48 242 1 8 8 43 17 77 13 47 21 60 32 56 12 -5 14 -16 9
-54 -4 -31 -3 -49 4 -49 5 0 10 9 10 20 0 11 5 20 11 20 8 0 7 6 -2 17 -13 17
-13 17 13 0 32 -20 38 -21 38 -4 0 6 -16 23 -35 36 -40 27 -43 37 -15 46 11 3
20 11 20 16 0 5 9 9 20 9 18 0 25 10 21 33 0 4 3 6 8 5 12 -4 52 43 45 53 -3
5 0 9 5 9 6 0 11 -4 11 -9z m3564 -88 c-6 -70 -17 -103 -34 -103 -17 0 -12
123 6 148 26 38 34 26 28 -45z m245 -65 c-1 -62 -4 -101 -8 -86 l-6 28 -37
-35 c-21 -18 -38 -39 -38 -44 0 -6 -6 -11 -13 -11 -8 0 -22 -9 -32 -20 -10
-11 -24 -20 -30 -20 -7 0 -17 -15 -23 -32 l-10 -33 -3 30 c-1 22 -4 17 -9 -20
-6 -46 -7 -44 -8 29 l-2 79 53 61 c28 33 69 78 91 101 21 22 45 50 53 63 9 12
17 22 19 22 2 0 3 -51 3 -112z m-2026 53 c11 -1 8 -31 -3 -31 -5 0 -10 -6 -10
-13 0 -7 -7 -22 -16 -33 -15 -18 -15 -18 -5 3 13 25 14 56 3 49 -7 -4 -416
-10 -551 -7 -46 1 -52 3 -41 16 10 12 50 15 214 17 165 3 374 2 409 -1z m1723
-57 c-3 -44 -10 -73 -23 -87 -10 -12 -57 -64 -104 -117 -48 -52 -100 -111
-117 -130 l-31 -35 -1 62 0 62 132 155 c72 86 135 156 140 156 5 0 7 -30 4
-66z m-3486 42 c0 -3 -4 -8 -10 -11 -5 -3 -10 -1 -10 4 0 6 5 11 10 11 6 0 10
-2 10 -4z m-26 -32 c3 -8 2 -12 -4 -9 -6 3 -10 10 -10 16 0 14 7 11 14 -7z
m1236 -54 c0 -5 -7 -10 -15 -10 -8 0 -15 5 -15 10 0 6 7 10 15 10 8 0 15 -4
15 -10z m2322 -229 c-5 -3 -12 -13 -15 -21 -3 -8 -6 8 -6 36 -1 27 5 62 12 77
11 25 12 24 15 -30 2 -31 -1 -59 -6 -62z m-10002 -35 c70 -72 82 -88 70 -97
-13 -9 -12 -10 2 -5 17 5 68 -38 68 -56 0 -17 -28 -7 -39 15 -7 13 -9 15 -6 4
3 -10 5 -31 5 -45 0 -22 2 -24 11 -12 8 11 12 12 16 3 2 -7 11 -13 18 -13 8 0
17 -10 21 -22 3 -13 15 -36 26 -51 22 -31 18 -69 -9 -99 -8 -9 -18 -38 -20
-63 -5 -40 -3 -45 14 -45 12 0 25 -12 34 -32 10 -25 20 -32 37 -31 16 2 22 -2
22 -17 0 -11 4 -20 8 -20 19 0 31 -77 37 -240 3 -96 8 -188 11 -203 3 -15 1
-33 -4 -40 -6 -7 -12 -54 -14 -104 -3 -87 -6 -101 -20 -87 -13 12 -148 73
-148 66 0 -4 28 -28 61 -52 34 -25 69 -52 79 -62 18 -16 21 -132 21 -805 0
-18 4 -33 9 -33 15 0 15 -229 0 -244 -12 -12 -53 0 -81 24 -22 19 -23 21 -7
34 22 16 48 77 48 110 0 58 -39 69 -287 81 -73 3 -73 3 -74 -23 -1 -21 -3 -17
-10 13 -4 22 -8 541 -8 1153 -1 892 1 1111 12 1099 6 -7 50 -53 97 -101z
m6289 -10 c-12 -53 -24 -94 -27 -91 -2 2 3 37 12 77 10 40 19 84 22 97 3 13 7
21 10 18 3 -2 -5 -48 -17 -101z m3661 37 c0 -20 -3 -33 -7 -30 -6 7 -32 -21
-33 -35 0 -5 9 -8 20 -8 28 0 25 -28 -2 -32 -20 -3 -23 -10 -26 -53 -1 -27 -9
-64 -17 -82 -18 -38 -19 -70 -2 -76 6 -3 -5 -6 -26 -6 -24 -1 -36 3 -32 9 4 6
10 8 15 5 6 -4 18 80 21 148 0 9 4 17 9 17 4 0 11 17 14 38 8 46 36 112 48
112 4 0 8 7 8 15 0 8 2 15 5 15 3 0 5 -16 5 -37z m-296 -44 c-4 -24 -19 -54
-35 -72 l-29 -31 0 36 c0 27 8 47 31 73 17 19 33 35 35 35 2 0 1 -18 -2 -41z
m-9383 -76 c13 -16 12 -17 -3 -4 -17 13 -22 21 -14 21 2 0 10 -8 17 -17z
m9281 -43 c-6 -41 -12 -38 -12 6 0 19 4 33 8 30 5 -3 7 -19 4 -36z m-9241 3
c13 -16 12 -17 -3 -4 -10 7 -18 15 -18 17 0 8 8 3 21 -13z m9479 -34 c-5 -24
-12 -57 -15 -72 -5 -24 -8 -27 -20 -17 -20 16 -19 46 1 54 10 4 14 14 11 26
-3 11 -2 20 3 20 4 0 10 10 13 22 11 41 18 11 7 -33z m-1448 34 c2 -5 1 -60
-2 -123 -4 -63 -7 -92 -8 -64 l-2 52 -37 -9 c-21 -5 -61 -9 -89 -9 -29 0 -56
-6 -62 -12 -7 -9 -35 -12 -94 -9 -45 2 -132 4 -193 5 -60 0 -115 4 -122 9 -6
4 -14 3 -17 -2 -4 -6 -18 -6 -36 -1 -17 5 -67 6 -113 4 -112 -7 -119 -7 -128
7 -4 7 -17 9 -33 5 -16 -4 -26 -2 -26 5 0 6 -6 4 -14 -4 -8 -8 -41 -17 -73
-21 -78 -9 -346 -1 -458 13 -50 7 -108 10 -130 8 -22 -3 -85 0 -140 5 -118 11
-196 11 -227 -1 -14 -5 -30 -4 -40 3 -14 8 -23 7 -39 -2 -20 -13 -21 -12 -15
15 3 15 8 49 12 75 l6 48 722 3 c396 1 864 3 1038 5 174 1 318 -1 320 -5z
m247 -100 c-1 -68 -4 -93 -8 -68 -6 39 -7 40 -41 37 -30 -2 -106 -17 -147 -28
-6 -1 -13 -13 -16 -26 -2 -13 -5 25 -6 85 l-1 107 110 0 110 0 -1 -107z m251
30 c0 -60 -3 -74 -12 -65 -13 13 -79 16 -152 6 -45 -7 -46 -8 -48 -43 0 -20
-4 9 -8 64 -4 55 -5 103 -3 108 2 4 53 7 114 7 l109 0 0 -77z m228 30 c-2 -32
-7 -47 -15 -45 -7 1 -13 -3 -13 -9 0 -11 -13 -10 -95 5 -27 5 -27 5 -5 -3 24
-9 24 -9 3 -10 -13 -1 -25 0 -26 2 -2 1 -11 -4 -20 -12 -16 -12 -17 -8 -17 53
l0 66 96 0 95 0 -3 -47z m142 18 c0 -50 -9 -61 -51 -61 -30 0 -39 4 -41 18 -1
9 -4 -8 -8 -38 -6 -53 -7 -52 -8 28 l-2 82 55 0 c54 0 55 0 55 -29z m50 -18
c0 -61 -15 -87 -24 -43 -11 56 -7 90 9 90 11 0 15 -12 15 -47z m260 -8 c0 -30
-4 -55 -10 -55 -5 0 -10 5 -10 10 0 15 -46 30 -120 40 -60 7 -66 6 -82 -14
-17 -21 -18 -20 -18 27 l0 47 120 0 120 0 0 -55z m-9119 -52 c13 -16 12 -17
-3 -4 -10 7 -18 15 -18 17 0 8 8 3 21 -13z m54 -53 c3 -6 -1 -7 -9 -4 -18 7
-21 14 -7 14 6 0 13 -4 16 -10z m9555 -12 c0 -7 -11 -18 -25 -25 -31 -14 -33
0 -3 21 27 19 28 19 28 4z m60 2 c0 -5 -11 -10 -25 -10 -14 0 -25 5 -25 10 0
6 11 10 25 10 14 0 25 -4 25 -10z m60 -15 c11 -13 10 -14 -4 -9 -9 3 -16 10
-16 15 0 13 6 11 20 -6z m-9570 -91 c26 -29 21 -26 -18 11 -28 27 -52 53 -52
57 0 8 13 -4 70 -68z m5577 54 c-3 -8 -6 -5 -6 6 -1 11 2 17 5 13 3 -3 4 -12
1 -19z m3853 -28 c0 -5 -2 -10 -4 -10 -3 0 -8 5 -11 10 -3 6 -1 10 4 10 6 0
11 -4 11 -10z m40 -19 c0 -17 -18 -21 -24 -6 -3 9 0 15 9 15 8 0 15 -4 15 -9z
m-37 -18 c-7 -2 -19 -2 -25 0 -7 3 -2 5 12 5 14 0 19 -2 13 -5z m-446 -170
c-2 -21 -4 -4 -4 37 0 41 2 58 4 38 2 -21 2 -55 0 -75z m707 22 c3 -8 1 -15
-4 -15 -6 0 -10 7 -10 15 0 8 2 15 4 15 2 0 6 -7 10 -15z m5 -97 c-14 -27 -17
-20 -11 27 4 36 6 37 13 17 6 -15 5 -31 -2 -44z m-481 0 c-10 -53 2 -139 24
-182 7 -13 7 -16 -1 -12 -33 21 -53 154 -35 224 12 44 21 21 12 -30z m-44 -32
c-3 -21 -9 -35 -11 -32 -3 3 -2 21 1 42 4 20 10 34 12 31 3 -3 2 -21 -2 -41z
m-9030 -108 c-3 -56 -2 -68 6 -49 6 14 16 21 24 18 10 -4 16 2 19 16 3 22 4
21 14 -3 6 -14 7 -29 2 -34 -13 -15 10 -46 34 -46 13 0 29 -6 35 -12 10 -10
14 -10 21 0 6 10 11 9 22 -4 8 -11 9 -15 2 -11 -18 11 -53 -15 -53 -40 0 -12
5 -23 11 -25 6 -2 13 -25 16 -51 5 -39 3 -47 -11 -47 -31 0 -16 -35 22 -51 32
-13 42 -25 59 -70 40 -106 44 -143 34 -347 -5 -106 -12 -196 -15 -199 -3 -3
-1 -12 6 -20 31 -38 -30 -19 -147 46 -44 25 -83 49 -87 55 -5 8 -8 7 -8 -1 0
-6 18 -22 39 -35 66 -39 145 -96 170 -122 22 -23 23 -34 33 -268 5 -133 9
-265 8 -293 -3 -102 -3 -162 -1 -250 3 -102 -3 -125 -31 -125 -20 0 -104 33
-180 71 -29 14 -38 15 -38 5 0 -8 15 -19 33 -26 137 -55 220 -112 216 -149 -4
-48 2 -81 16 -81 18 0 17 14 14 -210 -3 -191 -3 -335 1 -406 1 -22 -5 -62 -14
-88 -9 -26 -16 -60 -16 -77 0 -24 -4 -29 -17 -25 -10 2 -43 7 -73 10 -58 6
-59 7 28 -30 18 -8 39 -14 46 -14 10 0 15 -33 19 -132 4 -73 11 -147 16 -164
5 -19 5 -80 0 -149 -5 -73 -5 -124 1 -134 8 -13 9 -12 10 7 0 13 4 20 10 17 7
-4 6 -13 -1 -27 -14 -26 6 -191 28 -226 13 -22 13 -22 -24 -17 -198 27 -271
37 -291 42 l-22 5 0 520 c1 286 3 533 7 549 3 16 12 29 19 29 8 0 19 11 24 24
5 13 13 25 17 27 17 7 53 77 53 102 0 32 -6 36 -63 39 -40 3 -47 7 -52 28 -8
29 -6 605 2 667 3 24 9 41 13 38 11 -7 94 96 119 149 37 80 11 121 -79 128
-28 2 -48 9 -52 18 -10 22 -9 1532 1 1526 4 -3 7 -38 5 -78z m138 -83 c6 -11
-3 -5 -20 14 -18 18 -32 36 -32 39 0 9 42 -32 52 -53z m9320 3 c-7 -7 -12 -8
-12 -2 0 14 12 26 19 19 2 -3 -1 -11 -7 -17z m-341 -126 c23 -21 47 -40 53
-44 16 -9 119 -11 186 -3 43 5 52 4 43 -5 -19 -20 -211 -19 -253 2 -59 29
-113 115 -102 163 4 14 9 5 18 -28 9 -36 23 -58 55 -85z m219 68 c0 -5 -4 -10
-10 -10 -5 0 -10 5 -10 10 0 6 5 10 10 10 6 0 10 -4 10 -10z m80 0 c0 -5 -7
-10 -15 -10 -8 0 -15 5 -15 10 0 6 7 10 15 10 8 0 15 -4 15 -10z m-210 -45
c10 -12 9 -16 -5 -21 -17 -7 -38 13 -29 28 8 12 20 10 34 -7z m7 -51 c-3 -3
-12 -4 -19 -1 -8 3 -5 6 6 6 11 1 17 -2 13 -5z m-684 -234 c3 -11 1 -20 -4
-20 -5 0 -9 7 -9 15 0 9 -6 12 -15 9 -8 -4 -15 -1 -15 5 0 20 37 12 43 -9z
m31 4 c3 -8 2 -12 -4 -9 -6 3 -10 10 -10 16 0 14 7 11 14 -7z m-64 -17 c0 -2
-9 -12 -20 -22 -24 -21 -27 -14 -4 9 15 15 24 20 24 13z m82 -35 c-19 -6 -44
6 -37 18 4 7 14 6 28 -2 14 -7 17 -13 9 -16z m-7962 -56 c-1 -6 -10 0 -20 13
-11 13 -20 19 -20 14 0 -13 35 -44 42 -37 3 3 9 1 12 -4 3 -5 -1 -15 -9 -22
-18 -15 0 -60 24 -61 10 0 12 -2 4 -6 -7 -2 -13 -17 -13 -32 0 -49 22 -95 65
-136 40 -38 43 -45 49 -105 13 -153 14 -318 2 -390 -11 -71 -13 -75 -36 -72
l-25 4 22 -21 c32 -30 45 -90 37 -174 -3 -39 0 -178 7 -307 18 -327 16 -370
-16 -370 -19 0 -19 1 10 -62 23 -50 25 -60 20 -178 -3 -84 0 -161 11 -235 24
-170 34 -348 21 -361 -14 -15 -20 7 -18 73 2 82 -9 104 -39 85 -11 -7 -51 -15
-88 -17 -44 -3 -71 -10 -78 -20 -19 -25 -24 64 -24 414 0 345 4 385 47 432 29
31 42 101 24 123 -9 11 -19 12 -36 6 -21 -8 -23 -5 -29 28 -8 50 -8 948 1
1240 l6 232 24 -22 c12 -12 23 -26 23 -32z m7914 19 c-15 -10 -11 -13 27 -23
42 -10 46 -15 76 -79 17 -37 33 -77 34 -88 5 -35 -12 -98 -34 -130 -12 -16
-21 -37 -19 -45 1 -8 -15 4 -36 27 -26 28 -46 65 -61 110 -23 70 -70 127 -96
116 -20 -7 -15 36 8 70 10 15 27 27 38 27 11 0 27 7 35 15 9 8 13 15 9 15 -3
0 -3 5 0 10 5 8 11 7 21 -1 12 -10 12 -13 -2 -24z m-54 5 c0 -5 -4 -10 -10
-10 -5 0 -10 5 -10 10 0 6 5 10 10 10 6 0 10 -4 10 -10z m-7784 -98 c-8 -7
-25 8 -37 31 -11 21 -10 21 15 -2 14 -14 24 -26 22 -29z m7524 7 c0 -6 -7 -8
-17 -5 -9 4 -20 1 -25 -6 -6 -10 -8 -10 -8 -1 0 7 -7 10 -15 7 -8 -4 -15 -1
-15 5 0 6 17 11 40 11 23 0 40 -5 40 -11z m33 -73 c-3 -4 -7 -31 -9 -59 -3
-29 -12 -59 -21 -69 -16 -17 -16 -18 0 -13 9 4 19 17 23 28 7 23 32 45 49 43
6 0 9 -4 8 -8 -2 -5 2 -8 7 -8 6 0 10 14 10 32 0 30 0 31 20 13 15 -14 17 -21
9 -32 -9 -10 -4 -13 25 -13 28 0 36 4 35 18 0 10 -3 12 -6 5 -8 -21 -22 -15
-16 7 7 25 11 25 41 -2 13 -13 22 -18 20 -13 -2 6 0 11 5 13 24 8 36 -2 44
-35 6 -22 15 -37 22 -35 7 1 10 -2 7 -7 -4 -5 0 -16 8 -23 23 -24 56 -96 54
-120 -1 -13 2 -43 6 -67 6 -31 5 -42 -3 -37 -6 4 -15 -3 -20 -16 -5 -13 -16
-30 -25 -37 -9 -7 -16 -22 -16 -33 0 -13 -6 -18 -22 -17 -40 4 -59 -1 -53 -11
3 -5 2 -10 -4 -10 -5 0 -12 -8 -14 -17 -2 -10 -3 -8 -2 5 1 15 -3 22 -14 22
-18 -1 -61 -30 -43 -30 6 0 9 -6 6 -14 -7 -17 -55 -28 -53 -12 3 26 -2 37 -15
34 -8 -2 -22 6 -30 17 -14 18 -15 18 -16 3 0 -21 -16 -24 -22 -6 -5 15 -38
-13 -38 -31 0 -6 -4 -11 -10 -11 -5 0 -10 5 -10 12 0 6 -3 9 -6 5 -4 -3 1 -29
10 -58 25 -75 11 -72 -24 5 -17 36 -33 66 -35 66 -3 0 -2 -15 2 -32 3 -18 3
-30 0 -27 -4 3 -12 40 -17 82 -17 118 -2 202 50 280 39 59 40 60 10 32 -34
-32 -59 -73 -66 -108 -2 -11 -9 -24 -16 -29 -7 -4 -9 -8 -5 -8 5 0 1 -10 -7
-22 -9 -12 -16 -36 -16 -53 -1 -25 -2 -28 -13 -14 -17 21 -47 31 -48 16 -1 -7
0 -23 1 -37 1 -14 -1 -22 -4 -19 -13 12 -23 139 -16 204 6 49 5 72 -4 78 -7 5
-3 13 14 27 14 11 21 20 17 20 -10 0 24 60 34 60 4 0 15 7 23 16 9 8 16 11 16
6 0 -5 -11 -20 -25 -34 -23 -24 -56 -97 -54 -122 0 -6 5 3 11 19 11 30 42 79
65 103 7 7 13 17 13 20 0 11 70 30 76 21 9 -14 44 -10 44 5 0 7 -10 17 -22 21
-22 7 -22 8 5 12 20 3 27 9 23 19 -3 8 -2 22 1 31 6 14 9 12 19 -12 7 -17 10
-34 7 -39z m117 56 c0 -13 -12 -22 -22 -16 -10 6 -1 24 13 24 5 0 9 -4 9 -8z
m30 -2 c0 -5 -4 -10 -10 -10 -5 0 -10 5 -10 10 0 6 5 10 10 10 6 0 10 -4 10
-10z m-270 -20 c0 -5 -5 -10 -11 -10 -5 0 -7 5 -4 10 3 6 8 10 11 10 2 0 4 -4
4 -10z m207 -37 c-9 -9 -19 -14 -23 -11 -10 10 6 28 24 28 15 0 15 -1 -1 -17z
m-197 -14 c0 -5 -7 -9 -15 -9 -15 0 -20 12 -9 23 8 8 24 -1 24 -14z m300 11
c0 -5 -4 -10 -9 -10 -6 0 -13 5 -16 10 -3 6 1 10 9 10 9 0 16 -4 16 -10z
m-464 -215 c-4 -42 -16 -60 -16 -22 0 24 9 57 15 57 2 0 2 -16 1 -35z m-6933
-282 c4 -7 18 -11 30 -9 54 8 68 -57 73 -316 2 -134 0 -208 -7 -208 -5 0 -7
-15 -3 -37 3 -21 8 -78 10 -128 2 -49 7 -101 10 -115 l7 -25 13 30 13 30 -1
-35 c0 -19 4 -59 11 -89 13 -64 15 -410 1 -431 -13 -22 -18 -2 -24 108 -2 51
-10 99 -16 107 -6 7 -40 17 -75 20 -54 6 -64 10 -68 29 -4 20 -2 764 4 1106 2
141 3 147 8 65 4 -49 10 -96 14 -102z m7630 162 c-7 -21 -13 -19 -13 6 0 11 4
18 10 14 5 -3 7 -12 3 -20z m-708 -4 c3 -5 1 -12 -5 -16 -5 -3 -10 1 -10 9 0
18 6 21 15 7z m22 -133 c-2 -13 -4 -5 -4 17 -1 22 1 32 4 23 2 -10 2 -28 0
-40z m621 24 c2 -8 -3 -10 -14 -5 -14 5 -16 2 -12 -14 3 -12 2 -27 -3 -34 -7
-11 -9 -9 -9 6 0 11 -3 30 -6 43 -6 19 -3 22 17 19 13 -2 25 -9 27 -15z m62
-145 c-22 -229 -55 -318 -136 -364 -41 -24 -119 -30 -159 -13 -13 6 1 8 45 7
46 -1 76 5 105 18 39 19 40 22 53 95 8 41 18 83 24 93 15 29 3 31 -26 4 -15
-14 -43 -28 -64 -31 -111 -18 -122 -18 -122 -7 0 6 9 11 20 11 11 0 30 5 43
12 12 6 29 14 37 18 9 4 15 20 15 39 -1 26 3 31 22 31 30 0 89 60 84 85 -2 11
-7 22 -11 25 -12 7 -14 31 -5 66 6 26 11 30 37 28 19 -1 31 3 36 14 13 34 14
-12 2 -131z m-557 -47 c4 -19 4 -29 1 -22 -3 6 -10 10 -15 7 -5 -4 -6 1 -3 9
3 9 1 16 -5 16 -6 0 -10 22 -10 54 1 30 -2 60 -6 66 -4 7 -1 16 6 21 11 7 15
-4 20 -54 3 -34 9 -78 12 -97z m-146 118 c-3 -8 -6 -5 -6 6 -1 11 2 17 5 13 3
-3 4 -12 1 -19z m30 -15 c-3 -10 -5 -4 -5 12 0 17 2 24 5 18 2 -7 2 -21 0 -30z
m43 -92 c-1 -13 -29 45 -29 59 0 8 6 0 14 -19 8 -18 15 -36 15 -40z m280 9 c0
-21 -8 -24 -34 -14 -16 6 -22 35 -10 47 12 11 44 -13 44 -33z m131 23 c15 -9
31 -23 34 -31 14 -37 -58 -58 -89 -26 -21 21 -20 51 2 63 22 13 19 14 53 -6z
m579 -83 c12 -8 12 -10 1 -10 -8 0 -11 -7 -8 -19 3 -14 0 -17 -15 -13 -15 4
-17 7 -6 13 10 7 10 11 0 21 -9 9 -15 9 -20 2 -5 -7 -15 -6 -32 3 -24 12 -23
13 20 13 25 0 52 -5 60 -10z m-117 -7 c-7 -2 -13 -15 -13 -28 0 -13 -4 -27
-10 -30 -5 -3 -10 1 -10 10 0 24 19 55 33 54 9 0 9 -2 0 -6z m-423 -17 c0 -11
-33 -36 -47 -36 -11 0 -9 6 8 20 23 18 39 25 39 16z m-9196 -76 c46 -22 90
-40 97 -40 8 0 39 -14 69 -32 30 -17 72 -39 92 -49 20 -10 40 -28 43 -40 4
-12 4 -81 1 -153 -12 -216 -10 -370 3 -374 6 -2 11 -21 11 -43 0 -22 6 -72 14
-112 31 -156 29 -392 -4 -392 -12 0 -15 15 -15 75 -1 166 -1 168 -40 184 -58
24 -346 60 -356 45 -14 -24 -19 90 -19 502 0 384 6 544 18 487 2 -10 38 -34
86 -58z m9639 49 c-4 -13 -9 -17 -15 -11 -11 11 -3 32 12 32 4 0 6 -9 3 -21z
m-92 -46 c-9 -16 -10 -16 -11 -1 0 9 3 25 7 35 7 16 8 17 11 1 2 -10 -1 -25
-7 -35z m-596 31 c13 -5 14 -8 3 -15 -19 -13 -28 -11 -28 6 0 17 2 18 25 9z
m-130 -24 c10 -11 15 -23 12 -27 -8 -7 -47 25 -47 39 0 14 16 9 35 -12z m675
17 c0 -2 -10 -12 -22 -23 l-23 -19 19 23 c18 21 26 27 26 19z m173 -22 c-1 -6
-9 -12 -18 -13 -22 -5 -47 6 -40 17 7 13 61 9 58 -4z m67 5 c0 -5 -4 -10 -9
-10 -6 0 -13 5 -16 10 -3 6 1 10 9 10 9 0 16 -4 16 -10z m-230 -30 c0 -5 -5
-10 -11 -10 -5 0 -7 5 -4 10 3 6 8 10 11 10 2 0 4 -4 4 -10z m28 -55 c-6 -14
-17 -25 -23 -25 -19 0 -65 -40 -86 -74 -26 -43 -24 -19 5 45 22 50 42 69 86
82 24 7 30 -2 18 -28z m32 10 c0 -8 -4 -15 -10 -15 -5 0 -7 7 -4 15 4 8 8 15
10 15 2 0 4 -7 4 -15z m-601 -86 c7 -21 -39 12 -58 42 l-16 24 35 -26 c18 -14
36 -32 39 -40z m1027 42 c-4 -6 -14 -7 -23 -4 -15 6 -14 7 3 13 22 9 29 6 20
-9z m-366 -12 c0 -6 -4 -7 -10 -4 -5 3 -10 11 -10 16 0 6 5 7 10 4 6 -3 10
-11 10 -16z m450 -52 c0 -6 -10 -1 -22 10 -13 11 -29 18 -35 16 -7 -3 -13 0
-13 7 0 6 4 9 9 5 5 -3 13 0 17 6 5 9 13 5 26 -10 10 -13 18 -28 18 -34z
m-430 23 c0 -5 -2 -10 -4 -10 -3 0 -8 5 -11 10 -3 6 -1 10 4 10 6 0 11 -4 11
-10z m-7564 -65 c5 -22 4 -26 -7 -20 -16 8 14 -19 159 -147 55 -49 105 -88
111 -88 7 0 9 -5 5 -12 -5 -8 -2 -9 10 -5 9 4 15 3 12 -2 -6 -9 61 -71 69 -63
3 3 5 1 5 -4 0 -6 13 -20 30 -32 28 -21 31 -21 54 -7 20 14 31 14 67 5 40 -11
158 -15 542 -19 96 -1 146 -5 142 -11 -4 -6 6 -10 24 -10 16 0 31 5 33 11 5
15 465 19 486 3 12 -9 8 -10 -19 -7 -26 3 -30 2 -19 -6 23 -16 81 -13 94 5 11
14 47 16 306 15 219 -1 296 -5 302 -14 9 -14 10 -370 2 -444 -4 -29 -11 -53
-16 -53 -5 0 -6 5 -3 10 3 6 1 10 -6 10 -6 0 -9 8 -6 20 3 10 -2 25 -10 32
-13 10 -14 5 -12 -43 3 -49 5 -55 28 -60 14 -4 -217 -6 -514 -5 -297 0 -411 2
-252 3 272 3 287 4 287 22 0 30 103 44 114 16 3 -9 0 -15 -10 -15 -8 0 -13 -4
-9 -10 3 -5 77 -9 173 -8 l167 1 0 23 c0 13 -7 25 -17 28 -10 2 -18 0 -18 -6
0 -10 -18 -8 -68 7 -17 6 -21 4 -17 -7 5 -12 -6 -17 -42 -23 -81 -13 -122 -14
-128 -4 -4 5 6 10 22 11 27 1 54 4 81 7 7 0 10 6 6 12 -3 6 0 15 7 20 12 8 11
11 -3 20 -10 5 -18 17 -18 24 0 18 1 18 -39 4 -26 -9 -37 -8 -66 10 -31 18
-36 18 -50 5 -8 -9 -15 -24 -15 -35 0 -10 -3 -19 -7 -20 -46 -5 -67 -3 -86 9
-21 13 -21 13 8 7 16 -4 26 -3 22 2 -11 10 -177 12 -177 2 0 -4 6 -9 13 -12
17 -7 -22 -36 -49 -37 -11 0 -24 -4 -30 -10 -5 -5 -19 -7 -32 -3 -18 4 -20 8
-10 20 10 13 8 14 -12 11 -13 -2 -25 3 -28 11 -3 10 0 12 11 8 16 -6 27 11 27
41 0 13 -5 11 -19 -8 -17 -21 -27 -24 -73 -23 -29 1 -47 -1 -40 -4 6 -2 12
-11 12 -18 0 -19 -80 -31 -90 -14 -6 9 -12 10 -22 2 -7 -5 -31 -8 -54 -6 -37
4 -40 7 -36 29 5 28 -17 34 -25 6 -3 -14 -12 -17 -39 -14 -18 2 -31 8 -28 13
3 5 -1 7 -8 4 -34 -13 -97 -12 -102 1 -4 10 -11 11 -31 4 -15 -6 -85 -10 -156
-10 -125 0 -130 1 -138 23 -11 28 -47 61 -59 53 -5 -3 -15 1 -22 9 -16 20 -30
19 -30 -1 0 -9 8 -18 19 -21 12 -3 19 -14 19 -29 0 -13 15 -41 36 -64 20 -22
36 -45 36 -50 0 -6 21 -11 48 -12 44 -1 43 -1 -18 -8 -71 -8 -436 -11 -406 -3
17 5 18 13 11 116 -4 61 -11 121 -16 135 -5 13 -9 60 -9 105 0 57 -3 77 -10
67 -5 -8 -10 -67 -11 -130 -2 -89 -4 -104 -9 -65 -5 35 -7 7 -8 -92 -1 -88 -6
-143 -12 -143 -6 0 -10 48 -10 123 0 67 -5 183 -11 257 -7 74 -12 145 -11 158
0 12 -4 22 -9 22 -5 0 -8 -3 -8 -7 1 -5 0 -105 -1 -223 -2 -152 -5 -197 -10
-155 -4 33 -8 89 -9 124 -1 35 -4 62 -7 58 -3 -3 -12 -55 -20 -114 -7 -60 -16
-116 -19 -124 -3 -9 1 -23 9 -32 23 -22 20 -37 -6 -37 -24 0 -24 2 -31 90 -1
22 -7 34 -14 33 -8 -2 -13 7 -13 21 0 35 -10 56 -26 56 -8 0 -13 3 -13 8 3 18
-3 21 -28 11 -15 -5 -29 -6 -32 -1 -3 5 -19 15 -36 23 -34 16 -48 65 -21 75 9
3 14 10 11 15 -3 4 -12 6 -20 2 -12 -4 -15 -26 -15 -101 0 -52 -2 -93 -5 -91
-8 9 -25 744 -17 747 4 1 6 21 4 45 -3 40 -3 41 12 21 8 -11 18 -33 22 -49z
m7886 53 c8 -22 -3 -38 -25 -37 -17 1 -18 2 -4 6 9 2 17 9 17 15 0 6 -9 8 -20
5 -11 -3 -22 -1 -25 3 -3 5 5 11 17 13 13 2 26 5 29 6 4 0 9 -5 11 -11z m-521
-25 c-8 -15 -10 -15 -11 -2 0 17 10 32 18 25 2 -3 -1 -13 -7 -23z m64 17 c3
-5 -1 -10 -9 -10 -9 0 -16 5 -16 10 0 6 4 10 9 10 6 0 13 -4 16 -10z m495 -10
c0 -5 7 -6 17 -3 11 4 14 3 9 -5 -10 -17 -33 -15 -40 3 -3 8 -1 15 4 15 6 0
10 -4 10 -10z m-921 -26 c2 -2 -7 -4 -22 -4 -14 0 -29 5 -32 10 -6 10 42 4 54
-6z m411 -11 c11 -23 14 -25 17 -10 5 21 19 22 27 1 10 -27 7 -31 -19 -26 -29
5 -76 62 -52 62 7 0 20 -12 27 -27z m-70 -23 c0 -5 -5 -10 -11 -10 -5 0 -7 5
-4 10 3 6 8 10 11 10 2 0 4 -4 4 -10z m-7276 -35 c11 -8 16 -18 12 -22 -3 -4
-16 3 -28 15 -25 25 -13 29 16 7z m41 -45 c3 -6 -1 -7 -9 -4 -18 7 -21 14 -7
14 6 0 13 -4 16 -10z m49 -36 c9 -24 4 -24 -18 -3 -16 16 -17 19 -4 19 9 0 19
-7 22 -16z m76 -76 c0 -13 -5 -9 -31 19 l-24 26 27 -19 c15 -10 28 -22 28 -26z
m6087 -50 c1 -10 -3 -18 -8 -18 -6 0 -7 -5 -4 -11 5 -6 13 -3 22 10 8 12 19
21 25 21 7 0 6 -5 -2 -15 -6 -8 -10 -22 -8 -32 2 -12 -8 -26 -29 -40 -17 -13
-34 -23 -37 -23 -14 0 -4 40 12 50 12 8 13 13 5 16 -7 3 -13 12 -13 20 0 8 -6
14 -14 14 -8 0 -16 6 -19 13 -3 8 7 12 32 12 28 0 37 -4 38 -17z m-95 3 c-10
-6 -10 -10 2 -20 8 -7 12 -19 9 -27 -6 -17 -39 -19 -49 -3 -4 8 -12 3 -20 -12
-16 -29 -19 -16 -3 14 18 35 41 57 58 57 12 0 13 -2 3 -9z m1768 -21 c0 -5 -5
-10 -11 -10 -5 0 -7 5 -4 10 3 6 8 10 11 10 2 0 4 -4 4 -10z m53 -40 c3 -11 1
-20 -4 -20 -5 0 -9 9 -9 20 0 11 2 20 4 20 2 0 6 -9 9 -20z m-1793 -15 c0 -8
-7 -15 -15 -15 -13 0 -14 3 -3 15 16 18 18 18 18 0z m170 -38 c0 -33 -25 -12
-27 24 -2 32 -2 33 12 15 8 -11 15 -28 15 -39z m1361 10 c-8 -8 -11 -3 -11 19
1 25 2 27 11 11 8 -14 8 -22 0 -30z m-4661 3 c0 -5 -2 -10 -4 -10 -3 0 -8 5
-11 10 -3 6 -1 10 4 10 6 0 11 -4 11 -10z m567 4 c-3 -3 -12 -4 -19 -1 -8 3
-5 6 6 6 11 1 17 -2 13 -5z m468 -3 c-16 -4 -55 -4 -85 -1 -50 7 -48 7 30 8
54 0 74 -3 55 -7z m112 -13 c-3 -8 -6 -5 -6 6 -1 11 2 17 5 13 3 -3 4 -12 1
-19z m-1054 -7 c-5 -3 -8 -46 -8 -96 0 -49 -2 -174 -5 -277 l-5 -188 -372 0
-373 0 -1 233 c-1 128 -5 216 -9 197 l-7 -35 -2 38 c-1 23 4 37 12 37 8 0 7 3
-3 10 -12 8 -12 12 0 36 8 15 23 29 33 32 9 2 17 9 17 14 0 6 7 7 17 4 30 -12
329 -17 357 -6 18 7 42 7 72 0 25 -6 50 -7 57 -3 6 4 55 5 109 4 68 -2 98 1
98 9 0 6 5 8 11 4 6 -3 7 -9 2 -13z m68 -1 c17 5 36 7 42 5 7 -3 187 -6 401
-7 307 -2 390 -6 394 -16 3 -10 7 -10 20 0 12 11 16 11 20 -1 4 -11 6 -11 13
0 8 12 11 11 19 -1 8 -12 11 -13 19 -1 18 28 26 -39 19 -161 -3 -68 -7 -183
-7 -255 l-1 -133 -262 0 c-145 0 -368 3 -496 7 l-233 6 2 281 c1 249 6 337 17
284 3 -13 9 -15 33 -8z m3126 -20 c30 -13 90 -96 61 -85 -10 4 -13 -8 -11 -49
1 -64 -27 -150 -66 -196 -20 -25 -39 -34 -86 -44 -81 -16 -161 -15 -157 2 3
14 -58 115 -65 108 -3 -2 1 -14 7 -26 20 -37 5 -45 -21 -9 -20 29 -24 45 -24
111 0 46 5 82 12 89 9 9 11 -2 7 -49 -3 -37 -1 -63 6 -67 7 -4 10 13 9 54 -1
37 3 66 11 76 16 20 4 33 -18 19 -54 -34 -82 -171 -58 -277 26 -111 83 -175
175 -196 58 -13 67 -25 11 -16 -143 23 -219 147 -208 335 6 95 16 115 91 181
49 43 69 54 106 59 64 7 180 -3 218 -20z m1543 -5 c0 -26 -16 -42 -22 -23 -7
19 3 58 13 52 5 -3 9 -16 9 -29z m-6170 15 c0 -5 -5 -10 -11 -10 -5 0 -7 5 -4
10 3 6 8 10 11 10 2 0 4 -4 4 -10z m2485 -282 c-4 -150 -9 -275 -12 -278 -2
-2 -3 120 -2 273 1 173 5 277 11 277 6 0 7 -97 3 -272z m3762 190 c-3 -8 -6
-5 -6 6 -1 11 2 17 5 13 3 -3 4 -12 1 -19z m-1493 -29 c1 -8 8 -25 15 -38 9
-17 12 -52 9 -117 l-4 -94 35 33 c19 17 41 39 49 47 11 13 11 11 1 -10 -6 -14
-23 -34 -37 -45 -14 -11 -35 -30 -46 -43 -85 -94 -148 -150 -184 -160 -47 -14
-52 -15 -52 -4 0 5 18 14 41 21 46 14 99 62 99 91 0 10 4 21 9 24 5 3 14 30
21 58 16 68 38 106 52 87 7 -11 8 -9 4 6 -2 11 -12 51 -21 89 -9 37 -19 76
-22 85 -5 15 -4 15 11 0 10 -9 18 -22 20 -30z m1496 1 c0 -4 -8 -14 -17 -22
-22 -19 -68 -35 -59 -20 3 6 0 12 -6 15 -8 2 1 13 21 25 31 19 61 20 61 2z
m-1535 -27 c4 -26 -1 -61 -16 -108 -27 -89 -85 -149 -151 -158 -23 -3 -49 -2
-58 3 -10 7 -2 9 28 10 70 0 93 18 139 105 18 34 27 71 31 118 5 74 17 87 27
30z m-9775 -20 c0 4 17 0 38 -7 20 -8 55 -17 77 -21 52 -8 306 -87 412 -128
46 -18 85 -39 88 -47 11 -35 22 -399 16 -580 -1 -41 3 -163 8 -270 8 -155 14
-197 26 -206 8 -6 15 -16 15 -22 0 -6 6 -13 13 -15 18 -7 -78 1 -153 13 -36 6
-168 26 -295 46 -126 19 -242 37 -257 40 l-28 6 5 426 c2 235 5 510 5 612 1
165 2 183 15 166 8 -11 15 -17 15 -13z m10081 -12 c-8 -5 -10 -14 -6 -21 5 -8
12 -7 26 6 18 16 20 16 38 0 20 -19 45 -76 33 -76 -16 1 -30 17 -33 39 -5 28
-17 35 -39 21 -12 -8 -13 -11 -1 -19 9 -6 10 -11 2 -15 -6 -4 -11 -2 -11 4 0
6 -4 8 -10 5 -6 -3 -7 1 -4 9 7 19 -7 21 -25 4 -11 -11 -12 -8 -7 14 4 17 2
28 -7 31 -6 2 4 4 23 5 22 0 29 -2 21 -7z m-83 -21 c3 -8 0 -10 -8 -5 -7 4
-16 2 -21 -6 -4 -7 -11 -10 -14 -7 -9 8 17 38 29 34 6 -1 12 -8 14 -16z m1469
14 c-3 -3 -12 -4 -19 -1 -8 3 -5 6 6 6 11 1 17 -2 13 -5z m-1441 -31 c-10 -10
-19 5 -10 18 6 11 8 11 12 0 2 -7 1 -15 -2 -18z m1404 2 c0 -8 -7 -15 -16 -15
-14 0 -14 3 -4 15 7 8 14 15 16 15 2 0 4 -7 4 -15z m-1433 -12 c-4 -3 3 -13
14 -21 18 -12 23 -13 30 -1 7 11 9 11 9 1 0 -7 5 -10 10 -7 6 3 10 1 10 -6 0
-8 -14 -9 -47 -4 -61 9 -68 14 -46 31 19 14 31 19 20 7z m1077 -47 c-3 -9 -10
-16 -15 -16 -5 0 -4 9 3 20 14 22 21 20 12 -4z m356 4 c-12 -23 -30 -27 -30
-7 0 17 10 27 27 27 11 0 11 -5 3 -20z m-162 -4 c-7 -8 -15 -12 -17 -11 -5 6
10 25 20 25 5 0 4 -6 -3 -14z m-918 -6 c12 -7 10 -11 -10 -18 -30 -11 -32 -10
-24 12 7 18 13 20 34 6z m-7410 -99 c0 -5 10 -11 23 -15 36 -9 67 -44 67 -76
0 -17 5 -30 10 -30 6 0 10 5 10 10 0 6 8 10 18 9 10 0 12 -3 5 -6 -10 -3 -10
-8 1 -18 25 -26 39 -565 16 -641 -9 -32 -10 -60 -1 -125 9 -72 28 -415 28
-518 0 -18 6 -37 14 -42 21 -13 -73 -10 -151 4 l-65 12 0 300 c-1 354 3 464
15 444 7 -11 17 -6 45 25 54 59 76 118 73 194 l-3 64 -58 2 c-31 0 -58 -3 -59
-9 -1 -5 -4 31 -7 80 -8 120 -1 345 10 345 5 0 9 -4 9 -9z m7705 -1 c-3 -5
-11 -10 -16 -10 -6 0 -7 5 -4 10 3 6 11 10 16 10 6 0 7 -4 4 -10z m335 -5 c-7
-9 -15 -13 -19 -10 -3 3 1 10 9 15 21 14 24 12 10 -5z m-445 -45 c11 9 23 8
49 -1 30 -11 33 -15 23 -31 -18 -27 -71 -41 -160 -40 -80 2 -96 8 -97 40 0 10
5 10 20 2 21 -11 27 -1 10 16 -6 6 11 8 51 4 45 -4 63 -2 72 8 8 10 12 11 15
3 3 -9 7 -9 17 -1z m-810 -29 c-3 -6 -11 -11 -17 -11 -6 0 -6 6 2 15 14 17 26
13 15 -4z m623 -38 c22 -26 24 -34 18 -99 -3 -39 -10 -82 -16 -95 -9 -22 -10
-22 -5 6 13 78 8 132 -13 153 -21 21 -30 62 -15 62 4 0 18 -12 31 -27z m-5303
7 c3 -6 -4 -10 -17 -10 -18 0 -20 2 -8 10 19 12 18 12 25 0z m-705 -4 c0 -2
-11 -6 -25 -8 -14 -3 -25 -1 -25 3 0 5 11 9 25 9 14 0 25 -2 25 -4z m763 -3
c-7 -2 -21 -2 -30 0 -10 3 -4 5 12 5 17 0 24 -2 18 -5z m4634 -105 c-1 -85 2
-111 20 -150 27 -59 38 -61 29 -8 -5 33 -3 40 10 40 20 0 49 -29 49 -49 0 -9
8 -15 17 -15 10 1 14 -4 11 -12 -2 -7 7 -23 21 -35 29 -25 60 -79 46 -79 -5 0
-7 -7 -4 -15 4 -8 14 -15 24 -15 11 0 22 -4 25 -10 3 -6 -4 -10 -18 -10 -23 0
-24 -2 -19 -50 3 -32 1 -50 -6 -50 -6 0 -14 -21 -18 -46 -3 -25 -15 -62 -26
-82 l-19 -37 5 43 c2 27 0 40 -6 36 -6 -4 -8 1 -3 15 4 12 2 21 -4 21 -6 0
-11 -4 -11 -8 0 -5 -7 -17 -15 -28 -9 -11 -14 -13 -13 -5 2 9 -11 18 -35 24
-21 5 -41 16 -44 23 -10 26 -23 14 -23 -21 0 -26 -4 -35 -17 -36 -14 -1 -14
-2 -3 -5 11 -3 15 -19 15 -59 0 -30 -3 -55 -6 -55 -18 0 -41 45 -49 96 -4 33
-13 71 -18 85 -11 28 -15 62 -13 126 1 31 10 53 36 87 19 25 32 52 29 60 -6
15 14 61 22 53 3 -2 0 -16 -5 -31 -11 -28 -9 -29 27 -20 25 7 28 17 9 36 -30
30 -50 288 -23 288 2 0 3 -46 3 -102z m-8617 72 c0 -5 12 -12 28 -16 15 -3 54
-14 87 -24 33 -10 94 -28 136 -41 42 -13 89 -33 104 -45 27 -21 27 -24 27
-125 -1 -57 6 -175 14 -262 11 -113 13 -167 5 -188 -5 -16 -7 -29 -3 -29 11 0
12 -143 2 -160 -5 -8 -3 -25 7 -43 9 -18 13 -42 9 -61 -7 -37 1 -52 34 -65 23
-9 23 -10 -12 -10 -20 -1 -114 11 -210 25 -95 14 -192 28 -215 31 l-43 6 0
486 c0 267 3 496 6 509 6 22 24 31 24 12z m3198 -10 c14 0 23 -3 19 -6 -3 -3
-25 -3 -49 1 -34 6 -39 9 -23 15 11 4 22 3 23 -1 2 -5 15 -9 30 -9z m360 13
c-10 -2 -26 -2 -35 0 -10 3 -2 5 17 5 19 0 27 -2 18 -5z m415 0 c-7 -2 -19 -2
-25 0 -7 3 -2 5 12 5 14 0 19 -2 13 -5z m-860 -10 c-7 -2 -19 -2 -25 0 -7 3
-2 5 12 5 14 0 19 -2 13 -5z m305 -10 c-27 -2 -69 -2 -95 0 -27 2 -5 3 47 3
52 0 74 -1 48 -3z m-280 -20 c-10 -2 -26 -2 -35 0 -10 3 -2 5 17 5 19 0 27 -2
18 -5z m-303 -21 l-30 -5 25 -7 c14 -5 -30 -8 -105 -9 -80 0 -125 3 -116 8 11
7 9 10 -10 14 -13 2 41 4 121 4 80 0 132 -2 115 -5z m6373 -47 c-9 -9 -30 14
-23 25 6 9 10 8 17 -4 6 -10 8 -19 6 -21z m-6252 2 l61 -8 -20 -40 c-18 -36
-18 -44 -6 -81 12 -38 12 -41 -10 -57 -22 -17 -22 -19 -6 -35 10 -9 30 -19 45
-23 16 -3 31 -13 34 -22 3 -9 19 -34 35 -56 l30 -40 -27 -6 c-24 -5 -23 -6 15
-13 122 -22 9 -36 -300 -36 l-218 0 6 109 c4 80 1 124 -10 167 -16 62 -20 136
-8 148 10 10 300 4 379 -7z m127 -14 c-7 -2 -19 -2 -25 0 -7 3 -2 5 12 5 14 0
19 -2 13 -5z m117 -4 c0 -7 -16 -8 -47 -3 -65 9 -67 14 -5 14 30 0 52 -4 52
-11z m47 5 c-3 -3 -12 -4 -19 -1 -8 3 -5 6 6 6 11 1 17 -2 13 -5z m1233 -5
c-61 -12 -62 -12 -82 -4 -11 4 -18 3 -18 -4 0 -6 7 -11 17 -11 9 0 14 -3 10
-6 -9 -9 -48 6 -42 17 4 5 -1 9 -10 9 -12 0 -15 -5 -11 -16 5 -14 0 -15 -41
-8 -42 8 -140 9 -453 4 -231 -3 -570 6 -580 16 -8 8 164 11 622 12 401 0 617
-4 588 -9z m860 6 c0 -2 3 -12 7 -22 7 -17 6 -17 -11 0 -21 21 -32 21 -116 2
-85 -20 -167 -19 -316 4 -39 6 -121 9 -182 7 -68 -3 -110 -1 -106 5 5 9 724
13 724 4z m759 -10 c11 -12 -14 -14 -194 -19 -105 -2 -191 -5 -192 -5 -2 -1
-3 -8 -3 -16 0 -8 -4 -15 -9 -15 -5 0 -8 7 -7 16 0 9 -6 18 -15 19 -9 2 -26 6
-38 10 -11 3 -21 2 -21 -3 0 -6 11 -13 25 -16 14 -4 25 -11 25 -16 0 -6 -10
-6 -27 1 -14 5 -33 7 -40 4 -8 -3 -21 2 -30 10 -8 8 -27 14 -42 13 -14 -1 -32
1 -39 6 -7 4 -12 2 -12 -3 0 -6 -18 -11 -40 -11 -22 0 -40 2 -40 4 0 2 -2 11
-5 19 -5 12 45 13 346 10 194 -2 355 -6 358 -8z m86 -5 c-3 -5 -22 -10 -41
-10 -21 0 -33 4 -29 10 3 6 22 10 41 10 21 0 33 -4 29 -10z m184 -17 c0 -16
-3 -22 -6 -13 -3 8 -10 21 -16 28 -7 8 -5 12 7 12 11 0 16 -8 15 -27z m3938
-18 c3 -9 3 -19 -1 -22 -8 -9 -37 18 -30 28 8 14 24 11 31 -6z m-1103 -78 c-8
-25 -22 -51 -30 -58 -13 -11 -13 -9 0 17 8 16 20 44 27 62 18 50 21 32 3 -21z
m-60 -102 c-9 -14 -19 -23 -22 -20 -5 4 26 45 35 45 2 0 -4 -11 -13 -25z
m-191 -82 c-7 -2 -19 -2 -25 0 -7 3 -2 5 12 5 14 0 19 -2 13 -5z m-7415 -46
c-4 -29 -18 -30 -58 -5 l-35 22 25 6 c42 10 71 0 68 -23z m-50 -38 c12 -5 26
-8 31 -6 4 1 21 -13 36 -31 l28 -34 3 -279 c2 -154 6 -284 9 -288 2 -5 0 -23
-7 -41 -10 -30 -9 -35 13 -52 l24 -19 -25 5 c-14 3 -68 10 -120 17 -52 6 -105
15 -117 20 l-23 9 0 364 c0 200 3 371 6 380 5 13 14 11 62 -10 32 -14 67 -30
80 -35z m1742 -89 c-19 -5 -82 -14 -140 -20 -138 -15 -485 -4 -501 16 -10 12
44 14 332 13 206 -1 330 -4 309 -9z m5450 -54 c0 -3 -4 -8 -10 -11 -5 -3 -10
-1 -10 4 0 6 5 11 10 11 6 0 10 -2 10 -4z m-22 -88 c7 -7 12 -15 12 -19 0 -13
-29 -18 -36 -7 -4 7 -3 8 4 4 16 -9 15 7 0 22 -7 7 -8 12 -2 12 5 0 15 -5 22
-12z m-5506 -234 c4 -3 8 -11 8 -19 0 -21 24 -25 158 -26 70 -1 120 -3 110 -6
-9 -2 -19 -11 -22 -19 -4 -10 2 -14 22 -15 l27 -1 -30 -9 c-16 -5 -238 -9
-492 -8 l-463 0 0 25 0 24 140 0 c135 0 270 16 270 32 0 5 -4 8 -10 8 -5 0
-10 5 -10 11 0 8 19 9 63 5 87 -9 86 -8 84 -20 -1 -5 6 -12 16 -14 9 -2 17 1
17 7 0 6 -4 11 -10 11 -20 0 -10 19 13 23 24 6 95 -1 109 -9z m-635 -181 c-3
-10 -5 -4 -5 12 0 17 2 24 5 18 2 -7 2 -21 0 -30z m3431 -58 c14 -31 6 -55
-18 -55 -15 0 -19 8 -18 40 0 46 19 53 36 15z m-3431 -102 c-3 -10 -5 -2 -5
17 0 19 2 27 5 18 2 -10 2 -26 0 -35z m3473 -36 c0 -58 -12 -75 -14 -21 -2 44
-23 40 -28 -5 -2 -23 1 -39 7 -38 5 1 9 -10 8 -25 -1 -18 4 -28 15 -31 25 -6
-138 -7 -170 -1 -31 6 -37 28 -11 42 9 6 14 16 10 25 -5 12 2 18 28 23 42 7
55 0 55 -32 0 -13 5 -24 10 -24 12 0 13 57 1 64 -14 9 -22 69 -10 76 6 4 30 7
55 7 l44 0 0 -60z m1570 -3 c0 -27 -4 -43 -10 -39 -5 3 -10 24 -10 46 0 21 5
39 10 39 6 0 10 -21 10 -46z m-1888 -66 c5 -50 -3 -58 -54 -58 -27 0 -38 4
-38 15 0 9 9 15 25 15 18 0 25 5 25 20 0 11 -7 20 -15 20 -8 0 -15 7 -15 15 0
10 10 15 34 15 33 0 34 -2 38 -42z m-3155 -30 c-3 -7 -5 -2 -5 12 0 14 2 19 5
13 2 -7 2 -19 0 -25z m1113 -28 c85 -2 90 -3 47 -10 -64 -11 -73 -22 -16 -17
24 2 62 0 84 -3 22 -4 -256 -8 -617 -9 -643 -1 -658 -1 -658 18 0 11 8 21 18
24 14 3 831 1 1142 -3z m-1836 -19 c3 -4 -4 -17 -16 -27 -20 -18 -21 -18 -15
-1 4 10 7 23 7 28 0 11 17 12 24 0z m5768 -77 c-1 -27 -6 -67 -10 -89 -6 -34
-8 -28 -12 45 -5 93 -4 103 13 97 8 -2 11 -22 9 -53z m-5774 -25 c7 -11 10
-28 7 -38 -4 -14 1 -20 22 -26 21 -5 24 -8 12 -16 -7 -5 -24 -9 -36 -9 -14 0
-23 -6 -23 -15 0 -8 -4 -15 -10 -15 -5 0 -10 7 -10 15 0 9 -14 17 -40 21 -39
6 -46 24 -9 24 13 0 19 7 19 21 0 53 43 78 68 38z m1997 -39 c3 -5 1 -10 -4
-10 -6 0 -11 5 -11 10 0 6 2 10 4 10 3 0 8 -4 11 -10z m255 -26 c0 -8 -5 -12
-10 -9 -6 4 -8 11 -5 16 9 14 15 11 15 -7z m170 12 c0 -3 -4 -8 -10 -11 -5 -3
-10 -1 -10 4 0 6 5 11 10 11 6 0 10 -2 10 -4z m5129 -67 c35 -5 76 -17 90 -25
14 -8 17 -13 7 -9 -26 8 -147 25 -171 24 -16 -1 -15 -2 5 -8 21 -6 15 -9 -30
-15 -81 -11 -172 -59 -238 -124 -42 -42 -50 -48 -32 -22 29 42 78 88 103 96 9
3 17 10 17 15 0 5 -15 2 -32 -7 -33 -17 -33 -16 -16 3 35 39 122 71 223 82 6
0 39 -4 74 -10z m-3462 -16 c-4 -3 -26 -7 -49 -8 -24 -2 -49 -3 -55 -4 -15 -1
-17 -54 -3 -80 12 -23 61 -56 58 -39 -4 19 62 32 95 19 16 -6 25 -15 22 -21
-10 -17 21 -11 45 8 13 11 25 35 29 58 6 31 11 38 26 36 11 -2 43 -7 70 -11
28 -5 98 -12 158 -16 l107 -7 0 -44 0 -44 -497 2 -498 3 -3 29 c-2 16 -1 44 2
61 5 26 11 32 29 30 40 -4 311 15 342 24 36 11 131 14 122 4z m130 -9 c-3 -3
-12 -4 -19 -1 -8 3 -5 6 6 6 11 1 17 -2 13 -5z m-649 -92 c-3 -46 -4 -47 -38
-48 -19 -1 -53 0 -75 3 -40 5 -41 6 -37 42 6 49 18 61 61 62 20 0 45 4 56 8
27 11 37 -8 33 -67z m-3550 25 c27 2 42 0 42 -8 0 -6 -6 -9 -14 -6 -8 3 -16 1
-19 -6 -4 -12 -121 -12 -140 0 -16 10 46 31 68 23 11 -3 39 -5 63 -3z m7212
-1 c0 -2 -8 -10 -17 -17 -16 -13 -17 -12 -4 4 13 16 21 21 21 13z m-5247 -59
c13 -3 7 -5 -15 -6 -31 -1 -37 2 -35 17 1 9 7 24 12 32 8 12 11 10 13 -12 2
-18 10 -28 25 -31z m27 36 c0 -7 -9 -13 -20 -13 -11 0 -20 6 -20 13 0 7 9 13
20 13 11 0 20 -6 20 -13z m-3270 -28 c0 -19 -4 -35 -8 -35 -4 0 -6 16 -4 35 2
19 6 35 8 35 2 0 4 -16 4 -35z m1827 29 c-3 -3 -12 -4 -19 -1 -8 3 -5 6 6 6
11 1 17 -2 13 -5z m1813 -8 c0 -11 -19 -15 -25 -6 -3 5 1 10 9 10 9 0 16 -2
16 -4z m2289 -298 c0 -176 -4 -295 -9 -283 -5 11 -7 130 -5 265 3 135 5 262 5
283 0 20 2 37 5 37 3 0 5 -136 4 -302z m-3999 225 c0 -41 -3 -54 -10 -43 -5 8
-10 30 -10 48 l0 32 -55 0 c-42 0 -55 -3 -55 -15 0 -12 -12 -15 -62 -13 -35 2
-65 6 -68 9 -3 3 -33 3 -67 -1 -54 -5 -63 -3 -63 10 0 14 16 16 118 15 95 0
226 6 265 14 4 0 7 -25 7 -56z m1180 47 c0 -5 -9 -10 -20 -10 -11 0 -20 5 -20
10 0 6 9 10 20 10 11 0 20 -4 20 -10z m395 0 c3 -5 -1 -10 -9 -10 -9 0 -16 5
-16 10 0 6 4 10 9 10 6 0 13 -4 16 -10z m-2025 -9 c0 -17 -57 -19 -255 -13
-152 5 -181 8 -120 12 141 9 375 9 375 1z m-602 -18 c-21 -2 -57 -2 -80 0 -24
2 -7 4 37 4 44 0 63 -2 43 -4z m3952 -258 l0 -245 -81 0 -82 0 8 213 c4 116 8
223 10 237 1 14 -3 28 -9 32 -6 4 26 8 72 8 l82 0 0 -245z m1033 237 c-10 -6
-11 -62 -6 -240 3 -128 10 -232 15 -232 4 0 9 107 9 238 1 200 3 224 11 152 4
-47 7 -157 6 -245 l-3 -160 -172 -3 c-145 -2 -173 -5 -173 -17 0 -8 -8 -16
-17 -16 -52 -4 -72 -8 -188 -38 -40 -10 -55 -8 -148 25 -20 8 -49 14 -62 14
-17 0 -25 6 -26 18 -1 16 -2 16 -6 0 -6 -24 -19 -23 -26 2 -5 18 -14 20 -116
20 l-111 0 0 245 0 245 513 0 c281 0 507 -4 500 -8z m-4197 -13 c4 -8 28 -10
68 -6 l61 5 -40 -13 c-58 -20 -88 -18 -103 5 -7 11 -8 20 -3 20 6 0 13 -5 17
-11z m-119 -31 c-3 -7 -5 -2 -5 12 0 14 2 19 5 13 2 -7 2 -19 0 -25z m-77 2
c0 -5 -5 -10 -11 -10 -5 0 -7 5 -4 10 3 6 8 10 11 10 2 0 4 -4 4 -10z m110 0
c0 -5 -4 -10 -10 -10 -5 0 -10 5 -10 10 0 6 5 10 10 10 6 0 10 -4 10 -10z
m6781 -13 c-10 -9 -11 -8 -5 6 3 10 9 15 12 12 3 -3 0 -11 -7 -18z m-6944 -3
c-3 -3 -12 -4 -19 -1 -8 3 -5 6 6 6 11 1 17 -2 13 -5z m206 -83 c12 -2 8 -28
-5 -28 -7 -1 -33 -4 -58 -8 -31 -5 -56 -2 -80 8 -34 15 -34 15 -10 21 48 11
117 14 153 7z m302 -11 c3 -6 -1 -7 -9 -4 -18 7 -21 14 -7 14 6 0 13 -4 16
-10z m5153 1 c9 -5 11 -17 6 -34 -4 -17 -2 -27 5 -27 6 0 11 14 11 30 0 23 4
30 20 30 11 0 20 -5 20 -11 0 -5 5 -7 12 -3 7 5 8 3 4 -5 -5 -7 -10 -10 -13
-7 -7 7 -43 -39 -43 -56 -1 -8 -6 -6 -16 7 -8 11 -19 19 -24 18 -10 -3 -23 45
-15 57 7 12 16 12 33 1z m-6068 -71 c-6 -11 -13 -20 -16 -20 -2 0 0 9 6 20 6
11 13 20 16 20 2 0 0 -9 -6 -20z m7307 -127 c-2 -27 -3 -5 -3 47 0 52 1 74 3
48 2 -27 2 -69 0 -95z m-6964 100 c-18 -2 -48 -2 -65 0 -18 2 -4 4 32 4 36 0
50 -2 33 -4z m84 1 c-3 -3 -12 -4 -19 -1 -8 3 -5 6 6 6 11 1 17 -2 13 -5z
m7110 -41 c-3 -10 -5 -4 -5 12 0 17 2 24 5 18 2 -7 2 -21 0 -30z m530 -180
c-1 -43 -3 -10 -3 72 0 83 2 118 3 78 2 -40 2 -107 0 -150z m-8060 120 c-3
-10 -5 -2 -5 17 0 19 2 27 5 18 2 -10 2 -26 0 -35z m720 -10 c-3 -10 -5 -2 -5
17 0 19 2 27 5 18 2 -10 2 -26 0 -35z m5290 15 c-3 -8 -6 -5 -6 6 -1 11 2 17
5 13 3 -3 4 -12 1 -19z m-4987 -73 l0 -65 258 1 c941 1 1276 -2 1262 -11 -13
-8 -12 -10 3 -10 9 0 17 -4 17 -10 0 -5 -21 -8 -47 -7 -109 4 -263 -3 -263
-13 0 -6 11 -8 28 -4 15 4 25 5 22 2 -7 -7 -325 -172 -458 -238 -63 -31 -114
-60 -115 -65 -1 -6 -12 -15 -24 -22 -13 -7 -21 -8 -18 -3 4 6 3 10 -1 10 -8 0
-407 -200 -804 -403 -129 -66 -296 -151 -372 -189 l-136 -69 -301 4 c-165 1
-303 6 -307 10 -4 3 -12 3 -18 0 -17 -11 -79 -12 -96 -1 -11 7 -8 8 11 4 15
-3 41 2 64 14 34 17 43 18 73 8 29 -11 36 -10 46 4 7 9 24 20 39 23 15 4 30
11 33 16 3 5 16 9 30 9 13 0 24 4 24 9 0 11 -69 22 -100 15 -19 -4 -22 -3 -10
5 8 5 40 13 70 16 30 3 71 8 90 11 31 5 33 7 17 19 -16 11 -12 14 32 20 28 4
51 10 51 14 0 3 -7 17 -16 30 -17 23 -16 23 14 16 46 -10 70 1 74 33 3 25 7
27 51 30 33 2 47 7 47 18 0 8 -7 17 -15 20 -23 9 -18 24 8 24 13 0 34 11 47
26 20 21 22 27 10 34 -17 11 -17 12 40 41 l45 23 -30 7 c-20 4 -4 7 50 8 44 1
202 4 350 7 l270 6 153 67 153 66 -516 3 -517 2 -121 -34 c-67 -19 -138 -39
-157 -45 -19 -5 -50 -14 -67 -20 -19 -5 -33 -6 -33 0 0 5 11 11 25 15 23 6 25
10 25 69 0 54 3 63 20 68 13 3 20 14 20 29 0 27 18 34 197 78 112 28 113 27
113 -19 0 -28 5 -41 18 -46 15 -6 14 -8 -5 -16 -35 -13 -28 -26 15 -31 64 -6
316 7 332 17 12 8 11 10 -7 15 -20 5 -20 7 -7 25 15 20 15 20 34 -5 24 -31 25
-37 3 -43 -15 -3 -14 -6 7 -15 24 -10 24 -11 3 -11 -12 -1 -24 -5 -28 -10 -5
-10 239 -6 283 4 31 7 23 29 -11 33 -32 4 -33 11 -7 45 11 14 20 32 20 41 0
17 56 18 629 16 l194 -1 88 38 c49 20 89 40 89 43 0 3 -117 5 -260 5 l-259 0
-4 -25 c-2 -14 -5 -3 -6 23 0 30 3 46 9 42 6 -4 8 -11 5 -16 -4 -5 -1 -9 4 -9
6 0 11 9 11 20 0 13 7 20 19 20 10 0 22 7 25 16 9 23 7 34 -4 34 -5 0 -10 -9
-10 -20 0 -11 -4 -20 -10 -20 -5 0 -10 9 -10 20 0 29 -48 27 -60 -2 -9 -23 -9
-23 -9 -1 -1 16 -6 20 -20 16 -11 -3 -21 -12 -23 -20 -2 -11 -21 -17 -72 -20
-66 -4 -68 -4 -63 16 3 14 0 21 -8 21 -7 0 -16 6 -18 13 -10 22 -25 -13 -20
-45 4 -25 1 -29 -14 -26 -12 2 -18 12 -18 31 l1 27 -91 0 c-100 0 -108 -6 -82
-58 8 -17 8 -28 -1 -42 -6 -11 -9 -26 -6 -35 3 -8 1 -15 -5 -15 -8 0 -11 47
-11 149 l0 150 -37 4 c-35 3 -34 4 10 5 l47 2 0 -65z m4327 -47 c-2 -13 -4 -3
-4 22 0 25 2 35 4 23 2 -13 2 -33 0 -45z m-230 -40 c-3 -7 -5 -2 -5 12 0 14 2
19 5 13 2 -7 2 -19 0 -25z m2430 0 c-3 -7 -5 -2 -5 12 0 14 2 19 5 13 2 -7 2
-19 0 -25z m-2447 -48 c0 -40 -4 -70 -10 -70 -11 0 -14 98 -4 124 11 29 14 17
14 -54z m-2455 40 c-27 -11 -63 -12 -69 -1 -3 5 16 9 42 9 34 0 42 -2 27 -8z
m2662 -92 c-2 -18 -4 -4 -4 32 0 36 2 50 4 33 2 -18 2 -48 0 -65z m2280 15
c-3 -10 -5 -2 -5 17 0 19 2 27 5 18 2 -10 2 -26 0 -35z m470 -5 c-3 -7 -5 -2
-5 12 0 14 2 19 5 13 2 -7 2 -19 0 -25z m-6715 0 l20 -23 -5 23 c-4 16 -1 22
13 22 15 0 19 -8 18 -40 0 -39 -18 -66 -26 -41 -3 9 -7 9 -17 1 -8 -6 -26 -10
-42 -8 -24 3 -28 8 -31 37 -5 53 34 69 70 29z m85 -40 c-2 -13 -4 -3 -4 22 0
25 2 35 4 23 2 -13 2 -33 0 -45z m3240 41 l153 -12 5 -31 c3 -17 2 -71 -3
-121 -9 -87 -9 -88 -12 -30 l-2 60 -10 -48 c-8 -37 -17 -51 -39 -63 -16 -8
-29 -16 -29 -19 0 -2 18 -3 40 -3 23 0 44 -2 47 -6 4 -3 -88 -6 -203 -5 -134
0 -201 3 -187 9 28 11 22 30 -18 52 -17 10 -28 22 -25 27 4 5 -13 19 -36 30
-24 11 -52 34 -63 51 -11 17 -28 33 -37 36 -26 8 -22 23 9 35 15 5 33 19 40
29 21 30 84 31 370 9z m-3438 -73 c-14 -15 -22 0 -13 26 7 22 7 22 14 3 4 -11
4 -24 -1 -29z m-1344 -6 c10 -11 14 -20 8 -20 -5 0 -18 9 -28 20 -10 11 -14
20 -8 20 5 0 18 -9 28 -20z m5022 -17 c-3 -10 -5 -4 -5 12 0 17 2 24 5 18 2
-7 2 -21 0 -30z m2295 5 c-9 -9 -15 -9 -24 0 -9 9 -7 12 12 12 19 0 21 -3 12
-12z m135 -11 c7 -4 30 -3 52 2 33 7 41 6 41 -5 0 -14 -18 -17 -107 -18 -27
-1 -45 4 -48 13 -3 8 -14 11 -25 8 -19 -5 -27 3 -15 15 6 6 87 -6 102 -15z
m-212 3 c-3 -5 -13 -10 -21 -10 -8 0 -14 5 -14 10 0 6 9 10 21 10 11 0 17 -4
14 -10z m415 -6 c0 -2 -15 -4 -32 -3 -27 0 -29 2 -13 8 18 8 45 4 45 -5z m233
9 c-7 -2 -19 -2 -25 0 -7 3 -2 5 12 5 14 0 19 -2 13 -5z m-2684 -120 c-2 -96
-3 -107 -8 -58 -6 57 -3 175 5 175 2 0 3 -53 3 -117z m1811 102 c0 -8 -3 -15
-6 -15 -3 0 -12 7 -20 15 -14 13 -13 15 5 15 12 0 21 -6 21 -15z m72 8 c-24
-3 -32 -8 -28 -19 3 -8 2 -14 -3 -14 -5 0 -11 9 -14 20 -5 18 -1 20 36 18 39
-1 39 -2 9 -5z m-199 -10 c-13 -2 -33 -2 -45 0 -13 2 -3 4 22 4 25 0 35 -2 23
-4z m-4723 -13 c-8 -5 -19 -10 -25 -10 -5 0 -3 5 5 10 8 5 20 10 25 10 6 0 3
-5 -5 -10z m4558 3 c-10 -2 -26 -2 -35 0 -10 3 -2 5 17 5 19 0 27 -2 18 -5z
m65 0 c-7 -2 -19 -2 -25 0 -7 3 -2 5 12 5 14 0 19 -2 13 -5z m842 -3 c25 -7
23 -8 -17 -7 -27 1 -48 5 -48 10 0 9 24 7 65 -3z m-1175 -10 c0 -5 -5 -10 -11
-10 -5 0 -7 5 -4 10 3 6 8 10 11 10 2 0 4 -4 4 -10z m198 -9 c2 -6 13 -11 23
-11 11 0 17 5 14 10 -3 6 1 10 10 10 9 0 14 -4 11 -9 -4 -5 0 -11 6 -14 7 -3
-167 -5 -386 -6 -220 -1 -398 1 -395 3 2 3 60 7 129 10 69 3 174 9 234 12 80
5 107 4 102 -5 -5 -7 7 -11 38 -11 38 0 44 3 39 17 -6 14 3 15 83 10 50 -3 90
-10 92 -16z m585 12 c-24 -2 -62 -2 -85 0 -24 2 -5 4 42 4 47 0 66 -2 43 -4z
m-5123 -11 c0 -4 -16 -16 -35 -26 -26 -14 -32 -22 -23 -28 9 -6 5 -7 -9 -3
-25 7 -142 -54 -124 -64 6 -4 -5 -7 -25 -7 -19 0 -38 -5 -42 -10 -7 -10 -65
-43 -232 -131 -164 -87 -259 -138 -350 -188 -112 -62 -240 -130 -365 -195 -49
-26 -106 -56 -125 -68 -42 -27 -73 -30 -39 -4 13 10 53 33 89 52 36 18 90 47
120 63 30 16 98 52 150 80 52 27 107 58 122 68 14 11 29 19 32 19 3 0 97 49
208 109 112 59 275 146 363 192 88 46 187 98 220 115 33 18 61 32 63 33 1 1 2
-2 2 -7z m3307 -24 c-3 -7 -5 -2 -5 12 0 14 2 19 5 13 2 -7 2 -19 0 -25z
m1572 20 c11 -10 14 -10 18 0 6 17 23 15 23 -3 0 -13 -23 -15 -145 -15 -80 0
-145 3 -145 8 0 4 50 5 111 4 79 -3 109 -1 105 7 -10 15 17 14 33 -1z m415 1
c-5 -9 20 -10 94 -6 55 3 102 2 104 -2 4 -11 98 -20 98 -10 0 5 11 9 25 9 14
0 25 -4 25 -9 0 -5 39 -8 88 -8 172 0 204 -2 197 -13 -3 -5 -17 -7 -31 -4 -16
4 -24 2 -24 -6 0 -9 14 -11 50 -7 49 6 110 -7 110 -24 0 -8 -38 -6 -185 12
-335 39 -430 49 -498 49 -50 0 -76 4 -72 10 3 6 -3 10 -14 10 -12 0 -21 -4
-21 -10 0 -5 -8 -10 -17 -10 -15 0 -15 2 -4 9 11 7 7 10 -15 14 -16 2 -1 5 34
6 45 1 61 -2 56 -10z m89 4 c-7 -2 -19 -2 -25 0 -7 3 -2 5 12 5 14 0 19 -2 13
-5z m-1583 -7 c0 -3 -4 -8 -10 -11 -5 -3 -10 -1 -10 4 0 6 5 11 10 11 6 0 10
-2 10 -4z m1385 -7 c11 -5 -38 -8 -112 -8 -73 1 -135 5 -138 10 -7 10 222 9
250 -2z m-7275 -78 c0 -81 0 -81 -105 -81 -65 0 -95 -4 -99 -12 -5 -10 -7 -10
-12 0 -3 6 -23 12 -45 12 -21 0 -39 4 -39 8 0 5 14 7 30 4 17 -2 30 0 30 6 0
6 -21 14 -47 17 -27 3 -55 7 -63 8 -14 2 250 70 310 80 14 2 28 5 33 6 4 0 7
-21 7 -48z m8350 29 c0 -5 -2 -10 -4 -10 -3 0 -8 5 -11 10 -3 6 -1 10 4 10 6
0 11 -4 11 -10z m177 4 c-3 -3 -12 -4 -19 -1 -8 3 -5 6 6 6 11 1 17 -2 13 -5z
m-2796 -76 c64 -33 96 -55 92 -63 -3 -10 -10 -8 -24 6 -21 21 -101 59 -125 59
-35 0 -7 -24 79 -66 50 -25 115 -57 142 -73 58 -31 339 -179 372 -195 13 -6
23 -15 23 -19 0 -9 -38 9 -62 31 -10 8 -18 12 -18 9 0 -9 -144 64 -152 77 -4
6 -8 7 -8 3 0 -7 -445 215 -459 228 -2 3 -5 20 -6 39 -3 34 -2 35 23 25 14 -6
70 -33 123 -61z m-3676 46 c-33 -25 -196 -120 -257 -150 -32 -15 -58 -30 -58
-34 0 -4 -15 -13 -32 -21 -32 -12 -202 -110 -223 -127 -6 -5 -19 -9 -28 -9
-16 0 -16 2 -4 14 8 8 33 24 55 36 130 69 290 157 377 207 155 89 214 118 170
84z m6640 -6 c-24 -14 -97 -20 -90 -8 3 6 18 10 33 10 15 0 34 4 42 9 8 6 18
7 23 4 5 -3 2 -10 -8 -15z m185 -19 c0 -5 -7 -9 -15 -9 -15 0 -20 12 -9 23 8
8 24 -1 24 -14z m-690 -5 c0 -2 -7 -4 -15 -4 -8 0 -15 4 -15 10 0 5 7 7 15 4
8 -4 15 -8 15 -10z m-20 -24 c0 -5 -4 -10 -9 -10 -6 0 -13 5 -16 10 -3 6 1 10
9 10 9 0 16 -4 16 -10z m-6213 -42 c-3 -8 -6 -5 -6 6 -1 11 2 17 5 13 3 -3 4
-12 1 -19z m-2330 -4 c-3 -3 -12 -4 -19 -1 -8 3 -5 6 6 6 11 1 17 -2 13 -5z
m2478 -14 c-3 -5 -12 -10 -18 -10 -7 0 -6 4 3 10 19 12 23 12 15 0z m-2195
-10 c-8 -5 -19 -10 -25 -10 -5 0 -3 5 5 10 8 5 20 10 25 10 6 0 3 -5 -5 -10z
m5753 -16 c64 -33 237 -131 294 -167 24 -15 46 -27 49 -27 13 0 96 -52 91 -57
-3 -2 -77 35 -164 83 -87 48 -195 107 -240 131 -73 39 -106 63 -88 63 3 0 29
-12 58 -26z m-6013 -8 c0 -3 -4 -8 -10 -11 -5 -3 -10 -1 -10 4 0 6 5 11 10 11
6 0 10 -2 10 -4z m130 -37 c67 -1 124 1 127 5 4 3 22 6 42 5 46 -1 34 -6 -119
-54 -63 -20 -211 -68 -328 -106 l-213 -69 -257 2 c-141 1 -230 3 -197 5 33 2
65 9 70 15 7 7 -8 9 -50 4 -56 -5 -58 -5 -30 8 17 7 66 19 110 26 48 8 88 20
100 31 11 10 25 19 30 20 6 1 15 3 20 4 6 2 115 8 244 15 231 11 335 23 357
41 6 5 20 7 30 3 16 -5 16 -4 4 5 -8 6 -30 11 -47 11 -18 0 -33 2 -33 4 0 2
-3 12 -7 22 -5 13 -3 16 10 11 9 -3 70 -7 137 -8z m2210 -6 c0 -2 -11 -16 -25
-31 l-25 -27 2 25 c2 14 7 28 11 31 9 6 37 8 37 2z m-139 -47 c18 16 19 16 19
-9 0 -14 2 -31 5 -39 3 -8 -15 -25 -45 -43 -27 -16 -50 -37 -50 -45 0 -10 -10
-15 -32 -15 -24 0 -36 -6 -42 -21 -5 -11 -30 -33 -55 -48 -68 -39 -85 -50 -91
-57 -3 -3 -20 -14 -37 -24 -18 -11 -33 -25 -33 -32 0 -7 -7 -13 -15 -13 -9 0
-25 -9 -37 -20 -28 -26 -136 -82 -150 -78 -15 5 53 72 90 87 31 13 32 15 16
32 -16 18 -16 19 2 19 21 1 64 33 64 48 0 6 9 14 20 17 11 3 20 11 20 16 0 5
7 9 15 9 9 0 18 6 21 14 3 8 19 20 36 27 17 7 45 25 62 41 17 15 38 28 48 28
10 0 18 5 18 11 0 6 9 9 20 6 18 -5 22 -1 19 20 -2 13 35 27 39 15 11 -35 52
8 48 51 -2 17 -1 21 1 9 4 -23 5 -23 24 -6z m4822 27 c-13 -2 -35 -2 -50 0
-16 2 -5 4 22 4 28 0 40 -2 28 -4z m-1493 -107 c0 -75 -14 -78 -17 -5 -1 32 2
59 7 59 6 0 10 -24 10 -54z m-3223 -43 c-3 -10 -5 -4 -5 12 0 17 2 24 5 18 2
-7 2 -21 0 -30z m-127 -13 c-19 -12 -30 -12 -30 -1 0 10 31 20 40 14 2 -2 -2
-8 -10 -13z m161 -23 c-13 -13 -15 1 -4 30 7 17 8 17 11 -1 2 -10 -1 -23 -7
-29z m3783 -66 c71 -47 152 -99 180 -115 28 -16 56 -35 61 -41 6 -6 43 -33 83
-59 39 -26 72 -51 72 -55 0 -5 14 -14 30 -21 17 -7 30 -16 30 -20 0 -4 11 -11
25 -14 13 -3 36 -18 51 -31 15 -14 33 -24 40 -21 9 3 11 -1 7 -11 -5 -12 -2
-15 10 -10 10 4 16 2 14 -5 -1 -7 3 -12 8 -13 19 -1 48 -22 44 -33 -2 -5 -33
10 -69 34 -36 23 -70 43 -75 44 -6 0 -16 9 -23 20 -7 11 -19 20 -27 20 -8 0
-15 5 -15 10 0 6 -6 10 -12 11 -7 0 -42 22 -78 49 -36 27 -169 117 -297 202
-128 84 -232 157 -233 161 0 11 31 -7 174 -102z m-7539 69 c-3 -5 -27 -9 -53
-9 -46 2 -46 2 -12 9 53 11 72 11 65 0z m3632 -22 c-3 -7 -5 -2 -5 12 0 14 2
19 5 13 2 -7 2 -19 0 -25z m3872 18 c7 -8 41 -33 77 -57 35 -23 63 -44 60 -46
-5 -5 -176 104 -176 112 0 11 28 4 39 -9z m735 -197 c8 -8 8 -10 0 -8 -25 8
-354 194 -354 200 0 8 339 -176 354 -192z m-104 159 c0 -12 -9 -10 -41 9 -41
24 -36 36 6 16 19 -9 35 -20 35 -25z m-5045 22 c-3 -5 -12 -10 -18 -10 -7 0
-6 4 3 10 19 12 23 12 15 0z m525 -4 c0 -3 -4 -8 -10 -11 -5 -3 -10 -1 -10 4
0 6 5 11 10 11 6 0 10 -2 10 -4z m-560 -15 c0 -5 -15 -16 -32 -25 -38 -19 -52
-27 -128 -77 -30 -20 -66 -40 -80 -44 -14 -4 -29 -14 -35 -20 -5 -7 -41 -30
-80 -50 -38 -20 -72 -41 -73 -46 -2 -5 -7 -7 -12 -4 -4 3 -28 -6 -52 -20 -23
-14 -36 -25 -28 -25 8 -1 -3 -7 -24 -15 -21 -7 -43 -19 -47 -27 -4 -7 -11 -9
-15 -6 -13 14 5 35 48 58 23 13 68 38 99 54 32 17 86 46 120 65 35 18 75 41
89 50 14 9 39 23 55 31 17 8 32 18 35 21 4 6 151 88 158 89 1 0 2 -4 2 -9z
m5247 -87 c29 -16 53 -33 53 -37 0 -5 4 -6 9 -2 6 3 36 -9 68 -26 32 -17 94
-50 138 -72 75 -39 94 -53 95 -69 0 -3 -37 14 -82 39 -46 25 -96 52 -113 61
-16 8 -33 20 -37 26 -4 6 -8 8 -8 3 0 -9 -42 12 -135 68 -38 23 -87 50 -107
60 -21 9 -38 22 -38 27 0 5 24 -4 53 -20 28 -16 76 -42 104 -58z m-4670 34
c-3 -8 -6 -5 -6 6 -1 11 2 17 5 13 3 -3 4 -12 1 -19z m3300 -55 c-3 -10 -5 -2
-5 17 0 19 2 27 5 18 2 -10 2 -26 0 -35z m1363 -87 c0 -2 -9 -2 -20 1 -11 3
-20 9 -20 15 0 5 9 4 20 -2 11 -6 20 -12 20 -14z m35 -16 c3 -6 -1 -7 -9 -4
-18 7 -21 14 -7 14 6 0 13 -4 16 -10z m-4875 -10 c0 -5 -5 -10 -11 -10 -5 0
-7 5 -4 10 3 6 8 10 11 10 2 0 4 -4 4 -10z m-1011 -25 c-38 -20 -72 -29 -65
-17 3 6 20 13 36 17 17 4 30 11 30 16 0 6 5 7 11 3 8 -4 3 -11 -12 -19z
m-1112 9 c-3 -3 -12 -4 -19 -1 -8 3 -5 6 6 6 11 1 17 -2 13 -5z m1813 -9 c-7
-8 -17 -12 -23 -8 -6 4 -3 9 9 14 27 11 28 11 14 -6z m5282 -16 c65 -38 62
-35 43 -43 -9 -3 -13 -2 -10 4 3 6 -2 13 -12 17 -10 3 -30 14 -44 24 -14 10
-29 16 -33 12 -3 -3 -6 -1 -6 5 0 17 3 16 62 -19z m-5452 11 c0 -5 -5 -10 -11
-10 -5 0 -7 5 -4 10 3 6 8 10 11 10 2 0 4 -4 4 -10z m410 -20 c0 -5 -5 -10
-11 -10 -5 0 -7 5 -4 10 3 6 8 10 11 10 2 0 4 -4 4 -10z m-1021 -4 c-13 -12
-82 -46 -86 -42 -5 5 66 45 81 46 5 0 7 -2 5 -4z m6331 -26 c0 -5 -2 -10 -4
-10 -3 0 -8 5 -11 10 -3 6 -1 10 4 10 6 0 11 -4 11 -10z m-140 -36 c0 -2 -13
2 -30 11 -16 9 -30 18 -30 21 0 2 14 -2 30 -11 17 -9 30 -18 30 -21z m-5573
20 c-3 -3 -12 -4 -19 -1 -8 3 -5 6 6 6 11 1 17 -2 13 -5z m38 -24 c-3 -5 -12
-10 -20 -10 -7 0 -15 -7 -19 -15 -6 -17 -26 -21 -26 -5 0 5 12 16 28 24 32 18
46 20 37 6z m273 -28 c-13 -16 -25 -24 -27 -19 -2 6 6 19 19 29 32 26 35 22 8
-10z m-871 -3 c-1 -14 -7 -19 -19 -16 -10 3 -16 1 -13 -4 3 -4 -7 -12 -22 -15
-15 -4 -38 -14 -50 -21 -12 -8 -30 -13 -40 -11 -14 2 -9 8 17 21 19 9 55 28
80 42 25 14 46 25 47 25 1 0 1 -9 0 -21z m6208 -9 c3 -6 -1 -7 -9 -4 -18 7
-21 14 -7 14 6 0 13 -4 16 -10z m-5685 -20 c0 -5 -4 -10 -10 -10 -5 0 -10 5
-10 10 0 6 5 10 10 10 6 0 10 -4 10 -10z m-42 -30 c-7 -11 -18 -18 -25 -16 -6
3 -14 0 -17 -7 -3 -8 -5 -8 -5 1 -1 8 8 16 19 19 11 3 20 9 20 14 0 5 5 9 10
9 6 0 5 -8 -2 -20z m302 -4 c0 -3 -4 -8 -10 -11 -5 -3 -10 -1 -10 4 0 6 5 11
10 11 6 0 10 -2 10 -4z m-376 -41 c-6 -16 -24 -21 -24 -7 0 11 11 22 21 22 5
0 6 -7 3 -15z m-59 -41 c-16 -14 -43 -36 -60 -50 -33 -27 -57 -30 -78 -10 -8
8 -25 13 -38 10 -21 -4 -22 -3 -4 5 11 4 35 6 54 3 22 -3 32 -2 28 5 -4 6 2
13 13 16 11 3 17 1 14 -4 -5 -9 61 32 81 50 6 5 12 7 15 4 3 -3 -8 -16 -25
-29z m5474 15 c-18 -11 -39 -11 -39 0 0 5 12 9 26 9 18 0 22 -3 13 -9z m-5675
-8 c3 -5 -3 -11 -14 -14 -20 -5 -26 3 -13 16 9 10 21 9 27 -2z m5804 -66 c47
-33 67 -52 59 -57 -7 -5 -2 -8 16 -8 15 0 27 -4 27 -10 0 -5 11 -12 25 -16 14
-3 25 -9 25 -13 0 -3 13 -12 29 -19 19 -9 28 -18 24 -28 -3 -8 -9 -14 -14 -14
-10 0 -97 58 -124 82 -10 10 -27 17 -36 16 -9 -2 -17 2 -19 7 -1 6 -21 21 -44
35 -23 14 -58 37 -76 52 l-34 27 35 -3 c22 -2 61 -21 107 -51z m-5221 23 c-3
-8 -6 -5 -6 6 -1 11 2 17 5 13 3 -3 4 -12 1 -19z m-644 0 c-13 -6 -23 -15 -23
-20 0 -4 -4 -8 -10 -8 -5 0 -10 4 -10 8 0 10 38 31 55 31 6 0 0 -5 -12 -11z
m132 -47 c3 -5 -13 -22 -35 -38 -65 -45 -165 -117 -170 -123 -3 -3 -21 -13
-40 -23 -75 -38 -90 -48 -90 -59 0 -6 -3 -9 -6 -6 -3 4 -1 16 5 27 10 18 9 20
-6 14 -10 -3 -24 -11 -31 -16 -11 -8 -12 -5 -6 19 9 36 7 35 33 37 14 1 20 6
16 15 -3 10 0 12 10 8 8 -3 14 -2 12 2 -5 16 9 15 35 -2 21 -14 31 -15 45 -6
16 10 16 11 -4 7 -13 -3 -23 -1 -23 3 0 5 -3 17 -6 27 -4 14 -4 15 4 4 5 -7
14 -11 20 -7 6 3 13 2 17 -4 9 -14 18 -13 41 6 18 14 18 15 -4 4 -13 -7 -27
-8 -30 -4 -4 4 -1 9 6 11 6 3 12 9 12 14 0 12 -80 3 -93 -10 -6 -6 -19 -11
-28 -11 -10 0 -20 -6 -22 -12 -4 -9 -6 -9 -6 -1 -1 6 22 23 49 36 41 21 57 24
82 16 25 -7 39 -5 64 10 22 13 35 16 42 9 8 -8 10 -5 9 11 -1 11 -2 21 -3 21
-1 0 -18 -7 -37 -15 -43 -18 -91 -20 -81 -4 3 6 17 9 30 6 13 -2 21 0 17 6 -3
5 1 13 8 18 22 14 33 10 19 -6 -17 -21 4 -19 25 2 14 13 18 14 25 3 5 -8 6
-18 4 -22 -6 -10 -1 -10 20 -2 9 3 13 11 10 16 -8 12 14 28 38 28 9 0 19 -4
23 -9z m675 2 c0 -10 -32 -43 -42 -43 -5 0 -1 11 9 25 17 23 33 32 33 18z
m4128 -70 c31 -32 60 -57 65 -55 5 1 6 -1 4 -5 -3 -5 1 -17 9 -28 11 -15 17
-16 26 -7 9 9 1 22 -37 57 -28 25 -44 45 -36 45 8 0 64 -51 125 -113 173 -176
175 -190 4 -23 -28 26 -43 35 -51 27 -7 -7 -2 -14 16 -22 15 -7 27 -17 27 -23
0 -14 92 -102 102 -99 4 2 5 -4 2 -12 -4 -10 -2 -13 8 -10 14 6 47 -40 36 -50
-5 -5 -368 360 -368 370 0 13 17 0 68 -52z m-3848 41 c0 -8 -19 -13 -24 -6 -3
5 1 9 9 9 8 0 15 -2 15 -3z m-1223 -10 c-3 -3 -12 -4 -19 -1 -8 3 -5 6 6 6 11
1 17 -2 13 -5z m-32 -24 c-3 -5 -12 -10 -18 -10 -7 0 -6 4 3 10 19 12 23 12
15 0z m868 -33 c-24 -39 -78 -107 -85 -107 -18 0 -8 49 12 55 11 3 20 12 20
18 0 7 12 20 28 29 33 21 35 22 25 5z m5419 -48 c14 -8 17 -13 9 -19 -15 -9
35 -44 53 -37 16 7 58 -39 54 -58 -3 -14 -6 -13 -25 5 -13 11 -23 19 -23 16 0
-3 -12 6 -27 20 -15 14 -32 23 -39 20 -8 -3 -11 4 -9 20 3 29 -13 43 -26 23
-7 -11 -9 -10 -9 4 0 20 13 22 42 6z m-5522 -29 c0 -11 -4 -20 -9 -20 -5 0 -7
9 -4 20 3 11 7 20 9 20 2 0 4 -9 4 -20z m1660 -26 c-56 -7 -620 -8 -620 -2 0
5 145 7 323 7 177 -1 311 -3 297 -5z m97 0 c-3 -3 -12 -4 -19 -1 -8 3 -5 6 6
6 11 1 17 -2 13 -5z m611 -1 c-103 -2 -274 -2 -380 0 -106 1 -22 2 187 2 209
0 296 -1 193 -2z m1211 2 c-7 -6 -990 -7 -997 0 -3 3 221 5 498 5 277 0 501
-2 499 -5z m-3339 -90 c-7 -9 -15 -13 -17 -11 -7 7 7 26 19 26 6 0 6 -6 -2
-15z m2464 -6 c-56 -3 -108 -10 -115 -15 -8 -5 -54 -12 -104 -15 -77 -5 -65
-6 80 -8 94 -2 159 -6 145 -10 l-25 -7 23 -8 c13 -4 44 -5 70 -2 53 7 88 -7
62 -24 -12 -8 -11 -10 7 -10 12 0 25 5 28 10 3 6 1 10 -6 10 -7 0 -9 3 -5 8 7
6 175 13 301 13 498 -3 517 -2 534 13 12 11 37 16 81 16 70 0 73 10 7 21 -23
3 69 7 205 8 l246 1 7 -66 c4 -36 4 -207 0 -380 -6 -246 -4 -318 5 -329 7 -9
10 -18 6 -22 -3 -3 -6 -2 -6 3 0 10 -876 1 -887 -9 -3 -4 6 -7 20 -7 15 0 27
-4 27 -10 0 -5 -13 -10 -30 -10 -16 0 -30 -3 -30 -7 0 -9 98 -43 123 -43 10 0
17 -6 17 -13 0 -7 -10 -13 -22 -13 -13 0 -43 -1 -68 -3 l-45 -3 35 -9 c19 -5
50 -8 67 -7 18 2 34 -2 35 -7 2 -6 -24 -11 -57 -13 -60 -3 -105 -22 -52 -22
28 0 37 -14 15 -23 -7 -3 41 -6 107 -7 66 -1 140 -5 165 -8 l45 -7 -57 -16
c-49 -14 -60 -14 -69 -3 -24 29 -55 10 -44 -26 5 -17 15 -20 63 -20 54 0 94
-12 76 -22 -5 -3 -33 -11 -61 -18 -46 -10 -53 -15 -53 -36 0 -16 6 -24 18 -24
13 0 14 -2 4 -9 -16 -10 -16 -9 -4 -42 8 -21 7 -28 -9 -37 -25 -16 -24 -42 1
-49 26 -7 25 -19 -2 -27 -23 -6 -23 -7 -3 -19 36 -22 28 -99 -15 -134 -8 -7
-39 -13 -68 -13 -62 0 -142 -18 -142 -32 0 -5 19 -6 45 -2 46 6 64 -8 25 -21
-37 -12 -20 -21 60 -34 44 -8 80 -17 80 -22 0 -5 -12 -6 -27 -3 -16 3 -41 0
-58 -7 -16 -7 -46 -13 -65 -15 -19 -2 -55 -6 -80 -9 -41 -6 -43 -8 -25 -21 17
-13 17 -14 1 -14 -13 0 -16 -5 -11 -20 4 -14 2 -20 -9 -20 -8 0 -17 8 -19 18
-4 13 -5 12 -6 -5 0 -12 4 -34 11 -48 10 -21 9 -27 -7 -39 -16 -11 -13 -14 30
-19 26 -4 71 -8 99 -8 44 -1 47 -2 21 -9 -25 -6 -19 -15 8 -11 16 2 6 -10 -15
-19 -23 -9 -23 -9 2 -10 23 -1 23 -2 5 -10 -18 -7 -16 -10 17 -24 51 -22 54
-33 13 -47 -21 -8 -34 -18 -31 -25 8 -20 -21 -37 -50 -30 -15 4 -32 2 -40 -5
-13 -10 -12 -14 2 -30 9 -10 13 -23 9 -28 -3 -7 2 -11 14 -11 25 0 27 -15 5
-28 -14 -8 -14 -11 7 -26 29 -20 46 -20 65 -2 20 21 17 28 -8 22 -13 -3 -17
-3 -10 0 20 9 14 41 -9 47 -25 7 -16 27 12 27 11 0 18 -4 14 -9 -3 -6 0 -13 8
-18 21 -13 38 -62 28 -81 -5 -9 -9 -21 -10 -27 0 -5 -14 -13 -29 -17 -16 -4
-33 -18 -39 -30 l-10 -23 -12 23 c-12 23 -54 31 -66 12 -3 -5 1 -10 9 -10 9 0
16 -4 16 -10 0 -5 -8 -10 -17 -10 -29 0 7 -20 37 -20 20 0 22 -2 10 -10 -8 -6
-35 -10 -60 -9 -63 1 -64 1 -50 -16 12 -15 17 -82 6 -92 -3 -4 -12 1 -19 11
-8 11 -31 20 -59 23 -44 5 -45 6 -42 38 1 22 -2 32 -9 29 -11 -4 -20 -116 -16
-194 4 -74 -1 -90 -23 -73 -7 6 -22 13 -33 15 -11 2 -20 10 -20 18 0 8 -10 16
-22 18 -34 5 -28 20 9 24 38 3 47 27 27 65 -9 17 -10 29 -3 41 11 20 3 82 -11
84 -5 0 -19 4 -30 8 -11 4 -37 10 -58 14 -33 6 -38 5 -35 -10 1 -9 18 -24 35
-33 19 -9 33 -24 33 -35 0 -17 -1 -17 -26 -1 -14 9 -29 13 -32 9 -4 -4 -1 -9
6 -11 13 -5 17 -63 4 -63 -4 0 -13 14 -19 30 -6 17 -18 30 -27 30 -10 0 -13 6
-10 15 4 8 1 15 -5 15 -7 0 -9 9 -5 24 4 19 1 26 -15 31 -20 6 -29 39 -13 49
13 8 35 -11 28 -23 -7 -11 1 -10 42 6 9 3 29 7 44 7 15 1 30 5 34 8 3 4 21 1
39 -7 37 -15 54 -8 27 10 -11 8 -69 13 -172 14 -221 2 -453 10 -458 16 -6 5
86 9 131 6 22 -2 28 1 25 16 -4 23 39 31 48 9 7 -17 44 -22 44 -7 0 5 8 11 17
13 14 3 17 12 14 48 -1 25 -7 50 -12 57 -7 7 -6 14 1 18 13 8 52 -4 45 -14 -2
-5 8 -8 23 -8 15 0 21 2 15 4 -18 6 -16 23 2 23 8 0 15 5 15 10 0 6 -9 10 -19
10 -11 0 -22 8 -26 18 -6 20 -76 49 -93 38 -6 -3 -13 3 -17 14 -5 17 -20 23
-55 22 -3 0 -20 -3 -37 -7 -27 -5 -33 -4 -33 10 0 12 -6 16 -20 12 -18 -5 -45
14 -35 25 3 2 -43 3 -103 1 -121 -4 -232 4 -232 17 0 14 49 18 280 26 386 12
424 14 397 21 -10 3 -16 11 -13 18 3 9 -6 16 -25 20 -34 8 -39 25 -6 26 12 0
31 5 42 10 18 9 18 9 -3 5 -13 -2 -39 2 -57 10 -46 19 -72 19 -56 0 17 -21 -2
-29 -49 -21 -33 6 -40 11 -40 30 0 24 29 35 92 35 19 0 28 4 25 13 -4 14 -27
15 -259 16 -91 0 -168 4 -171 8 -2 4 9 21 25 36 25 24 29 25 23 7 -6 -18 -2
-20 42 -20 35 0 44 3 33 10 -8 5 -25 10 -37 10 -37 0 -16 27 25 33 45 5 57 0
41 -19 -10 -12 -1 -14 54 -14 45 0 68 4 77 15 7 8 25 15 41 15 16 0 29 5 29
10 0 6 -12 10 -26 10 -14 0 -23 4 -19 10 3 6 15 10 26 10 10 0 19 5 19 11 0 8
-12 9 -37 4 -49 -9 -256 -15 -223 -6 14 4 -24 6 -85 6 -60 -1 -172 -3 -247 -3
-106 -2 -140 -5 -152 -17 -8 -8 -32 -15 -53 -16 l-38 -1 30 -13 c23 -11 26
-14 10 -15 -37 -1 7 -20 47 -20 20 0 39 -4 42 -8 11 -18 -13 -27 -84 -30 -41
-1 -76 -6 -78 -11 -1 -4 -36 -6 -76 -3 -52 3 -76 1 -81 -8 -9 -15 12 -30 43
-30 12 0 22 -4 22 -9 0 -13 -101 -23 -136 -12 -32 9 -61 0 -51 -16 3 -5 2 -15
-4 -23 -5 -10 -9 -11 -9 -3 0 11 -75 39 -92 35 -12 -3 -10 36 2 43 5 3 7 12 4
20 -3 7 1 44 10 82 22 101 53 230 71 298 9 33 34 130 56 215 22 85 48 184 59
220 11 36 26 94 35 130 24 103 149 566 164 610 5 14 14 44 20 68 l12 42 502
-2 c291 -1 459 -5 401 -9z m936 -3 c0 -3 -4 -8 -10 -11 -5 -3 -10 -1 -10 4 0
6 5 11 10 11 6 0 10 -2 10 -4z m-3217 -36 c-3 -11 -12 -20 -19 -20 -17 0 -18
12 -2 28 18 18 27 15 21 -8z m-933 -40 c0 -5 -4 -10 -10 -10 -5 0 -10 5 -10
10 0 6 5 10 10 10 6 0 10 -4 10 -10z m670 0 c0 -5 -5 -10 -11 -10 -5 0 -7 5
-4 10 3 6 8 10 11 10 2 0 4 -4 4 -10z m-726 -35 c-4 -10 0 -15 11 -15 10 0 -1
-15 -31 -41 -26 -22 -52 -46 -59 -52 -7 -7 -22 -18 -33 -26 -12 -8 -19 -18
-16 -23 3 -5 -11 -15 -30 -23 -20 -9 -52 -31 -72 -51 -20 -19 -38 -33 -40 -32
-1 2 -5 16 -8 31 -3 20 1 31 16 41 12 9 25 13 30 10 4 -3 5 1 2 9 -5 13 3 20
31 27 6 2 19 12 30 24 33 36 159 136 172 136 1 0 0 -7 -3 -15z m181 -5 c-3 -5
-11 -10 -16 -10 -6 0 -7 5 -4 10 3 6 11 10 16 10 6 0 7 -4 4 -10z m5060 0 c3
-5 2 -10 -4 -10 -5 0 -13 5 -16 10 -3 6 -2 10 4 10 5 0 13 -4 16 -10z m-5095
-30 c0 -5 -4 -10 -10 -10 -5 0 -10 -7 -10 -15 0 -8 -12 -22 -27 -32 -16 -10
-30 -20 -33 -23 -3 -3 -18 -14 -35 -24 l-30 -19 25 27 c13 15 39 36 57 47 19
12 33 29 33 40 0 10 7 19 15 19 8 0 15 -4 15 -10z m5125 0 c3 -5 1 -10 -4 -10
-6 0 -11 5 -11 10 0 6 2 10 4 10 3 0 8 -4 11 -10z m-5245 -54 c0 -2 -7 -7 -16
-10 -8 -3 -12 -2 -9 4 6 10 25 14 25 6z m94 -80 c-20 -19 -41 -33 -45 -30 -12
7 -1 24 15 24 7 0 23 11 36 25 13 14 25 23 27 21 2 -2 -12 -20 -33 -40z m5317
8 c30 -29 37 -46 18 -41 -20 4 -22 -23 -2 -30 20 -8 49 -33 37 -33 -4 0 1 -7
12 -15 12 -9 14 -14 5 -15 -15 0 -161 140 -161 156 0 20 62 6 91 -22z m-5424
-96 c-3 -7 -5 -2 -5 12 0 14 2 19 5 13 2 -7 2 -19 0 -25z m5523 -4 c0 -2 -7
-4 -15 -4 -8 0 -15 4 -15 10 0 5 7 7 15 4 8 -4 15 -8 15 -10z m-5562 -29 c-17
-15 -26 -30 -22 -40 8 -19 -21 -65 -41 -65 -19 0 -19 19 0 26 18 7 20 34 3 34
-7 0 5 16 27 35 22 19 44 35 50 35 5 0 -2 -11 -17 -25z m5592 -2 c11 -10 20
-21 20 -26 0 -5 -7 -1 -16 7 -8 9 -20 16 -25 16 -5 0 -9 5 -9 10 0 14 7 13 30
-7z m-5555 -12 c-3 -6 -11 -11 -16 -11 -5 0 -4 6 3 14 14 16 24 13 13 -3z
m5528 -14 c7 3 9 3 5 -1 -8 -9 61 -72 75 -68 4 1 6 -2 2 -8 -6 -10 63 -77 76
-73 5 2 6 -4 3 -12 -7 -17 11 -21 19 -5 3 6 4 5 3 -2 -6 -31 -34 -13 -116 73
-49 52 -89 99 -89 104 0 6 3 4 6 -3 2 -6 10 -9 16 -5z m-5566 -19 c-3 -8 -6
-5 -6 6 -1 11 2 17 5 13 3 -3 4 -12 1 -19z m5638 -8 c-3 -5 -13 -6 -21 -3 -12
4 -13 8 -3 14 15 9 32 2 24 -11z m63 -60 c56 -54 70 -76 25 -39 -30 25 -88 89
-81 89 3 0 28 -23 56 -50z m-5818 16 c0 -3 -4 -8 -10 -11 -5 -3 -10 -1 -10 4
0 6 5 11 10 11 6 0 10 -2 10 -4z m-26 -41 c-7 -17 -7 -17 -29 -9 -13 5 -14 8
-3 15 21 14 38 10 32 -6z m-20 -41 c9 -24 7 -31 -4 -14 -8 13 -11 11 -16 -7
-4 -13 -12 -23 -19 -23 -8 0 -16 -6 -18 -12 -2 -7 -3 1 -1 17 6 44 46 71 58
39z m5946 -19 c10 -12 10 -15 -4 -15 -9 0 -16 7 -16 15 0 8 2 15 4 15 2 0 9
-7 16 -15z m-6023 -57 c-2 -13 -4 -3 -4 22 0 25 2 35 4 23 2 -13 2 -33 0 -45z
m94 -329 c-5 -13 -10 -19 -10 -12 -1 15 10 45 15 40 3 -2 0 -15 -5 -28z m2986
-635 c-3 -3 -12 -4 -19 -1 -8 3 -5 6 6 6 11 1 17 -2 13 -5z m308 -54 c4 -7
-39 -9 -122 -8 -121 2 -123 2 -48 8 132 10 164 10 170 0z m751 -97 c-11 -11
-19 6 -11 24 8 17 8 17 12 0 3 -10 2 -21 -1 -24z m-1946 7 c0 -5 -5 -10 -11
-10 -5 0 -7 5 -4 10 3 6 8 10 11 10 2 0 4 -4 4 -10z m125 -61 c61 1 115 -2
121 -6 15 -10 -12 -83 -31 -83 -9 0 -12 -11 -8 -37 5 -36 3 -39 -31 -54 -40
-18 -46 -13 -46 44 0 31 -15 66 -23 57 -2 -3 -7 -29 -11 -57 -5 -39 -3 -53 6
-53 8 0 9 -3 2 -10 -8 -8 -24 -6 -55 4 -53 19 -115 21 -123 4 -9 -21 4 64 16
105 12 41 48 54 48 17 0 -11 7 -20 15 -20 8 0 15 7 15 16 0 17 -23 44 -38 44
-6 0 -8 9 -5 21 4 14 10 18 22 13 9 -4 66 -6 126 -5z m259 4 c-12 -4 -7 -50 7
-59 19 -11 9 -24 -11 -14 -14 8 -26 8 -40 0 -20 -11 -40 -6 -40 10 0 4 9 6 20
3 16 -4 20 0 21 23 1 16 1 31 1 34 0 3 12 6 26 6 15 1 22 0 16 -3z m224 -33
c2 -10 -5 -16 -19 -17 -11 -1 -26 -9 -33 -19 -12 -15 -52 -17 -48 -1 1 4 2 18
2 33 0 24 2 25 47 22 33 -2 49 -8 51 -18z m1522 0 c-6 -11 -12 -20 -14 -20 -2
0 -6 9 -9 20 -4 15 0 20 14 20 17 0 18 -3 9 -20z m50 10 c0 -5 -4 -10 -10 -10
-5 0 -10 5 -10 10 0 6 5 10 10 10 6 0 10 -4 10 -10z m-1362 -89 c3 -8 -1 -12
-9 -9 -7 2 -15 10 -17 17 -3 8 1 12 9 9 7 -2 15 -10 17 -17z m342 -11 c0 -5
-2 -10 -4 -10 -3 0 -8 5 -11 10 -3 6 -1 10 4 10 6 0 11 -4 11 -10z m50 -16 c0
-2 -9 -4 -21 -4 -11 0 -18 4 -14 10 5 8 35 3 35 -6z m2535 -4 c3 -5 1 -10 -4
-10 -6 0 -11 5 -11 10 0 6 2 10 4 10 3 0 8 -4 11 -10z m-2391 -31 c-7 -12 -84
-12 -84 0 0 10 56 19 77 13 7 -2 10 -8 7 -13z m-66 -56 c-2 -12 3 -17 15 -15
9 2 17 -2 17 -8 0 -22 -45 -6 -48 18 -2 12 2 22 8 22 6 0 10 -8 8 -17z m-40
-33 c2 -18 -1 -37 -7 -43 -8 -8 -11 -4 -11 14 0 13 -3 35 -7 48 -4 18 -2 23 8
19 8 -2 15 -19 17 -38z m-6408 0 c0 -5 -4 -10 -10 -10 -5 0 -10 5 -10 10 0 6
5 10 10 10 6 0 10 -4 10 -10z m5230 -51 c0 -19 3 -20 110 -13 80 5 110 4 110
-5 0 -7 -27 -11 -77 -12 -140 -2 -38 -17 121 -18 82 -1 147 -3 145 -5 -9 -9
-575 -13 -592 -5 -14 8 -15 14 -7 29 8 15 21 20 55 20 26 0 49 6 57 15 7 8 28
14 46 15 26 0 32 -4 32 -21z m1100 -19 c0 -5 -4 -10 -10 -10 -5 0 -10 5 -10
10 0 6 5 10 10 10 6 0 10 -4 10 -10z m-557 -37 c-7 -2 -19 -2 -25 0 -7 3 -2 5
12 5 14 0 19 -2 13 -5z m64 1 c-3 -3 -12 -4 -19 -1 -8 3 -5 6 6 6 11 1 17 -2
13 -5z m813 -164 c0 -5 -7 -10 -15 -10 -8 0 -15 5 -15 10 0 6 7 10 15 10 8 0
15 -4 15 -10z m0 -40 c0 -5 -4 -10 -10 -10 -5 0 -10 5 -10 10 0 6 5 10 10 10
6 0 10 -4 10 -10z m409 -42 c18 -11 18 -13 -6 -43 -19 -23 -32 -31 -46 -27
-20 5 -20 6 2 14 17 6 21 13 16 28 -6 18 0 40 11 40 2 0 13 -5 23 -12z m-351
-11 c-6 -17 -48 -22 -48 -5 0 8 12 15 26 16 17 1 24 -2 22 -11z m-1713 -16 c3
-5 1 -12 -5 -16 -5 -3 -10 1 -10 9 0 18 6 21 15 7z m-48 -58 c-3 -10 -5 -4 -5
12 0 17 2 24 5 18 2 -7 2 -21 0 -30z m1677 18 c3 -5 -3 -11 -14 -14 -20 -5
-35 5 -23 17 9 9 31 7 37 -3z m-1634 -50 c0 -39 -6 -56 -25 -78 -28 -32 -32
-19 -10 42 8 22 15 50 15 63 0 12 5 22 10 22 6 0 10 -22 10 -49z m1714 14 c4
-11 22 -15 72 -15 81 0 79 -7 -5 -21 -71 -11 -102 -1 -94 31 6 24 19 26 27 5z
m436 -5 c12 -8 9 -10 -12 -10 -31 0 -47 -18 -27 -31 10 -6 6 -9 -13 -9 -17 0
-27 5 -25 12 1 7 -9 15 -23 17 -20 4 -15 7 25 17 28 7 52 12 55 13 3 0 12 -4
20 -9z m-373 -56 c-3 -3 -12 -4 -19 -1 -8 3 -5 6 6 6 11 1 17 -2 13 -5z m-52
-74 c-3 -5 -10 -10 -16 -10 -5 0 -9 5 -9 10 0 6 7 10 16 10 8 0 12 -4 9 -10z
m215 -6 c0 -12 -6 -15 -22 -10 -13 3 -33 6 -45 6 -13 0 -23 5 -23 10 0 6 20
10 45 10 35 0 45 -4 45 -16z m-60 -134 c0 -11 -4 -20 -10 -20 -5 0 -10 9 -10
20 0 11 5 20 10 20 6 0 10 -9 10 -20z m9 -71 c-15 -9 -32 -2 -24 11 3 5 13 6
21 3 12 -4 13 -8 3 -14z m-117 -4 c0 -5 -5 -11 -10 -13 -5 -1 -9 4 -9 13 0 9
4 14 9 13 5 -2 10 -8 10 -13z m61 8 c-7 -2 -19 -2 -25 0 -7 3 -2 5 12 5 14 0
19 -2 13 -5z m107 -3 c0 -5 -2 -10 -4 -10 -3 0 -8 5 -11 10 -3 6 -1 10 4 10 6
0 11 -4 11 -10z"/>
<path d="M7990 11346 c0 -14 4 -27 8 -30 5 -3 6 8 4 25 -5 35 -12 38 -12 5z"/>
<path d="M1699 11107 c25 -28 41 -35 41 -17 0 6 -5 10 -12 10 -6 0 -21 8 -32
17 -15 13 -14 10 3 -10z"/>
<path d="M1700 10040 c0 -5 7 -10 16 -10 8 0 12 5 9 10 -3 6 -10 10 -16 10 -5
0 -9 -4 -9 -10z"/>
<path d="M1740 10015 c0 -7 61 -37 66 -33 2 3 -12 12 -31 21 -19 9 -35 15 -35
12z"/>
<path d="M2383 10215 c0 -27 2 -38 4 -22 2 15 2 37 0 50 -2 12 -4 0 -4 -28z"/>
<path d="M2960 8150 c0 -5 5 -10 11 -10 5 0 7 5 4 10 -3 6 -8 10 -11 10 -2 0
-4 -4 -4 -10z"/>
<path d="M3450 8651 c0 -10 22 -31 32 -31 17 0 7 28 -12 33 -11 3 -20 2 -20
-2z"/>
<path d="M11022 9115 c-7 -25 -12 -57 -12 -70 0 -14 -11 -43 -25 -65 -14 -22
-19 -37 -11 -34 25 10 54 79 61 147 4 37 5 67 3 67 -2 0 -9 -20 -16 -45z"/>
<path d="M10901 8936 c-9 -10 -9 -16 -1 -21 17 -10 37 12 24 25 -8 8 -15 6
-23 -4z"/>
<path d="M10910 8890 c-9 -6 -10 -10 -3 -10 6 0 15 5 18 10 8 12 4 12 -15 0z"/>
<path d="M6093 8243 c9 -2 25 -2 35 0 9 3 1 5 -18 5 -19 0 -27 -2 -17 -5z"/>
<path d="M3823 8023 c2 -12 6 -26 10 -29 11 -11 8 19 -3 36 -8 12 -9 10 -7 -7z"/>
<path d="M5960 7883 c0 -9 62 -63 72 -63 14 0 9 8 -24 39 -32 30 -48 38 -48
24z"/>
<path d="M4880 7869 c0 -5 5 -7 10 -4 6 3 10 8 10 11 0 2 -4 4 -10 4 -5 0 -10
-5 -10 -11z"/>
<path d="M5104 7835 c-7 -18 12 -45 31 -45 8 0 15 6 17 12 3 9 9 8 22 -5 10
-9 24 -17 33 -17 22 0 10 25 -15 28 -28 4 -29 22 -2 22 11 0 20 -4 20 -10 0
-5 5 -10 11 -10 5 0 7 5 4 10 -3 6 0 10 7 10 9 0 9 3 -2 10 -21 14 -57 12 -63
-2 -4 -10 -7 -10 -18 0 -18 16 -38 15 -45 -3z m46 -15 c0 -5 -7 -10 -15 -10
-8 0 -15 5 -15 10 0 6 7 10 15 10 8 0 15 -4 15 -10z"/>
<path d="M5930 7828 c8 -8 26 -17 39 -21 21 -5 22 -4 10 7 -8 8 -25 17 -39 21
-21 7 -22 6 -10 -7z"/>
<path d="M5435 7800 c3 -5 13 -10 21 -10 8 0 14 5 14 10 0 6 -9 10 -21 10 -11
0 -17 -4 -14 -10z"/>
<path d="M9955 8360 c3 -5 11 -10 16 -10 6 0 7 5 4 10 -3 6 -11 10 -16 10 -6
0 -7 -4 -4 -10z"/>
<path d="M6670 7880 c0 -5 5 -10 10 -10 6 0 10 5 10 10 0 6 -4 10 -10 10 -5 0
-10 -4 -10 -10z"/>
<path d="M6390 7812 c-8 -3 -20 -12 -26 -20 -11 -15 -42 -22 -96 -22 -16 0
-28 -5 -28 -10 0 -6 8 -10 18 -9 9 2 31 -1 47 -6 28 -9 27 -10 -25 -16 -30 -3
70 -6 223 -7 153 0 277 3 277 8 0 5 -28 8 -62 8 -35 -1 -97 3 -138 7 -63 7
-79 12 -100 35 -26 28 -65 42 -90 32z"/>
<path d="M6886 7773 c7 -16 14 -34 14 -40 0 -7 7 -13 15 -13 8 0 15 5 15 11 0
5 -4 8 -9 5 -10 -7 -21 17 -21 45 0 10 -6 19 -14 19 -13 0 -13 -4 0 -27z"/>
<path d="M7765 7771 c4 -12 2 -21 -4 -21 -6 0 -11 -7 -11 -15 0 -8 -7 -15 -15
-15 -8 0 -15 7 -15 15 0 15 -17 20 -55 16 -10 -1 -26 2 -35 5 -8 4 -20 8 -27
10 -14 2 -27 -31 -18 -46 3 -5 81 -9 193 -9 125 1 181 4 169 10 -9 6 -17 16
-17 24 0 9 -6 12 -15 9 -9 -4 -15 0 -15 9 0 8 -7 17 -15 21 -9 3 -15 0 -15
-10 0 -9 5 -12 12 -8 7 4 8 3 4 -4 -11 -18 -26 -14 -26 6 0 13 -10 18 -51 20
-47 3 -50 2 -44 -17z m51 -6 c4 -8 0 -22 -7 -31 -12 -14 -14 -14 -20 3 -4 10
-8 24 -8 31 -1 17 28 15 35 -3z m-171 -35 c-3 -5 -13 -10 -21 -10 -8 0 -14 5
-14 10 0 6 9 10 21 10 11 0 17 -4 14 -10z"/>
<path d="M7097 7764 c-4 -4 -7 -16 -7 -26 0 -16 9 -18 93 -16 l92 2 -76 3
c-65 3 -78 7 -85 24 -5 11 -13 17 -17 13z"/>
<path d="M7306 7761 c-4 -5 -1 -13 5 -17 8 -4 7 -9 -2 -15 -9 -6 0 -9 26 -8
30 0 35 2 20 8 -11 5 -20 14 -20 21 0 17 -21 25 -29 11z"/>
<path d="M7517 7764 c-3 -3 -3 -12 0 -20 3 -8 -4 -18 -18 -23 -27 -11 -6 -14
29 -4 18 4 21 8 10 15 -10 8 -10 11 0 15 6 2 10 9 6 14 -6 10 -18 12 -27 3z"/>
<path d="M7010 7737 c0 -10 8 -17 18 -17 9 0 13 4 7 8 -5 4 -13 11 -17 16 -5
5 -8 2 -8 -7z"/>
<path d="M11740 8130 c-14 -11 -20 -20 -14 -20 14 0 50 27 44 33 -3 3 -16 -3
-30 -13z"/>
<path d="M11010 7810 c-18 -12 -2 -12 25 0 13 6 15 9 5 9 -8 0 -22 -4 -30 -9z"/>
<path d="M10405 7270 c3 -5 8 -10 11 -10 2 0 4 5 4 10 0 6 -5 10 -11 10 -5 0
-7 -4 -4 -10z"/>
<path d="M10391 7183 c-1 -6 -4 -20 -7 -30 -5 -17 -5 -17 6 0 6 10 9 23 6 30
-3 9 -5 9 -5 0z"/>
<path d="M10280 7160 l-45 -7 42 -1 c23 -1 45 3 48 8 3 6 5 9 3 8 -2 0 -23 -4
-48 -8z"/>
<path d="M4500 6720 c0 -5 9 -10 20 -10 11 0 20 5 20 10 0 6 -9 10 -20 10 -11
0 -20 -4 -20 -10z"/>
<path d="M4088 6223 c7 -3 16 -2 19 1 4 3 -2 6 -13 5 -11 0 -14 -3 -6 -6z"/>
<path d="M10793 5983 c9 -2 23 -2 30 0 6 3 -1 5 -18 5 -16 0 -22 -2 -12 -5z"/>
<path d="M10710 5960 c-8 -5 -10 -10 -5 -10 6 0 17 5 25 10 8 5 11 10 5 10 -5
0 -17 -5 -25 -10z"/>
<path d="M7288 5343 c7 -3 16 -2 19 1 4 3 -2 6 -13 5 -11 0 -14 -3 -6 -6z"/>
<path d="M5068 5313 c6 -2 18 -2 25 0 6 3 1 5 -13 5 -14 0 -19 -2 -12 -5z"/>
<path d="M5298 5313 c7 -3 16 -2 19 1 4 3 -2 6 -13 5 -11 0 -14 -3 -6 -6z"/>
<path d="M5523 5313 c15 -2 37 -2 50 0 12 2 0 4 -28 4 -27 0 -38 -2 -22 -4z"/>
<path d="M4515 5290 c3 -5 8 -10 11 -10 2 0 4 5 4 10 0 6 -5 10 -11 10 -5 0
-7 -4 -4 -10z"/>
<path d="M4911 5285 c8 -8 277 -10 285 -2 4 4 -59 7 -141 7 -82 0 -146 -2
-144 -5z"/>
<path d="M3305 5063 c-90 -4 -101 -8 -81 -28 8 -8 20 -13 28 -10 7 2 58 6 113
8 101 5 135 12 135 28 0 9 -41 9 -195 2z"/>
<path d="M3390 4579 c0 -5 5 -7 10 -4 6 3 10 8 10 11 0 2 -4 4 -10 4 -5 0 -10
-5 -10 -11z"/>
<path d="M9534 5073 c7 -7 77 -5 85 2 2 3 -17 5 -44 5 -27 0 -45 -3 -41 -7z"/>
<path d="M2035 4600 c-29 -5 -10 -8 67 -9 62 0 109 3 113 9 7 11 -116 11 -180
0z"/>
<path d="M2258 4603 c12 -2 32 -2 45 0 12 2 2 4 -23 4 -25 0 -35 -2 -22 -4z"/>
<path d="M9590 4000 c30 -22 50 -31 50 -22 0 6 -8 12 -17 16 -10 3 -25 9 -33
12 -13 5 -13 4 0 -6z"/>
<path d="M9678 3945 c17 -14 34 -25 38 -25 11 0 -48 49 -59 50 -5 0 5 -11 21
-25z"/>
<path d="M7181 3446 c8 -8 88 -10 95 -3 4 4 -17 7 -46 7 -29 0 -51 -2 -49 -4z"/>
<path d="M7455 3440 c-4 -6 6 -10 22 -10 22 0 25 2 13 10 -19 12 -27 12 -35 0z"/>
<path d="M7608 3433 c6 -2 18 -2 25 0 6 3 1 5 -13 5 -14 0 -19 -2 -12 -5z"/>
<path d="M7290 3390 c0 -5 5 -10 11 -10 5 0 7 5 4 10 -3 6 -8 10 -11 10 -2 0
-4 -4 -4 -10z"/>
<path d="M7138 3373 c7 -3 16 -2 19 1 4 3 -2 6 -13 5 -11 0 -14 -3 -6 -6z"/>
<path d="M8168 3063 c23 -2 59 -2 80 0 20 2 1 4 -43 4 -44 0 -61 -2 -37 -4z"/>
<path d="M8338 3013 c12 -2 32 -2 45 0 12 2 2 4 -23 4 -25 0 -35 -2 -22 -4z"/>
<path d="M8410 3000 c0 -11 99 -13 116 -2 7 4 -17 8 -52 9 -38 2 -64 -1 -64
-7z"/>
<path d="M7912 2455 c0 -16 2 -22 5 -12 2 9 2 23 0 30 -3 6 -5 -1 -5 -18z"/>
<path d="M7738 2143 c7 -3 16 -2 19 1 4 3 -2 6 -13 5 -11 0 -14 -3 -6 -6z"/>
<path d="M6820 2040 c-12 -8 -9 -10 13 -10 15 0 27 5 27 10 0 13 -20 13 -40 0z"/>
<path d="M7660 1989 c0 -5 5 -7 10 -4 6 3 10 8 10 11 0 2 -4 4 -10 4 -5 0 -10
-5 -10 -11z"/>
<path d="M7458 1903 c7 -3 16 -2 19 1 4 3 -2 6 -13 5 -11 0 -14 -3 -6 -6z"/>
<path d="M7277 1883 c-4 -6 -16 -9 -26 -6 -10 3 -22 0 -25 -6 -4 -7 1 -11 13
-11 10 0 21 -5 23 -11 2 -6 11 -10 19 -8 11 3 13 11 9 29 -4 15 -9 20 -13 13z"/>
<path d="M7360 1870 c0 -5 10 -10 23 -10 18 0 19 2 7 10 -19 13 -30 13 -30 0z"/>
<path d="M7677 1759 c7 -7 15 -10 18 -7 3 3 -2 9 -12 12 -14 6 -15 5 -6 -5z"/>
<path d="M7725 1760 c-18 -8 -18 -9 5 -10 l25 -2 -25 -8 c-25 -8 -25 -8 5 -9
17 -1 38 -8 48 -16 19 -14 47 -10 47 6 0 5 -6 9 -13 9 -8 0 -22 9 -32 20 -20
22 -29 23 -60 10z"/>
<path d="M7770 1680 c0 -5 5 -10 10 -10 6 0 10 5 10 10 0 6 -4 10 -10 10 -5 0
-10 -4 -10 -10z"/>
<path d="M7379 1639 c-10 -6 -7 -9 14 -9 29 0 35 5 14 13 -8 3 -20 1 -28 -4z"/>
<path d="M7613 1638 c-2 -5 -3 -8 -1 -9 2 0 22 -1 45 -3 33 -2 40 0 32 10 -11
14 -67 14 -76 2z"/>
<path d="M7355 1540 c3 -5 8 -10 11 -10 2 0 4 5 4 10 0 6 -5 10 -11 10 -5 0
-7 -4 -4 -10z"/>
<path d="M7410 1540 c0 -5 5 -10 11 -10 5 0 7 5 4 10 -3 6 -8 10 -11 10 -2 0
-4 -4 -4 -10z"/>
<path d="M7675 1540 c-10 -16 4 -30 28 -29 12 0 16 3 9 6 -6 2 -10 8 -7 13 3
4 -2 10 -10 14 -8 3 -17 1 -20 -4z"/>
<path d="M7130 1526 c0 -11 9 -16 26 -16 31 0 28 23 -4 28 -15 2 -22 -2 -22
-12z"/>
<path d="M7630 1530 c0 -5 5 -10 10 -10 6 0 10 5 10 10 0 6 -4 10 -10 10 -5 0
-10 -4 -10 -10z"/>
<path d="M7545 1440 c-3 -5 -1 -10 4 -10 6 0 11 5 11 10 0 6 -2 10 -4 10 -3 0
-8 -4 -11 -10z"/>
<path d="M7620 1441 c0 -17 30 -25 43 -12 8 8 8 11 0 11 -6 0 -18 3 -27 6 -9
3 -16 1 -16 -5z"/>
<path d="M7548 1333 c7 -3 16 -2 19 1 4 3 -2 6 -13 5 -11 0 -14 -3 -6 -6z"/>
<path d="M7455 1280 c-11 -17 5 -32 21 -19 7 6 11 15 8 20 -7 12 -21 11 -29
-1z"/>
<path d="M3751 3481 c-7 -5 -9 -11 -4 -14 4 -3 17 1 28 9 21 16 0 20 -24 5z"/>
<path d="M3710 3440 c0 -6 7 -10 15 -10 8 0 15 2 15 4 0 2 -7 6 -15 10 -8 3
-15 1 -15 -4z"/>
<path d="M3640 3380 c0 -5 5 -10 10 -10 6 0 10 5 10 10 0 6 -4 10 -10 10 -5 0
-10 -4 -10 -10z"/>
<path d="M9225 3390 c3 -5 8 -10 11 -10 2 0 4 5 4 10 0 6 -5 10 -11 10 -5 0
-7 -4 -4 -10z"/>
<path d="M5810 1765 c-11 -29 -2 -32 17 -6 12 18 17 20 24 10 7 -11 9 -10 9 3
0 24 -40 19 -50 -7z"/>
<path d="M5910 1741 c0 -12 6 -21 15 -21 8 0 15 3 15 6 0 3 -7 12 -15 20 -13
14 -15 13 -15 -5z"/>
<path d="M5703 1483 c9 -2 23 -2 30 0 6 3 -1 5 -18 5 -16 0 -22 -2 -12 -5z"/>
<path d="M555 10920 c3 -5 11 -10 16 -10 6 0 7 5 4 10 -3 6 -11 10 -16 10 -6
0 -7 -4 -4 -10z"/>
<path d="M825 10760 c3 -5 11 -10 16 -10 6 0 7 5 4 10 -3 6 -11 10 -16 10 -6
0 -7 -4 -4 -10z"/>
<path d="M11880 10660 c0 -5 5 -10 11 -10 5 0 7 5 4 10 -3 6 -8 10 -11 10 -2
0 -4 -4 -4 -10z"/>
<path d="M11991 9064 c0 -11 3 -14 6 -6 3 7 2 16 -1 19 -3 4 -6 -2 -5 -13z"/>
<path d="M11919 8904 c-5 -15 -8 -29 -5 -31 2 -2 8 10 14 26 13 38 5 41 -9 5z"/>
<path d="M11492 8695 c0 -16 2 -22 5 -12 2 9 2 23 0 30 -3 6 -5 -1 -5 -18z"/>
<path d="M11360 8641 c0 -12 4 -21 9 -21 5 0 12 -8 14 -17 4 -14 5 -12 6 5 0
12 -4 22 -10 22 -5 0 -8 4 -4 9 3 5 1 12 -5 16 -5 3 -10 -3 -10 -14z"/>
<path d="M11756 8612 c-3 -5 1 -18 9 -28 8 -10 15 -27 15 -37 0 -22 20 -12 20
10 0 20 -37 66 -44 55z"/>
<path d="M11881 8454 c0 -11 3 -14 6 -6 3 7 2 16 -1 19 -3 4 -6 -2 -5 -13z"/>
<path d="M11992 8405 c0 -16 2 -22 5 -12 2 9 2 23 0 30 -3 6 -5 -1 -5 -18z"/>
<path d="M11560 8375 c0 -5 5 -17 10 -25 5 -8 10 -10 10 -5 0 6 -5 17 -10 25
-5 8 -10 11 -10 5z"/>
<path d="M11925 8316 c3 -12 7 -26 8 -32 2 -7 9 -19 16 -28 8 -9 10 -26 6 -45
-9 -41 2 -71 26 -71 17 0 19 7 19 69 0 39 -4 73 -10 76 -5 3 -10 13 -10 21 0
8 5 12 10 9 6 -3 10 0 10 8 0 10 -12 14 -41 14 -36 0 -40 -2 -34 -21z"/>
<path d="M11913 8182 c-8 -5 -9 -13 -3 -22 6 -8 10 -10 10 -5 0 6 4 3 10 -5 5
-8 12 -11 15 -8 11 11 -20 47 -32 40z"/>
<path d="M10711 8164 c0 -11 3 -14 6 -6 3 7 2 16 -1 19 -3 4 -6 -2 -5 -13z"/>
<path d="M10891 8044 c0 -11 3 -14 6 -6 3 7 2 16 -1 19 -3 4 -6 -2 -5 -13z"/>
<path d="M10996 8028 c3 -4 9 -8 15 -8 5 0 9 4 9 8 0 5 -7 9 -15 9 -8 0 -12
-4 -9 -9z"/>
<path d="M11410 8006 c0 -2 9 -6 20 -9 11 -3 18 -1 14 4 -5 9 -34 13 -34 5z"/>
<path d="M10720 7896 c0 -2 7 -9 15 -16 9 -7 15 -8 15 -2 0 5 -7 12 -15 16 -8
3 -15 4 -15 2z"/>
<path d="M10597 7644 c-21 -8 -64 -17 -95 -20 -72 -9 -102 -20 -102 -38 0 -30
44 -67 85 -71 27 -3 32 -2 16 3 -21 6 -22 9 -8 20 12 10 18 10 33 -5 12 -13
19 -14 22 -5 2 6 8 12 13 12 6 0 8 -4 5 -9 -4 -5 3 -7 15 -4 11 3 23 12 26 19
3 8 11 14 17 14 29 0 49 90 21 95 -5 2 -27 -4 -48 -11z m3 -53 c0 -12 -20 -25
-27 -18 -7 7 6 27 18 27 5 0 9 -4 9 -9z"/>
<path d="M11760 5200 c25 -8 107 -13 99 -6 -2 2 -31 6 -64 9 -37 3 -51 2 -35
-3z"/>
<path d="M11716 5191 c-3 -4 6 -8 20 -9 13 -1 24 0 24 2 0 7 -40 14 -44 7z"/>
<path d="M11840 5170 c-39 -8 -34 -11 28 -14 26 -1 41 2 39 8 -5 14 -23 15
-67 6z"/>
<path d="M11720 5160 c0 -6 7 -10 15 -10 8 0 15 2 15 4 0 2 -7 6 -15 10 -8 3
-15 1 -15 -4z"/>
<path d="M11698 5133 c7 -3 16 -2 19 1 4 3 -2 6 -13 5 -11 0 -14 -3 -6 -6z"/>
<path d="M11798 5113 c6 -2 18 -2 25 0 6 3 1 5 -13 5 -14 0 -19 -2 -12 -5z"/>
<path d="M11836 5104 c-3 -9 -2 -12 5 -9 5 4 17 1 25 -6 8 -6 18 -9 22 -5 7 7
-24 36 -39 36 -4 0 -10 -7 -13 -16z"/>
<path d="M11900 5110 c0 -5 5 -10 10 -10 6 0 10 5 10 10 0 6 -4 10 -10 10 -5
0 -10 -4 -10 -10z"/>
<path d="M11688 5093 c12 -2 30 -2 40 0 9 3 -1 5 -23 4 -22 0 -30 -2 -17 -4z"/>
<path d="M11985 5090 c-3 -5 -1 -10 4 -10 6 0 11 5 11 10 0 6 -2 10 -4 10 -3
0 -8 -4 -11 -10z"/>
<path d="M11448 4963 c17 -2 47 -2 65 0 17 2 3 4 -33 4 -36 0 -50 -2 -32 -4z"/>
<path d="M11738 4933 c7 -3 16 -2 19 1 4 3 -2 6 -13 5 -11 0 -14 -3 -6 -6z"/>
<path d="M9623 4733 c37 -2 97 -2 135 0 37 2 6 3 -68 3 -74 0 -105 -1 -67 -3z"/>
</g>
</svg>
