<?xml version="1.0" standalone="no"?>
<!DOCTYPE svg PUBLIC "-//W3C//DTD SVG 20010904//EN"
 "http://www.w3.org/TR/2001/REC-SVG-20010904/DTD/svg10.dtd">
<svg version="1.0" xmlns="http://www.w3.org/2000/svg"
 width="900.000000pt" height="500.000000pt" viewBox="0 0 900.000000 500.000000"
 preserveAspectRatio="xMidYMid meet">

<g transform="translate(0.000000,500.000000) scale(0.100000,-0.100000)"
fill="#000000" stroke="none">
<path d="M692 3510 c-141 -37 -242 -98 -339 -204 -301 -329 -194 -864 212
-1057 438 -209 940 91 963 576 5 122 -18 230 -75 345 -52 104 -179 231 -283
283 -152 76 -327 96 -478 57z m-182 -245 c55 -11 144 -63 195 -113 55 -55 105
-153 113 -218 l5 -47 -48 6 c-159 22 -318 184 -333 338 -4 47 -3 51 14 46 11
-3 35 -9 54 -12z m757 -37 c-19 -155 -175 -314 -331 -335 l-49 -6 5 45 c12
106 105 236 210 293 44 24 123 50 162 54 5 1 6 -22 3 -51z m-450 -450 c-14
-117 -103 -236 -220 -293 -40 -19 -92 -38 -116 -41 l-44 -7 6 51 c16 138 137
275 283 322 95 30 98 29 91 -32z m143 37 c140 -28 292 -191 308 -333 l5 -45
-47 6 c-157 22 -315 182 -333 339 -6 46 -4 50 13 45 10 -3 35 -9 54 -12z"/>
<path d="M1643 3523 c3 -5 96 -300 207 -658 111 -357 207 -653 214 -657 20
-14 262 -9 274 5 5 6 103 300 218 652 114 352 209 646 212 653 3 10 -22 12
-118 10 l-122 -3 -139 -445 c-77 -245 -149 -480 -161 -522 -19 -71 -38 -94
-38 -47 0 15 -231 796 -291 987 l-11 32 -124 0 c-69 0 -123 -3 -121 -7z"/>
<path d="M3552 2868 l3 -663 105 0 105 0 3 663 2 662 -110 0 -110 0 2 -662z"/>
<path d="M4214 3145 c-119 -26 -222 -98 -281 -197 -42 -68 -73 -191 -73 -283
0 -78 27 -201 58 -262 111 -216 445 -290 654 -145 67 47 148 142 148 174 0 18
-173 104 -178 88 -11 -33 -73 -98 -112 -117 -97 -50 -238 -17 -294 68 -73 110
-72 303 3 406 40 55 108 87 186 87 86 0 139 -31 184 -106 l33 -57 89 45 c49
24 89 49 89 54 0 25 -43 91 -87 135 -57 58 -144 100 -233 114 -81 13 -110 13
-186 -4z"/>
<path d="M6072 3145 c-89 -20 -148 -51 -209 -108 -100 -94 -144 -208 -144
-372 1 -171 41 -276 143 -370 64 -59 129 -88 238 -106 175 -29 361 53 454 200
14 22 26 43 26 45 0 2 -39 26 -87 52 l-87 47 -15 -22 c-69 -98 -122 -130 -214
-131 -154 0 -237 102 -237 290 0 143 42 225 140 276 45 23 153 23 196 1 35
-18 80 -68 106 -116 l18 -33 87 48 c49 26 89 48 91 50 7 5 -40 85 -70 119 -98
113 -278 166 -436 130z"/>
<path d="M7389 3146 c-58 -15 -132 -58 -158 -92 l-20 -25 -3 53 -3 53 -110 0
-110 0 -3 -462 -2 -463 115 0 115 0 0 283 c0 158 5 298 10 318 28 99 104 153
207 147 74 -5 108 -26 138 -84 18 -36 20 -65 25 -354 l5 -315 90 -3 c50 -2
101 0 114 3 l23 6 -5 342 c-5 412 -9 430 -96 518 -46 45 -67 58 -117 72 -70
20 -150 21 -215 3z"/>
<path d="M8290 3153 c-101 -17 -188 -63 -258 -136 -87 -93 -122 -190 -122
-342 0 -264 145 -447 384 -485 120 -19 267 13 370 81 51 34 138 128 133 144
-2 5 -34 34 -72 63 l-68 53 -46 -50 c-82 -89 -205 -123 -324 -90 -71 19 -138
98 -158 186 l-7 33 339 0 339 0 0 78 c-1 189 -79 345 -209 416 -80 43 -210 64
-301 49z m182 -204 c39 -20 82 -69 92 -106 3 -13 9 -32 12 -43 5 -20 1 -20
-220 -20 -249 0 -240 -3 -212 63 24 57 90 110 161 128 42 11 123 0 167 -22z"/>
<path d="M2923 3135 c-155 -43 -253 -148 -253 -270 l0 -32 68 -6 c37 -4 84 -7
105 -7 34 0 37 2 37 28 0 38 33 88 72 108 42 22 169 25 216 5 39 -16 62 -56
62 -106 0 -45 -9 -49 -170 -75 -215 -35 -302 -69 -363 -140 -44 -52 -61 -112
-55 -198 9 -122 76 -205 196 -242 110 -34 266 -20 348 31 l33 20 3 -23 c3 -22
6 -23 108 -23 l105 0 3 363 c1 237 -2 378 -9 404 -15 58 -79 123 -147 149 -74
29 -279 37 -359 14z m302 -643 c-13 -89 -110 -150 -220 -139 -93 9 -135 48
-135 122 0 76 38 101 204 135 60 12 119 25 130 30 19 7 21 3 24 -49 2 -31 0
-75 -3 -99z"/>
<path d="M6660 2675 l0 -465 110 0 110 0 -2 463 -3 462 -107 3 -108 3 0 -466z"/>
<path d="M4810 2807 c0 -332 7 -412 40 -477 39 -75 124 -131 222 -145 102 -15
250 37 300 106 l23 31 5 -59 5 -58 105 0 105 0 3 463 2 462 -109 0 -109 0 -3
-293 -4 -293 -30 -60 c-39 -75 -85 -104 -166 -104 -69 0 -115 27 -144 85 -18
37 -20 64 -23 353 l-4 312 -109 0 -109 0 0 -323z"/>
<path d="M5783 1945 c-20 -14 -23 -25 -23 -76 l0 -59 -40 0 c-33 0 -40 -3 -40
-20 0 -17 7 -20 40 -20 l40 0 0 -150 c0 -143 1 -150 20 -150 19 0 20 7 20 149
l0 150 38 3 c52 4 51 32 -1 36 l-38 3 3 52 3 52 38 3 c30 3 37 7 35 20 -4 23
-66 28 -95 7z"/>
<path d="M7271 1941 c-16 -16 -21 -34 -21 -75 l0 -55 -37 -3 c-26 -2 -38 -8
-38 -18 0 -10 12 -16 38 -18 l37 -3 0 -150 c0 -142 1 -149 20 -149 19 0 20 7
20 150 l0 150 40 0 c33 0 40 3 40 20 0 17 -7 20 -40 20 l-40 0 0 43 c0 50 13
67 53 67 22 0 28 4 25 18 -5 27 -71 29 -97 3z"/>
<path d="M2640 1710 l0 -240 25 0 25 0 0 240 0 240 -25 0 -25 0 0 -240z"/>
<path d="M6710 1710 l0 -240 155 0 c148 0 155 1 155 20 0 19 -7 20 -135 20
l-135 0 0 220 c0 213 -1 220 -20 220 -19 0 -20 -7 -20 -240z"/>
<path d="M4503 1933 c-9 -3 -13 -26 -13 -64 l0 -59 -35 0 c-28 0 -35 -4 -35
-20 0 -16 7 -20 35 -20 l35 0 0 -145 c0 -132 2 -145 19 -155 39 -21 101 -9
101 19 0 12 -9 16 -37 16 l-38 0 -3 133 -3 132 41 0 c33 0 40 3 40 20 0 17 -7
20 -40 20 l-40 0 0 65 c0 64 -2 69 -27 58z"/>
<path d="M4667 1916 c-9 -22 19 -42 37 -26 19 15 10 40 -14 40 -10 0 -20 -6
-23 -14z"/>
<path d="M7074 1919 c-8 -14 21 -43 35 -35 19 12 13 46 -8 46 -11 0 -23 -5
-27 -11z"/>
<path d="M6384 1806 c-18 -8 -37 -22 -43 -33 -9 -16 -10 -15 -11 10 0 24 -4
28 -22 25 -23 -3 -23 -5 -26 -170 l-2 -168 25 0 25 0 0 121 c0 120 0 121 29
150 20 20 39 29 61 29 27 0 31 3 28 22 -4 28 -23 32 -64 14z"/>
<path d="M2780 1640 l0 -170 25 0 25 0 0 125 c0 120 1 127 25 150 35 36 99 37
128 3 14 -17 17 -41 17 -149 l0 -129 25 0 25 0 0 113 c0 131 -11 178 -47 207
-35 27 -111 27 -146 0 -25 -20 -25 -20 -30 0 -3 12 -14 20 -26 20 -20 0 -21
-4 -21 -170z"/>
<path d="M3140 1640 c0 -163 1 -170 20 -170 19 0 20 7 20 120 0 116 1 121 28
150 18 21 37 31 57 32 81 2 95 -25 95 -188 0 -107 1 -114 20 -114 19 0 20 7
20 130 0 176 -18 210 -110 210 -43 0 -95 -21 -103 -42 -3 -7 -6 -1 -6 15 -1
20 -6 27 -21 27 -19 0 -20 -7 -20 -170z"/>
<path d="M3543 1789 c-44 -28 -67 -82 -67 -154 1 -94 45 -157 119 -171 138
-26 232 137 160 277 -35 66 -144 92 -212 48z m121 -19 c60 -23 89 -153 49
-220 -28 -49 -97 -65 -141 -34 -75 52 -68 215 10 249 40 17 49 18 82 5z"/>
<path d="M3859 1643 c77 -220 78 -220 150 -36 30 76 60 153 68 171 13 32 13
33 -9 30 -19 -2 -31 -24 -75 -138 -46 -120 -53 -132 -61 -110 -5 14 -27 76
-48 137 -34 98 -42 113 -61 113 -22 0 -20 -6 36 -167z"/>
<path d="M4185 1801 c-43 -18 -77 -84 -48 -95 25 -10 30 -7 36 23 7 35 52 56
102 47 37 -7 55 -30 55 -68 0 -21 -8 -25 -82 -40 -59 -13 -89 -24 -107 -42
-48 -49 -22 -140 47 -160 39 -11 93 -1 117 22 18 17 20 16 42 -6 26 -26 66
-26 71 0 2 11 -5 18 -20 20 -22 3 -23 7 -28 131 -5 126 -6 129 -33 153 -22 19
-39 24 -80 23 -29 0 -61 -4 -72 -8z m145 -197 c0 -37 -5 -51 -29 -75 -51 -51
-141 -31 -141 31 0 32 21 57 53 65 48 11 102 23 110 24 4 1 7 -20 7 -45z"/>
<path d="M4670 1640 c0 -163 1 -170 20 -170 19 0 20 7 20 170 0 163 -1 170
-20 170 -19 0 -20 -7 -20 -170z"/>
<path d="M4875 1800 c-52 -21 -85 -83 -85 -160 0 -112 54 -175 150 -175 97 0
150 63 150 178 0 100 -61 168 -149 166 -25 0 -55 -4 -66 -9z m128 -48 c48 -42
59 -120 28 -189 -22 -47 -45 -63 -94 -63 -89 0 -135 116 -86 216 30 63 103 81
152 36z"/>
<path d="M5170 1640 c0 -163 1 -170 20 -170 19 0 20 7 20 115 0 134 13 172 60
182 36 7 34 7 69 0 40 -8 51 -47 51 -183 0 -107 1 -114 20 -114 19 0 20 7 20
124 0 135 -9 177 -45 200 -45 29 -153 12 -168 -26 -3 -7 -6 -1 -6 15 -1 20 -6
27 -21 27 -19 0 -20 -7 -20 -170z"/>
<path d="M5974 1790 c-62 -40 -89 -172 -51 -247 46 -89 156 -109 231 -42 80
70 70 237 -17 289 -43 27 -122 26 -163 0z m156 -45 c21 -21 25 -36 28 -100 4
-74 4 -75 -31 -110 -101 -101 -223 35 -162 181 27 65 114 80 165 29z"/>
<path d="M7080 1640 c0 -163 1 -170 20 -170 19 0 20 7 20 170 0 163 -1 170
-20 170 -19 0 -20 -7 -20 -170z"/>
<path d="M7490 1803 c-23 -8 -60 -45 -75 -73 -21 -42 -25 -88 -13 -143 19 -91
92 -140 183 -123 38 7 105 59 105 81 0 26 -22 27 -44 2 -67 -80 -187 -53 -203
46 l-6 37 127 0 126 0 0 35 c0 48 -34 111 -70 130 -28 15 -100 19 -130 8z m94
-33 c26 -10 49 -39 61 -77 6 -23 6 -23 -99 -23 -117 0 -120 2 -86 58 29 47 73
62 124 42z"/>
<path d="M7767 1513 c-12 -12 -7 -41 7 -46 22 -9 41 19 26 38 -14 16 -23 19
-33 8z"/>
</g>
</svg>
