<svg version="1.1" xmlns="http://www.w3.org/2000/svg" xmlns:xlink="http://www.w3.org/1999/xlink" width="900.000000pt" height="500.000000pt" viewBox="0,0,256,142.21251"><g fill="#ffffff" fill-rule="nonzero" stroke="none" stroke-width="1" stroke-linecap="butt" stroke-linejoin="miter" stroke-miterlimit="10" stroke-dasharray="" stroke-dashoffset="0" font-family="none" font-weight="none" font-size="none" text-anchor="none" style="mix-blend-mode: normal"><g transform="translate(0,0.11892) scale(0.28444,0.28444)"><g transform="translate(0,500) scale(0.1,-0.1)"><path d="M2820,3134c-142,-21 -211,-53 -296,-138c-67,-67 -120,-164 -150,-276c-26,-95 -26,-358 0,-455c40,-150 132,-282 231,-333c153,-77 369,-76 525,3c93,47 172,148 187,239l6,36h-95h-94l-11,-43c-15,-56 -72,-111 -142,-138c-45,-17 -70,-20 -129,-16c-175,13 -272,115 -309,325c-18,103 -12,296 11,381c54,194 176,291 351,278c119,-9 203,-69 226,-162l11,-45h93h92l-8,48c-20,105 -86,195 -179,242c-88,45 -225,68 -320,54z"></path><path d="M3831,3125c-203,-45 -331,-178 -392,-410c-27,-102 -29,-301 -4,-420c42,-205 160,-348 332,-400c120,-37 291,-25 408,29c102,46 190,153 210,254l7,32h-94h-93l-18,-49c-34,-98 -142,-158 -266,-149c-163,12 -268,114 -307,296c-18,88 -18,298 1,387c39,182 142,289 294,302c152,14 265,-55 295,-179l6,-28h91h92l-7,43c-10,63 -49,140 -94,185c-98,98 -292,143 -461,107z"></path><path d="M210,3045v-75l341,-2l342,-3l-352,-449l-351,-449v-89v-88h460h460v75v75l-361,2l-361,3l356,452l356,452v86v85h-445h-445z"></path><path d="M1232,2658c3,-463 3,-463 27,-523c47,-117 167,-212 316,-250c73,-19 233,-19 300,-1c167,45 276,145 329,300c19,57 20,88 24,499l3,437h-85h-85l-3,-443l-3,-443l-30,-59c-34,-67 -92,-117 -158,-137c-23,-7 -87,-13 -142,-12c-86,0 -108,4 -156,26c-64,29 -117,78 -145,134c-18,37 -19,67 -22,487l-3,447h-85h-85z"></path><path d="M4500,2505v-615h85h85v280v280l293,-2l292,-3l3,-278l2,-278l83,3l82,3l3,613l2,612h-85h-85v-260v-260h-295h-295v260v260h-85h-85z"></path><path d="M5580,2505v-615h390h390v75v75h-305h-305v200v200l283,2l282,3l3,73l3,72h-286h-285v190v190h555h555v-187c0,-104 0,-347 0,-540v-353h85h85v540v540h295h295v-540v-540h85h85v540v540h205h205v75v75h-1310h-1310z"></path><path d="M8330,2505v-615h85h85v615v615h-85h-85z"></path><path d="M8640,2055v-165h85h85l-2,163l-3,162l-82,3l-83,3z"></path></g></g></g></svg>