<?xml version="1.0" standalone="no"?>
<!DOCTYPE svg PUBLIC "-//W3C//DTD SVG 20010904//EN"
 "http://www.w3.org/TR/2001/REC-SVG-20010904/DTD/svg10.dtd">
<svg version="1.0" xmlns="http://www.w3.org/2000/svg"
 width="900.000000pt" height="500.000000pt" viewBox="0 0 900.000000 500.000000"
 preserveAspectRatio="xMidYMid meet">

<g transform="translate(0.000000,500.000000) scale(0.100000,-0.100000)"
fill="#000000" stroke="none">
<path d="M2820 3134 c-142 -21 -211 -53 -296 -138 -67 -67 -120 -164 -150
-276 -26 -95 -26 -358 0 -455 40 -150 132 -282 231 -333 153 -77 369 -76 525
3 93 47 172 148 187 239 l6 36 -95 0 -94 0 -11 -43 c-15 -56 -72 -111 -142
-138 -45 -17 -70 -20 -129 -16 -175 13 -272 115 -309 325 -18 103 -12 296 11
381 54 194 176 291 351 278 119 -9 203 -69 226 -162 l11 -45 93 0 92 0 -8 48
c-20 105 -86 195 -179 242 -88 45 -225 68 -320 54z"/>
<path d="M3831 3125 c-203 -45 -331 -178 -392 -410 -27 -102 -29 -301 -4 -420
42 -205 160 -348 332 -400 120 -37 291 -25 408 29 102 46 190 153 210 254 l7
32 -94 0 -93 0 -18 -49 c-34 -98 -142 -158 -266 -149 -163 12 -268 114 -307
296 -18 88 -18 298 1 387 39 182 142 289 294 302 152 14 265 -55 295 -179 l6
-28 91 0 92 0 -7 43 c-10 63 -49 140 -94 185 -98 98 -292 143 -461 107z"/>
<path d="M210 3045 l0 -75 341 -2 342 -3 -352 -449 -351 -449 0 -89 0 -88 460
0 460 0 0 75 0 75 -361 2 -361 3 356 452 356 452 0 86 0 85 -445 0 -445 0 0
-75z"/>
<path d="M1232 2658 c3 -463 3 -463 27 -523 47 -117 167 -212 316 -250 73 -19
233 -19 300 -1 167 45 276 145 329 300 19 57 20 88 24 499 l3 437 -85 0 -85 0
-3 -443 -3 -443 -30 -59 c-34 -67 -92 -117 -158 -137 -23 -7 -87 -13 -142 -12
-86 0 -108 4 -156 26 -64 29 -117 78 -145 134 -18 37 -19 67 -22 487 l-3 447
-85 0 -85 0 3 -462z"/>
<path d="M4500 2505 l0 -615 85 0 85 0 0 280 0 280 293 -2 292 -3 3 -278 2
-278 83 3 82 3 3 613 2 612 -85 0 -85 0 0 -260 0 -260 -295 0 -295 0 0 260 0
260 -85 0 -85 0 0 -615z"/>
<path d="M5580 2505 l0 -615 390 0 390 0 0 75 0 75 -305 0 -305 0 0 200 0 200
283 2 282 3 3 73 3 72 -286 0 -285 0 0 190 0 190 555 0 555 0 0 -187 c0 -104
0 -347 0 -540 l0 -353 85 0 85 0 0 540 0 540 295 0 295 0 0 -540 0 -540 85 0
85 0 0 540 0 540 205 0 205 0 0 75 0 75 -1310 0 -1310 0 0 -615z"/>
<path d="M8330 2505 l0 -615 85 0 85 0 0 615 0 615 -85 0 -85 0 0 -615z"/>
<path d="M8640 2055 l0 -165 85 0 85 0 -2 163 -3 162 -82 3 -83 3 0 -166z"/>
</g>
</svg>
